<svg width="20" height="20" fill="none" xmlns="http://www.w3.org/2000/svg"><path d="M19.655 16.55H.345A.345.345 0 0 1 0 16.205v-3.103h20v3.103c0 .19-.154.345-.345.345z" fill="#73AF00"/><path d="M19.655 3.445H.345A.345.345 0 0 0 0 3.79v9.31h20V3.79a.345.345 0 0 0-.345-.345z" fill="#FF4B55"/><path d="M2.759 16.549H.345A.345.345 0 0 1 0 16.204V3.79c0-.19.154-.345.345-.345h2.414V16.55z" fill="#F5F5F5"/><path d="M.345 15.979h.122v-.342H.345v.342zm.973 0h.122v-.342h-.122v.342zm.974 0h.121v-.342h-.12v.342zm-1.46-.916h.12v-.285h-.12v.284zm.974 0h.121v-.285h-.121v.284zm-1.461-.744h.122v-.341H.345v.341zm.973 0h.122v-.341h-.122v.341zm.974 0h.121v-.341h-.12v.341zm-1.703.459H.71v-.288h.122v-.285h.12v.285h.123v.288h.121v.284h-.12v.288H.952v.287H.832v-.287H.71v-.287H.59v-.285zm.974 0h.122v-.288h.121v-.285h.121v.285h.122v.288h.122v.284h-.122v.288h-.122v.287h-.121v-.287h-.121v-.287h-.122v-.285zm.243-1.145v.285h-.123v.287h-.12v.285H1.44v.288h-.122v-.288h-.122v-.285h-.12v-.287H.952v-.285H.832v.285H.71v.287H.59v.285H.466v.288H.345v.284h.122v.288h.122v.287H.71v.285h.122v.285h.122v-.285h.121v-.285h.121v-.287h.122v-.287h.122v.287h.123v.287h.122v.285h.121v.285h.121v-.285h.122v-.285h.122v-.287h.122v-.287h.12v-.285h-.12v-.288H2.17v-.285h-.122v-.287h-.122v-.285h-.121zm.302-.284h.06v-.114h.062v.114h.06v.113h-.06v.117h-.062v-.117h-.06v-.113zm0-.4v.17h-.06v.173h-.062v.228h.061v.17h.06v.171h.184v-.17h.06v-.171h.06v-.228h-.06v-.174h-.06v-.168h-.183zm-1.641.397h.061v-.114h.061v.114h.06v.116h-.06v.114H.528v-.114H.467v-.116zm0-.399v.171H.406v.171H.345v.23h.061v.171h.06v.171H.65v-.17H.71v-.172h.06v-.23H.71v-.17H.649v-.172H.467zm.669.399h.06v-.114h.062v.114h.06v.116h-.06v.114h-.062v-.114h-.06v-.116zm.304 0h.061v-.114h.062v.114h.06v.116h-.06v.114H1.5v-.114h-.06v-.116zm0-.399v.171h-.122v-.17h-.182v.17h-.06v.171h-.062v.23h.061v.171h.061v.171h.182v-.17h.122v.17h.183v-.17h.062v-.172h.06v-.23h-.06v-.17h-.062v-.172H1.44zm-1.095-.116h.122v-.342H.345v.342zm.973 0h.122v-.342h-.122v.342zm.974 0h.121v-.342h-.12v.342zM.345 11.4h.122v-.227H.345v.228zm1.947 0h.121v-.227h-.12v.228zm-.974-.8h.122v-.284h-.122v.285zM.345 9.83V10.173h.122V9.83H.345zm.669 0V10.173h.122V9.83h-.122zm.609 0V10.173h.121V9.83h-.121zm.67 0V10.173h.12V9.83h-.12zm-.792-.2v.113h-.06v.087h-.123v-.087h-.06v-.114h-.122V9.8h.06v.087h.062v.228h-.062v.086h-.06v.171h.122v-.114h.06v-.084h.122v.085h.061v.113h.122v-.17h-.06v-.087H1.5v-.228h.062v-.087h.06v-.17H1.5zm-.183.056h.122V9.4h-.122v.285zm-.973-.857h.122V8.6H.345v.228zm1.947 0h.121V8.6h-.12v.228zM.345 7.513h.122V7.17H.345v.344zm.973 0h.122V7.17h-.122v.344zm.974 0h.121V7.17h-.12v.344zm-1.46 2.492v-.119h.12v-.198h.123v-.23h.183v-.27h.06v-.132h.122v.129h.061v.272h.184v.231h.121v.198h.121v.228h-.121v.203h-.121v.228H1.5v.27h-.06v.128h-.122v-.128h-.061v-.27h-.183v-.228H.953v-.203H.832v-.11zm.974-3.18v.287h-.123v.285h-.12v.287H1.44V7.97h-.122v-.285h-.122v-.287h-.12v-.285H.952v-.287H.832v.287H.71v.285H.588v.287H.467V7.97H.345v.287h.122v.287h.121v.285H.71v.285h.122v-.285h.12v-.285h.123v-.287H.953v-.344h.122V8.142h.121V8.6h.062v.283l-.183.002v.228H.953v.171h-.12v.287H.71v-.287H.588v-.17H.467v-.172H.345v.515h.122v.23h.121v.199H.71v.228H.588v.203H.467v.228H.345v.515h.122v-.174h.121v-.17H.71v-.285h.122v.285h.12v.17h.123v.23l.183.003v.283h-.062v.458h-.12v.23H.952v-.347h.122v-.284H.953v-.285H.832v-.288H.71v.288H.588v.285H.467v.284H.345v.288h.122V12.316h.122v.287H.71v.287h.122v.285h.12v-.285h.123v-.287h.121v-.287h.122v-.285h.122V12.316h.123v.287h.122v.287h.121v.285h.121v-.285h.122v-.287h.122v-.287h.121v-.285h.121v-.288h-.12v-.284H2.17v-.285h-.122v-.288h-.122v.288h-.121v.285h-.123v.284h.123v.348h-.123v-.231h-.12v-.458H1.5v-.285h.184v-.23h.121v-.171h.121v-.285h.122v.285h.122v.17h.122v.174h.12v-.515h-.12v-.228H2.17v-.203h-.122v-.228h.122v-.198h.122v-.23h.12v-.516h-.12v.171H2.17v.171h-.122v.287h-.122v-.287h-.121v-.17h-.121v-.229H1.5V8.6h.062v-.458h.12V7.912h.123v.344h-.123v.287h.123v.285h.121v.285h.122v-.285h.122v-.285h.121v-.287h.122V7.97h-.122v-.285h-.121v-.287h-.122v-.285h-.122v-.287h-.121zM.466 6.54h.06v-.114H.59v.114h.06v.114h-.06v.116H.527v-.116h-.06V6.54zm0-.23h-.06v.173H.345v.228h.061v.173h.06v.171H.65v-.171H.71v-.173h.06v-.228H.71v-.174H.649v-.168H.467v.168zm.67.23h.06v-.114h.062v.114h.06v.114h-.06v.116h-.062v-.116h-.06V6.54zm.304 0h.061v-.114h.062v.114h.06v.114h-.06v.116H1.5v-.116h-.06V6.54zm-.304-.23h-.06v.173h-.062v.228h.061v.173h.061v.171h.182v-.171h.122v.171h.183v-.171h.062v-.173h.06v-.228h-.06v-.174h-.062v-.168H1.44v.168h-.122v-.168h-.182v.168zm.972.227h.06v-.111h.062v.111h.06v.117h-.06v.114h-.062v-.114h-.06v-.117zm0-.398v.17h-.06v.174h-.062v.228h.061v.17h.06v.171h.184v-.17h.06V6.71h.06v-.228h-.06v-.174h-.06v-.17h-.183zM.345 6.025h.122v-.342H.345v.342zm.973 0h.122v-.342h-.122v.342zm.974 0h.121v-.342h-.12v.342zm-1.46-.8h.12v-.288h-.12v.288zm.974 0h.121v-.288h-.121v.288zm-1.461-.86h.122v-.342H.345v.342zm.973 0h.122v-.342h-.122v.342zm.974 0h.121v-.342h-.12v.342zM.59 4.937H.71v-.285h.122v-.287h.12v.287h.123v.285h.121v.288h-.12v.284H.952v.288H.832v-.288H.71v-.284H.59v-.288zm.974 0h.122v-.285h.121v-.287h.121v.287h.122v.285h.122v.288h-.122v.284h-.122v.288h-.121v-.288h-.121v-.284h-.122v-.288zm.243-1.144v.287h-.121v.285h-.122v.287H1.44v.285h-.122v-.285h-.122v-.287h-.12V4.08H.953v-.287H.832v.287H.71v.285H.59v.287H.466v.285H.345v.288h.122v.285h.122v.287H.71v.287h.122v.285h.12v-.285h.123v-.287h.121V5.51h.122v-.285h.122v.285h.123v.287h.12v.287h.123v.285h.121v-.285h.122v-.287h.122V5.51h.121v-.285h.121v-.288h-.12v-.285H2.17v-.287h-.122V4.08h-.122v-.287h-.121z" fill="#FF4B55"/></svg>