<svg width="20" height="20" fill="none" xmlns="http://www.w3.org/2000/svg"><path d="M.345 16.549h19.31c.19 0 .345-.155.345-.345V3.79a.345.345 0 0 0-.345-.345H.345A.345.345 0 0 0 0 3.79v12.414c0 .19.154.345.345.345z" fill="#C8414B"/><path d="M20 6.207H0v7.586h20V6.207z" fill="#FFD250"/><path d="M8.448 9.997l.293-1.316a.194.194 0 0 0-.19-.236h-.206a.194.194 0 0 0-.189.236l.292 1.316z" fill="#C8414B"/><path d="M8.793 9.313h-.69v2.93h.69v-2.93z" fill="#F5F5F5"/><path d="M8.965 8.969H7.931v.345h1.034v-.345z" fill="#FAB446"/><path d="M8.966 9.996H7.242v.345h1.724v-.345zM8.966 11.377l-1.034-.345v-.345l1.034.345v.345zM3.277 9.997l.292-1.316a.194.194 0 0 0-.19-.236h-.205a.194.194 0 0 0-.19.236l.293 1.316z" fill="#C8414B"/><path d="M4.484 8.965a.345.345 0 0 0-.345.345v2.241c0 .419.39 1.207 1.724 1.207 1.333 0 1.724-.788 1.724-1.207V9.31a.345.345 0 0 0-.345-.345H4.484z" fill="#F5F5F5"/><path d="M5.863 10.689H4.139v-1.38c0-.19.154-.344.345-.344h1.379v1.724zM5.863 10.691h1.724v.862a.862.862 0 0 1-1.724 0v-.862z" fill="#C8414B"/><path d="M4.139 10.688h1.724v.862a.862.862 0 0 1-1.724 0v-.863z" fill="#FAB446"/><path d="M5.517 12.235v-1.547h-.345v1.706a.854.854 0 0 0 .345-.159zM4.827 12.394v-1.707h-.345v1.548c.101.076.217.133.345.16z" fill="#C8414B"/><path d="M5.518 10H4.483v.345h1.035V10z" fill="#FFB441"/><path d="M5.518 9.313H4.483v.344h1.035v-.345z" fill="#FAB446"/><path d="M5.345 9.516h-.69v.624h.69v-.624z" fill="#FAB446"/><path d="M3.62 9.313h-.69v2.93h.69v-2.93z" fill="#F5F5F5"/><path d="M3.793 12.074H2.76v.345h1.034v-.345zM3.793 8.969H2.76v.345h1.034v-.345z" fill="#FAB446"/><path d="M3.965 12.414h-1.38v.345h1.38v-.345z" fill="#5064AA"/><path d="M9.138 12.066H8.104v.345h1.034v-.345z" fill="#FAB446"/><path d="M9.138 12.414h-1.38v.345h1.38v-.345z" fill="#5064AA"/><path d="M6.897 8.621H4.828v.345h2.07V8.62z" fill="#FAB446"/><path d="M6.034 7.586H5.69V8.62h.345V7.586z" fill="#FFB441"/><path d="M5.517 8.1a.518.518 0 1 1 .001-1.035.518.518 0 0 1 0 1.036zm0-.689a.173.173 0 1 0 0 .345.173.173 0 0 0 0-.345z" fill="#F5F5F5"/><path d="M6.208 8.1a.518.518 0 1 1 0-1.035.518.518 0 0 1 0 1.036zm0-.689a.173.173 0 1 0 0 .345.173.173 0 0 0 0-.345z" fill="#F5F5F5"/><path d="M6.897 8.445a.518.518 0 1 1 .001-1.036.518.518 0 0 1 0 1.036zm0-.69a.173.173 0 1 0 0 .345.173.173 0 0 0 0-.345zM4.828 8.445a.518.518 0 1 1 0-1.036.518.518 0 0 1 0 1.036zm0-.69a.173.173 0 1 0 0 .345.173.173 0 0 0 0-.345z" fill="#F5F5F5"/><path d="M6.896 11.38v.172a.173.173 0 0 1-.345 0v-.172h.345zm.345-.345H6.206v.517a.518.518 0 0 0 1.035 0v-.517z" fill="#FAB446"/><path d="M6.725 10.347a.345.345 0 0 1-.345-.345v-.345a.345.345 0 0 1 .69 0v.345c0 .19-.155.345-.345.345z" fill="#FFA0D2"/><path d="M5.862 11.206a.517.517 0 1 0 0-1.034.517.517 0 0 0 0 1.034z" fill="#5064AA"/><path d="M6.034 6.898H5.69v1.035h.345V6.898z" fill="#FAB446"/><path d="M4.827 8.62l-.345-.344.202-.202a1.665 1.665 0 0 1 2.355 0l.202.202-.345.344H4.827z" fill="#C8414B"/><path d="M5.862 8.45a.172.172 0 1 0 0-.345.172.172 0 0 0 0 .345zM5.172 8.45a.172.172 0 1 0 0-.345.172.172 0 0 0 0 .345zM6.552 8.45a.172.172 0 1 0 0-.345.172.172 0 0 0 0 .345z" fill="#FFD250"/><path d="M4.483 10H2.759v.345h1.724V10zM2.759 11.377l1.034-.345v-.345l-1.034.345v.345z" fill="#C8414B"/></svg>