<svg width="580" height="199" fill="none" xmlns="http://www.w3.org/2000/svg"><g filter="url(#filter0_f)"><path d="M108.205 74.56l-1.569-1.046-.003.005 1.572 1.041zm-13.32 10.98l-.793-1.71-.007.003.8 1.707zm-20.7 4.68l-.098-1.883-1.475.077-.278 1.45 1.851.356zm-1.35 7.02v1.886h1.558l.294-1.53-1.852-.356zm-19.44 0l-1.849-.37-.45 2.256h2.3V97.24zm1.44-7.2l1.85.37.405-2.026-2.055-.22-.2 1.876zm-20.52-7.38l-1.227 1.432.01.008 1.217-1.44zm-2.43-32.13l-1.581-1.027 1.581 1.027zm13.14-11.07l.815 1.7.007-.003.008-.003-.83-1.694zm20.97-5.13l.138 1.88 1.438-.104.275-1.416-1.85-.36zm1.26-6.48v-1.886h-1.554l-.297 1.526 1.851.36zm19.44 0l1.849.375.458-2.26h-2.307v1.885zm-1.35 6.66l-1.848-.375-.417 2.058 2.09.195.175-1.878zm20.52 7.29l-1.228 1.43.01.01 1.218-1.44zm-28.35 31.95l-1.849-.37-.51 2.55 2.582-.308-.223-1.872zm10.98-3.96l-1.239-1.421-.009.008-.009.008 1.257 1.405zm1.17-15.75l1.359-1.308-1.359 1.308zm-7.56-3.24l.29-1.863-1.785-.277-.354 1.77 1.85.37zm-31.59 19.62l-1.359 1.307.013.013.013.013 1.333-1.333zm7.56 3.15l-.289 1.863 1.78.277.358-1.766-1.849-.374zm4.59-22.68l1.849.374.521-2.578-2.609.334.24 1.87zm-11.07 4.05l1.255 1.407.011-.009.01-.01-1.276-1.388zM111 58.18c0 5.91-1.472 10.997-4.364 15.334l3.138 2.092c3.349-5.023 4.997-10.856 4.997-17.426H111zm-4.367 15.339c-2.838 4.285-6.987 7.734-12.541 10.31l1.587 3.422c6.086-2.824 10.817-6.696 14.098-11.65l-3.144-2.082zM94.085 83.833c-5.49 2.573-12.14 4.093-19.998 4.504l.197 3.766c8.22-.43 15.371-2.029 21.402-4.856l-1.601-3.414zm-21.751 6.03l-1.35 7.02 3.703.713 1.35-7.02-3.703-.712zm.501 5.491h-19.44v3.772h19.44v-3.772zm-17.59 2.256l1.44-7.2-3.699-.74-1.44 7.2 3.698.74zm-.21-9.445c-8.793-.938-15.217-3.319-19.502-6.945l-2.436 2.88c5.075 4.294 12.332 6.833 21.538 7.815l.4-3.75zm-19.492-6.937C31.39 77.67 29.27 72.85 29.27 66.55H25.5c0 7.26 2.5 13.18 7.588 17.542l2.455-2.864zM29.27 66.55c0-5.733 1.414-10.71 4.196-14.993l-3.163-2.054C27.086 54.459 25.5 60.163 25.5 66.55h3.771zm4.196-14.993c2.783-4.285 6.875-7.762 12.373-10.396l-1.63-3.402c-6.021 2.886-10.689 6.79-13.906 11.744l3.163 2.054zm12.388-10.403c5.49-2.689 12.233-4.356 20.278-4.943l-.275-3.762c-8.395.613-15.633 2.366-21.662 5.317l1.659 3.388zm21.991-6.464l1.26-6.48-3.702-.72-1.26 6.48 3.702.72zm-.59-4.954h19.44v-3.772h-19.44v3.772zm17.591-2.26l-1.35 6.66 3.697.749 1.35-6.66-3.697-.75zm.323 8.912c8.784.82 15.192 3.17 19.467 6.842l2.457-2.86c-5.085-4.368-12.357-6.877-21.573-7.738l-.35 3.756zm19.477 6.852c4.197 3.55 6.353 8.45 6.353 14.94h3.771c0-7.43-2.524-13.45-7.688-17.82l-2.436 2.88zM77.738 75.623c5.195-.619 9.312-2.01 12.015-4.428l-2.515-2.81c-1.857 1.661-5.06 2.911-9.946 3.492l.446 3.746zm11.996-4.412c2.84-2.475 4.157-5.955 4.157-10.151H90.12c0 3.364-1.023 5.704-2.864 7.309l2.478 2.842zm4.157-10.151c0-3.368-.862-6.246-2.867-8.328l-2.717 2.616c1.115 1.158 1.813 2.96 1.813 5.712h3.771zm-2.867-8.328c-1.968-2.043-4.958-3.226-8.63-3.795l-.578 3.726c3.288.51 5.338 1.488 6.491 2.685l2.717-2.616zM80.256 50.43l-4.59 22.95 3.698.74 4.59-22.95-3.698-.74zM46.38 63.58c0 3.297.826 6.119 2.776 8.147l2.719-2.614c-1.05-1.092-1.724-2.83-1.724-5.533H46.38zm2.802 8.173c1.967 1.967 4.947 3.113 8.604 3.68l.578-3.726c-3.302-.513-5.362-1.467-6.515-2.62l-2.667 2.666zm10.742 2.191l4.59-22.68-3.697-.748-4.59 22.68 3.697.748zm2.502-24.925c-5.297.678-9.457 2.098-12.107 4.532l2.552 2.777c1.79-1.645 5.01-2.925 10.034-3.568l-.479-3.74zM50.34 53.534c-2.724 2.43-3.96 5.885-3.96 10.047h3.771c0-3.398.984-5.703 2.7-7.233l-2.51-2.814zM131.72 91.93l-.844 1.687.013.006.013.006.818-1.699zm-11.16-9.99l-1.613.977.005.008.005.008 1.603-.993zm1.17-34.2l-1.622-.963-.003.005 1.625.958zm14.13-13.41l-.877-1.67-.007.004.884 1.666zm37.35-1.17l-.844 1.687.013.006.013.006.818-1.699zm11.16 9.9l-1.613.977.005.008.005.008 1.603-.993zm-1.17 34.29l-1.622-.963-.003.005 1.625.958zm-14.13 13.32l-.877-1.67-.007.004.884 1.666zm-9.9-15.03l-1.072-1.552-.009.006-.008.007 1.089 1.539zm5.76-7.02l-1.721-.772 1.721.772zm-1.35-18.54l-1.352 1.315.009.01.009.008 1.334-1.333zm-17.82-.72l-1.072-1.552-.009.006-.008.007 1.089 1.539zm-5.67 7.02l-1.721-.772 1.721.772zm1.26 18.54l-1.352 1.315.009.01.009.008 1.334-1.333zm7.29 18.634c-6.191 0-11.542-1.127-16.102-3.323l-1.636 3.398c5.159 2.484 11.088 3.697 17.738 3.697v-3.772zm-16.077-3.31c-4.511-2.256-7.958-5.356-10.401-9.297l-3.205 1.986c2.837 4.578 6.83 8.139 11.919 10.684l1.687-3.374zm-10.39-9.28c-2.383-3.935-3.598-8.48-3.598-13.694h-3.771c0 5.826 1.365 11.061 4.143 15.647l3.226-1.954zm-3.598-13.694c0-7.02 1.608-13.193 4.779-18.572l-3.249-1.916c-3.549 6.02-5.301 12.868-5.301 20.488h3.771zm4.776-18.567c3.241-5.458 7.693-9.687 13.392-12.707l-1.767-3.332c-6.301 3.34-11.269 8.051-14.868 14.113l3.243 1.926zM136.735 36c5.76-3.023 12.294-4.554 19.644-4.554v-3.772c-7.891 0-15.037 1.649-21.397 4.986l1.753 3.34zm19.644-4.554c6.184 0 11.495 1.155 15.986 3.4l1.687-3.373c-5.109-2.554-11.018-3.799-17.673-3.799v3.772zm16.012 3.413c4.559 2.195 7.99 5.257 10.365 9.178l3.226-1.954c-2.786-4.599-6.795-8.137-11.955-10.622l-1.636 3.398zm10.375 9.194c2.436 3.932 3.677 8.471 3.677 13.677h3.771c0-5.834-1.399-11.075-4.243-15.663l-3.205 1.986zm3.677 13.677c0 7.014-1.635 13.215-4.866 18.657l3.243 1.926c3.609-6.078 5.394-12.957 5.394-20.583h-3.771zm-4.869 18.662c-3.175 5.387-7.621 9.586-13.382 12.608l1.753 3.34c6.359-3.338 11.333-8.02 14.878-14.032l-3.249-1.916zm-13.389 12.612c-5.696 3.019-12.196 4.55-19.546 4.55v3.772c7.889 0 15.009-1.649 21.313-4.99l-1.767-3.332zm-17.746-8.868c3.703 0 7.004-.966 9.818-2.956l-2.177-3.08c-2.106 1.49-4.625 2.264-7.641 2.264v3.772zm9.801-2.944c2.819-1.946 4.955-4.563 6.409-7.8l-3.441-1.544c-1.186 2.643-2.889 4.706-5.111 6.24l2.143 3.104zm6.409-7.8c1.437-3.201 2.145-6.677 2.145-10.402h-3.771c0 3.235-.612 6.18-1.815 8.858l3.441 1.544zm2.145-10.402c0-4.12-1.244-7.605-3.882-10.243l-2.667 2.666c1.802 1.802 2.778 4.258 2.778 7.577h3.771zm-3.864-10.225c-2.596-2.669-6.132-3.9-10.351-3.9v3.77c3.46 0 5.924.989 7.648 2.76l2.703-2.63zm-10.351-3.9c-3.704 0-7.026.965-9.892 2.943l2.143 3.104c2.174-1.502 4.732-2.276 7.749-2.276v-3.772zm-9.909 2.956c-2.755 1.948-4.854 4.561-6.302 7.787l3.441 1.544c1.192-2.654 2.873-4.72 5.038-6.252l-2.177-3.08zm-6.302 7.787c-1.437 3.201-2.145 6.677-2.145 10.402h3.771c0-3.235.612-6.18 1.815-8.858l-3.441-1.544zm-2.145 10.402c0 4.106 1.205 7.584 3.774 10.225l2.703-2.63c-1.75-1.8-2.706-4.261-2.706-7.595h-3.771zm3.792 10.243c2.65 2.65 6.202 3.883 10.424 3.883v-3.772c-3.459 0-5.967-.987-7.757-2.777l-2.667 2.666zM249.242 36.49l1.171-1.478-1.171 1.478zm2.97 29.34l-1.576-1.035-.005.008-.006.008 1.587 1.019zm-11.16 9.36l-.783-1.715-.008.004.791 1.711zm-27.63 3.33v-1.886h-1.549l-.301 1.52 1.85.366zM210.362 94v1.886h1.55l.3-1.52-1.85-.366zm-21.24 0l-1.849-.37-.451 2.256h2.3V94zm12.6-63v-1.886h-1.546l-.303 1.516 1.849.37zm30.51 28.98l1.253 1.41.014-.013.015-.013-1.282-1.384zm-12.6-12.6v-1.886h-1.544l-.304 1.514 1.848.372zm-2.97 14.76l-1.848-.372-.455 2.258h2.303V62.14zm13.05-29.254c8.152 0 14.189 1.778 18.359 5.082l2.342-2.956c-5.069-4.016-12.052-5.898-20.701-5.898v3.772zm18.359 5.082c4.111 3.256 6.216 7.81 6.216 13.912h3.771c0-7.098-2.515-12.804-7.645-16.868l-2.342 2.956zm6.216 13.912c0 4.95-1.232 9.232-3.651 12.915l3.153 2.07c2.861-4.357 4.269-9.375 4.269-14.985h-3.771zm-3.662 12.931c-2.362 3.68-5.785 6.576-10.356 8.664l1.567 3.43c5.149-2.352 9.165-5.697 11.963-10.056l-3.174-2.038zm-10.364 8.667c-4.507 2.085-9.807 3.156-15.949 3.156v3.772c6.579 0 12.439-1.149 17.532-3.505l-1.583-3.422zm-15.949 3.156h-10.89v3.772h10.89v-3.772zm-12.74 1.52l-3.06 15.48 3.7.732 3.06-15.48-3.7-.732zm-1.21 13.96h-21.24v3.772h21.24v-3.772zm-19.391 2.256l12.6-63-3.698-.74-12.6 63 3.698.74zm10.751-61.484h27.99v-3.772h-27.99v3.772zm23.67 31.14c3.236 0 6.021-.795 8.093-2.637l-2.505-2.818c-1.169 1.038-2.943 1.683-5.588 1.683v3.772zm8.122-2.662c2.08-1.927 3.034-4.54 3.034-7.594h-3.771c0 2.226-.666 3.752-1.826 4.826l2.563 2.768zm3.034-7.594c0-2.54-.807-4.748-2.682-6.26-1.797-1.45-4.279-2.016-7.124-2.016v3.772c2.436 0 3.913.499 4.756 1.18.766.617 1.279 1.605 1.279 3.324h3.771zm-9.806-8.276h-7.11v3.772h7.11v-3.772zm-8.958 1.514l-2.97 14.76 3.697.744 2.97-14.76-3.697-.744zm-1.122 17.018h8.73v-3.772h-8.73v3.772zM343.598 31l1.85.365.444-2.25h-2.294V31zm-12.42 63v1.886h1.551l.299-1.521-1.85-.365zm-19.35 0l-1.851-.36-.436 2.246h2.287V94zm5.58-28.71l1.851.36-3.345-1.51 1.494 1.15zm-17.73 23.04v1.886h.929l.566-.736-1.495-1.15zm-9.36 0l-1.733.743.49 1.143h1.243V88.33zm-9.72-22.68l1.733-.743-2.391-5.58-1.191 5.953 1.849.37zM274.928 94v1.886h1.546l.303-1.516-1.849-.37zm-19.35 0l-1.849-.37-.451 2.256h2.3V94zm12.6-63v-1.886h-1.546l-.303 1.516 1.849.37zm17.28 0l1.746-.713-.479-1.173h-1.267V31zm13.68 33.48l-1.745.713 1.224 2.996 2.003-2.542-1.482-1.167zM325.508 31v-1.886h-.915l-.566.72L325.508 31zm16.24-.365l-12.42 63 3.7.73 12.42-63-3.7-.73zm-10.57 61.48h-19.35v3.77h19.35v-3.77zm-17.499 2.245l5.58-28.71-3.702-.72-5.58 28.71 3.702.72zm2.235-30.22l-17.73 23.04 2.989 2.3 17.73-23.04-2.989-2.3zm-16.236 22.304h-9.36v3.772h9.36v-3.772zm-7.627 1.143l-9.72-22.68-3.466 1.486 9.72 22.68 3.466-1.486zM278.749 65.28l-5.67 28.35 3.698.74 5.67-28.35-3.698-.74zm-3.821 26.834h-19.35v3.772h19.35v-3.772zm-17.501 2.256l12.6-63-3.698-.74-12.6 63 3.698.74zm10.751-61.484h17.28v-3.772h-17.28v3.772zm15.535-1.173l13.68 33.48 3.491-1.426-13.68-33.48-3.491 1.426zm16.907 33.934l26.37-33.48-2.963-2.334-26.37 33.48 2.963 2.334zm24.888-32.761h18.09v-3.772h-18.09v3.772zM417.838 31l1.528 1.105 2.164-2.99h-3.692V31zm-34.83 48.15l1.519 1.118.005-.006.004-.007-1.528-1.105zm-13.05 12.33l.958 1.624-.958-1.624zm-27.18 1.44l-1.716-.78-.802 1.763 1.784.754.734-1.737zm6.75-14.85l.497-1.82-1.549-.422-.664 1.462 1.716.78zm10.53-.36l-.843-1.687-.013.007-.014.007.87 1.673zm4.41-3.51l1.413 1.25.731-.827-.363-1.043-1.781.62zM349.438 31v-1.886h-2.652l.871 2.506 1.781-.62zm21.96 0l1.819-.5-.381-1.386h-1.438V31zm7.2 26.19l-1.818.5 1.066 3.875 2.299-3.296-1.547-1.079zM396.868 31v-1.886h-.983l-.563.807L396.868 31zm19.443-1.105l-34.83 48.15 3.055 2.21 34.83-48.15-3.055-2.21zM381.49 78.032c-3.905 5.304-8.076 9.22-12.49 11.824l1.916 3.248c4.946-2.917 9.476-7.22 13.611-12.836l-3.037-2.236zM369 89.856c-4.409 2.6-8.971 3.878-13.712 3.878v3.772c5.459 0 10.678-1.482 15.628-4.402L369 89.856zm-13.712 3.878c-3.796 0-7.717-.836-11.776-2.551l-1.468 3.474c4.462 1.885 8.881 2.849 13.244 2.849v-3.772zm-10.793-.034l6.75-14.85-3.433-1.56-6.75 14.85 3.433 1.56zm4.537-13.81c2.101.572 4.071.876 5.896.876v-3.772c-1.414 0-3.044-.236-4.903-.743l-.993 3.638zm5.896.876c2.182 0 4.197-.445 6-1.383l-1.74-3.346c-1.196.622-2.601.957-4.26.957v3.772zm5.974-1.37c1.813-.906 3.469-2.24 4.979-3.947l-2.825-2.498c-1.25 1.413-2.534 2.42-3.841 3.072l1.687 3.374zm5.347-5.816l-15.03-43.2-3.562 1.24 15.03 43.2 3.562-1.24zm-16.811-40.694h21.96v-3.772h-21.96v3.772zM369.58 31.5l7.2 26.19 3.637-1-7.2-26.19-3.637 1zm10.565 26.769l18.27-26.19-3.093-2.158-18.27 26.19 3.093 2.158zm16.723-25.383h20.97v-3.772h-20.97v3.772zM482.402 31l1.849.37.451-2.256h-2.3V31zm-12.6 63v1.886h1.546l.303-1.516-1.849-.37zm-20.88 0l-1.849-.368-.449 2.254h2.298V94zm9.27-46.53l1.85.368.449-2.254h-2.299v1.886zm-14.31 0v-1.886h-1.507l-.332 1.47 1.839.416zm-2.79 12.33l-1.839-.416-.001.004 1.84.412zm-6.66 21.24l1.703.81-1.703-.81zm-8.73 10.89l1.02 1.586.007-.004-1.027-1.582zM404.012 94l-1.823-.482-.462 1.748 1.728.535.557-1.801zm4.5-17.01l.458-1.83-1.805-.45-.476 1.798 1.823.482zm7.2-1.8l-1.305-1.361-.014.013-.014.015 1.333 1.333zm3.96-6.75l-1.748-.706-.006.014-.006.015 1.76.677zm3.78-12.87l-1.836-.43-.001.006 1.837.424zm5.76-24.57v-1.886h-1.495l-.341 1.456 1.836.43zm51.341-.37l-12.6 63 3.698.74 12.6-63-3.698-.74zm-10.751 61.484h-20.88v3.772h20.88v-3.772zm-19.03 2.254l9.27-46.53-3.699-.736-9.27 46.53 3.699.736zm7.42-48.784h-14.31v3.772h14.31v-3.772zm-16.149 1.47l-2.79 12.33 3.678.832 2.79-12.33-3.678-.832zm-2.791 12.334c-2.027 9.062-4.21 15.985-6.522 20.841l3.405 1.622c2.487-5.224 4.744-12.46 6.797-21.64l-3.68-.823zM432.73 80.23c-2.304 4.838-5.016 8.147-8.055 10.12l2.054 3.163c3.801-2.468 6.909-6.419 9.406-11.661l-3.405-1.622zm-8.048 10.115c-2.972 1.91-6.907 2.94-11.94 2.94v3.772c5.528 0 10.232-1.13 13.98-3.54l-2.04-3.172zm-11.94 2.94c-3.156 0-5.872-.373-8.172-1.085l-1.115 3.602c2.739.848 5.843 1.255 9.287 1.255v-3.772zm-6.907 1.198l4.5-17.01-3.646-.964-4.5 17.01 3.646.964zm2.22-15.663c.877.22 1.781.327 2.707.327v-3.772a7.354 7.354 0 0 1-1.792-.213l-.915 3.658zm2.707.327c2.429 0 4.556-.895 6.284-2.623l-2.667-2.666c-1.033 1.032-2.206 1.517-3.617 1.517v3.772zm6.255-2.594c1.732-1.66 3.174-4.209 4.415-7.435l-3.52-1.354c-1.159 3.014-2.356 4.965-3.505 6.066l2.61 2.723zm4.404-7.406c1.313-3.252 2.599-7.65 3.869-13.152l-3.675-.848c-1.251 5.418-2.485 9.6-3.691 12.588l3.497 1.412zM425.288 56l5.76-24.57-3.672-.86-5.76 24.57 3.672.86zm3.924-23.114h53.19v-3.772h-53.19v3.772zM528.36 83.02l1.853-.35-.29-1.536h-1.563v1.886zm-24.03 0v-1.886h-1.092l-.544.948 1.636.938zM498.03 94v1.886h1.092l.543-.947L498.03 94zm-22.41 0l-1.591-1.013-1.847 2.899h3.438V94zm40.14-63v-1.886h-1.035l-.556.873L515.76 31zm20.88 0l1.835-.435-.344-1.45h-1.491V31zm14.94 63v1.886h2.385l-.55-2.321-1.835.435zm-21.15 0l-1.853.35.289 1.536h1.564V94zm-5.04-26.28v1.886h2.277l-.425-2.238-1.852.352zm-3.06-16.11l1.852-.352-.949-4.998-2.538 4.41 1.635.94zm-9.27 16.11l-1.635-.94-1.626 2.826h3.261V67.72zm15.3 13.414h-24.03v3.772h24.03v-3.772zm-25.666.948l-6.3 10.98 3.271 1.877 6.3-10.98-3.271-1.877zm-4.664 10.032h-22.41v3.772h22.41v-3.772zm-20.82 2.9l40.14-63-3.181-2.027-40.14 63 3.181 2.026zm38.55-62.128h20.88v-3.772h-20.88v3.772zm19.045-1.45l14.94 63 3.67-.871-14.94-63-3.67.87zm16.775 60.678h-21.15v3.772h21.15v-3.772zm-19.297 1.537l-2.07-10.98-3.706.698 2.07 10.98 3.706-.698zm-5.041-26.283l-3.06-16.11-3.705.704 3.06 16.11 3.705-.704zm-6.547-16.698l-9.27 16.11 3.269 1.88 9.27-16.11-3.269-1.88zm-7.635 18.936h12.33v-3.772h-12.33v3.772zM119.123 124.02v-1.886h-1.553l-.298 1.525 1.851.361zm-1.44 7.38l-1.851-.361-.438 2.247h2.289V131.4zm26.64 0l1.849.37.451-2.256h-2.3v1.886zm-3.06 15.3v1.886h1.546l.303-1.516-1.849-.37zm-26.73 0v-1.886h-1.552l-.299 1.524 1.851.362zm-1.62 8.28l-1.851-.362-.439 2.248h2.29v-1.886zm31.59 0l1.848.374.457-2.26h-2.305v1.886zm-3.24 16.02v1.886h1.543l.305-1.512-1.848-.374zm-52.38 0l-1.849-.37-.451 2.256h2.3V171zm12.6-63v-1.886h-1.546l-.303 1.516 1.849.37zm51.21 0l1.848.374.457-2.26h-2.305V108zm-3.24 16.02v1.886h1.543l.305-1.512-1.848-.374zm-32.181-.361l-1.44 7.38 3.702.722 1.44-7.38-3.702-.722zm.411 9.627h26.64v-3.772h-26.64v3.772zm24.791-2.256l-3.06 15.3 3.698.74 3.06-15.3-3.698-.74zm-1.211 13.784h-26.73v3.772h26.73v-3.772zm-28.581 1.524l-1.62 8.28 3.702.724 1.62-8.28-3.702-.724zm.231 10.528h31.59v-3.772h-31.59v3.772zm29.742-2.26l-3.24 16.02 3.696.748 3.24-16.02-3.696-.748zm-1.392 14.508h-52.38v3.772h52.38v-3.772zm-50.53 2.256l12.599-63-3.698-.74-12.6 63 3.698.74zm10.75-61.484h51.21v-3.772h-51.21v3.772zm49.362-2.26l-3.24 16.02 3.696.748 3.24-16.02-3.696-.748zm-1.392 14.508h-30.33v3.772h30.33v-3.772zM228.481 108l1.6.997 1.796-2.883h-3.396V108zm-39.24 63v1.886h1.047l.553-.889-1.6-.997zm-20.88 0l-1.841.41.329 1.476h1.512V171zm-14.04-63v-1.886h-2.352l.511 2.296 1.841-.41zm21.78 0l1.844-.393-.318-1.493h-1.526V108zm7.83 36.72l-1.844.393.977 4.583 2.469-3.982-1.602-.994zm22.77-36.72v-1.886h-1.05l-.553.892 1.603.994zm20.179-.997l-39.24 63 3.201 1.994 39.24-63-3.201-1.994zm-37.639 62.111h-20.88v3.772h20.88v-3.772zm-19.04 1.476l-14.04-63-3.681.82 14.04 63 3.681-.82zm-15.88-60.704h21.78v-3.772h-21.78v3.772zm19.936-1.493l7.83 36.72 3.688-.786-7.83-36.72-3.688.786zm11.276 37.321l22.77-36.72-3.205-1.988-22.77 36.72 3.205 1.988zm21.168-35.828h21.78v-3.772h-21.78v3.772zm41.533 14.134v-1.886h-1.553l-.297 1.525 1.85.361zm-1.44 7.38l-1.85-.361-.439 2.247h2.289V131.4zm26.64 0l1.85.37.451-2.256h-2.301v1.886zm-3.06 15.3v1.886h1.546l.304-1.516-1.85-.37zm-26.73 0v-1.886h-1.552l-.298 1.524 1.85.362zm-1.62 8.28l-1.85-.362-.44 2.248h2.29v-1.886zm31.59 0l1.849.374.457-2.26h-2.306v1.886zm-3.24 16.02v1.886h1.543l.306-1.512-1.849-.374zm-52.38 0l-1.849-.37-.451 2.256h2.3V171zm12.6-63v-1.886h-1.545l-.304 1.516 1.849.37zm51.21 0l1.849.374.457-2.26h-2.306V108zm-3.24 16.02v1.886h1.543l.306-1.512-1.849-.374zm-32.18-.361l-1.44 7.38 3.701.722 1.44-7.38-3.701-.722zm.41 9.627h26.64v-3.772h-26.64v3.772zm24.791-2.256l-3.06 15.3 3.699.74 3.06-15.3-3.699-.74zm-1.211 13.784h-26.73v3.772h26.73v-3.772zm-28.58 1.524l-1.62 8.28 3.701.724 1.62-8.28-3.701-.724zm.23 10.528h31.59v-3.772h-31.59v3.772zm29.742-2.26l-3.24 16.02 3.697.748 3.24-16.02-3.697-.748zm-1.392 14.508h-52.38v3.772h52.38v-3.772zm-50.53 2.256l12.6-63-3.699-.74-12.6 63 3.699.74zm10.75-61.484h51.21v-3.772h-51.21v3.772zm49.362-2.26l-3.24 16.02 3.697.748 3.24-16.02-3.697-.748zm-1.392 14.508h-30.33v3.772h30.33v-3.772zm62.537 21.236l-1.534-1.096-.003.004 1.537 1.092zm-12.51 9.27l-.666-1.764-2.071.782 1.101 1.92 1.636-.938zm10.53 18.36v1.886h3.255l-1.619-2.824-1.636.938zm-22.05 0l-1.643.924.54.962h1.103V171zm-8.91-15.84l1.644-.924-.541-.962h-1.103v1.886zm-5.22 0v-1.886h-1.548l-.301 1.518 1.849.368zm-3.15 15.84v1.886h1.548l.302-1.518-1.85-.368zm-21.24 0l-1.849-.37-.451 2.256h2.3V171zm12.6-63v-1.886h-1.546l-.303 1.516 1.849.37zm47.52 5.49l-1.18 1.471.01.008.011.008 1.159-1.487zm-29.61 10.89v-1.886h-1.544l-.305 1.514 1.849.372zm-2.97 14.76l-1.849-.372-.454 2.258h2.303v-1.886zm15.57-2.16l1.253 1.409.014-.012.014-.013-1.281-1.384zm22.054-8.28c0 5.221-1.396 9.72-4.148 13.574l3.069 2.192c3.247-4.546 4.851-9.827 4.851-15.766h-3.772zm-4.151 13.578c-2.695 3.794-6.54 6.672-11.639 8.598l1.333 3.528c5.701-2.154 10.195-5.456 13.381-9.942l-3.075-2.184zm-12.609 11.3l10.53 18.36 3.272-1.876-10.53-18.36-3.272 1.876zm12.166 15.536h-22.05v3.772h22.05v-3.772zm-20.406.962l-8.91-15.84-3.287 1.848 8.91 15.84 3.287-1.848zm-10.554-16.802h-5.22v3.772h5.22v-3.772zm-7.069 1.518l-3.15 15.84 3.699.736 3.15-15.84-3.699-.736zm-1.301 14.322h-21.24v3.772h21.24v-3.772zM280.4 171.37l12.6-63-3.698-.74-12.6 63 3.698.74zm10.751-61.484h28.26v-3.772h-28.26v3.772zm28.26 0c8.026 0 13.969 1.775 18.08 5.075l2.36-2.942c-5.009-4.02-11.906-5.905-20.44-5.905v3.772zm18.101 5.091c4.104 3.198 6.203 7.687 6.203 13.723h3.772c0-7.044-2.521-12.695-7.657-16.697l-2.318 2.974zm-11.535 15.793c0-2.541-.807-4.748-2.682-6.26-1.797-1.45-4.28-2.016-7.124-2.016v3.772c2.436 0 3.913.499 4.756 1.179.766.618 1.278 1.606 1.278 3.325h3.772zm-9.806-8.276h-7.11v3.772h7.11v-3.772zm-8.959 1.514l-2.97 14.76 3.698.744 2.97-14.76-3.698-.744zm-1.121 17.018h8.73v-3.772h-8.73v3.772zm8.73 0c3.236 0 6.021-.795 8.093-2.637l-2.506-2.818c-1.168 1.038-2.943 1.683-5.587 1.683v3.772zm8.121-2.662c2.081-1.927 3.035-4.54 3.035-7.594h-3.772c0 2.226-.665 3.753-1.825 4.826l2.562 2.768zm68.57 21.656l1.853-.349-.29-1.537h-1.563v1.886zm-24.03 0v-1.886h-1.092l-.544.948 1.636.938zm-6.3 10.98v1.886h1.092l.543-.948-1.635-.938zm-22.41 0l-1.591-1.013-1.847 2.899h3.438V171zm40.14-63v-1.886h-1.035l-.556.873 1.591 1.013zm20.88 0l1.834-.435-.344-1.451h-1.49V108zm14.94 63v1.886h2.385l-.551-2.321-1.834.435zm-21.15 0l-1.853.349.289 1.537h1.564V171zm-5.04-26.28v1.886h2.277l-.425-2.238-1.852.352zm-3.06-16.11l1.852-.352-.949-4.998-2.538 4.41 1.635.94zm-9.27 16.11l-1.635-.94-1.626 2.826h3.261v-1.886zm15.3 13.414h-24.03v3.772h24.03v-3.772zm-25.666.948l-6.3 10.98 3.271 1.876 6.3-10.98-3.271-1.876zm-4.664 10.032h-22.41v3.772h22.41v-3.772zm-20.82 2.899l40.14-63-3.181-2.026-40.14 63 3.181 2.026zm38.55-62.127h20.88v-3.772h-20.88v3.772zm19.045-1.451l14.94 63 3.669-.87-14.94-63-3.669.87zm16.775 60.679h-21.15v3.772h21.15v-3.772zm-19.297 1.537l-2.07-10.98-3.706.698 2.07 10.98 3.706-.698zm-5.041-26.283l-3.06-16.11-3.705.704 3.06 16.11 3.705-.704zm-6.547-16.698l-9.27 16.11 3.269 1.88 9.27-16.11-3.269-1.88zm-7.635 18.936h12.33v-3.772h-12.33v3.772zM430.721 108v-1.886h-1.546l-.303 1.516 1.849.37zm45.54 3.24l-.773 1.72.008.003.765-1.723zm11.16 9.27l-1.587 1.019 1.587-1.019zm-1.17 33.39l1.606.988.005-.008-1.611-.98zm-14.04 12.69l.837 1.69.007-.003-.844-1.687zm-54.09 4.41l-1.849-.37-.451 2.256h2.3V171zm47.16-21.69l-1.416-1.245-.001.001 1.417 1.244zm1.17-21.78l-1.255 1.407.01.009.009.008 1.236-1.424zm-17.82-2.97v-1.886h-1.547l-.302 1.518 1.849.368zm-5.94 29.88l-1.849-.368-.448 2.254h2.297v-1.886zm-11.97-44.554h28.44v-3.772h-28.44v3.772zm28.44 0c6.399 0 11.823 1.047 16.327 3.074l1.547-3.44c-5.097-2.293-11.072-3.406-17.874-3.406v3.772zm16.335 3.077c4.562 2.028 7.98 4.89 10.338 8.566l3.174-2.038c-2.801-4.364-6.824-7.682-11.981-9.974l-1.531 3.446zm10.338 8.566c2.359 3.674 3.572 8.049 3.572 13.201h3.771c0-5.768-1.367-10.873-4.169-15.239l-3.174 2.038zm3.572 13.201c0 6.958-1.607 13-4.765 18.19l3.221 1.96c3.561-5.85 5.315-12.588 5.315-20.15h-3.771zm-4.761 18.182c-3.167 5.146-7.576 9.141-13.277 11.991l1.687 3.374c6.299-3.15 11.249-7.615 14.802-13.389l-3.212-1.976zm-13.27 11.988c-5.644 2.793-12.13 4.214-19.504 4.214v3.772c7.867 0 14.94-1.519 21.177-4.606l-1.673-3.38zm-19.504 4.214h-33.75v3.772h33.75v-3.772zm-31.901 2.256l12.6-63-3.698-.74-12.6 63 3.698.74zm32.621-15.044c5.885 0 10.678-1.863 14.108-5.772l-2.835-2.488c-2.571 2.931-6.237 4.488-11.273 4.488v3.772zm14.107-5.771c3.411-3.88 5.059-8.787 5.059-14.565h-3.771c0 5.022-1.412 8.995-4.121 12.075l2.833 2.49zm5.059-14.565c0-4.08-1.29-7.47-4.069-9.884l-2.473 2.848c1.781 1.546 2.771 3.796 2.771 7.036h3.771zm-4.05-9.867c-2.69-2.399-6.451-3.449-10.976-3.449v3.772c3.995 0 6.714.93 8.465 2.491l2.511-2.814zm-10.976-3.449h-8.1v3.772h8.1v-3.772zm-9.949 1.518l-5.94 29.88 3.699.736 5.94-29.88-3.699-.736zm-4.091 32.134h9.9v-3.772h-9.9v3.772z" fill="url(#paint0_linear)"/></g><g filter="url(#filter1_d)"><path d="M108.205 74.56l-1.569-1.046-.003.005 1.572 1.041zm-13.32 10.98l-.793-1.71-.007.003.8 1.707zm-20.7 4.68l-.098-1.883-1.475.077-.278 1.45 1.851.356zm-1.35 7.02v1.886h1.558l.294-1.53-1.852-.356zm-19.44 0l-1.849-.37-.45 2.256h2.3V97.24zm1.44-7.2l1.85.37.405-2.026-2.055-.22-.2 1.876zm-20.52-7.38l-1.227 1.432.01.008 1.217-1.44zm-2.43-32.13l-1.581-1.027 1.581 1.027zm13.14-11.07l.815 1.7.007-.003.008-.003-.83-1.694zm20.97-5.13l.138 1.88 1.438-.104.275-1.416-1.85-.36zm1.26-6.48v-1.886h-1.554l-.297 1.526 1.851.36zm19.44 0l1.849.375.458-2.26h-2.307v1.885zm-1.35 6.66l-1.848-.375-.417 2.058 2.09.195.175-1.878zm20.52 7.29l-1.228 1.43.01.01 1.218-1.44zm-28.35 31.95l-1.849-.37-.51 2.55 2.582-.308-.223-1.872zm10.98-3.96l-1.239-1.421-.009.008-.009.008 1.257 1.405zm1.17-15.75l1.359-1.308-1.359 1.308zm-7.56-3.24l.29-1.863-1.785-.277-.354 1.77 1.85.37zm-31.59 19.62l-1.359 1.307.013.013.013.013 1.333-1.333zm7.56 3.15l-.289 1.863 1.78.277.358-1.766-1.849-.374zm4.59-22.68l1.849.374.521-2.578-2.609.334.24 1.87zm-11.07 4.05l1.255 1.407.011-.009.01-.01-1.276-1.388zM111 58.18c0 5.91-1.472 10.997-4.364 15.334l3.138 2.092c3.349-5.023 4.997-10.856 4.997-17.426H111zm-4.367 15.339c-2.838 4.285-6.987 7.734-12.541 10.31l1.587 3.422c6.086-2.824 10.817-6.696 14.098-11.65l-3.144-2.082zM94.085 83.833c-5.49 2.573-12.14 4.093-19.998 4.504l.197 3.766c8.22-.43 15.371-2.029 21.402-4.856l-1.601-3.414zm-21.751 6.03l-1.35 7.02 3.703.713 1.35-7.02-3.703-.712zm.501 5.491h-19.44v3.772h19.44v-3.772zm-17.59 2.256l1.44-7.2-3.699-.74-1.44 7.2 3.698.74zm-.21-9.445c-8.793-.938-15.217-3.319-19.502-6.945l-2.436 2.88c5.075 4.294 12.332 6.833 21.538 7.815l.4-3.75zm-19.492-6.937C31.39 77.67 29.27 72.85 29.27 66.55H25.5c0 7.26 2.5 13.18 7.588 17.542l2.455-2.864zM29.27 66.55c0-5.733 1.414-10.71 4.196-14.993l-3.163-2.054C27.086 54.459 25.5 60.163 25.5 66.55h3.771zm4.196-14.993c2.783-4.285 6.875-7.762 12.373-10.396l-1.63-3.402c-6.021 2.886-10.689 6.79-13.906 11.744l3.163 2.054zm12.388-10.403c5.49-2.689 12.233-4.356 20.278-4.943l-.275-3.762c-8.395.613-15.633 2.366-21.662 5.317l1.659 3.388zm21.991-6.464l1.26-6.48-3.702-.72-1.26 6.48 3.702.72zm-.59-4.954h19.44v-3.772h-19.44v3.772zm17.591-2.26l-1.35 6.66 3.697.749 1.35-6.66-3.697-.75zm.323 8.912c8.784.82 15.192 3.17 19.467 6.842l2.457-2.86c-5.085-4.368-12.357-6.877-21.573-7.738l-.35 3.756zm19.477 6.852c4.197 3.55 6.353 8.45 6.353 14.94h3.771c0-7.43-2.524-13.45-7.688-17.82l-2.436 2.88zM77.738 75.623c5.195-.619 9.312-2.01 12.015-4.428l-2.515-2.81c-1.857 1.661-5.06 2.911-9.946 3.492l.446 3.746zm11.996-4.412c2.84-2.475 4.157-5.955 4.157-10.151H90.12c0 3.364-1.023 5.704-2.864 7.309l2.478 2.842zm4.157-10.151c0-3.368-.862-6.246-2.867-8.328l-2.717 2.616c1.115 1.158 1.813 2.96 1.813 5.712h3.771zm-2.867-8.328c-1.968-2.043-4.958-3.226-8.63-3.795l-.578 3.726c3.288.51 5.338 1.488 6.491 2.685l2.717-2.616zM80.256 50.43l-4.59 22.95 3.698.74 4.59-22.95-3.698-.74zM46.38 63.58c0 3.297.826 6.119 2.776 8.147l2.719-2.614c-1.05-1.092-1.724-2.83-1.724-5.533H46.38zm2.802 8.173c1.967 1.967 4.947 3.113 8.604 3.68l.578-3.726c-3.302-.513-5.362-1.467-6.515-2.62l-2.667 2.666zm10.742 2.191l4.59-22.68-3.697-.748-4.59 22.68 3.697.748zm2.502-24.925c-5.297.678-9.457 2.098-12.107 4.532l2.552 2.777c1.79-1.645 5.01-2.925 10.034-3.568l-.479-3.74zM50.34 53.534c-2.724 2.43-3.96 5.885-3.96 10.047h3.771c0-3.398.984-5.703 2.7-7.233l-2.51-2.814zM131.72 91.93l-.844 1.687.013.006.013.006.818-1.699zm-11.16-9.99l-1.613.977.005.008.005.008 1.603-.993zm1.17-34.2l-1.622-.963-.003.005 1.625.958zm14.13-13.41l-.877-1.67-.007.004.884 1.666zm37.35-1.17l-.844 1.687.013.006.013.006.818-1.699zm11.16 9.9l-1.613.977.005.008.005.008 1.603-.993zm-1.17 34.29l-1.622-.963-.003.005 1.625.958zm-14.13 13.32l-.877-1.67-.007.004.884 1.666zm-9.9-15.03l-1.072-1.552-.009.006-.008.007 1.089 1.539zm5.76-7.02l-1.721-.772 1.721.772zm-1.35-18.54l-1.352 1.315.009.01.009.008 1.334-1.333zm-17.82-.72l-1.072-1.552-.009.006-.008.007 1.089 1.539zm-5.67 7.02l-1.721-.772 1.721.772zm1.26 18.54l-1.352 1.315.009.01.009.008 1.334-1.333zm7.29 18.634c-6.191 0-11.542-1.127-16.102-3.323l-1.636 3.398c5.159 2.484 11.088 3.697 17.738 3.697v-3.772zm-16.077-3.31c-4.511-2.256-7.958-5.356-10.401-9.297l-3.205 1.986c2.837 4.578 6.83 8.139 11.919 10.684l1.687-3.374zm-10.39-9.28c-2.383-3.935-3.598-8.48-3.598-13.694h-3.771c0 5.826 1.365 11.061 4.143 15.647l3.226-1.954zm-3.598-13.694c0-7.02 1.608-13.193 4.779-18.572l-3.249-1.916c-3.549 6.02-5.301 12.868-5.301 20.488h3.771zm4.776-18.567c3.241-5.458 7.693-9.687 13.392-12.707l-1.767-3.332c-6.301 3.34-11.269 8.051-14.868 14.113l3.243 1.926zM136.735 36c5.76-3.023 12.294-4.554 19.644-4.554v-3.772c-7.891 0-15.037 1.649-21.397 4.986l1.753 3.34zm19.644-4.554c6.184 0 11.495 1.155 15.986 3.4l1.687-3.373c-5.109-2.554-11.018-3.799-17.673-3.799v3.772zm16.012 3.413c4.559 2.195 7.99 5.257 10.365 9.178l3.226-1.954c-2.786-4.599-6.795-8.137-11.955-10.622l-1.636 3.398zm10.375 9.194c2.436 3.932 3.677 8.471 3.677 13.677h3.771c0-5.834-1.399-11.075-4.243-15.663l-3.205 1.986zm3.677 13.677c0 7.014-1.635 13.215-4.866 18.657l3.243 1.926c3.609-6.078 5.394-12.957 5.394-20.583h-3.771zm-4.869 18.662c-3.175 5.387-7.621 9.586-13.382 12.608l1.753 3.34c6.359-3.338 11.333-8.02 14.878-14.032l-3.249-1.916zm-13.389 12.612c-5.696 3.019-12.196 4.55-19.546 4.55v3.772c7.889 0 15.009-1.649 21.313-4.99l-1.767-3.332zm-17.746-8.868c3.703 0 7.004-.966 9.818-2.956l-2.177-3.08c-2.106 1.49-4.625 2.264-7.641 2.264v3.772zm9.801-2.944c2.819-1.946 4.955-4.563 6.409-7.8l-3.441-1.544c-1.186 2.643-2.889 4.706-5.111 6.24l2.143 3.104zm6.409-7.8c1.437-3.201 2.145-6.677 2.145-10.402h-3.771c0 3.235-.612 6.18-1.815 8.858l3.441 1.544zm2.145-10.402c0-4.12-1.244-7.605-3.882-10.243l-2.667 2.666c1.802 1.802 2.778 4.258 2.778 7.577h3.771zm-3.864-10.225c-2.596-2.669-6.132-3.9-10.351-3.9v3.77c3.46 0 5.924.989 7.648 2.76l2.703-2.63zm-10.351-3.9c-3.704 0-7.026.965-9.892 2.943l2.143 3.104c2.174-1.502 4.732-2.276 7.749-2.276v-3.772zm-9.909 2.956c-2.755 1.948-4.854 4.561-6.302 7.787l3.441 1.544c1.192-2.654 2.873-4.72 5.038-6.252l-2.177-3.08zm-6.302 7.787c-1.437 3.201-2.145 6.677-2.145 10.402h3.771c0-3.235.612-6.18 1.815-8.858l-3.441-1.544zm-2.145 10.402c0 4.106 1.205 7.584 3.774 10.225l2.703-2.63c-1.75-1.8-2.706-4.261-2.706-7.595h-3.771zm3.792 10.243c2.65 2.65 6.202 3.883 10.424 3.883v-3.772c-3.459 0-5.967-.987-7.757-2.777l-2.667 2.666zM249.242 36.49l1.171-1.478-1.171 1.478zm2.97 29.34l-1.576-1.035-.005.008-.006.008 1.587 1.019zm-11.16 9.36l-.783-1.715-.008.004.791 1.711zm-27.63 3.33v-1.886h-1.549l-.301 1.52 1.85.366zM210.362 94v1.886h1.55l.3-1.52-1.85-.366zm-21.24 0l-1.849-.37-.451 2.256h2.3V94zm12.6-63v-1.886h-1.546l-.303 1.516 1.849.37zm30.51 28.98l1.253 1.41.014-.013.015-.013-1.282-1.384zm-12.6-12.6v-1.886h-1.544l-.304 1.514 1.848.372zm-2.97 14.76l-1.848-.372-.455 2.258h2.303V62.14zm13.05-29.254c8.152 0 14.189 1.778 18.359 5.082l2.342-2.956c-5.069-4.016-12.052-5.898-20.701-5.898v3.772zm18.359 5.082c4.111 3.256 6.216 7.81 6.216 13.912h3.771c0-7.098-2.515-12.804-7.645-16.868l-2.342 2.956zm6.216 13.912c0 4.95-1.232 9.232-3.651 12.915l3.153 2.07c2.861-4.357 4.269-9.375 4.269-14.985h-3.771zm-3.662 12.931c-2.362 3.68-5.785 6.576-10.356 8.664l1.567 3.43c5.149-2.352 9.165-5.697 11.963-10.056l-3.174-2.038zm-10.364 8.667c-4.507 2.085-9.807 3.156-15.949 3.156v3.772c6.579 0 12.439-1.149 17.532-3.505l-1.583-3.422zm-15.949 3.156h-10.89v3.772h10.89v-3.772zm-12.74 1.52l-3.06 15.48 3.7.732 3.06-15.48-3.7-.732zm-1.21 13.96h-21.24v3.772h21.24v-3.772zm-19.391 2.256l12.6-63-3.698-.74-12.6 63 3.698.74zm10.751-61.484h27.99v-3.772h-27.99v3.772zm23.67 31.14c3.236 0 6.021-.795 8.093-2.637l-2.505-2.818c-1.169 1.038-2.943 1.683-5.588 1.683v3.772zm8.122-2.662c2.08-1.927 3.034-4.54 3.034-7.594h-3.771c0 2.226-.666 3.752-1.826 4.826l2.563 2.768zm3.034-7.594c0-2.54-.807-4.748-2.682-6.26-1.797-1.45-4.279-2.016-7.124-2.016v3.772c2.436 0 3.913.499 4.756 1.18.766.617 1.279 1.605 1.279 3.324h3.771zm-9.806-8.276h-7.11v3.772h7.11v-3.772zm-8.958 1.514l-2.97 14.76 3.697.744 2.97-14.76-3.697-.744zm-1.122 17.018h8.73v-3.772h-8.73v3.772zM343.598 31l1.85.365.444-2.25h-2.294V31zm-12.42 63v1.886h1.551l.299-1.521-1.85-.365zm-19.35 0l-1.851-.36-.436 2.246h2.287V94zm5.58-28.71l1.851.36-3.345-1.51 1.494 1.15zm-17.73 23.04v1.886h.929l.566-.736-1.495-1.15zm-9.36 0l-1.733.743.49 1.143h1.243V88.33zm-9.72-22.68l1.733-.743-2.391-5.58-1.191 5.953 1.849.37zM274.928 94v1.886h1.546l.303-1.516-1.849-.37zm-19.35 0l-1.849-.37-.451 2.256h2.3V94zm12.6-63v-1.886h-1.546l-.303 1.516 1.849.37zm17.28 0l1.746-.713-.479-1.173h-1.267V31zm13.68 33.48l-1.745.713 1.224 2.996 2.003-2.542-1.482-1.167zM325.508 31v-1.886h-.915l-.566.72L325.508 31zm16.24-.365l-12.42 63 3.7.73 12.42-63-3.7-.73zm-10.57 61.48h-19.35v3.77h19.35v-3.77zm-17.499 2.245l5.58-28.71-3.702-.72-5.58 28.71 3.702.72zm2.235-30.22l-17.73 23.04 2.989 2.3 17.73-23.04-2.989-2.3zm-16.236 22.304h-9.36v3.772h9.36v-3.772zm-7.627 1.143l-9.72-22.68-3.466 1.486 9.72 22.68 3.466-1.486zM278.749 65.28l-5.67 28.35 3.698.74 5.67-28.35-3.698-.74zm-3.821 26.834h-19.35v3.772h19.35v-3.772zm-17.501 2.256l12.6-63-3.698-.74-12.6 63 3.698.74zm10.751-61.484h17.28v-3.772h-17.28v3.772zm15.535-1.173l13.68 33.48 3.491-1.426-13.68-33.48-3.491 1.426zm16.907 33.934l26.37-33.48-2.963-2.334-26.37 33.48 2.963 2.334zm24.888-32.761h18.09v-3.772h-18.09v3.772zM417.838 31l1.528 1.105 2.164-2.99h-3.692V31zm-34.83 48.15l1.519 1.118.005-.006.004-.007-1.528-1.105zm-13.05 12.33l.958 1.624-.958-1.624zm-27.18 1.44l-1.716-.78-.802 1.763 1.784.754.734-1.737zm6.75-14.85l.497-1.82-1.549-.422-.664 1.462 1.716.78zm10.53-.36l-.843-1.687-.013.007-.014.007.87 1.673zm4.41-3.51l1.413 1.25.731-.827-.363-1.043-1.781.62zM349.438 31v-1.886h-2.652l.871 2.506 1.781-.62zm21.96 0l1.819-.5-.381-1.386h-1.438V31zm7.2 26.19l-1.818.5 1.066 3.875 2.299-3.296-1.547-1.079zM396.868 31v-1.886h-.983l-.563.807L396.868 31zm19.443-1.105l-34.83 48.15 3.055 2.21 34.83-48.15-3.055-2.21zM381.49 78.032c-3.905 5.304-8.076 9.22-12.49 11.824l1.916 3.248c4.946-2.917 9.476-7.22 13.611-12.836l-3.037-2.236zM369 89.856c-4.409 2.6-8.971 3.878-13.712 3.878v3.772c5.459 0 10.678-1.482 15.628-4.402L369 89.856zm-13.712 3.878c-3.796 0-7.717-.836-11.776-2.551l-1.468 3.474c4.462 1.885 8.881 2.849 13.244 2.849v-3.772zm-10.793-.034l6.75-14.85-3.433-1.56-6.75 14.85 3.433 1.56zm4.537-13.81c2.101.572 4.071.876 5.896.876v-3.772c-1.414 0-3.044-.236-4.903-.743l-.993 3.638zm5.896.876c2.182 0 4.197-.445 6-1.383l-1.74-3.346c-1.196.622-2.601.957-4.26.957v3.772zm5.974-1.37c1.813-.906 3.469-2.24 4.979-3.947l-2.825-2.498c-1.25 1.413-2.534 2.42-3.841 3.072l1.687 3.374zm5.347-5.816l-15.03-43.2-3.562 1.24 15.03 43.2 3.562-1.24zm-16.811-40.694h21.96v-3.772h-21.96v3.772zM369.58 31.5l7.2 26.19 3.637-1-7.2-26.19-3.637 1zm10.565 26.769l18.27-26.19-3.093-2.158-18.27 26.19 3.093 2.158zm16.723-25.383h20.97v-3.772h-20.97v3.772zM482.402 31l1.849.37.451-2.256h-2.3V31zm-12.6 63v1.886h1.546l.303-1.516-1.849-.37zm-20.88 0l-1.849-.368-.449 2.254h2.298V94zm9.27-46.53l1.85.368.449-2.254h-2.299v1.886zm-14.31 0v-1.886h-1.507l-.332 1.47 1.839.416zm-2.79 12.33l-1.839-.416-.001.004 1.84.412zm-6.66 21.24l1.703.81-1.703-.81zm-8.73 10.89l1.02 1.586.007-.004-1.027-1.582zM404.012 94l-1.823-.482-.462 1.748 1.728.535.557-1.801zm4.5-17.01l.458-1.83-1.805-.45-.476 1.798 1.823.482zm7.2-1.8l-1.305-1.361-.014.013-.014.015 1.333 1.333zm3.96-6.75l-1.748-.706-.006.014-.006.015 1.76.677zm3.78-12.87l-1.836-.43-.001.006 1.837.424zm5.76-24.57v-1.886h-1.495l-.341 1.456 1.836.43zm51.341-.37l-12.6 63 3.698.74 12.6-63-3.698-.74zm-10.751 61.484h-20.88v3.772h20.88v-3.772zm-19.03 2.254l9.27-46.53-3.699-.736-9.27 46.53 3.699.736zm7.42-48.784h-14.31v3.772h14.31v-3.772zm-16.149 1.47l-2.79 12.33 3.678.832 2.79-12.33-3.678-.832zm-2.791 12.334c-2.027 9.062-4.21 15.985-6.522 20.841l3.405 1.622c2.487-5.224 4.744-12.46 6.797-21.64l-3.68-.823zM432.73 80.23c-2.304 4.838-5.016 8.147-8.055 10.12l2.054 3.163c3.801-2.468 6.909-6.419 9.406-11.661l-3.405-1.622zm-8.048 10.115c-2.972 1.91-6.907 2.94-11.94 2.94v3.772c5.528 0 10.232-1.13 13.98-3.54l-2.04-3.172zm-11.94 2.94c-3.156 0-5.872-.373-8.172-1.085l-1.115 3.602c2.739.848 5.843 1.255 9.287 1.255v-3.772zm-6.907 1.198l4.5-17.01-3.646-.964-4.5 17.01 3.646.964zm2.22-15.663c.877.22 1.781.327 2.707.327v-3.772a7.354 7.354 0 0 1-1.792-.213l-.915 3.658zm2.707.327c2.429 0 4.556-.895 6.284-2.623l-2.667-2.666c-1.033 1.032-2.206 1.517-3.617 1.517v3.772zm6.255-2.594c1.732-1.66 3.174-4.209 4.415-7.435l-3.52-1.354c-1.159 3.014-2.356 4.965-3.505 6.066l2.61 2.723zm4.404-7.406c1.313-3.252 2.599-7.65 3.869-13.152l-3.675-.848c-1.251 5.418-2.485 9.6-3.691 12.588l3.497 1.412zM425.288 56l5.76-24.57-3.672-.86-5.76 24.57 3.672.86zm3.924-23.114h53.19v-3.772h-53.19v3.772zM528.36 83.02l1.853-.35-.29-1.536h-1.563v1.886zm-24.03 0v-1.886h-1.092l-.544.948 1.636.938zM498.03 94v1.886h1.092l.543-.947L498.03 94zm-22.41 0l-1.591-1.013-1.847 2.899h3.438V94zm40.14-63v-1.886h-1.035l-.556.873L515.76 31zm20.88 0l1.835-.435-.344-1.45h-1.491V31zm14.94 63v1.886h2.385l-.55-2.321-1.835.435zm-21.15 0l-1.853.35.289 1.536h1.564V94zm-5.04-26.28v1.886h2.277l-.425-2.238-1.852.352zm-3.06-16.11l1.852-.352-.949-4.998-2.538 4.41 1.635.94zm-9.27 16.11l-1.635-.94-1.626 2.826h3.261V67.72zm15.3 13.414h-24.03v3.772h24.03v-3.772zm-25.666.948l-6.3 10.98 3.271 1.877 6.3-10.98-3.271-1.877zm-4.664 10.032h-22.41v3.772h22.41v-3.772zm-20.82 2.9l40.14-63-3.181-2.027-40.14 63 3.181 2.026zm38.55-62.128h20.88v-3.772h-20.88v3.772zm19.045-1.45l14.94 63 3.67-.871-14.94-63-3.67.87zm16.775 60.678h-21.15v3.772h21.15v-3.772zm-19.297 1.537l-2.07-10.98-3.706.698 2.07 10.98 3.706-.698zm-5.041-26.283l-3.06-16.11-3.705.704 3.06 16.11 3.705-.704zm-6.547-16.698l-9.27 16.11 3.269 1.88 9.27-16.11-3.269-1.88zm-7.635 18.936h12.33v-3.772h-12.33v3.772zM119.123 124.02v-1.886h-1.553l-.298 1.525 1.851.361zm-1.44 7.38l-1.851-.361-.438 2.247h2.289V131.4zm26.64 0l1.849.37.451-2.256h-2.3v1.886zm-3.06 15.3v1.886h1.546l.303-1.516-1.849-.37zm-26.73 0v-1.886h-1.552l-.299 1.524 1.851.362zm-1.62 8.28l-1.851-.362-.439 2.248h2.29v-1.886zm31.59 0l1.848.374.457-2.26h-2.305v1.886zm-3.24 16.02v1.886h1.543l.305-1.512-1.848-.374zm-52.38 0l-1.849-.37-.451 2.256h2.3V171zm12.6-63v-1.886h-1.546l-.303 1.516 1.849.37zm51.21 0l1.848.374.457-2.26h-2.305V108zm-3.24 16.02v1.886h1.543l.305-1.512-1.848-.374zm-32.181-.361l-1.44 7.38 3.702.722 1.44-7.38-3.702-.722zm.411 9.627h26.64v-3.772h-26.64v3.772zm24.791-2.256l-3.06 15.3 3.698.74 3.06-15.3-3.698-.74zm-1.211 13.784h-26.73v3.772h26.73v-3.772zm-28.581 1.524l-1.62 8.28 3.702.724 1.62-8.28-3.702-.724zm.231 10.528h31.59v-3.772h-31.59v3.772zm29.742-2.26l-3.24 16.02 3.696.748 3.24-16.02-3.696-.748zm-1.392 14.508h-52.38v3.772h52.38v-3.772zm-50.53 2.256l12.599-63-3.698-.74-12.6 63 3.698.74zm10.75-61.484h51.21v-3.772h-51.21v3.772zm49.362-2.26l-3.24 16.02 3.696.748 3.24-16.02-3.696-.748zm-1.392 14.508h-30.33v3.772h30.33v-3.772zM228.481 108l1.6.997 1.796-2.883h-3.396V108zm-39.24 63v1.886h1.047l.553-.889-1.6-.997zm-20.88 0l-1.841.41.329 1.476h1.512V171zm-14.04-63v-1.886h-2.352l.511 2.296 1.841-.41zm21.78 0l1.844-.393-.318-1.493h-1.526V108zm7.83 36.72l-1.844.393.977 4.583 2.469-3.982-1.602-.994zm22.77-36.72v-1.886h-1.05l-.553.892 1.603.994zm20.179-.997l-39.24 63 3.201 1.994 39.24-63-3.201-1.994zm-37.639 62.111h-20.88v3.772h20.88v-3.772zm-19.04 1.476l-14.04-63-3.681.82 14.04 63 3.681-.82zm-15.88-60.704h21.78v-3.772h-21.78v3.772zm19.936-1.493l7.83 36.72 3.688-.786-7.83-36.72-3.688.786zm11.276 37.321l22.77-36.72-3.205-1.988-22.77 36.72 3.205 1.988zm21.168-35.828h21.78v-3.772h-21.78v3.772zm41.533 14.134v-1.886h-1.553l-.297 1.525 1.85.361zm-1.44 7.38l-1.85-.361-.439 2.247h2.289V131.4zm26.64 0l1.85.37.451-2.256h-2.301v1.886zm-3.06 15.3v1.886h1.546l.304-1.516-1.85-.37zm-26.73 0v-1.886h-1.552l-.298 1.524 1.85.362zm-1.62 8.28l-1.85-.362-.44 2.248h2.29v-1.886zm31.59 0l1.849.374.457-2.26h-2.306v1.886zm-3.24 16.02v1.886h1.543l.306-1.512-1.849-.374zm-52.38 0l-1.849-.37-.451 2.256h2.3V171zm12.6-63v-1.886h-1.545l-.304 1.516 1.849.37zm51.21 0l1.849.374.457-2.26h-2.306V108zm-3.24 16.02v1.886h1.543l.306-1.512-1.849-.374zm-32.18-.361l-1.44 7.38 3.701.722 1.44-7.38-3.701-.722zm.41 9.627h26.64v-3.772h-26.64v3.772zm24.791-2.256l-3.06 15.3 3.699.74 3.06-15.3-3.699-.74zm-1.211 13.784h-26.73v3.772h26.73v-3.772zm-28.58 1.524l-1.62 8.28 3.701.724 1.62-8.28-3.701-.724zm.23 10.528h31.59v-3.772h-31.59v3.772zm29.742-2.26l-3.24 16.02 3.697.748 3.24-16.02-3.697-.748zm-1.392 14.508h-52.38v3.772h52.38v-3.772zm-50.53 2.256l12.6-63-3.699-.74-12.6 63 3.699.74zm10.75-61.484h51.21v-3.772h-51.21v3.772zm49.362-2.26l-3.24 16.02 3.697.748 3.24-16.02-3.697-.748zm-1.392 14.508h-30.33v3.772h30.33v-3.772zm62.537 21.236l-1.534-1.096-.003.004 1.537 1.092zm-12.51 9.27l-.666-1.764-2.071.782 1.101 1.92 1.636-.938zm10.53 18.36v1.886h3.255l-1.619-2.824-1.636.938zm-22.05 0l-1.643.924.54.962h1.103V171zm-8.91-15.84l1.644-.924-.541-.962h-1.103v1.886zm-5.22 0v-1.886h-1.548l-.301 1.518 1.849.368zm-3.15 15.84v1.886h1.548l.302-1.518-1.85-.368zm-21.24 0l-1.849-.37-.451 2.256h2.3V171zm12.6-63v-1.886h-1.546l-.303 1.516 1.849.37zm47.52 5.49l-1.18 1.471.01.008.011.008 1.159-1.487zm-29.61 10.89v-1.886h-1.544l-.305 1.514 1.849.372zm-2.97 14.76l-1.849-.372-.454 2.258h2.303v-1.886zm15.57-2.16l1.253 1.409.014-.012.014-.013-1.281-1.384zm22.054-8.28c0 5.221-1.396 9.72-4.148 13.574l3.069 2.192c3.247-4.546 4.851-9.827 4.851-15.766h-3.772zm-4.151 13.578c-2.695 3.794-6.54 6.672-11.639 8.598l1.333 3.528c5.701-2.154 10.195-5.456 13.381-9.942l-3.075-2.184zm-12.609 11.3l10.53 18.36 3.272-1.876-10.53-18.36-3.272 1.876zm12.166 15.536h-22.05v3.772h22.05v-3.772zm-20.406.962l-8.91-15.84-3.287 1.848 8.91 15.84 3.287-1.848zm-10.554-16.802h-5.22v3.772h5.22v-3.772zm-7.069 1.518l-3.15 15.84 3.699.736 3.15-15.84-3.699-.736zm-1.301 14.322h-21.24v3.772h21.24v-3.772zM280.4 171.37l12.6-63-3.698-.74-12.6 63 3.698.74zm10.751-61.484h28.26v-3.772h-28.26v3.772zm28.26 0c8.026 0 13.969 1.775 18.08 5.075l2.36-2.942c-5.009-4.02-11.906-5.905-20.44-5.905v3.772zm18.101 5.091c4.104 3.198 6.203 7.687 6.203 13.723h3.772c0-7.044-2.521-12.695-7.657-16.697l-2.318 2.974zm-11.535 15.793c0-2.541-.807-4.748-2.682-6.26-1.797-1.45-4.28-2.016-7.124-2.016v3.772c2.436 0 3.913.499 4.756 1.179.766.618 1.278 1.606 1.278 3.325h3.772zm-9.806-8.276h-7.11v3.772h7.11v-3.772zm-8.959 1.514l-2.97 14.76 3.698.744 2.97-14.76-3.698-.744zm-1.121 17.018h8.73v-3.772h-8.73v3.772zm8.73 0c3.236 0 6.021-.795 8.093-2.637l-2.506-2.818c-1.168 1.038-2.943 1.683-5.587 1.683v3.772zm8.121-2.662c2.081-1.927 3.035-4.54 3.035-7.594h-3.772c0 2.226-.665 3.753-1.825 4.826l2.562 2.768zm68.57 21.656l1.853-.349-.29-1.537h-1.563v1.886zm-24.03 0v-1.886h-1.092l-.544.948 1.636.938zm-6.3 10.98v1.886h1.092l.543-.948-1.635-.938zm-22.41 0l-1.591-1.013-1.847 2.899h3.438V171zm40.14-63v-1.886h-1.035l-.556.873 1.591 1.013zm20.88 0l1.834-.435-.344-1.451h-1.49V108zm14.94 63v1.886h2.385l-.551-2.321-1.834.435zm-21.15 0l-1.853.349.289 1.537h1.564V171zm-5.04-26.28v1.886h2.277l-.425-2.238-1.852.352zm-3.06-16.11l1.852-.352-.949-4.998-2.538 4.41 1.635.94zm-9.27 16.11l-1.635-.94-1.626 2.826h3.261v-1.886zm15.3 13.414h-24.03v3.772h24.03v-3.772zm-25.666.948l-6.3 10.98 3.271 1.876 6.3-10.98-3.271-1.876zm-4.664 10.032h-22.41v3.772h22.41v-3.772zm-20.82 2.899l40.14-63-3.181-2.026-40.14 63 3.181 2.026zm38.55-62.127h20.88v-3.772h-20.88v3.772zm19.045-1.451l14.94 63 3.669-.87-14.94-63-3.669.87zm16.775 60.679h-21.15v3.772h21.15v-3.772zm-19.297 1.537l-2.07-10.98-3.706.698 2.07 10.98 3.706-.698zm-5.041-26.283l-3.06-16.11-3.705.704 3.06 16.11 3.705-.704zm-6.547-16.698l-9.27 16.11 3.269 1.88 9.27-16.11-3.269-1.88zm-7.635 18.936h12.33v-3.772h-12.33v3.772zM430.721 108v-1.886h-1.546l-.303 1.516 1.849.37zm45.54 3.24l-.773 1.72.008.003.765-1.723zm11.16 9.27l-1.587 1.019 1.587-1.019zm-1.17 33.39l1.606.988.005-.008-1.611-.98zm-14.04 12.69l.837 1.69.007-.003-.844-1.687zm-54.09 4.41l-1.849-.37-.451 2.256h2.3V171zm47.16-21.69l-1.416-1.245-.001.001 1.417 1.244zm1.17-21.78l-1.255 1.407.01.009.009.008 1.236-1.424zm-17.82-2.97v-1.886h-1.547l-.302 1.518 1.849.368zm-5.94 29.88l-1.849-.368-.448 2.254h2.297v-1.886zm-11.97-44.554h28.44v-3.772h-28.44v3.772zm28.44 0c6.399 0 11.823 1.047 16.327 3.074l1.547-3.44c-5.097-2.293-11.072-3.406-17.874-3.406v3.772zm16.335 3.077c4.562 2.028 7.98 4.89 10.338 8.566l3.174-2.038c-2.801-4.364-6.824-7.682-11.981-9.974l-1.531 3.446zm10.338 8.566c2.359 3.674 3.572 8.049 3.572 13.201h3.771c0-5.768-1.367-10.873-4.169-15.239l-3.174 2.038zm3.572 13.201c0 6.958-1.607 13-4.765 18.19l3.221 1.96c3.561-5.85 5.315-12.588 5.315-20.15h-3.771zm-4.761 18.182c-3.167 5.146-7.576 9.141-13.277 11.991l1.687 3.374c6.299-3.15 11.249-7.615 14.802-13.389l-3.212-1.976zm-13.27 11.988c-5.644 2.793-12.13 4.214-19.504 4.214v3.772c7.867 0 14.94-1.519 21.177-4.606l-1.673-3.38zm-19.504 4.214h-33.75v3.772h33.75v-3.772zm-31.901 2.256l12.6-63-3.698-.74-12.6 63 3.698.74zm32.621-15.044c5.885 0 10.678-1.863 14.108-5.772l-2.835-2.488c-2.571 2.931-6.237 4.488-11.273 4.488v3.772zm14.107-5.771c3.411-3.88 5.059-8.787 5.059-14.565h-3.771c0 5.022-1.412 8.995-4.121 12.075l2.833 2.49zm5.059-14.565c0-4.08-1.29-7.47-4.069-9.884l-2.473 2.848c1.781 1.546 2.771 3.796 2.771 7.036h3.771zm-4.05-9.867c-2.69-2.399-6.451-3.449-10.976-3.449v3.772c3.995 0 6.714.93 8.465 2.491l2.511-2.814zm-10.976-3.449h-8.1v3.772h8.1v-3.772zm-9.949 1.518l-5.94 29.88 3.699.736 5.94-29.88-3.699-.736zm-4.091 32.134h9.9v-3.772h-9.9v3.772z" fill="url(#paint1_linear)"/><path d="M108.205 74.56l-1.569-1.046-.003.005 1.572 1.041zm-13.32 10.98l-.793-1.71-.007.003.8 1.707zm-20.7 4.68l-.098-1.883-1.475.077-.278 1.45 1.851.356zm-1.35 7.02v1.886h1.558l.294-1.53-1.852-.356zm-19.44 0l-1.849-.37-.45 2.256h2.3V97.24zm1.44-7.2l1.85.37.405-2.026-2.055-.22-.2 1.876zm-20.52-7.38l-1.227 1.432.01.008 1.217-1.44zm-2.43-32.13l-1.581-1.027 1.581 1.027zm13.14-11.07l.815 1.7.007-.003.008-.003-.83-1.694zm20.97-5.13l.138 1.88 1.438-.104.275-1.416-1.85-.36zm1.26-6.48v-1.886h-1.554l-.297 1.526 1.851.36zm19.44 0l1.849.375.458-2.26h-2.307v1.885zm-1.35 6.66l-1.848-.375-.417 2.058 2.09.195.175-1.878zm20.52 7.29l-1.228 1.43.01.01 1.218-1.44zm-28.35 31.95l-1.849-.37-.51 2.55 2.582-.308-.223-1.872zm10.98-3.96l-1.239-1.421-.009.008-.009.008 1.257 1.405zm1.17-15.75l1.359-1.308-1.359 1.308zm-7.56-3.24l.29-1.863-1.785-.277-.354 1.77 1.85.37zm-31.59 19.62l-1.359 1.307.013.013.013.013 1.333-1.333zm7.56 3.15l-.289 1.863 1.78.277.358-1.766-1.849-.374zm4.59-22.68l1.849.374.521-2.578-2.609.334.24 1.87zm-11.07 4.05l1.255 1.407.011-.009.01-.01-1.276-1.388zM111 58.18c0 5.91-1.472 10.997-4.364 15.334l3.138 2.092c3.349-5.023 4.997-10.856 4.997-17.426H111zm-4.367 15.339c-2.838 4.285-6.987 7.734-12.541 10.31l1.587 3.422c6.086-2.824 10.817-6.696 14.098-11.65l-3.144-2.082zM94.085 83.833c-5.49 2.573-12.14 4.093-19.998 4.504l.197 3.766c8.22-.43 15.371-2.029 21.402-4.856l-1.601-3.414zm-21.751 6.03l-1.35 7.02 3.703.713 1.35-7.02-3.703-.712zm.501 5.491h-19.44v3.772h19.44v-3.772zm-17.59 2.256l1.44-7.2-3.699-.74-1.44 7.2 3.698.74zm-.21-9.445c-8.793-.938-15.217-3.319-19.502-6.945l-2.436 2.88c5.075 4.294 12.332 6.833 21.538 7.815l.4-3.75zm-19.492-6.937C31.39 77.67 29.27 72.85 29.27 66.55H25.5c0 7.26 2.5 13.18 7.588 17.542l2.455-2.864zM29.27 66.55c0-5.733 1.414-10.71 4.196-14.993l-3.163-2.054C27.086 54.459 25.5 60.163 25.5 66.55h3.771zm4.196-14.993c2.783-4.285 6.875-7.762 12.373-10.396l-1.63-3.402c-6.021 2.886-10.689 6.79-13.906 11.744l3.163 2.054zm12.388-10.403c5.49-2.689 12.233-4.356 20.278-4.943l-.275-3.762c-8.395.613-15.633 2.366-21.662 5.317l1.659 3.388zm21.991-6.464l1.26-6.48-3.702-.72-1.26 6.48 3.702.72zm-.59-4.954h19.44v-3.772h-19.44v3.772zm17.591-2.26l-1.35 6.66 3.697.749 1.35-6.66-3.697-.75zm.323 8.912c8.784.82 15.192 3.17 19.467 6.842l2.457-2.86c-5.085-4.368-12.357-6.877-21.573-7.738l-.35 3.756zm19.477 6.852c4.197 3.55 6.353 8.45 6.353 14.94h3.771c0-7.43-2.524-13.45-7.688-17.82l-2.436 2.88zM77.738 75.623c5.195-.619 9.312-2.01 12.015-4.428l-2.515-2.81c-1.857 1.661-5.06 2.911-9.946 3.492l.446 3.746zm11.996-4.412c2.84-2.475 4.157-5.955 4.157-10.151H90.12c0 3.364-1.023 5.704-2.864 7.309l2.478 2.842zm4.157-10.151c0-3.368-.862-6.246-2.867-8.328l-2.717 2.616c1.115 1.158 1.813 2.96 1.813 5.712h3.771zm-2.867-8.328c-1.968-2.043-4.958-3.226-8.63-3.795l-.578 3.726c3.288.51 5.338 1.488 6.491 2.685l2.717-2.616zM80.256 50.43l-4.59 22.95 3.698.74 4.59-22.95-3.698-.74zM46.38 63.58c0 3.297.826 6.119 2.776 8.147l2.719-2.614c-1.05-1.092-1.724-2.83-1.724-5.533H46.38zm2.802 8.173c1.967 1.967 4.947 3.113 8.604 3.68l.578-3.726c-3.302-.513-5.362-1.467-6.515-2.62l-2.667 2.666zm10.742 2.191l4.59-22.68-3.697-.748-4.59 22.68 3.697.748zm2.502-24.925c-5.297.678-9.457 2.098-12.107 4.532l2.552 2.777c1.79-1.645 5.01-2.925 10.034-3.568l-.479-3.74zM50.34 53.534c-2.724 2.43-3.96 5.885-3.96 10.047h3.771c0-3.398.984-5.703 2.7-7.233l-2.51-2.814zM131.72 91.93l-.844 1.687.013.006.013.006.818-1.699zm-11.16-9.99l-1.613.977.005.008.005.008 1.603-.993zm1.17-34.2l-1.622-.963-.003.005 1.625.958zm14.13-13.41l-.877-1.67-.007.004.884 1.666zm37.35-1.17l-.844 1.687.013.006.013.006.818-1.699zm11.16 9.9l-1.613.977.005.008.005.008 1.603-.993zm-1.17 34.29l-1.622-.963-.003.005 1.625.958zm-14.13 13.32l-.877-1.67-.007.004.884 1.666zm-9.9-15.03l-1.072-1.552-.009.006-.008.007 1.089 1.539zm5.76-7.02l-1.721-.772 1.721.772zm-1.35-18.54l-1.352 1.315.009.01.009.008 1.334-1.333zm-17.82-.72l-1.072-1.552-.009.006-.008.007 1.089 1.539zm-5.67 7.02l-1.721-.772 1.721.772zm1.26 18.54l-1.352 1.315.009.01.009.008 1.334-1.333zm7.29 18.634c-6.191 0-11.542-1.127-16.102-3.323l-1.636 3.398c5.159 2.484 11.088 3.697 17.738 3.697v-3.772zm-16.077-3.31c-4.511-2.256-7.958-5.356-10.401-9.297l-3.205 1.986c2.837 4.578 6.83 8.139 11.919 10.684l1.687-3.374zm-10.39-9.28c-2.383-3.935-3.598-8.48-3.598-13.694h-3.771c0 5.826 1.365 11.061 4.143 15.647l3.226-1.954zm-3.598-13.694c0-7.02 1.608-13.193 4.779-18.572l-3.249-1.916c-3.549 6.02-5.301 12.868-5.301 20.488h3.771zm4.776-18.567c3.241-5.458 7.693-9.687 13.392-12.707l-1.767-3.332c-6.301 3.34-11.269 8.051-14.868 14.113l3.243 1.926zM136.735 36c5.76-3.023 12.294-4.554 19.644-4.554v-3.772c-7.891 0-15.037 1.649-21.397 4.986l1.753 3.34zm19.644-4.554c6.184 0 11.495 1.155 15.986 3.4l1.687-3.373c-5.109-2.554-11.018-3.799-17.673-3.799v3.772zm16.012 3.413c4.559 2.195 7.99 5.257 10.365 9.178l3.226-1.954c-2.786-4.599-6.795-8.137-11.955-10.622l-1.636 3.398zm10.375 9.194c2.436 3.932 3.677 8.471 3.677 13.677h3.771c0-5.834-1.399-11.075-4.243-15.663l-3.205 1.986zm3.677 13.677c0 7.014-1.635 13.215-4.866 18.657l3.243 1.926c3.609-6.078 5.394-12.957 5.394-20.583h-3.771zm-4.869 18.662c-3.175 5.387-7.621 9.586-13.382 12.608l1.753 3.34c6.359-3.338 11.333-8.02 14.878-14.032l-3.249-1.916zm-13.389 12.612c-5.696 3.019-12.196 4.55-19.546 4.55v3.772c7.889 0 15.009-1.649 21.313-4.99l-1.767-3.332zm-17.746-8.868c3.703 0 7.004-.966 9.818-2.956l-2.177-3.08c-2.106 1.49-4.625 2.264-7.641 2.264v3.772zm9.801-2.944c2.819-1.946 4.955-4.563 6.409-7.8l-3.441-1.544c-1.186 2.643-2.889 4.706-5.111 6.24l2.143 3.104zm6.409-7.8c1.437-3.201 2.145-6.677 2.145-10.402h-3.771c0 3.235-.612 6.18-1.815 8.858l3.441 1.544zm2.145-10.402c0-4.12-1.244-7.605-3.882-10.243l-2.667 2.666c1.802 1.802 2.778 4.258 2.778 7.577h3.771zm-3.864-10.225c-2.596-2.669-6.132-3.9-10.351-3.9v3.77c3.46 0 5.924.989 7.648 2.76l2.703-2.63zm-10.351-3.9c-3.704 0-7.026.965-9.892 2.943l2.143 3.104c2.174-1.502 4.732-2.276 7.749-2.276v-3.772zm-9.909 2.956c-2.755 1.948-4.854 4.561-6.302 7.787l3.441 1.544c1.192-2.654 2.873-4.72 5.038-6.252l-2.177-3.08zm-6.302 7.787c-1.437 3.201-2.145 6.677-2.145 10.402h3.771c0-3.235.612-6.18 1.815-8.858l-3.441-1.544zm-2.145 10.402c0 4.106 1.205 7.584 3.774 10.225l2.703-2.63c-1.75-1.8-2.706-4.261-2.706-7.595h-3.771zm3.792 10.243c2.65 2.65 6.202 3.883 10.424 3.883v-3.772c-3.459 0-5.967-.987-7.757-2.777l-2.667 2.666zM249.242 36.49l1.171-1.478-1.171 1.478zm2.97 29.34l-1.576-1.035-.005.008-.006.008 1.587 1.019zm-11.16 9.36l-.783-1.715-.008.004.791 1.711zm-27.63 3.33v-1.886h-1.549l-.301 1.52 1.85.366zM210.362 94v1.886h1.55l.3-1.52-1.85-.366zm-21.24 0l-1.849-.37-.451 2.256h2.3V94zm12.6-63v-1.886h-1.546l-.303 1.516 1.849.37zm30.51 28.98l1.253 1.41.014-.013.015-.013-1.282-1.384zm-12.6-12.6v-1.886h-1.544l-.304 1.514 1.848.372zm-2.97 14.76l-1.848-.372-.455 2.258h2.303V62.14zm13.05-29.254c8.152 0 14.189 1.778 18.359 5.082l2.342-2.956c-5.069-4.016-12.052-5.898-20.701-5.898v3.772zm18.359 5.082c4.111 3.256 6.216 7.81 6.216 13.912h3.771c0-7.098-2.515-12.804-7.645-16.868l-2.342 2.956zm6.216 13.912c0 4.95-1.232 9.232-3.651 12.915l3.153 2.07c2.861-4.357 4.269-9.375 4.269-14.985h-3.771zm-3.662 12.931c-2.362 3.68-5.785 6.576-10.356 8.664l1.567 3.43c5.149-2.352 9.165-5.697 11.963-10.056l-3.174-2.038zm-10.364 8.667c-4.507 2.085-9.807 3.156-15.949 3.156v3.772c6.579 0 12.439-1.149 17.532-3.505l-1.583-3.422zm-15.949 3.156h-10.89v3.772h10.89v-3.772zm-12.74 1.52l-3.06 15.48 3.7.732 3.06-15.48-3.7-.732zm-1.21 13.96h-21.24v3.772h21.24v-3.772zm-19.391 2.256l12.6-63-3.698-.74-12.6 63 3.698.74zm10.751-61.484h27.99v-3.772h-27.99v3.772zm23.67 31.14c3.236 0 6.021-.795 8.093-2.637l-2.505-2.818c-1.169 1.038-2.943 1.683-5.588 1.683v3.772zm8.122-2.662c2.08-1.927 3.034-4.54 3.034-7.594h-3.771c0 2.226-.666 3.752-1.826 4.826l2.563 2.768zm3.034-7.594c0-2.54-.807-4.748-2.682-6.26-1.797-1.45-4.279-2.016-7.124-2.016v3.772c2.436 0 3.913.499 4.756 1.18.766.617 1.279 1.605 1.279 3.324h3.771zm-9.806-8.276h-7.11v3.772h7.11v-3.772zm-8.958 1.514l-2.97 14.76 3.697.744 2.97-14.76-3.697-.744zm-1.122 17.018h8.73v-3.772h-8.73v3.772zM343.598 31l1.85.365.444-2.25h-2.294V31zm-12.42 63v1.886h1.551l.299-1.521-1.85-.365zm-19.35 0l-1.851-.36-.436 2.246h2.287V94zm5.58-28.71l1.851.36-3.345-1.51 1.494 1.15zm-17.73 23.04v1.886h.929l.566-.736-1.495-1.15zm-9.36 0l-1.733.743.49 1.143h1.243V88.33zm-9.72-22.68l1.733-.743-2.391-5.58-1.191 5.953 1.849.37zM274.928 94v1.886h1.546l.303-1.516-1.849-.37zm-19.35 0l-1.849-.37-.451 2.256h2.3V94zm12.6-63v-1.886h-1.546l-.303 1.516 1.849.37zm17.28 0l1.746-.713-.479-1.173h-1.267V31zm13.68 33.48l-1.745.713 1.224 2.996 2.003-2.542-1.482-1.167zM325.508 31v-1.886h-.915l-.566.72L325.508 31zm16.24-.365l-12.42 63 3.7.73 12.42-63-3.7-.73zm-10.57 61.48h-19.35v3.77h19.35v-3.77zm-17.499 2.245l5.58-28.71-3.702-.72-5.58 28.71 3.702.72zm2.235-30.22l-17.73 23.04 2.989 2.3 17.73-23.04-2.989-2.3zm-16.236 22.304h-9.36v3.772h9.36v-3.772zm-7.627 1.143l-9.72-22.68-3.466 1.486 9.72 22.68 3.466-1.486zM278.749 65.28l-5.67 28.35 3.698.74 5.67-28.35-3.698-.74zm-3.821 26.834h-19.35v3.772h19.35v-3.772zm-17.501 2.256l12.6-63-3.698-.74-12.6 63 3.698.74zm10.751-61.484h17.28v-3.772h-17.28v3.772zm15.535-1.173l13.68 33.48 3.491-1.426-13.68-33.48-3.491 1.426zm16.907 33.934l26.37-33.48-2.963-2.334-26.37 33.48 2.963 2.334zm24.888-32.761h18.09v-3.772h-18.09v3.772zM417.838 31l1.528 1.105 2.164-2.99h-3.692V31zm-34.83 48.15l1.519 1.118.005-.006.004-.007-1.528-1.105zm-13.05 12.33l.958 1.624-.958-1.624zm-27.18 1.44l-1.716-.78-.802 1.763 1.784.754.734-1.737zm6.75-14.85l.497-1.82-1.549-.422-.664 1.462 1.716.78zm10.53-.36l-.843-1.687-.013.007-.014.007.87 1.673zm4.41-3.51l1.413 1.25.731-.827-.363-1.043-1.781.62zM349.438 31v-1.886h-2.652l.871 2.506 1.781-.62zm21.96 0l1.819-.5-.381-1.386h-1.438V31zm7.2 26.19l-1.818.5 1.066 3.875 2.299-3.296-1.547-1.079zM396.868 31v-1.886h-.983l-.563.807L396.868 31zm19.443-1.105l-34.83 48.15 3.055 2.21 34.83-48.15-3.055-2.21zM381.49 78.032c-3.905 5.304-8.076 9.22-12.49 11.824l1.916 3.248c4.946-2.917 9.476-7.22 13.611-12.836l-3.037-2.236zM369 89.856c-4.409 2.6-8.971 3.878-13.712 3.878v3.772c5.459 0 10.678-1.482 15.628-4.402L369 89.856zm-13.712 3.878c-3.796 0-7.717-.836-11.776-2.551l-1.468 3.474c4.462 1.885 8.881 2.849 13.244 2.849v-3.772zm-10.793-.034l6.75-14.85-3.433-1.56-6.75 14.85 3.433 1.56zm4.537-13.81c2.101.572 4.071.876 5.896.876v-3.772c-1.414 0-3.044-.236-4.903-.743l-.993 3.638zm5.896.876c2.182 0 4.197-.445 6-1.383l-1.74-3.346c-1.196.622-2.601.957-4.26.957v3.772zm5.974-1.37c1.813-.906 3.469-2.24 4.979-3.947l-2.825-2.498c-1.25 1.413-2.534 2.42-3.841 3.072l1.687 3.374zm5.347-5.816l-15.03-43.2-3.562 1.24 15.03 43.2 3.562-1.24zm-16.811-40.694h21.96v-3.772h-21.96v3.772zM369.58 31.5l7.2 26.19 3.637-1-7.2-26.19-3.637 1zm10.565 26.769l18.27-26.19-3.093-2.158-18.27 26.19 3.093 2.158zm16.723-25.383h20.97v-3.772h-20.97v3.772zM482.402 31l1.849.37.451-2.256h-2.3V31zm-12.6 63v1.886h1.546l.303-1.516-1.849-.37zm-20.88 0l-1.849-.368-.449 2.254h2.298V94zm9.27-46.53l1.85.368.449-2.254h-2.299v1.886zm-14.31 0v-1.886h-1.507l-.332 1.47 1.839.416zm-2.79 12.33l-1.839-.416-.001.004 1.84.412zm-6.66 21.24l1.703.81-1.703-.81zm-8.73 10.89l1.02 1.586.007-.004-1.027-1.582zM404.012 94l-1.823-.482-.462 1.748 1.728.535.557-1.801zm4.5-17.01l.458-1.83-1.805-.45-.476 1.798 1.823.482zm7.2-1.8l-1.305-1.361-.014.013-.014.015 1.333 1.333zm3.96-6.75l-1.748-.706-.006.014-.006.015 1.76.677zm3.78-12.87l-1.836-.43-.001.006 1.837.424zm5.76-24.57v-1.886h-1.495l-.341 1.456 1.836.43zm51.341-.37l-12.6 63 3.698.74 12.6-63-3.698-.74zm-10.751 61.484h-20.88v3.772h20.88v-3.772zm-19.03 2.254l9.27-46.53-3.699-.736-9.27 46.53 3.699.736zm7.42-48.784h-14.31v3.772h14.31v-3.772zm-16.149 1.47l-2.79 12.33 3.678.832 2.79-12.33-3.678-.832zm-2.791 12.334c-2.027 9.062-4.21 15.985-6.522 20.841l3.405 1.622c2.487-5.224 4.744-12.46 6.797-21.64l-3.68-.823zM432.73 80.23c-2.304 4.838-5.016 8.147-8.055 10.12l2.054 3.163c3.801-2.468 6.909-6.419 9.406-11.661l-3.405-1.622zm-8.048 10.115c-2.972 1.91-6.907 2.94-11.94 2.94v3.772c5.528 0 10.232-1.13 13.98-3.54l-2.04-3.172zm-11.94 2.94c-3.156 0-5.872-.373-8.172-1.085l-1.115 3.602c2.739.848 5.843 1.255 9.287 1.255v-3.772zm-6.907 1.198l4.5-17.01-3.646-.964-4.5 17.01 3.646.964zm2.22-15.663c.877.22 1.781.327 2.707.327v-3.772a7.354 7.354 0 0 1-1.792-.213l-.915 3.658zm2.707.327c2.429 0 4.556-.895 6.284-2.623l-2.667-2.666c-1.033 1.032-2.206 1.517-3.617 1.517v3.772zm6.255-2.594c1.732-1.66 3.174-4.209 4.415-7.435l-3.52-1.354c-1.159 3.014-2.356 4.965-3.505 6.066l2.61 2.723zm4.404-7.406c1.313-3.252 2.599-7.65 3.869-13.152l-3.675-.848c-1.251 5.418-2.485 9.6-3.691 12.588l3.497 1.412zM425.288 56l5.76-24.57-3.672-.86-5.76 24.57 3.672.86zm3.924-23.114h53.19v-3.772h-53.19v3.772zM528.36 83.02l1.853-.35-.29-1.536h-1.563v1.886zm-24.03 0v-1.886h-1.092l-.544.948 1.636.938zM498.03 94v1.886h1.092l.543-.947L498.03 94zm-22.41 0l-1.591-1.013-1.847 2.899h3.438V94zm40.14-63v-1.886h-1.035l-.556.873L515.76 31zm20.88 0l1.835-.435-.344-1.45h-1.491V31zm14.94 63v1.886h2.385l-.55-2.321-1.835.435zm-21.15 0l-1.853.35.289 1.536h1.564V94zm-5.04-26.28v1.886h2.277l-.425-2.238-1.852.352zm-3.06-16.11l1.852-.352-.949-4.998-2.538 4.41 1.635.94zm-9.27 16.11l-1.635-.94-1.626 2.826h3.261V67.72zm15.3 13.414h-24.03v3.772h24.03v-3.772zm-25.666.948l-6.3 10.98 3.271 1.877 6.3-10.98-3.271-1.877zm-4.664 10.032h-22.41v3.772h22.41v-3.772zm-20.82 2.9l40.14-63-3.181-2.027-40.14 63 3.181 2.026zm38.55-62.128h20.88v-3.772h-20.88v3.772zm19.045-1.45l14.94 63 3.67-.871-14.94-63-3.67.87zm16.775 60.678h-21.15v3.772h21.15v-3.772zm-19.297 1.537l-2.07-10.98-3.706.698 2.07 10.98 3.706-.698zm-5.041-26.283l-3.06-16.11-3.705.704 3.06 16.11 3.705-.704zm-6.547-16.698l-9.27 16.11 3.269 1.88 9.27-16.11-3.269-1.88zm-7.635 18.936h12.33v-3.772h-12.33v3.772zM119.123 124.02v-1.886h-1.553l-.298 1.525 1.851.361zm-1.44 7.38l-1.851-.361-.438 2.247h2.289V131.4zm26.64 0l1.849.37.451-2.256h-2.3v1.886zm-3.06 15.3v1.886h1.546l.303-1.516-1.849-.37zm-26.73 0v-1.886h-1.552l-.299 1.524 1.851.362zm-1.62 8.28l-1.851-.362-.439 2.248h2.29v-1.886zm31.59 0l1.848.374.457-2.26h-2.305v1.886zm-3.24 16.02v1.886h1.543l.305-1.512-1.848-.374zm-52.38 0l-1.849-.37-.451 2.256h2.3V171zm12.6-63v-1.886h-1.546l-.303 1.516 1.849.37zm51.21 0l1.848.374.457-2.26h-2.305V108zm-3.24 16.02v1.886h1.543l.305-1.512-1.848-.374zm-32.181-.361l-1.44 7.38 3.702.722 1.44-7.38-3.702-.722zm.411 9.627h26.64v-3.772h-26.64v3.772zm24.791-2.256l-3.06 15.3 3.698.74 3.06-15.3-3.698-.74zm-1.211 13.784h-26.73v3.772h26.73v-3.772zm-28.581 1.524l-1.62 8.28 3.702.724 1.62-8.28-3.702-.724zm.231 10.528h31.59v-3.772h-31.59v3.772zm29.742-2.26l-3.24 16.02 3.696.748 3.24-16.02-3.696-.748zm-1.392 14.508h-52.38v3.772h52.38v-3.772zm-50.53 2.256l12.599-63-3.698-.74-12.6 63 3.698.74zm10.75-61.484h51.21v-3.772h-51.21v3.772zm49.362-2.26l-3.24 16.02 3.696.748 3.24-16.02-3.696-.748zm-1.392 14.508h-30.33v3.772h30.33v-3.772zM228.481 108l1.6.997 1.796-2.883h-3.396V108zm-39.24 63v1.886h1.047l.553-.889-1.6-.997zm-20.88 0l-1.841.41.329 1.476h1.512V171zm-14.04-63v-1.886h-2.352l.511 2.296 1.841-.41zm21.78 0l1.844-.393-.318-1.493h-1.526V108zm7.83 36.72l-1.844.393.977 4.583 2.469-3.982-1.602-.994zm22.77-36.72v-1.886h-1.05l-.553.892 1.603.994zm20.179-.997l-39.24 63 3.201 1.994 39.24-63-3.201-1.994zm-37.639 62.111h-20.88v3.772h20.88v-3.772zm-19.04 1.476l-14.04-63-3.681.82 14.04 63 3.681-.82zm-15.88-60.704h21.78v-3.772h-21.78v3.772zm19.936-1.493l7.83 36.72 3.688-.786-7.83-36.72-3.688.786zm11.276 37.321l22.77-36.72-3.205-1.988-22.77 36.72 3.205 1.988zm21.168-35.828h21.78v-3.772h-21.78v3.772zm41.533 14.134v-1.886h-1.553l-.297 1.525 1.85.361zm-1.44 7.38l-1.85-.361-.439 2.247h2.289V131.4zm26.64 0l1.85.37.451-2.256h-2.301v1.886zm-3.06 15.3v1.886h1.546l.304-1.516-1.85-.37zm-26.73 0v-1.886h-1.552l-.298 1.524 1.85.362zm-1.62 8.28l-1.85-.362-.44 2.248h2.29v-1.886zm31.59 0l1.849.374.457-2.26h-2.306v1.886zm-3.24 16.02v1.886h1.543l.306-1.512-1.849-.374zm-52.38 0l-1.849-.37-.451 2.256h2.3V171zm12.6-63v-1.886h-1.545l-.304 1.516 1.849.37zm51.21 0l1.849.374.457-2.26h-2.306V108zm-3.24 16.02v1.886h1.543l.306-1.512-1.849-.374zm-32.18-.361l-1.44 7.38 3.701.722 1.44-7.38-3.701-.722zm.41 9.627h26.64v-3.772h-26.64v3.772zm24.791-2.256l-3.06 15.3 3.699.74 3.06-15.3-3.699-.74zm-1.211 13.784h-26.73v3.772h26.73v-3.772zm-28.58 1.524l-1.62 8.28 3.701.724 1.62-8.28-3.701-.724zm.23 10.528h31.59v-3.772h-31.59v3.772zm29.742-2.26l-3.24 16.02 3.697.748 3.24-16.02-3.697-.748zm-1.392 14.508h-52.38v3.772h52.38v-3.772zm-50.53 2.256l12.6-63-3.699-.74-12.6 63 3.699.74zm10.75-61.484h51.21v-3.772h-51.21v3.772zm49.362-2.26l-3.24 16.02 3.697.748 3.24-16.02-3.697-.748zm-1.392 14.508h-30.33v3.772h30.33v-3.772zm62.537 21.236l-1.534-1.096-.003.004 1.537 1.092zm-12.51 9.27l-.666-1.764-2.071.782 1.101 1.92 1.636-.938zm10.53 18.36v1.886h3.255l-1.619-2.824-1.636.938zm-22.05 0l-1.643.924.54.962h1.103V171zm-8.91-15.84l1.644-.924-.541-.962h-1.103v1.886zm-5.22 0v-1.886h-1.548l-.301 1.518 1.849.368zm-3.15 15.84v1.886h1.548l.302-1.518-1.85-.368zm-21.24 0l-1.849-.37-.451 2.256h2.3V171zm12.6-63v-1.886h-1.546l-.303 1.516 1.849.37zm47.52 5.49l-1.18 1.471.01.008.011.008 1.159-1.487zm-29.61 10.89v-1.886h-1.544l-.305 1.514 1.849.372zm-2.97 14.76l-1.849-.372-.454 2.258h2.303v-1.886zm15.57-2.16l1.253 1.409.014-.012.014-.013-1.281-1.384zm22.054-8.28c0 5.221-1.396 9.72-4.148 13.574l3.069 2.192c3.247-4.546 4.851-9.827 4.851-15.766h-3.772zm-4.151 13.578c-2.695 3.794-6.54 6.672-11.639 8.598l1.333 3.528c5.701-2.154 10.195-5.456 13.381-9.942l-3.075-2.184zm-12.609 11.3l10.53 18.36 3.272-1.876-10.53-18.36-3.272 1.876zm12.166 15.536h-22.05v3.772h22.05v-3.772zm-20.406.962l-8.91-15.84-3.287 1.848 8.91 15.84 3.287-1.848zm-10.554-16.802h-5.22v3.772h5.22v-3.772zm-7.069 1.518l-3.15 15.84 3.699.736 3.15-15.84-3.699-.736zm-1.301 14.322h-21.24v3.772h21.24v-3.772zM280.4 171.37l12.6-63-3.698-.74-12.6 63 3.698.74zm10.751-61.484h28.26v-3.772h-28.26v3.772zm28.26 0c8.026 0 13.969 1.775 18.08 5.075l2.36-2.942c-5.009-4.02-11.906-5.905-20.44-5.905v3.772zm18.101 5.091c4.104 3.198 6.203 7.687 6.203 13.723h3.772c0-7.044-2.521-12.695-7.657-16.697l-2.318 2.974zm-11.535 15.793c0-2.541-.807-4.748-2.682-6.26-1.797-1.45-4.28-2.016-7.124-2.016v3.772c2.436 0 3.913.499 4.756 1.179.766.618 1.278 1.606 1.278 3.325h3.772zm-9.806-8.276h-7.11v3.772h7.11v-3.772zm-8.959 1.514l-2.97 14.76 3.698.744 2.97-14.76-3.698-.744zm-1.121 17.018h8.73v-3.772h-8.73v3.772zm8.73 0c3.236 0 6.021-.795 8.093-2.637l-2.506-2.818c-1.168 1.038-2.943 1.683-5.587 1.683v3.772zm8.121-2.662c2.081-1.927 3.035-4.54 3.035-7.594h-3.772c0 2.226-.665 3.753-1.825 4.826l2.562 2.768zm68.57 21.656l1.853-.349-.29-1.537h-1.563v1.886zm-24.03 0v-1.886h-1.092l-.544.948 1.636.938zm-6.3 10.98v1.886h1.092l.543-.948-1.635-.938zm-22.41 0l-1.591-1.013-1.847 2.899h3.438V171zm40.14-63v-1.886h-1.035l-.556.873 1.591 1.013zm20.88 0l1.834-.435-.344-1.451h-1.49V108zm14.94 63v1.886h2.385l-.551-2.321-1.834.435zm-21.15 0l-1.853.349.289 1.537h1.564V171zm-5.04-26.28v1.886h2.277l-.425-2.238-1.852.352zm-3.06-16.11l1.852-.352-.949-4.998-2.538 4.41 1.635.94zm-9.27 16.11l-1.635-.94-1.626 2.826h3.261v-1.886zm15.3 13.414h-24.03v3.772h24.03v-3.772zm-25.666.948l-6.3 10.98 3.271 1.876 6.3-10.98-3.271-1.876zm-4.664 10.032h-22.41v3.772h22.41v-3.772zm-20.82 2.899l40.14-63-3.181-2.026-40.14 63 3.181 2.026zm38.55-62.127h20.88v-3.772h-20.88v3.772zm19.045-1.451l14.94 63 3.669-.87-14.94-63-3.669.87zm16.775 60.679h-21.15v3.772h21.15v-3.772zm-19.297 1.537l-2.07-10.98-3.706.698 2.07 10.98 3.706-.698zm-5.041-26.283l-3.06-16.11-3.705.704 3.06 16.11 3.705-.704zm-6.547-16.698l-9.27 16.11 3.269 1.88 9.27-16.11-3.269-1.88zm-7.635 18.936h12.33v-3.772h-12.33v3.772zM430.721 108v-1.886h-1.546l-.303 1.516 1.849.37zm45.54 3.24l-.773 1.72.008.003.765-1.723zm11.16 9.27l-1.587 1.019 1.587-1.019zm-1.17 33.39l1.606.988.005-.008-1.611-.98zm-14.04 12.69l.837 1.69.007-.003-.844-1.687zm-54.09 4.41l-1.849-.37-.451 2.256h2.3V171zm47.16-21.69l-1.416-1.245-.001.001 1.417 1.244zm1.17-21.78l-1.255 1.407.01.009.009.008 1.236-1.424zm-17.82-2.97v-1.886h-1.547l-.302 1.518 1.849.368zm-5.94 29.88l-1.849-.368-.448 2.254h2.297v-1.886zm-11.97-44.554h28.44v-3.772h-28.44v3.772zm28.44 0c6.399 0 11.823 1.047 16.327 3.074l1.547-3.44c-5.097-2.293-11.072-3.406-17.874-3.406v3.772zm16.335 3.077c4.562 2.028 7.98 4.89 10.338 8.566l3.174-2.038c-2.801-4.364-6.824-7.682-11.981-9.974l-1.531 3.446zm10.338 8.566c2.359 3.674 3.572 8.049 3.572 13.201h3.771c0-5.768-1.367-10.873-4.169-15.239l-3.174 2.038zm3.572 13.201c0 6.958-1.607 13-4.765 18.19l3.221 1.96c3.561-5.85 5.315-12.588 5.315-20.15h-3.771zm-4.761 18.182c-3.167 5.146-7.576 9.141-13.277 11.991l1.687 3.374c6.299-3.15 11.249-7.615 14.802-13.389l-3.212-1.976zm-13.27 11.988c-5.644 2.793-12.13 4.214-19.504 4.214v3.772c7.867 0 14.94-1.519 21.177-4.606l-1.673-3.38zm-19.504 4.214h-33.75v3.772h33.75v-3.772zm-31.901 2.256l12.6-63-3.698-.74-12.6 63 3.698.74zm32.621-15.044c5.885 0 10.678-1.863 14.108-5.772l-2.835-2.488c-2.571 2.931-6.237 4.488-11.273 4.488v3.772zm14.107-5.771c3.411-3.88 5.059-8.787 5.059-14.565h-3.771c0 5.022-1.412 8.995-4.121 12.075l2.833 2.49zm5.059-14.565c0-4.08-1.29-7.47-4.069-9.884l-2.473 2.848c1.781 1.546 2.771 3.796 2.771 7.036h3.771zm-4.05-9.867c-2.69-2.399-6.451-3.449-10.976-3.449v3.772c3.995 0 6.714.93 8.465 2.491l2.511-2.814zm-10.976-3.449h-8.1v3.772h8.1v-3.772zm-9.949 1.518l-5.94 29.88 3.699.736 5.94-29.88-3.699-.736zm-4.091 32.134h9.9v-3.772h-9.9v3.772z" fill="url(#paint2_linear)"/><path d="M108.205 74.56l-1.569-1.046-.003.005 1.572 1.041zm-13.32 10.98l-.793-1.71-.007.003.8 1.707zm-20.7 4.68l-.098-1.883-1.475.077-.278 1.45 1.851.356zm-1.35 7.02v1.886h1.558l.294-1.53-1.852-.356zm-19.44 0l-1.849-.37-.45 2.256h2.3V97.24zm1.44-7.2l1.85.37.405-2.026-2.055-.22-.2 1.876zm-20.52-7.38l-1.227 1.432.01.008 1.217-1.44zm-2.43-32.13l-1.581-1.027 1.581 1.027zm13.14-11.07l.815 1.7.007-.003.008-.003-.83-1.694zm20.97-5.13l.138 1.88 1.438-.104.275-1.416-1.85-.36zm1.26-6.48v-1.886h-1.554l-.297 1.526 1.851.36zm19.44 0l1.849.375.458-2.26h-2.307v1.885zm-1.35 6.66l-1.848-.375-.417 2.058 2.09.195.175-1.878zm20.52 7.29l-1.228 1.43.01.01 1.218-1.44zm-28.35 31.95l-1.849-.37-.51 2.55 2.582-.308-.223-1.872zm10.98-3.96l-1.239-1.421-.009.008-.009.008 1.257 1.405zm1.17-15.75l1.359-1.308-1.359 1.308zm-7.56-3.24l.29-1.863-1.785-.277-.354 1.77 1.85.37zm-31.59 19.62l-1.359 1.307.013.013.013.013 1.333-1.333zm7.56 3.15l-.289 1.863 1.78.277.358-1.766-1.849-.374zm4.59-22.68l1.849.374.521-2.578-2.609.334.24 1.87zm-11.07 4.05l1.255 1.407.011-.009.01-.01-1.276-1.388zM111 58.18c0 5.91-1.472 10.997-4.364 15.334l3.138 2.092c3.349-5.023 4.997-10.856 4.997-17.426H111zm-4.367 15.339c-2.838 4.285-6.987 7.734-12.541 10.31l1.587 3.422c6.086-2.824 10.817-6.696 14.098-11.65l-3.144-2.082zM94.085 83.833c-5.49 2.573-12.14 4.093-19.998 4.504l.197 3.766c8.22-.43 15.371-2.029 21.402-4.856l-1.601-3.414zm-21.751 6.03l-1.35 7.02 3.703.713 1.35-7.02-3.703-.712zm.501 5.491h-19.44v3.772h19.44v-3.772zm-17.59 2.256l1.44-7.2-3.699-.74-1.44 7.2 3.698.74zm-.21-9.445c-8.793-.938-15.217-3.319-19.502-6.945l-2.436 2.88c5.075 4.294 12.332 6.833 21.538 7.815l.4-3.75zm-19.492-6.937C31.39 77.67 29.27 72.85 29.27 66.55H25.5c0 7.26 2.5 13.18 7.588 17.542l2.455-2.864zM29.27 66.55c0-5.733 1.414-10.71 4.196-14.993l-3.163-2.054C27.086 54.459 25.5 60.163 25.5 66.55h3.771zm4.196-14.993c2.783-4.285 6.875-7.762 12.373-10.396l-1.63-3.402c-6.021 2.886-10.689 6.79-13.906 11.744l3.163 2.054zm12.388-10.403c5.49-2.689 12.233-4.356 20.278-4.943l-.275-3.762c-8.395.613-15.633 2.366-21.662 5.317l1.659 3.388zm21.991-6.464l1.26-6.48-3.702-.72-1.26 6.48 3.702.72zm-.59-4.954h19.44v-3.772h-19.44v3.772zm17.591-2.26l-1.35 6.66 3.697.749 1.35-6.66-3.697-.75zm.323 8.912c8.784.82 15.192 3.17 19.467 6.842l2.457-2.86c-5.085-4.368-12.357-6.877-21.573-7.738l-.35 3.756zm19.477 6.852c4.197 3.55 6.353 8.45 6.353 14.94h3.771c0-7.43-2.524-13.45-7.688-17.82l-2.436 2.88zM77.738 75.623c5.195-.619 9.312-2.01 12.015-4.428l-2.515-2.81c-1.857 1.661-5.06 2.911-9.946 3.492l.446 3.746zm11.996-4.412c2.84-2.475 4.157-5.955 4.157-10.151H90.12c0 3.364-1.023 5.704-2.864 7.309l2.478 2.842zm4.157-10.151c0-3.368-.862-6.246-2.867-8.328l-2.717 2.616c1.115 1.158 1.813 2.96 1.813 5.712h3.771zm-2.867-8.328c-1.968-2.043-4.958-3.226-8.63-3.795l-.578 3.726c3.288.51 5.338 1.488 6.491 2.685l2.717-2.616zM80.256 50.43l-4.59 22.95 3.698.74 4.59-22.95-3.698-.74zM46.38 63.58c0 3.297.826 6.119 2.776 8.147l2.719-2.614c-1.05-1.092-1.724-2.83-1.724-5.533H46.38zm2.802 8.173c1.967 1.967 4.947 3.113 8.604 3.68l.578-3.726c-3.302-.513-5.362-1.467-6.515-2.62l-2.667 2.666zm10.742 2.191l4.59-22.68-3.697-.748-4.59 22.68 3.697.748zm2.502-24.925c-5.297.678-9.457 2.098-12.107 4.532l2.552 2.777c1.79-1.645 5.01-2.925 10.034-3.568l-.479-3.74zM50.34 53.534c-2.724 2.43-3.96 5.885-3.96 10.047h3.771c0-3.398.984-5.703 2.7-7.233l-2.51-2.814zM131.72 91.93l-.844 1.687.013.006.013.006.818-1.699zm-11.16-9.99l-1.613.977.005.008.005.008 1.603-.993zm1.17-34.2l-1.622-.963-.003.005 1.625.958zm14.13-13.41l-.877-1.67-.007.004.884 1.666zm37.35-1.17l-.844 1.687.013.006.013.006.818-1.699zm11.16 9.9l-1.613.977.005.008.005.008 1.603-.993zm-1.17 34.29l-1.622-.963-.003.005 1.625.958zm-14.13 13.32l-.877-1.67-.007.004.884 1.666zm-9.9-15.03l-1.072-1.552-.009.006-.008.007 1.089 1.539zm5.76-7.02l-1.721-.772 1.721.772zm-1.35-18.54l-1.352 1.315.009.01.009.008 1.334-1.333zm-17.82-.72l-1.072-1.552-.009.006-.008.007 1.089 1.539zm-5.67 7.02l-1.721-.772 1.721.772zm1.26 18.54l-1.352 1.315.009.01.009.008 1.334-1.333zm7.29 18.634c-6.191 0-11.542-1.127-16.102-3.323l-1.636 3.398c5.159 2.484 11.088 3.697 17.738 3.697v-3.772zm-16.077-3.31c-4.511-2.256-7.958-5.356-10.401-9.297l-3.205 1.986c2.837 4.578 6.83 8.139 11.919 10.684l1.687-3.374zm-10.39-9.28c-2.383-3.935-3.598-8.48-3.598-13.694h-3.771c0 5.826 1.365 11.061 4.143 15.647l3.226-1.954zm-3.598-13.694c0-7.02 1.608-13.193 4.779-18.572l-3.249-1.916c-3.549 6.02-5.301 12.868-5.301 20.488h3.771zm4.776-18.567c3.241-5.458 7.693-9.687 13.392-12.707l-1.767-3.332c-6.301 3.34-11.269 8.051-14.868 14.113l3.243 1.926zM136.735 36c5.76-3.023 12.294-4.554 19.644-4.554v-3.772c-7.891 0-15.037 1.649-21.397 4.986l1.753 3.34zm19.644-4.554c6.184 0 11.495 1.155 15.986 3.4l1.687-3.373c-5.109-2.554-11.018-3.799-17.673-3.799v3.772zm16.012 3.413c4.559 2.195 7.99 5.257 10.365 9.178l3.226-1.954c-2.786-4.599-6.795-8.137-11.955-10.622l-1.636 3.398zm10.375 9.194c2.436 3.932 3.677 8.471 3.677 13.677h3.771c0-5.834-1.399-11.075-4.243-15.663l-3.205 1.986zm3.677 13.677c0 7.014-1.635 13.215-4.866 18.657l3.243 1.926c3.609-6.078 5.394-12.957 5.394-20.583h-3.771zm-4.869 18.662c-3.175 5.387-7.621 9.586-13.382 12.608l1.753 3.34c6.359-3.338 11.333-8.02 14.878-14.032l-3.249-1.916zm-13.389 12.612c-5.696 3.019-12.196 4.55-19.546 4.55v3.772c7.889 0 15.009-1.649 21.313-4.99l-1.767-3.332zm-17.746-8.868c3.703 0 7.004-.966 9.818-2.956l-2.177-3.08c-2.106 1.49-4.625 2.264-7.641 2.264v3.772zm9.801-2.944c2.819-1.946 4.955-4.563 6.409-7.8l-3.441-1.544c-1.186 2.643-2.889 4.706-5.111 6.24l2.143 3.104zm6.409-7.8c1.437-3.201 2.145-6.677 2.145-10.402h-3.771c0 3.235-.612 6.18-1.815 8.858l3.441 1.544zm2.145-10.402c0-4.12-1.244-7.605-3.882-10.243l-2.667 2.666c1.802 1.802 2.778 4.258 2.778 7.577h3.771zm-3.864-10.225c-2.596-2.669-6.132-3.9-10.351-3.9v3.77c3.46 0 5.924.989 7.648 2.76l2.703-2.63zm-10.351-3.9c-3.704 0-7.026.965-9.892 2.943l2.143 3.104c2.174-1.502 4.732-2.276 7.749-2.276v-3.772zm-9.909 2.956c-2.755 1.948-4.854 4.561-6.302 7.787l3.441 1.544c1.192-2.654 2.873-4.72 5.038-6.252l-2.177-3.08zm-6.302 7.787c-1.437 3.201-2.145 6.677-2.145 10.402h3.771c0-3.235.612-6.18 1.815-8.858l-3.441-1.544zm-2.145 10.402c0 4.106 1.205 7.584 3.774 10.225l2.703-2.63c-1.75-1.8-2.706-4.261-2.706-7.595h-3.771zm3.792 10.243c2.65 2.65 6.202 3.883 10.424 3.883v-3.772c-3.459 0-5.967-.987-7.757-2.777l-2.667 2.666zM249.242 36.49l1.171-1.478-1.171 1.478zm2.97 29.34l-1.576-1.035-.005.008-.006.008 1.587 1.019zm-11.16 9.36l-.783-1.715-.008.004.791 1.711zm-27.63 3.33v-1.886h-1.549l-.301 1.52 1.85.366zM210.362 94v1.886h1.55l.3-1.52-1.85-.366zm-21.24 0l-1.849-.37-.451 2.256h2.3V94zm12.6-63v-1.886h-1.546l-.303 1.516 1.849.37zm30.51 28.98l1.253 1.41.014-.013.015-.013-1.282-1.384zm-12.6-12.6v-1.886h-1.544l-.304 1.514 1.848.372zm-2.97 14.76l-1.848-.372-.455 2.258h2.303V62.14zm13.05-29.254c8.152 0 14.189 1.778 18.359 5.082l2.342-2.956c-5.069-4.016-12.052-5.898-20.701-5.898v3.772zm18.359 5.082c4.111 3.256 6.216 7.81 6.216 13.912h3.771c0-7.098-2.515-12.804-7.645-16.868l-2.342 2.956zm6.216 13.912c0 4.95-1.232 9.232-3.651 12.915l3.153 2.07c2.861-4.357 4.269-9.375 4.269-14.985h-3.771zm-3.662 12.931c-2.362 3.68-5.785 6.576-10.356 8.664l1.567 3.43c5.149-2.352 9.165-5.697 11.963-10.056l-3.174-2.038zm-10.364 8.667c-4.507 2.085-9.807 3.156-15.949 3.156v3.772c6.579 0 12.439-1.149 17.532-3.505l-1.583-3.422zm-15.949 3.156h-10.89v3.772h10.89v-3.772zm-12.74 1.52l-3.06 15.48 3.7.732 3.06-15.48-3.7-.732zm-1.21 13.96h-21.24v3.772h21.24v-3.772zm-19.391 2.256l12.6-63-3.698-.74-12.6 63 3.698.74zm10.751-61.484h27.99v-3.772h-27.99v3.772zm23.67 31.14c3.236 0 6.021-.795 8.093-2.637l-2.505-2.818c-1.169 1.038-2.943 1.683-5.588 1.683v3.772zm8.122-2.662c2.08-1.927 3.034-4.54 3.034-7.594h-3.771c0 2.226-.666 3.752-1.826 4.826l2.563 2.768zm3.034-7.594c0-2.54-.807-4.748-2.682-6.26-1.797-1.45-4.279-2.016-7.124-2.016v3.772c2.436 0 3.913.499 4.756 1.18.766.617 1.279 1.605 1.279 3.324h3.771zm-9.806-8.276h-7.11v3.772h7.11v-3.772zm-8.958 1.514l-2.97 14.76 3.697.744 2.97-14.76-3.697-.744zm-1.122 17.018h8.73v-3.772h-8.73v3.772zM343.598 31l1.85.365.444-2.25h-2.294V31zm-12.42 63v1.886h1.551l.299-1.521-1.85-.365zm-19.35 0l-1.851-.36-.436 2.246h2.287V94zm5.58-28.71l1.851.36-3.345-1.51 1.494 1.15zm-17.73 23.04v1.886h.929l.566-.736-1.495-1.15zm-9.36 0l-1.733.743.49 1.143h1.243V88.33zm-9.72-22.68l1.733-.743-2.391-5.58-1.191 5.953 1.849.37zM274.928 94v1.886h1.546l.303-1.516-1.849-.37zm-19.35 0l-1.849-.37-.451 2.256h2.3V94zm12.6-63v-1.886h-1.546l-.303 1.516 1.849.37zm17.28 0l1.746-.713-.479-1.173h-1.267V31zm13.68 33.48l-1.745.713 1.224 2.996 2.003-2.542-1.482-1.167zM325.508 31v-1.886h-.915l-.566.72L325.508 31zm16.24-.365l-12.42 63 3.7.73 12.42-63-3.7-.73zm-10.57 61.48h-19.35v3.77h19.35v-3.77zm-17.499 2.245l5.58-28.71-3.702-.72-5.58 28.71 3.702.72zm2.235-30.22l-17.73 23.04 2.989 2.3 17.73-23.04-2.989-2.3zm-16.236 22.304h-9.36v3.772h9.36v-3.772zm-7.627 1.143l-9.72-22.68-3.466 1.486 9.72 22.68 3.466-1.486zM278.749 65.28l-5.67 28.35 3.698.74 5.67-28.35-3.698-.74zm-3.821 26.834h-19.35v3.772h19.35v-3.772zm-17.501 2.256l12.6-63-3.698-.74-12.6 63 3.698.74zm10.751-61.484h17.28v-3.772h-17.28v3.772zm15.535-1.173l13.68 33.48 3.491-1.426-13.68-33.48-3.491 1.426zm16.907 33.934l26.37-33.48-2.963-2.334-26.37 33.48 2.963 2.334zm24.888-32.761h18.09v-3.772h-18.09v3.772zM417.838 31l1.528 1.105 2.164-2.99h-3.692V31zm-34.83 48.15l1.519 1.118.005-.006.004-.007-1.528-1.105zm-13.05 12.33l.958 1.624-.958-1.624zm-27.18 1.44l-1.716-.78-.802 1.763 1.784.754.734-1.737zm6.75-14.85l.497-1.82-1.549-.422-.664 1.462 1.716.78zm10.53-.36l-.843-1.687-.013.007-.014.007.87 1.673zm4.41-3.51l1.413 1.25.731-.827-.363-1.043-1.781.62zM349.438 31v-1.886h-2.652l.871 2.506 1.781-.62zm21.96 0l1.819-.5-.381-1.386h-1.438V31zm7.2 26.19l-1.818.5 1.066 3.875 2.299-3.296-1.547-1.079zM396.868 31v-1.886h-.983l-.563.807L396.868 31zm19.443-1.105l-34.83 48.15 3.055 2.21 34.83-48.15-3.055-2.21zM381.49 78.032c-3.905 5.304-8.076 9.22-12.49 11.824l1.916 3.248c4.946-2.917 9.476-7.22 13.611-12.836l-3.037-2.236zM369 89.856c-4.409 2.6-8.971 3.878-13.712 3.878v3.772c5.459 0 10.678-1.482 15.628-4.402L369 89.856zm-13.712 3.878c-3.796 0-7.717-.836-11.776-2.551l-1.468 3.474c4.462 1.885 8.881 2.849 13.244 2.849v-3.772zm-10.793-.034l6.75-14.85-3.433-1.56-6.75 14.85 3.433 1.56zm4.537-13.81c2.101.572 4.071.876 5.896.876v-3.772c-1.414 0-3.044-.236-4.903-.743l-.993 3.638zm5.896.876c2.182 0 4.197-.445 6-1.383l-1.74-3.346c-1.196.622-2.601.957-4.26.957v3.772zm5.974-1.37c1.813-.906 3.469-2.24 4.979-3.947l-2.825-2.498c-1.25 1.413-2.534 2.42-3.841 3.072l1.687 3.374zm5.347-5.816l-15.03-43.2-3.562 1.24 15.03 43.2 3.562-1.24zm-16.811-40.694h21.96v-3.772h-21.96v3.772zM369.58 31.5l7.2 26.19 3.637-1-7.2-26.19-3.637 1zm10.565 26.769l18.27-26.19-3.093-2.158-18.27 26.19 3.093 2.158zm16.723-25.383h20.97v-3.772h-20.97v3.772zM482.402 31l1.849.37.451-2.256h-2.3V31zm-12.6 63v1.886h1.546l.303-1.516-1.849-.37zm-20.88 0l-1.849-.368-.449 2.254h2.298V94zm9.27-46.53l1.85.368.449-2.254h-2.299v1.886zm-14.31 0v-1.886h-1.507l-.332 1.47 1.839.416zm-2.79 12.33l-1.839-.416-.001.004 1.84.412zm-6.66 21.24l1.703.81-1.703-.81zm-8.73 10.89l1.02 1.586.007-.004-1.027-1.582zM404.012 94l-1.823-.482-.462 1.748 1.728.535.557-1.801zm4.5-17.01l.458-1.83-1.805-.45-.476 1.798 1.823.482zm7.2-1.8l-1.305-1.361-.014.013-.014.015 1.333 1.333zm3.96-6.75l-1.748-.706-.006.014-.006.015 1.76.677zm3.78-12.87l-1.836-.43-.001.006 1.837.424zm5.76-24.57v-1.886h-1.495l-.341 1.456 1.836.43zm51.341-.37l-12.6 63 3.698.74 12.6-63-3.698-.74zm-10.751 61.484h-20.88v3.772h20.88v-3.772zm-19.03 2.254l9.27-46.53-3.699-.736-9.27 46.53 3.699.736zm7.42-48.784h-14.31v3.772h14.31v-3.772zm-16.149 1.47l-2.79 12.33 3.678.832 2.79-12.33-3.678-.832zm-2.791 12.334c-2.027 9.062-4.21 15.985-6.522 20.841l3.405 1.622c2.487-5.224 4.744-12.46 6.797-21.64l-3.68-.823zM432.73 80.23c-2.304 4.838-5.016 8.147-8.055 10.12l2.054 3.163c3.801-2.468 6.909-6.419 9.406-11.661l-3.405-1.622zm-8.048 10.115c-2.972 1.91-6.907 2.94-11.94 2.94v3.772c5.528 0 10.232-1.13 13.98-3.54l-2.04-3.172zm-11.94 2.94c-3.156 0-5.872-.373-8.172-1.085l-1.115 3.602c2.739.848 5.843 1.255 9.287 1.255v-3.772zm-6.907 1.198l4.5-17.01-3.646-.964-4.5 17.01 3.646.964zm2.22-15.663c.877.22 1.781.327 2.707.327v-3.772a7.354 7.354 0 0 1-1.792-.213l-.915 3.658zm2.707.327c2.429 0 4.556-.895 6.284-2.623l-2.667-2.666c-1.033 1.032-2.206 1.517-3.617 1.517v3.772zm6.255-2.594c1.732-1.66 3.174-4.209 4.415-7.435l-3.52-1.354c-1.159 3.014-2.356 4.965-3.505 6.066l2.61 2.723zm4.404-7.406c1.313-3.252 2.599-7.65 3.869-13.152l-3.675-.848c-1.251 5.418-2.485 9.6-3.691 12.588l3.497 1.412zM425.288 56l5.76-24.57-3.672-.86-5.76 24.57 3.672.86zm3.924-23.114h53.19v-3.772h-53.19v3.772zM528.36 83.02l1.853-.35-.29-1.536h-1.563v1.886zm-24.03 0v-1.886h-1.092l-.544.948 1.636.938zM498.03 94v1.886h1.092l.543-.947L498.03 94zm-22.41 0l-1.591-1.013-1.847 2.899h3.438V94zm40.14-63v-1.886h-1.035l-.556.873L515.76 31zm20.88 0l1.835-.435-.344-1.45h-1.491V31zm14.94 63v1.886h2.385l-.55-2.321-1.835.435zm-21.15 0l-1.853.35.289 1.536h1.564V94zm-5.04-26.28v1.886h2.277l-.425-2.238-1.852.352zm-3.06-16.11l1.852-.352-.949-4.998-2.538 4.41 1.635.94zm-9.27 16.11l-1.635-.94-1.626 2.826h3.261V67.72zm15.3 13.414h-24.03v3.772h24.03v-3.772zm-25.666.948l-6.3 10.98 3.271 1.877 6.3-10.98-3.271-1.877zm-4.664 10.032h-22.41v3.772h22.41v-3.772zm-20.82 2.9l40.14-63-3.181-2.027-40.14 63 3.181 2.026zm38.55-62.128h20.88v-3.772h-20.88v3.772zm19.045-1.45l14.94 63 3.67-.871-14.94-63-3.67.87zm16.775 60.678h-21.15v3.772h21.15v-3.772zm-19.297 1.537l-2.07-10.98-3.706.698 2.07 10.98 3.706-.698zm-5.041-26.283l-3.06-16.11-3.705.704 3.06 16.11 3.705-.704zm-6.547-16.698l-9.27 16.11 3.269 1.88 9.27-16.11-3.269-1.88zm-7.635 18.936h12.33v-3.772h-12.33v3.772zM119.123 124.02v-1.886h-1.553l-.298 1.525 1.851.361zm-1.44 7.38l-1.851-.361-.438 2.247h2.289V131.4zm26.64 0l1.849.37.451-2.256h-2.3v1.886zm-3.06 15.3v1.886h1.546l.303-1.516-1.849-.37zm-26.73 0v-1.886h-1.552l-.299 1.524 1.851.362zm-1.62 8.28l-1.851-.362-.439 2.248h2.29v-1.886zm31.59 0l1.848.374.457-2.26h-2.305v1.886zm-3.24 16.02v1.886h1.543l.305-1.512-1.848-.374zm-52.38 0l-1.849-.37-.451 2.256h2.3V171zm12.6-63v-1.886h-1.546l-.303 1.516 1.849.37zm51.21 0l1.848.374.457-2.26h-2.305V108zm-3.24 16.02v1.886h1.543l.305-1.512-1.848-.374zm-32.181-.361l-1.44 7.38 3.702.722 1.44-7.38-3.702-.722zm.411 9.627h26.64v-3.772h-26.64v3.772zm24.791-2.256l-3.06 15.3 3.698.74 3.06-15.3-3.698-.74zm-1.211 13.784h-26.73v3.772h26.73v-3.772zm-28.581 1.524l-1.62 8.28 3.702.724 1.62-8.28-3.702-.724zm.231 10.528h31.59v-3.772h-31.59v3.772zm29.742-2.26l-3.24 16.02 3.696.748 3.24-16.02-3.696-.748zm-1.392 14.508h-52.38v3.772h52.38v-3.772zm-50.53 2.256l12.599-63-3.698-.74-12.6 63 3.698.74zm10.75-61.484h51.21v-3.772h-51.21v3.772zm49.362-2.26l-3.24 16.02 3.696.748 3.24-16.02-3.696-.748zm-1.392 14.508h-30.33v3.772h30.33v-3.772zM228.481 108l1.6.997 1.796-2.883h-3.396V108zm-39.24 63v1.886h1.047l.553-.889-1.6-.997zm-20.88 0l-1.841.41.329 1.476h1.512V171zm-14.04-63v-1.886h-2.352l.511 2.296 1.841-.41zm21.78 0l1.844-.393-.318-1.493h-1.526V108zm7.83 36.72l-1.844.393.977 4.583 2.469-3.982-1.602-.994zm22.77-36.72v-1.886h-1.05l-.553.892 1.603.994zm20.179-.997l-39.24 63 3.201 1.994 39.24-63-3.201-1.994zm-37.639 62.111h-20.88v3.772h20.88v-3.772zm-19.04 1.476l-14.04-63-3.681.82 14.04 63 3.681-.82zm-15.88-60.704h21.78v-3.772h-21.78v3.772zm19.936-1.493l7.83 36.72 3.688-.786-7.83-36.72-3.688.786zm11.276 37.321l22.77-36.72-3.205-1.988-22.77 36.72 3.205 1.988zm21.168-35.828h21.78v-3.772h-21.78v3.772zm41.533 14.134v-1.886h-1.553l-.297 1.525 1.85.361zm-1.44 7.38l-1.85-.361-.439 2.247h2.289V131.4zm26.64 0l1.85.37.451-2.256h-2.301v1.886zm-3.06 15.3v1.886h1.546l.304-1.516-1.85-.37zm-26.73 0v-1.886h-1.552l-.298 1.524 1.85.362zm-1.62 8.28l-1.85-.362-.44 2.248h2.29v-1.886zm31.59 0l1.849.374.457-2.26h-2.306v1.886zm-3.24 16.02v1.886h1.543l.306-1.512-1.849-.374zm-52.38 0l-1.849-.37-.451 2.256h2.3V171zm12.6-63v-1.886h-1.545l-.304 1.516 1.849.37zm51.21 0l1.849.374.457-2.26h-2.306V108zm-3.24 16.02v1.886h1.543l.306-1.512-1.849-.374zm-32.18-.361l-1.44 7.38 3.701.722 1.44-7.38-3.701-.722zm.41 9.627h26.64v-3.772h-26.64v3.772zm24.791-2.256l-3.06 15.3 3.699.74 3.06-15.3-3.699-.74zm-1.211 13.784h-26.73v3.772h26.73v-3.772zm-28.58 1.524l-1.62 8.28 3.701.724 1.62-8.28-3.701-.724zm.23 10.528h31.59v-3.772h-31.59v3.772zm29.742-2.26l-3.24 16.02 3.697.748 3.24-16.02-3.697-.748zm-1.392 14.508h-52.38v3.772h52.38v-3.772zm-50.53 2.256l12.6-63-3.699-.74-12.6 63 3.699.74zm10.75-61.484h51.21v-3.772h-51.21v3.772zm49.362-2.26l-3.24 16.02 3.697.748 3.24-16.02-3.697-.748zm-1.392 14.508h-30.33v3.772h30.33v-3.772zm62.537 21.236l-1.534-1.096-.003.004 1.537 1.092zm-12.51 9.27l-.666-1.764-2.071.782 1.101 1.92 1.636-.938zm10.53 18.36v1.886h3.255l-1.619-2.824-1.636.938zm-22.05 0l-1.643.924.54.962h1.103V171zm-8.91-15.84l1.644-.924-.541-.962h-1.103v1.886zm-5.22 0v-1.886h-1.548l-.301 1.518 1.849.368zm-3.15 15.84v1.886h1.548l.302-1.518-1.85-.368zm-21.24 0l-1.849-.37-.451 2.256h2.3V171zm12.6-63v-1.886h-1.546l-.303 1.516 1.849.37zm47.52 5.49l-1.18 1.471.01.008.011.008 1.159-1.487zm-29.61 10.89v-1.886h-1.544l-.305 1.514 1.849.372zm-2.97 14.76l-1.849-.372-.454 2.258h2.303v-1.886zm15.57-2.16l1.253 1.409.014-.012.014-.013-1.281-1.384zm22.054-8.28c0 5.221-1.396 9.72-4.148 13.574l3.069 2.192c3.247-4.546 4.851-9.827 4.851-15.766h-3.772zm-4.151 13.578c-2.695 3.794-6.54 6.672-11.639 8.598l1.333 3.528c5.701-2.154 10.195-5.456 13.381-9.942l-3.075-2.184zm-12.609 11.3l10.53 18.36 3.272-1.876-10.53-18.36-3.272 1.876zm12.166 15.536h-22.05v3.772h22.05v-3.772zm-20.406.962l-8.91-15.84-3.287 1.848 8.91 15.84 3.287-1.848zm-10.554-16.802h-5.22v3.772h5.22v-3.772zm-7.069 1.518l-3.15 15.84 3.699.736 3.15-15.84-3.699-.736zm-1.301 14.322h-21.24v3.772h21.24v-3.772zM280.4 171.37l12.6-63-3.698-.74-12.6 63 3.698.74zm10.751-61.484h28.26v-3.772h-28.26v3.772zm28.26 0c8.026 0 13.969 1.775 18.08 5.075l2.36-2.942c-5.009-4.02-11.906-5.905-20.44-5.905v3.772zm18.101 5.091c4.104 3.198 6.203 7.687 6.203 13.723h3.772c0-7.044-2.521-12.695-7.657-16.697l-2.318 2.974zm-11.535 15.793c0-2.541-.807-4.748-2.682-6.26-1.797-1.45-4.28-2.016-7.124-2.016v3.772c2.436 0 3.913.499 4.756 1.179.766.618 1.278 1.606 1.278 3.325h3.772zm-9.806-8.276h-7.11v3.772h7.11v-3.772zm-8.959 1.514l-2.97 14.76 3.698.744 2.97-14.76-3.698-.744zm-1.121 17.018h8.73v-3.772h-8.73v3.772zm8.73 0c3.236 0 6.021-.795 8.093-2.637l-2.506-2.818c-1.168 1.038-2.943 1.683-5.587 1.683v3.772zm8.121-2.662c2.081-1.927 3.035-4.54 3.035-7.594h-3.772c0 2.226-.665 3.753-1.825 4.826l2.562 2.768zm68.57 21.656l1.853-.349-.29-1.537h-1.563v1.886zm-24.03 0v-1.886h-1.092l-.544.948 1.636.938zm-6.3 10.98v1.886h1.092l.543-.948-1.635-.938zm-22.41 0l-1.591-1.013-1.847 2.899h3.438V171zm40.14-63v-1.886h-1.035l-.556.873 1.591 1.013zm20.88 0l1.834-.435-.344-1.451h-1.49V108zm14.94 63v1.886h2.385l-.551-2.321-1.834.435zm-21.15 0l-1.853.349.289 1.537h1.564V171zm-5.04-26.28v1.886h2.277l-.425-2.238-1.852.352zm-3.06-16.11l1.852-.352-.949-4.998-2.538 4.41 1.635.94zm-9.27 16.11l-1.635-.94-1.626 2.826h3.261v-1.886zm15.3 13.414h-24.03v3.772h24.03v-3.772zm-25.666.948l-6.3 10.98 3.271 1.876 6.3-10.98-3.271-1.876zm-4.664 10.032h-22.41v3.772h22.41v-3.772zm-20.82 2.899l40.14-63-3.181-2.026-40.14 63 3.181 2.026zm38.55-62.127h20.88v-3.772h-20.88v3.772zm19.045-1.451l14.94 63 3.669-.87-14.94-63-3.669.87zm16.775 60.679h-21.15v3.772h21.15v-3.772zm-19.297 1.537l-2.07-10.98-3.706.698 2.07 10.98 3.706-.698zm-5.041-26.283l-3.06-16.11-3.705.704 3.06 16.11 3.705-.704zm-6.547-16.698l-9.27 16.11 3.269 1.88 9.27-16.11-3.269-1.88zm-7.635 18.936h12.33v-3.772h-12.33v3.772zM430.721 108v-1.886h-1.546l-.303 1.516 1.849.37zm45.54 3.24l-.773 1.72.008.003.765-1.723zm11.16 9.27l-1.587 1.019 1.587-1.019zm-1.17 33.39l1.606.988.005-.008-1.611-.98zm-14.04 12.69l.837 1.69.007-.003-.844-1.687zm-54.09 4.41l-1.849-.37-.451 2.256h2.3V171zm47.16-21.69l-1.416-1.245-.001.001 1.417 1.244zm1.17-21.78l-1.255 1.407.01.009.009.008 1.236-1.424zm-17.82-2.97v-1.886h-1.547l-.302 1.518 1.849.368zm-5.94 29.88l-1.849-.368-.448 2.254h2.297v-1.886zm-11.97-44.554h28.44v-3.772h-28.44v3.772zm28.44 0c6.399 0 11.823 1.047 16.327 3.074l1.547-3.44c-5.097-2.293-11.072-3.406-17.874-3.406v3.772zm16.335 3.077c4.562 2.028 7.98 4.89 10.338 8.566l3.174-2.038c-2.801-4.364-6.824-7.682-11.981-9.974l-1.531 3.446zm10.338 8.566c2.359 3.674 3.572 8.049 3.572 13.201h3.771c0-5.768-1.367-10.873-4.169-15.239l-3.174 2.038zm3.572 13.201c0 6.958-1.607 13-4.765 18.19l3.221 1.96c3.561-5.85 5.315-12.588 5.315-20.15h-3.771zm-4.761 18.182c-3.167 5.146-7.576 9.141-13.277 11.991l1.687 3.374c6.299-3.15 11.249-7.615 14.802-13.389l-3.212-1.976zm-13.27 11.988c-5.644 2.793-12.13 4.214-19.504 4.214v3.772c7.867 0 14.94-1.519 21.177-4.606l-1.673-3.38zm-19.504 4.214h-33.75v3.772h33.75v-3.772zm-31.901 2.256l12.6-63-3.698-.74-12.6 63 3.698.74zm32.621-15.044c5.885 0 10.678-1.863 14.108-5.772l-2.835-2.488c-2.571 2.931-6.237 4.488-11.273 4.488v3.772zm14.107-5.771c3.411-3.88 5.059-8.787 5.059-14.565h-3.771c0 5.022-1.412 8.995-4.121 12.075l2.833 2.49zm5.059-14.565c0-4.08-1.29-7.47-4.069-9.884l-2.473 2.848c1.781 1.546 2.771 3.796 2.771 7.036h3.771zm-4.05-9.867c-2.69-2.399-6.451-3.449-10.976-3.449v3.772c3.995 0 6.714.93 8.465 2.491l2.511-2.814zm-10.976-3.449h-8.1v3.772h8.1v-3.772zm-9.949 1.518l-5.94 29.88 3.699.736 5.94-29.88-3.699-.736zm-4.091 32.134h9.9v-3.772h-9.9v3.772z" fill="url(#paint3_linear)"/></g><defs><filter id="filter0_f" x=".357" y=".821" width="578.751" height="197.207" filterUnits="userSpaceOnUse" color-interpolation-filters="sRGB"><feFlood flood-opacity="0" result="BackgroundImageFix"/><feBlend in="SourceGraphic" in2="BackgroundImageFix" result="shape"/><feGaussianBlur stdDeviation="12.571" result="effect1_foregroundBlur"/></filter><filter id="filter1_d" x="24.5" y="19.964" width="536.465" height="154.921" filterUnits="userSpaceOnUse" color-interpolation-filters="sRGB"><feFlood flood-opacity="0" result="BackgroundImageFix"/><feColorMatrix in="SourceAlpha" values="0 0 0 0 0 0 0 0 0 0 0 0 0 0 0 0 0 0 127 0"/><feOffset dx="3" dy="-2"/><feGaussianBlur stdDeviation="2"/><feColorMatrix values="0 0 0 0 1 0 0 0 0 0.341176 0 0 0 0 0.776471 0 0 0 0.5 0"/><feBlend in2="BackgroundImageFix" result="effect1_dropShadow"/><feBlend in="SourceGraphic" in2="effect1_dropShadow" result="shape"/></filter><linearGradient id="paint0_linear" x1="46.633" y1="69.933" x2="572.766" y2="149.227" gradientUnits="userSpaceOnUse"><stop stop-color="#D8BAFF"/><stop offset="1" stop-color="#FFCDF4"/></linearGradient><linearGradient id="paint1_linear" x1="46.633" y1="69.933" x2="572.766" y2="149.227" gradientUnits="userSpaceOnUse"><stop stop-color="#D8BAFF"/><stop offset="1" stop-color="#FFD7F6"/></linearGradient><linearGradient id="paint2_linear" x1="290.5" y1="35.25" x2="290.5" y2="87.75" gradientUnits="userSpaceOnUse"><stop stop-color="#fff" stop-opacity="0"/><stop offset=".583" stop-color="#fff"/><stop offset="1" stop-color="#fff" stop-opacity="0"/></linearGradient><linearGradient id="paint3_linear" x1="290.5" y1="106.125" x2="290.5" y2="163" gradientUnits="userSpaceOnUse"><stop stop-color="#fff" stop-opacity="0"/><stop offset=".583" stop-color="#fff"/><stop offset="1" stop-color="#fff" stop-opacity="0"/></linearGradient></defs></svg>