<svg width="20" height="20" fill="none" xmlns="http://www.w3.org/2000/svg"><path d="M0 12.188h20v4.022c0 .19-.154.345-.345.345H.345A.345.345 0 0 1 0 16.21v-4.023z" fill="#41479B"/><path d="M.345 3.445h19.31c.19 0 .345.155.345.345v4.023H0V3.79c0-.19.154-.345.345-.345z" fill="#FF4B55"/><path d="M20 7.816H0v4.368h20V7.816z" fill="#F5F5F5"/><path d="M8.551 7.93h-.965v1.103h.965V7.93zM10.482 7.93h-.965v1.103h.965V7.93zM9.516 9.031h-.965v1.104h.965V9.03zM12.413 7.93h-.966v1.103h.966V7.93z" fill="#FF4B55"/><path d="M11.448 9.031h-.966v1.104h.966V9.03z" fill="#FF4B55"/><path d="M9.516 7.93h-.965v1.103h.965V7.93zM11.448 7.93h-.966v1.103h.966V7.93zM8.551 9.031h-.965v1.104h.965V9.03zM10.482 9.031h-.965v1.104h.965V9.03z" fill="#F5F5F5"/><path d="M12.413 9.031h-.966v1.104h.966V9.03z" fill="#F5F5F5"/><path d="M10.483 10.137h-.965v1.103h.965v-1.103zM9.517 11.238h-.965v1.104h.965v-1.104z" fill="#FF4B55"/><path d="M11.448 11.238h-.966v1.104h.966v-1.104z" fill="#FF4B55"/><path d="M9.517 10.137h-.965v1.103h.965v-1.103zM11.448 10.137h-.966v1.103h.966v-1.103z" fill="#F5F5F5"/><path d="M10.483 11.238h-.965v1.104h.965v-1.104z" fill="#F5F5F5"/><path d="M12.414 7.93v3.104a2.414 2.414 0 0 1-4.828 0V7.93h4.828zm.172-.172H7.414V11.034A2.59 2.59 0 0 0 10 13.62a2.59 2.59 0 0 0 2.586-2.586V7.758z" fill="#FF4B55"/><path d="M8.552 11.24v-1.103h-.965v.896c0 .07.005.139.01.207h.955z" fill="#FF4B55"/><path d="M12.403 11.242h-.955v1.104h.577c.21-.323.344-.699.378-1.104zM7.975 12.346h.577v-1.104h-.955c.034.405.168.78.378 1.104z" fill="#F5F5F5"/><path d="M11.448 11.24h.955c.006-.068.01-.137.01-.207v-.896h-.965v1.103zM8.552 12.961v-.617h-.577c.154.238.35.447.577.617zM12.025 12.344h-.577v.617a2.42 2.42 0 0 0 .577-.617z" fill="#FF4B55"/><path d="M8.552 12.961c.28.212.608.365.965.438v-1.055h-.965v.617zM10.483 13.399c.358-.073.685-.226.966-.438v-.617h-.966v1.055z" fill="#F5F5F5"/><path d="M10.483 12.344h-.965v1.055a2.422 2.422 0 0 0 .965 0v-1.055z" fill="#FF4B55"/><path d="M8.252 6.105a7.066 7.066 0 0 0-.644-.07c-.17.14-.33.285-.484.436l.462 1.115c.309-.128.626-.23.947-.308l-.28-1.173zM10.585 5.92A7.218 7.218 0 0 0 10 5.657c-.202.08-.397.169-.586.265l.094 1.203c.328-.026.657-.026.984 0l.094-1.203zM12.875 6.47a7.453 7.453 0 0 0-.485-.435c-.219.014-.434.037-.644.07l-.28 1.173c.321.077.638.18.947.308l.462-1.115z" fill="#4173CD"/><path d="M9.413 5.924a7.149 7.149 0 0 0-.62-.17 7.316 7.316 0 0 0-.541.353l.28 1.174c.322-.077.648-.128.975-.154l-.094-1.203zM11.746 6.107a7.307 7.307 0 0 0-.54-.353c-.212.048-.42.105-.62.17l-.095 1.203c.328.026.654.077.975.154l.28-1.174z" fill="#41479B"/><path d="M9.451 6.405a7.018 7.018 0 0 0-1.086.171l-.056-.235c.37-.088.746-.147 1.123-.177l.02.24zM9.489 6.889a6.55 6.55 0 0 0-1.012.16l-.056-.235a6.78 6.78 0 0 1 1.05-.166l.018.241z" fill="#FF4B55"/><path d="M11.146 6.966a6.554 6.554 0 0 0-.253-.04c-.14-.019-.243-.137-.23-.27.011-.132.144-.229.296-.208.09.013.181.027.271.043.151.027.249.16.22.29-.03.13-.165.21-.304.185z" fill="#FFE15A"/><path d="M12.506 7.362c-.321-.133-.65-.239-.983-.319l.056-.234c.345.082.686.193 1.02.33l-.093.223z" fill="#FF4B55"/><path d="M12.42 6.64c-.034.094-.149.139-.257.104-.109-.036-.175-.14-.148-.235.027-.096.144-.147.26-.11.115.037.18.147.145.241zM7.986 6.513c.027.096-.04.2-.148.234-.108.036-.223-.01-.258-.103-.034-.094.031-.204.147-.241.115-.037.231.013.259.11zM9.945 6.352c0 .08-.072.145-.16.148-.09.003-.166-.058-.17-.137-.005-.08.067-.149.16-.152.093-.003.17.061.17.141zM10.386 6.363c-.005.08-.08.14-.17.137-.089-.003-.16-.068-.16-.148 0-.08.076-.144.17-.141.093.003.165.072.16.152zM10.157 6.725c-.002.08-.072.142-.157.142-.084 0-.154-.062-.156-.142-.002-.08.068-.147.156-.147.09 0 .16.067.157.147z" fill="#FFE15A"/></svg>