<svg width="20" height="20" fill="none" xmlns="http://www.w3.org/2000/svg"><path d="M19.655 16.549H.345A.345.345 0 0 1 0 16.204V3.79c0-.19.154-.345.345-.345h19.31c.19 0 .345.155.345.345v12.414c0 .19-.154.345-.345.345z" fill="#FF4B55"/><path d="M13.647 11.028s-.687-.114-1.196-.536c-.15-.125-.368-.22-.58-.29.17-.008.351-.003.522.032.709.143 1.396-.201 1.396-.201s-.693.07-1.295-.204a1.76 1.76 0 0 0-.58-.123 2.11 2.11 0 0 1 .46-.085c.722-.04 1.3-.546 1.3-.546s-.653.243-1.304.13c-.19-.033-.423-.008-.64.035.143-.09.3-.173.463-.227.686-.227 1.112-.866 1.112-.866s-.567.404-1.226.465c-.195.018-.418.106-.619.207.116-.127.249-.253.395-.35.602-.4.845-1.128.845-1.128s-.44.54-1.06.771c-.168.064-.343.19-.5.327.075-.137.163-.273.268-.39.481-.54.532-1.305.532-1.305s-.29.633-.83 1.014c-.158.11-.305.293-.428.478.038-.165.09-.335.167-.489.324-.646.172-1.398.172-1.398s-.114.686-.536 1.195c-.124.15-.22.368-.29.58a2.183 2.183 0 0 1 .032-.522c.143-.708-.2-1.395-.2-1.395s.07.693-.204 1.295a1.759 1.759 0 0 0-.124.58 2.112 2.112 0 0 1-.085-.461c-.04-.722-.545-1.3-.545-1.3s.242.653.129 1.305c-.033.19-.008.422.035.639-.09-.143-.173-.3-.227-.462C8.78 7.117 8.14 6.69 8.14 6.69s.404.567.465 1.225c.019.196.106.418.207.62a2.184 2.184 0 0 1-.35-.396c-.4-.602-1.128-.844-1.128-.844s.54.44.772 1.06c.063.168.19.343.326.5a2.117 2.117 0 0 1-.39-.268c-.539-.482-1.305-.532-1.305-.532s.633.29 1.014.83c.111.157.293.305.478.427a2.17 2.17 0 0 1-.489-.166c-.645-.324-1.398-.173-1.398-.173s.687.115 1.196.537c.15.124.367.22.58.29a2.18 2.18 0 0 1-.523-.032c-.708-.143-1.395.2-1.395.2s.693-.07 1.295.204c.163.074.374.109.58.124a2.113 2.113 0 0 1-.46.084c-.722.04-1.3.546-1.3.546s.653-.242 1.304-.13c.19.034.422.009.64-.035-.143.09-.3.173-.463.227-.686.227-1.112.867-1.112.867s.567-.405 1.225-.466c.196-.018.418-.106.62-.207a2.181 2.181 0 0 1-.395.35c-.603.4-.845 1.129-.845 1.129s.44-.54 1.06-.772c.168-.063.343-.19.5-.327a2.115 2.115 0 0 1-.268.39c-.482.54-.532 1.306-.532 1.306s.29-.633.83-1.014c.158-.111.305-.294.427-.478a2.17 2.17 0 0 1-.166.488c-.324.646-.173 1.399-.173 1.399s.115-.687.537-1.196c.124-.15.22-.368.29-.58.007.17.003.351-.032.522-.143.709.2 1.395.2 1.395s-.07-.693.204-1.294a1.76 1.76 0 0 0 .124-.58c.042.148.076.305.084.46.04.722.546 1.3.546 1.3s-.242-.653-.13-1.304c.034-.19.01-.423-.034-.64.089.143.173.3.227.463.227.686.866 1.112.866 1.112s-.405-.567-.466-1.226c-.018-.195-.105-.418-.207-.619.127.116.253.248.35.395.4.602 1.129.845 1.129.845s-.54-.44-.772-1.06a1.767 1.767 0 0 0-.326-.5c.136.075.273.163.39.268.539.481 1.305.532 1.305.532s-.633-.29-1.014-.83c-.111-.158-.294-.305-.478-.428.164.038.335.09.488.166.646.325 1.399.173 1.399.173zm-3.648.723a1.75 1.75 0 1 1 0-3.502 1.75 1.75 0 0 1 0 3.502z" fill="#FFE15A"/><path d="M9.443 9.291c.038-.029.075-.058.113-.084a2.443 2.443 0 0 0-.628-.191c-.025.027-.048.056-.07.085.153.03.36.087.585.19zM9.004 8.938c.168.019.412.07.682.185.046-.027.09-.05.136-.074a2.458 2.458 0 0 0-.737-.178c-.027.022-.056.043-.081.067zM9.88 9.75a2.153 2.153 0 0 0-.107-.094c-.327.312-.614.767-.744 1.427.047.042.094.085.146.12.095-.67.374-1.134.704-1.453zM9.753 9.46c.037-.03.074-.06.112-.087a2.408 2.408 0 0 0-.137-.08c-.039.027-.078.053-.117.083.048.026.095.053.142.084zM10.658 9.377c.281.247.538.594.72 1.076.048-.143.08-.293.08-.452 0-.301-.092-.581-.249-.813a2.26 2.26 0 0 0-.55.189zM9.89 9.551c.037.028.073.058.11.088.035-.03.07-.06.108-.088a2.387 2.387 0 0 0-.109-.086 2.438 2.438 0 0 0-.108.086zM10 9.129c-.047.023-.093.05-.139.077.046.024.092.05.138.078a2.42 2.42 0 0 1 .138-.078 2.438 2.438 0 0 0-.138-.077zM8.87 10.917c.155-.63.446-1.062.771-1.36a2.172 2.172 0 0 0-.136-.088c-.313.275-.597.673-.772 1.247.04.071.086.138.137.2zM9.34 9.377a2.262 2.262 0 0 0-.552-.19 1.452 1.452 0 0 0-.248.814c0 .16.032.31.079.452.182-.482.44-.83.72-1.076zM9.999 8.966c.31-.129.596-.174.8-.186a1.45 1.45 0 0 0-1.6 0c.203.012.49.057.8.186zM9.999 9.871c-.291.323-.531.785-.61 1.449.187.085.392.137.61.137.218 0 .423-.052.609-.137-.078-.663-.318-1.126-.61-1.449zM10.493 9.469c-.046.027-.091.057-.137.089.326.297.617.729.771 1.359a1.46 1.46 0 0 0 .137-.201c-.174-.574-.458-.972-.771-1.247zM10.967 11.083c-.13-.66-.416-1.115-.744-1.427-.036.03-.07.061-.106.094.33.319.609.782.704 1.454.052-.036.099-.079.146-.12zM10.177 9.05c.045.022.09.046.135.073.27-.116.514-.166.683-.185-.026-.024-.054-.045-.081-.067a2.461 2.461 0 0 0-.737.178zM10.245 9.46a2.53 2.53 0 0 1 .142-.084c-.039-.03-.078-.056-.117-.083-.046.025-.091.05-.137.08.037.027.075.057.112.087zM10.554 9.295c.225-.103.432-.16.586-.19-.023-.03-.046-.058-.07-.085-.157.024-.38.078-.629.19.038.027.075.056.113.085z" fill="#FFE15A"/></svg>