<svg width="20" height="20" fill="none" xmlns="http://www.w3.org/2000/svg"><path d="M20 6.204H0V3.79c0-.19.154-.345.345-.345h19.31c.19 0 .345.155.345.345v2.414zM19.655 16.548H.345A.345.345 0 0 1 0 16.203v-2.414h20v2.414c0 .19-.154.345-.345.345z" fill="#FF4B55"/><path d="M20 6.207H0v7.586h20V6.207z" fill="#F5F5F5"/><path d="M10.737 12.319l3.186-.638a.318.318 0 0 0-.013-.626l-3.395-.529a.174.174 0 0 1-.145-.2c.016-.094.111-.155.206-.142l2.354.31a.205.205 0 0 0 .177-.345l-.19-.201a.49.49 0 0 0-.264-.146l-1.967-.381 1.677.12a.143.143 0 0 0 .117-.238l-.086-.096a.365.365 0 0 0-.197-.114l-1.665-.347 1.183-.035a.123.123 0 0 0 .088-.205l-.053-.059a.33.33 0 0 0-.155-.097l-1.055-.303h.829a.114.114 0 0 0 .104-.159l-.028-.064a.299.299 0 0 0-.178-.165l-.766-.26.377-.002a.156.156 0 0 0 .142-.218.392.392 0 0 0-.18-.192L10 6.55l-.841.436a.393.393 0 0 0-.18.192.156.156 0 0 0 .143.218l.377.002-.767.26a.299.299 0 0 0-.178.165l-.028.064a.114.114 0 0 0 .105.16h.829l-1.055.302a.331.331 0 0 0-.155.098l-.053.059a.123.123 0 0 0 .088.205l1.183.034-1.665.348a.365.365 0 0 0-.197.113l-.086.096a.143.143 0 0 0 .117.239l1.676-.121-1.966.38a.491.491 0 0 0-.265.147l-.19.202a.205.205 0 0 0 .178.344l2.353-.31c.095-.012.19.048.206.142a.174.174 0 0 1-.145.2l-3.394.53a.317.317 0 0 0-.014.625l3.187.638v.397a.818.818 0 0 1-.24.58l-.497.496h2.947l-.497-.497a.819.819 0 0 1-.24-.579v-.397z" fill="#73AF00"/></svg>