<svg width="1546" height="449" fill="none" xmlns="http://www.w3.org/2000/svg"><path d="M104 118c-52.834 4.5-117.1 50.9-95.5 114.5 17.83 52.498 43 98 103.5 98 43.411 0 96-149.5 187-125.5 75.373 19.879 157.5-270.5 230.5-185.5s85.5 105 87 161.5-9 249.5 98 262.5 93-97 138.5-119 43-67 198-33.5 178.5 81 214 25c17.8-28.072 34.59-125.756 31.85-198-2.71-71.869-80.35-123.5-130.85-54-80 110.099 277.5 155 334 101.5 29.64-28.064 44.17-66 41.5-75.5" stroke="#4E3A6F" stroke-width="7" stroke-dasharray="10 10"/></svg>