<svg width="20" height="20" fill="none" xmlns="http://www.w3.org/2000/svg"><path d="M20 10.001H0V3.794c0-.19.154-.345.345-.345h19.31c.19 0 .345.155.345.345v6.207z" fill="#FF4B55"/><path d="M0 10h20v6.207c0 .19-.154.345-.345.345H.345A.345.345 0 0 1 0 16.207V10zM2.835 6.729A2.28 2.28 0 0 1 4.754 4.48a.053.053 0 0 0 .003-.104 2.36 2.36 0 0 0-.851-.039 2.436 2.436 0 0 0-2.094 2.356 2.415 2.415 0 0 0 2.945 2.39c.058-.014.055-.095-.004-.105a2.279 2.279 0 0 1-1.918-2.25z" fill="#F5F5F5"/><path d="M4.77 7.338l-.101.306-.323.003a.043.043 0 0 0-.026.078l.26.192-.097.308a.043.043 0 0 0 .066.048l.263-.188.262.188a.043.043 0 0 0 .067-.048l-.097-.308.26-.192a.043.043 0 0 0-.026-.078l-.323-.003-.102-.306a.043.043 0 0 0-.082 0zM6.366 7.338l-.102.306-.322.003a.043.043 0 0 0-.026.078l.26.192-.098.308a.043.043 0 0 0 .067.048l.263-.188.262.188a.043.043 0 0 0 .067-.048l-.098-.308.26-.192a.043.043 0 0 0-.025-.078l-.323-.003-.102-.306a.043.043 0 0 0-.083 0zM5.575 4.873l-.102.307-.322.002a.043.043 0 0 0-.026.078l.26.192-.098.308a.043.043 0 0 0 .067.048l.263-.187.262.187a.043.043 0 0 0 .067-.048l-.098-.308.26-.192a.043.043 0 0 0-.026-.078L5.76 5.18l-.102-.307a.043.043 0 0 0-.083 0zM4.304 5.819l-.102.306-.323.002a.043.043 0 0 0-.025.079l.26.191-.098.308a.043.043 0 0 0 .067.049l.262-.188.263.188a.043.043 0 0 0 .066-.049l-.097-.308.26-.191a.043.043 0 0 0-.026-.079l-.323-.002-.102-.306a.043.043 0 0 0-.082 0zM6.836 5.819l-.102.306-.323.002a.043.043 0 0 0-.025.079l.26.191-.098.308a.043.043 0 0 0 .067.049l.262-.188.263.188a.043.043 0 0 0 .067-.049l-.098-.308.26-.191a.043.043 0 0 0-.026-.079l-.322-.002-.102-.306a.043.043 0 0 0-.083 0z" fill="#F5F5F5"/></svg>