<svg width="20" height="20" fill="none" xmlns="http://www.w3.org/2000/svg"><path d="M20 7.813H0V3.79c0-.19.154-.345.345-.345h19.31c.19 0 .345.155.345.345v4.023z" fill="#F5F5F5"/><path d="M19.655 16.551H.345A.345.345 0 0 1 0 16.207v-4.023h20v4.023c0 .19-.154.344-.345.344z" fill="#FF4B55"/><path d="M20 7.82H0v4.368h20V7.82z" fill="#41479B"/><path d="M6.719 6.149s-.07 2.212-.38 2.833c-.384.763-.77.986-1.345 1.192-.575-.206-.961-.428-1.346-1.192-.31-.621-.38-2.833-.38-2.833a4.192 4.192 0 0 1 3.45 0z" fill="#41479B"/><path d="M5.495 9.21a.222.222 0 0 0-.142-.046.22.22 0 0 0-.14.046c-.048.03-.108.069-.219.069-.11 0-.17-.038-.218-.069a.221.221 0 0 0-.141-.046.221.221 0 0 0-.141.046.368.368 0 0 1-.202.068c.21.255.429.376.703.481.274-.105.493-.226.703-.481a.37.37 0 0 1-.203-.068zM4.134 8.805a.22.22 0 0 0 .141.046c.069 0 .099-.019.14-.046a.362.362 0 0 1 .22-.069c.11 0 .17.039.218.07a.22.22 0 0 0 .14.045c.07 0 .1-.019.141-.046a.362.362 0 0 1 .219-.068c.11 0 .17.038.218.068a.221.221 0 0 0 .142.046c.069 0 .099-.019.141-.046a.378.378 0 0 1 .17-.064c.02-.055.041-.116.06-.192l-.515-.857-.191.383-.384-.766-.383.766-.192-.383-.514.857c.02.075.04.137.06.192.08.01.13.039.17.064zM5.93 8.93c-.047.03-.107.068-.218.068-.11 0-.17-.038-.218-.069a.222.222 0 0 0-.142-.046.22.22 0 0 0-.14.046c-.049.03-.108.069-.22.069-.11 0-.17-.038-.218-.07a.221.221 0 0 0-.14-.045.221.221 0 0 0-.141.046.362.362 0 0 1-.219.069.361.361 0 0 1-.218-.07c.037.069.075.131.112.188a.202.202 0 0 0 .106.026c.07 0 .1-.02.141-.046a.362.362 0 0 1 .219-.07c.11 0 .17.039.218.07a.22.22 0 0 0 .14.046c.07 0 .1-.02.142-.046a.362.362 0 0 1 .218-.07c.111 0 .17.039.219.07a.221.221 0 0 0 .141.046c.05 0 .08-.01.108-.026.037-.057.075-.12.112-.188l-.001.001z" fill="#F5F5F5"/><path d="M5.002 6.65l.033.11.112-.026c.008-.002.013.008.008.013l-.079.084.079.085c.005.005 0 .014-.008.013l-.112-.026-.033.11c-.003.007-.013.007-.016 0l-.033-.11-.112.026c-.008.001-.013-.008-.008-.013l.079-.085-.079-.084c-.005-.005 0-.015.008-.013l.112.026.033-.11c.003-.007.013-.007.016 0zM4.45 6.123l.034.11.112-.026c.008-.002.013.007.008.013l-.078.084.078.084c.005.006 0 .015-.008.013l-.112-.026-.033.11c-.003.008-.013.008-.015 0l-.034-.11-.112.026c-.008.002-.013-.007-.008-.013l.079-.084-.079-.084c-.005-.006 0-.015.008-.013l.112.026.034-.11c.002-.008.012-.008.015 0zM5.556 6.123l.034.11.112-.026c.007-.002.013.007.007.013l-.078.084.078.084c.006.006 0 .015-.007.013l-.112-.026-.034.11c-.002.008-.013.008-.015 0l-.034-.11-.112.026c-.007.002-.012-.007-.007-.013l.078-.084-.078-.084c-.005-.006 0-.015.007-.013l.112.026.034-.11c.002-.008.013-.008.015 0z" fill="#FFE15A"/><path d="M6.52 6.066c.002.062.003.123.003.19-.028.691-.13 2.197-.355 2.651-.33.664-.636.883-1.174 1.086-.538-.203-.843-.422-1.174-1.085-.225-.456-.328-1.987-.355-2.652l.002-.19a4.216 4.216 0 0 0-.197.083 21.6 21.6 0 0 0 .138 1.79c.057.433.135.831.24 1.044.385.764.771.986 1.346 1.192.575-.206.961-.429 1.345-1.192.106-.213.184-.611.241-1.044.1-.774.134-1.655.138-1.79a4.122 4.122 0 0 0-.197-.083z" fill="#FF1722"/></svg>