<svg width="20" height="20" fill="none" xmlns="http://www.w3.org/2000/svg"><path d="M19.655 16.549H.345A.345.345 0 0 1 0 16.204V3.79c0-.19.154-.345.345-.345h19.31c.19 0 .345.155.345.345v12.414c0 .19-.154.345-.345.345z" fill="#FF4B55"/><path d="M13.772 11.633c-.189-.119-.302.07-.302.07l-.55.065.275-.232c.2.016.226-.043.28-.124.054-.08.28-.043.28-.043-.032-.248-.344-.108-.344-.108-.254-.027-.297.178-.297.178l-.393.302-.866-.257c.09-.099.16-.196.171-.255.017-.1-.64-.266-.84-.474-.202-.209-.274-.54-.18-.625.093-.087.172.158.273.359.1.201.287.36.41.258.121-.1-.13-.25-.245-.466-.115-.216.086-.295.18-.273.093.021.15.467.373.696.223.23.424.187.446.043.021-.143-.368-.32-.447-.442-.079-.123-.1-.362.03-.37.13-.006.603.7 1.006.97.438.295.79-.05.733-.193-.058-.144-.324-.087-.633-.166-.309-.079-.625-.495-.718-.725-.093-.23-.016-.23.038-.209.054.022.258.324.652.555.393.232.668.011.7-.043.032-.054.157-.295-.248-.239-.46.065-.722-.208-.91-.353-.189-.146-.264-.345-.178-.426.086-.08.37.284.8.399.397.105.558-.065.547-.221-.011-.156-.103-.092-.55-.135-.447-.043-.76-.463-.776-.49-.016-.027-.01-.178.216-.033.226.146.63.232.867.221.237-.01.286-.328.173-.382-.113-.054-.14.027-.399.08-.259.055-.744-.21-.862-.333-.119-.124.01-.205.07-.194.06.01.447.237.792.226.345-.01.49-.329.48-.426-.011-.097-.108-.178-.254-.08a.841.841 0 0 1-.662.156c-.324-.054-.475-.27-.431-.35.043-.081.355.059.85.005.497-.054.518-.49.47-.577-.049-.086-.167-.059-.334.097-.167.157-.49.189-.744.189-.253 0-.259-.124-.22-.21.037-.086.306-.065.683-.183.378-.119.593-.42.652-.61.06-.188-.086-.333-.145-.333-.06 0-.022-.087-.28.285-.259.372-.938.517-.938.517-.048-.091-.124-.123-.124-.123-.458.091-1.01.487-1.01.487s.097.312-.024.555c-.157.314-.694.118-.548-.377.122-.412.592-.661.99-.706.398-.044.418-.194.418-.194s-.418.135-.425-.051c.086.017.213.025.429.006.32-.029.499-.256.357-.304-.142-.05-.081.097-.325.21a.64.64 0 0 1-.447.017c.085-.184.44-.09.44-.09.003-.32-.422-.205-.422-.205-.187-.403-1.279.064-1.279.064l.259.209c-.632.352-.762 1.02-.762 1.02s-.129-.668-.761-1.02l.258-.209S8.405 5.546 8.22 5.95c0 0-.426-.115-.422.205 0 0 .355-.094.44.09a.64.64 0 0 1-.448-.016c-.243-.114-.182-.26-.324-.211-.142.048.036.275.357.304.216.019.343.011.429-.006-.008.186-.425.05-.425.05s.02.15.418.195c.397.045.868.294.99.706.146.495-.391.69-.548.377-.122-.243-.024-.555-.024-.555s-.553-.396-1.01-.487c0 0-.076.032-.125.123 0 0-.678-.145-.937-.517s-.221-.285-.28-.285c-.06 0-.205.145-.146.334.06.188.275.49.652.609.377.118.647.097.684.183.038.086.033.21-.22.21-.254 0-.577-.032-.744-.189-.167-.156-.285-.183-.334-.097-.048.087-.027.523.469.577.495.054.808-.086.851-.006.043.081-.108.297-.431.35a.841.841 0 0 1-.663-.156c-.145-.097-.242-.016-.253.081-.01.097.135.415.48.426.344.01.732-.216.792-.226.059-.011.188.07.07.194-.119.123-.604.387-.862.334-.259-.054-.286-.135-.4-.081-.112.054-.064.372.173.382.237.011.641-.075.868-.22.226-.146.231.005.215.032-.016.027-.328.447-.776.49-.447.043-.538-.022-.55.135-.01.156.15.326.547.22.43-.114.715-.479.8-.398.087.08.012.28-.177.426-.189.145-.45.418-.91.353-.405-.056-.28.185-.248.24.032.053.307.274.7.042.393-.231.598-.533.652-.555.054-.021.131-.021.038.209-.094.23-.41.646-.719.725-.309.08-.574.022-.632.165-.057.144.295.489.733.194.402-.27.876-.977 1.006-.97.129.008.109.247.03.37-.08.122-.469.299-.447.442.022.144.223.187.445-.043.223-.23.28-.675.374-.697.093-.021.295.058.18.274-.115.215-.367.366-.245.466.122.101.31-.057.41-.258.1-.201.18-.446.273-.36.093.087.021.417-.18.626-.2.208-.858.375-.84.474.01.059.08.156.17.255l-.865.257-.394-.302s-.043-.205-.296-.178c0 0-.312-.14-.345.108 0 0 .226-.038.28.043.054.08.081.14.28.124l.275.232-.55-.065s-.112-.189-.301-.07c0 0-.237-.076-.296.15 0 0 .204-.037.258-.01 0 0 .081.183.34.075l.544.027-.307.151s-.388-.124-.372.2c0 0-.113.129-.01.258 0 0 .02-.14.123-.2 0 0 .2.082.329-.155l.393-.237.388.188s-.01.21.275.124c0 0 .097.065.124.15 0 0 .124-.134-.076-.29 0 0-.048-.183-.285-.113l-.221-.113.817-.243c.142.135.294.245.348.227.105-.037.187-.146.26-.3.073-.155.401-.69.563-.686.163.004.236.134.195.365-.04.231-.357.674-.561.766-.205.091-.238.135-.426.118-.189-.016-.253.065-.21.173.043.108.255.176.463.097.226-.086.313-.205.399-.135.086.07-.092.323-.334.399-.243.075-.426.027-.388.178.038.15.296.161.463.064.167-.097.356-.366.404-.28.049.086.016.307-.145.426-.162.118-.346.049-.383.156-.054.156.135.259.28.2.146-.06.313-.243.388-.405.076-.161.216-.021.173.13-.043.15-.007.274-.316.512l.574.883.575-.884c-.309-.237-.273-.36-.316-.511-.043-.151.097-.291.172-.13.076.162.243.345.388.404.146.06.334-.043.28-.199-.037-.107-.22-.038-.382-.156-.162-.119-.194-.34-.146-.426.049-.086.238.183.405.28.167.097.425.086.463-.064.038-.151-.146-.103-.388-.178-.242-.076-.42-.329-.334-.399.086-.07.172.049.399.135.208.08.42.01.463-.097.043-.108-.022-.189-.21-.173-.189.017-.221-.027-.426-.118-.204-.092-.52-.535-.561-.766-.04-.231.032-.361.194-.365.163-.004.491.531.564.685.073.155.154.264.26.3.053.02.206-.091.348-.226l.817.243-.22.113c-.238-.07-.287.113-.287.113-.199.156-.075.29-.075.29a.344.344 0 0 1 .124-.15c.286.086.275-.124.275-.124l.388-.188.393.237c.13.237.329.156.329.156.102.059.124.2.124.2.102-.13-.011-.26-.011-.26.016-.323-.372-.199-.372-.199l-.307-.15.544-.027c.259.107.34-.076.34-.076.053-.027.258.01.258.01-.06-.226-.296-.15-.296-.15z" fill="#464655"/></svg>