<svg width="20" height="20" fill="none" xmlns="http://www.w3.org/2000/svg"><g clip-path="url(#clip0)"><path d="M.127 16.468L10 10 .127 3.53A.34.34 0 0 0 0 3.793v12.413a.34.34 0 0 0 .127.262z" fill="#41479B"/><path d="M.127 16.468a.34.34 0 0 0 .218.084h19.31c.19 0 .345-.155.345-.345V10H10L.127 16.468z" fill="#FF4B55"/><path d="M.127 3.529a.339.339 0 0 1 .218-.084h19.31c.19 0 .345.155.345.345v6.207H10L.127 3.529z" fill="#F5F5F5"/></g><defs><clipPath id="clip0"><path fill="#fff" d="M0 0h20v20H0z"/></clipPath></defs></svg>