<svg width="538" height="197" fill="none" xmlns="http://www.w3.org/2000/svg"><g filter="url(#filter0_f)"><path d="M58.175 45.02v-1.886h-1.546l-.304 1.516 1.85.37zm-2.16 10.8l-1.85-.37-.45 2.256h2.3V55.82zm26.28 0l1.848.374.457-2.26h-2.305v1.886zm-3.24 16.02v1.886h1.542l.306-1.512-1.849-.374zm-26.19 0v-1.886H51.32l-.304 1.515 1.849.371zM48.815 92v1.886h1.544l.304-1.515L48.815 92zm-21.24 0l-1.85-.37-.45 2.256h2.3V92zm12.6-63v-1.886h-1.546l-.304 1.516 1.85.37zm51.21 0l1.848.374.457-2.26h-2.305V29zm-3.24 16.02v1.886h1.542l.306-1.512-1.849-.374zm-31.82-.37l-2.16 10.8 3.699.74 2.16-10.8-3.699-.74zm-.31 13.056h26.28v-3.772h-26.28v3.772zm24.431-2.26l-3.24 16.02 3.697.748 3.24-16.02-3.697-.748zm-1.391 14.508h-26.19v3.772h26.19v-3.772zm-28.04 1.515l-4.05 20.16 3.698.742 4.05-20.16-3.697-.742zm-2.2 18.645h-21.24v3.772h21.24v-3.772zM29.424 92.37l12.6-63-3.699-.74-12.6 63 3.699.74zm10.75-61.484h51.21v-3.772h-51.21v3.772zm49.362-2.26l-3.24 16.02 3.697.748 3.24-16.02-3.697-.748zm-1.392 14.508h-29.97v3.772h29.97v-3.772zm15.451 46.796l-.843 1.687.012.006.013.006.818-1.699zm-11.16-9.99l-1.613.977.005.008.005.008 1.603-.993zm1.17-34.2l-1.621-.963-.003.005 1.624.958zm14.13-13.41l-.876-1.67-.007.004.883 1.666zm37.35-1.17l-.843 1.687.012.006.013.006.818-1.699zm11.16 9.9l-1.613.977.005.008.005.008 1.603-.993zm-1.17 34.29l-1.621-.963-.003.005 1.624.958zm-14.13 13.32l-.876-1.67-.007.004.883 1.666zm-9.9-15.03l-1.071-1.552-.009.006-.009.007 1.089 1.539zm5.76-7.02l1.72.772-1.72-.772zm-1.35-18.54l-1.352 1.315.009.01.01.008 1.333-1.333zm-17.82-.72l-1.071-1.552-.009.006-.009.007 1.089 1.539zm-5.67 7.02l1.72.772-1.72-.772zm1.26 18.54l-1.352 1.315.009.01.01.008 1.333-1.333zm7.29 18.634c-6.19 0-11.541-1.127-16.102-3.323l-1.636 3.398c5.159 2.484 11.088 3.697 17.738 3.697v-3.772zm-16.077-3.31c-4.51-2.256-7.957-5.356-10.4-9.297l-3.206 1.986c2.837 4.578 6.83 8.139 11.92 10.684l1.686-3.374zm-10.39-9.28c-2.383-3.935-3.597-8.48-3.597-13.694h-3.772c0 5.826 1.366 11.061 4.143 15.647l3.226-1.954zM90.451 65.27c0-7.02 1.607-13.193 4.779-18.572l-3.25-1.916c-3.548 6.02-5.3 12.868-5.3 20.488h3.77zm4.775-18.567c3.241-5.458 7.694-9.687 13.392-12.707l-1.766-3.332c-6.302 3.34-11.27 8.051-14.868 14.113l3.242 1.926zM108.611 34c5.76-3.023 12.294-4.554 19.644-4.554v-3.772c-7.89 0-15.036 1.649-21.396 4.986l1.752 3.34zm19.644-4.554c6.184 0 11.495 1.155 15.987 3.4l1.686-3.373c-5.108-2.554-11.017-3.799-17.673-3.799v3.772zm16.012 3.413c4.559 2.195 7.99 5.257 10.365 9.178l3.226-1.954c-2.785-4.599-6.794-8.137-11.955-10.622l-1.636 3.398zm10.375 9.194c2.437 3.932 3.677 8.471 3.677 13.677h3.772c0-5.834-1.4-11.075-4.243-15.663l-3.206 1.986zm3.677 13.677c0 7.014-1.634 13.215-4.865 18.657l3.242 1.926c3.609-6.078 5.395-12.957 5.395-20.583h-3.772zm-4.868 18.662c-3.176 5.387-7.622 9.586-13.382 12.608l1.752 3.34c6.36-3.338 11.334-8.02 14.878-14.032l-3.248-1.916zm-13.389 12.612c-5.696 3.019-12.197 4.55-19.547 4.55v3.772c7.89 0 15.009-1.649 21.313-4.99l-1.766-3.332zm-17.747-8.868c3.703 0 7.004-.966 9.819-2.956l-2.178-3.08c-2.105 1.49-4.624 2.264-7.641 2.264v3.772zm9.801-2.944c2.819-1.946 4.956-4.563 6.409-7.8l-3.44-1.544c-1.187 2.643-2.89 4.706-5.111 6.24l2.142 3.104zm6.409-7.8c1.438-3.201 2.146-6.677 2.146-10.402h-3.772c0 3.235-.612 6.18-1.814 8.858l3.44 1.544zm2.146-10.402c0-4.12-1.244-7.605-3.883-10.243l-2.666 2.666c1.801 1.802 2.777 4.258 2.777 7.577h3.772zm-3.864-10.225c-2.597-2.669-6.133-3.9-10.352-3.9v3.77c3.461 0 5.925.989 7.648 2.76l2.704-2.63zm-10.352-3.9c-3.704 0-7.026.965-9.891 2.943l2.142 3.104c2.175-1.502 4.733-2.276 7.749-2.276v-3.772zm-9.909 2.956c-2.754 1.948-4.853 4.561-6.301 7.787l3.44 1.544c1.192-2.654 2.873-4.72 5.039-6.252l-2.178-3.08zm-6.301 7.787c-1.438 3.201-2.146 6.677-2.146 10.402h3.772c0-3.235.612-6.18 1.814-8.858l-3.44-1.544zm-2.146 10.402c0 4.106 1.205 7.584 3.774 10.225l2.704-2.63c-1.751-1.8-2.706-4.261-2.706-7.595h-3.772zm3.793 10.243c2.649 2.65 6.202 3.883 10.423 3.883v-3.772c-3.459 0-5.966-.987-7.757-2.777l-2.666 2.666zm112.002-9.883l-1.534-1.096-.003.004 1.537 1.092zm-12.51 9.27l-.666-1.764-2.071.782 1.101 1.92 1.636-.938zM221.914 92v1.886h3.255l-1.619-2.824-1.636.938zm-22.05 0l-1.643.924.54.962h1.103V92zm-8.91-15.84l1.644-.924-.541-.962h-1.103v1.886zm-5.22 0v-1.886h-1.548l-.301 1.518 1.849.368zM182.584 92v1.886h1.548l.302-1.518-1.85-.368zm-21.24 0l-1.849-.37-.451 2.256h2.3V92zm12.6-63v-1.886h-1.546l-.303 1.516 1.849.37zm47.52 5.49l-1.18 1.47.01.01.011.007 1.159-1.487zm-29.61 10.89v-1.886h-1.544l-.305 1.514 1.849.372zm-2.97 14.76l-1.849-.372-.454 2.258h2.303V60.14zm15.57-2.16l1.253 1.41.014-.013.014-.013-1.281-1.384zm22.054-8.28c0 5.22-1.396 9.72-4.148 13.574l3.069 2.192c3.247-4.546 4.851-9.827 4.851-15.766h-3.772zm-4.151 13.578c-2.695 3.794-6.541 6.672-11.639 8.598l1.332 3.528c5.702-2.154 10.196-5.456 13.382-9.942l-3.075-2.184zm-12.609 11.3l10.53 18.36 3.272-1.876-10.53-18.36-3.272 1.876zm12.166 15.536h-22.05v3.772h22.05v-3.772zm-20.406.962l-8.91-15.84-3.287 1.849 8.91 15.84 3.287-1.85zm-10.554-16.802h-5.22v3.772h5.22v-3.772zm-7.069 1.518l-3.15 15.84 3.699.736 3.15-15.84-3.699-.736zm-1.301 14.322h-21.24v3.772h21.24v-3.772zm-19.391 2.256l12.6-63-3.698-.74-12.6 63 3.698.74zm10.751-61.484h28.26v-3.772h-28.26v3.772zm28.26 0c8.026 0 13.969 1.775 18.08 5.075l2.36-2.942c-5.009-4.02-11.906-5.905-20.44-5.905v3.772zm18.101 5.091c4.104 3.198 6.203 7.687 6.203 13.723h3.772c0-7.044-2.521-12.695-7.657-16.698l-2.318 2.975zM208.77 51.77c0-2.54-.807-4.748-2.682-6.26-1.797-1.45-4.28-2.016-7.124-2.016v3.772c2.436 0 3.913.499 4.756 1.18.766.617 1.278 1.605 1.278 3.324h3.772zm-9.806-8.276h-7.11v3.772h7.11v-3.772zm-8.959 1.514l-2.97 14.76 3.698.744 2.97-14.76-3.698-.744zm-1.121 17.018h8.73v-3.772h-8.73v3.772zm8.73 0c3.236 0 6.021-.795 8.093-2.637l-2.506-2.818c-1.168 1.038-2.943 1.683-5.587 1.683v3.772zm8.121-2.662c2.081-1.927 3.035-4.54 3.035-7.594h-3.772c0 2.226-.665 3.752-1.825 4.826l2.562 2.768zM316.425 29l1.85.365.443-2.25h-2.293V29zm-12.42 63v1.886h1.55l.3-1.521-1.85-.365zm-19.35 0l-1.851-.36-.437 2.246h2.288V92zm5.58-28.71l1.851.36-3.346-1.51 1.495 1.15zm-17.73 23.04v1.886h.928l.566-.736-1.494-1.15zm-9.36 0l-1.734.743.49 1.143h1.244V86.33zm-9.72-22.68l1.733-.743-2.392-5.58-1.19 5.953 1.849.37zM247.755 92v1.886h1.546l.303-1.516-1.849-.37zm-19.35 0l-1.849-.37-.452 2.256h2.301V92zm12.6-63v-1.886h-1.546l-.303 1.516 1.849.37zm17.28 0l1.745-.713-.479-1.173h-1.266V29zm13.68 33.48l-1.746.713 1.224 2.996 2.003-2.542-1.481-1.167zM298.335 29v-1.886h-.916l-.566.72L298.335 29zm16.239-.365l-12.419 63 3.7.73 12.42-63-3.701-.73zm-10.569 61.48h-19.35v3.77h19.35v-3.77zm-17.499 2.245l5.58-28.71-3.702-.72-5.58 28.71 3.702.72zm2.234-30.22l-17.73 23.04 2.989 2.3 17.73-23.04-2.989-2.3zm-16.235 22.304h-9.36v3.772h9.36v-3.772zm-7.627 1.143l-9.72-22.68-3.467 1.486 9.72 22.68 3.467-1.486zM251.576 63.28l-5.67 28.35 3.698.74 5.67-28.35-3.698-.74zm-3.821 26.834h-19.35v3.772h19.35v-3.772zm-17.501 2.256l12.6-63-3.698-.74-12.6 63 3.698.74zm10.751-61.484h17.28v-3.772h-17.28v3.772zm15.534-1.173l13.68 33.48 3.491-1.426-13.68-33.48-3.491 1.426zm16.907 33.934l26.37-33.48-2.963-2.334-26.37 33.48 2.963 2.334zm24.889-32.761h18.09v-3.772h-18.09v3.772zm33.039 59.764l-.803 1.706.015.007.015.007.773-1.72zm-9.45-8.1l-1.602.995.006.01.006.01 1.59-1.015zm-2.52-18.9l-1.849-.37-.002.009-.002.008 1.853.353zm6.93-34.65v-1.886h-1.546l-.303 1.516 1.849.37zm21.24 0l1.849.369.45-2.255h-2.299V29zm-6.84 34.29l1.844.395.002-.013.003-.013-1.849-.369zm1.62 10.89l-1.305 1.361 1.305-1.361zm13.59-.9l1.416 1.245-1.416-1.245zm4.05-9.99l1.847.379.002-.01-1.849-.369zm6.84-34.29v-1.886h-1.547l-.303 1.517 1.85.369zm20.88 0l1.849.37.451-2.256h-2.3V29zm-7.11 35.55l1.848.372.001-.002-1.849-.37zm-11.52 21.6l-1.216-1.441 1.216 1.441zm-23.04 5.404c-5.437 0-10.052-.896-13.897-2.624l-1.546 3.44c4.434 1.992 9.599 2.956 15.443 2.956v-3.772zm-13.867-2.61c-3.789-1.783-6.653-4.256-8.663-7.408l-3.18 2.028c2.429 3.808 5.865 6.735 10.237 8.792l1.606-3.412zm-8.651-7.389c-1.949-3.14-2.957-6.865-2.957-11.245h-3.771c0 4.98 1.153 9.415 3.524 13.234l3.204-1.989zm-2.957-11.245c0-1.77.222-3.867.687-6.307l-3.705-.706c-.495 2.6-.753 4.943-.753 7.013h3.771zm.684-6.29l6.93-34.65-3.698-.74-6.93 34.65 3.698.74zm5.081-33.134h21.24v-3.772h-21.24v3.772zm19.39-2.255l-6.84 34.29 3.699.738 6.84-34.29-3.699-.738zm-6.834 34.264c-.381 1.78-.582 3.445-.582 4.985h3.771c0-1.22.16-2.615.499-4.195l-3.688-.79zm-.582 4.985c0 3.118.798 5.8 2.741 7.662l2.609-2.724c-.937-.898-1.579-2.415-1.579-4.938h-3.771zm2.741 7.662c1.907 1.827 4.548 2.594 7.605 2.594v-3.772c-2.463 0-4.023-.613-4.996-1.546l-2.609 2.724zm7.605 2.594c3.553 0 6.542-1.148 8.706-3.611l-2.833-2.49c-1.315 1.497-3.186 2.33-5.873 2.33v3.77zm8.706-3.611c2.069-2.354 3.501-6.078 4.481-10.856l-3.694-.758c-.94 4.582-2.208 7.518-3.62 9.124l2.833 2.49zm4.483-10.866l6.84-34.29-3.699-.738-6.84 34.29 3.699.738zm4.991-32.773h20.88v-3.772h-20.88v3.772zm19.031-2.256l-7.11 35.55 3.698.74 7.11-35.55-3.698-.74zm-7.11 35.548c-1.861 9.245-5.537 16.017-10.887 20.53l2.432 2.883c6.17-5.206 10.173-12.834 12.152-22.669l-3.697-.744zm-10.887 20.53c-5.336 4.502-12.545 6.846-21.824 6.846v3.772c9.92 0 18.071-2.516 24.256-7.735l-2.432-2.882zM397.45 29v-1.886h-1.546l-.303 1.516 1.849.37zm21.24 0l1.849.368.449-2.254h-2.298V29zm-9.27 46.53l-1.849-.368-.45 2.254h2.299V75.53zm28.44 0l1.848.374.457-2.26h-2.305v1.886zM434.53 92v1.886h1.543l.305-1.512L434.53 92zm-49.68 0l-1.849-.37-.451 2.256h2.3V92zm12.6-61.114h21.24v-3.772h-21.24v3.772zm19.391-2.254l-9.27 46.53 3.698.736 9.27-46.53-3.698-.736zm-7.421 48.784h28.44v-3.772h-28.44v3.772zm26.592-2.26l-3.33 16.47 3.696.748 3.33-16.47-3.696-.748zm-1.482 14.958h-49.68v3.772h49.68v-3.772zm-47.831 2.256l12.6-63-3.698-.74-12.6 63 3.698.74zm100.477-11.35l1.853-.35-.29-1.536h-1.563v1.886zm-24.03 0v-1.886h-1.092l-.544.948 1.636.938zm-6.3 10.98v1.886h1.092l.543-.947-1.635-.939zm-22.41 0l-1.591-1.013-1.847 2.899h3.438V92zm40.14-63v-1.886h-1.035l-.556.873L474.576 29zm20.88 0l1.835-.435-.344-1.45h-1.491V29zm14.94 63v1.886h2.385l-.55-2.321-1.835.435zm-21.15 0l-1.853.35.289 1.536h1.564V92zm-5.04-26.28v1.886h2.277l-.425-2.238-1.852.352zm-3.06-16.11l1.852-.352-.949-4.998-2.538 4.41 1.635.94zm-9.27 16.11l-1.635-.94-1.626 2.826h3.261V65.72zm15.3 13.414h-24.03v3.772h24.03v-3.772zm-25.666.948l-6.3 10.98 3.271 1.877 6.3-10.98-3.271-1.877zm-4.664 10.032h-22.41v3.772h22.41v-3.772zm-20.82 2.9l40.14-63-3.181-2.027-40.14 63 3.181 2.026zm38.55-62.128h20.88v-3.772h-20.88v3.772zm19.045-1.45l14.94 63 3.67-.871-14.94-63-3.67.87zm16.775 60.678h-21.15v3.772h21.15v-3.772zm-19.297 1.537l-2.07-10.98-3.706.698 2.07 10.98 3.706-.698zm-5.041-26.283l-3.06-16.11-3.705.704 3.06 16.11 3.705-.704zm-6.547-16.698l-9.27 16.11 3.269 1.88 9.27-16.11-3.269-1.88zm-7.635 18.936h12.33v-3.772h-12.33v3.772zM99.123 122.02v-1.886H97.57l-.298 1.525 1.851.361zm-1.44 7.38l-1.85-.361-.44 2.247h2.29V129.4zm26.64 0l1.849.37.451-2.256h-2.3v1.886zm-3.06 15.3v1.886h1.546l.303-1.516-1.849-.37zm-26.73 0v-1.886h-1.552l-.298 1.524 1.85.362zm-1.62 8.28l-1.85-.362-.44 2.248h2.29v-1.886zm31.59 0l1.848.374.457-2.26h-2.305v1.886zm-3.24 16.02v1.886h1.543l.305-1.512-1.848-.374zm-52.38 0l-1.849-.37-.451 2.256h2.3V169zm12.6-63v-1.886h-1.546l-.303 1.516 1.85.37zm51.21 0l1.848.374.457-2.26h-2.305V106zm-3.24 16.02v1.886h1.543l.305-1.512-1.848-.374zm-32.18-.361l-1.44 7.38 3.7.722 1.441-7.38-3.702-.722zm.41 9.627h26.64v-3.772h-26.64v3.772zm24.791-2.256l-3.06 15.3 3.698.74 3.06-15.3-3.698-.74zm-1.211 13.784h-26.73v3.772h26.73v-3.772zm-28.58 1.524l-1.62 8.28 3.7.724 1.62-8.28-3.7-.724zm.23 10.528h31.59v-3.772h-31.59v3.772zm29.742-2.26l-3.24 16.02 3.696.748 3.24-16.02-3.696-.748zm-1.392 14.508h-52.38v3.772h52.38v-3.772zm-50.53 2.256l12.6-63-3.699-.74-12.6 63 3.698.74zm10.75-61.484h51.21v-3.772h-51.21v3.772zm49.362-2.26l-3.24 16.02 3.696.748 3.24-16.02-3.696-.748zm-1.392 14.508h-30.33v3.772h30.33v-3.772zM208.481 106l1.6.997 1.796-2.883h-3.396V106zm-39.24 63v1.886h1.047l.553-.889-1.6-.997zm-20.88 0l-1.841.41.329 1.476h1.512V169zm-14.04-63v-1.886h-2.352l.511 2.296 1.841-.41zm21.78 0l1.844-.393-.318-1.493h-1.526V106zm7.83 36.72l-1.844.393.977 4.583 2.469-3.982-1.602-.994zm22.77-36.72v-1.886h-1.05l-.553.892 1.603.994zm20.179-.997l-39.24 63 3.201 1.994 39.24-63-3.201-1.994zm-37.639 62.111h-20.88v3.772h20.88v-3.772zm-19.04 1.476l-14.04-63-3.681.82 14.04 63 3.681-.82zm-15.88-60.704h21.78v-3.772h-21.78v3.772zm19.936-1.493l7.83 36.72 3.688-.786-7.83-36.72-3.688.786zm11.276 37.321l22.77-36.72-3.205-1.988-22.77 36.72 3.205 1.988zm21.168-35.828h21.78v-3.772h-21.78v3.772zm41.533 14.134v-1.886h-1.553l-.297 1.525 1.85.361zm-1.44 7.38l-1.85-.361-.439 2.247h2.289V129.4zm26.64 0l1.85.37.451-2.256h-2.301v1.886zm-3.06 15.3v1.886h1.546l.304-1.516-1.85-.37zm-26.73 0v-1.886h-1.552l-.298 1.524 1.85.362zm-1.62 8.28l-1.85-.362-.44 2.248h2.29v-1.886zm31.59 0l1.849.374.457-2.26h-2.306v1.886zm-3.24 16.02v1.886h1.543l.306-1.512-1.849-.374zm-52.38 0l-1.849-.37-.451 2.256h2.3V169zm12.6-63v-1.886h-1.545l-.304 1.516 1.849.37zm51.21 0l1.849.374.457-2.26h-2.306V106zm-3.24 16.02v1.886h1.543l.306-1.512-1.849-.374zm-32.18-.361l-1.44 7.38 3.701.722 1.44-7.38-3.701-.722zm.41 9.627h26.64v-3.772h-26.64v3.772zm24.791-2.256l-3.06 15.3 3.699.74 3.06-15.3-3.699-.74zm-1.211 13.784h-26.73v3.772h26.73v-3.772zm-28.58 1.524l-1.62 8.28 3.701.724 1.62-8.28-3.701-.724zm.23 10.528h31.59v-3.772h-31.59v3.772zm29.742-2.26l-3.24 16.02 3.697.748 3.24-16.02-3.697-.748zm-1.392 14.508h-52.38v3.772h52.38v-3.772zm-50.53 2.256l12.6-63-3.699-.74-12.6 63 3.699.74zm10.75-61.484h51.21v-3.772h-51.21v3.772zm49.362-2.26l-3.24 16.02 3.697.748 3.24-16.02-3.697-.748zm-1.392 14.508h-30.33v3.772h30.33v-3.772zm62.537 21.236l-1.534-1.096-.003.004 1.537 1.092zm-12.51 9.27l-.666-1.764-2.071.782 1.101 1.92 1.636-.938zm10.53 18.36v1.886h3.255l-1.619-2.824-1.636.938zm-22.05 0l-1.643.924.54.962h1.103V169zm-8.91-15.84l1.644-.924-.541-.962h-1.103v1.886zm-5.22 0v-1.886h-1.548l-.301 1.518 1.849.368zm-3.15 15.84v1.886h1.548l.302-1.518-1.85-.368zm-21.24 0l-1.849-.37-.451 2.256h2.3V169zm12.6-63v-1.886h-1.546l-.303 1.516 1.849.37zm47.52 5.49l-1.18 1.471.01.008.011.008 1.159-1.487zm-29.61 10.89v-1.886h-1.544l-.305 1.514 1.849.372zm-2.97 14.76l-1.849-.372-.454 2.258h2.303v-1.886zm15.57-2.16l1.253 1.409.014-.012.014-.013-1.281-1.384zm22.054-8.28c0 5.221-1.396 9.72-4.148 13.574l3.069 2.192c3.247-4.546 4.851-9.827 4.851-15.766h-3.772zm-4.151 13.578c-2.695 3.794-6.54 6.672-11.639 8.598l1.333 3.528c5.701-2.154 10.195-5.456 13.381-9.942l-3.075-2.184zm-12.609 11.3l10.53 18.36 3.272-1.876-10.53-18.36-3.272 1.876zm12.166 15.536h-22.05v3.772h22.05v-3.772zm-20.406.962l-8.91-15.84-3.287 1.848 8.91 15.84 3.287-1.848zm-10.554-16.802h-5.22v3.772h5.22v-3.772zm-7.069 1.518l-3.15 15.84 3.699.736 3.15-15.84-3.699-.736zm-1.301 14.322h-21.24v3.772h21.24v-3.772zM260.4 169.37l12.6-63-3.698-.74-12.6 63 3.698.74zm10.751-61.484h28.26v-3.772h-28.26v3.772zm28.26 0c8.026 0 13.969 1.775 18.08 5.075l2.36-2.942c-5.009-4.02-11.906-5.905-20.44-5.905v3.772zm18.101 5.091c4.104 3.198 6.203 7.687 6.203 13.723h3.772c0-7.044-2.521-12.695-7.657-16.697l-2.318 2.974zm-11.535 15.793c0-2.541-.807-4.748-2.682-6.26-1.797-1.45-4.28-2.016-7.124-2.016v3.772c2.436 0 3.913.499 4.756 1.179.766.618 1.278 1.606 1.278 3.325h3.772zm-9.806-8.276h-7.11v3.772h7.11v-3.772zm-8.959 1.514l-2.97 14.76 3.698.744 2.97-14.76-3.698-.744zm-1.121 17.018h8.73v-3.772h-8.73v3.772zm8.73 0c3.236 0 6.021-.795 8.093-2.637l-2.506-2.818c-1.168 1.038-2.943 1.683-5.587 1.683v3.772zm8.121-2.662c2.081-1.927 3.035-4.54 3.035-7.594h-3.772c0 2.226-.665 3.753-1.825 4.826l2.562 2.768zm68.57 21.656l1.853-.349-.29-1.537h-1.563v1.886zm-24.03 0v-1.886h-1.092l-.544.948 1.636.938zm-6.3 10.98v1.886h1.092l.543-.948-1.635-.938zm-22.41 0l-1.591-1.013-1.847 2.899h3.438V169zm40.14-63v-1.886h-1.035l-.556.873 1.591 1.013zm20.88 0l1.834-.435-.344-1.451h-1.49V106zm14.94 63v1.886h2.385l-.551-2.321-1.834.435zm-21.15 0l-1.853.349.289 1.537h1.564V169zm-5.04-26.28v1.886h2.277l-.425-2.238-1.852.352zm-3.06-16.11l1.852-.352-.949-4.998-2.538 4.41 1.635.94zm-9.27 16.11l-1.635-.94-1.626 2.826h3.261v-1.886zm15.3 13.414h-24.03v3.772h24.03v-3.772zm-25.666.948l-6.3 10.98 3.271 1.876 6.3-10.98-3.271-1.876zm-4.664 10.032h-22.41v3.772h22.41v-3.772zm-20.82 2.899l40.14-63-3.181-2.026-40.14 63 3.181 2.026zm38.55-62.127h20.88v-3.772h-20.88v3.772zm19.045-1.451l14.94 63 3.669-.87-14.94-63-3.669.87zm16.775 60.679h-21.15v3.772h21.15v-3.772zm-19.297 1.537l-2.07-10.98-3.706.698 2.07 10.98 3.706-.698zm-5.041-26.283l-3.06-16.11-3.705.704 3.06 16.11 3.705-.704zm-6.547-16.698l-9.27 16.11 3.269 1.88 9.27-16.11-3.269-1.88zm-7.635 18.936h12.33v-3.772h-12.33v3.772zM410.721 106v-1.886h-1.546l-.303 1.516 1.849.37zm45.54 3.24l-.773 1.72.008.003.765-1.723zm11.16 9.27l-1.587 1.019 1.587-1.019zm-1.17 33.39l1.606.988.005-.008-1.611-.98zm-14.04 12.69l.837 1.69.007-.003-.844-1.687zm-54.09 4.41l-1.849-.37-.451 2.256h2.3V169zm47.16-21.69l-1.416-1.245-.001.001 1.417 1.244zm1.17-21.78l-1.255 1.407.01.009.009.008 1.236-1.424zm-17.82-2.97v-1.886h-1.547l-.302 1.518 1.849.368zm-5.94 29.88l-1.849-.368-.448 2.254h2.297v-1.886zm-11.97-44.554h28.44v-3.772h-28.44v3.772zm28.44 0c6.399 0 11.823 1.047 16.327 3.074l1.547-3.44c-5.097-2.293-11.072-3.406-17.874-3.406v3.772zm16.335 3.077c4.562 2.028 7.98 4.89 10.338 8.566l3.174-2.038c-2.801-4.364-6.824-7.682-11.981-9.974l-1.531 3.446zm10.338 8.566c2.359 3.674 3.572 8.049 3.572 13.201h3.771c0-5.768-1.367-10.873-4.169-15.239l-3.174 2.038zm3.572 13.201c0 6.958-1.607 13-4.765 18.19l3.221 1.96c3.561-5.85 5.315-12.588 5.315-20.15h-3.771zm-4.761 18.182c-3.167 5.146-7.576 9.141-13.277 11.991l1.687 3.374c6.299-3.15 11.249-7.615 14.802-13.389l-3.212-1.976zm-13.27 11.988c-5.644 2.793-12.13 4.214-19.504 4.214v3.772c7.867 0 14.94-1.519 21.177-4.606l-1.673-3.38zm-19.504 4.214h-33.75v3.772h33.75v-3.772zm-31.901 2.256l12.6-63-3.698-.74-12.6 63 3.698.74zm32.621-15.044c5.885 0 10.678-1.863 14.108-5.772l-2.835-2.488c-2.571 2.931-6.237 4.488-11.273 4.488v3.772zm14.107-5.771c3.411-3.88 5.059-8.787 5.059-14.565h-3.771c0 5.022-1.412 8.995-4.121 12.075l2.833 2.49zm5.059-14.565c0-4.08-1.29-7.47-4.069-9.884l-2.473 2.848c1.781 1.546 2.771 3.796 2.771 7.036h3.771zm-4.05-9.867c-2.69-2.399-6.451-3.449-10.976-3.449v3.772c3.995 0 6.714.93 8.465 2.491l2.511-2.814zm-10.976-3.449h-8.1v3.772h8.1v-3.772zm-9.949 1.518l-5.94 29.88 3.699.736 5.94-29.88-3.699-.736zm-4.091 32.134h9.9v-3.772h-9.9v3.772z" fill="url(#paint0_linear)"/></g><g filter="url(#filter1_d)"><path d="M58.175 45.02v-1.886h-1.546l-.304 1.516 1.85.37zm-2.16 10.8l-1.85-.37-.45 2.256h2.3V55.82zm26.28 0l1.848.374.457-2.26h-2.305v1.886zm-3.24 16.02v1.886h1.542l.306-1.512-1.849-.374zm-26.19 0v-1.886H51.32l-.304 1.515 1.849.371zM48.815 92v1.886h1.544l.304-1.515L48.815 92zm-21.24 0l-1.85-.37-.45 2.256h2.3V92zm12.6-63v-1.886h-1.546l-.304 1.516 1.85.37zm51.21 0l1.848.374.457-2.26h-2.305V29zm-3.24 16.02v1.886h1.542l.306-1.512-1.849-.374zm-31.82-.37l-2.16 10.8 3.699.74 2.16-10.8-3.699-.74zm-.31 13.056h26.28v-3.772h-26.28v3.772zm24.431-2.26l-3.24 16.02 3.697.748 3.24-16.02-3.697-.748zm-1.391 14.508h-26.19v3.772h26.19v-3.772zm-28.04 1.515l-4.05 20.16 3.698.742 4.05-20.16-3.697-.742zm-2.2 18.645h-21.24v3.772h21.24v-3.772zM29.424 92.37l12.6-63-3.699-.74-12.6 63 3.699.74zm10.75-61.484h51.21v-3.772h-51.21v3.772zm49.362-2.26l-3.24 16.02 3.697.748 3.24-16.02-3.697-.748zm-1.392 14.508h-29.97v3.772h29.97v-3.772zm15.451 46.796l-.843 1.687.012.006.013.006.818-1.699zm-11.16-9.99l-1.613.977.005.008.005.008 1.603-.993zm1.17-34.2l-1.621-.963-.003.005 1.624.958zm14.13-13.41l-.876-1.67-.007.004.883 1.666zm37.35-1.17l-.843 1.687.012.006.013.006.818-1.699zm11.16 9.9l-1.613.977.005.008.005.008 1.603-.993zm-1.17 34.29l-1.621-.963-.003.005 1.624.958zm-14.13 13.32l-.876-1.67-.007.004.883 1.666zm-9.9-15.03l-1.071-1.552-.009.006-.009.007 1.089 1.539zm5.76-7.02l1.72.772-1.72-.772zm-1.35-18.54l-1.352 1.315.009.01.01.008 1.333-1.333zm-17.82-.72l-1.071-1.552-.009.006-.009.007 1.089 1.539zm-5.67 7.02l1.72.772-1.72-.772zm1.26 18.54l-1.352 1.315.009.01.01.008 1.333-1.333zm7.29 18.634c-6.19 0-11.541-1.127-16.102-3.323l-1.636 3.398c5.159 2.484 11.088 3.697 17.738 3.697v-3.772zm-16.077-3.31c-4.51-2.256-7.957-5.356-10.4-9.297l-3.206 1.986c2.837 4.578 6.83 8.139 11.92 10.684l1.686-3.374zm-10.39-9.28c-2.383-3.935-3.597-8.48-3.597-13.694h-3.772c0 5.826 1.366 11.061 4.143 15.647l3.226-1.954zM90.451 65.27c0-7.02 1.607-13.193 4.779-18.572l-3.25-1.916c-3.548 6.02-5.3 12.868-5.3 20.488h3.77zm4.775-18.567c3.241-5.458 7.694-9.687 13.392-12.707l-1.766-3.332c-6.302 3.34-11.27 8.051-14.868 14.113l3.242 1.926zM108.611 34c5.76-3.023 12.294-4.554 19.644-4.554v-3.772c-7.89 0-15.036 1.649-21.396 4.986l1.752 3.34zm19.644-4.554c6.184 0 11.495 1.155 15.987 3.4l1.686-3.373c-5.108-2.554-11.017-3.799-17.673-3.799v3.772zm16.012 3.413c4.559 2.195 7.99 5.257 10.365 9.178l3.226-1.954c-2.785-4.599-6.794-8.137-11.955-10.622l-1.636 3.398zm10.375 9.194c2.437 3.932 3.677 8.471 3.677 13.677h3.772c0-5.834-1.4-11.075-4.243-15.663l-3.206 1.986zm3.677 13.677c0 7.014-1.634 13.215-4.865 18.657l3.242 1.926c3.609-6.078 5.395-12.957 5.395-20.583h-3.772zm-4.868 18.662c-3.176 5.387-7.622 9.586-13.382 12.608l1.752 3.34c6.36-3.338 11.334-8.02 14.878-14.032l-3.248-1.916zm-13.389 12.612c-5.696 3.019-12.197 4.55-19.547 4.55v3.772c7.89 0 15.009-1.649 21.313-4.99l-1.766-3.332zm-17.747-8.868c3.703 0 7.004-.966 9.819-2.956l-2.178-3.08c-2.105 1.49-4.624 2.264-7.641 2.264v3.772zm9.801-2.944c2.819-1.946 4.956-4.563 6.409-7.8l-3.44-1.544c-1.187 2.643-2.89 4.706-5.111 6.24l2.142 3.104zm6.409-7.8c1.438-3.201 2.146-6.677 2.146-10.402h-3.772c0 3.235-.612 6.18-1.814 8.858l3.44 1.544zm2.146-10.402c0-4.12-1.244-7.605-3.883-10.243l-2.666 2.666c1.801 1.802 2.777 4.258 2.777 7.577h3.772zm-3.864-10.225c-2.597-2.669-6.133-3.9-10.352-3.9v3.77c3.461 0 5.925.989 7.648 2.76l2.704-2.63zm-10.352-3.9c-3.704 0-7.026.965-9.891 2.943l2.142 3.104c2.175-1.502 4.733-2.276 7.749-2.276v-3.772zm-9.909 2.956c-2.754 1.948-4.853 4.561-6.301 7.787l3.44 1.544c1.192-2.654 2.873-4.72 5.039-6.252l-2.178-3.08zm-6.301 7.787c-1.438 3.201-2.146 6.677-2.146 10.402h3.772c0-3.235.612-6.18 1.814-8.858l-3.44-1.544zm-2.146 10.402c0 4.106 1.205 7.584 3.774 10.225l2.704-2.63c-1.751-1.8-2.706-4.261-2.706-7.595h-3.772zm3.793 10.243c2.649 2.65 6.202 3.883 10.423 3.883v-3.772c-3.459 0-5.966-.987-7.757-2.777l-2.666 2.666zm112.002-9.883l-1.534-1.096-.003.004 1.537 1.092zm-12.51 9.27l-.666-1.764-2.071.782 1.101 1.92 1.636-.938zM221.914 92v1.886h3.255l-1.619-2.824-1.636.938zm-22.05 0l-1.643.924.54.962h1.103V92zm-8.91-15.84l1.644-.924-.541-.962h-1.103v1.886zm-5.22 0v-1.886h-1.548l-.301 1.518 1.849.368zM182.584 92v1.886h1.548l.302-1.518-1.85-.368zm-21.24 0l-1.849-.37-.451 2.256h2.3V92zm12.6-63v-1.886h-1.546l-.303 1.516 1.849.37zm47.52 5.49l-1.18 1.47.01.01.011.007 1.159-1.487zm-29.61 10.89v-1.886h-1.544l-.305 1.514 1.849.372zm-2.97 14.76l-1.849-.372-.454 2.258h2.303V60.14zm15.57-2.16l1.253 1.41.014-.013.014-.013-1.281-1.384zm22.054-8.28c0 5.22-1.396 9.72-4.148 13.574l3.069 2.192c3.247-4.546 4.851-9.827 4.851-15.766h-3.772zm-4.151 13.578c-2.695 3.794-6.541 6.672-11.639 8.598l1.332 3.528c5.702-2.154 10.196-5.456 13.382-9.942l-3.075-2.184zm-12.609 11.3l10.53 18.36 3.272-1.876-10.53-18.36-3.272 1.876zm12.166 15.536h-22.05v3.772h22.05v-3.772zm-20.406.962l-8.91-15.84-3.287 1.849 8.91 15.84 3.287-1.85zm-10.554-16.802h-5.22v3.772h5.22v-3.772zm-7.069 1.518l-3.15 15.84 3.699.736 3.15-15.84-3.699-.736zm-1.301 14.322h-21.24v3.772h21.24v-3.772zm-19.391 2.256l12.6-63-3.698-.74-12.6 63 3.698.74zm10.751-61.484h28.26v-3.772h-28.26v3.772zm28.26 0c8.026 0 13.969 1.775 18.08 5.075l2.36-2.942c-5.009-4.02-11.906-5.905-20.44-5.905v3.772zm18.101 5.091c4.104 3.198 6.203 7.687 6.203 13.723h3.772c0-7.044-2.521-12.695-7.657-16.698l-2.318 2.975zM208.77 51.77c0-2.54-.807-4.748-2.682-6.26-1.797-1.45-4.28-2.016-7.124-2.016v3.772c2.436 0 3.913.499 4.756 1.18.766.617 1.278 1.605 1.278 3.324h3.772zm-9.806-8.276h-7.11v3.772h7.11v-3.772zm-8.959 1.514l-2.97 14.76 3.698.744 2.97-14.76-3.698-.744zm-1.121 17.018h8.73v-3.772h-8.73v3.772zm8.73 0c3.236 0 6.021-.795 8.093-2.637l-2.506-2.818c-1.168 1.038-2.943 1.683-5.587 1.683v3.772zm8.121-2.662c2.081-1.927 3.035-4.54 3.035-7.594h-3.772c0 2.226-.665 3.752-1.825 4.826l2.562 2.768zM316.425 29l1.85.365.443-2.25h-2.293V29zm-12.42 63v1.886h1.55l.3-1.521-1.85-.365zm-19.35 0l-1.851-.36-.437 2.246h2.288V92zm5.58-28.71l1.851.36-3.346-1.51 1.495 1.15zm-17.73 23.04v1.886h.928l.566-.736-1.494-1.15zm-9.36 0l-1.734.743.49 1.143h1.244V86.33zm-9.72-22.68l1.733-.743-2.392-5.58-1.19 5.953 1.849.37zM247.755 92v1.886h1.546l.303-1.516-1.849-.37zm-19.35 0l-1.849-.37-.452 2.256h2.301V92zm12.6-63v-1.886h-1.546l-.303 1.516 1.849.37zm17.28 0l1.745-.713-.479-1.173h-1.266V29zm13.68 33.48l-1.746.713 1.224 2.996 2.003-2.542-1.481-1.167zM298.335 29v-1.886h-.916l-.566.72L298.335 29zm16.239-.365l-12.419 63 3.7.73 12.42-63-3.701-.73zm-10.569 61.48h-19.35v3.77h19.35v-3.77zm-17.499 2.245l5.58-28.71-3.702-.72-5.58 28.71 3.702.72zm2.234-30.22l-17.73 23.04 2.989 2.3 17.73-23.04-2.989-2.3zm-16.235 22.304h-9.36v3.772h9.36v-3.772zm-7.627 1.143l-9.72-22.68-3.467 1.486 9.72 22.68 3.467-1.486zM251.576 63.28l-5.67 28.35 3.698.74 5.67-28.35-3.698-.74zm-3.821 26.834h-19.35v3.772h19.35v-3.772zm-17.501 2.256l12.6-63-3.698-.74-12.6 63 3.698.74zm10.751-61.484h17.28v-3.772h-17.28v3.772zm15.534-1.173l13.68 33.48 3.491-1.426-13.68-33.48-3.491 1.426zm16.907 33.934l26.37-33.48-2.963-2.334-26.37 33.48 2.963 2.334zm24.889-32.761h18.09v-3.772h-18.09v3.772zm33.039 59.764l-.803 1.706.015.007.015.007.773-1.72zm-9.45-8.1l-1.602.995.006.01.006.01 1.59-1.015zm-2.52-18.9l-1.849-.37-.002.009-.002.008 1.853.353zm6.93-34.65v-1.886h-1.546l-.303 1.516 1.849.37zm21.24 0l1.849.369.45-2.255h-2.299V29zm-6.84 34.29l1.844.395.002-.013.003-.013-1.849-.369zm1.62 10.89l-1.305 1.361 1.305-1.361zm13.59-.9l1.416 1.245-1.416-1.245zm4.05-9.99l1.847.379.002-.01-1.849-.369zm6.84-34.29v-1.886h-1.547l-.303 1.517 1.85.369zm20.88 0l1.849.37.451-2.256h-2.3V29zm-7.11 35.55l1.848.372.001-.002-1.849-.37zm-11.52 21.6l-1.216-1.441 1.216 1.441zm-23.04 5.404c-5.437 0-10.052-.896-13.897-2.624l-1.546 3.44c4.434 1.992 9.599 2.956 15.443 2.956v-3.772zm-13.867-2.61c-3.789-1.783-6.653-4.256-8.663-7.408l-3.18 2.028c2.429 3.808 5.865 6.735 10.237 8.792l1.606-3.412zm-8.651-7.389c-1.949-3.14-2.957-6.865-2.957-11.245h-3.771c0 4.98 1.153 9.415 3.524 13.234l3.204-1.989zm-2.957-11.245c0-1.77.222-3.867.687-6.307l-3.705-.706c-.495 2.6-.753 4.943-.753 7.013h3.771zm.684-6.29l6.93-34.65-3.698-.74-6.93 34.65 3.698.74zm5.081-33.134h21.24v-3.772h-21.24v3.772zm19.39-2.255l-6.84 34.29 3.699.738 6.84-34.29-3.699-.738zm-6.834 34.264c-.381 1.78-.582 3.445-.582 4.985h3.771c0-1.22.16-2.615.499-4.195l-3.688-.79zm-.582 4.985c0 3.118.798 5.8 2.741 7.662l2.609-2.724c-.937-.898-1.579-2.415-1.579-4.938h-3.771zm2.741 7.662c1.907 1.827 4.548 2.594 7.605 2.594v-3.772c-2.463 0-4.023-.613-4.996-1.546l-2.609 2.724zm7.605 2.594c3.553 0 6.542-1.148 8.706-3.611l-2.833-2.49c-1.315 1.497-3.186 2.33-5.873 2.33v3.77zm8.706-3.611c2.069-2.354 3.501-6.078 4.481-10.856l-3.694-.758c-.94 4.582-2.208 7.518-3.62 9.124l2.833 2.49zm4.483-10.866l6.84-34.29-3.699-.738-6.84 34.29 3.699.738zm4.991-32.773h20.88v-3.772h-20.88v3.772zm19.031-2.256l-7.11 35.55 3.698.74 7.11-35.55-3.698-.74zm-7.11 35.548c-1.861 9.245-5.537 16.017-10.887 20.53l2.432 2.883c6.17-5.206 10.173-12.834 12.152-22.669l-3.697-.744zm-10.887 20.53c-5.336 4.502-12.545 6.846-21.824 6.846v3.772c9.92 0 18.071-2.516 24.256-7.735l-2.432-2.882zM397.45 29v-1.886h-1.546l-.303 1.516 1.849.37zm21.24 0l1.849.368.449-2.254h-2.298V29zm-9.27 46.53l-1.849-.368-.45 2.254h2.299V75.53zm28.44 0l1.848.374.457-2.26h-2.305v1.886zM434.53 92v1.886h1.543l.305-1.512L434.53 92zm-49.68 0l-1.849-.37-.451 2.256h2.3V92zm12.6-61.114h21.24v-3.772h-21.24v3.772zm19.391-2.254l-9.27 46.53 3.698.736 9.27-46.53-3.698-.736zm-7.421 48.784h28.44v-3.772h-28.44v3.772zm26.592-2.26l-3.33 16.47 3.696.748 3.33-16.47-3.696-.748zm-1.482 14.958h-49.68v3.772h49.68v-3.772zm-47.831 2.256l12.6-63-3.698-.74-12.6 63 3.698.74zm100.477-11.35l1.853-.35-.29-1.536h-1.563v1.886zm-24.03 0v-1.886h-1.092l-.544.948 1.636.938zm-6.3 10.98v1.886h1.092l.543-.947-1.635-.939zm-22.41 0l-1.591-1.013-1.847 2.899h3.438V92zm40.14-63v-1.886h-1.035l-.556.873L474.576 29zm20.88 0l1.835-.435-.344-1.45h-1.491V29zm14.94 63v1.886h2.385l-.55-2.321-1.835.435zm-21.15 0l-1.853.35.289 1.536h1.564V92zm-5.04-26.28v1.886h2.277l-.425-2.238-1.852.352zm-3.06-16.11l1.852-.352-.949-4.998-2.538 4.41 1.635.94zm-9.27 16.11l-1.635-.94-1.626 2.826h3.261V65.72zm15.3 13.414h-24.03v3.772h24.03v-3.772zm-25.666.948l-6.3 10.98 3.271 1.877 6.3-10.98-3.271-1.877zm-4.664 10.032h-22.41v3.772h22.41v-3.772zm-20.82 2.9l40.14-63-3.181-2.027-40.14 63 3.181 2.026zm38.55-62.128h20.88v-3.772h-20.88v3.772zm19.045-1.45l14.94 63 3.67-.871-14.94-63-3.67.87zm16.775 60.678h-21.15v3.772h21.15v-3.772zm-19.297 1.537l-2.07-10.98-3.706.698 2.07 10.98 3.706-.698zm-5.041-26.283l-3.06-16.11-3.705.704 3.06 16.11 3.705-.704zm-6.547-16.698l-9.27 16.11 3.269 1.88 9.27-16.11-3.269-1.88zm-7.635 18.936h12.33v-3.772h-12.33v3.772zM99.123 122.02v-1.886H97.57l-.298 1.525 1.851.361zm-1.44 7.38l-1.85-.361-.44 2.247h2.29V129.4zm26.64 0l1.849.37.451-2.256h-2.3v1.886zm-3.06 15.3v1.886h1.546l.303-1.516-1.849-.37zm-26.73 0v-1.886h-1.552l-.298 1.524 1.85.362zm-1.62 8.28l-1.85-.362-.44 2.248h2.29v-1.886zm31.59 0l1.848.374.457-2.26h-2.305v1.886zm-3.24 16.02v1.886h1.543l.305-1.512-1.848-.374zm-52.38 0l-1.849-.37-.451 2.256h2.3V169zm12.6-63v-1.886h-1.546l-.303 1.516 1.85.37zm51.21 0l1.848.374.457-2.26h-2.305V106zm-3.24 16.02v1.886h1.543l.305-1.512-1.848-.374zm-32.18-.361l-1.44 7.38 3.7.722 1.441-7.38-3.702-.722zm.41 9.627h26.64v-3.772h-26.64v3.772zm24.791-2.256l-3.06 15.3 3.698.74 3.06-15.3-3.698-.74zm-1.211 13.784h-26.73v3.772h26.73v-3.772zm-28.58 1.524l-1.62 8.28 3.7.724 1.62-8.28-3.7-.724zm.23 10.528h31.59v-3.772h-31.59v3.772zm29.742-2.26l-3.24 16.02 3.696.748 3.24-16.02-3.696-.748zm-1.392 14.508h-52.38v3.772h52.38v-3.772zm-50.53 2.256l12.6-63-3.699-.74-12.6 63 3.698.74zm10.75-61.484h51.21v-3.772h-51.21v3.772zm49.362-2.26l-3.24 16.02 3.696.748 3.24-16.02-3.696-.748zm-1.392 14.508h-30.33v3.772h30.33v-3.772zM208.481 106l1.6.997 1.796-2.883h-3.396V106zm-39.24 63v1.886h1.047l.553-.889-1.6-.997zm-20.88 0l-1.841.41.329 1.476h1.512V169zm-14.04-63v-1.886h-2.352l.511 2.296 1.841-.41zm21.78 0l1.844-.393-.318-1.493h-1.526V106zm7.83 36.72l-1.844.393.977 4.583 2.469-3.982-1.602-.994zm22.77-36.72v-1.886h-1.05l-.553.892 1.603.994zm20.179-.997l-39.24 63 3.201 1.994 39.24-63-3.201-1.994zm-37.639 62.111h-20.88v3.772h20.88v-3.772zm-19.04 1.476l-14.04-63-3.681.82 14.04 63 3.681-.82zm-15.88-60.704h21.78v-3.772h-21.78v3.772zm19.936-1.493l7.83 36.72 3.688-.786-7.83-36.72-3.688.786zm11.276 37.321l22.77-36.72-3.205-1.988-22.77 36.72 3.205 1.988zm21.168-35.828h21.78v-3.772h-21.78v3.772zm41.533 14.134v-1.886h-1.553l-.297 1.525 1.85.361zm-1.44 7.38l-1.85-.361-.439 2.247h2.289V129.4zm26.64 0l1.85.37.451-2.256h-2.301v1.886zm-3.06 15.3v1.886h1.546l.304-1.516-1.85-.37zm-26.73 0v-1.886h-1.552l-.298 1.524 1.85.362zm-1.62 8.28l-1.85-.362-.44 2.248h2.29v-1.886zm31.59 0l1.849.374.457-2.26h-2.306v1.886zm-3.24 16.02v1.886h1.543l.306-1.512-1.849-.374zm-52.38 0l-1.849-.37-.451 2.256h2.3V169zm12.6-63v-1.886h-1.545l-.304 1.516 1.849.37zm51.21 0l1.849.374.457-2.26h-2.306V106zm-3.24 16.02v1.886h1.543l.306-1.512-1.849-.374zm-32.18-.361l-1.44 7.38 3.701.722 1.44-7.38-3.701-.722zm.41 9.627h26.64v-3.772h-26.64v3.772zm24.791-2.256l-3.06 15.3 3.699.74 3.06-15.3-3.699-.74zm-1.211 13.784h-26.73v3.772h26.73v-3.772zm-28.58 1.524l-1.62 8.28 3.701.724 1.62-8.28-3.701-.724zm.23 10.528h31.59v-3.772h-31.59v3.772zm29.742-2.26l-3.24 16.02 3.697.748 3.24-16.02-3.697-.748zm-1.392 14.508h-52.38v3.772h52.38v-3.772zm-50.53 2.256l12.6-63-3.699-.74-12.6 63 3.699.74zm10.75-61.484h51.21v-3.772h-51.21v3.772zm49.362-2.26l-3.24 16.02 3.697.748 3.24-16.02-3.697-.748zm-1.392 14.508h-30.33v3.772h30.33v-3.772zm62.537 21.236l-1.534-1.096-.003.004 1.537 1.092zm-12.51 9.27l-.666-1.764-2.071.782 1.101 1.92 1.636-.938zm10.53 18.36v1.886h3.255l-1.619-2.824-1.636.938zm-22.05 0l-1.643.924.54.962h1.103V169zm-8.91-15.84l1.644-.924-.541-.962h-1.103v1.886zm-5.22 0v-1.886h-1.548l-.301 1.518 1.849.368zm-3.15 15.84v1.886h1.548l.302-1.518-1.85-.368zm-21.24 0l-1.849-.37-.451 2.256h2.3V169zm12.6-63v-1.886h-1.546l-.303 1.516 1.849.37zm47.52 5.49l-1.18 1.471.01.008.011.008 1.159-1.487zm-29.61 10.89v-1.886h-1.544l-.305 1.514 1.849.372zm-2.97 14.76l-1.849-.372-.454 2.258h2.303v-1.886zm15.57-2.16l1.253 1.409.014-.012.014-.013-1.281-1.384zm22.054-8.28c0 5.221-1.396 9.72-4.148 13.574l3.069 2.192c3.247-4.546 4.851-9.827 4.851-15.766h-3.772zm-4.151 13.578c-2.695 3.794-6.54 6.672-11.639 8.598l1.333 3.528c5.701-2.154 10.195-5.456 13.381-9.942l-3.075-2.184zm-12.609 11.3l10.53 18.36 3.272-1.876-10.53-18.36-3.272 1.876zm12.166 15.536h-22.05v3.772h22.05v-3.772zm-20.406.962l-8.91-15.84-3.287 1.848 8.91 15.84 3.287-1.848zm-10.554-16.802h-5.22v3.772h5.22v-3.772zm-7.069 1.518l-3.15 15.84 3.699.736 3.15-15.84-3.699-.736zm-1.301 14.322h-21.24v3.772h21.24v-3.772zM260.4 169.37l12.6-63-3.698-.74-12.6 63 3.698.74zm10.751-61.484h28.26v-3.772h-28.26v3.772zm28.26 0c8.026 0 13.969 1.775 18.08 5.075l2.36-2.942c-5.009-4.02-11.906-5.905-20.44-5.905v3.772zm18.101 5.091c4.104 3.198 6.203 7.687 6.203 13.723h3.772c0-7.044-2.521-12.695-7.657-16.697l-2.318 2.974zm-11.535 15.793c0-2.541-.807-4.748-2.682-6.26-1.797-1.45-4.28-2.016-7.124-2.016v3.772c2.436 0 3.913.499 4.756 1.179.766.618 1.278 1.606 1.278 3.325h3.772zm-9.806-8.276h-7.11v3.772h7.11v-3.772zm-8.959 1.514l-2.97 14.76 3.698.744 2.97-14.76-3.698-.744zm-1.121 17.018h8.73v-3.772h-8.73v3.772zm8.73 0c3.236 0 6.021-.795 8.093-2.637l-2.506-2.818c-1.168 1.038-2.943 1.683-5.587 1.683v3.772zm8.121-2.662c2.081-1.927 3.035-4.54 3.035-7.594h-3.772c0 2.226-.665 3.753-1.825 4.826l2.562 2.768zm68.57 21.656l1.853-.349-.29-1.537h-1.563v1.886zm-24.03 0v-1.886h-1.092l-.544.948 1.636.938zm-6.3 10.98v1.886h1.092l.543-.948-1.635-.938zm-22.41 0l-1.591-1.013-1.847 2.899h3.438V169zm40.14-63v-1.886h-1.035l-.556.873 1.591 1.013zm20.88 0l1.834-.435-.344-1.451h-1.49V106zm14.94 63v1.886h2.385l-.551-2.321-1.834.435zm-21.15 0l-1.853.349.289 1.537h1.564V169zm-5.04-26.28v1.886h2.277l-.425-2.238-1.852.352zm-3.06-16.11l1.852-.352-.949-4.998-2.538 4.41 1.635.94zm-9.27 16.11l-1.635-.94-1.626 2.826h3.261v-1.886zm15.3 13.414h-24.03v3.772h24.03v-3.772zm-25.666.948l-6.3 10.98 3.271 1.876 6.3-10.98-3.271-1.876zm-4.664 10.032h-22.41v3.772h22.41v-3.772zm-20.82 2.899l40.14-63-3.181-2.026-40.14 63 3.181 2.026zm38.55-62.127h20.88v-3.772h-20.88v3.772zm19.045-1.451l14.94 63 3.669-.87-14.94-63-3.669.87zm16.775 60.679h-21.15v3.772h21.15v-3.772zm-19.297 1.537l-2.07-10.98-3.706.698 2.07 10.98 3.706-.698zm-5.041-26.283l-3.06-16.11-3.705.704 3.06 16.11 3.705-.704zm-6.547-16.698l-9.27 16.11 3.269 1.88 9.27-16.11-3.269-1.88zm-7.635 18.936h12.33v-3.772h-12.33v3.772zM410.721 106v-1.886h-1.546l-.303 1.516 1.849.37zm45.54 3.24l-.773 1.72.008.003.765-1.723zm11.16 9.27l-1.587 1.019 1.587-1.019zm-1.17 33.39l1.606.988.005-.008-1.611-.98zm-14.04 12.69l.837 1.69.007-.003-.844-1.687zm-54.09 4.41l-1.849-.37-.451 2.256h2.3V169zm47.16-21.69l-1.416-1.245-.001.001 1.417 1.244zm1.17-21.78l-1.255 1.407.01.009.009.008 1.236-1.424zm-17.82-2.97v-1.886h-1.547l-.302 1.518 1.849.368zm-5.94 29.88l-1.849-.368-.448 2.254h2.297v-1.886zm-11.97-44.554h28.44v-3.772h-28.44v3.772zm28.44 0c6.399 0 11.823 1.047 16.327 3.074l1.547-3.44c-5.097-2.293-11.072-3.406-17.874-3.406v3.772zm16.335 3.077c4.562 2.028 7.98 4.89 10.338 8.566l3.174-2.038c-2.801-4.364-6.824-7.682-11.981-9.974l-1.531 3.446zm10.338 8.566c2.359 3.674 3.572 8.049 3.572 13.201h3.771c0-5.768-1.367-10.873-4.169-15.239l-3.174 2.038zm3.572 13.201c0 6.958-1.607 13-4.765 18.19l3.221 1.96c3.561-5.85 5.315-12.588 5.315-20.15h-3.771zm-4.761 18.182c-3.167 5.146-7.576 9.141-13.277 11.991l1.687 3.374c6.299-3.15 11.249-7.615 14.802-13.389l-3.212-1.976zm-13.27 11.988c-5.644 2.793-12.13 4.214-19.504 4.214v3.772c7.867 0 14.94-1.519 21.177-4.606l-1.673-3.38zm-19.504 4.214h-33.75v3.772h33.75v-3.772zm-31.901 2.256l12.6-63-3.698-.74-12.6 63 3.698.74zm32.621-15.044c5.885 0 10.678-1.863 14.108-5.772l-2.835-2.488c-2.571 2.931-6.237 4.488-11.273 4.488v3.772zm14.107-5.771c3.411-3.88 5.059-8.787 5.059-14.565h-3.771c0 5.022-1.412 8.995-4.121 12.075l2.833 2.49zm5.059-14.565c0-4.08-1.29-7.47-4.069-9.884l-2.473 2.848c1.781 1.546 2.771 3.796 2.771 7.036h3.771zm-4.05-9.867c-2.69-2.399-6.451-3.449-10.976-3.449v3.772c3.995 0 6.714.93 8.465 2.491l2.511-2.814zm-10.976-3.449h-8.1v3.772h8.1v-3.772zm-9.949 1.518l-5.94 29.88 3.699.736 5.94-29.88-3.699-.736zm-4.091 32.134h9.9v-3.772h-9.9v3.772z" fill="url(#paint1_linear)"/><path d="M58.175 45.02v-1.886h-1.546l-.304 1.516 1.85.37zm-2.16 10.8l-1.85-.37-.45 2.256h2.3V55.82zm26.28 0l1.848.374.457-2.26h-2.305v1.886zm-3.24 16.02v1.886h1.542l.306-1.512-1.849-.374zm-26.19 0v-1.886H51.32l-.304 1.515 1.849.371zM48.815 92v1.886h1.544l.304-1.515L48.815 92zm-21.24 0l-1.85-.37-.45 2.256h2.3V92zm12.6-63v-1.886h-1.546l-.304 1.516 1.85.37zm51.21 0l1.848.374.457-2.26h-2.305V29zm-3.24 16.02v1.886h1.542l.306-1.512-1.849-.374zm-31.82-.37l-2.16 10.8 3.699.74 2.16-10.8-3.699-.74zm-.31 13.056h26.28v-3.772h-26.28v3.772zm24.431-2.26l-3.24 16.02 3.697.748 3.24-16.02-3.697-.748zm-1.391 14.508h-26.19v3.772h26.19v-3.772zm-28.04 1.515l-4.05 20.16 3.698.742 4.05-20.16-3.697-.742zm-2.2 18.645h-21.24v3.772h21.24v-3.772zM29.424 92.37l12.6-63-3.699-.74-12.6 63 3.699.74zm10.75-61.484h51.21v-3.772h-51.21v3.772zm49.362-2.26l-3.24 16.02 3.697.748 3.24-16.02-3.697-.748zm-1.392 14.508h-29.97v3.772h29.97v-3.772zm15.451 46.796l-.843 1.687.012.006.013.006.818-1.699zm-11.16-9.99l-1.613.977.005.008.005.008 1.603-.993zm1.17-34.2l-1.621-.963-.003.005 1.624.958zm14.13-13.41l-.876-1.67-.007.004.883 1.666zm37.35-1.17l-.843 1.687.012.006.013.006.818-1.699zm11.16 9.9l-1.613.977.005.008.005.008 1.603-.993zm-1.17 34.29l-1.621-.963-.003.005 1.624.958zm-14.13 13.32l-.876-1.67-.007.004.883 1.666zm-9.9-15.03l-1.071-1.552-.009.006-.009.007 1.089 1.539zm5.76-7.02l1.72.772-1.72-.772zm-1.35-18.54l-1.352 1.315.009.01.01.008 1.333-1.333zm-17.82-.72l-1.071-1.552-.009.006-.009.007 1.089 1.539zm-5.67 7.02l1.72.772-1.72-.772zm1.26 18.54l-1.352 1.315.009.01.01.008 1.333-1.333zm7.29 18.634c-6.19 0-11.541-1.127-16.102-3.323l-1.636 3.398c5.159 2.484 11.088 3.697 17.738 3.697v-3.772zm-16.077-3.31c-4.51-2.256-7.957-5.356-10.4-9.297l-3.206 1.986c2.837 4.578 6.83 8.139 11.92 10.684l1.686-3.374zm-10.39-9.28c-2.383-3.935-3.597-8.48-3.597-13.694h-3.772c0 5.826 1.366 11.061 4.143 15.647l3.226-1.954zM90.451 65.27c0-7.02 1.607-13.193 4.779-18.572l-3.25-1.916c-3.548 6.02-5.3 12.868-5.3 20.488h3.77zm4.775-18.567c3.241-5.458 7.694-9.687 13.392-12.707l-1.766-3.332c-6.302 3.34-11.27 8.051-14.868 14.113l3.242 1.926zM108.611 34c5.76-3.023 12.294-4.554 19.644-4.554v-3.772c-7.89 0-15.036 1.649-21.396 4.986l1.752 3.34zm19.644-4.554c6.184 0 11.495 1.155 15.987 3.4l1.686-3.373c-5.108-2.554-11.017-3.799-17.673-3.799v3.772zm16.012 3.413c4.559 2.195 7.99 5.257 10.365 9.178l3.226-1.954c-2.785-4.599-6.794-8.137-11.955-10.622l-1.636 3.398zm10.375 9.194c2.437 3.932 3.677 8.471 3.677 13.677h3.772c0-5.834-1.4-11.075-4.243-15.663l-3.206 1.986zm3.677 13.677c0 7.014-1.634 13.215-4.865 18.657l3.242 1.926c3.609-6.078 5.395-12.957 5.395-20.583h-3.772zm-4.868 18.662c-3.176 5.387-7.622 9.586-13.382 12.608l1.752 3.34c6.36-3.338 11.334-8.02 14.878-14.032l-3.248-1.916zm-13.389 12.612c-5.696 3.019-12.197 4.55-19.547 4.55v3.772c7.89 0 15.009-1.649 21.313-4.99l-1.766-3.332zm-17.747-8.868c3.703 0 7.004-.966 9.819-2.956l-2.178-3.08c-2.105 1.49-4.624 2.264-7.641 2.264v3.772zm9.801-2.944c2.819-1.946 4.956-4.563 6.409-7.8l-3.44-1.544c-1.187 2.643-2.89 4.706-5.111 6.24l2.142 3.104zm6.409-7.8c1.438-3.201 2.146-6.677 2.146-10.402h-3.772c0 3.235-.612 6.18-1.814 8.858l3.44 1.544zm2.146-10.402c0-4.12-1.244-7.605-3.883-10.243l-2.666 2.666c1.801 1.802 2.777 4.258 2.777 7.577h3.772zm-3.864-10.225c-2.597-2.669-6.133-3.9-10.352-3.9v3.77c3.461 0 5.925.989 7.648 2.76l2.704-2.63zm-10.352-3.9c-3.704 0-7.026.965-9.891 2.943l2.142 3.104c2.175-1.502 4.733-2.276 7.749-2.276v-3.772zm-9.909 2.956c-2.754 1.948-4.853 4.561-6.301 7.787l3.44 1.544c1.192-2.654 2.873-4.72 5.039-6.252l-2.178-3.08zm-6.301 7.787c-1.438 3.201-2.146 6.677-2.146 10.402h3.772c0-3.235.612-6.18 1.814-8.858l-3.44-1.544zm-2.146 10.402c0 4.106 1.205 7.584 3.774 10.225l2.704-2.63c-1.751-1.8-2.706-4.261-2.706-7.595h-3.772zm3.793 10.243c2.649 2.65 6.202 3.883 10.423 3.883v-3.772c-3.459 0-5.966-.987-7.757-2.777l-2.666 2.666zm112.002-9.883l-1.534-1.096-.003.004 1.537 1.092zm-12.51 9.27l-.666-1.764-2.071.782 1.101 1.92 1.636-.938zM221.914 92v1.886h3.255l-1.619-2.824-1.636.938zm-22.05 0l-1.643.924.54.962h1.103V92zm-8.91-15.84l1.644-.924-.541-.962h-1.103v1.886zm-5.22 0v-1.886h-1.548l-.301 1.518 1.849.368zM182.584 92v1.886h1.548l.302-1.518-1.85-.368zm-21.24 0l-1.849-.37-.451 2.256h2.3V92zm12.6-63v-1.886h-1.546l-.303 1.516 1.849.37zm47.52 5.49l-1.18 1.47.01.01.011.007 1.159-1.487zm-29.61 10.89v-1.886h-1.544l-.305 1.514 1.849.372zm-2.97 14.76l-1.849-.372-.454 2.258h2.303V60.14zm15.57-2.16l1.253 1.41.014-.013.014-.013-1.281-1.384zm22.054-8.28c0 5.22-1.396 9.72-4.148 13.574l3.069 2.192c3.247-4.546 4.851-9.827 4.851-15.766h-3.772zm-4.151 13.578c-2.695 3.794-6.541 6.672-11.639 8.598l1.332 3.528c5.702-2.154 10.196-5.456 13.382-9.942l-3.075-2.184zm-12.609 11.3l10.53 18.36 3.272-1.876-10.53-18.36-3.272 1.876zm12.166 15.536h-22.05v3.772h22.05v-3.772zm-20.406.962l-8.91-15.84-3.287 1.849 8.91 15.84 3.287-1.85zm-10.554-16.802h-5.22v3.772h5.22v-3.772zm-7.069 1.518l-3.15 15.84 3.699.736 3.15-15.84-3.699-.736zm-1.301 14.322h-21.24v3.772h21.24v-3.772zm-19.391 2.256l12.6-63-3.698-.74-12.6 63 3.698.74zm10.751-61.484h28.26v-3.772h-28.26v3.772zm28.26 0c8.026 0 13.969 1.775 18.08 5.075l2.36-2.942c-5.009-4.02-11.906-5.905-20.44-5.905v3.772zm18.101 5.091c4.104 3.198 6.203 7.687 6.203 13.723h3.772c0-7.044-2.521-12.695-7.657-16.698l-2.318 2.975zM208.77 51.77c0-2.54-.807-4.748-2.682-6.26-1.797-1.45-4.28-2.016-7.124-2.016v3.772c2.436 0 3.913.499 4.756 1.18.766.617 1.278 1.605 1.278 3.324h3.772zm-9.806-8.276h-7.11v3.772h7.11v-3.772zm-8.959 1.514l-2.97 14.76 3.698.744 2.97-14.76-3.698-.744zm-1.121 17.018h8.73v-3.772h-8.73v3.772zm8.73 0c3.236 0 6.021-.795 8.093-2.637l-2.506-2.818c-1.168 1.038-2.943 1.683-5.587 1.683v3.772zm8.121-2.662c2.081-1.927 3.035-4.54 3.035-7.594h-3.772c0 2.226-.665 3.752-1.825 4.826l2.562 2.768zM316.425 29l1.85.365.443-2.25h-2.293V29zm-12.42 63v1.886h1.55l.3-1.521-1.85-.365zm-19.35 0l-1.851-.36-.437 2.246h2.288V92zm5.58-28.71l1.851.36-3.346-1.51 1.495 1.15zm-17.73 23.04v1.886h.928l.566-.736-1.494-1.15zm-9.36 0l-1.734.743.49 1.143h1.244V86.33zm-9.72-22.68l1.733-.743-2.392-5.58-1.19 5.953 1.849.37zM247.755 92v1.886h1.546l.303-1.516-1.849-.37zm-19.35 0l-1.849-.37-.452 2.256h2.301V92zm12.6-63v-1.886h-1.546l-.303 1.516 1.849.37zm17.28 0l1.745-.713-.479-1.173h-1.266V29zm13.68 33.48l-1.746.713 1.224 2.996 2.003-2.542-1.481-1.167zM298.335 29v-1.886h-.916l-.566.72L298.335 29zm16.239-.365l-12.419 63 3.7.73 12.42-63-3.701-.73zm-10.569 61.48h-19.35v3.77h19.35v-3.77zm-17.499 2.245l5.58-28.71-3.702-.72-5.58 28.71 3.702.72zm2.234-30.22l-17.73 23.04 2.989 2.3 17.73-23.04-2.989-2.3zm-16.235 22.304h-9.36v3.772h9.36v-3.772zm-7.627 1.143l-9.72-22.68-3.467 1.486 9.72 22.68 3.467-1.486zM251.576 63.28l-5.67 28.35 3.698.74 5.67-28.35-3.698-.74zm-3.821 26.834h-19.35v3.772h19.35v-3.772zm-17.501 2.256l12.6-63-3.698-.74-12.6 63 3.698.74zm10.751-61.484h17.28v-3.772h-17.28v3.772zm15.534-1.173l13.68 33.48 3.491-1.426-13.68-33.48-3.491 1.426zm16.907 33.934l26.37-33.48-2.963-2.334-26.37 33.48 2.963 2.334zm24.889-32.761h18.09v-3.772h-18.09v3.772zm33.039 59.764l-.803 1.706.015.007.015.007.773-1.72zm-9.45-8.1l-1.602.995.006.01.006.01 1.59-1.015zm-2.52-18.9l-1.849-.37-.002.009-.002.008 1.853.353zm6.93-34.65v-1.886h-1.546l-.303 1.516 1.849.37zm21.24 0l1.849.369.45-2.255h-2.299V29zm-6.84 34.29l1.844.395.002-.013.003-.013-1.849-.369zm1.62 10.89l-1.305 1.361 1.305-1.361zm13.59-.9l1.416 1.245-1.416-1.245zm4.05-9.99l1.847.379.002-.01-1.849-.369zm6.84-34.29v-1.886h-1.547l-.303 1.517 1.85.369zm20.88 0l1.849.37.451-2.256h-2.3V29zm-7.11 35.55l1.848.372.001-.002-1.849-.37zm-11.52 21.6l-1.216-1.441 1.216 1.441zm-23.04 5.404c-5.437 0-10.052-.896-13.897-2.624l-1.546 3.44c4.434 1.992 9.599 2.956 15.443 2.956v-3.772zm-13.867-2.61c-3.789-1.783-6.653-4.256-8.663-7.408l-3.18 2.028c2.429 3.808 5.865 6.735 10.237 8.792l1.606-3.412zm-8.651-7.389c-1.949-3.14-2.957-6.865-2.957-11.245h-3.771c0 4.98 1.153 9.415 3.524 13.234l3.204-1.989zm-2.957-11.245c0-1.77.222-3.867.687-6.307l-3.705-.706c-.495 2.6-.753 4.943-.753 7.013h3.771zm.684-6.29l6.93-34.65-3.698-.74-6.93 34.65 3.698.74zm5.081-33.134h21.24v-3.772h-21.24v3.772zm19.39-2.255l-6.84 34.29 3.699.738 6.84-34.29-3.699-.738zm-6.834 34.264c-.381 1.78-.582 3.445-.582 4.985h3.771c0-1.22.16-2.615.499-4.195l-3.688-.79zm-.582 4.985c0 3.118.798 5.8 2.741 7.662l2.609-2.724c-.937-.898-1.579-2.415-1.579-4.938h-3.771zm2.741 7.662c1.907 1.827 4.548 2.594 7.605 2.594v-3.772c-2.463 0-4.023-.613-4.996-1.546l-2.609 2.724zm7.605 2.594c3.553 0 6.542-1.148 8.706-3.611l-2.833-2.49c-1.315 1.497-3.186 2.33-5.873 2.33v3.77zm8.706-3.611c2.069-2.354 3.501-6.078 4.481-10.856l-3.694-.758c-.94 4.582-2.208 7.518-3.62 9.124l2.833 2.49zm4.483-10.866l6.84-34.29-3.699-.738-6.84 34.29 3.699.738zm4.991-32.773h20.88v-3.772h-20.88v3.772zm19.031-2.256l-7.11 35.55 3.698.74 7.11-35.55-3.698-.74zm-7.11 35.548c-1.861 9.245-5.537 16.017-10.887 20.53l2.432 2.883c6.17-5.206 10.173-12.834 12.152-22.669l-3.697-.744zm-10.887 20.53c-5.336 4.502-12.545 6.846-21.824 6.846v3.772c9.92 0 18.071-2.516 24.256-7.735l-2.432-2.882zM397.45 29v-1.886h-1.546l-.303 1.516 1.849.37zm21.24 0l1.849.368.449-2.254h-2.298V29zm-9.27 46.53l-1.849-.368-.45 2.254h2.299V75.53zm28.44 0l1.848.374.457-2.26h-2.305v1.886zM434.53 92v1.886h1.543l.305-1.512L434.53 92zm-49.68 0l-1.849-.37-.451 2.256h2.3V92zm12.6-61.114h21.24v-3.772h-21.24v3.772zm19.391-2.254l-9.27 46.53 3.698.736 9.27-46.53-3.698-.736zm-7.421 48.784h28.44v-3.772h-28.44v3.772zm26.592-2.26l-3.33 16.47 3.696.748 3.33-16.47-3.696-.748zm-1.482 14.958h-49.68v3.772h49.68v-3.772zm-47.831 2.256l12.6-63-3.698-.74-12.6 63 3.698.74zm100.477-11.35l1.853-.35-.29-1.536h-1.563v1.886zm-24.03 0v-1.886h-1.092l-.544.948 1.636.938zm-6.3 10.98v1.886h1.092l.543-.947-1.635-.939zm-22.41 0l-1.591-1.013-1.847 2.899h3.438V92zm40.14-63v-1.886h-1.035l-.556.873L474.576 29zm20.88 0l1.835-.435-.344-1.45h-1.491V29zm14.94 63v1.886h2.385l-.55-2.321-1.835.435zm-21.15 0l-1.853.35.289 1.536h1.564V92zm-5.04-26.28v1.886h2.277l-.425-2.238-1.852.352zm-3.06-16.11l1.852-.352-.949-4.998-2.538 4.41 1.635.94zm-9.27 16.11l-1.635-.94-1.626 2.826h3.261V65.72zm15.3 13.414h-24.03v3.772h24.03v-3.772zm-25.666.948l-6.3 10.98 3.271 1.877 6.3-10.98-3.271-1.877zm-4.664 10.032h-22.41v3.772h22.41v-3.772zm-20.82 2.9l40.14-63-3.181-2.027-40.14 63 3.181 2.026zm38.55-62.128h20.88v-3.772h-20.88v3.772zm19.045-1.45l14.94 63 3.67-.871-14.94-63-3.67.87zm16.775 60.678h-21.15v3.772h21.15v-3.772zm-19.297 1.537l-2.07-10.98-3.706.698 2.07 10.98 3.706-.698zm-5.041-26.283l-3.06-16.11-3.705.704 3.06 16.11 3.705-.704zm-6.547-16.698l-9.27 16.11 3.269 1.88 9.27-16.11-3.269-1.88zm-7.635 18.936h12.33v-3.772h-12.33v3.772zM99.123 122.02v-1.886H97.57l-.298 1.525 1.851.361zm-1.44 7.38l-1.85-.361-.44 2.247h2.29V129.4zm26.64 0l1.849.37.451-2.256h-2.3v1.886zm-3.06 15.3v1.886h1.546l.303-1.516-1.849-.37zm-26.73 0v-1.886h-1.552l-.298 1.524 1.85.362zm-1.62 8.28l-1.85-.362-.44 2.248h2.29v-1.886zm31.59 0l1.848.374.457-2.26h-2.305v1.886zm-3.24 16.02v1.886h1.543l.305-1.512-1.848-.374zm-52.38 0l-1.849-.37-.451 2.256h2.3V169zm12.6-63v-1.886h-1.546l-.303 1.516 1.85.37zm51.21 0l1.848.374.457-2.26h-2.305V106zm-3.24 16.02v1.886h1.543l.305-1.512-1.848-.374zm-32.18-.361l-1.44 7.38 3.7.722 1.441-7.38-3.702-.722zm.41 9.627h26.64v-3.772h-26.64v3.772zm24.791-2.256l-3.06 15.3 3.698.74 3.06-15.3-3.698-.74zm-1.211 13.784h-26.73v3.772h26.73v-3.772zm-28.58 1.524l-1.62 8.28 3.7.724 1.62-8.28-3.7-.724zm.23 10.528h31.59v-3.772h-31.59v3.772zm29.742-2.26l-3.24 16.02 3.696.748 3.24-16.02-3.696-.748zm-1.392 14.508h-52.38v3.772h52.38v-3.772zm-50.53 2.256l12.6-63-3.699-.74-12.6 63 3.698.74zm10.75-61.484h51.21v-3.772h-51.21v3.772zm49.362-2.26l-3.24 16.02 3.696.748 3.24-16.02-3.696-.748zm-1.392 14.508h-30.33v3.772h30.33v-3.772zM208.481 106l1.6.997 1.796-2.883h-3.396V106zm-39.24 63v1.886h1.047l.553-.889-1.6-.997zm-20.88 0l-1.841.41.329 1.476h1.512V169zm-14.04-63v-1.886h-2.352l.511 2.296 1.841-.41zm21.78 0l1.844-.393-.318-1.493h-1.526V106zm7.83 36.72l-1.844.393.977 4.583 2.469-3.982-1.602-.994zm22.77-36.72v-1.886h-1.05l-.553.892 1.603.994zm20.179-.997l-39.24 63 3.201 1.994 39.24-63-3.201-1.994zm-37.639 62.111h-20.88v3.772h20.88v-3.772zm-19.04 1.476l-14.04-63-3.681.82 14.04 63 3.681-.82zm-15.88-60.704h21.78v-3.772h-21.78v3.772zm19.936-1.493l7.83 36.72 3.688-.786-7.83-36.72-3.688.786zm11.276 37.321l22.77-36.72-3.205-1.988-22.77 36.72 3.205 1.988zm21.168-35.828h21.78v-3.772h-21.78v3.772zm41.533 14.134v-1.886h-1.553l-.297 1.525 1.85.361zm-1.44 7.38l-1.85-.361-.439 2.247h2.289V129.4zm26.64 0l1.85.37.451-2.256h-2.301v1.886zm-3.06 15.3v1.886h1.546l.304-1.516-1.85-.37zm-26.73 0v-1.886h-1.552l-.298 1.524 1.85.362zm-1.62 8.28l-1.85-.362-.44 2.248h2.29v-1.886zm31.59 0l1.849.374.457-2.26h-2.306v1.886zm-3.24 16.02v1.886h1.543l.306-1.512-1.849-.374zm-52.38 0l-1.849-.37-.451 2.256h2.3V169zm12.6-63v-1.886h-1.545l-.304 1.516 1.849.37zm51.21 0l1.849.374.457-2.26h-2.306V106zm-3.24 16.02v1.886h1.543l.306-1.512-1.849-.374zm-32.18-.361l-1.44 7.38 3.701.722 1.44-7.38-3.701-.722zm.41 9.627h26.64v-3.772h-26.64v3.772zm24.791-2.256l-3.06 15.3 3.699.74 3.06-15.3-3.699-.74zm-1.211 13.784h-26.73v3.772h26.73v-3.772zm-28.58 1.524l-1.62 8.28 3.701.724 1.62-8.28-3.701-.724zm.23 10.528h31.59v-3.772h-31.59v3.772zm29.742-2.26l-3.24 16.02 3.697.748 3.24-16.02-3.697-.748zm-1.392 14.508h-52.38v3.772h52.38v-3.772zm-50.53 2.256l12.6-63-3.699-.74-12.6 63 3.699.74zm10.75-61.484h51.21v-3.772h-51.21v3.772zm49.362-2.26l-3.24 16.02 3.697.748 3.24-16.02-3.697-.748zm-1.392 14.508h-30.33v3.772h30.33v-3.772zm62.537 21.236l-1.534-1.096-.003.004 1.537 1.092zm-12.51 9.27l-.666-1.764-2.071.782 1.101 1.92 1.636-.938zm10.53 18.36v1.886h3.255l-1.619-2.824-1.636.938zm-22.05 0l-1.643.924.54.962h1.103V169zm-8.91-15.84l1.644-.924-.541-.962h-1.103v1.886zm-5.22 0v-1.886h-1.548l-.301 1.518 1.849.368zm-3.15 15.84v1.886h1.548l.302-1.518-1.85-.368zm-21.24 0l-1.849-.37-.451 2.256h2.3V169zm12.6-63v-1.886h-1.546l-.303 1.516 1.849.37zm47.52 5.49l-1.18 1.471.01.008.011.008 1.159-1.487zm-29.61 10.89v-1.886h-1.544l-.305 1.514 1.849.372zm-2.97 14.76l-1.849-.372-.454 2.258h2.303v-1.886zm15.57-2.16l1.253 1.409.014-.012.014-.013-1.281-1.384zm22.054-8.28c0 5.221-1.396 9.72-4.148 13.574l3.069 2.192c3.247-4.546 4.851-9.827 4.851-15.766h-3.772zm-4.151 13.578c-2.695 3.794-6.54 6.672-11.639 8.598l1.333 3.528c5.701-2.154 10.195-5.456 13.381-9.942l-3.075-2.184zm-12.609 11.3l10.53 18.36 3.272-1.876-10.53-18.36-3.272 1.876zm12.166 15.536h-22.05v3.772h22.05v-3.772zm-20.406.962l-8.91-15.84-3.287 1.848 8.91 15.84 3.287-1.848zm-10.554-16.802h-5.22v3.772h5.22v-3.772zm-7.069 1.518l-3.15 15.84 3.699.736 3.15-15.84-3.699-.736zm-1.301 14.322h-21.24v3.772h21.24v-3.772zM260.4 169.37l12.6-63-3.698-.74-12.6 63 3.698.74zm10.751-61.484h28.26v-3.772h-28.26v3.772zm28.26 0c8.026 0 13.969 1.775 18.08 5.075l2.36-2.942c-5.009-4.02-11.906-5.905-20.44-5.905v3.772zm18.101 5.091c4.104 3.198 6.203 7.687 6.203 13.723h3.772c0-7.044-2.521-12.695-7.657-16.697l-2.318 2.974zm-11.535 15.793c0-2.541-.807-4.748-2.682-6.26-1.797-1.45-4.28-2.016-7.124-2.016v3.772c2.436 0 3.913.499 4.756 1.179.766.618 1.278 1.606 1.278 3.325h3.772zm-9.806-8.276h-7.11v3.772h7.11v-3.772zm-8.959 1.514l-2.97 14.76 3.698.744 2.97-14.76-3.698-.744zm-1.121 17.018h8.73v-3.772h-8.73v3.772zm8.73 0c3.236 0 6.021-.795 8.093-2.637l-2.506-2.818c-1.168 1.038-2.943 1.683-5.587 1.683v3.772zm8.121-2.662c2.081-1.927 3.035-4.54 3.035-7.594h-3.772c0 2.226-.665 3.753-1.825 4.826l2.562 2.768zm68.57 21.656l1.853-.349-.29-1.537h-1.563v1.886zm-24.03 0v-1.886h-1.092l-.544.948 1.636.938zm-6.3 10.98v1.886h1.092l.543-.948-1.635-.938zm-22.41 0l-1.591-1.013-1.847 2.899h3.438V169zm40.14-63v-1.886h-1.035l-.556.873 1.591 1.013zm20.88 0l1.834-.435-.344-1.451h-1.49V106zm14.94 63v1.886h2.385l-.551-2.321-1.834.435zm-21.15 0l-1.853.349.289 1.537h1.564V169zm-5.04-26.28v1.886h2.277l-.425-2.238-1.852.352zm-3.06-16.11l1.852-.352-.949-4.998-2.538 4.41 1.635.94zm-9.27 16.11l-1.635-.94-1.626 2.826h3.261v-1.886zm15.3 13.414h-24.03v3.772h24.03v-3.772zm-25.666.948l-6.3 10.98 3.271 1.876 6.3-10.98-3.271-1.876zm-4.664 10.032h-22.41v3.772h22.41v-3.772zm-20.82 2.899l40.14-63-3.181-2.026-40.14 63 3.181 2.026zm38.55-62.127h20.88v-3.772h-20.88v3.772zm19.045-1.451l14.94 63 3.669-.87-14.94-63-3.669.87zm16.775 60.679h-21.15v3.772h21.15v-3.772zm-19.297 1.537l-2.07-10.98-3.706.698 2.07 10.98 3.706-.698zm-5.041-26.283l-3.06-16.11-3.705.704 3.06 16.11 3.705-.704zm-6.547-16.698l-9.27 16.11 3.269 1.88 9.27-16.11-3.269-1.88zm-7.635 18.936h12.33v-3.772h-12.33v3.772zM410.721 106v-1.886h-1.546l-.303 1.516 1.849.37zm45.54 3.24l-.773 1.72.008.003.765-1.723zm11.16 9.27l-1.587 1.019 1.587-1.019zm-1.17 33.39l1.606.988.005-.008-1.611-.98zm-14.04 12.69l.837 1.69.007-.003-.844-1.687zm-54.09 4.41l-1.849-.37-.451 2.256h2.3V169zm47.16-21.69l-1.416-1.245-.001.001 1.417 1.244zm1.17-21.78l-1.255 1.407.01.009.009.008 1.236-1.424zm-17.82-2.97v-1.886h-1.547l-.302 1.518 1.849.368zm-5.94 29.88l-1.849-.368-.448 2.254h2.297v-1.886zm-11.97-44.554h28.44v-3.772h-28.44v3.772zm28.44 0c6.399 0 11.823 1.047 16.327 3.074l1.547-3.44c-5.097-2.293-11.072-3.406-17.874-3.406v3.772zm16.335 3.077c4.562 2.028 7.98 4.89 10.338 8.566l3.174-2.038c-2.801-4.364-6.824-7.682-11.981-9.974l-1.531 3.446zm10.338 8.566c2.359 3.674 3.572 8.049 3.572 13.201h3.771c0-5.768-1.367-10.873-4.169-15.239l-3.174 2.038zm3.572 13.201c0 6.958-1.607 13-4.765 18.19l3.221 1.96c3.561-5.85 5.315-12.588 5.315-20.15h-3.771zm-4.761 18.182c-3.167 5.146-7.576 9.141-13.277 11.991l1.687 3.374c6.299-3.15 11.249-7.615 14.802-13.389l-3.212-1.976zm-13.27 11.988c-5.644 2.793-12.13 4.214-19.504 4.214v3.772c7.867 0 14.94-1.519 21.177-4.606l-1.673-3.38zm-19.504 4.214h-33.75v3.772h33.75v-3.772zm-31.901 2.256l12.6-63-3.698-.74-12.6 63 3.698.74zm32.621-15.044c5.885 0 10.678-1.863 14.108-5.772l-2.835-2.488c-2.571 2.931-6.237 4.488-11.273 4.488v3.772zm14.107-5.771c3.411-3.88 5.059-8.787 5.059-14.565h-3.771c0 5.022-1.412 8.995-4.121 12.075l2.833 2.49zm5.059-14.565c0-4.08-1.29-7.47-4.069-9.884l-2.473 2.848c1.781 1.546 2.771 3.796 2.771 7.036h3.771zm-4.05-9.867c-2.69-2.399-6.451-3.449-10.976-3.449v3.772c3.995 0 6.714.93 8.465 2.491l2.511-2.814zm-10.976-3.449h-8.1v3.772h8.1v-3.772zm-9.949 1.518l-5.94 29.88 3.699.736 5.94-29.88-3.699-.736zm-4.091 32.134h9.9v-3.772h-9.9v3.772z" fill="url(#paint2_linear)"/><path d="M58.175 45.02v-1.886h-1.546l-.304 1.516 1.85.37zm-2.16 10.8l-1.85-.37-.45 2.256h2.3V55.82zm26.28 0l1.848.374.457-2.26h-2.305v1.886zm-3.24 16.02v1.886h1.542l.306-1.512-1.849-.374zm-26.19 0v-1.886H51.32l-.304 1.515 1.849.371zM48.815 92v1.886h1.544l.304-1.515L48.815 92zm-21.24 0l-1.85-.37-.45 2.256h2.3V92zm12.6-63v-1.886h-1.546l-.304 1.516 1.85.37zm51.21 0l1.848.374.457-2.26h-2.305V29zm-3.24 16.02v1.886h1.542l.306-1.512-1.849-.374zm-31.82-.37l-2.16 10.8 3.699.74 2.16-10.8-3.699-.74zm-.31 13.056h26.28v-3.772h-26.28v3.772zm24.431-2.26l-3.24 16.02 3.697.748 3.24-16.02-3.697-.748zm-1.391 14.508h-26.19v3.772h26.19v-3.772zm-28.04 1.515l-4.05 20.16 3.698.742 4.05-20.16-3.697-.742zm-2.2 18.645h-21.24v3.772h21.24v-3.772zM29.424 92.37l12.6-63-3.699-.74-12.6 63 3.699.74zm10.75-61.484h51.21v-3.772h-51.21v3.772zm49.362-2.26l-3.24 16.02 3.697.748 3.24-16.02-3.697-.748zm-1.392 14.508h-29.97v3.772h29.97v-3.772zm15.451 46.796l-.843 1.687.012.006.013.006.818-1.699zm-11.16-9.99l-1.613.977.005.008.005.008 1.603-.993zm1.17-34.2l-1.621-.963-.003.005 1.624.958zm14.13-13.41l-.876-1.67-.007.004.883 1.666zm37.35-1.17l-.843 1.687.012.006.013.006.818-1.699zm11.16 9.9l-1.613.977.005.008.005.008 1.603-.993zm-1.17 34.29l-1.621-.963-.003.005 1.624.958zm-14.13 13.32l-.876-1.67-.007.004.883 1.666zm-9.9-15.03l-1.071-1.552-.009.006-.009.007 1.089 1.539zm5.76-7.02l1.72.772-1.72-.772zm-1.35-18.54l-1.352 1.315.009.01.01.008 1.333-1.333zm-17.82-.72l-1.071-1.552-.009.006-.009.007 1.089 1.539zm-5.67 7.02l1.72.772-1.72-.772zm1.26 18.54l-1.352 1.315.009.01.01.008 1.333-1.333zm7.29 18.634c-6.19 0-11.541-1.127-16.102-3.323l-1.636 3.398c5.159 2.484 11.088 3.697 17.738 3.697v-3.772zm-16.077-3.31c-4.51-2.256-7.957-5.356-10.4-9.297l-3.206 1.986c2.837 4.578 6.83 8.139 11.92 10.684l1.686-3.374zm-10.39-9.28c-2.383-3.935-3.597-8.48-3.597-13.694h-3.772c0 5.826 1.366 11.061 4.143 15.647l3.226-1.954zM90.451 65.27c0-7.02 1.607-13.193 4.779-18.572l-3.25-1.916c-3.548 6.02-5.3 12.868-5.3 20.488h3.77zm4.775-18.567c3.241-5.458 7.694-9.687 13.392-12.707l-1.766-3.332c-6.302 3.34-11.27 8.051-14.868 14.113l3.242 1.926zM108.611 34c5.76-3.023 12.294-4.554 19.644-4.554v-3.772c-7.89 0-15.036 1.649-21.396 4.986l1.752 3.34zm19.644-4.554c6.184 0 11.495 1.155 15.987 3.4l1.686-3.373c-5.108-2.554-11.017-3.799-17.673-3.799v3.772zm16.012 3.413c4.559 2.195 7.99 5.257 10.365 9.178l3.226-1.954c-2.785-4.599-6.794-8.137-11.955-10.622l-1.636 3.398zm10.375 9.194c2.437 3.932 3.677 8.471 3.677 13.677h3.772c0-5.834-1.4-11.075-4.243-15.663l-3.206 1.986zm3.677 13.677c0 7.014-1.634 13.215-4.865 18.657l3.242 1.926c3.609-6.078 5.395-12.957 5.395-20.583h-3.772zm-4.868 18.662c-3.176 5.387-7.622 9.586-13.382 12.608l1.752 3.34c6.36-3.338 11.334-8.02 14.878-14.032l-3.248-1.916zm-13.389 12.612c-5.696 3.019-12.197 4.55-19.547 4.55v3.772c7.89 0 15.009-1.649 21.313-4.99l-1.766-3.332zm-17.747-8.868c3.703 0 7.004-.966 9.819-2.956l-2.178-3.08c-2.105 1.49-4.624 2.264-7.641 2.264v3.772zm9.801-2.944c2.819-1.946 4.956-4.563 6.409-7.8l-3.44-1.544c-1.187 2.643-2.89 4.706-5.111 6.24l2.142 3.104zm6.409-7.8c1.438-3.201 2.146-6.677 2.146-10.402h-3.772c0 3.235-.612 6.18-1.814 8.858l3.44 1.544zm2.146-10.402c0-4.12-1.244-7.605-3.883-10.243l-2.666 2.666c1.801 1.802 2.777 4.258 2.777 7.577h3.772zm-3.864-10.225c-2.597-2.669-6.133-3.9-10.352-3.9v3.77c3.461 0 5.925.989 7.648 2.76l2.704-2.63zm-10.352-3.9c-3.704 0-7.026.965-9.891 2.943l2.142 3.104c2.175-1.502 4.733-2.276 7.749-2.276v-3.772zm-9.909 2.956c-2.754 1.948-4.853 4.561-6.301 7.787l3.44 1.544c1.192-2.654 2.873-4.72 5.039-6.252l-2.178-3.08zm-6.301 7.787c-1.438 3.201-2.146 6.677-2.146 10.402h3.772c0-3.235.612-6.18 1.814-8.858l-3.44-1.544zm-2.146 10.402c0 4.106 1.205 7.584 3.774 10.225l2.704-2.63c-1.751-1.8-2.706-4.261-2.706-7.595h-3.772zm3.793 10.243c2.649 2.65 6.202 3.883 10.423 3.883v-3.772c-3.459 0-5.966-.987-7.757-2.777l-2.666 2.666zm112.002-9.883l-1.534-1.096-.003.004 1.537 1.092zm-12.51 9.27l-.666-1.764-2.071.782 1.101 1.92 1.636-.938zM221.914 92v1.886h3.255l-1.619-2.824-1.636.938zm-22.05 0l-1.643.924.54.962h1.103V92zm-8.91-15.84l1.644-.924-.541-.962h-1.103v1.886zm-5.22 0v-1.886h-1.548l-.301 1.518 1.849.368zM182.584 92v1.886h1.548l.302-1.518-1.85-.368zm-21.24 0l-1.849-.37-.451 2.256h2.3V92zm12.6-63v-1.886h-1.546l-.303 1.516 1.849.37zm47.52 5.49l-1.18 1.47.01.01.011.007 1.159-1.487zm-29.61 10.89v-1.886h-1.544l-.305 1.514 1.849.372zm-2.97 14.76l-1.849-.372-.454 2.258h2.303V60.14zm15.57-2.16l1.253 1.41.014-.013.014-.013-1.281-1.384zm22.054-8.28c0 5.22-1.396 9.72-4.148 13.574l3.069 2.192c3.247-4.546 4.851-9.827 4.851-15.766h-3.772zm-4.151 13.578c-2.695 3.794-6.541 6.672-11.639 8.598l1.332 3.528c5.702-2.154 10.196-5.456 13.382-9.942l-3.075-2.184zm-12.609 11.3l10.53 18.36 3.272-1.876-10.53-18.36-3.272 1.876zm12.166 15.536h-22.05v3.772h22.05v-3.772zm-20.406.962l-8.91-15.84-3.287 1.849 8.91 15.84 3.287-1.85zm-10.554-16.802h-5.22v3.772h5.22v-3.772zm-7.069 1.518l-3.15 15.84 3.699.736 3.15-15.84-3.699-.736zm-1.301 14.322h-21.24v3.772h21.24v-3.772zm-19.391 2.256l12.6-63-3.698-.74-12.6 63 3.698.74zm10.751-61.484h28.26v-3.772h-28.26v3.772zm28.26 0c8.026 0 13.969 1.775 18.08 5.075l2.36-2.942c-5.009-4.02-11.906-5.905-20.44-5.905v3.772zm18.101 5.091c4.104 3.198 6.203 7.687 6.203 13.723h3.772c0-7.044-2.521-12.695-7.657-16.698l-2.318 2.975zM208.77 51.77c0-2.54-.807-4.748-2.682-6.26-1.797-1.45-4.28-2.016-7.124-2.016v3.772c2.436 0 3.913.499 4.756 1.18.766.617 1.278 1.605 1.278 3.324h3.772zm-9.806-8.276h-7.11v3.772h7.11v-3.772zm-8.959 1.514l-2.97 14.76 3.698.744 2.97-14.76-3.698-.744zm-1.121 17.018h8.73v-3.772h-8.73v3.772zm8.73 0c3.236 0 6.021-.795 8.093-2.637l-2.506-2.818c-1.168 1.038-2.943 1.683-5.587 1.683v3.772zm8.121-2.662c2.081-1.927 3.035-4.54 3.035-7.594h-3.772c0 2.226-.665 3.752-1.825 4.826l2.562 2.768zM316.425 29l1.85.365.443-2.25h-2.293V29zm-12.42 63v1.886h1.55l.3-1.521-1.85-.365zm-19.35 0l-1.851-.36-.437 2.246h2.288V92zm5.58-28.71l1.851.36-3.346-1.51 1.495 1.15zm-17.73 23.04v1.886h.928l.566-.736-1.494-1.15zm-9.36 0l-1.734.743.49 1.143h1.244V86.33zm-9.72-22.68l1.733-.743-2.392-5.58-1.19 5.953 1.849.37zM247.755 92v1.886h1.546l.303-1.516-1.849-.37zm-19.35 0l-1.849-.37-.452 2.256h2.301V92zm12.6-63v-1.886h-1.546l-.303 1.516 1.849.37zm17.28 0l1.745-.713-.479-1.173h-1.266V29zm13.68 33.48l-1.746.713 1.224 2.996 2.003-2.542-1.481-1.167zM298.335 29v-1.886h-.916l-.566.72L298.335 29zm16.239-.365l-12.419 63 3.7.73 12.42-63-3.701-.73zm-10.569 61.48h-19.35v3.77h19.35v-3.77zm-17.499 2.245l5.58-28.71-3.702-.72-5.58 28.71 3.702.72zm2.234-30.22l-17.73 23.04 2.989 2.3 17.73-23.04-2.989-2.3zm-16.235 22.304h-9.36v3.772h9.36v-3.772zm-7.627 1.143l-9.72-22.68-3.467 1.486 9.72 22.68 3.467-1.486zM251.576 63.28l-5.67 28.35 3.698.74 5.67-28.35-3.698-.74zm-3.821 26.834h-19.35v3.772h19.35v-3.772zm-17.501 2.256l12.6-63-3.698-.74-12.6 63 3.698.74zm10.751-61.484h17.28v-3.772h-17.28v3.772zm15.534-1.173l13.68 33.48 3.491-1.426-13.68-33.48-3.491 1.426zm16.907 33.934l26.37-33.48-2.963-2.334-26.37 33.48 2.963 2.334zm24.889-32.761h18.09v-3.772h-18.09v3.772zm33.039 59.764l-.803 1.706.015.007.015.007.773-1.72zm-9.45-8.1l-1.602.995.006.01.006.01 1.59-1.015zm-2.52-18.9l-1.849-.37-.002.009-.002.008 1.853.353zm6.93-34.65v-1.886h-1.546l-.303 1.516 1.849.37zm21.24 0l1.849.369.45-2.255h-2.299V29zm-6.84 34.29l1.844.395.002-.013.003-.013-1.849-.369zm1.62 10.89l-1.305 1.361 1.305-1.361zm13.59-.9l1.416 1.245-1.416-1.245zm4.05-9.99l1.847.379.002-.01-1.849-.369zm6.84-34.29v-1.886h-1.547l-.303 1.517 1.85.369zm20.88 0l1.849.37.451-2.256h-2.3V29zm-7.11 35.55l1.848.372.001-.002-1.849-.37zm-11.52 21.6l-1.216-1.441 1.216 1.441zm-23.04 5.404c-5.437 0-10.052-.896-13.897-2.624l-1.546 3.44c4.434 1.992 9.599 2.956 15.443 2.956v-3.772zm-13.867-2.61c-3.789-1.783-6.653-4.256-8.663-7.408l-3.18 2.028c2.429 3.808 5.865 6.735 10.237 8.792l1.606-3.412zm-8.651-7.389c-1.949-3.14-2.957-6.865-2.957-11.245h-3.771c0 4.98 1.153 9.415 3.524 13.234l3.204-1.989zm-2.957-11.245c0-1.77.222-3.867.687-6.307l-3.705-.706c-.495 2.6-.753 4.943-.753 7.013h3.771zm.684-6.29l6.93-34.65-3.698-.74-6.93 34.65 3.698.74zm5.081-33.134h21.24v-3.772h-21.24v3.772zm19.39-2.255l-6.84 34.29 3.699.738 6.84-34.29-3.699-.738zm-6.834 34.264c-.381 1.78-.582 3.445-.582 4.985h3.771c0-1.22.16-2.615.499-4.195l-3.688-.79zm-.582 4.985c0 3.118.798 5.8 2.741 7.662l2.609-2.724c-.937-.898-1.579-2.415-1.579-4.938h-3.771zm2.741 7.662c1.907 1.827 4.548 2.594 7.605 2.594v-3.772c-2.463 0-4.023-.613-4.996-1.546l-2.609 2.724zm7.605 2.594c3.553 0 6.542-1.148 8.706-3.611l-2.833-2.49c-1.315 1.497-3.186 2.33-5.873 2.33v3.77zm8.706-3.611c2.069-2.354 3.501-6.078 4.481-10.856l-3.694-.758c-.94 4.582-2.208 7.518-3.62 9.124l2.833 2.49zm4.483-10.866l6.84-34.29-3.699-.738-6.84 34.29 3.699.738zm4.991-32.773h20.88v-3.772h-20.88v3.772zm19.031-2.256l-7.11 35.55 3.698.74 7.11-35.55-3.698-.74zm-7.11 35.548c-1.861 9.245-5.537 16.017-10.887 20.53l2.432 2.883c6.17-5.206 10.173-12.834 12.152-22.669l-3.697-.744zm-10.887 20.53c-5.336 4.502-12.545 6.846-21.824 6.846v3.772c9.92 0 18.071-2.516 24.256-7.735l-2.432-2.882zM397.45 29v-1.886h-1.546l-.303 1.516 1.849.37zm21.24 0l1.849.368.449-2.254h-2.298V29zm-9.27 46.53l-1.849-.368-.45 2.254h2.299V75.53zm28.44 0l1.848.374.457-2.26h-2.305v1.886zM434.53 92v1.886h1.543l.305-1.512L434.53 92zm-49.68 0l-1.849-.37-.451 2.256h2.3V92zm12.6-61.114h21.24v-3.772h-21.24v3.772zm19.391-2.254l-9.27 46.53 3.698.736 9.27-46.53-3.698-.736zm-7.421 48.784h28.44v-3.772h-28.44v3.772zm26.592-2.26l-3.33 16.47 3.696.748 3.33-16.47-3.696-.748zm-1.482 14.958h-49.68v3.772h49.68v-3.772zm-47.831 2.256l12.6-63-3.698-.74-12.6 63 3.698.74zm100.477-11.35l1.853-.35-.29-1.536h-1.563v1.886zm-24.03 0v-1.886h-1.092l-.544.948 1.636.938zm-6.3 10.98v1.886h1.092l.543-.947-1.635-.939zm-22.41 0l-1.591-1.013-1.847 2.899h3.438V92zm40.14-63v-1.886h-1.035l-.556.873L474.576 29zm20.88 0l1.835-.435-.344-1.45h-1.491V29zm14.94 63v1.886h2.385l-.55-2.321-1.835.435zm-21.15 0l-1.853.35.289 1.536h1.564V92zm-5.04-26.28v1.886h2.277l-.425-2.238-1.852.352zm-3.06-16.11l1.852-.352-.949-4.998-2.538 4.41 1.635.94zm-9.27 16.11l-1.635-.94-1.626 2.826h3.261V65.72zm15.3 13.414h-24.03v3.772h24.03v-3.772zm-25.666.948l-6.3 10.98 3.271 1.877 6.3-10.98-3.271-1.877zm-4.664 10.032h-22.41v3.772h22.41v-3.772zm-20.82 2.9l40.14-63-3.181-2.027-40.14 63 3.181 2.026zm38.55-62.128h20.88v-3.772h-20.88v3.772zm19.045-1.45l14.94 63 3.67-.871-14.94-63-3.67.87zm16.775 60.678h-21.15v3.772h21.15v-3.772zm-19.297 1.537l-2.07-10.98-3.706.698 2.07 10.98 3.706-.698zm-5.041-26.283l-3.06-16.11-3.705.704 3.06 16.11 3.705-.704zm-6.547-16.698l-9.27 16.11 3.269 1.88 9.27-16.11-3.269-1.88zm-7.635 18.936h12.33v-3.772h-12.33v3.772zM99.123 122.02v-1.886H97.57l-.298 1.525 1.851.361zm-1.44 7.38l-1.85-.361-.44 2.247h2.29V129.4zm26.64 0l1.849.37.451-2.256h-2.3v1.886zm-3.06 15.3v1.886h1.546l.303-1.516-1.849-.37zm-26.73 0v-1.886h-1.552l-.298 1.524 1.85.362zm-1.62 8.28l-1.85-.362-.44 2.248h2.29v-1.886zm31.59 0l1.848.374.457-2.26h-2.305v1.886zm-3.24 16.02v1.886h1.543l.305-1.512-1.848-.374zm-52.38 0l-1.849-.37-.451 2.256h2.3V169zm12.6-63v-1.886h-1.546l-.303 1.516 1.85.37zm51.21 0l1.848.374.457-2.26h-2.305V106zm-3.24 16.02v1.886h1.543l.305-1.512-1.848-.374zm-32.18-.361l-1.44 7.38 3.7.722 1.441-7.38-3.702-.722zm.41 9.627h26.64v-3.772h-26.64v3.772zm24.791-2.256l-3.06 15.3 3.698.74 3.06-15.3-3.698-.74zm-1.211 13.784h-26.73v3.772h26.73v-3.772zm-28.58 1.524l-1.62 8.28 3.7.724 1.62-8.28-3.7-.724zm.23 10.528h31.59v-3.772h-31.59v3.772zm29.742-2.26l-3.24 16.02 3.696.748 3.24-16.02-3.696-.748zm-1.392 14.508h-52.38v3.772h52.38v-3.772zm-50.53 2.256l12.6-63-3.699-.74-12.6 63 3.698.74zm10.75-61.484h51.21v-3.772h-51.21v3.772zm49.362-2.26l-3.24 16.02 3.696.748 3.24-16.02-3.696-.748zm-1.392 14.508h-30.33v3.772h30.33v-3.772zM208.481 106l1.6.997 1.796-2.883h-3.396V106zm-39.24 63v1.886h1.047l.553-.889-1.6-.997zm-20.88 0l-1.841.41.329 1.476h1.512V169zm-14.04-63v-1.886h-2.352l.511 2.296 1.841-.41zm21.78 0l1.844-.393-.318-1.493h-1.526V106zm7.83 36.72l-1.844.393.977 4.583 2.469-3.982-1.602-.994zm22.77-36.72v-1.886h-1.05l-.553.892 1.603.994zm20.179-.997l-39.24 63 3.201 1.994 39.24-63-3.201-1.994zm-37.639 62.111h-20.88v3.772h20.88v-3.772zm-19.04 1.476l-14.04-63-3.681.82 14.04 63 3.681-.82zm-15.88-60.704h21.78v-3.772h-21.78v3.772zm19.936-1.493l7.83 36.72 3.688-.786-7.83-36.72-3.688.786zm11.276 37.321l22.77-36.72-3.205-1.988-22.77 36.72 3.205 1.988zm21.168-35.828h21.78v-3.772h-21.78v3.772zm41.533 14.134v-1.886h-1.553l-.297 1.525 1.85.361zm-1.44 7.38l-1.85-.361-.439 2.247h2.289V129.4zm26.64 0l1.85.37.451-2.256h-2.301v1.886zm-3.06 15.3v1.886h1.546l.304-1.516-1.85-.37zm-26.73 0v-1.886h-1.552l-.298 1.524 1.85.362zm-1.62 8.28l-1.85-.362-.44 2.248h2.29v-1.886zm31.59 0l1.849.374.457-2.26h-2.306v1.886zm-3.24 16.02v1.886h1.543l.306-1.512-1.849-.374zm-52.38 0l-1.849-.37-.451 2.256h2.3V169zm12.6-63v-1.886h-1.545l-.304 1.516 1.849.37zm51.21 0l1.849.374.457-2.26h-2.306V106zm-3.24 16.02v1.886h1.543l.306-1.512-1.849-.374zm-32.18-.361l-1.44 7.38 3.701.722 1.44-7.38-3.701-.722zm.41 9.627h26.64v-3.772h-26.64v3.772zm24.791-2.256l-3.06 15.3 3.699.74 3.06-15.3-3.699-.74zm-1.211 13.784h-26.73v3.772h26.73v-3.772zm-28.58 1.524l-1.62 8.28 3.701.724 1.62-8.28-3.701-.724zm.23 10.528h31.59v-3.772h-31.59v3.772zm29.742-2.26l-3.24 16.02 3.697.748 3.24-16.02-3.697-.748zm-1.392 14.508h-52.38v3.772h52.38v-3.772zm-50.53 2.256l12.6-63-3.699-.74-12.6 63 3.699.74zm10.75-61.484h51.21v-3.772h-51.21v3.772zm49.362-2.26l-3.24 16.02 3.697.748 3.24-16.02-3.697-.748zm-1.392 14.508h-30.33v3.772h30.33v-3.772zm62.537 21.236l-1.534-1.096-.003.004 1.537 1.092zm-12.51 9.27l-.666-1.764-2.071.782 1.101 1.92 1.636-.938zm10.53 18.36v1.886h3.255l-1.619-2.824-1.636.938zm-22.05 0l-1.643.924.54.962h1.103V169zm-8.91-15.84l1.644-.924-.541-.962h-1.103v1.886zm-5.22 0v-1.886h-1.548l-.301 1.518 1.849.368zm-3.15 15.84v1.886h1.548l.302-1.518-1.85-.368zm-21.24 0l-1.849-.37-.451 2.256h2.3V169zm12.6-63v-1.886h-1.546l-.303 1.516 1.849.37zm47.52 5.49l-1.18 1.471.01.008.011.008 1.159-1.487zm-29.61 10.89v-1.886h-1.544l-.305 1.514 1.849.372zm-2.97 14.76l-1.849-.372-.454 2.258h2.303v-1.886zm15.57-2.16l1.253 1.409.014-.012.014-.013-1.281-1.384zm22.054-8.28c0 5.221-1.396 9.72-4.148 13.574l3.069 2.192c3.247-4.546 4.851-9.827 4.851-15.766h-3.772zm-4.151 13.578c-2.695 3.794-6.54 6.672-11.639 8.598l1.333 3.528c5.701-2.154 10.195-5.456 13.381-9.942l-3.075-2.184zm-12.609 11.3l10.53 18.36 3.272-1.876-10.53-18.36-3.272 1.876zm12.166 15.536h-22.05v3.772h22.05v-3.772zm-20.406.962l-8.91-15.84-3.287 1.848 8.91 15.84 3.287-1.848zm-10.554-16.802h-5.22v3.772h5.22v-3.772zm-7.069 1.518l-3.15 15.84 3.699.736 3.15-15.84-3.699-.736zm-1.301 14.322h-21.24v3.772h21.24v-3.772zM260.4 169.37l12.6-63-3.698-.74-12.6 63 3.698.74zm10.751-61.484h28.26v-3.772h-28.26v3.772zm28.26 0c8.026 0 13.969 1.775 18.08 5.075l2.36-2.942c-5.009-4.02-11.906-5.905-20.44-5.905v3.772zm18.101 5.091c4.104 3.198 6.203 7.687 6.203 13.723h3.772c0-7.044-2.521-12.695-7.657-16.697l-2.318 2.974zm-11.535 15.793c0-2.541-.807-4.748-2.682-6.26-1.797-1.45-4.28-2.016-7.124-2.016v3.772c2.436 0 3.913.499 4.756 1.179.766.618 1.278 1.606 1.278 3.325h3.772zm-9.806-8.276h-7.11v3.772h7.11v-3.772zm-8.959 1.514l-2.97 14.76 3.698.744 2.97-14.76-3.698-.744zm-1.121 17.018h8.73v-3.772h-8.73v3.772zm8.73 0c3.236 0 6.021-.795 8.093-2.637l-2.506-2.818c-1.168 1.038-2.943 1.683-5.587 1.683v3.772zm8.121-2.662c2.081-1.927 3.035-4.54 3.035-7.594h-3.772c0 2.226-.665 3.753-1.825 4.826l2.562 2.768zm68.57 21.656l1.853-.349-.29-1.537h-1.563v1.886zm-24.03 0v-1.886h-1.092l-.544.948 1.636.938zm-6.3 10.98v1.886h1.092l.543-.948-1.635-.938zm-22.41 0l-1.591-1.013-1.847 2.899h3.438V169zm40.14-63v-1.886h-1.035l-.556.873 1.591 1.013zm20.88 0l1.834-.435-.344-1.451h-1.49V106zm14.94 63v1.886h2.385l-.551-2.321-1.834.435zm-21.15 0l-1.853.349.289 1.537h1.564V169zm-5.04-26.28v1.886h2.277l-.425-2.238-1.852.352zm-3.06-16.11l1.852-.352-.949-4.998-2.538 4.41 1.635.94zm-9.27 16.11l-1.635-.94-1.626 2.826h3.261v-1.886zm15.3 13.414h-24.03v3.772h24.03v-3.772zm-25.666.948l-6.3 10.98 3.271 1.876 6.3-10.98-3.271-1.876zm-4.664 10.032h-22.41v3.772h22.41v-3.772zm-20.82 2.899l40.14-63-3.181-2.026-40.14 63 3.181 2.026zm38.55-62.127h20.88v-3.772h-20.88v3.772zm19.045-1.451l14.94 63 3.669-.87-14.94-63-3.669.87zm16.775 60.679h-21.15v3.772h21.15v-3.772zm-19.297 1.537l-2.07-10.98-3.706.698 2.07 10.98 3.706-.698zm-5.041-26.283l-3.06-16.11-3.705.704 3.06 16.11 3.705-.704zm-6.547-16.698l-9.27 16.11 3.269 1.88 9.27-16.11-3.269-1.88zm-7.635 18.936h12.33v-3.772h-12.33v3.772zM410.721 106v-1.886h-1.546l-.303 1.516 1.849.37zm45.54 3.24l-.773 1.72.008.003.765-1.723zm11.16 9.27l-1.587 1.019 1.587-1.019zm-1.17 33.39l1.606.988.005-.008-1.611-.98zm-14.04 12.69l.837 1.69.007-.003-.844-1.687zm-54.09 4.41l-1.849-.37-.451 2.256h2.3V169zm47.16-21.69l-1.416-1.245-.001.001 1.417 1.244zm1.17-21.78l-1.255 1.407.01.009.009.008 1.236-1.424zm-17.82-2.97v-1.886h-1.547l-.302 1.518 1.849.368zm-5.94 29.88l-1.849-.368-.448 2.254h2.297v-1.886zm-11.97-44.554h28.44v-3.772h-28.44v3.772zm28.44 0c6.399 0 11.823 1.047 16.327 3.074l1.547-3.44c-5.097-2.293-11.072-3.406-17.874-3.406v3.772zm16.335 3.077c4.562 2.028 7.98 4.89 10.338 8.566l3.174-2.038c-2.801-4.364-6.824-7.682-11.981-9.974l-1.531 3.446zm10.338 8.566c2.359 3.674 3.572 8.049 3.572 13.201h3.771c0-5.768-1.367-10.873-4.169-15.239l-3.174 2.038zm3.572 13.201c0 6.958-1.607 13-4.765 18.19l3.221 1.96c3.561-5.85 5.315-12.588 5.315-20.15h-3.771zm-4.761 18.182c-3.167 5.146-7.576 9.141-13.277 11.991l1.687 3.374c6.299-3.15 11.249-7.615 14.802-13.389l-3.212-1.976zm-13.27 11.988c-5.644 2.793-12.13 4.214-19.504 4.214v3.772c7.867 0 14.94-1.519 21.177-4.606l-1.673-3.38zm-19.504 4.214h-33.75v3.772h33.75v-3.772zm-31.901 2.256l12.6-63-3.698-.74-12.6 63 3.698.74zm32.621-15.044c5.885 0 10.678-1.863 14.108-5.772l-2.835-2.488c-2.571 2.931-6.237 4.488-11.273 4.488v3.772zm14.107-5.771c3.411-3.88 5.059-8.787 5.059-14.565h-3.771c0 5.022-1.412 8.995-4.121 12.075l2.833 2.49zm5.059-14.565c0-4.08-1.29-7.47-4.069-9.884l-2.473 2.848c1.781 1.546 2.771 3.796 2.771 7.036h3.771zm-4.05-9.867c-2.69-2.399-6.451-3.449-10.976-3.449v3.772c3.995 0 6.714.93 8.465 2.491l2.511-2.814zm-10.976-3.449h-8.1v3.772h8.1v-3.772zm-9.949 1.518l-5.94 29.88 3.699.736 5.94-29.88-3.699-.736zm-4.091 32.134h9.9v-3.772h-9.9v3.772z" fill="url(#paint3_linear)"/></g><defs><filter id="filter0_f" x=".132" y=".531" width="537.792" height="195.497" filterUnits="userSpaceOnUse" color-interpolation-filters="sRGB"><feFlood flood-opacity="0" result="BackgroundImageFix"/><feBlend in="SourceGraphic" in2="BackgroundImageFix" result="shape"/><feGaussianBlur stdDeviation="12.571" result="effect1_foregroundBlur"/></filter><filter id="filter1_d" x="24.274" y="19.674" width="495.507" height="153.211" filterUnits="userSpaceOnUse" color-interpolation-filters="sRGB"><feFlood flood-opacity="0" result="BackgroundImageFix"/><feColorMatrix in="SourceAlpha" values="0 0 0 0 0 0 0 0 0 0 0 0 0 0 0 0 0 0 127 0"/><feOffset dx="3" dy="-2"/><feGaussianBlur stdDeviation="2"/><feColorMatrix values="0 0 0 0 1 0 0 0 0 0.341176 0 0 0 0 0.776471 0 0 0 0.5 0"/><feBlend in2="BackgroundImageFix" result="effect1_dropShadow"/><feBlend in="SourceGraphic" in2="effect1_dropShadow" result="shape"/></filter><linearGradient id="paint0_linear" x1="47.679" y1="67.933" x2="530.175" y2="134.374" gradientUnits="userSpaceOnUse"><stop stop-color="#D8BAFF"/><stop offset="1" stop-color="#FFCDF4"/></linearGradient><linearGradient id="paint1_linear" x1="47.679" y1="67.933" x2="530.175" y2="134.374" gradientUnits="userSpaceOnUse"><stop stop-color="#D8BAFF"/><stop offset="1" stop-color="#FFD7F6"/></linearGradient><linearGradient id="paint2_linear" x1="270.5" y1="33.25" x2="270.5" y2="85.75" gradientUnits="userSpaceOnUse"><stop stop-color="#fff" stop-opacity="0"/><stop offset=".583" stop-color="#fff"/><stop offset="1" stop-color="#fff" stop-opacity="0"/></linearGradient><linearGradient id="paint3_linear" x1="270.5" y1="104.125" x2="270.5" y2="161" gradientUnits="userSpaceOnUse"><stop stop-color="#fff" stop-opacity="0"/><stop offset=".583" stop-color="#fff"/><stop offset="1" stop-color="#fff" stop-opacity="0"/></linearGradient></defs></svg>