<svg width="20" height="20" fill="none" xmlns="http://www.w3.org/2000/svg"><path d="M19.655 16.549H.345A.345.345 0 0 1 0 16.204V3.79c0-.19.154-.345.345-.345h19.31c.19 0 .345.155.345.345v12.414c0 .19-.154.345-.345.345z" fill="#F5F5F5"/><path d="M20 8.966h-8.966V3.45H8.965v5.517H0v2.07h8.965v5.517h2.07v-5.518H20V8.966z" fill="#FF4B55"/><path d="M5.862 5.736l-1.011.103.103-1.01c-.313.04-.63.04-.942 0l.103 1.01-1.011-.103c.04.313.04.63 0 .943l1.01-.104-.102 1.012c.313-.04.629-.04.942 0l-.103-1.012c.335.035.67.07 1.011.104-.04-.314-.04-.63 0-.943zM16.897 5.736l-1.011.103.103-1.01c-.313.04-.63.04-.942 0l.103 1.01-1.011-.103c.04.313.04.63 0 .943l1.01-.104-.102 1.012c.313-.04.629-.04.942 0l-.103-1.012c.335.035.67.07 1.011.104a3.68 3.68 0 0 1 0-.943zM5.862 13.326l-1.011.103.103-1.011c-.313.04-.63.04-.942 0l.103 1.011-1.011-.103c.04.313.04.63 0 .942l1.01-.103-.102 1.012c.313-.041.629-.041.942 0l-.103-1.012c.335.035.67.07 1.011.104-.04-.314-.04-.63 0-.943zM16.897 13.326l-1.011.103.103-1.011c-.313.04-.63.04-.942 0l.103 1.011-1.011-.103c.04.313.04.63 0 .942l1.01-.103-.102 1.012c.313-.041.629-.041.942 0l-.103-1.012c.335.035.67.07 1.011.104a3.68 3.68 0 0 1 0-.943z" fill="#FF4B55"/></svg>