<svg width="20" height="20" fill="none" xmlns="http://www.w3.org/2000/svg"><path d="M19.655 3.445H.345A.345.345 0 0 0 0 3.79v12.414c0 .19.154.345.345.345h19.31c.19 0 .345-.155.345-.345V3.79a.345.345 0 0 0-.345-.345z" fill="#82C3D2"/><path d="M2.325 5.018c-.032-.132-.04-.18.02-.24a.074.074 0 1 0-.105-.105c-.12.12-.091.245-.06.377-.095-.031-.193-.008-.245.058-.026.033-.077.126.018.274a.074.074 0 0 0 .125-.08c-.036-.055-.037-.09-.027-.102.011-.015.048-.023.086-.01.024.01.082.039.082.128a.22.22 0 0 1-.09.178.226.226 0 0 1-.204.033c-.089-.027-.15-.12-.15-.227a.55.55 0 0 1 .046-.22c.005-.01.118-.245.147-.333.057-.172-.001-.26-.041-.295a.185.185 0 0 0-.199-.032L1.7 4.44c-.008-.006-.017-.012-.027-.017a.185.185 0 0 0-.199.032c-.04.036-.098.123-.04.295.028.088.141.322.145.33.031.07.047.147.047.223 0 .106-.061.2-.15.227a.226.226 0 0 1-.203-.033.22.22 0 0 1-.09-.178c0-.09.056-.119.081-.127.038-.014.074-.006.086.009.01.013.009.047-.026.103a.074.074 0 1 0 .124.08c.095-.149.044-.242.018-.275-.052-.066-.15-.09-.245-.058.031-.132.06-.257-.06-.377a.074.074 0 1 0-.105.105c.06.06.052.108.02.24a1.24 1.24 0 0 0-.042.3.37.37 0 0 0 .077.222h-.003a.074.074 0 1 0 0 .148h.003a.37.37 0 0 0-.077.222c0 .122.024.22.042.3.031.132.04.18-.02.24a.074.074 0 1 0 .105.104c.12-.12.091-.244.06-.376.095.03.193.008.245-.059.026-.033.077-.126-.018-.274a.074.074 0 0 0-.124.08c.035.056.036.09.026.103-.012.014-.048.022-.086.009-.025-.009-.082-.038-.082-.127a.22.22 0 0 1 .09-.179.226.226 0 0 1 .204-.032c.089.027.15.12.15.227a.552.552 0 0 1-.047.223l-.485 1.09a.693.693 0 0 0-.06.283c0 .127.058.242.148.312a.396.396 0 0 0-.148.312c0 .098.02.194.06.283l.485 1.09c.031.07.047.148.047.224 0 .106-.061.2-.15.227a.225.225 0 0 1-.204-.033.22.22 0 0 1-.09-.178c0-.09.057-.119.082-.127.038-.014.074-.006.086.009.01.012.009.047-.027.103a.074.074 0 1 0 .125.08c.095-.149.044-.242.018-.275-.052-.066-.15-.09-.245-.058.03-.132.06-.257-.06-.377a.074.074 0 1 0-.105.105c.06.06.051.108.02.24-.018.08-.042.178-.042.3a.37.37 0 0 0 .077.222h-.003a.074.074 0 1 0 0 .148h.003a.37.37 0 0 0-.077.222c0 .121.024.22.042.3.031.132.04.18-.02.24a.074.074 0 0 0 .105.104c.12-.12.09-.244.06-.376.095.03.193.008.245-.059.026-.033.077-.126-.018-.274a.074.074 0 0 0-.125.08c.036.056.037.09.027.103-.012.014-.048.022-.086.009-.025-.009-.082-.038-.082-.127a.22.22 0 0 1 .09-.179.226.226 0 0 1 .204-.032c.089.027.15.12.15.227a.553.553 0 0 1-.047.223l-.485 1.09a.693.693 0 0 0-.06.283c0 .127.058.242.148.312a.396.396 0 0 0-.148.312c0 .098.02.194.06.283l.485 1.091c.031.07.047.147.047.223 0 .107-.061.2-.15.227a.226.226 0 0 1-.204-.032.22.22 0 0 1-.09-.18c0-.088.057-.118.082-.126.038-.014.074-.006.086.009.01.013.009.047-.027.103a.074.074 0 1 0 .125.08c.095-.149.044-.242.018-.275-.052-.066-.15-.09-.245-.058.03-.132.06-.257-.06-.377a.074.074 0 0 0-.105.105c.06.06.051.108.02.24-.018.08-.042.178-.042.3 0 .116.056.226.149.296a.372.372 0 0 0-.149.296c0 .122.024.22.042.3.031.132.04.18-.02.24a.074.074 0 1 0 .105.104c.12-.12.09-.244.06-.376.095.03.193.008.245-.059.026-.033.077-.125-.018-.274a.074.074 0 0 0-.125.08c.036.056.037.09.027.103-.012.014-.048.022-.086.009-.025-.009-.082-.038-.082-.127a.22.22 0 0 1 .09-.179.226.226 0 0 1 .204-.032c.089.027.15.12.15.227a.55.55 0 0 1-.046.22c-.005.01-.118.245-.147.332-.058.173.001.26.04.296a.183.183 0 0 0 .2.031c.01-.004.019-.01.027-.017.01.006.018.013.028.017a.183.183 0 0 0 .199-.031c.04-.036.098-.123.04-.296-.028-.087-.141-.322-.145-.33a.553.553 0 0 1-.048-.222c0-.107.062-.2.15-.227a.226.226 0 0 1 .204.032.22.22 0 0 1 .09.179c0 .089-.057.118-.081.127-.038.013-.075.005-.086-.01-.01-.012-.01-.046.026-.102a.074.074 0 1 0-.124-.08c-.095.149-.044.241-.018.274.052.067.15.09.245.059-.031.132-.06.256.06.376a.074.074 0 0 0 .105 0 .074.074 0 0 0 0-.104c-.06-.06-.052-.108-.02-.24.018-.08.042-.178.042-.3a.371.371 0 0 0-.149-.296.372.372 0 0 0 .149-.296c0-.122-.024-.22-.042-.3-.032-.132-.04-.18.02-.24a.074.074 0 0 0-.105-.105c-.12.12-.091.245-.06.377-.095-.031-.193-.008-.245.058-.026.033-.077.126.018.274a.074.074 0 0 0 .125-.08c-.036-.055-.037-.09-.027-.102.012-.015.048-.023.086-.01.025.01.082.039.082.128a.22.22 0 0 1-.09.178.225.225 0 0 1-.204.033c-.089-.027-.15-.12-.15-.227 0-.076.016-.153.047-.223l.485-1.09c.04-.09.06-.186.06-.284a.396.396 0 0 0-.148-.312.396.396 0 0 0 .148-.312.693.693 0 0 0-.06-.283l-.485-1.09a.553.553 0 0 1-.047-.223c0-.107.061-.2.15-.227a.226.226 0 0 1 .203.032.22.22 0 0 1 .09.179c0 .089-.056.118-.081.127-.038.013-.074.006-.086-.01-.01-.012-.009-.046.026-.102a.074.074 0 1 0-.124-.08c-.095.149-.044.242-.018.275.052.066.15.089.245.058-.031.132-.06.256.06.377a.074.074 0 0 0 .105-.105c-.06-.06-.051-.108-.02-.24.018-.08.042-.178.042-.3a.37.37 0 0 0-.077-.222h.003a.074.074 0 1 0 0-.148H2.29a.37.37 0 0 0 .077-.222c0-.122-.024-.22-.042-.3-.031-.132-.04-.18.02-.24a.074.074 0 1 0-.105-.105c-.12.12-.09.245-.06.377-.094-.03-.193-.008-.245.058-.026.033-.077.126.018.274a.074.074 0 0 0 .125-.08c-.036-.055-.037-.09-.027-.102.012-.015.048-.022.086-.01.025.01.082.039.082.128a.22.22 0 0 1-.09.179.226.226 0 0 1-.204.032c-.089-.027-.15-.12-.15-.227 0-.076.016-.153.047-.223l.485-1.09c.04-.09.06-.185.06-.284a.396.396 0 0 0-.148-.312.396.396 0 0 0 .148-.312.693.693 0 0 0-.06-.283l-.485-1.09a.553.553 0 0 1-.047-.223c0-.107.061-.2.15-.227a.226.226 0 0 1 .203.032.22.22 0 0 1 .09.179c0 .09-.056.119-.081.127-.038.013-.074.006-.086-.01-.01-.012-.009-.046.027-.102a.074.074 0 1 0-.125-.08c-.095.149-.044.241-.018.275.052.066.15.089.245.058-.031.132-.06.256.06.376a.074.074 0 0 0 .105 0 .074.074 0 0 0 0-.104c-.06-.06-.051-.108-.02-.24.019-.08.042-.178.042-.3a.37.37 0 0 0-.077-.222h.003a.074.074 0 1 0 0-.148H2.29a.37.37 0 0 0 .077-.222c0-.122-.024-.22-.042-.3zm-.752-.315c-.026-.08-.017-.124 0-.14.012-.01.03-.01.04-.005.013.005.013.015.013.02a.074.074 0 1 0 .148 0c0-.005 0-.015.014-.02a.037.037 0 0 1 .04.005c.017.016.026.06 0 .14-.02.057-.089.206-.127.287a3.928 3.928 0 0 1-.128-.287zM1.7 7.757a.366.366 0 0 0 .075.077.367.367 0 0 0-.075.078.366.366 0 0 0-.074-.078.366.366 0 0 0 .074-.077zm0 4.44a.364.364 0 0 0 .075.078.369.369 0 0 0-.075.078.366.366 0 0 0-.074-.078.364.364 0 0 0 .074-.077zm.127 3.21c.027.079.017.124 0 .14a.038.038 0 0 1-.04.005c-.013-.006-.013-.015-.013-.02a.074.074 0 1 0-.148 0c0 .005 0 .014-.013.02-.01.005-.028.005-.04-.005-.017-.016-.026-.061 0-.14.02-.057.089-.206.127-.287.038.079.108.23.127.287zm-.053-.911a.367.367 0 0 0-.074.077.366.366 0 0 0-.073-.077.367.367 0 0 0 .073-.078c.021.03.046.056.074.078zm.397-1.686l-.47 1.06-.471-1.06a.553.553 0 0 1-.048-.223c0-.106.062-.2.15-.226a.226.226 0 0 1 .204.032.22.22 0 0 1 .09.178c0 .09-.057.119-.081.127-.038.014-.075.006-.086-.009-.01-.012-.01-.047.026-.103a.074.074 0 1 0-.125-.08c-.094.15-.044.242-.018.275.054.068.155.091.251.057a.26.26 0 0 0 .033-.014v.187a.074.074 0 0 0-.148.005c0 .048.034.132.148.158v.138a.074.074 0 1 0 .148 0v-.138c.115-.026.148-.11.148-.159a.076.076 0 0 0-.073-.076c-.041 0-.074.03-.074.072v-.187c.01.006.021.01.032.014.097.034.198.01.251-.057.026-.033.077-.126-.018-.274a.074.074 0 0 0-.125.08c.036.055.037.09.027.102-.012.015-.048.023-.086.01-.025-.009-.082-.038-.082-.127a.22.22 0 0 1 .09-.18.225.225 0 0 1 .204-.031c.089.027.15.12.15.226a.55.55 0 0 1-.047.223zm0-1.07c.031.07.048.147.048.223 0 .107-.062.2-.15.227a.226.226 0 0 1-.204-.032.22.22 0 0 1-.09-.179c0-.089.057-.118.081-.127.038-.013.075-.005.086.01.01.012.01.046-.026.102a.074.074 0 1 0 .124.08c.095-.149.044-.241.018-.274-.053-.068-.154-.091-.25-.058a.276.276 0 0 0-.034.014v-.187a.074.074 0 0 0 .148-.004c0-.048-.033-.132-.148-.158v-.138a.074.074 0 1 0-.148 0v.138c-.114.026-.148.11-.148.158 0 .041.033.077.074.077.041 0 .074-.031.074-.072v.187a.26.26 0 0 0-.033-.015c-.096-.033-.197-.01-.25.058-.027.033-.077.126.018.274a.074.074 0 0 0 .125-.08c-.036-.056-.037-.09-.027-.103.011-.014.048-.022.086-.009.024.009.081.038.081.127a.22.22 0 0 1-.09.179.225.225 0 0 1-.203.032c-.089-.027-.15-.12-.15-.227 0-.076.016-.153.047-.223l.47-1.059.471 1.06zm-.397-1.685a.367.367 0 0 0-.074.077.369.369 0 0 0-.073-.077.368.368 0 0 0 .073-.078c.021.03.046.056.074.078zm.397-1.686l-.47 1.06-.471-1.06a.553.553 0 0 1-.048-.223c0-.106.062-.2.15-.227a.226.226 0 0 1 .204.033.22.22 0 0 1 .09.178c0 .09-.057.119-.081.127-.038.014-.075.006-.086-.009-.01-.012-.01-.047.026-.103a.074.074 0 1 0-.125-.08c-.094.15-.044.242-.018.275.054.068.155.09.251.057a.262.262 0 0 0 .033-.014v.187a.074.074 0 0 0-.148.004c0 .049.034.132.148.158v.138a.074.074 0 1 0 .148 0v-.138c.115-.026.148-.11.148-.158a.076.076 0 0 0-.073-.076c-.041 0-.074.03-.074.071v-.186c.01.006.021.01.032.014.097.034.198.01.251-.057.026-.033.077-.126-.018-.274a.074.074 0 1 0-.124.08c.035.055.036.09.026.102-.012.015-.048.023-.086.01-.025-.01-.082-.039-.082-.128a.22.22 0 0 1 .09-.178.226.226 0 0 1 .204-.033c.089.027.15.12.15.227a.55.55 0 0 1-.047.223zm0-1.07c.031.07.048.147.048.223 0 .107-.062.2-.15.227a.226.226 0 0 1-.204-.032.22.22 0 0 1-.09-.179c0-.089.057-.118.081-.127.038-.013.075-.006.086.01.01.012.01.046-.026.102a.074.074 0 1 0 .124.08c.095-.149.044-.241.018-.274-.053-.068-.154-.091-.25-.058a.26.26 0 0 0-.034.014v-.187a.074.074 0 0 0 .148-.004c0-.048-.033-.132-.148-.158v-.138a.074.074 0 1 0-.148 0v.138c-.114.026-.148.11-.148.158 0 .041.033.077.074.077.041 0 .074-.031.074-.072v.186a.26.26 0 0 0-.033-.014c-.096-.033-.197-.01-.25.058-.027.033-.077.125.018.274a.074.074 0 0 0 .125-.08c-.036-.056-.037-.09-.027-.103.011-.015.048-.022.086-.009.024.009.081.038.081.127a.22.22 0 0 1-.09.179.226.226 0 0 1-.203.032c-.089-.027-.15-.12-.15-.227 0-.076.016-.153.047-.223L1.7 6.24l.471 1.06zm-.544-1.685a.368.368 0 0 0 .073-.078c.021.03.046.056.074.078a.368.368 0 0 0-.074.077.366.366 0 0 0-.073-.077zM10.575 10.961a1.781 1.781 0 1 0 0-3.563 1.781 1.781 0 0 0 0 3.563zM10.71 6.909a.134.134 0 1 1-.268 0c0-.074.134-.401.134-.401s.134.327.134.4zM10.442 11.454a.134.134 0 0 1 .268 0c0 .074-.134.4-.134.4s-.134-.326-.134-.4zM12.848 9.318a.134.134 0 0 1 0-.267c.073 0 .4.133.4.133s-.327.134-.4.134zM8.304 9.047a.134.134 0 0 1 0 .267c-.074 0-.4-.133-.4-.133s.326-.134.4-.134zM12.276 7.67a.134.134 0 0 1-.189-.188c.052-.052.378-.189.378-.189s-.137.326-.189.378zM8.875 10.695a.134.134 0 1 1 .19.19c-.053.052-.378.188-.378.188s.136-.325.188-.378zM12.088 10.884a.134.134 0 0 1 .189-.189c.052.053.189.378.189.378s-.326-.136-.378-.189zM9.064 7.482a.134.134 0 1 1-.188.189c-.053-.052-.19-.378-.19-.378s.326.137.378.189zM9.83 7.034a.134.134 0 1 1-.247.102c-.029-.068-.03-.421-.03-.421s.248.25.277.32zM11.322 11.333a.134.134 0 0 1 .247-.102c.028.068.03.421.03.421s-.25-.25-.277-.319zM12.726 8.437a.134.134 0 1 1-.102-.247c.068-.028.421-.03.421-.03s-.251.249-.32.277zM8.427 9.928a.134.134 0 1 1 .102.247c-.068.028-.422.03-.422.03s.251-.249.32-.277zM11.568 7.132a.134.134 0 1 1-.247-.102c.028-.068.277-.32.277-.32s-.002.354-.03.422zM9.583 11.231a.134.134 0 0 1 .247.102c-.029.068-.277.32-.277.32s.001-.354.03-.422zM12.623 10.175a.134.134 0 0 1 .103-.247c.068.028.319.277.319.277s-.353-.002-.421-.03zM8.529 8.19a.134.134 0 0 1-.102.247c-.069-.028-.32-.277-.32-.277s.354.002.422.03zM10.263 6.926a.134.134 0 1 1-.262.052c-.014-.073.053-.42.053-.42s.195.295.21.368zM10.888 11.437a.134.134 0 0 1 .262-.052c.015.072-.052.42-.052.42s-.195-.296-.21-.368zM12.83 8.87a.134.134 0 1 1-.053-.263c.073-.014.42.053.42.053s-.295.195-.367.21zM8.322 9.495a.134.134 0 1 1 .052.262c-.072.014-.419-.053-.419-.053s.295-.195.367-.21zM11.949 7.369a.134.134 0 1 1-.222-.149c.04-.061.333-.26.333-.26s-.07.347-.111.409zM9.202 10.997a.134.134 0 1 1 .223.148c-.041.062-.334.26-.334.26s.07-.347.111-.408zM12.39 10.557a.134.134 0 1 1 .149-.222c.061.041.259.334.259.334s-.346-.07-.408-.112zM8.761 7.81a.134.134 0 1 1-.148.223c-.062-.041-.26-.334-.26-.334s.347.07.408.112zM9.425 7.22a.134.134 0 0 1-.223.148c-.04-.06-.111-.407-.111-.407s.293.198.334.259zM11.727 11.142a.134.134 0 0 1 .222-.149c.04.061.111.407.111.407s-.292-.197-.333-.258zM12.539 8.033a.134.134 0 0 1-.149-.222c.062-.041.408-.112.408-.112s-.198.293-.26.334zM8.613 10.335a.134.134 0 0 1 .148.222c-.061.041-.407.112-.407.112s.197-.293.259-.334zM11.15 6.978a.134.134 0 1 1-.262-.052c.015-.073.21-.367.21-.367s.067.346.052.419zM10.001 11.385a.134.134 0 0 1 .262.052c-.014.072-.21.367-.21.367s-.066-.347-.052-.42zM12.777 9.757a.134.134 0 1 1 .053-.262c.072.014.367.21.367.21s-.347.066-.42.052zM8.374 8.607a.134.134 0 1 1-.052.263c-.072-.015-.367-.21-.367-.21s.347-.067.42-.053z" fill="#FFE15A"/><path d="M14.767 9.65a.102.102 0 0 0-.134.056l-.006.014c-.077.18-.237.444-.398.692.15-.484.288-1 .297-1.037a.102.102 0 0 0-.197-.053 6.12 6.12 0 0 1-.346.861c.024-.312.029-.6.03-.622a.102.102 0 0 0-.098-.103c-.052.001-.103.04-.107.094-.13 1.8-1.862 2.605-2.03 2.679a4.2 4.2 0 0 0-.873.185c-.042.014-.078.029-.114.044a.103.103 0 0 0-.043-.007c-1.144.083-2.057-.387-2.713-1.393a4.915 4.915 0 0 1-.652-1.566.102.102 0 1 0-.2.038c.003.022.071.37.26.829a4.294 4.294 0 0 1-.489-1.128c-.001-.005-.004-.009-.006-.013l-.01-.02-.01-.012c-.006-.006-.011-.012-.018-.016l-.013-.006c-.007-.003-.015-.007-.023-.008h-.018c-.006 0-.012-.002-.018-.001l-.004.001H6.83l-.014.007c-.007.003-.013.005-.019.009l-.014.013c-.005.005-.01.01-.013.015-.004.005-.005.011-.008.017l-.007.018v.02c0 .006-.002.012 0 .017v.007l.001.002c.063.373.214.759.35 1.053-.216-.245-.397-.528-.461-.696-.002-.005-.005-.008-.008-.012-.004-.007-.007-.014-.012-.02l-.012-.01c-.007-.004-.013-.01-.02-.013l-.014-.004c-.008-.003-.015-.005-.023-.006l-.019.002c-.006.001-.012 0-.018.002l-.003.002h-.003l-.014.01-.017.01-.013.016c-.004.005-.008.01-.01.015-.004.006-.005.013-.006.02l-.005.018.002.02c.001.006 0 .011.002.017.111.359.379.785.588 1.086a2.364 2.364 0 0 1-.34-.324l-.012-.014a.102.102 0 0 0-.158.129l.022.027c.153.182.32.352.472.496l-.207-.088a.102.102 0 0 0-.102.175c.02.015.387.29.704.451a.824.824 0 0 1-.104-.003.102.102 0 0 0-.046.196c.007.003.104.043.223.085a.102.102 0 0 0-.012.183c.01.007.155.09.334.163a.102.102 0 0 0 .028.14c.03.021.724.492 1.535.492.053 0 .107-.002.16-.006a.102.102 0 1 0-.016-.204c-.509.042-1-.15-1.29-.296a.512.512 0 0 0 .065-.02.102.102 0 0 0-.036-.197c-.118-.002-.282-.06-.424-.122.054-.026.085-.052.087-.054a.102.102 0 0 0-.048-.18 1.305 1.305 0 0 1-.155-.038.214.214 0 0 0 .088-.084.102.102 0 0 0-.07-.146.592.592 0 0 1-.09-.028.102.102 0 0 0-.01-.153 6.064 6.064 0 0 1-.2-.168.102.102 0 0 0 .044-.16 7.385 7.385 0 0 1-.192-.254c.037.028.073.057.109.08a.103.103 0 0 0 .126-.012.103.103 0 0 0 .02-.027c.061.067.127.127.195.178.009.007.02.007.03.01.029.049.059.097.09.146.62.954 1.496 1.466 2.545 1.496-.097.06-.202.12-.368.184l-.1.043a.097.097 0 0 0-.042.018c-.29.134-.41.267-.459.36-.048.092-.007.187.053.236a.105.105 0 0 0 .171-.084c.004-.005.022-.02.077-.022.041-.003.127.006.226.014.095.008.209.017.33.023l-.164.19a.102.102 0 0 0 .081.17c.08-.004.136-.005.172-.006.031.041.07.057.095.064.07.018.14-.01.192-.044.04.029.08.041.112.046a.325.325 0 0 0 .185-.035c.05.032.098.04.135.04h.002c.08 0 .15-.039.199-.076a.25.25 0 0 0 .117.036.302.302 0 0 0 .174-.052.405.405 0 0 0 .35-.114.182.182 0 0 0 .102.025.237.237 0 0 0 .164-.086c.163.02.28-.01.348-.09a.245.245 0 0 0 .056-.139c.453-.002.494-.25.497-.28a.102.102 0 0 0-.095-.113l-1.188-.072a.101.101 0 0 0-.105.079s-.02.076-.084.136c-.085.082-.222.125-.372.147a.103.103 0 0 0-.139-.1c-.244.096-.641.084-.952.062.048-.038.105-.077.151-.102a.102.102 0 0 0 .051-.109c-.006-.031-.029-.053-.056-.067a3.11 3.11 0 0 0 .224-.127c.117-.072.227-.139.427-.209.388-.134.835-.175.84-.175.01-.001.02-.004.03-.008.015-.006 1.28-.535 1.874-1.757-.007.037-.016.07-.025.1a.102.102 0 0 0 .167.105c-.037.1-.071.178-.1.224a.102.102 0 0 0 .066.152 3.225 3.225 0 0 1-.14.19.102.102 0 0 0 .004.131 2.48 2.48 0 0 1-.205.197.102.102 0 0 0-.03.117.684.684 0 0 1-.125.06.102.102 0 0 0-.03.18c-.062.017-.13.033-.205.048a.102.102 0 0 0-.03.189c.002.002.037.021.09.044-.197.08-.55.184-1.129.24a.102.102 0 0 0-.091.113.103.103 0 0 0 .111.092c1.1-.11 1.439-.384 1.453-.396a.102.102 0 0 0-.019-.169c.351-.11.502-.233.51-.24a.102.102 0 0 0-.102-.173.406.406 0 0 1-.06.015 13.069 13.069 0 0 0 .648-.48.102.102 0 0 0-.13-.159 2.714 2.714 0 0 1-.236.163c.268-.304.537-.633.614-.727l.021-.026a.102.102 0 0 0-.159-.128l-.025.031c-.08.098-.166.194-.25.283.273-.494.48-.98.51-1.052 0-.003.002-.006.003-.008a.102.102 0 0 0-.055-.133zm-4.789 3.445l.028.003a.479.479 0 0 0-.084.105 3.547 3.547 0 0 0-.127-.009c.047-.03.108-.065.183-.1z" fill="#FFE15A"/></svg>