<svg width="23" height="30" fill="none" xmlns="http://www.w3.org/2000/svg"><path fill-rule="evenodd" clip-rule="evenodd" d="M11.5.492c-3.6 0-6.523 2.79-6.523 6.213v5.883H2.488c-1.092 0-1.977.847-1.977 1.88v13.159c0 1.035.885 1.881 1.977 1.881h18.024c1.093 0 1.977-.846 1.977-1.881V14.47c0-1.036-.884-1.882-1.977-1.882h-2.488V6.705c0-3.423-2.925-6.213-6.524-6.213zM4.465 6.705C4.465 3.005 7.623 0 11.5 0c3.877 0 7.035 3.006 7.035 6.705v5.391h1.977c1.37 0 2.488 1.062 2.488 2.373v13.158C23 28.937 21.882 30 20.512 30H2.488C1.118 30 0 28.938 0 27.627V14.469c0-1.31 1.118-2.373 2.488-2.373h1.977V6.705zm1.489 0c0-2.918 2.49-5.286 5.546-5.286s5.546 2.368 5.546 5.286v5.883H5.954V6.705zM11.5 1.91c-2.778 0-5.035 2.154-5.035 4.795v5.391h10.07V6.705c0-2.641-2.256-4.795-5.035-4.795zM1.49 14.47c0-.53.45-.956 1-.956h18.023c.549 0 1 .426 1 .956v13.157c0 .53-.451.955-1 .955H2.488c-.55 0-1-.426-1-.955V14.47zm1-.464a.477.477 0 0 0-.49.463v13.158c0 .253.218.463.49.463h18.023c.271 0 .489-.21.489-.463V14.47a.477.477 0 0 0-.489-.464H2.488zm9.011 2.431c-1.556 0-2.818 1.206-2.818 2.683 0 .732.32 1.442.879 1.947l.08.073v2.75c0 .973.832 1.769 1.86 1.769 1.026 0 1.858-.796 1.858-1.77v-2.75l.08-.072a2.635 2.635 0 0 0 .88-1.947c0-1.477-1.263-2.683-2.819-2.683zM8.171 19.12c0-1.753 1.495-3.174 3.33-3.174 1.833 0 3.328 1.421 3.328 3.174 0 .833-.348 1.639-.96 2.23v2.54c0 1.249-1.064 2.26-2.369 2.26-1.304 0-2.37-1.011-2.37-2.26v-2.54a3.113 3.113 0 0 1-.959-2.23zm1.489 0c0-.97.828-1.756 1.84-1.756 1.013 0 1.84.785 1.84 1.756 0 .489-.205.945-.578 1.279-.243.218-.38.521-.38.83v2.66c0 .468-.398.843-.882.843s-.881-.375-.881-.842v-2.66c0-.31-.138-.613-.38-.83a1.709 1.709 0 0 1-.58-1.28zm1.84-1.264c-.735 0-1.329.57-1.329 1.264 0 .352.147.678.416.92.345.309.543.741.543 1.19v2.66c0 .19.164.35.37.35s.37-.16.37-.35v-2.66c0-.449.2-.881.544-1.19.268-.242.416-.568.416-.92 0-.695-.595-1.264-1.33-1.264z" fill="#fff"/><path fill-rule="evenodd" clip-rule="evenodd" d="M4.977 6.705C4.977 3.282 7.9.492 11.5.492c3.6 0 6.524 2.79 6.524 6.213v5.883h2.488c1.093 0 1.977.846 1.977 1.882v13.157c0 1.035-.884 1.881-1.977 1.881H2.488c-1.092 0-1.977-.846-1.977-1.881V14.469c0-1.034.885-1.881 1.977-1.881h2.489V6.705zm.977 0c0-2.918 2.49-5.286 5.546-5.286s5.546 2.368 5.546 5.286v5.883H5.954V6.705zm-4.465 7.764c0-.529.45-.955 1-.955h18.023c.549 0 1 .426 1 .956v13.157c0 .53-.451.955-1 .955H2.488c-.55 0-1-.426-1-.955V14.47z" fill="#fff"/><path fill-rule="evenodd" clip-rule="evenodd" d="M8.682 19.12c0-1.477 1.262-2.683 2.818-2.683s2.818 1.206 2.818 2.683c0 .733-.32 1.442-.878 1.947l-.081.073v2.75c0 .973-.832 1.769-1.859 1.769-1.027 0-1.859-.796-1.859-1.77v-2.75l-.08-.072a2.635 2.635 0 0 1-.879-1.947zm.978 0c0-.97.828-1.756 1.84-1.756 1.013 0 1.84.785 1.84 1.756 0 .489-.205.945-.578 1.279-.243.218-.38.521-.38.83v2.66c0 .468-.398.843-.882.843s-.881-.375-.881-.842v-2.66c0-.31-.138-.613-.38-.83a1.709 1.709 0 0 1-.58-1.28z" fill="#fff"/></svg>