<svg width="179" height="35" fill="none" xmlns="http://www.w3.org/2000/svg"><path fill-rule="evenodd" clip-rule="evenodd" d="M177.087 20.7c-.823 1.34-1.977 2.38-3.461 3.117-1.485.739-3.195 1.108-5.129 1.108h-8.095V7.107h8.095c1.934 0 3.644.369 5.129 1.107 1.484.738 2.638 1.778 3.461 3.118.823 1.34 1.235 2.902 1.235 4.684s-.412 3.343-1.235 4.683zm-4.531-8.719c-1.06-.992-2.481-1.489-4.263-1.489h-3.767V21.54h3.767c1.782 0 3.203-.496 4.263-1.489 1.061-.992 1.591-2.337 1.591-4.034 0-1.697-.53-3.042-1.591-4.035zm-22.463 9.126h-8.272l-1.578 3.818h-4.226l7.942-17.818h4.072l7.968 17.818h-4.328l-1.578-3.818zm-4.123-9.953l-2.826 6.822h5.651l-2.825-6.822zm-17.513 13.77l-3.436-4.963h-3.793v4.964h-4.123V7.107h7.712c1.579 0 2.949.263 4.111.789 1.163.526 2.058 1.273 2.686 2.24.628.967.941 2.113.941 3.436 0 1.324-.318 2.465-.954 3.424-.636.959-1.54 1.693-2.711 2.202l3.996 5.727h-4.429zm-1.043-13.655c-.645-.535-1.587-.802-2.826-.802h-3.36v6.21h3.36c1.239 0 2.181-.27 2.826-.814.645-.543.967-1.306.967-2.29 0-1.002-.322-1.77-.967-2.304zM97.48 7.107h13.465v3.309h-9.367v3.869h8.272v3.207h-8.272v4.124h9.698v3.309H97.48V7.107zM81.673 24.925L73.986 7.107h4.454l5.422 12.727L89.36 7.107h4.098l-7.712 17.818h-4.073zM56.957 7.107h13.465v3.309h-9.367v3.869h8.273v3.207h-8.273v4.124h9.698v3.309H56.957V7.107z" fill="#fff"/><path fill-rule="evenodd" clip-rule="evenodd" d="M4.357 17.5L26.17 5.002V0L0 15.007v5.002L26.17 35l13.07-7.496v-5.002l-13.07 7.496L4.358 17.5zm30.527-2.493L21.8 22.502l4.372 2.51 8.713-5.003v-5.002zm-4.356-7.512L13.086 17.5l4.356 2.51 13.086-7.512V7.495z" fill="#FF8A00"/></svg>