<svg width="20" height="20" fill="none" xmlns="http://www.w3.org/2000/svg"><path d="M13.333 3.45h6.322c.19 0 .345.154.345.344v12.414c0 .19-.155.345-.345.345h-6.322V3.449z" fill="#FF4B55"/><path d="M13.334 3.45H6.667v13.103h6.667V3.449z" fill="#FFE15A"/><path d="M.345 3.45h6.322v13.103H.345A.345.345 0 0 1 0 16.208V3.794c0-.19.154-.345.345-.345z" fill="#41479B"/><path d="M11.222 12.363l.172-.14-.782-.959-.172.14.782.959z" fill="#FFCD5A"/><path d="M10.698 11.897l.343-.28-.344-.422-.343.28.344.422z" fill="#FFBE5A"/><path d="M9.656 11.405l-.172-.14-.781.96.171.14.782-.96z" fill="#FFCD5A"/><path d="M9.742 11.475l-.344-.28-.343.422.343.28.344-.422z" fill="#FFBE5A"/><path d="M9.772 11.625l-.553 1.107.774.553v-1.55l-.221-.11z" fill="#FFE15A"/><path d="M10.213 11.625l.554 1.107-.775.553v-1.55l.221-.11z" fill="#FFCD5A"/><path d="M8.442 11.623V8.746h.332v2.213c0 .332-.332.664-.332.664z" fill="#FFBE5A"/><path d="M8.222 12.176v-3.43h.332v2.766c0 .332-.332.664-.332.664z" fill="#FFCD5A"/><path d="M8 12.619V8.746h.332v3.209c0 .332-.332.664-.332.664z" fill="#FFE15A"/><path d="M8.774 8.86v2.102c0 .553.803.48 1.218.885.414-.406 1.217-.332 1.217-.885V8.859H8.774z" fill="#FF4B55"/><path d="M8.774 10.074v.886c0 .553.803.479 1.218.885.414-.406 1.217-.332 1.217-.886v-.885H8.774z" fill="#41479B"/><path d="M9.993 11.513l-.332-.222v-.11l.11-.111v-.664l-.332-.221.332-.443h.111l.11.11.111-.11h.111l.332.443-.332.221v.664l.11.11v.111l-.331.222z" fill="#FFE15A"/><path d="M9.551 8.969s-.443.11-.443.553c0 .443.443.664.443.664l.221-.332c-.664-.221-.221-.885-.221-.885zM10.436 8.969s.443.11.443.553c0 .443-.443.664-.443.664l-.221-.332c.664-.221.221-.885.221-.885zM8.887 10.08l.221.11.221-.11-.221-.111-.221.11zM10.657 10.08l.222.11.22-.11-.22-.111-.222.11zM9.993 9.027l.08.083.116-.002-.001.116.082.08-.082.08.001.116-.115-.002-.08.083-.081-.083-.115.002.001-.116-.082-.08.082-.08-.001-.116.115.002.08-.083zM9.242 10.56l.08.09.11-.044a.065.065 0 0 1 .081.093l-.06.103.077.092a.065.065 0 0 1-.064.105l-.117-.024-.064.1a.065.065 0 0 1-.12-.028l-.012-.119-.116-.03a.065.065 0 0 1-.01-.122l.109-.048-.007-.12a.065.065 0 0 1 .113-.047zM10.716 10.81a.285.285 0 0 1 .25-.228.281.281 0 0 0-.416.196.286.286 0 0 0 .312.338.285.285 0 0 1-.146-.305zM9.55 8.859l.222-1.106-.443-.332.11-.111h.222s.11-.11.332-.11c.221 0 .443.11.443.442s.11 1.217.11 1.217H9.55z" fill="#FFE15A"/><path d="M8.775 8.418a.443.443 0 0 0-.443.443h.885a.443.443 0 0 0-.442-.443z" fill="#FFAA5A"/><path d="M8.664 8.855H8V8.12a.26.26 0 0 1 .26-.26h.145a.26.26 0 0 1 .259.26v.736zM11.54 11.623V8.746h-.332v2.213c0 .332.332.664.332.664z" fill="#FFBE5A"/><path d="M11.763 12.176v-3.43h-.332v2.766c0 .332.332.664.332.664z" fill="#FFCD5A"/><path d="M11.984 12.619V8.746h-.332v3.209c0 .332.332.664.332.664z" fill="#FFE15A"/><path d="M11.21 8.418c.245 0 .443.198.443.443h-.885c0-.245.198-.443.442-.443z" fill="#FFAA5A"/><path d="M11.32 8.855h.664V8.12a.26.26 0 0 0-.26-.26h-.144a.26.26 0 0 0-.26.26v.736z" fill="#FFBE5A"/><path d="M12.6 10.118l-.141-.087-1.55 2.545.142.086 1.55-2.544z" fill="#FFAA5A"/><path d="M11.251 12.514l.276-.346-.27-.216-.276.346.27.216z" fill="#FFE15A"/><path d="M12.647 10.148l-.236-.144-.332.545.236.144.332-.545z" fill="#FFCD5A"/><path d="M9.15 12.576L7.588 10.16l-.093.06 1.562 2.416.093-.06z" fill="#73AF00"/><path d="M8.571 11.305a.334.334 0 0 0-.073.192.333.333 0 0 0-.175-.1.332.332 0 0 0 .018.201.334.334 0 0 0-.204-.013c.016.082.082.17.184.231s.211.077.29.053l.024-.015a.376.376 0 0 0 .07-.286.377.377 0 0 0-.134-.263z" fill="#73AF00"/><path d="M8.623 11.975a.11.11 0 1 0 0-.221.11.11 0 0 0 0 .221z" fill="#FF4B55"/><path d="M8.15 10.652a.334.334 0 0 0-.073.192.333.333 0 0 0-.175-.1.332.332 0 0 0 .019.202.334.334 0 0 0-.205-.013c.016.082.082.17.184.231.102.06.212.077.29.053l.024-.015a.376.376 0 0 0 .071-.287.376.376 0 0 0-.135-.263z" fill="#73AF00"/><path d="M8.202 11.323a.11.11 0 1 0 0-.222.11.11 0 0 0 0 .222z" fill="#FF4B55"/><path d="M7.73 10.004a.334.334 0 0 0-.072.192.332.332 0 0 0-.176-.1.332.332 0 0 0 .019.201.334.334 0 0 0-.205-.012c.016.081.082.17.184.23.102.061.212.078.291.053l.023-.014a.376.376 0 0 0 .071-.287.377.377 0 0 0-.135-.263z" fill="#73AF00"/><path d="M7.783 10.67a.11.11 0 1 0 0-.22.11.11 0 0 0 0 .22z" fill="#FF4B55"/><path d="M9.116 12.303l-.276-.346-.27.216.276.346.27-.216zM9.439 6.977h-.11v.774h.11v-.774z" fill="#FFE15A"/><path d="M9.549 7.09h-.332v.11h.332v-.11z" fill="#FFE15A"/><path d="M9.33 7.42l.331.248v-.36H9.44l-.11.111z" fill="#FF875A"/><path d="M9.44 6.978v.11h.11v.11h-.11v.111h.22s.112-.11.333-.11c.221 0 .442.11.442.442s.111 1.218.111 1.218h.221a.443.443 0 0 1 .554-.427v-.237a.332.332 0 0 1 .664 0V10.813l.142-.235-.047-.029.332-.545.047.029.071.043.118.072-.332.545-.047-.029-.284.468v1.489s-.265-.265-.321-.558a1.446 1.446 0 0 1-.128-.194l-.127.209.118.094-.276.345-.074-.058-.125.205-.142-.086.136-.224-.066-.053.094-.117-.29-.357-.086.07-.258-.316a2.107 2.107 0 0 0-.202.092l.53 1.059-.775.553-.775-.553.53-1.059c-.04-.02-.08-.04-.12-.058l-.23.282-.086-.07-.29.357.094.117-.094.075.128.2-.093.06-.122-.19-.09.071-.276-.345.124-.1-.065-.102h-.005a.108.108 0 0 1-.093-.048.109.109 0 0 1-.016-.045.367.367 0 0 1-.064-.009 1.45 1.45 0 0 1-.128.195c-.057.293-.321.558-.321.558v-1.412a.463.463 0 0 1-.1-.043.376.376 0 0 1-.185-.231.26.26 0 0 1 .077-.01.39.39 0 0 1 .128.022.393.393 0 0 1-.026-.11l-.108-.168h-.005a.108.108 0 0 1-.093-.048.11.11 0 0 1-.016-.045.428.428 0 0 1-.193-.06.376.376 0 0 1-.184-.232.26.26 0 0 1 .076-.01c.04 0 .084.007.129.023a.332.332 0 0 1-.02-.2c.06.008.122.043.176.099a.335.335 0 0 1 .073-.192.376.376 0 0 1 .135.263.428.428 0 0 1-.024.2.109.109 0 0 1 .034.034.11.11 0 0 1 .005.108l.108.169.013.008V8.195a.332.332 0 0 1 .664 0v.237a.443.443 0 0 1 .553.427h.332l.221-1.107-.11-.083-.222-.166v.25h-.11v-.554h-.111v-.11h.11v-.111h.112zm1.776 5.029l.04-.052.022.018.179-.293a.604.604 0 0 1-.026-.166v-.02c-.096-.126-.221-.33-.221-.533 0 .233-.143.354-.339.448l.17.209-.085.07.26.319zm-2.436-.004l.06-.048.04.052.26-.32-.085-.07.14-.172c-.236-.099-.42-.22-.42-.484a.824.824 0 0 1-.139.415.428.428 0 0 1 .07.191.428.428 0 0 1-.024.202.109.109 0 0 1 .034.032.11.11 0 0 1 .005.11l.06.092zm.66-5.108h-.111a.083.083 0 0 0-.083.083v.027h-.028a.083.083 0 0 0-.083.083v.11c0 .047.037.084.083.084h.028v.47c0 .046.037.083.083.083h.11a.083.083 0 0 0 .084-.083v-.083l.088.066.069.052-.198.989h-.187a.526.526 0 0 0-.547-.442v-.14a.415.415 0 0 0-.83 0V10.132a.408.408 0 0 0-.14-.195.083.083 0 0 0-.11.013.353.353 0 0 0-.062.104.35.35 0 0 0-.124-.04.083.083 0 0 0-.08.061.35.35 0 0 0-.01.117.423.423 0 0 0-.12.014.083.083 0 0 0-.058.095.457.457 0 0 0 .224.286.52.52 0 0 0 .174.066l.008.014a.19.19 0 0 0 .119.082l.06.093h-.006a.343.343 0 0 0-.101.014.083.083 0 0 0-.057.096.458.458 0 0 0 .223.286.483.483 0 0 0 .06.03v1.354a.083.083 0 0 0 .142.058c.011-.011.271-.275.34-.581.027-.037.053-.074.076-.11a.19.19 0 0 0 .104.06l.003.006-.065.052a.083.083 0 0 0-.013.117l.276.346a.083.083 0 0 0 .117.013l.017-.014.073.112a.083.083 0 0 0 .115.024l.053-.034-.012.024a.083.083 0 0 0 .026.105l.775.553a.083.083 0 0 0 .096 0l.775-.553a.083.083 0 0 0 .026-.105l-.492-.984.065-.03.22.27a.083.083 0 0 0 .116.011l.021-.017.196.24-.052.065a.083.083 0 0 0 .013.117l.009.007-.099.161a.083.083 0 0 0 .028.114l.142.087a.083.083 0 0 0 .114-.028l.076-.125a.083.083 0 0 0 .116-.013l.277-.346a.083.083 0 0 0 .018-.043c.09.27.306.489.316.499a.083.083 0 0 0 .142-.059v-1.465l.232-.381a.083.083 0 0 0 .088-.038l.332-.546a.083.083 0 0 0-.028-.114l-.118-.072-.071-.043-.048-.028a.083.083 0 0 0-.114.028l-.273.45V8.194a.415.415 0 0 0-.83 0v.139l-.028-.001a.527.527 0 0 0-.519.442h-.071c-.026-.217-.101-.866-.101-1.134 0-.387-.272-.525-.526-.525a.6.6 0 0 0-.362.11H9.63a.083.083 0 0 0 .004-.027v-.11a.083.083 0 0 0-.083-.084h-.027v-.028a.083.083 0 0 0-.083-.082zm-.707 4.48c.021-.037.04-.074.056-.11.069.093.168.159.274.211l-.072.09a.083.083 0 0 0 .011.116l.022.017-.148.182a.082.082 0 0 0-.06-.005.188.188 0 0 0-.039-.132.524.524 0 0 0-.044-.368zm2.267.06a.647.647 0 0 0 .197-.17c.043.098.099.186.151.258.001.046.007.093.02.144l-.127.207a.082.082 0 0 0-.02.007l-.149-.182.022-.017a.083.083 0 0 0 .012-.117l-.106-.13zm-1.602.545c.024 0 .048-.01.064-.03l.14-.172-.378.758a.09.09 0 0 0-.004-.006l-.087-.136.035-.028a.083.083 0 0 0 .013-.117l-.052-.065.195-.24.022.017a.081.081 0 0 0 .052.02zm2.12.078l.018-.03.05.07.005.021a.083.083 0 0 0-.012-.012l-.061-.049z" fill="#FFAA5A"/></svg>