<svg width="20" height="20" fill="none" xmlns="http://www.w3.org/2000/svg"><path d="M19.655 16.549H.345A.345.345 0 0 1 0 16.204V3.79c0-.19.154-.345.345-.345h19.31c.19 0 .345.155.345.345v12.414c0 .19-.154.345-.345.345z" fill="#FF4B55"/><path d="M7.241 3.45H.345A.345.345 0 0 0 0 3.793v12.414c0 .19.154.345.345.345H7.24V3.449z" fill="#73AF00"/><path d="M7.243 13.1a3.1 3.1 0 1 0 0-6.202 3.1 3.1 0 0 0 0 6.202z" fill="#FFE15A"/><path d="M8.28 8.967v1.38a1.036 1.036 0 0 1-2.07 0v-1.38h2.07zm.344-.69H5.865a.345.345 0 0 0-.344.345v1.724a1.724 1.724 0 0 0 3.448 0V8.622a.345.345 0 0 0-.345-.345z" fill="#FF4B55"/><path d="M8.279 8.965v1.38a1.036 1.036 0 0 1-2.069 0v-1.38h2.069z" fill="#F5F5F5"/><path d="M5.862 8.794a.172.172 0 1 0 0-.345.172.172 0 0 0 0 .345zM8.62 8.794a.172.172 0 1 0 0-.345.172.172 0 0 0 0 .345zM5.862 10.173a.172.172 0 1 0 0-.345.172.172 0 0 0 0 .345zM8.62 10.173a.172.172 0 1 0 0-.345.172.172 0 0 0 0 .345zM7.242 8.794a.172.172 0 1 0 0-.345.172.172 0 0 0 0 .345zM8.277 11.446a.172.172 0 1 0 0-.344.172.172 0 0 0 0 .344zM6.226 11.446a.172.172 0 1 0 0-.344.172.172 0 0 0 0 .344z" fill="#FFE15A"/><path d="M7.467 9.91v.297a.223.223 0 0 1-.446 0V9.91h.446zM7.467 9.207v.297a.223.223 0 0 1-.446 0v-.297h.446zM7.467 10.621v.297a.223.223 0 0 1-.446 0v-.297h.446zM8.068 9.91v.297a.223.223 0 0 1-.446 0V9.91h.446zM6.867 9.91v.297a.223.223 0 0 1-.445 0V9.91h.445z" fill="#41479B"/></svg>