<svg width="217" height="167" fill="none" xmlns="http://www.w3.org/2000/svg"><circle cx="106.797" cy="83.846" r="82.654" stroke="#fff"/><circle cx="106.799" cy="83.846" r="66.024" stroke="#fff"/><path d="M212.718 36.282a9.502 9.502 0 010 13.436l.707.707c4.1-4.1 4.1-10.75 0-14.85l-.707.707zm0 13.436a9.501 9.501 0 01-13.436 0l-.707.707c4.101 4.1 10.749 4.1 14.85 0l-.707-.707zm-13.436 0a9.502 9.502 0 010-13.436l-.707-.707c-4.1 4.1-4.1 10.75 0 14.85l.707-.707zm0-13.436a9.501 9.501 0 0113.436 0l.707-.707c-4.101-4.1-10.749-4.1-14.85 0l.707.707zm8.383 6.409c0 .92-.745 1.664-1.664 1.664v1a2.664 2.664 0 002.664-2.664h-1zm-1.664 1.664c-.92 0-1.665-.745-1.665-1.664h-1a2.665 2.665 0 002.665 2.664v-1zm-1.665-1.664c0-.92.745-1.665 1.665-1.665v-1a2.665 2.665 0 00-2.665 2.665h1zm1.665-1.665c.919 0 1.664.746 1.664 1.665h1a2.664 2.664 0 00-2.664-2.665v1z" fill="#fff"/><path d="M168.333 59.73L46.096 110.456" stroke="#fff"/><circle cx="167.959" cy="60.677" r="3" fill="#fff"/><circle cx="45.767" cy="109.554" r="3" fill="#fff"/><path d="M17.5 134.566a3.002 3.002 0 01-5.116 1.908c-.827-.828-.879-1.983-.543-2.851.15-.387.825-1.278 1.124-1.623.982-1.131 2.832-2.808 2.832-5.371 0-4.241-2.821-6.603-6.451-6.603-1.647 0-3.362.732-4.728 2.364M4.545 114v23.566M8.19 117.295H1" stroke="#fff" stroke-miterlimit="10" stroke-linecap="round" stroke-linejoin="round"/></svg>