<svg width="207" height="186" fill="none" xmlns="http://www.w3.org/2000/svg"><circle cx="123.933" cy="102.107" r="82.567" stroke="#fff"/><circle cx="123.934" cy="102.107" r="65.954" stroke="#fff"/><path d="M176.718 4.282a9.502 9.502 0 010 13.436l.707.707c4.1-4.1 4.1-10.75 0-14.85l-.707.707zm0 13.436a9.501 9.501 0 01-13.436 0l-.707.707c4.101 4.1 10.749 4.1 14.85 0l-.707-.707zm-13.436 0a9.502 9.502 0 010-13.436l-.707-.707c-4.1 4.1-4.1 10.75 0 14.85l.707-.707zm0-13.436a9.501 9.501 0 0113.436 0l.707-.707c-4.101-4.1-10.749-4.1-14.85 0l.707.707zm8.383 6.409c0 .92-.745 1.664-1.664 1.664v1a2.664 2.664 0 002.664-2.664h-1zm-1.664 1.664c-.92 0-1.665-.745-1.665-1.664h-1a2.665 2.665 0 002.665 2.664v-1zm-1.665-1.664c0-.92.745-1.665 1.665-1.665v-1a2.665 2.665 0 00-2.665 2.665h1zm1.665-1.665c.919 0 1.664.746 1.664 1.665h1a2.664 2.664 0 00-2.664-2.665v1z" fill="#fff"/><path d="M18.23 95.2c0-1.467-1.168-2.2-3.589-2.2-2.421 0-3.59.733-3.59 2.933 0 2.2 1.436 2.2 3.59 2.2s3.59 0 3.59 2.2-.718 2.934-3.59 2.934-3.59-.734-3.59-2.2m-8.513-.734l2.77-6.6 2.307 6.6m-5.077 0L1 104m1.538-3.667h5.077M8.897 104l-1.282-3.667M29 95.933C29 95.2 27.564 93 25.41 93s-4.307 1.467-4.307 5.133c0 3.667 2.153 5.134 4.307 5.134 2.154 0 3.59-1.467 3.59-2.2M141.382 38.976l-80.575 49.84" stroke="#fff"/><circle r="3" transform="matrix(-1 0 0 1 141.415 38.722)" fill="#fff"/><circle r="3" transform="matrix(-1 0 0 1 60 90)" fill="#fff"/></svg>