<svg width="166" height="188" fill="none" xmlns="http://www.w3.org/2000/svg"><circle cx="82.618" cy="105.196" r="82.118" stroke="#fff"/><circle cx="82.62" cy="105.196" r="65.594" stroke="#fff"/><circle cx="110.74" cy="45.406" r="3" fill="#fff"/><circle cx="123.165" cy="53.772" r="3" fill="#fff"/><path d="M152.804 46.842a8.805 8.805 0 100-17.61 8.805 8.805 0 000 17.61zM158.352 31.093l4.908-4.91M157.626 26h5.66M163.305 31.538v-5.503M113.734 19.566a3.733 3.733 0 100-7.466 3.733 3.733 0 000 7.466zM117.086 14.14S111.495 1 120.006 1s3.385 11.514 2.39 13.538c-.531 1.078-1.394 2.498-1.129 5.574.166 1.926 2.024 3.285 3.418 3.285 1.393 0 3.651-.829 3.634-4.181" stroke="#fff" stroke-miterlimit="10" stroke-linecap="round" stroke-linejoin="round"/></svg>