<svg width="166" height="187" fill="none" xmlns="http://www.w3.org/2000/svg"><path fill-rule="evenodd" clip-rule="evenodd" d="M82.618 185.814c45.077 0 81.618-36.541 81.618-81.618 0-45.076-36.541-81.618-81.618-81.618C37.542 22.578 1 59.12 1 104.196c0 45.077 36.542 81.618 81.618 81.618zm0 1c45.629 0 82.618-36.989 82.618-82.618 0-45.628-36.989-82.618-82.618-82.618S0 58.568 0 104.196c0 45.629 36.99 82.618 82.618 82.618z" fill="#fff"/><path fill-rule="evenodd" clip-rule="evenodd" d="M82.62 169.29c35.951 0 65.094-29.144 65.094-65.094 0-35.951-29.143-65.095-65.094-65.095-35.95 0-65.095 29.144-65.095 65.095 0 35.95 29.144 65.094 65.095 65.094zm0 1c36.503 0 66.094-29.591 66.094-66.094 0-36.503-29.591-66.095-66.094-66.095-36.503 0-66.095 29.592-66.095 66.095S46.117 170.29 82.62 170.29z" fill="#fff"/><path d="M113.74 44.406a3 3 0 11-6 0 3 3 0 016 0zM126.165 52.772a3 3 0 11-6 0 3 3 0 016 0z" fill="#fff"/><path fill-rule="evenodd" clip-rule="evenodd" d="M152.804 28.733a8.304 8.304 0 000 16.609 8.304 8.304 0 100-16.61zm-9.304 8.304a9.304 9.304 0 1118.609 0 9.304 9.304 0 01-18.609 0z" fill="#fff"/><path fill-rule="evenodd" clip-rule="evenodd" d="M163.613 24.83a.5.5 0 010 .707l-4.908 4.91a.5.5 0 11-.707-.707l4.908-4.91a.5.5 0 01.707 0z" fill="#fff"/><path fill-rule="evenodd" clip-rule="evenodd" d="M157.126 25a.5.5 0 01.5-.5h5.66a.5.5 0 010 1h-5.66a.5.5 0 01-.5-.5z" fill="#fff"/><path fill-rule="evenodd" clip-rule="evenodd" d="M163.305 24.535a.5.5 0 01.5.5v5.503a.5.5 0 01-1 0v-5.503a.5.5 0 01.5-.5zM114 8.032l1.103 10.013a2.844 2.844 0 01-2.77 3.455c-1.568 0-2.833-1.281-2.833-2.853 0-1.572 1.265-2.853 2.833-2.853.581 0 1.12.176 1.569.477L113 8.086V8.06C113 3.889 116.354.5 120.5.5s7.5 3.388 7.5 7.559v.027l-.902 8.185c.449-.301.988-.477 1.569-.477 1.568 0 2.833 1.281 2.833 2.853 0 1.572-1.265 2.853-2.833 2.853a2.844 2.844 0 01-2.77-3.455L127 8.032c-.014-3.614-2.923-6.532-6.5-6.532s-6.486 2.918-6.5 6.532zm12.834 10.64a1.842 1.842 0 001.833 1.828 1.843 1.843 0 001.833-1.853 1.843 1.843 0 00-1.833-1.853 1.84 1.84 0 00-1.783 1.416l-.05.463zm-12.718-.462a1.84 1.84 0 00-1.783-1.416 1.843 1.843 0 00-1.833 1.853c0 1.027.825 1.853 1.833 1.853 1 0 1.82-.812 1.833-1.827l-.05-.463z" fill="#fff"/></svg>