<svg width="519" height="535" fill="none" xmlns="http://www.w3.org/2000/svg"><path d="M382.792 88.378l-23.396 29.944M124.083 425.301l22.336-30.743M64.083 173.378l34.44 16.059M449.649 350.89l-34.44-16.06M259.466 47.378v38M259.466 472.253v-38M46.083 259.87h38M469.956 259.869h-38M451.472 173.378l-34.979 14.848M61.083 341.04l34.98-14.847M136.367 85.45l21.249 31.504M371.672 439.021l-20.696-31.87" stroke="#E1DFED"/><path d="M464.251 351.2c-50.542 113.521-183.542 164.575-297.063 114.032C53.667 414.689 2.613 281.689 53.156 168.168 103.699 54.648 236.698 3.594 350.219 54.136 463.74 104.68 514.794 237.68 464.251 351.2z" stroke="#52458A" stroke-width="26"/><path d="M417.501 330.711c-39.077 87.768-141.905 127.24-229.672 88.163-87.768-39.077-127.24-141.904-88.163-229.672 39.077-87.767 141.904-127.239 229.672-88.162 87.767 39.076 127.239 141.904 88.163 229.671zM345.546 38.495l-9.445 24.224M172.638 481.98l9.444-24.224M37.065 173.136l24.224 9.445M480.55 346.044l-24.224-9.445M223.12 24.718l3.933 25.701M295.12 495.241l-3.933-25.7M23.289 295.561l25.7-3.932M493.812 223.561l-25.701 3.933M444.681 111.638l-20.291 16.256M73.196 409.254l20.291-16.257M110.208 74l16.257 20.292M407.824 445.485l-16.256-20.291" stroke="#BDBBC8"/><path d="M5.3 254.931l-.7-2.06H1.78l-.7 2.06H.23l2.44-6.98h1.07l2.44 6.98H5.3zm-2.09-6.2h-.05l-1.18 3.4h2.41l-1.18-3.4zm6.086 6.32c-.566 0-1.05-.106-1.45-.32-.4-.22-.74-.52-1.02-.9l.62-.52c.247.327.52.577.82.75.3.167.654.25 1.06.25.5 0 .88-.12 1.14-.36.267-.24.4-.56.4-.96 0-.333-.1-.59-.3-.77-.2-.18-.53-.323-.99-.43l-.57-.13c-.64-.146-1.13-.366-1.47-.66-.333-.3-.5-.72-.5-1.26 0-.306.057-.58.17-.82.114-.24.27-.44.47-.6.207-.16.45-.28.73-.36.287-.086.6-.13.94-.13.527 0 .977.097 1.35.29.38.194.7.477.96.85l-.63.46a2.188 2.188 0 00-.7-.63c-.273-.153-.613-.23-1.02-.23-.446 0-.8.097-1.06.29-.253.187-.38.47-.38.85 0 .334.107.587.32.76.22.167.55.3.99.4l.57.13c.687.154 1.184.387 1.49.7.307.314.46.73.46 1.25 0 .32-.056.61-.17.87-.106.26-.263.48-.47.66-.206.18-.46.32-.76.42-.293.1-.626.15-1 .15zm6.31 0c-.886 0-1.576-.3-2.07-.9-.492-.606-.74-1.496-.74-2.67 0-1.173.248-2.073.74-2.7.494-.633 1.184-.95 2.07-.95.588 0 1.077.134 1.47.4.4.267.71.644.93 1.13l-.68.41a1.908 1.908 0 00-.64-.86c-.286-.22-.646-.33-1.08-.33-.3 0-.57.057-.81.17a1.706 1.706 0 00-.6.49c-.16.207-.282.457-.37.75a3.35 3.35 0 00-.13.97v1.04c0 .72.168 1.284.5 1.69.334.407.804.61 1.41.61.447 0 .82-.113 1.12-.34.3-.233.52-.54.66-.92l.67.42c-.22.494-.536.884-.95 1.17-.413.28-.913.42-1.5.42zM499.93 264.951h2.34c.433 0 .827.074 1.18.22.353.147.653.367.9.66.253.287.447.65.58 1.09.133.434.2.94.2 1.52 0 .58-.067 1.09-.2 1.53a2.979 2.979 0 01-.58 1.09 2.362 2.362 0 01-.9.65c-.353.147-.747.22-1.18.22h-2.34v-6.98zm2.34 6.24c.287 0 .55-.046.79-.14.24-.1.447-.243.62-.43.173-.186.307-.413.4-.68.1-.273.15-.583.15-.93v-1.14c0-.346-.05-.653-.15-.92a1.907 1.907 0 00-.4-.69 1.665 1.665 0 00-.62-.42c-.24-.1-.503-.15-.79-.15h-1.5v5.5h1.5zm6.329.86c-.567 0-1.05-.106-1.45-.32-.4-.22-.74-.52-1.02-.9l.62-.52c.247.327.52.577.82.75.3.167.653.25 1.06.25.5 0 .88-.12 1.14-.36.267-.24.4-.56.4-.96 0-.333-.1-.59-.3-.77-.2-.18-.53-.323-.99-.43l-.57-.13c-.64-.146-1.13-.366-1.47-.66-.333-.3-.5-.72-.5-1.26 0-.306.057-.58.17-.82.113-.24.27-.44.47-.6.207-.16.45-.28.73-.36.287-.086.6-.13.94-.13.527 0 .977.097 1.35.29.38.194.7.477.96.85l-.63.46a2.187 2.187 0 00-.7-.63c-.273-.153-.613-.23-1.02-.23-.447 0-.8.097-1.06.29-.253.187-.38.47-.38.85 0 .334.107.587.32.76.22.167.55.3.99.4l.57.13c.687.154 1.183.387 1.49.7.307.314.46.73.46 1.25 0 .32-.057.61-.17.87-.107.26-.263.48-.47.66-.207.18-.46.32-.76.42-.293.1-.627.15-1 .15zm6.311 0c-.887 0-1.577-.3-2.07-.9-.494-.606-.74-1.496-.74-2.67 0-1.173.246-2.073.74-2.7.493-.633 1.183-.95 2.07-.95.586 0 1.076.134 1.47.4.4.267.71.644.93 1.13l-.68.41a1.913 1.913 0 00-.64-.86c-.287-.22-.647-.33-1.08-.33-.3 0-.57.057-.81.17a1.694 1.694 0 00-.6.49c-.16.207-.284.457-.37.75a3.34 3.34 0 00-.13.97v1.04c0 .72.166 1.284.5 1.69.333.407.803.61 1.41.61.446 0 .82-.113 1.12-.34.3-.233.52-.54.66-.92l.67.42c-.22.494-.537.884-.95 1.17-.414.28-.914.42-1.5.42zM269.37 12.051h-.05l-.59 1.17-1.67 3.04-1.67-3.04-.59-1.17h-.05v5.88h-.82v-6.98h1.12l2 3.76h.05l2.01-3.76h1.08v6.98h-.82v-5.88zm5.135 6c-.886 0-1.576-.3-2.07-.9-.493-.606-.74-1.496-.74-2.67 0-1.173.247-2.073.74-2.7.494-.633 1.184-.95 2.07-.95.587 0 1.077.134 1.47.4.4.267.71.644.93 1.13l-.68.41a1.902 1.902 0 00-.64-.86c-.286-.22-.646-.33-1.08-.33-.3 0-.57.057-.81.17a1.7 1.7 0 00-.6.49c-.16.207-.283.457-.37.75-.086.287-.13.61-.13.97v1.04c0 .72.167 1.284.5 1.69.334.407.804.61 1.41.61.447 0 .82-.113 1.12-.34.3-.233.52-.54.66-.92l.67.42c-.22.494-.536.884-.95 1.17-.413.28-.913.42-1.5.42zM245.474 509.818v-.7h.98v-5.58h-.98v-.7h2.8v.7h-.98v5.58h.98v.7h-2.8zm6.794.12c-.886 0-1.576-.3-2.07-.9-.493-.607-.74-1.497-.74-2.67 0-1.174.247-2.074.74-2.7.494-.634 1.184-.95 2.07-.95.587 0 1.077.133 1.47.4.4.266.71.643.93 1.13l-.68.41a1.9 1.9 0 00-.64-.86c-.286-.22-.646-.33-1.08-.33-.3 0-.57.056-.81.17a1.69 1.69 0 00-.6.49c-.16.206-.283.456-.37.75-.086.286-.13.61-.13.97v1.04c0 .72.167 1.283.5 1.69.334.406.804.61 1.41.61.447 0 .82-.114 1.12-.34.3-.234.52-.54.66-.92l.67.42c-.22.493-.536.883-.95 1.17-.413.28-.913.42-1.5.42z" fill="#000"/><path d="M259.165 12.058v10M259.165 508.058v-10M10.623 259.516h10M506.624 259.516h-10" stroke="#2F2949"/><path d="M458.386 160.599l-1.646-3.184-2.352.31-.534-1.033 9.098-1.026.453.877-6.096 6.834-.531-1.028 1.608-1.75zm-.665-3.307l1.336 2.583 2.885-3.131-4.221.548zM462.315 165.859l-.86-1.815-3.127 1.481-.485-1.025 7.73-3.661 1.212 2.559c.413.87.531 1.633.356 2.288-.173.659-.639 1.167-1.396 1.526-.482.228-.963.296-1.445.203-.479-.089-.918-.323-1.314-.703l-2.421 3.37-.064.03-.518-1.094 2.332-3.159zm-.026-2.21l.742 1.566c.24.506.561.846.964 1.019.404.177.826.161 1.264-.047.478-.226.777-.543.896-.95.12-.404.055-.876-.196-1.416l-.739-1.56-2.931 1.388zM461.695 172.854l-.456-1.032 7.826-3.453.455 1.032-7.825 3.453zM468.112 177.903l-1.418-3.425-2.801 1.159 1.647 3.979-.852.353-2.079-5.021 7.904-3.272 2.055 4.967-.857.355-1.625-3.925-2.54 1.052 1.418 3.425-.852.353zM469.724 182.494c-.083-1.003-.013-1.783.207-2.34a1.975 1.975 0 011.174-1.148c.63-.238 1.245-.184 1.845.162.605.349 1.06.926 1.365 1.732.208.55.287 1.079.237 1.588a2.564 2.564 0 01-.501 1.333 2.385 2.385 0 01-1.09.82l-.401-1.06c.483-.183.804-.48.963-.892.161-.413.136-.9-.076-1.46-.197-.52-.466-.883-.808-1.089-.336-.203-.708-.228-1.114-.074-.326.123-.551.365-.674.726-.118.363-.145.911-.081 1.645.066.737.056 1.336-.03 1.795-.081.462-.237.84-.47 1.133-.231.297-.55.522-.956.676-.648.245-1.264.189-1.847-.168-.58-.358-1.03-.96-1.35-1.807a4.04 4.04 0 01-.269-1.657c.032-.556.182-1.034.45-1.432a2.268 2.268 0 011.101-.857l.402 1.06c-.484.183-.799.506-.947.968-.142.464-.101.995.125 1.592.211.557.486.94.826 1.151.339.211.705.242 1.097.094.391-.149.642-.4.75-.756.112-.356.136-.935.072-1.735zM379.405 67.457l-2.355-1.418-3.933 6.533-.961-.579 3.933-6.533-2.351-1.415.479-.795 5.667 3.412-.479.795zM381.578 75.284l-3.007-1.95-1.889 1.437-.976-.633 7.392-5.402.828.537-1.905 8.958-.971-.63.528-2.317zm-2.216-2.543l2.44 1.582.953-4.15-3.393 2.568zM392.889 75.417l-3.356 4.75c-.469.656-1.057 1.049-1.766 1.176-.705.13-1.428-.029-2.168-.475l-.251-.163c-.765-.54-1.228-1.177-1.391-1.91-.162-.734.009-1.465.513-2.192l3.363-4.76.911.645-3.342 4.73c-.357.505-.496.997-.417 1.475.082.475.38.895.895 1.259.521.368 1.018.51 1.489.427.475-.082.891-.376 1.248-.881l3.347-4.735.925.654zM395.538 83.765l-1.593-1.225-2.108 2.744-.899-.691 5.212-6.782 2.245 1.726c.764.587 1.217 1.212 1.36 1.875.146.665-.037 1.33-.548 1.994-.324.423-.722.702-1.193.84-.468.139-.964.13-1.491-.028l-.619 4.103-.043.056-.96-.737.637-3.875zm-1.03-1.956l1.373 1.056c.444.342.885.498 1.323.468.44-.027.808-.233 1.104-.618.323-.419.444-.837.364-1.254-.076-.414-.349-.805-.819-1.17l-1.369-1.053-1.976 2.571zM407.316 86.742l-3.726 4.465c-.52.617-1.138.961-1.855 1.031-.713.073-1.421-.143-2.122-.647l-.238-.183c-.719-.6-1.13-1.271-1.233-2.016-.103-.744.126-1.458.687-2.143l3.733-4.474.857.715-3.711 4.447c-.396.475-.574.954-.533 1.437.043.48.307.922.791 1.326.49.41.974.59 1.45.545.48-.043.918-.302 1.315-.778l3.715-4.451.87.726zM409.002 94.536c-.534-.854-.831-1.578-.891-2.174a1.972 1.972 0 01.516-1.559c.45-.5 1.021-.735 1.713-.703.698.032 1.367.336 2.008.911.437.393.751.827.94 1.302.192.478.248.95.167 1.414a2.39 2.39 0 01-.591 1.23l-.844-.758c.346-.385.494-.796.446-1.234-.046-.442-.292-.863-.738-1.263-.413-.372-.819-.57-1.217-.596-.393-.026-.734.122-1.025.446-.232.26-.321.577-.264.954.061.377.289.876.683 1.499.397.625.663 1.16.798 1.608.14.448.175.855.103 1.222-.069.37-.249.717-.539 1.04-.464.516-1.036.749-1.718.7-.68-.053-1.356-.381-2.029-.986a4.057 4.057 0 01-1-1.348c-.227-.51-.313-1.002-.258-1.48.058-.474.253-.897.585-1.267l.843.758c-.345.385-.477.816-.396 1.294.087.478.367.93.842 1.357.443.398.864.612 1.262.644.398.031.737-.11 1.017-.42.28-.313.387-.651.32-1.016-.064-.369-.308-.894-.733-1.575zM268.425 38.863c-.302.406-.717.704-1.244.895-.523.188-1.129.27-1.818.25-.697-.023-1.31-.204-1.84-.546a3.3 3.3 0 01-1.213-1.437c-.275-.612-.404-1.315-.387-2.11l.023-.746c.04-1.288.371-2.276.992-2.966.624-.69 1.481-1.018 2.569-.984.893.028 1.604.28 2.134.754.53.471.842 1.128.938 1.97l-1.128-.036c-.176-1.138-.832-1.725-1.967-1.76-.755-.024-1.337.225-1.745.745-.404.516-.624 1.277-.659 2.283l-.022.699c-.03.959.166 1.73.587 2.31.421.578 1.005.878 1.752.902a3.93 3.93 0 001.115-.107c.32-.084.587-.234.801-.45l.06-1.92-1.979-.063.029-.916 3.1.097-.098 3.136zM276.765 36.53l-3.699-.252-.206 3.024 4.296.294-.063.92-5.421-.37.582-8.534 5.363.367-.063.926-4.237-.29-.188 2.743 3.698.253-.062.92zM280.874 32.263l2.02 7.242 3.539-6.633 1.455.16-.932 8.502-1.121-.123.363-3.311.496-3.563-3.545 6.58-.859-.094-2.033-7.173-.278 3.568-.363 3.311-1.121-.122.931-8.503 1.448.159zM291.065 42.131l-1.116-.16 1.216-8.467 1.116.16-1.216 8.467zM299.727 43.563l-1.117-.195-3.11-7.234-1.132 6.493-1.117-.195 1.47-8.426 1.117.195 3.115 7.265 1.138-6.523 1.106.193-1.47 8.426zM304.004 44.43l-1.104-.227 1.722-8.379 1.105.228-1.723 8.378zM155.028 62.775c.344.843.389 1.617.133 2.322-.254.699-.789 1.274-1.605 1.724-.884.488-1.769.562-2.654.223-.882-.341-1.616-1.043-2.202-2.107l-.397-.72c-.384-.696-.598-1.376-.643-2.04-.041-.667.089-1.266.39-1.799.299-.536.749-.97 1.349-1.3.796-.44 1.556-.569 2.282-.388.724.178 1.343.638 1.855 1.38l-.993.547c-.415-.55-.84-.878-1.276-.987-.432-.11-.905-.024-1.42.26-.631.348-.998.855-1.1 1.52-.1.663.088 1.425.563 2.285l.4.726c.448.812.974 1.365 1.579 1.658.604.293 1.211.27 1.822-.066.548-.302.9-.658 1.056-1.065.157-.413.113-.955-.132-1.625l.993-.548zM161.669 59.968l-3.208 1.596.274 2.357-1.042.518-.885-9.113.884-.44 6.739 6.201-1.036.516-1.726-1.635zm-3.316.613l2.603-1.295-3.086-2.933.483 4.228zM171.312 57.96l-1.034.466-6.632-4.243 2.706 6.01-1.034.466-3.511-7.8 1.033-.465 6.656 4.264-2.719-6.037 1.024-.46 3.511 7.8zM178.712 51.968c.241.878.193 1.651-.145 2.32-.335.664-.935 1.171-1.799 1.52-.937.38-1.824.348-2.662-.094-.835-.444-1.48-1.229-1.935-2.354l-.309-.762c-.298-.737-.429-1.438-.394-2.103.038-.666.239-1.246.601-1.74.361-.496.859-.873 1.495-1.13.842-.341 1.613-.378 2.312-.112.698.263 1.257.793 1.677 1.59l-1.051.426c-.347-.595-.73-.973-1.149-1.133-.416-.16-.897-.131-1.441.09-.668.27-1.093.729-1.274 1.377-.178.646-.082 1.425.286 2.337l.311.767c.348.86.805 1.472 1.37 1.835.565.363 1.171.413 1.817.152.581-.235.973-.546 1.176-.932.204-.392.226-.934.063-1.63l1.051-.424zM184.585 48.478l-3.482 1.271 1.04 2.847 4.045-1.476.316.866-5.105 1.864-2.932-8.035 5.049-1.843.318.871-3.99 1.457.943 2.583 3.482-1.272.316.867zM190.016 47.162l-1.91.624 1.074 3.29-1.078.351-2.654-8.131 2.691-.879c.916-.299 1.688-.32 2.315-.064.632.256 1.077.782 1.337 1.579.166.506.172.992.019 1.458-.149.465-.437.87-.864 1.215l3.037 2.828.022.067-1.151.376-2.838-2.714zm-2.196-.253l1.647-.538c.532-.174.91-.45 1.133-.827.226-.379.264-.799.114-1.26-.164-.503-.441-.84-.83-1.009-.385-.17-.862-.166-1.429.015l-1.642.536 1.007 3.083zM75.202 138.496l2.29-3.346.76.521-2.929 4.281-7.058-4.831.64-.936 6.297 4.311zM79.193 127.628L77 130.616l2.444 1.794 2.547-3.472.744.546-3.215 4.381-6.895-5.061 3.18-4.334.748.549-2.513 3.424 2.217 1.627 2.193-2.988.743.546zM84.316 120.952c.657.521 1.144 1.086 1.46 1.696.314.608.439 1.216.376 1.826-.063.609-.309 1.184-.736 1.725-.418.528-.918.894-1.5 1.098-.584.202-1.205.227-1.864.075-.66-.158-1.308-.484-1.945-.978l-.484-.383c-.645-.511-1.126-1.074-1.443-1.689-.317-.616-.444-1.231-.382-1.846.062-.621.302-1.195.72-1.723.425-.538.93-.907 1.514-1.109.584-.207 1.21-.226 1.88-.055.666.167 1.326.51 1.98 1.028l.424.335zm-1.13.538c-.795-.63-1.53-.953-2.207-.969-.68-.019-1.247.259-1.701.833-.443.559-.578 1.169-.406 1.829.17.655.63 1.286 1.378 1.893l.493.391c.77.61 1.505.929 2.202.956.697.022 1.27-.251 1.72-.819.452-.571.595-1.177.428-1.819-.17-.643-.64-1.277-1.409-1.902l-.497-.393zM36.968 250.487l-6.933-2.772.057-1.232 8.396 3.569-.047.998-8.692 2.762.058-1.226 7.161-2.099zM38.8 244.257l-.08 1.125-8.532-.621.082-1.125 8.53.621zM35.85 238.603l-.198 1.999 3.443.341-.111 1.128-8.512-.842.278-2.818c.095-.959.386-1.674.874-2.145.488-.475 1.149-.672 1.982-.589.53.052.978.242 1.343.57.366.323.62.75.765 1.28l3.81-1.642.07.007-.118 1.204-3.626 1.507zm-1.116 1.908l.17-1.724c.056-.558-.045-1.014-.3-1.37-.256-.36-.626-.564-1.11-.612-.525-.052-.944.066-1.256.354-.311.284-.498.722-.561 1.314l-.17 1.719 3.227.319zM39.58 227.453c.371.345.623.79.756 1.334.13.541.147 1.152.05 1.835-.096.69-.343 1.28-.74 1.77-.401.49-.921.84-1.56 1.05-.638.207-1.351.259-2.14.156l-.738-.103c-1.276-.18-2.223-.615-2.842-1.308-.618-.695-.851-1.583-.7-2.661.124-.884.451-1.564.98-2.039.526-.476 1.213-.716 2.06-.719l-.158 1.117c-1.15.052-1.804.64-1.962 1.765-.105.748.079 1.353.552 1.815.47.458 1.202.759 2.199.903l.692.097c.95.134 1.737.023 2.36-.333.62-.355.981-.904 1.085-1.645.06-.418.064-.791.015-1.119a1.712 1.712 0 00-.361-.845l-1.903-.268-.275 1.961-.908-.128.432-3.072 3.106.437zM38.214 218.383c.824.151 1.52.421 2.085.812.562.389.958.867 1.189 1.435.23.568.284 1.191.16 1.869-.121.662-.39 1.22-.808 1.674-.42.452-.958.766-1.61.941-.657.171-1.383.187-2.178.05l-.606-.111c-.81-.148-1.498-.419-2.067-.814-.57-.394-.97-.878-1.204-1.45-.237-.577-.295-1.197-.174-1.859.123-.674.395-1.238.816-1.69.418-.457.963-.768 1.634-.932.667-.165 1.41-.172 2.231-.022l.532.097zm-.745 1.005c-.998-.183-1.8-.122-2.404.181-.609.303-.979.815-1.11 1.535-.129.701.038 1.303.5 1.806.458.497 1.16.839 2.106 1.024l.618.113c.967.176 1.765.113 2.393-.19.626-.307 1.004-.818 1.134-1.53.131-.717-.028-1.319-.476-1.807-.452-.489-1.164-.828-2.137-1.018l-.624-.114zM61.943 363.065l-1.851-3.606.82-.421 2.37 4.614-7.61 3.907-.518-1.009 6.789-3.485zM59.326 355.678l.488 1.017-7.712 3.699-.487-1.017 7.711-3.699zM58.488 353.975l-7.81 3.491-1.14-2.553c-.379-.848-.488-1.563-.328-2.145.159-.585.581-1.032 1.268-1.338a1.751 1.751 0 011.11-.123c.371.083.714.268 1.027.557-.07-.475.006-.908.23-1.299.219-.394.557-.693 1.014-.898.701-.313 1.353-.332 1.957-.057.603.275 1.09.827 1.461 1.657l1.21 2.708zm-4.113.603l2.81-1.256-.76-1.7c-.214-.479-.506-.801-.875-.967-.375-.167-.78-.153-1.217.042-.94.421-1.182 1.142-.725 2.165l.767 1.716zm-.826.369l-.695-1.555c-.201-.451-.475-.76-.82-.927-.346-.171-.713-.17-1.1.002-.428.192-.683.456-.764.793-.085.338-.013.763.215 1.274l.68 1.523 2.484-1.11zM50.439 344.039l.748 1.864 3.211-1.289.423 1.052-7.938 3.188-1.055-2.628c-.359-.894-.431-1.663-.217-2.306.213-.647.709-1.126 1.486-1.439.495-.198.98-.236 1.454-.115.474.118.897.378 1.27.782l2.62-3.218.066-.026.45 1.123-2.518 3.012zm-.107 2.208l-.646-1.608c-.209-.52-.51-.878-.9-1.075-.394-.201-.815-.211-1.266-.03-.49.197-.808.495-.951.894-.145.396-.108.871.11 1.425l.643 1.603 3.01-1.209zM48.411 335.227l1.22 3.369 2.373-.003.396 1.094-9.154-.16-.336-.928 6.929-5.988.394 1.088-1.822 1.528zm.232 3.365l-.99-2.735-3.266 2.732 4.256.003zM143.782 454.282c.69.732 1.122 1.385 1.297 1.958.17.574.102 1.117-.201 1.629-.344.579-.858.921-1.544 1.024-.69.105-1.406-.062-2.147-.502-.505-.3-.897-.664-1.175-1.093a2.56 2.56 0 01-.44-1.354 2.393 2.393 0 01.34-1.322l.975.579c-.264.445-.329.877-.196 1.298.131.423.454.788.97 1.094.478.284.915.399 1.31.347.39-.051.696-.263.918-.637.177-.3.202-.629.073-.988-.134-.357-.455-.803-.963-1.336-.511-.536-.876-1.01-1.096-1.422-.225-.412-.338-.804-.339-1.179-.005-.376.104-.751.325-1.125.354-.596.87-.936 1.549-1.021.676-.081 1.404.109 2.182.57.505.3.92.676 1.244 1.128.322.455.502.922.542 1.4.036.477-.073.929-.327 1.357l-.975-.578c.264-.445.309-.894.136-1.347-.178-.452-.542-.841-1.091-1.166-.512-.304-.966-.432-1.363-.385-.396.047-.702.25-.915.611-.214.36-.253.713-.116 1.058.135.349.477.816 1.027 1.402zM135.386 447.77c.577-.706 1.235-1.115 1.976-1.227.735-.111 1.496.085 2.281.586.852.544 1.34 1.286 1.465 2.226.121.937-.145 1.917-.798 2.941l-.443.693c-.428.67-.923 1.183-1.486 1.539-.565.355-1.154.527-1.766.517-.614-.006-1.209-.194-1.787-.563-.766-.489-1.242-1.096-1.43-1.82-.19-.721-.082-1.484.325-2.288l.955.61c-.284.627-.37 1.158-.257 1.593.109.432.412.806.907 1.123.607.388 1.227.468 1.861.24.629-.229 1.209-.758 1.738-1.587l.446-.698c.5-.782.734-1.508.702-2.179-.031-.671-.341-1.194-.928-1.569-.528-.338-1.008-.477-1.441-.419-.437.06-.892.357-1.364.892l-.956-.61zM127.65 444.022c.48-.688 1.014-1.208 1.604-1.561.587-.349 1.187-.511 1.799-.485.612.026 1.201.236 1.767.63.552.385.948.862 1.187 1.43.237.571.3 1.19.188 1.857-.117.667-.403 1.335-.858 2.001l-.353.506c-.47.675-1.003 1.189-1.598 1.542-.595.354-1.202.519-1.819.494-.623-.024-1.211-.229-1.764-.614-.562-.392-.961-.873-1.198-1.444-.243-.57-.299-1.195-.17-1.873.127-.676.429-1.355.906-2.04l.309-.443zm.605 1.095c-.58.832-.858 1.586-.833 2.262.023.68.335 1.229.936 1.648.584.408 1.201.506 1.85.294.643-.21 1.245-.707 1.805-1.491l.36-.515c.562-.807.836-1.559.821-2.257-.02-.696-.328-1.252-.922-1.667-.598-.416-1.211-.522-1.841-.317-.633.209-1.237.716-1.813 1.522l-.363.521zM122.681 439.681l1.6 1.214 2.092-2.757.903.686-5.17 6.814-2.256-1.712c-.767-.582-1.224-1.204-1.371-1.866-.15-.664.029-1.33.535-1.998.322-.424.718-.707 1.188-.847.467-.142.964-.136 1.491.018l.594-4.107.042-.056.964.732-.612 3.879zm1.043 1.949l-1.381-1.048c-.446-.338-.887-.492-1.325-.46-.44.03-.807.238-1.101.625-.319.421-.438.84-.355 1.257.079.414.354.802.826 1.165l1.376 1.044 1.96-2.583zM117.771 435.717l2.119-2.592.873.714-5.414 6.621-2.442-1.997c-.725-.593-1.14-1.241-1.247-1.946-.11-.707.084-1.365.583-1.974.525-.643 1.132-.974 1.821-.993.682-.018 1.398.279 2.147.891l1.56 1.276zm-.584.714l-1.569-1.283c-.467-.382-.914-.565-1.341-.55-.43.018-.814.234-1.154.65-.322.394-.456.811-.401 1.25.056.44.296.842.722 1.206l1.619 1.324 2.124-2.597zM113.81 428.05l.855.736-5.582 6.481-.854-.736 5.581-6.481zM104.739 425.298c.565-.618 1.163-1.064 1.794-1.337.628-.269 1.244-.351 1.847-.245.604.105 1.16.391 1.669.855.498.455.828.979.99 1.573.16.597.141 1.219-.057 1.866-.203.647-.574 1.271-1.112 1.872l-.416.455c-.555.607-1.15 1.047-1.787 1.32-.636.273-1.259.357-1.868.251-.614-.105-1.17-.385-1.668-.839-.506-.462-.839-.992-.999-1.589-.166-.597-.14-1.223.077-1.879.215-.653.603-1.287 1.166-1.903l.364-.4zm.456 1.165c-.684.749-1.058 1.46-1.122 2.134-.066.677.171 1.262.712 1.756.526.481 1.125.659 1.795.534.666-.124 1.327-.538 1.986-1.242l.424-.464c.663-.726 1.032-1.435 1.109-2.129.071-.694-.161-1.285-.696-1.773-.537-.492-1.132-.677-1.784-.556-.654.124-1.319.548-1.996 1.271l-.428.469zM270.344 484.609c.98.228 1.701.533 2.164.913.458.385.703.875.733 1.469.034.673-.206 1.242-.719 1.707-.518.469-1.207.726-2.067.769-.587.03-1.115-.057-1.584-.261a2.553 2.553 0 01-1.115-.884 2.386 2.386 0 01-.448-1.289l1.132-.058c.026.517.211.913.555 1.19.343.281.814.406 1.413.375.555-.028.983-.173 1.283-.435.297-.258.435-.604.413-1.039-.018-.348-.18-.636-.485-.863-.31-.224-.823-.417-1.542-.581-.722-.164-1.288-.356-1.699-.579-.415-.218-.727-.483-.935-.794-.212-.31-.329-.683-.351-1.117-.035-.692.207-1.261.726-1.707.518-.442 1.23-.686 2.133-.732a4.05 4.05 0 011.66.252c.52.201.929.49 1.226.867.294.377.453.814.478 1.311l-1.132.057c-.026-.516-.237-.915-.631-1.197-.399-.278-.917-.401-1.554-.369-.595.03-1.044.175-1.349.433-.304.259-.446.597-.425 1.016.021.418.184.734.489.946.305.216.849.416 1.631.6zM261.276 483.317l3.583-.063.765-2.246 1.163-.021-3.114 8.61-.987.018-3.423-8.495 1.157-.02.856 2.217zm3.259.871l-2.907.051 1.527 3.975 1.38-4.026zM251.544 482.109c.3-.408.712-.71 1.237-.906.522-.192 1.127-.28 1.816-.264.697.016 1.312.192 1.845.529a3.31 3.31 0 011.225 1.427c.28.609.415 1.312.405 2.107l-.017.746c-.029 1.288-.351 2.279-.967 2.975-.619.694-1.472 1.03-2.561 1.005-.893-.02-1.606-.266-2.14-.736-.534-.467-.852-1.121-.954-1.961l1.127.025c.186 1.137.847 1.718 1.982 1.744.756.017 1.336-.236 1.739-.76.4-.52.613-1.283.64-2.289l.016-.699c.021-.959-.181-1.727-.606-2.305-.426-.574-1.013-.869-1.761-.886a3.935 3.935 0 00-1.113.115c-.319.087-.585.24-.798.458l-.043 1.921 1.979.045-.021.916-3.101-.071.071-3.136zM241.734 481.572c.317-.395.742-.678 1.276-.851.529-.168 1.138-.229 1.826-.183.695.046 1.302.25 1.819.61.517.365.904.858 1.161 1.479.253.622.357 1.33.311 2.123l-.05.745c-.086 1.285-.451 2.262-1.097 2.929-.649.667-1.517.964-2.603.891-.891-.06-1.593-.336-2.105-.83-.513-.49-.802-1.157-.867-2.001l1.125.075c.136 1.144.77 1.754 1.903 1.83.754.05 1.345-.177 1.771-.682.422-.502.669-1.255.74-2.259l.047-.697c.064-.958-.104-1.734-.503-2.33-.4-.592-.974-.913-1.72-.964a3.915 3.915 0 00-1.117.067 1.708 1.708 0 00-.817.422l-.129 1.917 1.975.132-.061.915-3.095-.208.21-3.13zM237.313 480.048l1.123.109-.824 8.514-1.122-.109.823-8.514zM228.839 486.767l2.73.326.903-7.572 1.115.133-.904 7.572 2.724.325-.11.921-6.568-.784.11-.921zM224.609 480.585l3.54.556 1.142-2.08 1.149.181-4.555 7.942-.975-.153-1.904-8.958 1.143.179.46 2.333zm3.059 1.42l-2.873-.451.818 4.178 2.055-3.727zM218.814 480.796l1.973.379.652-3.399 1.114.214-1.612 8.4-2.781-.534c-.946-.181-1.632-.536-2.057-1.064-.429-.529-.564-1.205-.406-2.028.1-.523.33-.952.689-1.286.355-.334.803-.549 1.344-.645l-1.289-3.944.014-.069 1.188.228 1.171 3.748zm1.799 1.284l-1.702-.326c-.55-.106-1.013-.047-1.391.175-.382.222-.618.571-.71 1.048-.099.52-.02.948.238 1.284.255.336.674.562 1.258.678l1.696.326.611-3.185zM213.495 476.171l1.102.241-1.832 8.355-1.102-.242 1.832-8.354zM203.379 482.547l1.416-5.641c.2-.781.608-1.359 1.223-1.734.611-.376 1.342-.489 2.193-.34l.293.062c.908.228 1.57.654 1.986 1.28.417.625.521 1.368.313 2.229l-1.419 5.652-1.082-.272 1.41-5.618c.151-.6.103-1.109-.144-1.526-.247-.414-.677-.697-1.289-.851-.619-.155-1.133-.109-1.543.14-.413.247-.695.671-.846 1.271l-1.411 5.624-1.1-.276zM199.438 476.185c.849.541 1.428 1.068 1.738 1.58.305.515.373 1.058.204 1.629-.191.646-.606 1.103-1.244 1.371-.644.272-1.379.285-2.205.041-.564-.167-1.033-.424-1.408-.772a2.556 2.556 0 01-.759-1.205 2.381 2.381 0 01.006-1.364l1.087.321c-.147.496-.104.931.128 1.306.231.379.634.654 1.209.823.533.158.985.163 1.355.015.366-.145.61-.426.734-.843.098-.334.041-.659-.171-.975-.218-.314-.639-.667-1.262-1.059-.627-.394-1.097-.764-1.411-1.11-.319-.344-.525-.696-.618-1.059-.097-.363-.084-.754.039-1.17.197-.665.614-1.122 1.251-1.37.636-.245 1.388-.239 2.255.017a4.047 4.047 0 011.483.788c.423.362.713.77.869 1.225.152.453.157.918.016 1.395l-1.087-.321c.146-.496.08-.942-.199-1.339-.283-.395-.731-.682-1.343-.863-.571-.169-1.043-.182-1.416-.039s-.619.415-.738.817c-.119.402-.07.753.148 1.054.216.305.662.674 1.339 1.107zM374.785 451.485c-.389-.823-.475-1.594-.258-2.311.215-.712.719-1.314 1.509-1.808.857-.535 1.737-.657 2.639-.366.898.293 1.669.954 2.312 1.984l.436.698c.421.674.672 1.342.752 2.003.077.663-.021 1.268-.292 1.816-.27.552-.696 1.009-1.277 1.372-.771.482-1.523.651-2.258.51-.733-.138-1.375-.564-1.926-1.277l.962-.6c.443.526.886.831 1.327.916.437.087.905-.025 1.403-.336.612-.382.951-.907 1.017-1.577.064-.667-.165-1.418-.685-2.252l-.439-.702c-.492-.788-1.047-1.311-1.666-1.571-.62-.26-1.225-.205-1.816.164-.532.332-.864.706-.997 1.121-.134.421-.061.96.219 1.616l-.962.6zM369.074 454.253l3.103-1.791-.418-2.336 1.007-.581 1.447 9.041-.855.493-7.11-5.773 1.003-.578 1.823 1.525zm3.272-.817l-2.518 1.454 3.261 2.736-.743-4.19zM365.188 457.677l-1.561-2.962.998-.526 3.987 7.567-2.791 1.471c-.828.436-1.587.566-2.278.39-.694-.175-1.224-.61-1.591-1.307-.387-.734-.455-1.422-.204-2.063.249-.636.802-1.18 1.658-1.631l1.782-.939zm.43.816l-1.793.945c-.534.281-.877.621-1.029 1.02-.151.403-.102.842.148 1.316.238.451.57.736.996.857.427.12.89.055 1.391-.195l1.851-.975-1.564-2.968zM356.483 462.233l1.809-.874-1.506-3.116 1.021-.493 3.722 7.701-2.549 1.232c-.868.42-1.629.544-2.286.374-.66-.168-1.172-.629-1.537-1.384a2.288 2.288 0 01-.214-1.443c.085-.48.316-.92.693-1.32l-3.389-2.394-.031-.064 1.09-.526 3.177 2.307zm2.21-.044l-1.56.754c-.504.244-.842.568-1.012.972-.173.406-.154.827.057 1.265.23.476.549.772.958.887.405.118.876.049 1.413-.207l1.555-.751-1.411-2.92zM349.33 461.747l1.028-.464 3.514 7.798-1.028.464-3.514-7.798zM343.03 467.413c-.255-.874-.22-1.649.107-2.323.325-.669.917-1.185 1.775-1.549.931-.393 1.819-.376 2.664.053.841.431 1.498 1.205 1.972 2.323l.32.758c.31.732.453 1.43.428 2.096-.028.667-.219 1.249-.574 1.748-.353.503-.845.887-1.476 1.155-.837.354-1.607.403-2.31.148-.702-.251-1.269-.772-1.702-1.563l1.044-.442c.356.589.745.96 1.167 1.113.419.155.898.118 1.439-.111.664-.281 1.081-.747 1.252-1.398.168-.649.06-1.426-.323-2.332l-.323-.762c-.362-.855-.828-1.459-1.399-1.813-.571-.354-1.177-.395-1.819-.123-.577.244-.964.561-1.161.95-.198.395-.211.938-.037 1.63l-1.044.442zM335.379 471.712c-.294-.785-.419-1.52-.375-2.206.046-.682.253-1.268.622-1.757.368-.49.875-.855 1.521-1.097.631-.236 1.248-.292 1.851-.167.605.129 1.15.429 1.635.9.484.475.871 1.089 1.161 1.842l.216.578c.289.77.41 1.5.363 2.191-.046.691-.255 1.284-.626 1.778-.374.5-.876.867-1.506 1.104-.642.24-1.265.296-1.87.167-.607-.124-1.153-.432-1.638-.923-.484-.488-.872-1.123-1.165-1.904l-.189-.506zm1.244.123c.356.95.819 1.607 1.39 1.97.573.367 1.202.422 1.888.165.667-.25 1.098-.702 1.292-1.356.192-.649.124-1.427-.203-2.333l-.22-.589c-.345-.92-.809-1.573-1.392-1.956-.585-.379-1.217-.442-1.895-.187-.682.255-1.118.7-1.306 1.336-.188.639-.113 1.424.224 2.356l.222.594zM328.849 473.368l1.909-.625-1.077-3.288 1.077-.353 2.663 8.128-2.691.882c-.916.3-1.687.322-2.315.066-.632-.255-1.078-.78-1.339-1.577a2.291 2.291 0 01-.02-1.458c.149-.465.436-.871.863-1.216l-3.04-2.825-.022-.067 1.15-.377 2.842 2.71zm2.196.251l-1.647.54c-.532.174-.909.45-1.132.828-.226.379-.263.8-.112 1.261.164.503.441.838.83 1.008.386.17.862.164 1.429-.017l1.641-.538-1.009-3.082zM317.251 473.25l1.09-.312 5.953 5.153-1.813-6.337 1.09-.312 2.353 8.223-1.09.312-5.972-5.177 1.821 6.365-1.079.309-2.353-8.224zM452.976 369.776l1.733-3.137-1.565-1.784.562-1.018 5.908 6.995-.477.864-9.069-1.271.56-1.013 2.348.364zm2.38-2.39l-1.405 2.546 4.206.658-2.801-3.204zM449.465 379.193c-.706-.428-1.248-.91-1.624-1.445-.373-.533-.581-1.089-.623-1.669l-1.817.685-.209-1.027 2.161-.799a3.69 3.69 0 01.372-.819c.35-.576.8-1.001 1.351-1.276.555-.273 1.168-.375 1.841-.306.674.074 1.358.317 2.052.729l.527.32c.704.426 1.251.925 1.642 1.496.391.572.594 1.167.608 1.785.016.623-.15 1.223-.5 1.799-.357.589-.813 1.02-1.368 1.293-.556.276-1.176.373-1.858.289-.678-.082-1.374-.339-2.088-.771l-.467-.284zm1.057-.678c.861.522 1.628.751 2.303.689.676-.058 1.207-.404 1.593-1.041.367-.606.425-1.226.172-1.86-.251-.628-.785-1.197-1.603-1.707l-.537-.326c-.838-.508-1.603-.733-2.296-.677-.696.059-1.232.4-1.61 1.023-.377.623-.444 1.242-.199 1.858.249.618.793 1.188 1.635 1.712l.542.329zM448.126 389.578l-4.836-3.231c-.669-.451-1.076-1.03-1.222-1.735-.148-.702-.009-1.428.418-2.179l.156-.256c.52-.778 1.145-1.259 1.874-1.44.729-.182 1.463-.03 2.204.455l4.845 3.237-.62.928-4.816-3.218c-.515-.343-1.01-.469-1.486-.377-.472.094-.884.403-1.234.927-.354.531-.484 1.031-.387 1.501.094.472.398.88.913 1.224l4.821 3.221-.63.943zM437.919 393.032l2.108-2.897-1.331-1.965.684-.94 4.994 7.674-.581.798-8.841-2.387.681-.936 2.286.653zm2.658-2.076l-1.711 2.352 4.092 1.176-2.381-3.528zM435.132 398.711l1.234-1.584-2.729-2.127.697-.895 6.747 5.258-1.74 2.233c-.593.76-1.22 1.21-1.884 1.348-.666.141-1.33-.046-1.991-.561-.42-.327-.697-.727-.831-1.199-.136-.468-.124-.965.037-1.49l-4.099-.647-.055-.043.743-.955 3.871.662zm1.962-1.018l-1.065 1.368c-.344.441-.503.881-.477 1.319.024.44.228.81.611 1.109.417.325.834.449 1.251.372.415-.074.807-.345 1.176-.812l1.062-1.362-2.558-1.994zM428.612 401.295l.715-.872 6.611 5.427-.716.872-6.61-5.427zM429.505 413.382l-4.372-3.836c-.604-.535-.932-1.161-.984-1.879-.055-.716.177-1.418.699-2.107l.188-.233c.618-.703 1.299-1.098 2.046-1.183.746-.084 1.455.162 2.125.74l4.381 3.843-.736.839-4.354-3.82c-.465-.408-.94-.598-1.424-.569-.48.032-.929.285-1.344.759-.421.479-.615.958-.581 1.436.032.481.28.926.745 1.334l4.359 3.824-.748.852zM421.678 414.876c.866-.513 1.597-.792 2.194-.837a1.973 1.973 0 011.546.554c.49.462.71 1.039.661 1.73-.049.697-.37 1.359-.961 1.986-.403.427-.845.729-1.324.907-.483.18-.955.224-1.418.132a2.387 2.387 0 01-1.214-.621l.778-.825c.376.355.783.514 1.223.476.442-.035.869-.271 1.28-.706.382-.405.59-.806.626-1.203.036-.392-.105-.737-.421-1.035-.253-.239-.569-.335-.947-.288-.378.052-.883.268-1.515.646-.634.381-1.177.634-1.628.758-.45.129-.858.154-1.223.073-.368-.078-.71-.266-1.027-.565-.504-.476-.723-1.054-.657-1.735.069-.678.414-1.346 1.035-2.004a4.05 4.05 0 011.373-.966c.514-.215 1.009-.288 1.485-.222.473.07.89.275 1.252.616l-.778.825c-.376-.355-.804-.498-1.284-.428-.48.075-.939.344-1.377.808-.408.433-.633.849-.674 1.246-.042.397.09.74.395 1.028.305.287.641.402 1.007.344.37-.055.901-.286 1.593-.694zM482.831 266.252l-3.347-.106.035-1.127 8.55.271-.1 3.154c-.03.935-.292 1.659-.786 2.173-.495.517-1.136.763-1.922.738-.83-.026-1.462-.307-1.896-.842-.429-.531-.629-1.28-.598-2.247l.064-2.014zm.921.03l-.064 2.025c-.019.603.107 1.07.379 1.4.276.33.681.503 1.218.52.509.016.921-.131 1.236-.442.316-.312.488-.747.518-1.306l.066-2.091-3.353-.106zM479.135 274.208l.065-1.126 8.54.493-.065 1.126-8.54-.493zM482.592 279.281c.354-.942.75-1.618 1.188-2.027a1.971 1.971 0 011.551-.535c.672.054 1.205.366 1.599.936.398.574.562 1.29.494 2.149-.047.586-.202 1.098-.465 1.536a2.565 2.565 0 01-1.023.991 2.386 2.386 0 01-1.336.276l.091-1.131c.515.042.932-.09 1.251-.394.323-.304.509-.755.556-1.352.045-.555-.043-.998-.264-1.33-.218-.328-.543-.509-.976-.544-.348-.028-.654.095-.92.368-.262.278-.52.762-.776 1.453-.256.694-.521 1.231-.795 1.61-.271.383-.574.657-.909.823-.336.169-.72.236-1.154.202-.691-.056-1.223-.37-1.598-.942-.37-.572-.52-1.309-.447-2.211a4.05 4.05 0 01.465-1.612c.267-.49.607-.857 1.02-1.103a2.266 2.266 0 011.362-.303l-.091 1.13c-.515-.042-.938.115-1.269.47-.328.358-.517.856-.568 1.492-.048.594.037 1.058.254 1.394.216.335.534.52.951.554.418.033.752-.087 1.002-.362.254-.274.523-.787.807-1.538zM480.345 290.101c-.886-.211-1.541-.625-1.965-1.243-.42-.614-.576-1.383-.467-2.309.118-1.004.573-1.766 1.364-2.288.791-.518 1.789-.706 2.995-.564l.816.097c.79.093 1.468.315 2.034.665.565.355.977.81 1.235 1.365.262.555.353 1.173.272 1.854-.106.902-.444 1.596-1.014 2.081-.566.485-1.3.72-2.201.704l.133-1.126c.688-.017 1.203-.171 1.545-.462.342-.287.547-.723.615-1.306.085-.716-.113-1.309-.594-1.78-.481-.467-1.21-.758-2.186-.873l-.823-.097c-.922-.109-1.678-.003-2.268.318-.59.321-.925.828-1.007 1.52-.073.622.011 1.115.252 1.479.244.368.71.648 1.397.839l-.133 1.126zM480.596 296.796l.558-3.665-2.997-.456-.648 4.257-.912-.139.818-5.372 8.456 1.288-.809 5.314-.918-.14.64-4.199-2.718-.414-.558 3.665-.912-.139zM479.611 301.547c.448-.902.91-1.534 1.387-1.896a1.969 1.969 0 011.598-.376c.662.121 1.161.485 1.495 1.092.338.612.43 1.341.274 2.189-.106.577-.311 1.071-.618 1.481a2.549 2.549 0 01-1.117.882 2.387 2.387 0 01-1.357.139l.204-1.115c.509.093.937.005 1.285-.266.352-.27.582-.699.69-1.289.101-.547.058-.997-.129-1.349-.183-.348-.488-.562-.916-.64-.342-.063-.66.028-.952.273-.288.25-.595.706-.919 1.367-.325.665-.643 1.172-.953 1.521-.308.354-.637.596-.988.727-.351.135-.74.163-1.168.084-.682-.125-1.18-.491-1.495-1.098-.311-.606-.385-1.354-.222-2.244a4.062 4.062 0 01.626-1.558c.315-.46.691-.791 1.126-.994a2.268 2.268 0 011.386-.164l-.205 1.115c-.508-.093-.945.02-1.31.339-.362.324-.6.8-.715 1.428-.108.586-.071 1.056.111 1.412.182.356.479.572.891.647.412.076.756-.011 1.033-.258.28-.248.599-.731.958-1.449z" fill="#fff"/><path d="M221.891 91.168l-126.88 116.7m-5.247 22.925l54.676 159.519L86.382 242.63M292.143 89.194l120.227 86.781L281 87.5" stroke="#1766FF"/><path d="M87.51 230.793l12.964-2.255m0 0l310.235-51.832m-310.235 51.832l-5.28-21.079m5.28 21.079l43.402 160.646" stroke="#31C840" stroke-dasharray="3.44 3.44"/><path d="M414.335 177.548L96.372 207.809M293.235 89.68L143.876 389.748" stroke="#F33" stroke-dasharray="3.44 3.44"/><path d="M412.748 342.963L106.862 175.251M281 88L85.818 243.193 292.377 89.298" stroke="#F33"/><circle cx="281.382" cy="87.382" r="2.952" fill="#52458A" stroke="#52458A" stroke-width=".859"/><circle cx="292.174" cy="88.42" r="2.952" fill="#52458A" stroke="#52458A" stroke-width=".859"/><circle cx="221.832" cy="90.435" r="2.952" fill="#52458A" stroke="#52458A" stroke-width=".859"/><circle cx="173.188" cy="107.912" r="2.952" fill="#fff" stroke="#52458A" stroke-width=".859"/><circle cx="338.907" cy="414.549" r="2.952" fill="#fff" stroke="#52458A" stroke-width=".859"/><circle cx="107.503" cy="175.646" r="2.952" fill="#52458A" stroke="#52458A" stroke-width=".859"/><circle cx="94.728" cy="207.458" r="2.952" fill="#52458A" stroke="#52458A" stroke-width=".859"/><circle cx="87.51" cy="230.793" r="2.952" fill="#52458A" stroke="#52458A" stroke-width=".859"/><circle cx="86.382" cy="242.066" r="2.952" fill="#52458A" stroke="#52458A" stroke-width=".859"/><circle cx="143.877" cy="389.748" r="2.952" fill="#52458A" stroke="#52458A" stroke-width=".859"/><circle cx="133.73" cy="379.602" r="2.952" fill="#52458A" stroke="#52458A" stroke-width=".859"/><circle cx="124.712" cy="369.456" r="2.952" fill="#fff" stroke="#52458A" stroke-width=".859"/><circle cx="413.311" cy="343.527" r="2.952" fill="#52458A" stroke="#52458A" stroke-width=".859"/><circle cx="432.618" cy="273.954" r="2.952" fill="#52458A" stroke="#52458A" stroke-width=".859"/><circle cx="412.16" cy="176.346" r="2.952" fill="#52458A" stroke="#52458A" stroke-width=".859"/><path d="M74.86 214.272v-16.341m-4.354 10.097h8.77m-8.808-7.78v10.94m8.834-10.94v10.94M69 198.968l1.455 1.241M69 212.404l1.455-1.241m10.314-12.195l-1.468 1.241m1.468 12.195l-1.468-1.241m-3.012 4.542c0 .799-.646 1.446-1.442 1.446a1.444 1.444 0 01-1.443-1.446c0-.798.646-1.446 1.443-1.446.796 0 1.442.648 1.442 1.446zM146.403 407.905c0 3.839-3.102 6.949-6.931 6.949-3.83 0-6.932-3.11-6.932-6.949m6.842 13.526v-19.988m-3.165 16.725h6.255m-5.643-14.677l2.553-2.56m2.502 2.496l-2.476-2.483M130 403.491l2.54-2.56m2.502 2.496l-2.476-2.483m-.026 6.91v-6.82m11.336 2.457l2.54-2.56m2.502 2.496l-2.476-2.483m-.026 6.91v-6.82M435.361 362.872a2.6 2.6 0 01-.753 1.663 2.599 2.599 0 01-3.689 0c-.715-.717-.766-1.727-.473-2.482.128-.333.715-1.114.983-1.421.856-.985 2.464-2.444 2.464-4.683 0-3.698-2.451-5.758-5.617-5.758-1.429 0-2.923.639-4.11 2.06m-.077-7.32v20.551m3.179-17.671H421M418 159.659a7.004 7.004 0 014.608-1.728c3.881 0 7.034 3.161 7.034 7.051s-3.153 7.051-7.034 7.051m11.093-14.102v20.423m4.685-6.308h-15.765" stroke="#231B48" stroke-width="1.289" stroke-miterlimit="10" stroke-linecap="round" stroke-linejoin="round"/><path d="M223.206 72.377c0 4.31-3.485 7.8-7.781 7.8v1.29c5.011 0 9.07-4.071 9.07-9.09h-1.289zm-7.781 7.8c-4.296 0-7.78-3.49-7.78-7.8h-1.29c0 5.019 4.06 9.09 9.07 9.09v-1.29zm-7.78-7.8c0-4.31 3.484-7.801 7.78-7.801v-1.29c-5.01 0-9.07 4.072-9.07 9.09h1.29zm7.78-7.801c4.296 0 7.781 3.491 7.781 7.8h1.289c0-5.018-4.059-9.09-9.07-9.09v1.29zm.048 7.61a.24.24 0 01-.24.24v1.29a1.53 1.53 0 001.529-1.53h-1.289zm-.24.24a.24.24 0 01-.241-.24h-1.289c0 .845.685 1.53 1.53 1.53v-1.29zm-.241-.24a.24.24 0 01.241-.24v-1.29a1.53 1.53 0 00-1.53 1.53h1.289zm.241-.24a.24.24 0 01.24.24h1.289a1.53 1.53 0 00-1.529-1.53v1.29z" fill="#231B48"/><path d="M96.216 167.594c0 4.799-3.88 8.689-8.667 8.689a8.655 8.655 0 01-3.549-.755c4.442-.346 7.927-3.762 7.927-7.921 0-4.171-3.485-7.588-7.927-7.921a8.655 8.655 0 013.549-.755c4.787-.012 8.667 3.865 8.667 8.663zM68.902 240.215v-6.756m7.723-8.177c0 4.325-3.498 7.831-7.813 7.831-4.314 0-7.812-3.506-7.812-7.831m4.723 11.67h6.268m1.174-11.632c0 2.424-1.96 4.39-4.378 4.39a4.385 4.385 0 01-4.379-4.39 4.384 4.384 0 014.379-4.389 4.384 4.384 0 014.378 4.389zM121.336 383.931v17.006M113 392.402h16.799m.051.026c0 4.664-3.772 8.445-8.425 8.445-4.653 0-8.425-3.781-8.425-8.445s3.772-8.445 8.425-8.445c4.653 0 8.425 3.781 8.425 8.445zM299.783 82.393V75.65m3.6-15.65a3.682 3.682 0 01-3.677 3.685A3.681 3.681 0 01296.03 60m.587 19.13h6.255m2.719-9.533c0 3.209-2.595 5.81-5.796 5.81-3.2 0-5.795-2.602-5.795-5.81 0-3.208 2.595-5.81 5.795-5.81 3.201 0 5.796 2.602 5.796 5.81zM282.783 77.674v-6.743m-3.179 3.48h6.255m2.732-9.533c0 3.209-2.595 5.81-5.796 5.81-3.2 0-5.795-2.602-5.795-5.81 0-3.208 2.595-5.81 5.795-5.81 3.201 0 5.796 2.602 5.796 5.81zM107.783 387.537v-6.744m-3.179 3.481h6.255m-3.064-3.724c-3.2 0-5.795-2.601-5.795-5.809 0-3.209 2.595-5.81 5.795-5.81 1.556 0 2.968.614 4.009 1.614-7.519 0-7.2 8.111.196 8.194a5.77 5.77 0 01-4.205 1.811zM450.783 267.931v3.872m0 4.872v-4.872m0 0l3.717-2.872m-3.717 2.872l3.717 2.628m2.091 8.296c0-3.208-2.595-5.809-5.796-5.809-3.2 0-5.795 2.601-5.795 5.809 0 3.209 2.595 5.81 5.795 5.81 3.201 0 5.796-2.601 5.796-5.81zM70.897 248.154l4.072-4.069m-4.672-.154h4.698m.013 4.594v-4.568m-1.404 9.968c0 4.043-3.27 7.32-7.302 7.32-4.033 0-7.302-3.277-7.302-7.32 0-4.042 3.27-7.319 7.302-7.319s7.301 3.277 7.301 7.319z" stroke="#231B48" stroke-width="1.289" stroke-miterlimit="10" stroke-linecap="round" stroke-linejoin="round"/><path d="M166 99.931l1-9a6 6 0 10-12 0l1 9m10 0a2 2 0 103.999 0 2 2 0 00-3.999 0zm-10 0a2 2 0 11-3.999 0 2 2 0 013.999 0zM350 426.931l1 9a6 6 0 11-12 0l1-9m10 0a2 2 0 114 0 2 2 0 01-4 0zm-10 0a2 2 0 10-4 0 2 2 0 004 0z" stroke="#231B48" stroke-width="1.3"/><path d="M288.93 49.574l-.43 2.857m11.5-1l-.549 3.501m-87.951-2.5l.846 3.692m233.276 103.087l-2.386 1.788m26.847 116.196H467.1m-20.881 83.236l-2.983-1.787M122.5 422.431l2.386-2.979M104.1 404.761l2.983-2.383M46.92 246.828h3.58m-2.08-14.897l3.58.5m3.5-33.5l3.516.8m14.318-42.903l2.983 1.787M90.5 388.431l2.5-1.5m257.5 63.5l-1.5-2.5m-195.5-372.5l1.5 3" stroke="#52458A"/><path fill-rule="evenodd" clip-rule="evenodd" d="M120.54 357.931a2 2 0 01-2-2v-.63c0-.69.35-1.299.882-1.658v-1.705a1.998 1.998 0 01-.882-1.659v-.63a2 2 0 012-2h2.52c.188 0 .369.026.542.075.172-.049.354-.075.541-.075h2.52a2 2 0 012 2v.63c0 .691-.35 1.3-.882 1.659v1.705c.532.359.882.968.882 1.658v.63a2 2 0 01-2 2h-2.52c-.187 0-.369-.025-.541-.074a1.981 1.981 0 01-.542.074h-2.52zm0-2h2.52v-.63h-.882v-5.022h.882v-.63h-2.52v.63h.882v5.022h-.882v.63zm6.123 0v-.63h-.882v-5.022h.882v-.63h-2.52v.63h.882v5.022h-.882v.63h2.52zm69.877 62a2 2 0 01-2-2v-.63c0-.69.35-1.299.882-1.658v-1.705a1.998 1.998 0 01-.882-1.659v-.63a2 2 0 012-2h2.52c.188 0 .369.026.542.075.172-.049.354-.075.541-.075h2.52c.188 0 .37.026.542.075.172-.049.354-.075.542-.075h2.52a2 2 0 012 2v.63c0 .691-.35 1.3-.882 1.659v1.705c.532.359.882.968.882 1.658v.63a2 2 0 01-2 2h-2.52c-.188 0-.37-.025-.542-.074a1.976 1.976 0 01-.542.074h-2.52c-.187 0-.369-.025-.541-.074a1.981 1.981 0 01-.542.074h-2.52zm0-2h2.52v-.63h-.882v-5.022h.882v-.63h-2.52v.63h.882v5.022h-.882v.63zm3.603-.63v.63h2.52v-.63h-.882v-5.022h.882v-.63h-2.52v.63h.882v5.022h-.882zm6.124.63v-.63h-.882v-5.022h.882v-.63h-2.52v.63h.882v5.022h-.882v.63h2.52zm95.273 6a2 2 0 01-2-2v-.63c0-.69.35-1.299.882-1.658v-1.705a1.998 1.998 0 01-.882-1.659v-.63a2 2 0 012-2h2.52c.124 0 .245.012.362.033.118-.021.239-.033.361-.033h.81a2 2 0 011.764 1.058 2.001 2.001 0 011.764-1.058h.783a2.002 2.002 0 011.896 2.639l-2.115 6.282a2 2 0 01-1.896 1.361h-.918a1.996 1.996 0 01-1.405-.577 1.995 1.995 0 01-1.406.577h-2.52zm0-8.282v.63h.882v5.022h-.882v.63h2.52v-.63h-.882v-5.022h.882v-.63h-2.52zm5.331 6.282h.918l2.115-6.282h-.783l-1.044 3.168-.711 2.358h-.045l-.693-2.358-1.035-3.168h-.81l2.088 6.282zm74.397-46a2 2 0 01-1.898-1.369l-2.088-6.282a1.999 1.999 0 011.898-2.631h.81a2 2 0 011.764 1.058 2 2 0 011.764-1.058h.783a2 2 0 011.895 2.639l-2.115 6.282a2 2 0 01-1.895 1.361h-.918zm1.206-5.114l-.711 2.358h-.045l-.693-2.358-1.035-3.168h-.81l1.13 3.402.958 2.88h.918l2.115-6.282h-.783l-1.044 3.168zm33.794-67.886a2 2 0 01-1.898-1.369l-2.088-6.282a1.999 1.999 0 011.898-2.631h.81a2 2 0 011.764 1.058 2 2 0 011.764-1.058h.783c.122 0 .243.012.361.033.117-.021.238-.033.362-.033h2.52a2 2 0 012 2v.63c0 .691-.35 1.3-.882 1.659v1.705c.532.359.882.968.882 1.658v.63a2 2 0 01-2 2h-2.52a1.995 1.995 0 01-1.419-.59 2 2 0 01-1.419.59h-.918zm-.958-4.88l.003.006.955 2.874h.918l.978-2.905.004-.011 1.133-3.366h-.783l-1.044 3.168-.711 2.358h-.045l-.693-2.358-1.035-3.168h-.81l1.13 3.402zm7.234 2.88v-.63h-.882v-5.022h.882v-.63h-2.52v.63h.882v5.022h-.882v.63h2.52zm-7.276-66a2 2 0 01-1.898-1.369l-2.088-6.282a1.999 1.999 0 011.898-2.631h.81a2 2 0 011.764 1.058 2 2 0 011.764-1.058h.783c.122 0 .243.012.361.033.117-.021.238-.033.362-.033h2.52c.188 0 .37.026.542.075.172-.049.354-.075.542-.075h2.52a2 2 0 012 2v.63c0 .691-.35 1.3-.882 1.659v1.705c.532.359.882.968.882 1.658v.63a2 2 0 01-2 2h-2.52c-.188 0-.37-.025-.542-.074a1.976 1.976 0 01-.542.074h-2.52a1.995 1.995 0 01-1.419-.59 2 2 0 01-1.419.59h-.918zm-.958-4.88l.003.006.955 2.874h.918l.978-2.905.004-.011 1.133-3.366h-.783l-1.044 3.168-.711 2.358h-.045l-.693-2.358-1.035-3.168h-.81l1.13 3.402zm5.596 2.25h-.882v.63h2.52v-.63h-.882v-5.022h.882v-.63h-2.52v.63h.882v5.022zm5.242.63v-.63h-.882v-5.022h.882v-.63h-2.52v.63h.882v5.022h-.882v.63h2.52zm-332.608 67a2 2 0 01-2-2v-.63c0-.69.35-1.299.882-1.658v-1.705a1.998 1.998 0 01-.882-1.659v-.63a2 2 0 012-2h2.52a2 2 0 012 2v.63c0 .691-.35 1.3-.882 1.659v1.705c.532.359.882.968.882 1.658v.63a2 2 0 01-2 2h-2.52zm0-8.282v.63h.882v5.022h-.882v.63h2.52v-.63h-.882v-5.022h.882v-.63h-2.52zm278.728-133.718a2 2 0 01-1.898-1.369l-2.088-6.282a1.999 1.999 0 011.898-2.631h.81a2 2 0 011.764 1.058 2 2 0 011.764-1.058h.783c.122 0 .243.012.361.033.117-.021.238-.033.362-.033h2.52c.188 0 .37.026.542.075.172-.049.354-.075.542-.075h2.52c.187 0 .369.026.541.075.173-.049.354-.075.542-.075h2.52a2 2 0 012 2v.63c0 .691-.35 1.3-.882 1.659v1.705c.532.359.882.968.882 1.658v.63a2 2 0 01-2 2h-2.52c-.188 0-.369-.025-.542-.074a1.974 1.974 0 01-.541.074h-2.52c-.188 0-.37-.025-.542-.074a1.976 1.976 0 01-.542.074h-2.52a1.995 1.995 0 01-1.419-.59 2 2 0 01-1.419.59h-.918zm-.958-4.88l.003.006.955 2.874h.918l.978-2.905.004-.011 1.133-3.366h-.783l-1.044 3.168-.711 2.358h-.045l-.693-2.358-1.035-3.168h-.81l1.13 3.402zm5.596 2.25h-.882v.63h2.52v-.63h-.882v-5.022h.882v-.63h-2.52v.63h.882v5.022zm2.722 0v.63h2.52v-.63h-.882v-5.022h.882v-.63h-2.52v.63h.882v5.022h-.882zm6.123.63v-.63h-.882v-5.022h.882v-.63h-2.52v.63h.882v5.022h-.882v.63h2.52zm-86.128-46.474a2 2 0 01-2-2v-.63a2 2 0 01.882-1.659v-1.705a1.997 1.997 0 01-.882-1.658v-.63a2 2 0 012-2h2.52c.14 0 .276.014.407.041.132-.027.268-.041.406-.041h.909c.634 0 1.227.3 1.602.803a2 2 0 011.602-.803h.864a2 2 0 011.67 3.1l-1.3 1.974 1.367 2.127a2 2 0 01-1.683 3.081h-.909a2 2 0 01-1.656-.879 2 2 0 01-1.656.879h-.864c-.128 0-.255-.012-.379-.036-.123.023-.25.036-.38.036h-2.52zm1.638-2.63h.882v.63h-2.52v-.63h.882v-5.022h-.882v-.63h2.52v.63h-.882v5.022zm1.641.63h.864l1.647-2.637h.018l1.647 2.637h.909l-2.07-3.222 2.016-3.06h-.864l-1.611 2.502h-.018l-1.575-2.502h-.909l1.998 3.087-2.052 3.195zm-165.223 53.438c-.123.024-.25.036-.378.036h-.909a2 2 0 01-1.656-.878 2 2 0 01-1.656.878h-.864a1.998 1.998 0 01-1.683-3.08l1.355-2.11-1.297-2.005a2 2 0 011.679-3.087h.909c.633 0 1.226.3 1.602.803a2.001 2.001 0 011.602-.803h.864c.138 0 .273.015.405.042.132-.027.268-.042.407-.042h2.52a2 2 0 012 2v.63c0 .691-.35 1.3-.882 1.659v1.705c.532.359.882.968.882 1.658v.63a2 2 0 01-2 2h-2.52c-.13 0-.257-.012-.38-.036zm2.9-1.964v-.63h-.882v-5.022h.882v-.63h-2.52v.63h.882v5.022h-.882v.63h2.52zm-3.332-6.282h-.864l-1.611 2.502h-.018l-1.575-2.502h-.909l1.998 3.087-2.052 3.195h.864l1.647-2.637h.018l1.647 2.637h.909l-2.07-3.222 2.016-3.06zm-40.568 80.246c-.123.024-.25.036-.378.036h-.91a2 2 0 01-1.655-.878 2 2 0 01-1.656.878h-.864a2 2 0 01-1.683-3.08l1.355-2.11-1.297-2.005a2 2 0 011.679-3.087h.909a2 2 0 011.602.803 2 2 0 011.602-.803h.864c.138 0 .273.015.405.042.132-.027.268-.042.407-.042h2.52c.188 0 .37.026.542.075.172-.049.354-.075.542-.075h2.52a2 2 0 012 2v.63c0 .691-.35 1.3-.882 1.659v1.705c.532.359.882.968.882 1.658v.63a2 2 0 01-2 2h-2.52c-.188 0-.37-.025-.542-.074a1.977 1.977 0 01-.542.074h-2.52c-.13 0-.257-.012-.38-.036zm2.9-1.964v-.63h-.882v-5.022h.882v-.63h-2.52v.63h.882v5.022h-.882v.63h2.52zm-3.332-6.282h-.864l-1.611 2.502h-.018l-1.575-2.502h-.91l1.999 3.087-2.052 3.195h.864l1.647-2.637h.018l1.647 2.637h.909l-2.07-3.222 2.016-3.06zm6.936 6.282v-.63h-.882v-5.022h.882v-.63h-2.52v.63h.882v5.022h-.882v.63h2.52zM218.056 106.89a2 2 0 01-1.755 1.041h-.909a2 2 0 01-1.656-.878 2 2 0 01-1.656.878h-.864a1.998 1.998 0 01-1.683-3.08l1.355-2.11-1.297-2.005a2 2 0 011.679-3.087h.909c.633 0 1.226.3 1.602.803a2 2 0 011.602-.803h.864a2.001 2.001 0 011.67 3.101l-1.3 1.973 1.366 2.127c.396.616.424 1.398.073 2.04zm-1.809-7.24h-.864l-1.611 2.501h-.018l-1.575-2.502h-.909l1.998 3.087-2.052 3.195h.864l1.647-2.637h.018l1.647 2.637h.909l-2.07-3.222.683-1.037.002-.002 1.331-2.02z" fill="#fff"/><path d="M120.54 355.931v-.63h.882v-5.022h-.882v-.63h2.52v.63h-.882v5.022h.882v.63h-2.52zm3.604 0v-.63h.882v-5.022h-.882v-.63h2.52v.63h-.882v5.022h.882v.63h-2.52zM196.54 415.931v-.63h.882v-5.022h-.882v-.63h2.52v.63h-.882v5.022h.882v.63h-2.52zm3.604 0v-.63h.882v-5.022h-.882v-.63h2.52v.63h-.882v5.022h.882v.63h-2.52zm3.603 0v-.63h.882v-5.022h-.882v-.63h2.52v.63h-.882v5.022h.882v.63h-2.52zM301.54 419.931v-.63h.882v-5.022h-.882v-.63h2.52v.63h-.882v5.022h.882v.63h-2.52zm5.332 0l-2.088-6.282h.81l1.035 3.168.693 2.358h.045l.711-2.358 1.044-3.168h.783l-2.115 6.282h-.918zM381.268 371.931l-2.088-6.282h.81l1.035 3.168.693 2.358h.045l.711-2.358 1.044-3.168h.783l-2.115 6.282h-.918zM416.268 298.931l-2.088-6.282h.81l1.035 3.168.693 2.358h.045l.711-2.358 1.044-3.168h.783l-2.115 6.282h-.918zm3.756 0v-.63h.882v-5.022h-.882v-.63h2.52v.63h-.882v5.022h.882v.63h-2.52zM415.268 230.931l-2.088-6.282h.81l1.035 3.168.693 2.358h.045l.711-2.358 1.044-3.168h.783l-2.115 6.282h-.918zm3.756 0v-.63h.882v-5.022h-.882v-.63h2.52v.63h-.882v5.022h.882v.63h-2.52zm3.604 0v-.63h.882v-5.022h-.882v-.63h2.52v.63h-.882v5.022h.882v.63h-2.52zM92.54 295.931v-.63h.882v-5.022h-.882v-.63h2.52v.63h-.882v5.022h.882v.63h-2.52zM371.268 153.931l-2.088-6.282h.81l1.035 3.168.693 2.358h.045l.711-2.358 1.044-3.168h.783l-2.115 6.282h-.918zm3.756 0v-.63h.882v-5.022h-.882v-.63h2.52v.63h-.882v5.022h.882v.63h-2.52zm3.604 0v-.63h.882v-5.022h-.882v-.63h2.52v.63h-.882v5.022h.882v.63h-2.52zm3.603 0v-.63h.882v-5.022h-.882v-.63h2.52v.63h-.882v5.022h.882v.63h-2.52zM298.623 105.457v-.63h.882v-5.022h-.882v-.63h2.52v.63h-.882v5.022h.882v.63h-2.52zm8.365 0h-.909l-1.647-2.637h-.018l-1.647 2.637h-.864l2.052-3.195-1.998-3.087h.909l1.575 2.502h.018l1.611-2.502h.864l-2.016 3.06 2.07 3.222zM136.301 156.931h-.909l-1.647-2.637h-.018l-1.647 2.637h-.864l2.052-3.195-1.998-3.087h.909l1.575 2.502h.018l1.611-2.502h.864l-2.016 3.06 2.07 3.222zm.759 0v-.63h.882v-5.022h-.882v-.63h2.52v.63h-.882v5.022h.882v.63h-2.52zM95.301 228.931h-.909l-1.647-2.637h-.018l-1.647 2.637h-.864l2.052-3.195-1.998-3.087h.909l1.575 2.502h.018l1.611-2.502h.864l-2.016 3.06 2.07 3.222zm.758 0v-.63h.883v-5.022h-.882v-.63h2.52v.63h-.882v5.022h.882v.63h-2.52zm3.604 0v-.63h.882v-5.022h-.882v-.63h2.52v.63h-.882v5.022h.882v.63h-2.52zM216.301 105.931h-.909l-1.647-2.637h-.018l-1.647 2.637h-.864l2.052-3.195-1.998-3.087h.909l1.575 2.502h.018l1.611-2.502h.864l-2.016 3.06 2.07 3.222z" fill="#7D7899"/></svg>