<svg width="74" height="68" fill="none" xmlns="http://www.w3.org/2000/svg"><circle opacity=".1" cx="45" cy="39" r="29" fill="#52458A"/><path d="M39.5 21.5L27 34m12.5-12.5l3.5.5 3.5.5 2.447-2.447M39.5 21.5l-.87-3.773m2.24-5.722A25.879 25.879 0 0027 8C12.64 8 1 19.64 1 34s11.64 26 26 26 26-11.64 26-26c0-5.132-1.487-9.917-4.053-13.947m-8.077-8.048L38 15l.63 2.727m2.24-5.722L49.5 3 51 9.5l7 1.5-9.053 9.053m-10.318-2.326A19.909 19.909 0 0027 14C15.954 14 7 22.954 7 34s8.954 20 20 20 20-8.954 20-20a19.91 19.91 0 00-3.974-11.967M33 34a6 6 0 11-12 0 6 6 0 0112 0zm7 0c0 7.18-5.82 13-13 13s-13-5.82-13-13 5.82-13 13-13 13 5.82 13 13z" stroke="#52458A" stroke-width="2"/></svg>