<svg width="73" height="67" fill="none" xmlns="http://www.w3.org/2000/svg"><circle opacity=".1" cx="44" cy="38" r="29" fill="#52458A"/><path d="M46.615 35.231l2.23-2.726a4.653 4.653 0 001.05-2.939V21.32c0-.896-.208-1.795-.6-2.6a5.956 5.956 0 00-2.787-2.752v-3.313a4.076 4.076 0 00-4.072-4.072 4.066 4.066 0 00-3.194 1.552 4.065 4.065 0 00-6.39 0 4.066 4.066 0 00-6.389 0 4.066 4.066 0 00-3.195-1.552 4.076 4.076 0 00-4.071 4.072v6.395c0 .725.19 1.405.524 1.995v7.962a.877.877 0 101.754 0v-6.302a4.066 4.066 0 004.988-1.134 4.065 4.065 0 006.39 0 4.065 4.065 0 004.982 1.137 3.843 3.843 0 001.738.414h.943l-.183 2.312h-1.191a7.064 7.064 0 00-7.04 6.622l-.125 2.032a.877.877 0 101.75.107l.125-2.031a5.308 5.308 0 015.29-4.975h2.002a.877.877 0 00.874-.808l.258-3.26h.16a.877.877 0 100-1.753h-2.862a2.116 2.116 0 01-2.114-2.114c0-1.166.948-2.114 2.114-2.114h4.387c1.587 0 3.062.922 3.757 2.348.277.567.423 1.2.423 1.832v8.247c0 .665-.232 1.314-.653 1.828l-2.23 2.726a.877.877 0 001.357 1.111zM23.268 21.367a2.32 2.32 0 01-2.317-2.318v-6.395a2.32 2.32 0 012.317-2.318 2.32 2.32 0 012.318 2.318v6.395a2.32 2.32 0 01-2.318 2.318zm6.39 0a2.32 2.32 0 01-2.318-2.318v-6.395a2.32 2.32 0 012.318-2.318 2.32 2.32 0 012.317 2.318v6.395a2.32 2.32 0 01-2.317 2.318zm6.047-2.114c0 .772.229 1.491.62 2.096a2.32 2.32 0 01-2.595-2.3v-6.395a2.32 2.32 0 012.317-2.318 2.32 2.32 0 012.318 2.318v2.925a3.875 3.875 0 00-2.66 3.674zm4.414-3.868v-2.731a2.32 2.32 0 012.317-2.318 2.32 2.32 0 012.318 2.318v2.786a5.837 5.837 0 00-.793-.055h-3.842z" fill="#52458A"/><path fill-rule="evenodd" clip-rule="evenodd" d="M32.799 35.016a.877.877 0 01-.822-.93l.125-2.03a7.064 7.064 0 017.04-6.623h1.191l.184-2.312h-.943c-.625 0-1.215-.15-1.738-.414a4.062 4.062 0 01-4.983-1.138 4.062 4.062 0 01-6.39 0 4.062 4.062 0 01-4.988 1.134v6.303a.877.877 0 11-1.754 0v-7.962a4.046 4.046 0 01-.524-1.995v-6.395a4.076 4.076 0 014.072-4.072 4.062 4.062 0 013.195 1.552 4.062 4.062 0 016.39 0 4.062 4.062 0 016.39 0 4.062 4.062 0 013.195-1.552 4.076 4.076 0 014.07 4.072v3.313a5.956 5.956 0 012.786 2.752c.393.805.6 1.704.6 2.6v8.247a4.653 4.653 0 01-1.049 2.94l-2.23 2.725a.875.875 0 01-1.235.123.877.877 0 01-.123-1.234l2.23-2.726c.421-.514.653-1.163.653-1.828V21.32c0-.631-.146-1.264-.423-1.832a4.206 4.206 0 00-3.757-2.348h-4.387a2.116 2.116 0 00-2.114 2.114c0 1.166.948 2.114 2.114 2.114h2.863a.877.877 0 010 1.754h-.16l-.259 3.259a.877.877 0 01-.874.808h-2.002a5.307 5.307 0 00-5.29 4.975l-.124 2.031a.877.877 0 01-.929.822zm9.662-11.695a1.077 1.077 0 00-.024-2.154h-2.863a1.916 1.916 0 01-1.914-1.914c0-1.055.859-1.914 1.914-1.914h4.387c1.51 0 2.916.878 3.578 2.236.263.54.402 1.143.402 1.744v8.247c0 .619-.216 1.223-.607 1.701l-2.23 2.726a1.077 1.077 0 00.832 1.76M42.461 23.32l-.243 3.074c-.045.56-.512.993-1.074.993h-2.002a5.108 5.108 0 00-5.09 4.787l-.124 2.031a1.077 1.077 0 01-2.15-.132l.124-2.03a7.264 7.264 0 017.24-6.81h1.007l.151-1.913h-.726a4.041 4.041 0 01-1.74-.392 4.261 4.261 0 01-4.982-1.048 4.261 4.261 0 01-6.389 0 4.262 4.262 0 01-4.788 1.131v5.994a1.077 1.077 0 11-2.154 0v-7.91a4.245 4.245 0 01-.524-2.047v-6.395a4.276 4.276 0 014.272-4.272c1.27 0 2.412.559 3.195 1.44a4.261 4.261 0 016.389 0 4.261 4.261 0 016.389 0 4.261 4.261 0 013.195-1.44 4.276 4.276 0 014.271 4.272v3.188a6.152 6.152 0 012.767 2.789c.406.833.62 1.762.62 2.688v8.247a4.852 4.852 0 01-1.094 3.066l-2.23 2.726c-.214.26-.523.395-.835.395M40.12 15.385h3.842a5.783 5.783 0 01.793.055v-2.786a2.32 2.32 0 00-2.317-2.318 2.32 2.32 0 00-2.318 2.318v2.73zm4.435-.17v-2.56a2.12 2.12 0 00-2.117-2.118 2.12 2.12 0 00-2.118 2.117v2.53h3.642c.2 0 .397.01.593.03zm-23.403 3.834a2.12 2.12 0 002.118 2.118 2.12 2.12 0 002.117-2.118v-6.395a2.12 2.12 0 00-2.117-2.117 2.12 2.12 0 00-2.118 2.117v6.395zm6.39 0a2.12 2.12 0 002.117 2.118 2.12 2.12 0 002.117-2.118v-6.395a2.12 2.12 0 00-2.117-2.117 2.12 2.12 0 00-2.118 2.117v6.395zm8.444 2.117a4.041 4.041 0 01-.48-1.913 4.074 4.074 0 012.66-3.816v-2.783a2.12 2.12 0 00-2.118-2.117 2.12 2.12 0 00-2.117 2.117v6.395a2.12 2.12 0 002.055 2.117zm.225-.006a3.842 3.842 0 01-.505-1.907 3.874 3.874 0 012.66-3.674v-2.925a2.32 2.32 0 00-2.318-2.318 2.32 2.32 0 00-2.317 2.318v6.395a2.32 2.32 0 002.595 2.3 3.81 3.81 0 01-.115-.19zm-15.259-2.11a2.32 2.32 0 002.318 2.317 2.32 2.32 0 002.317-2.318v-6.395a2.32 2.32 0 00-2.317-2.318 2.32 2.32 0 00-2.318 2.318v6.395zm6.39 0a2.32 2.32 0 002.317 2.317 2.32 2.32 0 002.317-2.318v-6.395a2.32 2.32 0 00-2.317-2.318 2.32 2.32 0 00-2.318 2.318v6.395z" fill="#52458A"/><path d="M44.121 36.894a.877.877 0 00-1.234.124l-1.491 1.822a2.158 2.158 0 00-.487 1.364v19.92a.877.877 0 101.754 0v-19.92a.4.4 0 01.09-.253l1.492-1.822a.877.877 0 00-.124-1.235z" fill="#52458A"/><path fill-rule="evenodd" clip-rule="evenodd" d="M42.732 36.891a1.077 1.077 0 011.516-.151l-.127.154a.877.877 0 00-1.234.124l-1.491 1.822a2.158 2.158 0 00-.488 1.364v19.92a.877.877 0 101.755 0v-19.92a.4.4 0 01.09-.253l1.491-1.823a.877.877 0 00-.123-1.234l.127-.154c.46.376.528 1.055.151 1.515m0 0l-1.491 1.823a.2.2 0 00-.045.126v19.92a1.077 1.077 0 11-2.154 0v-19.92c0-.542.188-1.071.532-1.49l1.491-1.823" fill="#52458A"/><path d="M23.311 38.936a6.002 6.002 0 01-1.836-4.308v-1.881a.877.877 0 10-1.754 0v1.88c0 2.094.866 4.125 2.375 5.575l.622.596a.82.82 0 01.25.59v18.638a.877.877 0 101.755 0V41.387c0-.696-.288-1.372-.79-1.854l-.622-.597z" fill="#52458A"/><path fill-rule="evenodd" clip-rule="evenodd" d="M23.45 38.792l.621.597c.542.52.852 1.247.852 1.998v18.64a1.077 1.077 0 11-2.154 0v-18.64a.62.62 0 00-.19-.444l-.621-.597.138-.144.622.596a.82.82 0 01.25.59v18.638a.877.877 0 101.755 0V41.387c0-.696-.288-1.372-.79-1.854l-.622-.597a6.002 6.002 0 01-1.836-4.308v-1.881a.877.877 0 10-1.755 0v1.88c0 2.094.867 4.125 2.376 5.575l-.138.144a7.965 7.965 0 01-2.438-5.718v-1.881a1.077 1.077 0 112.155 0v1.88c0 1.564.647 3.082 1.775 4.165z" fill="#52458A"/><path d="M58.916 42.658L53.347 35.4a1.119 1.119 0 00-.894-.44c-.353 0-.679.16-.894.44l-5.57 7.257a1.12 1.12 0 00-.116 1.184 1.12 1.12 0 001.01.629h1.655v15.573a.877.877 0 101.754 0v-16.45a.877.877 0 00-.877-.877h-1.259l4.297-5.6 4.297 5.6h-1.259a.877.877 0 00-.877.877v16.44a.877.877 0 101.754 0V44.47h1.654c.433 0 .82-.241 1.011-.629a1.12 1.12 0 00-.117-1.184z" fill="#52458A"/><path fill-rule="evenodd" clip-rule="evenodd" d="M45.99 42.658l5.569-7.257c.215-.28.54-.44.894-.44.353 0 .68.16.894.44l5.57 7.257c.262.343.307.797.116 1.184a1.12 1.12 0 01-1.01.629h-1.655v15.562a.877.877 0 11-1.754 0v-16.44c0-.484.393-.876.877-.876h1.259l-4.297-5.6-4.297 5.6h1.259c.484 0 .877.392.877.877v16.45a.877.877 0 11-1.754 0V44.471h-1.654c-.433 0-.82-.241-1.011-.629a1.12 1.12 0 01.117-1.184zm2.348 2.013h-1.454a1.32 1.32 0 01-1.19-.74 1.32 1.32 0 01.137-1.395l5.57-7.257c.252-.33.637-.519 1.052-.519.415 0 .8.19 1.053.52l5.569 7.256c.31.403.362.939.137 1.395a1.32 1.32 0 01-1.19.74h-1.454v15.362a1.077 1.077 0 11-2.154 0v-16.44c0-.594.482-1.076 1.077-1.076h.853l-3.891-5.071-3.892 5.07h.854c.595 0 1.077.483 1.077 1.078v16.45a1.077 1.077 0 11-2.154 0V44.671z" fill="#52458A"/><path d="M8.441 35.401a1.119 1.119 0 00-.894-.44c-.353 0-.679.16-.894.44l-5.569 7.257a1.12 1.12 0 00-.116 1.184 1.12 1.12 0 001.01.629h1.655v7.162a.877.877 0 101.754 0v-8.04a.877.877 0 00-.877-.876H3.25l4.297-5.6 4.298 5.6h-1.26a.877.877 0 00-.877.877v16.44a.877.877 0 101.754 0V44.47h1.655c.432 0 .82-.241 1.01-.629a1.12 1.12 0 00-.117-1.184L8.442 35.4z" fill="#52458A"/><path fill-rule="evenodd" clip-rule="evenodd" d="M1.084 42.658l5.57-7.257c.214-.28.54-.44.893-.44s.68.16.894.44l5.57 7.257c.263.343.307.797.116 1.184a1.12 1.12 0 01-1.01.629h-1.655v15.562a.877.877 0 11-1.754 0v-16.44c0-.484.393-.876.877-.876h1.26l-4.298-5.6-4.297 5.6h1.26c.484 0 .877.392.877.877v8.039a.877.877 0 11-1.755 0V44.47H1.978c-.432 0-.82-.241-1.01-.629a1.12 1.12 0 01.116-1.184zm2.348 2.013H1.978a1.32 1.32 0 01-1.19-.74 1.32 1.32 0 01.137-1.395l5.57-7.257c.252-.33.637-.519 1.052-.519.416 0 .8.19 1.053.52l5.569 7.256c.31.403.362.939.137 1.395a1.32 1.32 0 01-1.19.74h-1.454v15.362a1.077 1.077 0 11-2.154 0v-16.44c0-.594.482-1.076 1.077-1.076h.854l-3.892-5.071-3.891 5.07h.853c.595 0 1.078.483 1.078 1.078v8.039a1.077 1.077 0 11-2.155 0V44.67z" fill="#52458A"/><path d="M4.51 54.497a.877.877 0 00-.878.877v4.67a.877.877 0 101.754 0v-4.67a.877.877 0 00-.877-.877z" fill="#52458A"/><path fill-rule="evenodd" clip-rule="evenodd" d="M3.432 55.374a1.077 1.077 0 112.154 0v4.67a1.077 1.077 0 11-2.154 0v-4.67zm.2 0a.877.877 0 111.754 0v4.67a.877.877 0 11-1.754 0v-4.67z" fill="#52458A"/><path d="M11.86 1.441A1.118 1.118 0 0010.968 1c-.353 0-.68.16-.894.44l-5.57 7.258a1.12 1.12 0 00-.116 1.184 1.12 1.12 0 001.01.629h1.655v15.573a.877.877 0 101.754 0V9.634a.877.877 0 00-.877-.878h-1.26l4.298-5.599 4.297 5.6h-1.26a.877.877 0 00-.876.876v16.44a.877.877 0 101.754 0V10.511h1.654c.432 0 .82-.241 1.01-.629a1.12 1.12 0 00-.116-1.184L11.86 1.44z" fill="#52458A"/><path fill-rule="evenodd" clip-rule="evenodd" d="M4.503 8.698l5.57-7.257c.215-.28.54-.44.894-.44.353 0 .679.16.894.44l5.569 7.257c.263.342.308.796.117 1.184a1.12 1.12 0 01-1.011.629h-1.654v15.562a.877.877 0 11-1.754 0V9.633c0-.484.392-.877.877-.877h1.259l-4.297-5.599-4.297 5.6h1.259c.484 0 .877.392.877.877v16.45a.877.877 0 11-1.754 0V10.511H5.398c-.433 0-.82-.241-1.011-.629a1.12 1.12 0 01.116-1.184zm2.349 2.013H5.398a1.32 1.32 0 01-1.19-.74 1.32 1.32 0 01.137-1.395l5.569-7.257C10.167.99 10.551.8 10.967.8c.415 0 .8.19 1.052.52m0 0l5.57 7.256c.309.403.362.939.137 1.395a1.32 1.32 0 01-1.19.74h-1.454v15.362a1.077 1.077 0 11-2.154 0V9.633c0-.594.482-1.077 1.077-1.077h.853l-3.891-5.07-3.892 5.07h.854c.595 0 1.077.483 1.077 1.078v16.45a1.077 1.077 0 11-2.154 0V10.711" fill="#52458A"/></svg>