<svg width="74" height="65" fill="none" xmlns="http://www.w3.org/2000/svg"><circle opacity=".1" cx="45" cy="36" r="29" fill="#52458A"/><g clip-path="url(#clip0)" fill="#52458A"><path d="M2.001 43h-2c0 4.457 4.542 8.999 9 8.999v-2c-3.337 0-7-3.663-7-7zM57.545 26.401a7.989 7.989 0 00-2.637-2.377 7.979 7.979 0 00-5.97-11.963A8.009 8.009 0 0041 5.001c-.03 0-.059.006-.089.006A5.992 5.992 0 0030 2.691a5.992 5.992 0 00-10.918 2.367 8.007 8.007 0 00-7.012 6.948c-.023 0-.046-.005-.07-.005a8 8 0 00-7.609 10.473A7.99 7.99 0 001.001 29a8.038 8.038 0 004.094 6.98 7.979 7.979 0 005.966 11.96A8.009 8.009 0 0019 54.998c.03 0 .058-.006.088-.006A5.991 5.991 0 0030 57.309a5.992 5.992 0 0010.918-2.367 8.008 8.008 0 007.013-6.943c.023 0 .046.005.069.005a8 8 0 007.61-10.472 7.989 7.989 0 001.936-11.13zM51 37v2a7.927 7.927 0 002.8-.517 5.979 5.979 0 01-5.8 7.516h-.064a7.952 7.952 0 00-3.736-5.812l-1.05 1.7a6 6 0 01-2.25 11.038A6 6 0 0039 49.53l-1.334 1.49A4 4 0 1131 53.999v-2h-2v2a4 4 0 11-6.4-3.2l-1.2-1.6a5.944 5.944 0 00-2.305 3.793c-.031 0-.063.007-.093.007a6 6 0 01-5.922-5.078 8.013 8.013 0 001.207-.253l-.57-1.918a6 6 0 11.855-11.173l.858-1.806a7.992 7.992 0 00-9.095 1.588A5.99 5.99 0 019.001 23v-2a7.927 7.927 0 00-2.8.517 5.979 5.979 0 015.8-7.516h.064a7.953 7.953 0 003.736 5.812l1.05-1.7a6 6 0 012.25-11.038A6 6 0 0021 10.47l1.333-1.49A4 4 0 1129 6.001v2h2v-2a4 4 0 116.4 3.2l1.2 1.6a5.945 5.945 0 002.305-3.793c.031 0 .062-.007.093-.007a6 6 0 015.922 5.078 8 8 0 00-1.207.253l.57 1.918a6 6 0 11-.855 11.173l-.858 1.806a7.993 7.993 0 009.095-1.588A5.99 5.99 0 0150.999 37z"/><path d="M27 16.514A9.014 9.014 0 0021 25h2a7.015 7.015 0 014.666-6.6L27 16.515zM29 16.056l.219 1.988a7.111 7.111 0 011.56 0l.22-1.988a9.122 9.122 0 00-1.999 0z"/><path d="M40.954 17.99C37.088 11.94 29.05 10.17 23 14.034c-6.05 3.866-7.82 11.904-3.954 17.953A12.998 12.998 0 0023 35.944v2.24A2.972 2.972 0 0021.78 43 2.987 2.987 0 0024 48h12a2.987 2.987 0 002.22-5A2.972 2.972 0 0037 38.184v-2.241c6.05-3.866 7.82-11.904 3.954-17.954zM36 46H24a1 1 0 010-2h12a1 1 0 010 2zm0-4H24a1 1 0 010-2h12a1 1 0 010 2zm-.5-7.483a1 1 0 00-.5.865v2.617h-4v-5.585l3.707-3.707-1.414-1.414L30 30.586l-3.293-3.293-1.414 1.414L29 32.414v5.585h-4v-2.617a1 1 0 00-.5-.865c-5.259-3.034-7.063-9.757-4.029-15.016A10.994 10.994 0 0130 14c6.072-.004 10.996 4.915 11 10.987a10.993 10.993 0 01-5.5 9.529zM2.001 39h-2v2h2v-2zM50.998 8.001v2c3.337 0 7 3.663 7 7h2c0-4.458-4.542-9-9-9zM59.998 19h-2v2h2v-2z"/></g><defs><clipPath id="clip0"><path fill="#fff" d="M0 0h60v60H0z"/></clipPath></defs></svg>