<svg width="78" height="67" fill="none" xmlns="http://www.w3.org/2000/svg"><circle opacity=".1" cx="49" cy="38" r="29" fill="#52458A"/><path d="M56.611 8.066l-2.563-2.258 2.563-2.257c.4-.352.536-.9.348-1.397a1.256 1.256 0 00-1.184-.819h-10.61V.88a.88.88 0 10-1.759 0v11.86l-7.222 3.922a2.781 2.781 0 00-.285-.924L34.88 13.75a2.782 2.782 0 00-3.74-1.206l-.787.402a2.761 2.761 0 00-1.378 1.62 2.759 2.759 0 00.172 2.12l1.017 1.988c.238.464.589.83 1.002 1.088-.54.727-.797 1.622-1.06 2.551l-.19.671a.879.879 0 101.692.479l.19-.67c.385-1.36.622-2.087 1.376-2.496l1.35-.734.167-.085c.055-.029.107-.06.16-.092l9.627-5.228a3.722 3.722 0 01-1.775 2.988l-6.26 3.804-.022.013-1.949 1.184a.88.88 0 00.84 1.542l-1.478 4.47-1.08.443-2.94 1.204.847-2.994a.88.88 0 00-1.692-.478l-1.338 4.732a.841.841 0 00-.032.191l-.35 6.432c-.01.246.041.71-.072.949l-3.89 8.182h-2.826a3.006 3.006 0 00-3.002 3.002v2.538c-.379-.173-.8-.27-1.243-.27H9.039a3.005 3.005 0 00-3.002 3.002v3.15h-2.11a.88.88 0 100 1.758h51.847a.88.88 0 100-1.759h-2.287V35.575a3.005 3.005 0 00-3.002-3.002h-5.32V17.232a5.484 5.484 0 00.884-4.7.878.878 0 00-.884-.645V10.28h10.61c.532 0 .996-.321 1.184-.818a1.257 1.257 0 00-.348-1.397zM30.65 15.107c.084-.26.263-.471.506-.595l.787-.403a1.021 1.021 0 011.373.443l1.018 1.987a1.022 1.022 0 01-.34 1.311l-.286.155-.604.31c-.5.256-1.117.058-1.373-.443l-1.018-1.987a1.013 1.013 0 01-.063-.778zM28.883 47.09a2.983 2.983 0 00-.965-.257l.965-1.282v1.54zm4.175-7.085c.423-.507.54-1.099.634-1.576.024-.113.458-2.484.458-2.484s.41.256.454.275c.03.013.05.042.054.077l.478 4.862h-2.947l.87-1.154zm5.2-4.854l-.742 6.004h-.613l-.495-5.03a1.853 1.853 0 00-1.036-1.487l-.884-.561.589-3.265s2.482 2.948 2.54 3.023c.513.668.69.935.641 1.316zm-9.498 4.256c.177-.535.26-1.079.246-1.632l.32-5.867 4.067-1.667-.74 4.095a.442.442 0 00-.005.034l-.612 3.386c-.08.35-.15.882-.368 1.171l-5.942 7.893h-.49l3.524-7.413zM7.796 55.091c0-.685.558-1.242 1.243-1.242h7.178c.685 0 1.244.557 1.244 1.242v3.15H7.796v-3.15zm11.423 0v-5.269c0-.686.558-1.243 1.243-1.243h7.178c.686 0 1.243.557 1.243 1.243v8.42h-9.664v-3.15zm32.51-19.516v22.666h-9.664V52.97a.88.88 0 10-1.76 0v5.272h-9.663v-14.08c0-.685.557-1.243 1.243-1.243h7.177c.686 0 1.244.558 1.244 1.243v4.408a.88.88 0 101.758 0V35.575c0-.686.558-1.243 1.244-1.243h7.176c.687 0 1.245.558 1.245 1.243zm-8.421-3.002a3.006 3.006 0 00-3.002 3.002v5.855a2.978 2.978 0 00-1.02-.262l.718-5.8c.14-1.131-.436-1.88-.993-2.605-.06-.077-3.478-4.136-3.478-4.136l2.097-6.34 5.776-3.51v13.796h-.098zm1.857-24.05V3.093h9.303L52.465 4.86a1.266 1.266 0 000 1.9l2.003 1.764h-9.303z" fill="#52458A"/></svg>