<svg width="75" height="67" fill="none" xmlns="http://www.w3.org/2000/svg"><circle opacity=".1" cx="46" cy="38" r="29" fill="#52458A"/><path fill-rule="evenodd" clip-rule="evenodd" d="M11 2.5V0h2v2.5h15V0h2v2.5h14V0h2v2.5h11v52H0v-52h11zm0 2H2v7h53v-7h-9V8h-2V4.5H30V8h-2V4.5H13V8h-2V4.5zm44 9H2v39h53v-39zM33.584 19a1 1 0 01.871.509l2.473 4.388 4.938.996a1 1 0 01.538 1.657l-3.409 3.708.579 5.004a1 1 0 01-1.41 1.024l-4.58-2.096-4.58 2.096a1 1 0 01-1.41-1.024l.579-5.004-3.41-3.708a1 1 0 01.54-1.657l4.937-.996 2.473-4.388a1 1 0 01.871-.509zM5 19.5h7v7H5v-7zm2 2v3h3v-3H7zm8-2h7v7h-7v-7zm2 2v3h3v-3h-3zm28-2h7v7h-7v-7zm2 2v3h3v-3h-3zm-13.416.537l-1.827 3.24a1 1 0 01-.673.49l-3.647.736 2.518 2.739a1 1 0 01.257.791l-.427 3.696 3.383-1.548a1 1 0 01.832 0l3.383 1.548-.427-3.696a1 1 0 01.257-.791l2.518-2.74-3.647-.735a1 1 0 01-.673-.49l-1.827-3.24zM5 29.5h7v7H5v-7zm2 2v3h3v-3H7zm8-2h7v7h-7v-7zm2 2v3h3v-3h-3zm28-2h7v7h-7v-7zm2 2v3h3v-3h-3zm-42 8h7v7H5v-7zm2 2v3h3v-3H7zm8-2h7v7h-7v-7zm2 2v3h3v-3h-3zm8-2h7v7h-7v-7zm2 2v3h3v-3h-3zm8-2h7v7h-7v-7zm2 2v3h3v-3h-3zm8-2h7v7h-7v-7zm2 2v3h3v-3h-3z" fill="#52458A"/></svg>