<svg width="70" height="65" fill="none" xmlns="http://www.w3.org/2000/svg"><g clip-path="url(#clip0)"><path d="M69.344 33.135L.413 48.705A.532.532 0 10.65 49.74l13.034-2.945C21.41 62.53 34.833 64.96 34.833 64.96c.08.025.161.04.242.04.08 0 .161-.015.242-.04 0 0 19.127-2.825 24.837-28.66l9.422-2.13a.532.532 0 00.403-.635.529.529 0 00-.635-.4zm-11.218 5.27C52.24 60.13 35.872 63.37 35.18 63.5l-.1.02-.097-.02c-1.215-.27-12.075-3-19.076-15.61l-.716-1.43.983-.225.6 1.2c6.618 11.93 16.752 14.72 18.32 15.09 1.493-.305 16.514-3.85 22.068-24.325l.227-1.27 1.038-.235-.302 1.71zM.534 31.67c.04 0 .08-.005.121-.015l68.926-15.57a.532.532 0 00.403-.635.536.536 0 00-.64-.4l-12.721 2.875a5.272 5.272 0 01-.394-1.995c0-2.955.62-10.315.62-10.315L35.076 0 13.668 5.51s.217 7.46.217 10.415c0 2.985-2.44 5.405-5.452 5.405-.02 0-.046-.005-.066-.005.025 2.625.177 5.08.419 7.4l-8.373 1.89a.532.532 0 00-.404.635c.061.25.283.42.525.42zm9.745-9.345c2.8-.585 4.988-3.415 4.988-6.44 0-1.83-.085-5.11-.146-7.505l-.05-1.925L35.019 1.32l20.267 5.225-.025.395c-.035.515-.08 1.115-.131 1.765-.182 2.41-.414 5.405-.394 7.17.01 1.12.268 1.855.47 2.365l-.949.215a7.211 7.211 0 01-.484-2.57c-.02-1.805.212-4.825.393-7.255l.101-1.37L35.02 2.305 16.055 7.19l.03 1.17c.061 2.4.147 5.685.147 7.525 0 3.315-2.326 6.43-5.362 7.275.04 1.3.126 3.475.227 5.05l-.948.215a166.009 166.009 0 01-.247-5.62l-.01-.395.388-.085z" fill="#52458A"/><path d="M24.77 49.65a.435.435 0 01-.096-.86l3.683-.83c.237-.055.47.09.525.325a.431.431 0 01-.328.52l-3.682.83a.38.38 0 01-.101.015zM45.683 44.89a.43.43 0 01-.423-.335.435.435 0 01.327-.52l3.597-.815c.232-.055.469.09.524.325a.435.435 0 01-.328.52l-3.596.815c-.035.005-.066.01-.1.01zM32.61 11.17l-.747-2.285 1.145 1.155.812-1.685.761 1.635 1.2-1.105-.75 2.285h-2.422z" fill="#fff"/><path d="M33.82 13.145c-1.882 0-3.41-1.515-3.41-3.38s1.528-3.38 3.41-3.38c1.881 0 3.41 1.515 3.41 3.38 0 1.86-1.529 3.38-3.41 3.38zm0-6.17c-1.549 0-2.81 1.25-2.81 2.785 0 1.535 1.261 2.785 2.81 2.785 1.548 0 2.81-1.25 2.81-2.785.004-1.535-1.257-2.785-2.81-2.785z" fill="#fff"/><path d="M3.314 44.985c-.762.175-1.412.065-1.947-.32-.535-.385-.802-.935-.802-1.645v-5.915c0-.72.267-1.395.807-2.02s1.185-1.025 1.942-1.195c.761-.175 1.412-.065 1.942.32s.797.94.797 1.65v1.235l-1.796.405v-1.27c0-.26-.096-.46-.292-.6-.197-.14-.43-.18-.707-.115-.277.06-.51.21-.7.435-.192.23-.288.47-.288.73v5.93c0 .26.096.46.287.595.192.14.424.175.701.115.273-.06.51-.205.707-.43.196-.225.292-.47.292-.725v-2.13l-.963.22V38.61l2.759-.62v3.785c0 .72-.268 1.395-.807 2.015-.535.625-1.18 1.025-1.932 1.195zM10.274 43.39c-.761.175-1.412.07-1.941-.31-.53-.38-.797-.93-.797-1.645v-8.38l1.694-.385v8.36c0 .26.096.46.293.595.197.135.429.175.706.11.272-.06.51-.205.701-.43.192-.225.288-.47.288-.725v-8.36l1.805-.41v8.38c0 .725-.267 1.4-.807 2.015-.534.615-1.185 1.015-1.941 1.185zM16.438 39.38l-.418 2.585-1.801.41L16.17 31.1l2.38-.54 1.922 10.4-1.82.41-.404-2.4-1.81.41zm.908-6.07l-.64 4.415 1.28-.29-.64-4.125zM24.655 29.175c.963-.22 1.674-.13 2.123.27.399.35.595.915.595 1.7v1.575c0 .765-.307 1.485-.923 2.155l1.282 4.44-1.872.425-1.049-3.845c-.05.01-.1.02-.156.035l-.999.225v4.08l-1.73.395V29.795l2.729-.62zm1.034 2.375c0-.63-.328-.87-.989-.72l-1.044.235v3.47L24.7 34.3c.273-.06.51-.21.701-.435.192-.23.288-.47.288-.73V31.55zM31.348 36l-.418 2.585-1.801.41L31.08 27.72l2.38-.54 1.922 10.4-1.82.41-.404-2.4-1.81.41zm.908-6.065l-.64 4.415 1.28-.29-.64-4.125zM38.778 25.965l2.295 6.765v-7.285l1.73-.39V35.9l-1.861.42-2.381-6.405v6.945l-1.73.395v-10.85l1.947-.44zM46.041 25.97l-1.84.415V24.74l5.401-1.225v1.645l-1.83.415v9.19l-1.73.395v-9.19zM50.994 34.04V23.195l4.928-1.115v1.645l-3.198.725v2.955l2.336-.53v1.645l-2.336.53v2.955l3.198-.725v1.645l-4.928 1.115zM57.113 32.65V21.81l4.928-1.115v1.645l-3.198.725v2.955l2.335-.53v1.645l-2.335.53v2.955l3.197-.725v1.645l-4.927 1.11zM68.673 27.44c0 .715-.267 1.385-.797 2.015-.53.625-1.17 1.025-1.921 1.195l-2.719.615V20.42l2.719-.615c.756-.17 1.397-.065 1.927.325.53.385.791.935.791 1.645v5.665zm-3.712 1.815l1.044-.235c.273-.06.505-.21.696-.44.192-.23.283-.47.283-.725V22.18c0-.26-.096-.46-.288-.6-.192-.14-.424-.18-.69-.12l-1.045.235v7.56z" fill="#52458A"/><path d="M19.535 24.215l1.226-5.705 1.337-.47-.64 2.995c.443-.14.816-.46 1.119-.97.307-.51.459-1.02.459-1.53s-.207-.81-.616-.89a1.206 1.206 0 00-.509.025c-.736.165-1.311.48-1.72.935-.414.455-.62 1.015-.62 1.67 0 .23.035.395.1.5.016.02.02.035.02.055-.484.11-.781.03-.902-.23a.982.982 0 01-.06-.38c0-.285.095-.585.287-.89.191-.31.434-.6.736-.875.686-.61 1.392-1 2.114-1.16.72-.165 1.266-.125 1.629.115s.545.6.545 1.075c0 .27-.061.56-.177.855a3.16 3.16 0 01-.52.855 3.411 3.411 0 01-1.911 1.165l-.05.01-.55 2.56-1.297.285zM23.298 23.365l.958-4.485 1.302-.295-.116.555a7.39 7.39 0 01.494-.47c.182-.155.378-.255.585-.305.212-.05.368-.02.474.09.106.105.157.22.157.34 0 .205-.06.385-.177.54a.735.735 0 01-.424.29c-.166.035-.272.025-.327-.03a.395.395 0 01-.096-.195.548.548 0 00-.046-.165c-.02-.04-.06-.05-.12-.035a.861.861 0 00-.329.155c-.095.075-.201.18-.322.315l-.727 3.405-1.286.29zM30.587 20.185c-.676 1.205-1.503 1.92-2.482 2.14-.429.095-.772.07-1.029-.08-.257-.15-.383-.47-.383-.95 0-.65.176-1.32.524-2.005.268-.525.63-.94 1.095-1.24.237-.16.484-.27.741-.325.419-.095.701-.085.853.03.15.115.227.295.227.545 0 .485-.207.945-.62 1.38-.414.435-.904.73-1.459.89a4.11 4.11 0 00-.02.345c0 .29.056.47.162.54.11.07.262.08.459.035a2.1 2.1 0 00.877-.415c.237-.2.49-.47.752-.815l.303-.075zm-1.155-1.795c0-.205-.076-.29-.227-.255-.222.055-.434.29-.641.695-.207.41-.353.845-.444 1.305.348-.1.65-.325.918-.665.262-.34.393-.7.393-1.08z" fill="#fff"/><path d="M35.64 20.615c-.771.175-1.154-.06-1.154-.7 0-.235.065-.62.201-1.165.137-.54.202-.91.202-1.105 0-.29-.11-.415-.328-.365-.217.05-.413.255-.58.62-.05.105-.09.21-.126.33l-.615 2.875-1.302.295.661-3.095a.796.796 0 00.025-.22c0-.25-.09-.355-.267-.315-.176.04-.328.155-.454.34a2.017 2.017 0 00-.282.625l-.616 2.875-1.301.295.958-4.485 1.302-.295-.096.465c.297-.39.666-.635 1.104-.735.535-.12.843.055.928.525.333-.56.752-.895 1.256-1.01.288-.065.525-.045.717.065.191.105.287.305.287.595s-.05.635-.151 1.035l-.212.88c-.045.19-.07.345-.07.46 0 .245.11.34.332.29a.765.765 0 00.47-.29c.11-.145.216-.36.322-.645l.379-.085c-.222.68-.505 1.18-.848 1.51-.237.23-.484.375-.741.43z" fill="#fff"/><path d="M39.419 18.18c-.389 1.14-1.04 1.815-1.947 2.02a.829.829 0 01-.641-.095c-.187-.12-.277-.36-.277-.715 0-.16.025-.355.07-.575l.616-2.875 1.3-.295-.65 3.045a1.36 1.36 0 00-.035.31c0 .19.121.26.368.205.177-.04.338-.15.49-.33.15-.18.257-.38.322-.61l.384-.085zm-.56-3.74c0 .19-.07.365-.212.525a.956.956 0 01-.51.31c-.196.045-.368.02-.504-.08a.496.496 0 01-.207-.425c0-.185.07-.36.207-.53a.901.901 0 01.51-.315c.201-.045.373-.02.514.085.131.095.202.24.202.43z" fill="#fff"/><path d="M43.751 17.2c-.383 1.14-.988 1.8-1.816 1.99-.54.12-.837-.08-.897-.605-.353.62-.797.99-1.337 1.11-.272.06-.5.035-.686-.085-.187-.12-.277-.36-.277-.715 0-.16.025-.355.07-.575l.61-2.875 1.302-.295-.65 3.045a1.602 1.602 0 00-.026.245c0 .235.09.33.267.29.318-.07.56-.38.722-.92l.61-2.875 1.301-.295-.65 3.045c-.026.105-.04.205-.04.31 0 .195.125.265.373.21.337-.075.58-.385.73-.92l.394-.085z" fill="#fff"/><path d="M46.995 14.42c.333-.56.751-.895 1.256-1.01.287-.065.524-.045.716.065.191.105.287.305.287.595s-.05.635-.151 1.035l-.212.88c-.045.19-.07.345-.07.46 0 .115.025.2.075.25.05.055.146.065.288.03a.733.733 0 00.297-.12c-.045.32-.161.57-.353.75-.191.18-.388.295-.595.345-.358.08-.605.045-.747-.105-.14-.15-.211-.355-.211-.61s.065-.655.201-1.195c.137-.54.202-.91.202-1.105 0-.29-.11-.415-.328-.365-.217.05-.413.255-.58.62a2.37 2.37 0 00-.126.33l-.615 2.875-1.302.295.661-3.095a.796.796 0 00.025-.22c0-.25-.09-.355-.267-.315-.176.04-.328.155-.454.34a2.016 2.016 0 00-.282.625l-.616 2.875-1.301.295.958-4.485 1.302-.295-.096.465c.297-.39.666-.635 1.105-.735.54-.12.847.055.933.525zM31.015 51.635v-4.79l-.847.19v-.655a1.95 1.95 0 00.68-.41c.218-.195.374-.4.465-.63l.696-.16v6.225l-.994.23zM35.847 49.12c0 .415-.156.8-.464 1.16-.307.36-.676.585-1.11.685-.438.1-.811.04-1.12-.18-.307-.22-.458-.535-.458-.945v-3.395c0-.415.156-.8.464-1.16a2.01 2.01 0 011.115-.685c.438-.1.812-.04 1.114.185.308.22.46.54.46.95v3.385zm-1.034-3.185a.4.4 0 00-.166-.345.466.466 0 00-.404-.065.737.737 0 00-.403.25.635.635 0 00-.167.42v3.4a.4.4 0 00.167.345c.11.08.247.105.403.065a.737.737 0 00.404-.25.635.635 0 00.166-.42v-3.4zM39.666 48.255c0 .415-.157.8-.464 1.16-.308.36-.676.585-1.11.685-.439.1-.812.04-1.12-.18-.308-.22-.459-.535-.459-.945V45.58c0-.415.157-.8.464-1.16.308-.36.681-.59 1.115-.69.439-.1.812-.04 1.115.185.307.22.459.54.459.95v3.39zm-1.03-3.185a.4.4 0 00-.166-.345.466.466 0 00-.403-.065.737.737 0 00-.404.25.636.636 0 00-.166.42v3.4a.4.4 0 00.166.345c.111.08.247.105.404.065a.737.737 0 00.403-.25c.111-.13.167-.27.167-.42v-3.4zM42.137 45.24a.47.47 0 01-.161.355.556.556 0 01-.389.15.568.568 0 01-.393-.15.477.477 0 01-.161-.355v-1.16c0-.14.055-.26.161-.36.106-.1.237-.15.393-.15.152 0 .283.05.389.15.106.1.161.22.161.36v1.16zm-.504 2.64h-.394l2.255-4.3h.389l-2.25 4.3zm-.262-2.65c0 .05.02.095.06.13a.208.208 0 00.283 0c.04-.035.06-.08.06-.13v-1.16c0-.05-.02-.095-.06-.13a.208.208 0 00-.142-.055.2.2 0 00-.14.055.168.168 0 00-.061.13v1.16zm2.173.425c.152 0 .283.05.389.15.106.1.161.22.161.36v1.16c0 .14-.055.26-.161.355a.566.566 0 01-.389.145.588.588 0 01-.393-.145.47.47 0 01-.161-.355v-1.16c0-.14.055-.26.161-.36.111-.1.242-.15.393-.15zm.192.505c0-.05-.02-.095-.06-.13a.208.208 0 00-.142-.055.2.2 0 00-.14.055.168.168 0 00-.061.13v1.16c0 .05.02.095.06.13a.208.208 0 00.283 0c.04-.035.06-.08.06-.13v-1.16z" fill="#fff"/><path d="M41.633 47.955h-.52L43.45 43.5h.559l-2.31 4.415-.02.04h-.045zm0-.08V47.8v.075zm-.263-.075h.217l2.17-4.145h-.212L41.37 47.8zm1.73-.06a.55.55 0 01-.186-.41v-1.16c0-.16.066-.305.187-.415a.646.646 0 01.444-.17v.16a.462.462 0 00-.338.13.391.391 0 00-.137.305v1.16c0 .12.04.21.137.3a.479.479 0 00.337.125c.132 0 .243-.04.333-.125a.375.375 0 00.137-.3v-1.16c0-.12-.04-.215-.137-.305a.483.483 0 00-.338-.13v-.16c.172 0 .323.06.444.17a.56.56 0 01.187.415v1.16c0 .16-.066.305-.187.415a.638.638 0 01-.438.165.68.68 0 01-.444-.17zm.434-.16a.284.284 0 01-.196-.075.242.242 0 01-.086-.19v-1.16c0-.07.03-.14.08-.185a.293.293 0 01.394 0 .242.242 0 01.086.19v1.16c0 .07-.03.14-.08.185a.275.275 0 01-.198.075c.005 0 0 0 0 0zm-.09-1.495c-.026.02-.03.04-.03.075v1.16c0 .03.01.05.035.075.025.02.05.03.09.035.04 0 .066-.01.091-.035.026-.02.03-.04.03-.075v-1.16c0-.03-.01-.05-.035-.075-.025-.025-.05-.03-.09-.035-.04 0-.066.01-.091.035zm-1.862-.265a.624.624 0 01-.444-.17.552.552 0 01-.186-.415v-1.16c0-.16.066-.305.187-.415a.624.624 0 01.443-.17c.172 0 .323.06.444.17.121.11.187.255.187.415v1.16a.54.54 0 01-.192.415.604.604 0 01-.439.17c.005 0 0 0 0 0zm-.337-2.045a.384.384 0 00-.137.305v1.16c0 .12.04.21.137.3a.507.507 0 00.675 0 .381.381 0 00.136-.3v-1.16c0-.12-.04-.21-.136-.305a.483.483 0 00-.338-.13.483.483 0 00-.337.13zm.327 1.72a.284.284 0 01-.196-.075.242.242 0 01-.086-.19v-1.16c0-.07.03-.14.086-.19a.275.275 0 01.196-.075c.07 0 .147.025.197.075.05.05.086.115.086.19v1.16c0 .07-.03.14-.086.185a.26.26 0 01-.197.08c.005 0 0 0 0 0zm-.09-.19c.025.02.05.03.09.035.04 0 .066-.01.091-.035.025-.025.03-.04.035-.075v-1.16c0-.03-.01-.05-.035-.075a.165.165 0 00-.09-.035c-.041 0-.066.01-.092.035-.025.025-.03.04-.035.075v1.16c.005.035.015.05.035.075z" fill="#fff"/></g><defs><clipPath id="clip0"><path fill="#fff" d="M0 0h70v65H0z"/></clipPath></defs></svg>