<svg width="60" height="59" fill="none" xmlns="http://www.w3.org/2000/svg"><path d="M15.948 25.9v-8.1h20.033m-20.033 8.1h27.506m-27.506 0v7.8m27.506-7.8v7.8m0-7.8v-.412M15.948 33.7h27.506m-27.506 0v.206m27.506-.206v1.576M19.536 21.7h6.577m-6.577 8.4h6.577m-6.577 7.8h6.577m4.784-16.2h.903m2.684 0H35.5m2.572 0H39m-8.103 8.4h.903m2.684 0H35.5m3.5 0h-.928m-7.175 7.8h.903m2.684 0H35.5m2.572 0H39m.415-31.493A25.267 25.267 0 0030 4.6C15.965 4.6 4.588 16.017 4.588 30.1c0 8.01 3.68 15.156 9.435 19.83M39.415 6.408A4.19 4.19 0 0038.67 8.8c0 2.32 1.874 4.2 4.186 4.2 1.607 0 3.003-.91 3.704-2.243m-7.145-4.35a4.177 4.177 0 013.44-1.807 4.193 4.193 0 014.186 4.2c0 .707-.174 1.373-.481 1.957m0 0A25.479 25.479 0 0155.412 30.1c0 14.083-11.377 25.5-25.412 25.5-2.629 0-5.164-.4-7.549-1.144M35.981 17.8h7.473v7.688M35.98 17.8C24.939 7.538 13.575 1.466 7.217 2.15m36.237 23.338c8.224 9.382 13.358 18.772 13.856 24.94M43.454 35.276A2.4 2.4 0 0041.66 37.6a2.4 2.4 0 001.794 2.324m0-4.648a2.391 2.391 0 012.99 2.324 2.396 2.396 0 01-2.99 2.324m0 0V41.8H23.61m-7.663-7.894V41.8h7.663m-7.663-7.894C6.954 23.602 1.696 13.31 2.224 7.308M23.611 41.8C34.8 52.182 46.308 58.26 52.599 57.364M14.023 49.93A4.794 4.794 0 0013.557 52c0 2.651 2.141 4.8 4.783 4.8 1.748 0 3.276-.94 4.111-2.344m-8.428-4.525A4.783 4.783 0 0118.34 47.2c2.642 0 4.784 2.149 4.784 4.8a4.79 4.79 0 01-.673 2.456m34.859-4.028a4.158 4.158 0 00-2.496-.828 4.193 4.193 0 00-4.185 4.2 4.2 4.2 0 001.97 3.564m4.711-6.936A4.199 4.199 0 0159 53.8c0 2.32-1.874 4.2-4.186 4.2a4.156 4.156 0 01-2.216-.636M7.218 2.15A3.572 3.572 0 004.587 1 3.594 3.594 0 001 4.6c0 1.08.474 2.049 1.224 2.708m4.993-5.157c.595.642.958 1.503.958 2.449 0 1.988-1.606 3.6-3.587 3.6a3.567 3.567 0 01-2.364-.892M7.577 50.2c0 1.325-1.07 2.4-2.391 2.4a2.396 2.396 0 01-2.392-2.4c0-1.326 1.07-2.4 2.392-2.4a2.396 2.396 0 012.391 2.4zM58.402 7.6c0 1.325-1.07 2.4-2.392 2.4a2.396 2.396 0 01-2.391-2.4c0-1.325 1.07-2.4 2.391-2.4a2.396 2.396 0 012.392 2.4z" stroke="#52458A" stroke-width="2"/></svg>