<svg width="60" height="60" fill="none" xmlns="http://www.w3.org/2000/svg"><path fill-rule="evenodd" clip-rule="evenodd" d="M30 58c15.464 0 28-12.536 28-28S45.464 2 30 2 2 14.536 2 30s12.536 28 28 28zm0 2c16.569 0 30-13.431 30-30C60 13.431 46.569 0 30 0 13.431 0 0 13.431 0 30c0 16.569 13.431 30 30 30z" fill="#52458A"/><path fill-rule="evenodd" clip-rule="evenodd" d="M30 55c13.807 0 25-11.193 25-25S43.807 5 30 5 5 16.193 5 30s11.193 25 25 25zm0 2c14.912 0 27-12.088 27-27S44.912 3 30 3 3 15.088 3 30s12.088 27 27 27z" fill="#52458A"/><path fill-rule="evenodd" clip-rule="evenodd" d="M37.262 3.325l1.476 1.35L8.085 38.208l42.474 4.194 1.443-26.151 1.996.11-1.557 28.237-48.526-4.792 33.347-36.48z" fill="#52458A"/><path fill-rule="evenodd" clip-rule="evenodd" d="M47 8.012V10.5h-.804l-.773.315-.128-.315H45v-.722l-.332-.814L47 8.012zm-6.15 2.51l1.908-.779.756 1.852-1.909.779-.756-1.852zm-3.819 1.559l1.91-.78.755 1.852-1.909.78-.756-1.852zM47 12.5v2h-2v-2h2zm-13.787 1.14l1.91-.78.755 1.851-1.91.78-.755-1.852zm-3.818 1.557l1.909-.779.756 1.852-1.91.78-.755-1.853zm-3.818 1.559l1.909-.78.756 1.852-1.91.78-.755-1.852zM47 16.5v2h-2v-2h2zm-25.241 1.814l1.909-.779.755 1.852-1.909.78-.755-1.853zm-3.819 1.559l1.91-.78.755 1.852-1.909.78-.756-1.852zM47 20.5v2h-2v-2h2zm-32.878.931l1.91-.779.755 1.852-1.91.779-.755-1.852zm-3.818 1.559l1.909-.78.756 1.852-1.91.78-.755-1.852zm-3.818 1.558l1.909-.78.756 1.853-1.91.779-.755-1.852zM47 24.5v2h-2v-2h2zm-42.423.827l.402.987.406.622-.12.078.067.165-.857.35-.766.499-1.208-1.854 2.076-.847zM47 28.5v2h-2v-2h2zM5.897 31.385l-1.094-1.678 1.675-1.092 1.094 1.678-1.675 1.092zm2.187 3.357L6.99 33.064l1.676-1.092L9.76 33.65l-1.676 1.092zM47 32.5v2h-2v-2h2zm-36.728 5.6l-1.094-1.68 1.675-1.091 1.094 1.679-1.675 1.091zM47 36.5v2h-2v-2h2zm-34.54 4.957l-1.095-1.679 1.676-1.092 1.094 1.679-1.676 1.092zM47 40.5v2h-2v-2h2zm-32.353 4.314l-1.094-1.679 1.675-1.092 1.094 1.679-1.675 1.092zM47 44.5v2h-2v-2h2zm-30.166 3.67l-1.094-1.678 1.676-1.091 1.094 1.678-1.676 1.092zM47 48.5v1.85l-1.86.304-.322-1.974.182-.03v-.15h2zm-27.978 3.028l-1.094-1.678 1.675-1.092 1.094 1.678-1.675 1.092zm24.077-.541l-2.042.333-.322-1.974 2.041-.333.323 1.974zm-4.084.667l-2.041.333-.323-1.974 2.042-.333.322 1.974zm-4.083.666l-2.042.334-.322-1.974 2.042-.334.322 1.974zm-4.083.667l-2.042.333-.322-1.974 2.041-.333.323 1.974zm-4.084.667l-2.041.333-.323-1.974 2.042-.333.322 1.974zm-6.65-.447l1.676-1.092.191.293.378-.062.322 1.974-1.664.272-.903-1.385z" fill="#52458A"/></svg>