<svg width="72" height="59" fill="none" xmlns="http://www.w3.org/2000/svg"><g clip-path="url(#clip0)"><path d="M33.901 58.382c15.95 0 28.881-12.931 28.881-28.882 0-15.95-12.93-28.88-28.881-28.88C17.951.62 5.02 13.55 5.02 29.5c0 15.951 12.93 28.882 28.881 28.882z" stroke="#52458A" stroke-width="2"/><path d="M32.199 6.489a.324.324 0 100-.648.324.324 0 000 .648zM35.523 6.92a.324.324 0 100-.647.324.324 0 000 .647zM39.88 12.791a.324.324 0 100-.647.324.324 0 000 .647zM15.966 43.01a.324.324 0 100-.647.324.324 0 000 .648zM16.807 45.6a.324.324 0 100-.647.324.324 0 000 .648zM12.794 43.318a.242.242 0 100-.485.242.242 0 000 .485zM25.96 48.407a.243.243 0 100-.486.243.243 0 000 .486zM46.612 44.117a.242.242 0 100-.485.242.242 0 000 .485zM52.61 37.599a.243.243 0 100-.487.243.243 0 000 .487zM23.196 14.604a.242.242 0 100-.485.242.242 0 000 .485zM29.805 9.753a.243.243 0 100-.485.243.243 0 000 .485zM29.085 9.278a.243.243 0 100-.485.243.243 0 000 .485zM28.436 8.803a.242.242 0 100-.485.242.242 0 000 .485zM24.232 15.856a.243.243 0 100-.485.243.243 0 000 .485zM33.961 3.234a.242.242 0 100-.485.242.242 0 000 .485zM35.56 10.228a.242.242 0 100-.485.242.242 0 000 .485zM33.04 8.862a.243.243 0 100-.485.243.243 0 000 .485zM28.722 10.72a.242.242 0 100-.486.242.242 0 000 .485zM47.759 50.523a.243.243 0 100-.486.243.243 0 000 .486zM15.558 44.57a.243.243 0 100-.486.243.243 0 000 .487zM32.438 47.7a.243.243 0 100-.486.243.243 0 000 .487zM20.578 44.376a.243.243 0 100-.486.243.243 0 000 .486zM22.677 47.804a.243.243 0 100-.486.243.243 0 000 .486zM38.135 45.645a.242.242 0 100-.485.242.242 0 000 .485zM46.654 40.836a.243.243 0 100-.485.243.243 0 000 .485zM53.112 43.787a.243.243 0 100-.485.243.243 0 000 .485zM55.314 45.196a.242.242 0 100-.485.242.242 0 000 .485zM55.678 41.354a.242.242 0 100-.485.242.242 0 000 .485zM23.557 35.914a.242.242 0 100-.485.242.242 0 000 .485zM23.65 41.564a.324.324 0 100-.647.324.324 0 000 .647zM25.59 45.666a.324.324 0 100-.647.324.324 0 000 .647zM48.862 41.391a.324.324 0 100-.647.324.324 0 000 .647zM57.237 40.917a.324.324 0 100-.647.324.324 0 000 .647zM53.09 39.146a.324.324 0 10.001-.647.324.324 0 000 .647zM48.862 39.32a.324.324 0 100-.648.324.324 0 000 .647zM40.135 5.962l.805-.077-.804-.046a.357.357 0 00-.306-.297l-.077-.801-.046.808a.355.355 0 00-.275.305l-.823.075.828.044c.03.14.143.248.284.274l.075.826.044-.825a.36.36 0 00.295-.286zM26.545 14.926l.805-.077-.803-.046a.356.356 0 00-.307-.297l-.077-.801-.045.808a.355.355 0 00-.276.305l-.823.075.83.044c.03.139.142.248.283.274l.074.826.045-.825a.358.358 0 00.294-.286zM56.647 38.624l.805-.077-.803-.045a.356.356 0 00-.307-.297l-.077-.802-.045.808a.355.355 0 00-.275.306l-.823.074.829.045c.03.139.142.247.283.273l.075.826.045-.824a.36.36 0 00.293-.287zM23.824 51.016l.805-.077-.803-.045a.357.357 0 00-.307-.297l-.077-.801-.045.807a.355.355 0 00-.276.305l-.823.075.829.045c.03.139.142.248.284.273l.074.826.045-.824a.36.36 0 00.294-.287zM54.09 44.972l.805-.077-.804-.045a.356.356 0 00-.306-.297l-.077-.802-.046.807a.356.356 0 00-.274.305l-.823.075.828.045c.03.139.143.247.284.273l.075.826.044-.824a.357.357 0 00.294-.286z" fill="#52458A"/><path d="M31.355 25.916c2.763-.865 6.039-2.03 9.397-3.335l.577-.225c6.013-2.361 12.212-5.143 16.145-7.449 3.462-2.03 9.282-5.612 14.204-11.872C68.872 11.194 61.49 17.28 58.252 20c-2.348 1.972-6.377 4.921-12.365 8.928l-.429.288a485.453 485.453 0 01-7.238 4.729c-2.792 1.791-11.008 7.382-14.98 10.404-3.209 2.441-5.741 4.23-13.814 11.483l.086-.95c2.504-2.33 11.01-10.36 14.074-12.476C26.65 40.292 40.12 31.097 42.883 29.5a37.063 37.063 0 001.971-1.263l.441-.3c3.953-2.7 10.435-7.545 12.395-9.403-4.115 2.828-9.302 5.165-14.03 6.907l-.555.202a95.1 95.1 0 01-6.483 2.087c-5.625 1.583-18.046 4.49-21.888 5.699-3.533 1.111-7.21 2.115-12.865 5.31l-.777-.303c9.282-6 24.647-10.76 30.263-12.52z" fill="#CDD1ED"/><path d="M9.38 24.016h4.836l4.058 6.886v-5.375c0-.604-.766-1.392-1.036-1.51h3.346c-.206.053-.864.852-.864 1.51v7.9c0 .486.702 1.155 1.036 1.414h-4.662l-4.123-6.918v5.44c0 .54.529 1.057 1.08 1.5H9.488c.507-.216.993-.896 1.036-1.436.043-.54 0-7.5 0-7.803 0-.658-.637-1.198-1.144-1.608zM25.634 33.665c.065-.432.26-1.295.26-1.295h3.583c.162.431.282.82.345 1.187.076.442-.378.939-.777 1.284h5.663l.353-.236a2.157 2.157 0 01-.555-.832c-.216-.562-3.626-9.757-3.626-9.757h-5.613c.27.248 1.047.918.929 1.64-.106.648-2.02 7.58-2.137 7.922-.162.475-.993 1.004-1.328 1.285h3.465c-.346-.389-.626-.767-.562-1.198zm1.792-6.627l1.597 3.95h-2.806l1.209-3.95zM41.853 31.594c.527.255.947.576.987.99.075.779-1.49 1.155-2.903.993a3.495 3.495 0 01-.826-.205l-1.225-.656a5.677 5.677 0 01-.767-.628v3.691c.281-.55.895-1.043 1.371-1.068.206-.011.918.647 3.853.485 1.425-.078 4.177-1.597 4.134-3.345-.026-1.034-.566-1.84-1.278-2.463l-1.004-.714a9.86 9.86 0 00-.816-.429c-1.382-.648-2.828-.766-3.13-1.64-.213-.617.389-1.188 1.856-1.166 1.468.022 2.828.896 3.195 1.209v-2.785c-.108.108-.581.651-1.015.561a18.96 18.96 0 00-3.863-.388c-1.857.01-3.454 1.445-3.508 3.26-.075 2.519 1.926 3.217 3.074 3.618l.023.008c.118.04.253.085.4.131l1.442.54z" fill="#52458A"/><path fill-rule="evenodd" clip-rule="evenodd" d="M53.608 34.841h6.432c-.356-.086-.755-.507-.971-1.068-.216-.562-3.626-9.757-3.626-9.757H49.83c.306.283 1.01 1.194.928 1.64-.107.648-2.02 7.58-2.137 7.922-.162.475-.993 1.004-1.328 1.285h3.465c-.346-.389-.626-.767-.562-1.198.065-.432.26-1.295.26-1.295h3.583c.162.431.282.82.345 1.187.076.442-.378.939-.777 1.284zm-1.619-7.803l-1.209 3.95h2.806l-1.597-3.95z" fill="#52458A"/></g><defs><clipPath id="clip0"><path fill="#fff" d="M.769 0h71.232v59H.769z"/></clipPath></defs></svg>