<svg width="140" height="194" fill="none" xmlns="http://www.w3.org/2000/svg"><path d="M138.529 67.803s-6.162-33.92-101.475 1.922c0 0-77.393 30.979-8.48 97.348S145.596 92.79 138.53 67.803zM35.756 14.634l-4.278-4.278-4.277 4.278 4.277 4.277 4.278-4.277zM96.866 6.008l-.815-3-3 .814.814 3 3-.814zM113.486 42.473l-3.779-4.355-4.355 3.779 3.778 4.355 4.356-3.779zM102.737 19.995v-1.922h-1.922v1.922h1.922zM46.39 54.196l1.193-2.374-2.375-1.192-1.192 2.374 2.375 1.192zM30.27 33.454l1.192-2.375-2.375-1.192-1.192 2.375 2.375 1.192z" fill="#F3DBFE"/><path d="M64.415 24.103s-7.688-.678-6.5-9.723C59.1 5.335 60.627 3.808 66.506 3.865c0 0 6.954-6.558 12.041.17M80.131 6.07s3.336 2.94 3.336 6.162c0 0 9.271-2.035 8.875 3.505-.395 5.54-5.879 6.218-2.091 10.91 0 0-5.936-.96-4.806-4.692 1.131-3.73-.113-4.07-2.374-3.957" stroke="#5F458A" stroke-miterlimit="10"/><path d="M68.43 24.103s2.147-1.13 5.878-2.883c3.788-1.752 6.106-2.148 6.162 0 .057 2.149-2.204 2.997-3.391 3.166 0 0 6.84 3.844 7.18-2.657M52.77 27.948s-2.714 1.865-3.166 1.526c-.452-.34-.735-4.636.17-5.2.848-.566 3.957-1.64 4.748-1.358.792.283 4.523 2.6 7.236 2.6 2.714 0 4.24-1.186 4.24-1.186" stroke="#5F458A" stroke-miterlimit="10"/><path d="M52.826 25.008s-1.074.283.113 2.826c1.188 2.544 4.58 8.028 6.219 8.085 1.64.056 24.14-6.219 29.566-8.932" stroke="#5F458A" stroke-miterlimit="10"/><path d="M49.321 29.813s-4.013 3.336-2.091 5.54c1.922 2.205 4.296 2.657 5.936 1.131 1.639-1.526 2.826-3.505 2.826-3.505M53.335 38.236s.905 21.652 4.523 31.602c3.618 9.95 5.766 12.21 4.127 27.361 0 0 26.796-1.356 29.227-5.992 0 0-6.502-34.089-8.537-40.138 0 0 9.837 3.675 10.911 2.431 1.074-1.3 2.544-10.628-2.374-14.36-4.919-3.73-12.72-7.348-12.72-7.348" stroke="#5F458A" stroke-miterlimit="10"/><path d="M90.138 21.955s2.374 1.244 2.317 9.385c-.056 8.197.566 9.554.566 9.554M93.02 35.749s7.463 3.618 1.64 12.89M84.145 56.27s6.388.622 9.441-2.826M93.756 53.896s8.253 4.183 8.253 7.97c0 3.789-.339 33.355-.339 33.355l-1.809 4.127s3.279-7.689 8.48-11.42c5.201-3.73 9.497-6.331 9.497-6.331l4.975 4.466s-17.864 24.252-27.248 22.556c0 0-5.71.113-6.84-14.529M68.26 98.104s.395 2.205 3.674 7.01c3.223 4.749 3.562 8.367 3.562 8.367l1.187 69.195 8.367-.396 4.579-79.201" stroke="#5F458A" stroke-miterlimit="10"/><path d="M63.737 98.104v2.205l3.505 5.71-1.696 75.64 6.897-.735 2.883-25.27M115.521 82.218l-1.979-2.091-11.759 9.44M121.909 84.593s4.635-3.336 5.201-3.844c.508-.51 6.275-3.166 6.84-4.127.565-.961 1.357-1.527.735-1.922-.622-.396-5.427.848-8.197.791-2.77-.056-4.636-.678-5.145.057-.509.735-1.243 2.544-.848 3.222.396.678 3.11-1.979 5.427-1.187 2.318.791-6.105 3.561-6.105 3.561M118.63 80.635c-.226-.282-3.449-2.6-3.618-1.978-.17.565-.226-1.979 1.074-2.092 1.357-.113 4.353.566 4.353.566M83.75 182.676s2.374 2.431 4.861 3.448c2.488 1.018 7.575 1.188 7.35 2.149-.227.961-3.28 3.844-5.315 4.183-2.035.283-11.645-.735-13.624-.622-1.979.17-1.413-1.526-.904-3.618l.508-2.092s2.883 4.58 7.293 3.788c4.41-.791-2.035-3.674-2.035-3.674M72.726 181.206s3.109 2.883 3.674 3.11" stroke="#5F458A" stroke-miterlimit="10"/><path d="M70.578 185.898l-5.371-1.582s-1.696 4.522-.565 5.314c1.074.791 11.023.678 11.023.678M59.44 6.296c-.282 0-5.2-1.074-6.161 3.392-.905 4.466-.34 4.522-1.414 5.936-1.074 1.413 1.753 7.01 1.753 7.01M61.476 31.057c-.113-.057-2.544-.791-2.827 0-.339.791-.904 2.996.566 2.94 1.47-.057 4.126-2.092 2.26-2.94z" stroke="#5F458A" stroke-miterlimit="10"/></svg>