<svg width="161" height="209" fill="none" xmlns="http://www.w3.org/2000/svg"><path d="M109.806 79.385s2.853-6.673-9.468-8.591C87.959 68.864 14.666 55.2 20.784 90.236c0 0 2.764 11.722 6.71 17.75 3.946 6.028 11.242 18.007 1.208 30.407-10.035 12.401-21.705 45.343 10.346 50.307 32.05 4.964 68.419-14.992 92.145-33.551 23.727-18.559 29.124-33.659-3.34-39.577-32.406-5.905-30.412-11.385-18.047-36.187zM10.977 14.333a3.427 3.427 0 1 0 0-6.853 3.427 3.427 0 0 0 0 6.853zM80.5 22.93a4.82 4.82 0 1 0 0-9.642 4.82 4.82 0 0 0 0 9.641zM2.033 39.192a2.033 2.033 0 1 0 0-4.066 2.033 2.033 0 0 0 0 4.066zM12.023 46.917a3.775 3.775 0 1 0 0-7.55 3.775 3.775 0 0 0 0 7.55zM41.354 7.131a3.427 3.427 0 1 0 0-6.853 3.427 3.427 0 0 0 0 6.853z" fill="#F3DBFE"/><path d="M35.313 35.417s-5.169-6.331-2.962-9.467c2.208-3.137 4.357-2.15 4.357-2.15s1.335-4.994 6.62-3.136c0 0 3.66-1.858 7.61.813 3.89 2.672 2.845-2.207 2.845-2.207s7.26 5.692-1.336 7.144c0 0 2.498 2.15-.116 2.788-2.613.64-3.02 1.046-5.053-.406s-4.356-4.53-5.401-1.22c0 0-.058.987-1.859 1.568-1.8.58-1.103 2.73-1.103 2.73s-2.15-3.195-3.543-1.51c-1.394 1.684 1.394 4.007 1.394 4.007s-.349.93-.29 2.904c.057 1.975-1.453 4.357-3.312 2.382 0 0 1.627.465 2.15-1.684" stroke="#5F458A" stroke-miterlimit="10"/><path d="M36.766 39.54s1.8 5.228 5.982 5.518c4.182.349 5.808-10.164 6.098-13.997M31.074 48.427s5.575-2.73 10.222 4.298c4.646 7.028 9.99 18.877 12.43 20.793L44.78 84.263S31.538 73.053 27.82 66.2c-3.717-6.854-5.053-8.945-2.904-14.753M34.094 47.73s.232-3.95 1.742-8.19M41.935 51.796s.755.116.87-4.298l.059-2.265M43.503 46.627s6.099.522 7.376 2.613c1.278 2.091 5.867 10.861 4.763 22.826l-.058 2.15M47.104 82.52s4.588 3.544 6.912 3.428c2.265-.175 24.684-10.339 27.008-10.63 2.323-.348 8.48-.638 8.886-1.742.407-1.103-.29-1.452-.29-2.613 0-1.162-.117-3.253-1.627-4.705s-1.277-3.02-2.44-1.975c-1.16 1.046-4.413 5.924-6.098 6.563-1.684.581-10.106 3.079-23.116 3.834" stroke="#5F458A" stroke-miterlimit="10"/><path d="M25.207 67.536s4.182 2.788 5.925 8.247c0 0 1.568.64 6.272 1.743" stroke="#5F458A" stroke-miterlimit="10"/><path d="M24.8 69.569s-.87-.581-.522 1.684c.348 2.207.174 2.265.116 3.369-.058 1.103-.755 2.323 2.265 3.775s16.205 7.609 22.013 9.119c5.808 1.51 6.563 2.497 7.9 1.161 1.335-1.335 3.252-3.95 3.252-3.95M55.061 31.119s-.465 6.563-3.485 7.028c0 0-.116.639 1.278 1.394 0 0-.523.522-1.162.522-.58 0-.058.871.523 1.104 0 0-.755.348-.407.871.349.523.465.465.233 1.278-.232.755-.407 2.381 1.859 2.497 2.265.116 7.55-.639 9.873-3.485" stroke="#5F458A" stroke-miterlimit="10"/><path d="M53.841 35.475s-2.846-.465-1.452-3.427c1.394-2.962 4.124-5.634 9.468-5.692 5.343-.058 9.177 4.705 9.583 9.177.407 4.53 0 10.106 0 10.106" stroke="#5F458A" stroke-miterlimit="10"/><path d="M53.725 34.72c0-.174-2.033-4.298 5.402-4.182 0 0-2.265 5.808 4.414 5.402 0 0 .93-2.672 1.51-1.569.581 1.104.93 4.008-.93 4.763M59.243 45.871l2.265 5.286M69.407 46.975s-6.68 3.02-7.202 3.485c-.465.407-1.858 3.485-2.44 4.763-.115.29 0 .639.291.813.29.174.697.058.871-.233.697-1.335 2.498-4.472 2.614-3.891.116.639-1.51 6.215-2.09 8.073-.117.349.115.697.464.813a.581.581 0 0 0 .755-.464c.464-1.8 1.8-6.738 2.033-6.39.29.35 0 6.448-.117 8.597 0 .406.29.697.697.697a.69.69 0 0 0 .697-.581c.233-1.917 1.046-7.725 1.627-7.725.522.058.232 5.344.116 7.26 0 .349.29.64.639.64a.52.52 0 0 0 .523-.523c.232-1.801 1.103-7.958 1.451-7.61.349.35.059 4.705-.058 6.1 0 .232.175.464.407.464.174 0 .349-.116.407-.349.348-1.626 1.742-8.77 2.149-10.164 0 0 3.194.988 4.762 1.917 1.626.93 5.402-1.046 6.04-4.472.64-3.427-3.775-4.24-5.982-4.356-2.265 0-8.654 3.136-8.654 3.136z" stroke="#5F458A" stroke-miterlimit="10"/><path d="M64.122 39.54s-.697 2.033.116 4.124c.871 2.091 2.091 4.705 2.091 4.705M60.056 56.733l-1.045 6.563 10.687 4.298s2.265-5.285 2.962-10.629M79.92 53.364s3.659 3.136 6.215 10.513M69.465 80.953s2.091 10.164-.29 22.012c0 0 11.5-7.899 26.66-10.803l-5.867-18.005M27.589 79.384s-.93 19.4-1.975 24.917c0 0 27.008-3.659 36.185 1.394l-4.182-17.076M28.111 105.695s0 8.887 6.796 11.965c6.795 3.078 24.917 13.417 24.917 13.417s12.545-6.738 18.353-5.518l-4.936 2.614M50.705 104.476s24.743 18.411 27.473 21.083M57.907 104.243s4.82 6.621 6.331 8.945" stroke="#5F458A" stroke-miterlimit="10"/><path d="M71.614 126.895s3.369 6.331 2.73 7.318c-.639.988-1.394 3.195-11.326 5.576-9.874 2.439-19.806 9.467-22.187 13.94-2.381 4.472 1.917 16.495 1.104 16.437-.813-.058-5.17.987-6.157-5.692-.987-6.68-1.568-5.808-2.614-8.829-1.045-2.962.29-4.472 2.324-4.937 2.033-.464 3.368-3.31 3.368-3.31M41.819 142.403s1.742-12.43 19.69-11.326M71.498 102.268l-4.763 14.114" stroke="#5F458A" stroke-miterlimit="10"/><path d="M59.243 142.403s-3.601 8.654 5.576 8.48c9.235-.175 32.177-3.079 32.177-3.079v-13.417s-19.748 3.776-20.677 2.498c-.93-1.278 20.328-21.606 19.457-28.17-.871-6.563-6.33-13.765-6.33-13.765" stroke="#5F458A" stroke-miterlimit="10"/><path d="M90.723 94.021s9.584 9.351 8.132 13.823c-1.453 4.473-9.99 23.117-8.945 27.589M73.066 151.231s1.685 4.647 15.218 3.311c13.533-1.336 16.785-2.265 16.785-2.265l-.697-10.107" stroke="#5F458A" stroke-miterlimit="10"/><path d="M97.403 141.648s5.459-.814 7.666.871c2.207 1.684 5.053 4.821 5.692 4.182.639-.639-1.045-3.95-2.439-5.867-1.394-1.916-4.182-5.285-4.705-6.388-.523-1.104-1.975-1.394-3.194-.523-1.22.929-2.788 1.8-2.788 1.8s4.414.988 6.331 3.253M105.011 146.701l3.136-1.51M108.147 139.557s1.22-1.452 2.614-2.207c1.336-.755 3.02-.581 5.053 2.207 1.975 2.788 8.19 4.704 8.132 6.621-.058 1.917.116 3.078-.697 2.091-.872-1.046-5.983-3.427-8.713-3.717-2.729-.291 1.801-2.73-1.103-4.531M55.7 45.871s-.871 1.975 1.104 3.137c1.974 1.22 3.194 1.8 3.31 2.73.116.929-2.846 6.795-4.065 6.97-1.22.174-1.685-1.104-.988-1.86.697-.754 1.627-.812 1.627-.812s-.756-.755-1.743-.349M55.932 63.296s.988.29 1.917-.232c.93-.523 1.046-.872 1.046-.872s-.814 3.137-2.498 3.601M55.816 68.465s.349 1.22 2.73 1.684M60.172 63.702s-1.568 7.028-2.788 9.12M65.864 73.634l3.195-6.33M62.786 151.405S46.93 167.842 46.29 171.153c-.64 3.311.058 12.487 1.51 15.101 1.452 2.556 0 3.485-2.091 2.033-2.033-1.452-3.369-2.439-5.46-6.563-2.09-4.124-5.75-4.647-5.633-6.912.116-2.265 1.916-3.252 2.73-3.194.812.058 1.858 7.841 3.833 6.33 1.974-1.568 2.09-12.371 2.09-12.371l10.107-22.013M54.887 35.3s.406-1.045 2.614-.232M52.738 36.578s1.452.813 3.369.349M40.309 32.397s3.484-1.278 4.472 1.103M46.872 33.907s.755-1.046 1.742-.93M43.561 39.308l1.336.465s.58-.871.58-5.286M43.968 34.836s.174-1.162-.93-.755M48.033 35.184s-.058-.987-1.045-.522M41.354 40.005s2.962 1.22 4.53.813c0 0-1.394 3.485-4.124.465" stroke="#5F458A" stroke-miterlimit="10"/><path d="M24.278 51.099S17.424 35.3 11.384 30.538c0 0 24.046-9.525 31.654-10.57 7.609-1.046 7.783-.872 14.114-3.08 6.33-2.206 12.836-9.99 12.836-9.99s2.381 19.98 8.77 26.254c6.39 6.273 9.99 13.068 9.99 13.068l-4.414 1.51" stroke="#5F458A" stroke-miterlimit="10"/><path d="M26.485 48.485s-5.982-13.823-8.828-16.553l13.649-5.285M55.526 19.444s11.326-4.472 12.778-7.724c0 0 2.788 22.36 16.785 33.28" stroke="#5F458A" stroke-miterlimit="10"/></svg>