<svg width="131" height="194" fill="none" xmlns="http://www.w3.org/2000/svg"><path d="M22.304 64.284c-11.84 7.265-32.423 31.212-16.48 49.509 15.942 18.297-12.042 30.405 3.834 48.231 15.875 17.893 105.273 36.257 117.852 13.588 12.579-22.669-24.62-49.576-34.239-73.591-9.754-23.947-45.136-53.545-70.967-37.737z" fill="#F3DBFE"/><path d="M57.418 59.845s.941-5.516-2.355-12.041c-3.363-6.525-6.794-8.342-6.794-8.342.135-1.883 2.355-7.937 2.355-7.937s2.488.673 3.901.605c1.413-.067 1.95-1.076 1.682-1.547-.27-.47-.202-1.076-.202-1.076.673-.74-.067-1.076-.067-1.076.807-.875.336-.942.336-.942-1.076-.135-.605-.605-.605-.605 1.076-.471.807-.875.807-.875-2.153-.067-2.825-5.583-2.825-5.583" stroke="#5F458A" stroke-miterlimit="10" stroke-linejoin="round"/><path d="M54.592 23.79s1.682-.27 1.211-2.22c-.47-1.951-2.96-5.786-8.14-5.046-5.179.673-7.331 5.314-9.484 9.149-2.153 3.834-5.92 9.148-3.363 14.395 2.556 5.18-4.171 4.372-3.23 7.87.943 3.498 4.911 1.211 5.718 3.969.74 2.758-2.556 4.776-5.044 5.314 0 0 7.87 2.96 9.888-3.229 2.018-6.188 0-7.735-1.48-10.628-1.48-2.892 9.62-9.216 6.525-15.942M53.92 23.587s-.875-.874-2.287-.067M52.776 24.798s1.01.471 2.556 0" stroke="#5F458A" stroke-miterlimit="10" stroke-linejoin="round"/><path d="M54.66 23.52s1.345-3.767-4.306-3.7c0 0 1.615 4.104-3.094 4.373 0 0-.807-2.153-1.682-1.547-.874.672-.874 4.708 1.346 3.834M53.112 32.063s0 1.95-1.883 3.296c-1.884 1.346-2.085 6.593 2.758 7.13 0 0 1.143.27-.336-2.017 0 0 3.161.067 2.488 2.892" stroke="#5F458A" stroke-miterlimit="10" stroke-linejoin="round"/><path d="M43.426 39.328s3.901 2.623 6.525 9.014c2.623 6.39 5.449 14.462 10.225 10.36 4.776-4.037 9.82-11.773 9.82-11.773l.337-2.018" stroke="#5F458A" stroke-miterlimit="10" stroke-linejoin="round"/><path d="M43.157 51.436s6.996 17.49 14.395 15.875c7.4-1.614 15-19.104 15-19.104l1.548-1.21" stroke="#5F458A" stroke-miterlimit="10" stroke-linejoin="round"/><path d="M41.072 57.961s10.291 16.884-2.422 29.127c0 0 12.713 8.61 20.247 8.005l-1.749-26.167M52.103 95.766S39.188 133.3 38.65 136.933c-.538 3.633-8.207 45.339-8.207 45.339h-4.709s-2.556-31.818.337-38.746c2.825-6.929 4.776-9.082 4.776-18.364 0-9.283-2.826-31.01 7.803-36.998" stroke="#5F458A" stroke-miterlimit="10" stroke-linejoin="round"/><path d="M55.87 95.766s-4.641 32.154-5.583 43.656c-.874 11.503-2.22 33.97-.538 38.679h-4.91s-4.037-27.916-1.951-33.768v-17.288M30.309 182.877s-.135 1.346.538 3.431c.672 2.085.672 6.592.672 6.592s-5.314 1.144-5.852-1.211c-.538-2.421.673-3.565.673-3.565s2.422 3.969 3.363 2.354M50.018 178.639s1.21 2.355 4.305 3.633c3.094 1.345 3.7 1.614 2.153 2.018-1.48.403-2.96.067-6.458 0-3.498-.068-3.969.336-4.238-.471-.202-.807.673-2.287.673-2.287s1.412 1.614 5.314.672" stroke="#5F458A" stroke-miterlimit="10" stroke-linejoin="round"/><path d="M26.273 22.578s2.758-3.027 1.95-5.448c-.807-2.422-3.161-2.422-3.968-.135 0 0-3.095-1.48-3.23 1.547-.134 3.162 5.248 4.036 5.248 4.036zM43.022 6.77s3.969 1.01 5.718-.807c1.749-1.816.605-3.901-1.749-3.565 0 0-.135-3.43-2.892-2.085-2.826 1.345-1.077 6.457-1.077 6.457zM14.299 31.458s-.673-4.036-3.094-4.91c-2.422-.875-3.835 1.008-2.556 3.026 0 0-3.095 1.48-.74 3.498 2.421 2.085 6.39-1.614 6.39-1.614zM76.992 30.247s3.902 1.143 5.718-.673c1.816-1.816.74-3.901-1.681-3.565 0 0-.068-3.43-2.893-2.153-2.825 1.211-1.144 6.39-1.144 6.39zM28.694 57.087s2.69-5.449.538-8.61c-2.152-3.162-5.516-2.086-5.717 1.48 0 0-5.046-.875-3.97 3.632 1.077 4.507 9.15 3.498 9.15 3.498z" fill="#F3DBFE"/><path d="M70.602 42.826s-1.278.74-1.413.067c-.201-.672 3.835-3.161 3.835-3.161l3.094.336s2.556 6.054 3.498 7.198" stroke="#5F458A" stroke-miterlimit="10" stroke-linejoin="round"/><path d="M71.746 42.22s-2.49 1.884-2.018 2.288c.47.403 3.632-1.346 4.036-1.884 0 0-1.144 5.583 4.036 8.947" stroke="#5F458A" stroke-miterlimit="10" stroke-linejoin="round"/><path d="M80.154 46.862l-2.287 6.861s15 20.382 19.037 18.633c4.036-1.681.605-11.637-1.01-17.22-1.614-5.583-4.64-12.445-10.964-15.875 0 0-5.449-2.758-11.84-3.43" stroke="#5F458A" stroke-miterlimit="10" stroke-linejoin="round"/><path d="M80.894 47.871l8.88 10.763s-4.777-6.323-5.45-13.925M65.153 37.848s-3.7 1.413-4.238 6.929c-.538 5.448-.672 13.117-.672 13.117M60.78 66.639l2.355 26.234 30.674-1.009s-4.977-14.933-4.44-22.467M75.243 95.766l28.387 85.766 5.785-.942-16.884-88.659" stroke="#5F458A" stroke-miterlimit="10" stroke-linejoin="round"/><path d="M107.801 180.725l.538 1.614s10.561 4.642 9.754 5.651c-.807 1.009-13.588.067-14.933-.404-1.346-.471-.875-.74-.875-.74l.74-2.96s3.565 2.556 5.852 1.48M64.212 95.16s.403 9.888 1.883 18.028c1.48 8.139 12.377 69.218 12.377 69.218l4.305-1.614s-3.767-53.276-3.565-59.465c.202-6.188.27-9.148.27-9.148M81.163 182.07s1.615 9.686 1.144 9.888c-.404.202-5.92-2.22-5.92-2.22l1.614-4.641s.337 1.749 1.682 1.345M57.888 55.338l2.893-9.889M57.552 73.5s1.95-.942 2.893-2.758M43.291 38.386s1.615 2.287 4.978 2.287M70.333 27.892c1.816.808 2.489-.336 2.489-.336-2.422.135-3.027-2.556-2.22-4.036.74-1.413 2.153-4.709 2.153-4.709.874-6.121-4.642-5.448-4.642-5.448-1.883-4.71-6.525-2.355-6.525-2.355-4.305-1.21-4.103 1.01-6.928 1.884-2.826.874-2.691-1.615-2.691-1.615s-2.893 1.951-2.22 4.507" stroke="#5F458A" stroke-miterlimit="10" stroke-linejoin="round"/><path d="M55.736 20.291s1.345.74 3.565-1.614c2.22-2.354 3.229-3.364 4.103-1.95.875 1.479.404 1.21 1.682 1.815 1.278.538 2.018 2.287 2.018 2.287s.336-2.152 1.547-1.816c1.211.336 2.018 1.615.404 3.969 0 0 .47 2.556.47 3.834" stroke="#5F458A" stroke-miterlimit="10" stroke-linejoin="round"/><path d="M57.552 20.09s.538 5.044 2.489 8.744c1.95 3.7 2.893 4.709 4.574 4.574 1.615-.202 4.104-1.816 4.91-5.448M61.655 23.184s.068-2.086 3.633-1.547M59.84 23.587s-.943-.807-1.817-.538" stroke="#5F458A" stroke-miterlimit="10" stroke-linejoin="round"/><path d="M61.117 23.991s.471 3.632 1.144 4.641l1.412-.672M62.463 24.058s0-.942 1.21-.538M59.84 24.53s-.943-.606-.943.335M61.454 29.776s2.018-.067 4.036-1.21c0 0-2.018 4.304-4.036 1.21zM70.535 39.126s-3.969 1.48-4.978-.403c0 0-.538-.538-1.076-5.45M70.871 28.7l2.287 7.601" stroke="#5F458A" stroke-miterlimit="10" stroke-linejoin="round"/></svg>