<svg width="163" height="202" fill="none" xmlns="http://www.w3.org/2000/svg"><path d="M43.61 106.697s-67.094 33.713-34.84 64.042c32.252 30.328 36.964 19.378 64.107 22.497 27.143 3.12 53.424 16.459 65.966-26.346 12.543-42.805 10.552-32.519 18.118-59.064 7.632-26.546-19.179-52.826-113.35-1.129z" fill="#F3DBFE"/><path d="M52.703 36.915s-.664 8.163-3.65 8.163c-2.987 0-4.513-2.787-4.513-2.787" stroke="#5F458A" stroke-miterlimit="10"/><path d="M49.318 30.279s3.451 9.224 6.703 7.565c0 0-2.124-.73-1.858-1.792.265-1.061 1.592-8.892-4.447-8.03 0 0-1.99-2.057-7.83 0-5.84 2.058-3.053 6.239-2.854 7.964.199 1.726-1.46 7.765 4.38 7.234" stroke="#5F458A" stroke-miterlimit="10"/><path d="M38.633 38.11s-2.455 1.062-1.791 3.517c.663 2.456 1.393 1.394 1.791 3.45.465 2.058.863 3.651 2.721 3.452M43.013 38.773s-1.194-.796-.862-2.853c.331-2.058 2.123-.531 1.99.597 0 0 1.195-.266 1.328-2.854s2.256-3.716 3.65-4.18M47.99 34.858s-1.658-.398-2.388 1.526M46.199 36.849s.995-1.327 2.588-.332M50.513 36.517s.995-1.128 1.725-.597M50.645 38.11s.266 1.26.398 1.526c0 0-.331.332-1.128.265M50.579 42.357s.199-1.195-.531-.93c-.796.266-1.128 1.66-.133 1.726M48.057 44.945s-.929 2.323-.398 4.58c.597 2.256 1.792 4.578-1.327 4.711-3.12.133-4.978-2.522-4.646-3.517.398-.996 1.46-5.575 1.46-5.575" stroke="#5F458A" stroke-miterlimit="10"/><path d="M41.752 50.984l-7.631.797s1.858 6.902 1.791 10.883M36.045 77.464L35.25 94.85s9.29 6.371 20.44 2.323c0 0-.93-16.724-.332-22.431.664-5.707 2.987-9.291 1.925-11.348-.797-1.527-4.048-7.3-5.575-10.22a3.564 3.564 0 0 0-2.787-1.925l-.797-.066M33.39 52.909s-3.384 11.016-4.446 27.077l-7.698 11.812s4.048 1.593 6.105 3.65c0 0 4.447-4.048 7.964-14.201M26.422 95.448s-6.703 6.57-7.565 7.964c-.863 1.394-1.66 5.774-2.92 6.437-1.261.664-3.318 1.261-2.588.399.73-.863 1.99-1.129 1.858-1.792-.133-.664-.73-1.792-1.46-1.46-.73.332-5.11 2.787-6.106 2.522-.995-.266.067-.996.797-1.261M10.893 103.014c-.066 0-2.389.398-3.252.531-.199 0-.332.199-.265.398 0 .133.199.266.332.266l2.654-.067c.067 0 .133.133 0 .133l-3.583 1.394a.45.45 0 0 0-.266.53c.066.2.332.332.531.266l3.12-.796c.066 0 .132.066.066.132l-3.518 1.858c-.265.133-.332.465-.199.73.133.2.398.332.664.2l.265-.133" stroke="#5F458A" stroke-miterlimit="10"/><path d="M12.818 102.417s2.455.265 4.645-3.053c2.19-3.318 4.646-7.167 4.646-7.167M56.353 75.075s-.266.862 3.185 5.508c3.451 4.645 3.65 5.375 3.65 5.375s-1.725 2.854-4.645 3.916l-1.792-2.057M63.586 87.22s3.783 6.768 5.243 7.565c1.394.796 5.442 2.455 8.23 2.853.132 0 .265.133.265.266 0 .199-.133.332-.332.265-.664-.132-2.124-.331-2.323-.132-.265.265 0 .398.465.53.332.133 2.72.863 3.65 1.129.199.066.332.332.265.531-.066.199-.332.331-.53.265-1.063-.332-3.916-1.195-3.916-.995 0 .132 2.787 1.659 3.982 2.256.265.133.332.531.199.73a.536.536 0 0 1-.598.199l-1.26-.531M59.804 89.874s6.238 6.504 6.968 7.83c.73 1.328.73 3.983 2.522 5.244 1.194.862 1.99 1.327 2.322 1.526.2.066.399.066.465-.133a.432.432 0 0 0-.133-.597c-.53-.332-1.46-.863-1.592-1.394-.133-.73-.465-2.256 1.659-1.327 1.592.73 3.716 2.057 4.579 2.655.199.132.53.066.663-.133s.133-.531-.132-.664l-2.522-1.858M49.384 103.014s-2.588 1.925-4.18 6.835c-1.593 4.845-7.234 40.549-9.49 46.455l.464 22.963-8.362.464s-1.394-17.52.995-26.28c2.39-8.76.399-41.81 3.451-49.242 3.053-7.433 4.712-8.429 4.712-8.429" stroke="#5F458A" stroke-miterlimit="10"/><path d="M55.092 98.501s-.067 43.203 0 51.366c.066 8.163-1.991 18.582 1.99 28.404h-8.56s-4.314-15.065-2.655-25.816c1.66-10.751-3.318-22.63-3.318-22.63M34.784 179.466l-.53 7.831s-.664 6.371-.399 8.959c.266 2.654.133 3.185-2.92 3.384-3.053.199-6.039-.597-5.906-2.92.132-2.322 2.521-4.048 2.521-4.048s1.593 3.717 3.717 2.721M29.608 187.363v-7.632" stroke="#5F458A" stroke-miterlimit="10"/><path d="M55.092 178.271s-.598 7.897 1.062 9.756c1.659 1.924 6.171 5.375 8.229 5.441 2.057.067 2.72.73.53 1.991-2.19 1.261-1.194 1.46-5.64.332-4.513-1.128-8.694-.929-8.694-.929l.664-4.048s2.455 1.858 4.844.863c2.456-.929 0-2.257 0-2.257M50.114 178.271l1.66 8.362M120.195 28.089s-6.172 3.252-9.025 2.19c-2.854-1.062-3.385-3.85-2.323-5.973 1.062-2.124 2.19-4.447 4.645-5.442 2.456-.995 4.048.995 1.527 3.451 0 0 3.318-2.256 2.721 2.124 0 0 3.318-3.584 4.778 0 1.393 3.583-.199 2.72 1.659 5.176s2.256 6.504-2.787 9.357" stroke="#5F458A" stroke-miterlimit="10"/><path d="M120.527 29.681s-.597 2.522-.199 3.85c0 0 2.057-1.593 2.256.398.199 1.99-1.194 2.72-1.194 2.72s.73 3.584-1.991 5.509c-2.721 1.925-4.38 2.854-5.708.796-1.327-2.057-2.389-5.773-2.522-11.48M114.554 33.398s.332-2.124 2.588-1.394M113.492 33.265s-.464-1.26-1.725-1.128" stroke="#5F458A" stroke-miterlimit="10"/><path d="M113.691 33.995v3.982h1.593M115.749 34.26s.265-.995 1.261-.796M112.696 34.26c-.066 0-.332-.597-.929-.398M113.957 40.83s2.057-1.791 2.986-1.26M121.456 40.366l1.925 9.556s-3.385 3.186-7.168 2.39l-.066-6.969M113.492 64.722s1.128-4.247-1.659-6.57c-2.787-2.323-20.971-7.3-20.971-7.3l-4.18-3.319a1.749 1.749 0 0 0-1.395-.398l-9.224 1.128c-.332.067-.531.399-.398.664a.5.5 0 0 0 .464.332l4.977-.2c.399 0 .664.399.531.73-.265.465-.464 1.129-.53 1.859-.133 1.46.929 2.854 2.389 3.053 1.061.133 2.256.199 3.185-.398 0 0 19.445 12.21 25.019 12.41" stroke="#5F458A" stroke-miterlimit="10"/><path d="M111.568 57.156s14.6-8.096 16.723-8.096c2.124 0 7.831 1.792 5.509 8.362-2.323 6.57-2.058 28.072-1.527 30.395.531 2.322 4.314 17.918 4.314 17.918l-23.559 4.048s-5.044-33.58-4.911-40.88M126.964 48.993c-.199 0-3.716-.265-3.716-.265M116.147 49.922s-5.044.598-5.973 2.39c-.863 1.791-1.327 4.313-1.327 4.313M105.728 65.186l-6.172 18.516 10.021 12.808" stroke="#5F458A" stroke-miterlimit="10"/><path d="M108.581 78.194l-1.128 1.792 2.124 3.65M135.326 106.332l1.261 3.451s-2.787 26.546-1.593 34.974c1.261 8.428-3.782 45.858-3.782 45.858l-6.902-1.46s2.057-27.01-1.261-44.531c-3.319-17.52-6.902-32.651-6.902-32.651" stroke="#5F458A" stroke-miterlimit="10"/><path d="M113.625 110.845s-.73 42.075-.465 50.304c.266 8.229-.199 28.802-.199 28.802l6.371 1.261s4.38-27.342 4.115-35.107M114.82 190.748s2.123 1.327-2.721 2.654c-4.911 1.327-7.234 2.057-7.3 2.987-.067.929 9.025-1.129 12.476-.531 3.451.597 3.385-.863 2.986-1.792-.464-.863-4.181 1.393-6.039.663M125.04 189.553s.132.995-1.527 4.115c-1.659 3.052-6.835 5.972-3.252 7.101 3.518 1.128 5.177.597 7.699-2.987 2.522-3.584 2.389-5.11 2.389-5.11s-4.248 5.774-6.305 4.845" stroke="#5F458A" stroke-miterlimit="10"/><path d="M74.404 33l6.304-17.919 6.106 6.438L97.897 3.733l10.618 4.314-18.45 22.232-4.844-5.84-10.817 8.56zM30.271 19.13L23.303.017l-5.84 4.579 4.712 14.069-5.31 5.31 15 10.684-6.372-11.083 4.779-4.447zM136.786 39.968l6.836-11.15 4.911 2.523 7.432-8.893 7.035 3.45-11.813 11.88-5.11-3.783-9.291 5.973z" fill="#F3DBFE"/></svg>