<svg width="157" height="40" fill="none" xmlns="http://www.w3.org/2000/svg"><path d="M50.772 37.704c1.52 1.52 3.507 2.296 5.99 2.296 1.644 0 3.01-.434 4.065-1.303 1.055-.87 1.583-1.986 1.583-3.32.03-2.98-2.98-4.19-5.245-4.904-1.583-.59-2.855-1.335-2.855-2.452 0-1.272 1.055-1.955 2.669-1.955 1.458 0 3.072.528 3.972 1.397l1.21-2.173c-1.272-1.148-2.979-1.738-5.09-1.738-3.227 0-5.647 1.676-5.647 4.531 0 3.042 2.948 4.097 5.213 4.934 1.583.59 2.855 1.335 2.855 2.421 0 1.273-1.055 2.048-2.668 2.048-1.831 0-3.352-.62-4.624-1.83l-1.428 2.048zM66.638 33.886c0 3.135 1.459 4.655 3.041 5.338 1.149.466 2.018.559 2.98.559.217 0 .558-.031 1.055-.093v-2.67a3.954 3.954 0 01-2.39-.279c-.869-.403-1.675-1.334-1.675-3.196v-7.013h3.786V24.08h-3.787v-4.469H66.7v4.469h-2.11v2.452h2.048v7.354zM79.816 39.628V33.11c0-1.707.403-3.197 1.21-4.47.838-1.271 2.017-1.923 3.6-1.923.404 0 .714.03.87.062V23.8c-.342-.03-.59-.061-.808-.061-2.327 0-4.22 1.768-4.996 4.158h-.062l.093-1.148v-2.824h-2.917v15.703h3.01zM86.965 31.745c0 2.359.806 4.314 2.451 5.896C91.061 39.224 93.078 40 95.436 40c2.36 0 4.345-.776 5.99-2.358 1.645-1.583 2.452-3.538 2.452-5.897 0-2.358-.807-4.313-2.452-5.865-1.645-1.552-3.63-2.328-6.02-2.328-2.359 0-4.345.776-5.99 2.359-1.644 1.552-2.451 3.507-2.451 5.834zm3.072 0c0-1.614.527-2.948 1.552-4.003 1.055-1.055 2.327-1.583 3.848-1.583 1.49 0 2.762.528 3.817 1.583 1.055 1.055 1.582 2.39 1.582 4.003 0 1.614-.527 2.948-1.582 4.034-1.055 1.087-2.328 1.614-3.817 1.614-1.521 0-2.793-.527-3.848-1.583-1.025-1.086-1.552-2.42-1.552-4.065zM110.516 39.628v-7.324c0-1.583.434-2.98 1.303-4.19.869-1.21 2.018-1.83 3.414-1.83 2.141 0 2.7 1.458 2.7 3.94v9.404h3.01v-7.324c0-1.583.435-2.98 1.272-4.19.869-1.21 1.987-1.83 3.383-1.83 2.141 0 2.762 1.427 2.762 3.94v9.404h3.01V29.573c0-4.066-1.613-6.02-5.182-6.02a5.818 5.818 0 00-3.383 1.055c-1.024.713-1.738 1.551-2.203 2.513h-.062c-.528-2.39-2.111-3.569-4.686-3.569-1.18 0-2.297.373-3.321 1.118-1.024.744-1.738 1.613-2.141 2.575h-.062l.093-1.179v-2.141h-2.917v15.703h3.01zM137.393 20.76a1.52 1.52 0 100-3.042h-.062a1.52 1.52 0 100 3.041h.062zm1.489 18.868V23.925h-3.01v15.703h3.01zM145.123 39.628l3.289-5.245.466-.838h.062l.497.838 3.289 5.245h3.414l-5.369-8.069 5.058-7.634h-3.444l-2.917 4.779c-.156.28-.311.59-.528.93h-.062l-.497-.93-2.917-4.78h-3.444l5.058 7.635-5.369 8.069h3.414zM33.498 39.628l6.362-22.426 6.3 22.426h3.165l-7.851-26.142h-3.259l-7.851 26.142h3.134z" fill="#251959"/><path d="M54.846 4.958c.728 1.285.894 2.932.39 4.94-.506 2.02-1.67 4.315-3.47 6.743-3.593 4.853-9.55 10.01-17.044 14.252-7.492 4.241-14.98 6.695-20.991 7.279-3.008.292-5.575.11-7.567-.496-1.98-.602-3.308-1.592-4.035-2.876-.727-1.285-.893-2.932-.39-4.94.507-2.02 1.672-4.315 3.47-6.743 3.594-4.853 9.552-10.01 17.044-14.252 7.493-4.241 14.982-6.694 20.992-7.279 3.008-.292 5.575-.11 7.566.496 1.982.602 3.309 1.592 4.035 2.877z" stroke="#251959" stroke-width="2.9"/></svg>