<svg width="35" height="35" fill="none" xmlns="http://www.w3.org/2000/svg"><path d="M27.529 17.318l-3.108 2.819 2.806 3.118 3.108-2.82-2.806-3.117zM21.335 19.854L17.191 23.6l3.732 4.163 4.145-3.745-3.733-4.163zM33.134 16.326l-2.07 1.873 1.866 2.078L35 18.404l-1.866-2.078zM22.003 4.458l-3.11 2.811 2.8 3.123 3.11-2.81-2.8-3.124zM30.484 10.115l-2.066 1.874 1.868 2.076 2.066-1.874-1.868-2.076zM18.394 12.643l-4.149 3.749 3.733 4.162 4.148-3.748-3.732-4.163zM15.431 5.55l-4.146 3.746 3.732 4.163 4.147-3.747-3.733-4.163zM24.86 10.738l-3.102 2.812 2.806 3.122 3.103-2.812-2.806-3.122zM27.823 3.942l-2.07 1.874 1.866 2.078 2.07-1.873-1.866-2.079zM30.267 23.627l-3.11 2.813 2.804 3.124 3.11-2.813-2.804-3.124z" fill="#00A3FF"/><path d="M24.812 27.166l-4.053 3.752-6.843-7.645 1.903-1.681-4.79-5.386 1.913-1.684-4.862-5.38 7.588-6.858 2.41 2.648 4.07-3.645 2.404 2.502 1.603-1.441c-.358-.208-.717-.4-1.08-.573A17.3 17.3 0 0017.433 0C7.833 0 0 7.86 0 17.501 0 27.14 7.833 35 17.433 35c3.119 0 6.057-.829 8.592-2.28a18.992 18.992 0 002.293-1.53l-3.506-4.024z" fill="#00A3FF"/></svg>