<svg width="72" height="59" fill="none" xmlns="http://www.w3.org/2000/svg"><path d="M33.901 58.382c15.95 0 28.881-12.931 28.881-28.882 0-15.95-12.93-28.88-28.881-28.88C17.951.62 5.02 13.55 5.02 29.5c0 15.951 12.93 28.882 28.881 28.882z" fill="#274698"/><path d="M32.199 6.489a.324.324 0 100-.648.324.324 0 000 .648zM35.523 6.92a.324.324 0 100-.647.324.324 0 000 .648zM39.88 12.791a.324.324 0 100-.647.324.324 0 000 .647zM15.966 43.011a.324.324 0 100-.648.324.324 0 000 .648zM16.807 45.601a.324.324 0 100-.647.324.324 0 000 .647zM12.794 43.318a.242.242 0 100-.485.242.242 0 000 .485zM25.96 48.407a.243.243 0 100-.486.243.243 0 000 .486zM46.612 44.117a.242.242 0 100-.484.242.242 0 000 .484zM52.61 37.6a.243.243 0 100-.487.243.243 0 000 .486zM23.196 14.604a.242.242 0 100-.484.242.242 0 000 .484zM29.805 9.753a.243.243 0 100-.485.243.243 0 000 .485zM29.085 9.278a.242.242 0 100-.485.242.242 0 000 .485zM28.436 8.803a.243.243 0 100-.485.243.243 0 000 .485zM24.232 15.857a.242.242 0 100-.485.242.242 0 000 .485zM33.961 3.234a.243.243 0 100-.485.243.243 0 000 .485zM35.56 10.228a.242.242 0 100-.485.242.242 0 000 .485zM33.04 8.862a.242.242 0 100-.485.242.242 0 000 .485zM28.722 10.72a.243.243 0 100-.485.243.243 0 000 .485zM47.759 50.523a.243.243 0 100-.485.243.243 0 000 .485zM15.558 44.57a.243.243 0 100-.486.243.243 0 000 .487zM32.438 47.7a.243.243 0 100-.486.243.243 0 000 .487zM20.578 44.377a.243.243 0 100-.487.243.243 0 000 .486zM22.677 47.804a.243.243 0 100-.486.243.243 0 000 .486zM38.135 45.645a.243.243 0 100-.485.243.243 0 000 .485zM46.654 40.836a.242.242 0 100-.485.242.242 0 000 .485zM53.112 43.787a.242.242 0 100-.485.242.242 0 000 .485zM55.314 45.196a.242.242 0 100-.485.242.242 0 000 .485zM55.678 41.354a.243.243 0 100-.485.243.243 0 000 .485zM23.557 35.914a.243.243 0 100-.485.243.243 0 000 .485zM23.65 41.564a.324.324 0 100-.647.324.324 0 000 .647zM25.59 45.666a.324.324 0 100-.647.324.324 0 000 .647zM48.862 41.392a.324.324 0 100-.648.324.324 0 000 .648zM57.237 40.918a.324.324 0 100-.648.324.324 0 000 .648zM53.09 39.147a.324.324 0 100-.648.324.324 0 000 .648zM48.862 39.32a.324.324 0 100-.648.324.324 0 000 .647zM40.135 5.962l.805-.077-.804-.045a.357.357 0 00-.306-.297l-.077-.802-.046.808a.356.356 0 00-.275.305l-.823.075.828.044c.03.14.143.248.284.274l.075.826.044-.825a.36.36 0 00.295-.286zM26.545 14.926l.805-.077-.803-.046a.356.356 0 00-.307-.297l-.077-.801-.045.808a.355.355 0 00-.276.305l-.823.075.83.044c.03.14.142.248.283.274l.074.826.045-.825a.358.358 0 00.294-.286zM56.647 38.625l.805-.077-.803-.046a.356.356 0 00-.307-.297l-.077-.801-.045.808a.356.356 0 00-.275.305l-.823.075.829.044c.03.139.142.248.283.273l.075.827.045-.825a.359.359 0 00.293-.286zM23.824 51.016l.805-.076-.803-.046a.357.357 0 00-.307-.297l-.077-.8-.045.806a.355.355 0 00-.276.305l-.823.075.829.045c.03.139.142.248.284.273l.074.826.045-.824a.36.36 0 00.294-.287zM54.09 44.972l.805-.077-.804-.045a.356.356 0 00-.306-.297l-.077-.802-.046.808a.356.356 0 00-.274.305l-.823.074.828.045c.03.139.143.248.284.273l.075.826.044-.824a.357.357 0 00.294-.286z" fill="#fff"/><path d="M40.752 22.58c-3.358 1.306-6.634 2.471-9.397 3.336-5.616 1.758-20.981 6.519-30.263 12.52l.777.302c5.656-3.195 9.332-4.199 12.865-5.31 3.842-1.21 16.263-4.116 21.888-5.699a95.1 95.1 0 006.483-2.087 57.774 57.774 0 00-2.353-3.061zm4.102 5.656c-.813.549-1.494.987-1.971 1.263-2.763 1.597-16.233 10.793-19.297 12.908-3.065 2.116-11.57 10.145-14.074 12.476l-.086.95C17.498 48.58 20.03 46.79 23.24 44.35c3.972-3.022 12.188-8.613 14.98-10.404a485.453 485.453 0 007.238-4.729l-.106-.178a67.414 67.414 0 00-.498-.803zm12.62-13.329c-3.933 2.306-10.132 5.088-16.145 7.449a52.361 52.361 0 012.332 3.084c4.727-1.742 9.914-4.079 14.03-6.907-1.961 1.858-8.443 6.702-12.396 9.402.204.332.401.664.592.994 5.988-4.007 10.017-6.956 12.365-8.928 3.237-2.72 10.62-8.807 13.426-16.966-4.922 6.26-10.742 9.843-14.204 11.872z" fill="red"/><path d="M30.186 36.65c-.637-.802-1.518-1.876-2.179-2.708a50.319 50.319 0 01-2.452-3.36c-.245.06-.488.121-.732.183a51.108 51.108 0 003.005 4.2c.8 1.008 1.527 1.819 1.9 2.323.076.103.225.329.428.63l.706-.48c-.23-.25-.457-.512-.676-.788zm4.648 4.219c-.523-.495-1.792-1.322-3.112-2.563l-.88.608c.852 1.201 2.013 2.677 2.923 3.107 1.37.65 1.739-.518 1.069-1.152zm6.924-17.98c-7.55-9.503-16.771-14.723-20.747-11.563-3.088 2.453-1.82 9.624 2.436 17.156l.654-.223c-4.296-7.339-5.472-14.159-2.56-16.474 3.66-2.908 12.499 2.332 19.829 11.559a54.677 54.677 0 013.981 5.694c4.326 7.16 5.653 13.634 2.664 16.277-.914.808-3.709 1.126-7.37-.522-.05.064.031.237.095.28 3.16 1.27 6.188 1.755 7.716.54 3.672-2.917.85-13.223-6.698-22.725zM9.38 24.016h4.836l4.058 6.886v-5.375c0-.604-.766-1.392-1.036-1.51h3.346c-.206.053-.864.852-.864 1.51v7.9c0 .486.702 1.155 1.036 1.414h-4.662l-4.123-6.918v5.44c0 .54.529 1.057 1.08 1.5H9.488c.507-.216.993-.896 1.036-1.435.043-.54 0-7.501 0-7.803 0-.659-.637-1.198-1.144-1.609z" fill="#fff"/><path d="M53.608 34.841h6.432c-.356-.086-.755-.507-.971-1.068-.216-.561-3.626-9.757-3.626-9.757h-2.446c-.694.5-1.437 1.026-2.23 1.581a.81.81 0 01-.008.06c-.107.647-2.02 7.58-2.137 7.922-.162.474-.993 1.003-1.328 1.284h3.465c-.346-.389-.626-.766-.562-1.198.065-.432.26-1.295.26-1.295h3.583c.162.432.282.82.345 1.187.076.443-.378.94-.777 1.284zm-2.828-3.853l1.209-3.95 1.597 3.95H50.78zm-.544-6.577l.533-.395h-.938c.093.087.248.223.405.395zM25.634 33.665c.065-.432.26-1.295.26-1.295h3.583c.162.432.282.82.345 1.187.076.443-.378.94-.777 1.284h5.663l.353-.236a2.157 2.157 0 01-.555-.832c-.216-.561-3.626-9.757-3.626-9.757h-5.613c.27.249 1.047.918.929 1.64-.106.648-2.02 7.58-2.137 7.923-.162.474-.993 1.003-1.328 1.284h3.465c-.346-.389-.626-.766-.562-1.198zm1.792-6.627l1.597 3.95h-2.806l1.209-3.95zM45.199 29.389a444.94 444.94 0 01-3.346 2.205c.527.255.947.576.987.99.075.78-1.49 1.155-2.903.994a3.495 3.495 0 01-.826-.206c-.293.19-.59.38-.89.573-.306.196-.677.438-1.101.717v1.117c.28-.55.894-1.043 1.37-1.068.206-.01.918.648 3.853.486 1.425-.079 4.177-1.598 4.134-3.346-.026-1.033-.566-1.84-1.278-2.462zm-8.08 2.7v1.138l.767-.51a5.671 5.671 0 01-.767-.629zm7.076-3.415a9.8 9.8 0 00-.816-.429c-1.382-.647-2.828-.766-3.13-1.64-.213-.617.389-1.187 1.856-1.166 1.468.022 2.828.896 3.195 1.209v-2.785c-.108.108-.581.652-1.015.562a18.974 18.974 0 00-3.863-.389c-1.857.011-3.454 1.446-3.508 3.26-.075 2.536 1.953 3.227 3.097 3.626.118.041.253.085.4.132 1.096-.714 1.964-1.264 2.472-1.557a27.77 27.77 0 001.312-.823z" fill="#fff"/></svg>