<svg width="150" height="138" fill="none" xmlns="http://www.w3.org/2000/svg"><path d="M75 53.121c-8.822 0-16 7.178-16 16s7.178 16 16 16c8.823 0 16-7.178 16-16s-7.177-16-16-16zm0 30.609c-8.056 0-14.609-6.553-14.609-14.609 0-8.056 6.553-14.609 14.609-14.609 8.055 0 14.609 6.553 14.609 14.61 0 8.055-6.554 14.608-14.609 14.608z" fill="#7E7F8C"/><path d="M71.522 66.338a2.09 2.09 0 00-2.087-2.087 2.09 2.09 0 00-2.087 2.087 2.09 2.09 0 002.087 2.087 2.09 2.09 0 002.087-2.087zm-2.783 0a.697.697 0 011.391 0 .697.697 0 01-1.39 0zM80.565 64.251a2.09 2.09 0 00-2.087 2.087 2.09 2.09 0 002.087 2.087 2.09 2.09 0 002.087-2.087 2.09 2.09 0 00-2.087-2.087zm0 2.783a.696.696 0 11.002-1.393.696.696 0 01-.002 1.393zM75 72.6a9.1 9.1 0 00-6.78 3.014.696.696 0 001.037.928A7.707 7.707 0 0175 73.99c2.198 0 4.291.93 5.742 2.55a.692.692 0 00.982.055.696.696 0 00.055-.982 9.102 9.102 0 00-6.78-3.015z" fill="#7E7F8C"/><g opacity=".5" fill="#7E7F8C"><path d="M74.576 41.011v-9.923-15.833-3.662c0-.539.84-.546.84 0V41.01c0 .539-.84.539-.84 0zM74.576 9.068V5.776v-.464c0-.539.84-.545.84 0v3.756c0 .546-.84.546-.84 0zM98.642 54.455c2.854-1.657 5.715-3.306 8.57-4.962l13.681-7.916c1.055-.613 2.109-1.219 3.164-1.832.47-.269.893.458.423.727-2.854 1.657-5.716 3.306-8.57 4.962l-13.682 7.916c-1.054.613-2.109 1.219-3.163 1.832-.464.269-.887-.458-.423-.727zM126.24 38.48c.947-.545 1.894-1.097 2.841-1.643.134-.08.269-.155.403-.235.47-.27.893.457.423.727-.947.545-1.894 1.097-2.841 1.642-.134.081-.269.155-.403.236-.463.276-.887-.451-.423-.727zM99.065 82.062c2.854 1.656 5.716 3.305 8.57 4.961l13.682 7.917c1.054.612 2.109 1.218 3.163 1.831.47.27.047.996-.423.727-2.855-1.656-5.716-3.305-8.57-4.961l-13.682-7.917c-1.054-.613-2.109-1.219-3.163-1.831-.464-.27-.04-.996.423-.727zM126.663 98.037c.947.545 1.894 1.097 2.841 1.642.134.08.269.155.403.236.47.269.047.996-.423.727-.947-.545-1.894-1.097-2.841-1.643-.135-.08-.269-.155-.403-.235-.464-.276-.047-1.003.423-.727zM75.416 96.233v29.418c0 .538-.84.545-.84 0v-9.923-15.833-3.662c0-.54.84-.54.84 0zM75.416 128.175v3.756c0 .539-.84.546-.84 0v-3.291-.465c0-.545.84-.545.84 0zM51.35 82.789c-2.854 1.656-5.715 3.305-8.57 4.961-4.56 2.64-9.12 5.278-13.681 7.917-1.055.612-2.11 1.218-3.164 1.831-.47.27-.893-.458-.423-.727 2.855-1.656 5.716-3.305 8.57-4.961l13.682-7.917c1.054-.613 2.109-1.219 3.163-1.831.47-.27.894.458.424.727zM23.752 98.764c-.947.545-1.894 1.097-2.84 1.642-.135.081-.27.155-.404.236-.47.269-.893-.458-.423-.727.947-.546 1.894-1.098 2.841-1.643.135-.08.269-.155.403-.235.47-.276.893.45.423.727zM50.928 55.182c-2.855-1.657-5.716-3.306-8.57-4.962l-13.682-7.916c-1.055-.613-2.11-1.219-3.164-1.832-.47-.269-.047-.996.423-.727 2.855 1.657 5.716 3.306 8.57 4.962l13.682 7.916c1.055.613 2.11 1.219 3.164 1.832.47.269.047.996-.423.727zM23.33 39.207c-.948-.545-1.895-1.097-2.842-1.643-.134-.08-.268-.154-.403-.235-.47-.27-.047-.997.423-.727.947.545 1.894 1.097 2.841 1.642.135.081.269.155.403.236.47.276.047 1.003-.423.727zM55.22 49.399l-8.792-8.812-1.25-1.252c-.383-.384.208-.976.591-.593l8.792 8.812 1.25 1.252c.389.378-.209.977-.592.593zM42.055 36.198l-6.804-6.82-.967-.969c-.383-.384.208-.976.591-.592l6.804 6.819.967.97c.39.383-.208.975-.591.592zM81.723 41.839c1.074-4.012 2.142-8.024 3.217-12.03.154-.572.309-1.144.457-1.723.14-.525.947-.303.812.222-1.074 4.012-2.142 8.024-3.217 12.03a129.33 129.33 0 00-.457 1.723c-.14.525-.953.303-.812-.222zM86.538 23.818c.833-3.104 1.66-6.207 2.492-9.31.121-.445.235-.889.356-1.333.141-.525.947-.303.813.222-.833 3.103-1.659 6.207-2.492 9.31-.12.444-.235.889-.356 1.333-.14.525-.947.303-.813-.222zM101.496 61.072c4.003-1.077 8.006-2.148 12.002-3.225.571-.154 1.142-.31 1.72-.457.524-.142.745.673.222.814-4.003 1.077-8.007 2.148-12.003 3.225-.571.155-1.142.31-1.719.457-.524.135-.746-.673-.222-.814zM119.476 56.239c3.097-.835 6.193-1.663 9.289-2.498.443-.121.887-.236 1.33-.357.524-.141.746.673.222.815-3.097.834-6.193 1.663-9.289 2.497-.444.121-.887.236-1.33.357-.517.141-.739-.673-.222-.814zM94.773 87.844l8.792 8.813 1.249 1.252c.383.383-.208.976-.591.592l-8.792-8.812-1.25-1.252c-.382-.377.21-.976.592-.593zM107.937 101.039l6.804 6.819.967.97c.383.383-.208.976-.591.592l-6.804-6.819-.967-.97c-.383-.377.208-.969.591-.592zM68.27 95.404c-1.075 4.013-2.143 8.025-3.218 12.03-.154.572-.309 1.145-.457 1.724-.14.525-.947.303-.812-.223 1.074-4.012 2.142-8.024 3.217-12.03.154-.572.309-1.144.457-1.723.148-.525.954-.303.812.222zM63.454 113.426c-.833 3.103-1.66 6.206-2.492 9.31-.12.444-.235.888-.356 1.333-.141.525-.947.303-.813-.223.833-3.103 1.66-6.206 2.492-9.31.121-.444.235-.888.356-1.333.141-.525.954-.303.813.223zM48.503 76.171C44.5 77.25 40.497 78.32 36.5 79.396c-.57.155-1.141.31-1.719.458-.524.141-.745-.673-.222-.815 4.003-1.077 8.006-2.147 12.003-3.224.57-.155 1.142-.31 1.72-.458.516-.135.738.673.22.814zM30.516 81.005c-3.096.835-6.193 1.663-9.289 2.498-.443.12-.887.235-1.33.356-.524.142-.745-.673-.221-.814 3.096-.835 6.192-1.663 9.289-2.498.443-.12.886-.235 1.33-.357.523-.14.745.674.221.815zM58.826 46.215c-2.425-3.467-4.843-6.934-7.267-10.4-3.862-5.528-7.73-11.061-11.593-16.588-.893-1.273-1.78-2.552-2.673-3.824-.309-.444.416-.868.725-.424 2.425 3.467 4.843 6.934 7.268 10.4l11.592 16.588c.894 1.272 1.78 2.551 2.673 3.824.316.444-.416.868-.725.424zM36.131 13.888c-1.323-1.891-2.646-3.79-3.97-5.681-.188-.27-.376-.539-.564-.801-.309-.445.417-.869.726-.424 1.323 1.891 2.646 3.79 3.97 5.681.187.27.375.539.563.801.31.445-.416.869-.725.424zM86.276 43.38c1.787-3.837 3.567-7.674 5.353-11.51 2.848-6.12 5.69-12.24 8.537-18.359.658-1.413 1.31-2.82 1.968-4.234.228-.491.954-.06.725.424-1.786 3.837-3.566 7.674-5.353 11.512-2.847 6.119-5.689 12.238-8.536 18.357-.659 1.414-1.31 2.821-1.968 4.235-.229.491-.954.067-.726-.424zM102.859 7.513c.974-2.093 1.948-4.194 2.922-6.287.141-.296.276-.593.417-.889.228-.491.953-.06.725.424l-2.922 6.288c-.141.296-.275.592-.416.888-.228.492-.954.068-.726-.424zM102.443 65.791l12.62-1.11c6.71-.593 13.42-1.179 20.13-1.771 1.545-.135 3.096-.27 4.641-.41.537-.048.537.794 0 .84l-12.62 1.111c-6.71.593-13.42 1.178-20.13 1.77-1.545.135-3.096.27-4.641.411-.537.048-.537-.794 0-.841zM141.728 62.25l6.878-.606c.329-.027.658-.06.987-.087.537-.047.537.794 0 .841l-6.878.606c-.329.027-.658.06-.987.088-.544.047-.537-.795 0-.842zM91.166 91.029c2.425 3.467 4.843 6.934 7.267 10.4l11.593 16.588c.893 1.272 1.78 2.551 2.673 3.823.309.445-.416.869-.725.425-2.425-3.467-4.843-6.934-7.267-10.401L93.114 95.276c-.893-1.272-1.78-2.55-2.673-3.823-.31-.445.416-.869.725-.424zM113.868 123.355c1.323 1.892 2.646 3.79 3.969 5.682.188.269.377.538.565.801.309.444-.417.868-.726.424-1.323-1.892-2.646-3.79-3.969-5.682a92.608 92.608 0 00-.564-.801c-.316-.444.416-.868.725-.424zM63.722 93.863c-1.786 3.837-3.566 7.674-5.353 11.511-2.847 6.12-5.688 12.239-8.536 18.358-.658 1.414-1.31 2.821-1.968 4.234-.229.492-.954.061-.726-.424 1.787-3.837 3.567-7.674 5.353-11.511 2.848-6.119 5.69-12.239 8.537-18.358l1.968-4.234c.228-.492.954-.068.725.424zM47.14 129.73l-2.922 6.288c-.141.296-.276.592-.417.888-.228.492-.954.061-.725-.424.974-2.093 1.948-4.194 2.922-6.287.14-.297.275-.593.416-.889.228-.491.947-.067.725.424zM47.55 71.453l-12.621 1.11c-6.71.593-13.42 1.178-20.13 1.77-1.544.135-3.096.27-4.64.411-.538.047-.538-.794 0-.841l12.62-1.11c6.71-.593 13.42-1.179 20.129-1.771 1.545-.135 3.096-.27 4.641-.411.544-.047.537.794 0 .841zM8.27 74.993l-6.877.606c-.329.027-.658.06-.987.088-.538.047-.538-.795 0-.842l6.877-.606c.33-.026.659-.06.988-.087.537-.047.53.794 0 .841zM77.995 41.105c.625-4.2 1.256-8.408 1.88-12.608 1.001-6.699 2.002-13.397 2.996-20.095l.685-4.605c.08-.538.894-.31.813.222-.625 4.201-1.256 8.409-1.88 12.61-1.001 6.697-2.002 13.396-2.996 20.094l-.685 4.604c-.08.539-.894.31-.813-.222zM100.267 57.464c3.943-1.555 7.892-3.117 11.834-4.672 6.287-2.484 12.574-4.962 18.86-7.446 1.445-.572 2.882-1.137 4.326-1.71.504-.195.719.613.222.815-3.943 1.555-7.892 3.117-11.835 4.672-6.287 2.484-12.573 4.961-18.86 7.445-1.444.573-2.881 1.138-4.325 1.71-.504.195-.726-.612-.222-.814zM97.271 84.977l9.954 7.937 15.865 12.649 3.64 2.901c.423.337-.175.929-.591.593l-9.954-7.937-15.864-12.65-3.64-2.9c-.424-.337.174-.923.59-.593zM72.004 96.138c-.625 4.201-1.256 8.408-1.88 12.609-1.001 6.698-2.002 13.396-2.996 20.095l-.685 4.604c-.081.532-.887.31-.813-.222.624-4.201 1.256-8.408 1.88-12.609 1.001-6.698 2.002-13.396 2.996-20.094l.685-4.605c.08-.538.887-.31.813.222zM49.732 79.773c-3.943 1.555-7.892 3.117-11.835 4.672-6.286 2.484-12.573 4.961-18.86 7.445-1.444.573-2.881 1.138-4.325 1.71-.504.196-.719-.612-.222-.814 3.943-1.555 7.892-3.117 11.835-4.672 6.287-2.484 12.573-4.962 18.86-7.446 1.444-.572 2.881-1.137 4.325-1.71.497-.195.719.62.222.815zM52.72 52.267l-9.953-7.937-15.865-12.65-3.64-2.9c-.423-.337.175-.93.591-.593l9.954 7.937 15.864 12.649 3.64 2.901c.43.33-.167.922-.59.593zM70.93 41.368c-.827-5.466-1.66-10.933-2.486-16.392-.114-.768-.235-1.528-.35-2.296-.08-.532.726-.76.814-.222.826 5.466 1.659 10.933 2.485 16.392.114.767.235 1.528.349 2.296.08.525-.732.754-.813.222zM67.719 20.512c-.826-5.466-1.66-10.932-2.485-16.392-.115-.767-.235-1.528-.35-2.295-.08-.532.726-.76.813-.222.826 5.466 1.659 10.932 2.485 16.392.114.767.235 1.528.35 2.295.073.526-.733.754-.813.223zM96.52 51.459c4.298-3.447 8.603-6.894 12.902-10.34.611-.492 1.222-.976 1.826-1.468.417-.336 1.015.256.592.593-4.299 3.446-8.604 6.893-12.903 10.34-.611.491-1.222.976-1.827 1.467-.416.337-1.014-.256-.59-.592zM112.928 38.244c4.298-3.447 8.603-6.893 12.902-10.34.611-.491 1.222-.976 1.827-1.467.416-.337 1.014.255.591.592-4.299 3.447-8.604 6.893-12.903 10.34-.611.492-1.222.976-1.826 1.468-.41.336-1.008-.256-.591-.593zM100.589 78.723c5.139 2.013 10.277 4.026 15.408 6.038l2.156.849c.497.195.282 1.01-.221.814-5.139-2.013-10.277-4.026-15.408-6.038l-2.156-.849c-.497-.202-.282-1.016.221-.814zM120.215 86.357c5.138 2.013 10.276 4.025 15.408 6.038l2.156.849c.497.195.282 1.01-.222.814l-15.408-6.038-2.156-.849c-.497-.195-.282-1.01.222-.814zM79.063 95.876c.826 5.466 1.659 10.932 2.485 16.398.114.768.235 1.529.35 2.296.08.532-.726.761-.813.222-.826-5.466-1.66-10.932-2.485-16.399-.115-.767-.235-1.528-.35-2.295-.073-.525.733-.754.813-.222zM82.28 116.731c.826 5.466 1.66 10.932 2.485 16.399.114.767.235 1.528.35 2.295.08.532-.726.761-.813.222-.826-5.466-1.66-10.932-2.485-16.398-.114-.768-.235-1.528-.35-2.296-.08-.525.733-.754.813-.222zM53.48 85.785c-4.299 3.446-8.604 6.893-12.903 10.34-.61.491-1.222.976-1.826 1.467-.417.337-1.015-.255-.592-.592 4.299-3.447 8.604-6.894 12.903-10.34.611-.492 1.222-.976 1.827-1.468.416-.336 1.014.25.59.593zM37.065 99l-12.903 10.339c-.611.492-1.222.976-1.827 1.468-.416.337-1.014-.256-.59-.592 4.298-3.447 8.603-6.894 12.902-10.34.61-.492 1.222-.977 1.827-1.468.416-.337 1.014.256.59.592zM49.41 58.52c-5.139-2.012-10.277-4.025-15.408-6.038l-2.156-.848c-.497-.195-.282-1.01.221-.815 5.139 2.013 10.277 4.026 15.408 6.039l2.156.848c.497.202.282 1.016-.221.815zM29.784 50.887a37340.58 37340.58 0 01-15.408-6.039L12.22 44c-.497-.195-.282-1.01.222-.815 5.138 2.013 10.276 4.026 15.407 6.039l2.157.848c.497.195.282 1.01-.222.815zM66.973 42.19c-.866-3.212-1.733-6.43-2.6-9.64-.12-.459-.248-.923-.369-1.38-.14-.526.672-.748.813-.223l2.6 9.64c.12.458.248.922.369 1.38.14.525-.672.747-.813.222zM63.635 29.547c-.866-3.212-1.733-6.43-2.6-9.64-.12-.458-.248-.923-.369-1.38-.14-.526.672-.748.813-.223.867 3.212 1.733 6.43 2.6 9.64.12.458.248.923.369 1.38.14.526-.672.748-.813.223zM60.27 17.22l-2.6-9.64c-.12-.457-.248-.922-.369-1.38-.14-.525.672-.747.813-.222.867 3.212 1.733 6.43 2.6 9.64.12.458.248.923.369 1.38.14.519-.672.741-.813.223zM93.826 48.436c2.344-2.356 4.681-4.712 7.025-7.075.336-.337.672-.68 1.008-1.017.383-.383.974.21.591.593a7126.76 7126.76 0 00-7.026 7.075c-.335.337-.671.68-1.007 1.017-.383.39-.974-.202-.591-.593zM103.081 39.22c2.344-2.356 4.682-4.712 7.026-7.075.335-.336.671-.68 1.007-1.016.383-.384.974.208.591.592-2.344 2.356-4.681 4.712-7.025 7.075-.336.337-.672.68-1.008 1.017-.383.39-.974-.209-.591-.593zM112.054 30.14c2.345-2.357 4.682-4.713 7.026-7.076.336-.337.672-.68 1.007-1.017.383-.383.974.209.591.593-2.344 2.356-4.681 4.712-7.025 7.075-.336.337-.672.68-1.007 1.017-.383.383-.974-.21-.592-.593zM101.852 74.872l9.632 2.565 1.377.364c.523.141.302.949-.222.814l-9.632-2.565-1.377-.363c-.523-.141-.302-.956.222-.815zM114.446 78.299l9.631 2.565 1.377.363c.524.141.302.95-.222.815l-9.631-2.565-1.377-.364c-.524-.141-.302-.956.222-.814zM126.784 81.543l9.631 2.565 1.377.364c.524.141.302.95-.221.814l-9.632-2.564c-.457-.122-.92-.243-1.377-.364-.524-.141-.302-.956.222-.815zM83.019 95.054l2.6 9.64c.12.458.248.923.369 1.38.14.526-.672.748-.813.223-.867-3.212-1.733-6.43-2.6-9.64-.12-.458-.248-.923-.369-1.38-.134-.526.672-.748.813-.223zM86.357 107.697l2.6 9.64c.12.458.248.922.369 1.38.14.525-.672.747-.813.222l-2.6-9.64c-.12-.458-.248-.922-.369-1.38-.134-.525.672-.747.813-.222zM89.722 120.023l2.6 9.64c.12.458.248.922.369 1.38.14.525-.672.747-.813.222l-2.6-9.64c-.12-.458-.248-.922-.369-1.38-.134-.518.672-.741.813-.222zM56.173 88.8c-2.344 2.357-4.681 4.713-7.025 7.076-.336.336-.672.68-1.008 1.016-.383.384-.974-.209-.59-.592 2.343-2.356 4.68-4.712 7.025-7.075.335-.337.671-.68 1.007-1.017.376-.384.967.209.591.593zM46.918 98.023a6623.697 6623.697 0 00-7.026 7.075c-.336.337-.671.68-1.007 1.017-.383.384-.974-.209-.591-.593 2.344-2.356 4.681-4.712 7.025-7.075.336-.336.672-.68 1.008-1.016.376-.39.974.208.59.592zM37.944 107.104a7839.882 7839.882 0 00-7.025 7.076c-.336.336-.672.68-1.008 1.016-.382.384-.974-.209-.59-.592 2.343-2.356 4.68-4.713 7.025-7.075.336-.337.672-.68 1.007-1.017.377-.384.974.209.591.592zM48.14 62.371l-9.631-2.565-1.377-.363c-.524-.142-.302-.95.221-.815l9.632 2.565c.457.121.92.242 1.377.364.524.141.302.956-.222.814zM35.553 58.945l-9.631-2.565c-.457-.121-.92-.242-1.377-.364-.524-.141-.302-.949.222-.814l9.631 2.565 1.377.363c.517.142.296.956-.222.815zM23.215 55.7l-9.631-2.565-1.377-.363c-.524-.142-.303-.95.221-.815l9.632 2.565 1.377.363c.524.142.302.956-.222.815zM62.688 43.704c-2.552-5.783-5.111-11.566-7.663-17.341-.37-.828-.733-1.663-1.102-2.491-.215-.492.504-.923.725-.424 2.553 5.782 5.112 11.565 7.664 17.34.37.829.732 1.664 1.102 2.492.214.484-.51.915-.726.424zM53.11 21.724C50.558 15.942 48 10.16 45.447 4.383c-.37-.828-.732-1.663-1.102-2.49-.215-.492.504-.923.726-.425 2.552 5.783 5.11 11.565 7.663 17.341.37.828.732 1.663 1.102 2.491.215.492-.51.922-.726.424zM90.38 45.474c3.714-5.11 7.435-10.219 11.15-15.328.537-.734 1.067-1.468 1.605-2.201.315-.431 1.041-.014.725.424-3.714 5.11-7.435 10.218-11.15 15.328-.536.734-1.067 1.468-1.604 2.201-.316.431-1.048.014-.726-.424zM104.572 26.174c3.714-5.11 7.435-10.219 11.15-15.328.537-.734 1.068-1.468 1.605-2.202.316-.43 1.041-.013.725.424-3.714 5.11-7.435 10.22-11.149 15.329-.537.734-1.068 1.467-1.605 2.201-.316.431-1.041.014-.726-.424zM102.685 70.396l18.82 2.02c.9.093 1.8.194 2.7.289.53.053.537.902 0 .841l-18.82-2.02c-.9-.094-1.8-.195-2.7-.289-.531-.054-.537-.895 0-.841zM126.461 73.068l18.82 2.02c.9.094 1.8.195 2.7.29.531.053.537.901 0 .84l-18.82-2.019c-.9-.094-1.8-.195-2.7-.29-.53-.053-.537-.895 0-.84zM87.31 93.54c2.553 5.782 5.112 11.565 7.664 17.341.37.828.732 1.663 1.102 2.491.215.491-.504.922-.726.424-2.552-5.783-5.11-11.566-7.663-17.341-.37-.829-.732-1.663-1.102-2.491-.221-.485.504-.916.726-.424zM96.889 115.519c2.552 5.783 5.111 11.565 7.663 17.341.37.828.732 1.663 1.102 2.491.215.492-.504.922-.726.424-2.552-5.782-5.111-11.565-7.663-17.341-.37-.828-.732-1.663-1.102-2.491-.221-.491.504-.922.726-.424zM59.619 91.77c-3.715 5.109-7.436 10.218-11.15 15.328-.537.733-1.068 1.467-1.605 2.201-.316.431-1.041.013-.725-.424 3.714-5.11 7.435-10.22 11.149-15.329.537-.733 1.068-1.467 1.605-2.2.316-.432 1.041-.014.726.423zM45.42 111.069c-3.714 5.11-7.435 10.219-11.15 15.329-.537.734-1.068 1.467-1.605 2.201-.316.431-1.04.014-.725-.424 3.714-5.109 7.435-10.219 11.15-15.328.537-.734 1.067-1.468 1.604-2.202.316-.43 1.042-.013.726.424zM47.307 66.848l-18.82-2.02c-.9-.094-1.8-.195-2.7-.29-.53-.053-.537-.901 0-.84l18.82 2.019c.9.094 1.8.195 2.7.29.53.053.538.895 0 .84zM23.53 64.175l-18.819-2.02c-.9-.093-1.8-.194-2.7-.289-.53-.053-.537-.902 0-.841l18.82 2.02c.9.094 1.8.195 2.7.289.53.054.537.895 0 .841z"/></g></svg>