<svg width="51" height="51" fill="none" xmlns="http://www.w3.org/2000/svg"><path d="M2.404 17.096a9.175 9.175 0 0 0 .085 2.544c.16.887.625 1.512 1.25 2.138.567.566 1.2 1.04 1.75 1.614.313.33.566.71.76 1.124.254.55.178 1.023.263 1.589.016.118.185.143.262.067.557-.524.236-1.343-.026-1.943-.338-.778-.946-1.378-1.572-1.927-.684-.609-1.394-1.167-1.884-1.953-.33-.524-.38-1.36-.457-1.96-.059-.44-.11-.88-.194-1.319-.026-.16-.228-.101-.237.026z" fill="#7E7B88"/><path d="M6.748 26.206c.448-.262.668-.701.727-1.208.101-.829.211-1.716.11-2.553-.118-1.014-.727-1.259-1.58-1.572-1.344-.481-.702-2.197-.33-3.152.389-.997 1.208-2.637 2.485-1.868.946.566 1.41 1.665 2.569 1.936 1.25.295 2.003-.685 2.628-1.598.406-.583.786-1.183 1.31-1.673.499-.465 1.25-.541 1.902-.609 1.234-.135 2.527-.101 3.676-.625 1.023-.465 1.268-1.741 1.53-2.721.228-.854.591-2.324-.11-3.06-.338-.355-.752-.405-1.217-.372-.854.06-1.741.093-2.578-.093-.752-.169-1.014-.617-.777-1.352.304-.938.566-1.868.718-2.848.068-.389-.532-.558-.591-.16a17.22 17.22 0 0 1-.643 2.603c-.177.557-.33 1.09-.017 1.63.592 1.032 2.485.88 3.457.837.668-.025 1.234-.152 1.411.634.144.65-.059 1.395-.22 2.02a15.14 15.14 0 0 1-.549 1.69c-.245.634-.997.829-1.589.955-1.267.27-2.594.144-3.837.516-1.225.363-1.867 1.64-2.552 2.611-.414.584-.828 1.09-1.597 1.1-.668.008-1.192-.533-1.614-.973-.634-.65-1.42-1.462-2.435-1.158-.887.27-1.436 1.454-1.774 2.223-.38.879-.786 2.054-.49 3.017.253.837 1.174.913 1.833 1.243.6.295.575 1.276.5 1.825-.094.744.177 1.97-.533 2.46-.17.126-.017.405.177.295zM35.99 22.995c.718-.026 1.428.034 1.995.507.397.33.65.828.93 1.26.506.794 1.182 1.656 2.154 1.859.82.169 1.59-.338 2.24-.761 1.006-.65 2.003-1.268 3.254-1.023.186.034.321-.076.346-.262.161-1.42.39-2.898.245-4.327-.042-.456-.169-1.073-.71-1.14-.447-.06-.904.329-1.233.574-.55.397-1.09.82-1.733 1.065-1.2.456-2.67-.152-3.854-.423a7.936 7.936 0 0 0-2.189-.228c-.388.017-.777.102-1.15.186-.523.127-.988.423-1.529.465-.921.084-2.138-.507-2.603-1.302-.591-1.005.778-2.104 1.462-2.611.499-.372.736-1.04.955-1.598.414-1.056.778-1.85 1.936-2.24.701-.236 1.462-.244 2.172-.439.642-.177 1.166-.54 1.605-1.048.795-.92 1.167-2.535 2.502-2.814.347-.076.203-.6-.144-.524-1.259.262-1.774 1.496-2.4 2.485-.473.743-1.048 1.191-1.901 1.428-.803.22-1.665.186-2.418.558-.692.338-1.14.794-1.47 1.487-.372.77-.524 1.809-1.242 2.35-1.074.803-2.206 2.062-1.403 3.431.642 1.09 2.687 1.758 3.828 1.183 1.775-.895 3.651-.262 5.451.119.998.21 1.902.346 2.857-.068.608-.262 1.14-.693 1.682-1.082.313-.228.803-.693.963-.135.135.49.102 1.04.085 1.538-.034 1.04-.152 2.08-.27 3.11.11-.084.227-.177.337-.262-1.09-.211-2.053.085-2.983.643-.77.456-1.657 1.352-2.637 1.191-1.15-.177-1.75-1.622-2.4-2.425-.71-.896-1.614-1.099-2.721-.913-.144.008-.119.186-.009.186z" fill="#7E7B88"/><path d="M36.962 22.809c-2.595-.093-5.527 1.073-7.327 2.941-.803.828-1.302 1.91-1.184 3.076.11 1.048.322 2.088.499 3.127.22 1.277.465 2.553.634 3.846.143 1.115.744 1.952 1.454 2.806.676.81 1.656 1.977 2.805 1.969 1.209-.009 3.068-1.386 3.457.532.186.93-.135 1.902-.017 2.84.11.87.66 1.454 1.488 1.716.338.101.456-.39.143-.516-1.445-.566-1.073-2.054-1.03-3.304.024-.947-.288-2.139-1.387-2.308-.575-.084-1.191.17-1.732.33-.812.245-1.361.245-2.029-.287-1.022-.812-2.18-2.046-2.577-3.305-.119-.38-.11-.854-.17-1.242-.1-.677-.228-1.344-.346-2.012-.22-1.242-.465-2.485-.66-3.735-.464-3.009 2.51-4.759 4.979-5.612.963-.338 1.986-.55 3.008-.634.119-.042.127-.228-.008-.228zM21.166 1.452c-.667.685-.896 2.104.076 2.645.406.22.921.22 1.361.296.321.05.701.135.845.473.127.313.16.617.347.905.27.405.752.372 1.149.22.414-.161 1.403-1.04 1.462-.22.102 1.445-.532 2.763-1.386 3.87-.456.592-.803 1.184-.947 1.919-.076.414-.22 1.192.127 1.538.6.6 1.657-.422 2.139-.744.633-.414 1.495-.481 2.197-.752a3.093 3.093 0 0 0 1.572-1.377c.245-.431.405-.905.66-1.336.303-.515 1.106-.676 1.613-.862 2.18-.803 1.936-2.983 2.62-4.817.093-.237-.313-.406-.414-.169a9.368 9.368 0 0 0-.566 1.893c-.135.676-.262 1.37-.727 1.919-.786.92-2.29.769-2.966 1.791-.27.406-.431.905-.66 1.336-.49.912-1.36 1.217-2.298 1.479a5.576 5.576 0 0 0-1.725.777c-.337.237-1.115.93-1.157.178-.102-1.775 1.487-2.713 2.028-4.243a7.87 7.87 0 0 0 .363-1.648c.051-.414.161-1.09-.152-1.445-.253-.288-.625-.28-.955-.135-.27.118-.524.27-.786.422-.558.313-.82.068-.98-.499-.347-1.208-1.589-.836-2.502-1.233-.676-.288-.405-1.454-.059-1.894.17-.194-.093-.473-.279-.287zM3.3 34.996c-.82-1.234 1.175-2.578 1.42-3.753.211-1.03.355-2.095.794-3.059.524-1.166 1.741-1.589 2.68-.54.49.549.853 1.225 1.225 1.85.397.668.862 1.293 1.225 1.978.668 1.242.947 2.882 2.18 3.727.812.558 1.851.794 2.764 1.14.845.322 1.978.829 1.733 1.92-.178.785-.854 1.47-1.352 2.061-.592.702-1.293 1.327-1.843 2.062-.845 1.141-2.037 1.767-3.44 1.953-.295.033-.304.498 0 .465 1.48-.178 2.832-.778 3.736-2.003 1.006-1.361 2.595-2.451 3.245-4.049.862-2.096-1.656-2.797-3.144-3.355a7.614 7.614 0 0 1-1.335-.608c-.617-.372-.938-1.074-1.234-1.708-.389-.845-.684-1.707-1.183-2.501-.389-.609-.778-1.226-1.158-1.843-.642-1.048-1.234-2.053-2.552-2.197-.947-.101-1.598.634-1.97 1.403-.506 1.048-.625 2.231-.87 3.364-.279 1.318-2.35 2.417-1.166 3.879.118.135.338-.042.245-.186zM15.588 3.32c-.211 1.03-1.75 3.938.144 4.293.085.017.16-.067.11-.144-.203-.363-.448-.659-.49-1.081-.043-.431.118-.87.245-1.268.177-.532.558-1.293.228-1.834-.042-.093-.211-.084-.237.034zM14.532 4.021c.034.009.068.025.101.034-.033-.05-.059-.11-.092-.16a22.58 22.58 0 0 1-.643 1.935c-.034.093.102.16.16.093.525-.575.871-1.226.736-2.029-.008-.076-.093-.11-.16-.093l-.102.026c-.101.025-.093.169 0 .194zM12.69 4.757c-1.141.988-.178 3.989 1.479 3.668.042-.009.05-.076.008-.102-1.284-.668-2.003-2.062-1.318-3.448.05-.093-.076-.194-.17-.118zM13.526 4.258c-.253.321-.566 1.115-.084 1.394.034.017.093 0 .101-.042.026-.194-.042-.38-.05-.566 0-.237.084-.482.168-.702.034-.076-.084-.152-.135-.084zM35.568 15.633c.845-2.095 3.194-1.386 4.85-2.307.677-.38 1.108-1.065 1.412-1.75.355-.777.66-1.647 1.597-1.833.33-.068.186-.558-.135-.499-.837.152-1.301.77-1.656 1.496-.457.947-.795 1.885-1.851 2.316-1.454.591-4.395.279-4.412 2.552 0 .118.16.118.195.025zM42.337 12.54c.254-.346.414-.76.668-1.107.22-.304.65-.845 1.082-.625.312.16.591-.313.278-.473-.6-.305-1.14.033-1.52.507-.322.388-.753 1.166-.6 1.698.008.034.067.034.092 0zM45.253 11.754c-.474-1.242-1.826.17-2.13.786-.575 1.167.448 2.51 1.741 2.206.972-.228 1.25-1.885.186-2.172-.448-.118-.955.144-1.014.608-.06.465.55.795.904.541.085-.059.093-.21-.034-.236-.33-.06-.76-.364-.152-.524.338-.093.541.203.575.498.118.888-.972 1.082-1.538.626-.609-.482-.448-1.158-.093-1.724.304-.49.862-.972 1.394-.507.06.059.195 0 .16-.102z" fill="#7E7B88"/><path d="M37.19 14.746c-.608.406-1.842 1.766-.963 2.468.034.025.093.017.093-.034-.017-.49-.051-.845.177-1.31.195-.389.465-.752.719-1.099.008-.008-.009-.033-.026-.025z" fill="#7E7B88"/><path d="M37.182 15.65c-.364.246-.829 1.082-.288 1.395.026.017.068 0 .068-.034-.025-.22-.068-.422-.025-.642.034-.237.143-.499.287-.693 0-.017-.017-.042-.042-.025zM37.528 16.191c-.084.026-.135.034-.16.136a.501.501 0 0 0 .05.38c.026.05.093.017.102-.025.008-.076 0-.144 0-.22 0-.06-.042-.203.034-.245-.009-.009-.017-.026-.026-.026zM42.219 13.597l-.026.025c-.042.009-.067.05-.067.093-.042.38.211.727.44.997.21.245.684.71 1.047.55.026-.017.034-.06.026-.085-.068-.11-.17-.152-.28-.211a2.162 2.162 0 0 1-.523-.389c-.245-.236-.465-.55-.516-.887 0-.034-.034-.06-.067-.068l.017-.017c-.017-.017-.043-.025-.051-.008zM41.602 13.58c-.237.186-.144.566-.034.811.102.237.397.812.735.676.034-.008.051-.042.034-.084-.05-.093-.118-.135-.194-.203a1.544 1.544 0 0 1-.313-.389c-.127-.211-.296-.55-.211-.803.008-.008-.009-.016-.017-.008zM40.867 13.749c-.009.279.067.583.287.777.034.034.118 0 .093-.05-.102-.245-.228-.482-.33-.736-.008-.025-.05-.025-.05.009zM45.312 15.262c.44.008.76-.321.98-.668.17-.262.533-.997.262-1.26-.025-.016-.059-.025-.084-.008-.118.076-.127.16-.152.305-.034.22-.102.43-.195.633-.177.398-.473.668-.836.896-.051.026-.034.102.025.102zM46.318 15.372c.422-.195.71-.837.575-1.277-.026-.084-.127-.084-.17-.025-.126.178-.16.364-.22.575-.058.203-.16.397-.295.566-.084.093 0 .211.11.16zM40.993 19.674c1.023 1.216 3.068.304 3.896-.694.034-.033-.008-.093-.05-.067-1.26.693-2.392 1.318-3.829.735-.017-.008-.025.009-.017.026z" fill="#7E7B88"/><path d="M41.763 19.099c.245.397.785.287 1.166.177.55-.17 1.065-.516 1.318-1.04.017-.042-.025-.076-.059-.05-.668.566-1.496 1.081-2.392.87-.025 0-.042.026-.033.043zM42.261 18.296c.406.152.887-.119 1.099-.465.034-.05-.026-.102-.076-.076-.322.169-.651.422-1.023.473-.042.008-.034.06 0 .068zM34.46 19.428c.896.119 1.995-.143 2.78-.566 1.023-.558 1.193-1.614 1.48-2.637.245-.862.769-1.293 1.665-.913.676.296 1.099 1.302.6 1.91-.262.313-1.133.66-1.285.085-.042-.16.119-.989.347-.685.118.16.389 0 .27-.16-.583-.77-1.03.49-.896.997.11.431.55.507.93.431.744-.135 1.234-.71 1.175-1.454-.119-1.495-2.215-2.281-2.933-.794-.448.93-.355 1.944-1.158 2.713-.82.786-1.986.634-2.966.997-.042.026-.05.068-.009.076zM34.486 16.901c-.127.82-1.429.887-1.462 1.86-.026.726.659 1.166 1.335 1.005.042-.008.034-.067 0-.084-.355-.152-.828-.262-.989-.651-.169-.397.195-.786.465-1.031.406-.364.794-.482.693-1.099-.008-.017-.042-.017-.042 0z" fill="#7E7B88"/><path d="M35.06 16.783a5.831 5.831 0 0 1-.354 1.065c-.153.338-.448.583-.617.904-.026.05.017.11.067.093.845-.279.99-1.301.938-2.062 0-.017-.025-.017-.034 0zM35.584 17.899c-.076.101-.16.202-.236.295a.602.602 0 0 1-.127.127c-.034.034-.05.076-.084.102-.043.033-.017.101.033.084.06-.017.102-.008.16-.042.06-.026.102-.085.136-.135.093-.127.118-.27.144-.423.008-.008-.009-.025-.026-.008zM46.132 17.763c1.656.355 1.893 2.46 1.825 3.88 0 .076.102.084.127.016.448-1.2-.076-4.411-1.952-3.938-.026 0-.026.034 0 .042zM46.647 16.75c.922.481 1.276 1.343 1.86 2.137.034.043.11.034.101-.025-.093-.938-.93-2.079-1.935-2.18-.043-.017-.06.05-.026.067zM37.106 19.513c.794-.11 1.53-.862 1.682-1.631.008-.068-.068-.102-.11-.043-.457.609-.896 1.251-1.614 1.572-.068.026-.017.11.042.102zM38.331 19.42c.17-.085.313-.195.448-.33.068-.067.135-.143.194-.22a.461.461 0 0 0 .06-.11c.017-.033 0-.067.008-.1.009-.068-.06-.11-.11-.068-.05.042-.093.067-.135.118-.06.076-.11.144-.169.22a16.9 16.9 0 0 1-.355.397c-.05.06 0 .118.06.093zM13.789 45.171c-.035-.008-.043.052-.009.052.034.008.043-.043.009-.052z" fill="#7E7B88"/><path opacity=".5" d="M46.85 19.47c-.194-.54-.921-.38-1.04.11l-.025.144c-.059 0-.127-.008-.194 0-.752.076-1.386.82-2.062 1.107-.186.085-.38.144-.575.195-1.335.025-2.67-.465-4.057-.719a.485.485 0 0 0-.414.102c-1.022-.355-2.172-.465-2.907.372a.226.226 0 0 0-.034.22c-.794.11-1.563.118-2.375-.313-.769-.406-1.2-1.031-1.276-1.893-.084-.972.533-1.209 1.031-1.81.634-.768 1.107-1.639 1.64-2.484.727-1.132 1.606-1.656 2.89-1.96 1.809-.432 2.899-1.454 3.812-3.01.32-.219.65-.447 1.005-.718.246-.194.22-.498.017-.71-1.132-1.14-2.383-2.112-3.727-2.991a27.41 27.41 0 0 0-1.724-1.04c-.338-.194-.769-.203-1.15-.313.229-.371-.236-.912-.658-.608-.068.05-.11.11-.17.169-.202.008-.371.22-.228.431-.202.608-.135 1.42-.22 1.96-.278 1.826-1.749 1.674-2.957 2.561a2.525 2.525 0 0 0-.558.567.454.454 0 0 0-.237.203c-.253.464-.507.972-.794 1.436a2.267 2.267 0 0 1-.676.414c-.727.305-1.395.761-2.08 1.184.39-.068.778-.051 1.1.101.058.025.042.127-.018.135-.566.119-1.225.27-1.707.592-.507.33-.777.777-1.183 1.2-.093.093-.279.025-.262-.11.042-.49.338-.938.752-1.284-.667.185-1.208.11-1.099-.812.017-.169.051-.33.093-.498.313-.457.643-.896.905-1.378.482-.87.608-1.86 1.132-2.721.186-.313-.143-.634-.448-.634.136-.448.203-.913.06-1.353-.262-.82-1.353-.346-1.817-.118-.28.135-.49.152-.677.093.203.38.212.828-.203 1.141-.033.025-.084 0-.1-.042-.085-.28-.043-.65-.178-.904a1.416 1.416 0 0 0-.668-.609c-.516-.245-1.09-.228-1.606-.456-.017-.009-.008-.034 0-.034.541-.288 1.48-.093 2.045.203-.186-.296-.371-.592-.633-.71-.33-.152-.423-.178-.786-.245-.87-.16-.626-1.124-.55-1.623.051-.313-.279-.609-.583-.465-.794.364-2.079.237-2.772.828-.718.609-.617 1.378-.904 2.223-.533 1.53-.296 2.857 1.512 3.136 1.353.21 2.468.32 2.206 2.062-.262 1.724-.811 2.95-2.687 3.287-1.023.186-2.012.229-2.992.626-.803.32-1.386 1.124-1.902 1.775-.676.862-1.791 2.062-2.915 1.149-.524-.423-.837-.972-1.437-1.31-1.2-.668-2.502.482-3.051 1.445-.532.93-1.47 2.705-.507 3.668.524.524 1.327.617 1.817 1.192.76.904.287 2.223-.152 3.279-.237-.389-.389-.862-.626-1.234-.38-.6-.904-1.023-1.479-1.428-.794-.558-1.555-1.04-1.757-2.07-.127-.669-.186-1.26-.524-1.86-.136-.237-.364-.423-.415-.178-.515 2.561-1.09 4.987-.98 7.125.16 3.025.397 6.026 1.521 8.848l.27.026c.254.025.313-.338.06-.397-.076-.017.465-.11.744-.364.803-.743.98-1.918 1.157-2.95.127-.768.06-1.495.347-2.247.55-1.446 1.97-1.462 3.034-.693 1.564 1.132 1.944 3.143 2.629 4.834.507 1.25 1.36 2.045 2.526 2.679 1.04.575 2.536.701 3.415 1.479.118.465.422.879.786 1.2a.46.46 0 0 0 .245.127c-.127.473-.389 1.014-.71 1.555a.607.607 0 0 0-.16.11c-.618.634-1.04 1.394-1.513 2.121-.043.068-.093.127-.136.186-.515.71-1.352 1.217-2.02 1.825-.118.051-.245.11-.371.161-.592.211-1.1.194-1.539.685a.36.36 0 0 0-.084.143c-.042 0-.093-.008-.135-.008-.17.017-.237.211-.152.346.633.964 1.74 1.378 2.78 1.775 1.733.668 8.697 4.978 18.103 2.172 3.203-.955 6.034-2.408 6.195-2.518.05-.034.101-.076.152-.119.178-.127.296-.422.186-.634-.245-.464-.54-.82-.887-1.225-.482-.566.017-1.986-.034-2.705-.06-.861-.533-1.935-1.564-1.842-.93.076-1.64.44-2.611.127-.752-.245-1.547-.794-2.257-1.15-.042-.025-.084-.059-.127-.084a7.681 7.681 0 0 0-.785-1.26c-.026-.05-.051-.11-.068-.168-.195-.854-.465-1.699-.71-2.544a.444.444 0 0 0 .034-.262c-.11-1.107-.17-2.214-.262-3.33-.076-.913.042-1.8-.178-2.704-.025-.119.702-2.773 2.392-3.871 3.085-2.012 4.15-1.048 5.096-1.226 1.53-.296 2.139 1.243 3.034 2.155.355.355.736.55 1.124.643.06.262.322.49.6.456 1.302-.16 2.485-.828 3.465-1.699.136-.093.254-.194.355-.312.322.042.71-.009.99-.17a.444.444 0 0 0 .32-.177c.516-.769.38-1.53.457-2.425.076-.863.33-1.522.025-2.358zM35.542 7.166c-.076.051-.16-.033-.144-.11.077-.312.27-.591.355-.904.009-.025.051-.017.043.009-.009.355.076.76-.254 1.005zm1.674 4.539c-.034.017-.077-.026-.077-.06-.008-.143.093-.261.11-.405.017-.093.06-.262-.017-.338-.008-.017 0-.042.026-.034.143.06.211.16.211.321 0 .186-.068.448-.253.516zm.701.025a.056.056 0 0 1-.076-.076c.287-.532.144-1.048.084-1.614-.008-.102.127-.102.161-.025.22.524.482 1.402-.169 1.715zm1.217-.794c-.025.05-.118.042-.127-.017-.05-.313-.084-.668-.16-.972-.076-.321-.237-.6-.322-.913-.008-.042.026-.084.068-.067.338.126.575.523.65.87a1.5 1.5 0 0 1-.109 1.099zm1.014-.76c-.017.033-.059.05-.101.041-.389-.135-.524-.912-.676-1.234-.28-.583-.592-1.183-1.15-1.555-.025-.017-.017-.05.017-.059.626-.034 1.099.693 1.36 1.166.195.355.787 1.226.55 1.64zm-5.02-5.908c.702-.051 1.293.32 1.86.693.574.38 1.174.718 1.74 1.098.803.541 2.3 1.454 2.341 2.544 0 .076-.093.144-.16.093-.448-.321-.71-.837-1.099-1.217-.448-.44-.938-.845-1.454-1.2-1.039-.718-2.045-1.53-3.228-2.003v-.008zm-.279 1.918c.05-.118.11-.228.17-.338.033-.068.084-.093.117-.144.009-.017.034-.017.043.009a.54.54 0 0 1 .017.262c-.026.126-.051.262-.102.388-.084.22-.143.474-.372.592-.042.025-.093-.008-.101-.06-.009-.253.127-.49.228-.709zM19.527 4.3c.025-.017.05.017.034.034-.313.558-.212 1.488.447 1.758.06.025.051.101-.017.11-1.014.11-1.233-1.437-.464-1.902zm.946 2.764c-.98.355-2.467.287-2.653-1.006-.076-.515.11-1.073.287-1.555.186-.507.287-1.03.456-1.538.009-.025.051-.034.06-.008.261.608-.094 1.504-.229 2.112-.093.423-.236 1.082.144 1.42.524.465 1.268.423 1.918.474.068 0 .076.076.017.1zM3.03 30.956c-.609-.372-.803-1.428-.922-2.07-.143-.837-.16-1.674-.152-2.519 0-.025.034-.025.034 0 .06.82.177 1.648.372 2.45.11.457.245.914.448 1.336.118.245.262.465.312.736.009.042-.042.093-.092.067zM2.91 28.04c0-.042.068-.059.076-.008.06.253.127.499.17.752.042.228.11.448.11.685 0 .05-.068.076-.102.042-.364-.363-.254-1.006-.254-1.47zm.313 4.328c-.06.025-.135-.034-.093-.093.482-.685.735-1.327.794-2.172.051-.702.026-1.344.229-2.012.016-.042.084-.05.093 0 .228 1.124.304 3.71-1.023 4.276zm1.115-6.525c-.025.076-.135.06-.135-.017-.034-.38.017-.769-.042-1.14a8.256 8.256 0 0 0-.211-.905c-.009-.025.025-.042.042-.017.456.625.642 1.327.347 2.079zm.702.77c-.05.041-.152 0-.127-.077.22-.609.465-1.175.27-1.834-.168-.575-.447-1.099-.785-1.589-.516-.76-1.353-1.2-1.826-1.986-.008-.008.009-.017.009-.008.414.49.972.777 1.445 1.191.448.398.836.913 1.115 1.437.474.904.786 2.113-.101 2.865zm2.907-8.917c-.279.296-.558.676-.566 1.098-.008.322.093.626.127.939 0 .033-.034.067-.068.05-.972-.388-.38-2.011.465-2.18.042 0 .076.05.042.093zm-.008-1.107c-.795-.229-1.378.92-1.59 1.504-.236.668-.312 1.344.12 1.944.025.034-.01.076-.051.084-1.09.017-.626-1.766-.38-2.298.295-.643 1.081-1.851 1.91-1.285.042.008.025.06-.01.05zm.211 2.755c-.127-.076-.135-.321-.118-.44a.491.491 0 0 1 .076-.21c.034-.06.076-.069.135-.102.025-.017.042.017.025.034-.093.1-.025.388.009.498.008.085.017.313-.127.22zm7.81 26.715c-.06.084-.12.177-.178.262-.085.118-.22.33-.38.355-.11.017-.187-.085-.136-.186.034-.076.127-.127.186-.186.068-.06.144-.118.211-.186.068-.06.127-.127.203-.178.051-.042.119-.076.16-.126.018-.017.043.008.035.025-.043.068-.06.152-.102.22zm.32-2.215c-.49.778-.92 2.02-2.062 1.987-.177-.009-.287-.28-.101-.364.456-.203.879-.304 1.242-.676.304-.313.583-.65.88-.972.025-.025.05 0 .041.025zm-3.389 1.412c-.279.06-.388-.372-.118-.423 1.648-.287 3.288-1.834 3.93-3.346.008-.017.034-.009.025.008-.532 1.682-2.045 3.414-3.837 3.76zm21.966 1.47c-.668-.076-.676-1.166-.693-1.656 0-.017.025-.025.033-.008.093.287.186.591.33.862.118.236.363.447.397.71.009.042-.017.1-.067.093zm.777-.22c-.456-.32-.76-.819-.786-1.385-.034-.685.228-1.361.178-2.037 0-.025.042-.034.042-.009.084.465.144.896.144 1.378.017.727.169 1.192.667 1.741.152.152-.05.448-.245.313zm-1.614-4.791c.422-1.04 1.97-1.598 2.425-.27.22.642.102 1.292 0 1.952-.05.355-.135.777.009 1.132.144.355.507.541.71.862.025.042 0 .119-.05.127-1.108.194-1.361-1.158-1.226-1.96.093-.575.338-1.26.152-1.843-.372-1.217-1.319-.448-1.944.034-.034.025-.093.008-.076-.034zm.262-28.972c-.313.533-.33 1.158-.516 1.733-.135.43-.465.887-.811 1.191-.744.66-1.572 1.015-2.57.896-.11-.017-.126-.152-.025-.186.93-.355 1.995-.625 2.637-1.453.524-.676.609-1.64 1.234-2.214.034-.017.068.008.05.033zM32.635 9.38c-.473.473-.845 1.064-.55 1.757.026.06-.016.144-.092.119-1.065-.304-.305-2.02.591-2.012.06 0 .093.093.05.136zm.152.879c.017 0 .034 0 .034.016.05.153.034.33.076.482.034.11-.026.296-.17.254-.312-.085-.219-.668.06-.752zm-1.732-1.564c.81-.676 1.977-.38 2.814-.989.025-.017.059.009.05.034-.287.77-1.132.828-1.817 1.048-1.124.363-1.233 1.2-1.428 2.24-.008.05-.084.076-.127.034-.642-.727-.152-1.818.508-2.367zm-2.536 4.716c.473-.499 1.538-.634 1.741.203.093.389-.355 1.158-.718.634a.215.215 0 0 1 0-.203c.093-.118.22-.05.245-.203.093-.66-1.082-.237-1.074.397.009.668.736 1.226 1.386 1.217a2.43 2.43 0 0 0 1.674-.727c.008-.008.034 0 .025.017-.55.88-1.606 1.446-2.611.905-.795-.406-1.412-1.463-.668-2.24zm.583 6.795c.017.296.186.507.245.786.017.059-.042.093-.093.076-.574-.27-.397-1.183-.16-1.623.017-.025.05-.008.05.017-.016.245-.059.499-.042.744zm.186-1.572c-.084.034-.203 0-.194-.11.008-.127.084-.245.16-.338.068-.084.144-.127.22-.177.068-.051.194-.009.16.093-.033.1-.05.194-.11.295-.058.076-.143.195-.236.237zm-1.986 7.69c.034.288-.025.558-.076.837-.042.212-.05.448-.17.634a.063.063 0 0 1-.109 0c-.144-.211-.084-.481-.034-.718.06-.27.136-.541.254-.795.034-.067.127-.025.135.043zm.042 10.937c.009.05-.067.059-.093.025-.465-.701-.532-1.775-.49-2.594 0-.034.06-.051.068-.009.11.474.143.964.253 1.437.085.38.212.752.262 1.14zm-1.276-23.275c.194-.17.507-.423.778-.322.059.026.093.085.059.144-.127.212-.406.27-.583.431-.178.16-.27.355-.431.524-.043.042-.102.017-.119-.034-.11-.253.102-.574.296-.743zm-.946-7.59c.448-.6 1.115-.33 1.166.397.067.871-.76 1.64-1.302 2.223-.05.06-.135 0-.126-.067.11-.482.422-.803.684-1.2.16-.229.397-.55.38-.846-.025-.498-.279-.634-.701-.388-.05.042-.16-.051-.101-.119zm-.567 2.147c.102-.152.178-.347.254-.516.093-.186.177-.38.253-.574.017-.043.085-.043.093.008 0 .211-.025.414-.118.609-.11.22-.245.346-.414.515-.042.034-.093-.008-.068-.042zM23.49 16.85c.753-.178 1.572-.136 2.24.296.938.6 1.876 2.028 1.26 3.16-.575 1.048-2.832 1.158-3.23-.11-.329-1.04.88-2.197 1.708-1.183.068.093.085.178.034.288-.017.033-.034.067-.042.101-.034.076-.127.118-.203.118h-.17c-.185.009-.219-.211-.118-.32a.725.725 0 0 0-.135-.085c-.093-.026-.186-.034-.27.017a.746.746 0 0 0-.347.439c-.186.727.541 1.014 1.15 1.031 1.157.034 1.605-.93 1.107-1.927-.533-1.056-1.674-1.707-2.857-1.36-1.31.38-2.755 1.817-4.099.743-.059-.05 0-.135.068-.118 1.589.397 2.485-.744 3.904-1.09zm1.277 6.744c-.051-.127.126-.203.21-.127.153.144.305.347.28.575-.026.228-.11.346-.28.498-.05.043-.151 0-.126-.067.11-.313.042-.6-.084-.88zm.997 7.623c.135-.296.253-.6.33-.921.016-.042.092-.05.1 0 .11.634-.168 1.74-.963 1.792-.067 0-.084-.076-.05-.119.203-.245.44-.456.583-.752zm.38-6.998c-.017.068-.11.051-.118-.017-.009-.05-.05-.11-.068-.16a1.713 1.713 0 0 0-.059-.194c-.034-.068.05-.144.11-.085.127.135.186.279.135.456zm.085 2.849c.042-.051.118-.017.101.042-.05.363-.093.726-.169 1.081-.008.06-.093.051-.118 0a1.204 1.204 0 0 1 .186-1.123zm-.11 8.35c.008-.009.017-.009.017 0 .042.566.296 1.03.405 1.571.009.034-.033.068-.059.034-.338-.422-.532-1.073-.363-1.605zM23.676 22.74c-.016-.059.06-.093.093-.042.338.558.567 1.538 0 2.037-.067.059-.177.017-.177-.076-.017-.347.034-.685.05-1.031.026-.262.093-.626.034-.888zM22.13 45.087c.017.05-.05.101-.093.076-.702-.465-.676-1.496-.499-2.231a7.565 7.565 0 0 1 1.36-2.798c.035-.042.102-.008.077.043-.355.803-.778 1.597-.989 2.459-.228.921-.084 1.58.144 2.45zm-1.166-1.36c.008.058-.068.075-.11.042-1.006-.812.22-2.367.845-2.992.034-.034.084.008.059.042-.296.431-.583.963-.744 1.462-.16.507-.118.938-.05 1.445zM19.07 20.84c-.034-.076.051-.152.119-.093.955.87 0 2.383-.837 2.94-.068.043-.127-.05-.076-.1.583-.719 1.2-1.818.794-2.747zm.338-4.26c.347-.346.913-.6 1.386-.363.034.017.026.076-.008.084-.237.051-.473.043-.702.102-.22.05-.439.118-.642.22-.034.008-.05-.017-.034-.043zm.87 3.761c0-.034.043-.042.06-.017.794 1.285.66 3.702-.93 4.386-.059.026-.169-.016-.135-.1.296-.736.88-1.26 1.04-2.072.16-.743.059-1.453-.034-2.197zm.778 16.97c-.118-.388-.312-.769-.515-1.132-.034-.06.034-.144.101-.101.414.312.778.718.862 1.242.068.423.068.98-.372 1.2-.067.034-.16-.008-.16-.093.017-.38.211-.71.084-1.115zm.38-13.623c-.05.076-.177.034-.143-.06.085-.303.127-.684.152-1.005.017-.203.05-.499-.034-.685-.025-.05.026-.118.085-.084.245.16.287.49.279.769-.009.423-.102.735-.338 1.065zm-.058-2.772c-.051-.102-.102-.16-.119-.27-.017-.11-.017-.229-.042-.339-.008-.025.034-.042.042-.017.051.119.127.22.178.338.042.085.034.153.042.246.017.059-.068.11-.101.042zm-.06 3.93c-.042.118-.126.22-.21.32a.868.868 0 0 1-.33.22c-.068.034-.17-.016-.136-.1.026-.068.026-.145.06-.204a.906.906 0 0 1 .126-.186c.068-.093.136-.177.228-.245.127-.101.313.051.262.195zm-.895 8.265c-.313-.127-.643-.16-.964-.194-.034 0-.067-.05-.034-.085a.765.765 0 0 1 .55-.186c.245.026.38.136.54.313.051.06 0 .186-.092.152zM18.91 31.7c.405-.186.718-.186 1.115.017.051.025.009.093-.034.084-.895-.118-1.369.55-2.07.947-.025.017-.05-.009-.034-.034.22-.406.609-.82 1.023-1.014zm-.803 15.052c.524 0 1.09.135 1.53.422.033.026.025.093-.026.085-.515-.068-1.03-.262-1.513-.431-.05 0-.042-.076.009-.076zm.887-7.268c-.093.008-.152-.11-.101-.186.363-.541.82-.972.744-1.682-.068-.66-.406-1.209-.896-1.631-.144-.127.034-.321.186-.245.769.363 1.293 1.174 1.259 2.036-.025.744-.355 1.598-1.192 1.708zm.87 2.417a.704.704 0 0 1 .22-.229c.102-.067.186-.067.305-.1.042-.01.067.05.034.067-.17.076-.262.304-.322.465-.033.084-.042.177-.067.27-.034.084-.076.186-.085.279-.008.068-.127.068-.143 0-.06-.262-.102-.499.059-.752zm.457 5.476c.186 0 .372.026.55.085.042.017.033.076-.009.084-.186 0-.372-.025-.55-.084-.05-.009-.042-.085.01-.085zm2.105-25.439c-.017-.143.186-.27.262-.11.388.854.371 1.81-.17 2.587-.05.067-.169.025-.143-.06.236-.802.177-1.605.05-2.417zm-.017 15.272c.042.22 0 .524-.203.66-.076.05-.152-.017-.16-.094-.018-.177.084-.355.041-.532-.042-.152-.118-.33-.245-.431-.05-.042 0-.135.068-.11.27.085.448.211.499.507zm.465-6.803c-.043-.026-.034-.085.008-.093.144-.042.313-.06.456-.119.068-.033.152.051.093.11-.152.144-.363.203-.558.102zm-.431-24.771c.245.16.447.295.549.591.084.228.152.533-.05.719-.035.033-.102.033-.128-.017-.093-.203-.034-.414-.101-.617-.068-.212-.16-.457-.296-.626-.017-.033 0-.067.025-.05zm-1.81 7.336c.694-1.133 1.547-2.215 1.201-3.635-.025-.084.085-.126.135-.059.735.989-.11 3.423-1.242 3.803-.068.026-.127-.05-.093-.11zm-2.205 3.27c.33-.54.947-.972 1.563-1.124.474-.118 1.2-.186 1.437.355.034.068-.017.135-.093.118-.566-.143-.955-.278-1.538-.05a6.119 6.119 0 0 0-1.31.752c-.042.025-.084-.017-.059-.05zm-.254 5.418c.102.126.17.236.119.414-.068.236-.212.397-.406.54-.059.043-.143-.042-.101-.1.101-.145.203-.28.279-.432.05-.093.143-.287.093-.397-.017-.025.008-.042.016-.025zm-4.563.794c.059.025.084.135 0 .144-.144.025-.338.11-.457.186a2.802 2.802 0 0 0-.38.33c-.101.1-.262-.026-.203-.153.11-.203.254-.38.457-.49a.848.848 0 0 1 .312-.102c.119.009.17.043.27.085zm.27.642a.605.605 0 0 1 .178.043c.034.016.059.05.101.067.034.017.034.093-.017.102-.093.017-.16.042-.262.042-.101 0-.203.008-.313.008-.101 0-.135-.135-.05-.186a.56.56 0 0 1 .363-.076zm-.591-1.403c-.254.085-.533.22-.727.406-.195.186-.347.448-.558.617-.068.06-.211.034-.203-.085.06-.591.904-1.369 1.496-1.03.042.016.025.075-.008.092zm-1.606-1.563c.042.034.034.093-.017.11-.262.093-.524.177-.719.389-.168.177-.261.405-.397.616-.034.06-.143.06-.16-.025-.136-.617.659-1.504 1.293-1.09zm-1.014 5.383c-.575.533-.288 1.386-.093 2.046.025.084-.085.152-.152.084-.364-.389-.516-.82-.5-1.36.018-.406.288-.778.694-.846.05-.008.084.043.05.076zm.11-3.321c.118-.938 1.301-2.299 2.349-1.834.06.025.034.101-.017.118-.448.186-.93.39-1.284.727-.33.313-.6.668-.871 1.031-.05.068-.194.06-.178-.042zm.904 5.443c-.11-.465-.364-1.37.008-1.775.051-.06.16-.025.178.042.093.372.067.786.152 1.175.101.448.228.972.515 1.344.398.524 1.184 1.14 1.809.566.389-.363.693-1.014.482-1.547-.11-.287-.474-.54-.795-.43-.591.202-.177.667.144.853.085.05.068.186-.034.211-1.082.321-1.099-1.74.211-1.496 1.006.186 1.167 1.285.803 2.096-.44.998-1.462 1.395-2.383.744-.592-.423-.913-1.082-1.09-1.783zm.955 3.177c-.026-.033.017-.067.05-.05 1.412.811 2.629-.398 3.474-1.403.042-.05.127-.009.127.05-.017 1.42-2.772 2.722-3.651 1.403zm4.107.685c-.262.304-.625.575-1.048.507-.076-.017-.093-.135-.025-.169.363-.16.684-.338.913-.684.186-.28.279-.685.532-.913.042-.043.118-.026.135.034.11.414-.245.93-.507 1.225zm-.507-14.342c-.642-.017-1.42.101-1.75.744-.22.44-.185 1.064.28 1.343.262.153.786.245 1.014-.042.11-.135.118-.777-.237-.591-.042.025-.076.016-.127.016a.074.074 0 0 1-.067-.05c-.009-.017-.009-.034-.009-.05-.008-.069.009-.12.068-.162.558-.422.913.6.608 1.006-.43.567-1.495.457-1.884-.101-.423-.609-.33-1.505.228-2.003.355-.321.837-.558 1.318-.575.28-.008.541.034.812.06.372.033.6-.136.912-.297.009-.008.026 0 .026.017-.178.541-.668.702-1.192.685zm-.076-1.716c.287-.312.811-.448 1.014.026.026.05-.025.135-.093.093-.262-.186-.566-.102-.845.017-.076.033-.118-.085-.076-.136zm.558-.836c-.65.033-1.234.152-1.741.583-.026.025-.076-.009-.05-.043.287-.54.853-.726 1.427-.82.457-.075 1.319-.16 1.724.136.06.042.051.135-.016.16-.398.144-.93-.033-1.344-.016zm.803 16.894l-.017-.025a.13.13 0 0 1 0-.136c.093-.126.177-.253.262-.38.093-.127.22-.236.313-.372.05-.067.16-.025.143.06-.025.1-.025.194-.059.287a1.1 1.1 0 0 1-.118.245c-.068.101-.38.507-.524.321zm4.783 16.844c-1.521.186-3.355-.043-4.699-.845-.034-.026-.008-.077.026-.068.726.16 1.436.397 2.172.524.828.135 1.665.194 2.493.287.076.009.076.093.008.102zm.778-4.006c0 .05-.05.067-.093.05-.338-.16-.397-.583-.38-.92.025-.406.143-.668.371-.998.034-.042.11-.017.093.042a3.67 3.67 0 0 0-.135.955c.017.296.127.575.144.87zm-.11-7.378c-.025-.009-.026-.051.008-.051.093.008.178-.017.254 0 .084.017.169.06.237.11.177.144.1.397.033.558-.025.076-.135.059-.135-.017-.025-.28-.118-.524-.397-.6zm.6 4.327c-.025.034-.068.076-.118.067h-.017c-.068 0-.11-.05-.119-.118-.008-.127.144-.228.195-.338.017-.042.084-.042.084.017.009.076.034.135.034.211 0 .06-.025.11-.06.16zm.177-10.463c-.042-.017-.059-.093 0-.102a.577.577 0 0 0 .39-.278c.024-.051.092-.026.092.025 0 .262-.245.44-.482.355zm.558.532c.076-.008.16-.11.22-.16a.828.828 0 0 0 .237-.305c.118-.22.186-.464.304-.684.034-.05.127-.05.135.017.06.321-.025.71-.211.98-.085.127-.186.254-.338.313-.152.067-.237-.017-.372-.06-.06-.008-.042-.092.025-.1zm.355 9.356c-.262-.837-.405-2.637.66-3.017.076-.026.11.06.092.118-.245.55-.422 1.116-.397 1.724.026.55.11 1.403.676 1.7.533.27 1.733.151 1.699-.677-.017-.347-.22-.778-.642-.668-.17.042-.245.06-.203.237a.116.116 0 0 1-.102.144c-.355.042-.515-.288-.355-.584.161-.304.66-.388.964-.33 1.073.22 1.132 1.683.304 2.249-1.006.684-2.332.279-2.696-.896zm3.508-10.133c.05.042 0 .143-.068.118-.431-.16-.355-.786-.254-1.132.026-.076.136-.06.136.016.008.305-.06.77.186.998zm-.203 5.147c-.093-.744-.203-1.496-.11-2.24 0-.034.059-.05.059-.008.169.811.228 1.648.346 2.468.093.659.237 1.318.153 1.986-.009.05-.068.059-.085.016-.236-.726-.279-1.487-.363-2.222zm.025 8.206c-.025.127-.211.076-.194-.05.017-.136.025-.246.11-.364.025-.034.084-.034.1.017.035.127 0 .253-.016.397zm-1.74 1.37c.05-.271.177-.525.286-.77.127-.27.22-.566.39-.811.033-.05.134-.043.134.034-.017.287-.135.54-.253.794-.135.279-.279.566-.499.786-.025.034-.067 0-.059-.034zm.49.6c.253-.406.616-.778.785-1.235.017-.05.102-.042.102.017 0 .321-.034.558-.22.829a1.75 1.75 0 0 1-.532.523c-.077.051-.186-.05-.136-.135zm.05.92c-.042.009-.06-.067-.025-.084 1.284-.575 1.698-2.13 2.163-3.33.017-.05.093-.042.102.008.025 1.15-.939 3.288-2.24 3.407zm2.417-.684c-.22.321-.524.668-.913.777-.101.026-.152-.093-.093-.16.254-.304.533-.566.727-.913.178-.304.423-.625.524-.963.009-.043.093-.043.085.017-.034.456-.06.845-.33 1.242zm.448-6.034c-.296-.313-.803-.71-.718-1.2.008-.034.05-.034.067-.009.254.38.592.718.744 1.158.017.05-.06.093-.093.05zm3.507 7.521c-.777.465-1.724.955-2.653.854-.017 0-.017-.025 0-.025.895-.237 1.715-.736 2.62-.913.042-.009.076.059.033.084zm-1.867-.177c.304-.127.642-.313.98-.321.05 0 .06.067.025.093-.27.194-.667.32-.997.312-.05-.008-.06-.067-.008-.084zm1.36-1.986c0 .076-.067.127-.143.11-.719-.195-.119-1.944-.093-2.426.025-.608-.093-1.056-.803-.794-.39.135-.905.498-.583.955.21.295.354.22.557-.009.076-.084.186-.008.195.085.042.295-.178.625-.507.617-.372-.009-.643-.28-.786-.6-.431-.93.676-1.682 1.504-1.682 1.69.008.727 2.814.66 3.744zm-3.237-8.426c.203.82.584 1.462 1.108 2.113.422.532.895.862 1.436 1.267.06.043.06.136-.017.16-.625.22-1.242-.574-1.572-.996-.448-.584-.904-1.167-1.115-1.885-.28-.955-.296-1.935-.482-2.907-.194-1.015-.448-2.02-.55-3.051 0-.017.026-.017.026 0 .16.93.473 1.825.701 2.746.195.837.263 1.708.465 2.553zm.406-12.407c-.54.363-1.09.98-1.411 1.538-.27.473-.355.997-.6 1.47-.026.051-.093.026-.102-.016-.27-.66.22-1.428.6-1.952.389-.541.88-.854 1.488-1.1.034 0 .05.043.025.06zm.169-2.18c-.16.033-.313.033-.448-.068a.86.86 0 0 1-.279-.347c-.042-.084.06-.16.127-.101.101.085.211.152.33.211.059.026.11.043.169.068.042.025.076.059.126.084.051.034.051.136-.025.152zm1.386-.803c-.701.11-1.2-.71-1.268-1.319-.084-.735.093-1.513.558-2.096.017-.017.05 0 .042.026-.177.566-.363 1.183-.295 1.783.042.346.152.744.422.989.186.169.414.253.583.44.051.058.043.168-.042.177zm5.502-.448c-.034 0-.042-.051-.009-.06 1.032-.295 2.24.127 3.229.415.55.16 1.115.346 1.682.43.617.094 1.2-.008 1.817.018.084 0 .11.11.042.16-.837.558-2.121.211-3-.067-.634-.203-1.251-.44-1.893-.617-.617-.17-1.226-.212-1.868-.28zm6.22 1.682c-.65.371-1.487.278-2.113-.085-.017-.008-.008-.042.017-.034.71.22 1.336.102 2.046.009.067-.009.118.076.05.11zm1.048 1.352c-.735.498-1.732 1.411-2.704 1.301-1.268-.135-1.606-1.166-2.324-2.045-.034-.042.008-.11.059-.076.887.608 1.352 2.172 2.713 1.699.786-.27 1.36-.947 2.205-1.031.093 0 .11.118.051.152zm.845-.093c-.034.034-.101.017-.101-.042.025-.305.211-.558.287-.854.085-.321.127-.634.093-.963 0-.034.043-.034.05-.009.212.566.161 1.445-.329 1.868zm.803-.296c-.042.034-.11 0-.093-.05.237-.77.558-1.615.33-2.426-.05-.17-.22-.862-.541-.66a2.36 2.36 0 0 0-.406.364c-.211.237-.405.482-.693.634-.059.034-.143-.034-.101-.102.296-.405 1.276-1.867 1.8-.904.473.862.507 2.46-.296 3.144z" fill="#7E7B88"/><path d="M2.633 34.1c-.078 0 .025.068 0 0zM30.26 28.987c.017-.65.06-1.175.355-1.775.27-.55.786-1.242 1.454-1.25.33-.01.591.312.701.59a.66.66 0 0 1-.008.508c-.034.076-.499.465-.592.245-.068-.16.102-.262-.059-.262.05 0 .101-.042.127-.084.042-.085.025-.212-.068-.254-.465-.22-.575.811-.186.989.87.405 1.437-.668 1.158-1.37-.406-1.039-1.504-.887-2.189-.261-.65.591-1.445 2.13-.811 2.958.025.059.118.042.118-.034zM32.652 25.116c.338.245.6.431.735.845.102.321.06.676.11 1.006.008.06.093.06.127.017.465-.685.008-2.037-.947-1.952-.05 0-.067.059-.025.084zM33.708 25.032c.144.278.28.549.38.853.017.05.085.068.119.017.237-.363-.008-.811-.347-1.014-.11-.06-.202.05-.152.143zM35.01 24.55a2.302 2.302 0 0 1 1.487-.093c.524.135.837.524 1.251.828.025.017.068 0 .068-.025.194-1.234-2.232-1.674-2.89-.862-.051.067-.01.186.084.152z" fill="#7E7B88"/><path d="M35.652 25.108c.17 0 .347.017.516.025.202.009.363.135.498.27.043.043.102.009.11-.042.017-.27-.186-.405-.43-.465-.263-.059-.491.009-.72.119-.042.025-.016.093.026.093zM44.61 26.333c.465-.042.947-.177 1.42-.228.398-.042.854 0 1.226-.16.794-.355 1.2-1.725.76-2.443-.033-.05-.101-.025-.11.025-.075.583-.202 1.209-.506 1.724-.246.406-.786.39-1.192.431-.44.043-1.428.144-1.606.651h.009zM48.684 24.22c.102.685-.017 1.217-.228 1.868-.017.06.05.11.11.085.617-.364.82-1.522.245-2.02-.068-.051-.135 0-.127.067zM49.208 21.474c-.287.363-.608 1.039-.33 1.487.034.06.144.06.161-.017.034-.237.034-.473.102-.701.067-.237.16-.474.152-.727-.009-.042-.051-.068-.085-.042zM48.845 26.984c-.304 1.03-.338 2.062.067 3.068.085.211.415.127.347-.093-.304-.98-.38-1.944-.372-2.967.008-.025-.034-.034-.042-.008zM48.059 29.79c.093.405.177.82.253 1.225.085.465-.033.972.127 1.412.017.05.085.059.118.017.55-.77-.093-1.961-.456-2.671-.008-.034-.042-.009-.042.017zM44.712 27.381c.87.127 1.885-.718 2.654-.025.49.447-.093 1.31.44 1.74.033.026.084.034.11-.016.261-.566.177-1.564-.23-2.054-.692-.854-2.247-.186-2.99.22-.043.034-.043.127.016.135zM39.751 27.22c.321.136.575.423.904.524.38.127.752.127 1.15.068.388-.06.76-.304 1.09-.498.338-.195.744-.355 1.014-.643.034-.034.025-.101-.025-.118-.558-.119-1.082.313-1.547.575-.896.515-1.648.143-2.586.093z" fill="#7E7B88"/><path d="M43.985 28.514c.76.042 1.513-.634 2.273-.271.406.194.339.71.212 1.056-.118.33-.423.761-.812.787-.245.016-.523-.246-.549-.474-.017-.211.456-.482.431-.194-.017.22.321.211.338 0 .085-.828-1.31-.457-1.124.304.195.794 1.09.921 1.623.406.465-.448.752-1.285.405-1.868-.177-.313-.532-.423-.87-.448-.321-.025-.65.05-.947.16-.346.127-.633.39-.98.541zM47.594 30.508c.101.423.313.82.448 1.242.135.415.067.871.22 1.268.017.034.067.068.101.026.532-.668-.27-2.012-.66-2.578-.042-.05-.117-.017-.11.042zM44.813 31.083c.195 1.107 2.003-.042 2.08-.752 0-.034-.043-.06-.068-.043-.313.178-.55.448-.837.66-.397.287-.71.346-1.14.11-.026-.017-.043 0-.035.025zM46.039 32.072c.236-.144.346-.28.65-.262.364.017.558.372.702.65.254.49.363 1.158.33 1.708-.009.042.05.059.076.033.591-.566.143-1.791-.313-2.34-.27-.33-.625-.482-1.048-.398-.245.042-.592.338-.448.6.008.017.034.017.05.009z" fill="#7E7B88"/><path d="M46.326 32.663c.364.338.634.854.795 1.319.143.422.11.862.203 1.293.008.042.067.042.084.008.617-.828-.237-2.307-1.048-2.654-.034-.017-.06.017-.034.034zM38.137 39.458c.143.845.295 1.614.279 2.485-.009.482.033.955.135 1.428.11.516.837 1.792 1.504 1.242.034-.033.034-.093 0-.118-.279-.27-.642-.245-.887-.608-.27-.406-.347-.955-.406-1.429-.118-1.03-.008-2.079-.592-3.008-.008-.026-.033-.017-.033.008z" fill="#7E7B88"/><path d="M39.38 41.3c-.305.617-.28 1.277-.01 1.902.22.507.812 1.209 1.42 1.099.136-.026.136-.212.034-.28-.185-.126-.397-.185-.574-.32-.237-.178-.406-.44-.55-.693-.287-.499-.49-1.133-.295-1.69.008-.026-.017-.034-.026-.017zM35.694 38.588c-.6.126-1.107.312-1.74.202-.567-.101-1.1-.473-1.522-.845-1.048-.93-1.276-2.062-1.42-3.397 0-.05-.067-.05-.076 0-.186 1.445.17 2.916 1.395 3.837.87.659 2.51 1.191 3.38.245.017-.026.009-.05-.017-.042z" fill="#7E7B88"/><path d="M31.73 33.821c-.388.921.034 2.688.998 3.152.718.347 1.377-.388 1.344-1.081-.026-.516-.87-1.251-1.268-.66-.296.44.11 1.302.66.964.092-.05.025-.178-.069-.16-.355.058-.524-.49-.32-.72.185-.219.608.23.684.364.127.228.06.499-.068.702-.372.608-1.014.211-1.301-.237-.44-.676-.609-1.521-.634-2.316-.009-.017-.025-.017-.025-.008zM40.3 41.765c-.338.77.17 1.623.93 1.877.178.059.262-.229.076-.288-.684-.22-.98-.896-.938-1.572.008-.034-.05-.059-.068-.017zM41.255 42.205a1.17 1.17 0 0 0 .144.65c.085.17.304.423.507.372.068-.017.085-.084.06-.143-.035-.077-.085-.093-.153-.136a1.062 1.062 0 0 1-.203-.186 1.407 1.407 0 0 1-.287-.557c-.017-.043-.068-.034-.068 0zM44.771 33.212c.414.49.702.913.828 1.547.119.617-.152 1.133-.169 1.733 0 .067.068.1.127.067.541-.321.524-1.208.431-1.74-.118-.669-.422-1.514-1.132-1.75-.085-.026-.127.084-.085.143z" fill="#7E7B88"/><path d="M44.357 34.142c.237.27.372.558.406.921.025.322-.076.626-.076.938 0 .051.067.077.101.043.524-.516.321-1.733-.372-2.003-.059-.026-.093.059-.059.101zM43.782 35.021c.077.025.077.211.085.27v.195c0 .067.025.135.034.203 0 .076.11.093.127.017.033-.102.076-.17.084-.27a1.198 1.198 0 0 0-.025-.305c-.026-.135-.11-.279-.254-.296-.118-.008-.16.144-.05.186zM38.433 33.855c.169.828.946.507 1.259-.025.414-.71.127-1.556-.718-1.674-1.344-.186-2.173.964-1.944 2.214.143.778.92 1.26 1.487 1.716.507.397.837.837.896 1.488.068.71-.296 1.073-.701 1.58-.077.093-.009.228.11.194.912-.194 1.03-1.445.904-2.197-.22-1.293-1.868-1.58-2.308-2.73-.228-.608 0-1.352.524-1.716.372-.262 1.31-.346 1.522.178.203.507-.338 1.563-.846.896-.067-.102-.21-.051-.185.076zM40.309 36.44c.296.517.38 1.024.279 1.607-.076.44-.364.777-.499 1.191-.017.068.06.127.118.093.98-.591.87-2.206.161-2.94-.025-.035-.085.008-.06.05zM41.568 37.734c0 .558-.355.972-.515 1.479-.017.042.042.084.076.06.498-.288.718-1.024.524-1.556-.009-.042-.085-.042-.085.017z" fill="#7E7B88"/><path d="M36.413 34.886c.127.642.625 1.14 1.022 1.623.28.346.567.701.744 1.115.22.533-.186.66-.38 1.057a.068.068 0 0 0 .05.093c.829.101.727-1.04.5-1.496-.457-.93-1.362-1.547-1.928-2.4l-.008.008z" fill="#7E7B88"/><path d="M36.497 36.669c.195.186.364.372.465.617.101.245-.025.473-.068.71-.008.042.026.093.077.067.33-.126.38-.473.287-.785-.102-.33-.406-.575-.727-.651-.034 0-.05.025-.034.042zM35.965 37.142c.059.06.11.144.127.22.025.102-.009.186.042.288.017.025.059.033.076.008.084-.093.076-.22.034-.321-.051-.118-.144-.17-.254-.22-.017-.017-.042.009-.025.026zM40.782 28.835c.812.667 2.172.194 2.747-.583.034-.043-.034-.102-.076-.076-.786.481-1.707.955-2.646.625-.025 0-.042.025-.025.034zM42.143 30.026c.372-.194 1.03-.388 1.394-.067.06.05.152-.017.11-.085-.084-.135-.101-.22-.253-.287a1.05 1.05 0 0 0-.431-.068c-.347 0-.668.152-.922.38-.084.06.017.17.102.127zM38.255 31.454c-.65-.059-1.842.195-1.876 1.032 0 .05.068.076.101.042.262-.237.44-.499.76-.668.322-.169.685-.253 1.024-.363.017-.009.017-.043-.009-.043zM37.613 30.863a1.383 1.383 0 0 0-.668.068.786.786 0 0 0-.481.43c-.034.051.042.11.084.068.135-.118.346-.22.516-.287.177-.068.363-.118.549-.177.05-.017.06-.102 0-.102zM36.962 30.314c-.245-.076-.482.101-.634.279-.034.042.009.093.05.067.195-.084.373-.253.584-.287.034 0 .025-.05 0-.06zM29.897 30.128a4.95 4.95 0 0 1 .574 1.572c.102.481.043 1.115.338 1.52.034.052.119.052.136-.016.126-.49-.068-1.107-.161-1.589-.11-.6-.321-1.15-.744-1.589-.076-.076-.194.017-.143.102zM30.7 29.866c.186.287.346.583.448.913.101.32.118.659.262.963.025.05.118.042.126-.017.127-.634-.203-1.58-.76-1.935-.051-.034-.11.025-.076.076zM31.63 29.993c.092.194.177.405.261.608.068.17.102.347.195.499.025.042.084.034.101-.017.127-.406-.237-.87-.507-1.124-.034-.026-.068 0-.05.034zM42.802 41.098c.997-.778 1.978-2.139 2.282-3.372a.05.05 0 0 0-.093-.034c-.33.54-.642 1.099-.989 1.631-.397.6-.879 1.124-1.301 1.707-.043.05.05.102.101.068zM43.056 39.467c.397-.321.6-.828.743-1.302.017-.034-.05-.067-.067-.025-.212.448-.609.811-.778 1.268-.017.067.06.093.102.059zM36.016 26.054c.11-.253.262-.034.447-.076.026-.008.051-.042.043-.076-.051-.135-.254-.194-.39-.178-.168.017-.202.161-.202.305 0 .05.076.084.102.025zM42.565 30.914c.102.05.229.059.338.076.077.008.144.017.22.017a.24.24 0 0 0 .11-.034.102.102 0 0 0 .042-.042c-.008.017-.017.008 0 0 .051-.026.043-.093 0-.119-.042-.025.043.076 0 0-.025-.042-.059-.05-.101-.067-.06-.026-.135-.017-.203-.026-.068-.008-.135-.008-.194-.008h-.127c-.127-.05-.211.144-.085.203zM36.556 29.012c.254-.304.398-.676.617-.997.144-.211.313-.397.516-.541.177-.127.389-.177.55-.321.033-.026.008-.076-.026-.085-.44-.169-.904.33-1.141.634-.28.355-.516.811-.6 1.26-.009.05.05.092.084.05zM37.41 28.928c.025-.262.144-.49.304-.693.144-.178.364-.262.516-.431.034-.042.008-.11-.042-.11-.254 0-.49.228-.634.414-.178.237-.288.515-.245.811.008.076.093.076.101.009zM36.353 28.133c.077-.236.178-.448.33-.642.144-.178.321-.321.473-.499.043-.05-.008-.127-.076-.101-.44.203-.845.727-.87 1.217 0 .093.118.101.143.025zM35.956 27.744c.05-.059.102-.126.144-.194.06-.085.093-.178.16-.254.034-.033-.008-.093-.05-.067-.17.101-.296.228-.398.397-.05.101.068.203.144.118zM34.672 31.125c-.693.22-1.124 1.285-.77 1.91.026.042.077.017.085-.025.06-.71.135-1.302.744-1.758.06-.043.025-.152-.06-.127zM34.055 30.854c-.457.229-.913 1.032-.719 1.539.017.042.085.067.11.017.093-.229.11-.474.195-.702.101-.287.296-.515.498-.744a.07.07 0 0 0-.084-.11zM33.32 30.956c-.17.169-.313.372-.296.625 0 .034.05.051.067.017.093-.203.178-.405.28-.6.016-.034-.026-.068-.052-.042zM40.41 32.672c.093.287.152.574.136.887-.017.43-.271.71-.524 1.031-.034.042 0 .11.059.101.828-.236.777-1.453.44-2.062-.026-.067-.128-.025-.11.043zM41.137 33.272c.085.194.135.405.11.617-.025.186-.16.338-.27.49-.026.034.017.101.067.084.524-.21.482-.862.245-1.267-.059-.102-.186-.017-.152.076zM41.746 33.703c.025.143.059.388 0 .524-.026.05.042.11.076.059a.437.437 0 0 0 .118-.28c0-.126-.076-.227-.127-.329-.008-.05-.067-.017-.067.026zM31.502 7.072c.87.026 1.47-.828 1.775-1.555.347-.837.795-1.986.533-2.899-.051-.186-.33-.101-.288.076.195.744-.127 1.598-.363 2.3-.304.912-.727 1.647-1.674 1.994-.033.025-.025.084.017.084z" fill="#7E7B88"/><path d="M32.517 4.731c.32-.304.447-.769.49-1.2.034-.33.118-1.124-.262-1.284-.06-.026-.11-.009-.136.05-.05.152 0 .237.043.389.067.228.067.473.067.71-.008.448-.16.862-.312 1.276-.009.06.067.093.11.06zM29.939 8.112c-.71.448-.989 1.284-1.521 1.901-.617.719-1.69.778-2.418 1.302-.033.025-.025.076.026.084.752.093 1.758-.481 2.332-.92.744-.575 1.108-1.556 1.606-2.333.009-.026-.008-.043-.025-.034zM27.387 6.574c-.127.676-.262 1.318-.541 1.952-.22.498-.524.946-.719 1.453-.017.051.051.085.093.051.829-.803 1.353-2.307 1.217-3.448 0-.034-.042-.042-.05-.008zM27.7 8.51c-.153.27-.313.54-.474.802-.186.296-.44.533-.642.811-.026.034.017.093.059.077.701-.271.879-1.04 1.09-1.682 0-.009-.025-.026-.034-.009zM27.885 9.312c-.186.211-.363.44-.515.668-.017.025.017.05.042.042.254-.144.465-.389.54-.676 0-.034-.041-.068-.067-.034zM22.485 1.376c-.28.06-.338.98-.33 1.2.034.6.76.54 1.133.76.524.313.752.981 1.318 1.243.456.211.76-.237.862-.617.017-.05-.059-.101-.093-.06-.177.204-.405.542-.718.398-.22-.101-.397-.338-.55-.515-.253-.288-.498-.617-.853-.778-.17-.076-.364-.101-.541-.152-.507-.127-.321-.744-.228-1.099.008.009.152-.414 0-.38z" fill="#7E7B88"/><path d="M23.305 1.308c-.245.39-.39.736 0 1.065.279.245.608-.059.811.457.101.245.228.473.414.659.211.211.499.152.735.017.431-.262.719-.693 1.217-.862a.05.05 0 0 0 0-.093c-.591-.17-.946.372-1.377.676-.44.313-.66-.516-.811-.795-.229-.43-1.108-.16-.753-.98.068-.16-.135-.296-.236-.144z" fill="#7E7B88"/><path d="M24.48 1.165c-.17.11-.22.279-.085.44.143.168.304.278.397.49.06.135.127.363.287.405.195.05.347-.127.364-.304.008-.05-.051-.068-.085-.05-.093.042-.186.194-.262.084-.067-.102-.101-.22-.16-.33a.969.969 0 0 0-.22-.27c-.05-.051-.11-.093-.16-.136-.102-.084-.051-.143.016-.236.043-.05-.042-.127-.093-.093zM31.57 2.07c.33.658.49 1.275.211 1.994-.017.05.051.084.093.05.567-.583.313-1.58-.253-2.079-.034-.025-.068.009-.051.034zM30.886 1.925c.143.262.202.541.169.845-.009.051.084.077.1.026.128-.28.12-.77-.219-.921a.037.037 0 0 0-.05.05zM29.136 4.774c.203-.541.389-.626.54-.262.06.118.11.245.145.371.194.693-.558 1.209-1.175 1.082-.617-.118-.634-.879-.888-1.335-.33-.583-1.284-.904-1.715-.296-.043.06.025.135.084.11 1.031-.321 1.37.279 1.682 1.132.135.364.389.567.752.677.77.228 1.724-.49 1.572-1.319-.076-.44-.634-1.538-1.217-.938-.194.203-.372.49-.203.778.119.202.296.194.448.059.017-.017 0-.051-.025-.06zM27.37 1.359c.034.752.372 1.547 1.234 1.589.667.034 1.614-.33 1.504-1.15-.009-.042-.076-.05-.093-.008-.11.228-.194.448-.38.634-.288.287-.77.33-1.141.279-.676-.102-.87-.795-.964-1.36-.017-.094-.169-.077-.16.016z" fill="#7E7B88"/><path d="M28.274 1.401c.017.355.313.651.634.761.279.102.769-.16.634-.507-.017-.042-.06-.06-.093-.025-.093.076-.102.194-.186.279-.085.093-.228.084-.338.05-.27-.076-.457-.338-.55-.583-.025-.034-.11-.034-.101.025zM30.733 4.512c.127.422.085.81-.135 1.191-.186.321-.507.448-.718.727-.017.025 0 .076.034.076.422.076.794-.431.954-.76.195-.406.22-.913-.118-1.251-.008 0-.025.008-.017.017zM31.257 5.432a.995.995 0 0 1-.11.44.396.396 0 0 1-.152.16c-.05.034-.11.102-.169.11a.048.048 0 0 0 .017.093c.042 0 .068.026.11.017.05 0 .102-.017.144-.042.093-.042.169-.152.22-.245.092-.17.11-.397-.009-.558-.009-.017-.042-.008-.05.025zM28.747 8.577c.22-.161.38-.415.575-.617.101-.11.22-.203.347-.28.126-.075.261-.1.371-.202.026-.026.017-.068-.008-.085-.279-.126-.575.127-.778.305a2.252 2.252 0 0 0-.574.828c-.009.034.042.067.067.05zM28.908 7.63a.66.66 0 0 1 .194-.211c.05-.042.127-.05.135-.127-.016.017-.025.034-.042.042.009 0 .017-.008.034-.008.06-.017.05-.093 0-.11 0 0-.05-.034-.085-.042-.059-.017-.101.017-.152.042a.57.57 0 0 0-.236.338c-.034.11.093.152.152.076zM16.484 8.078c.448.355.668.66 1.26.727.591.067 1.022-.203 1.605.101.44.237.567.702.499 1.167-.102.659-.592 1.259-1.116 1.64-.718.523-1.732.312-2.569.447-.042.008-.042.076 0 .085.947.143 1.876.312 2.738-.245.634-.406 1.107-1.125 1.276-1.851.153-.643-.135-1.2-.659-1.555-.346-.229-.76-.246-1.158-.178-.515.093-.946.186-1.394-.177a.95.95 0 0 0-.457-.237c-.016.017-.05.05-.025.076z" fill="#7E7B88"/><path d="M19.096 9.794c-.051.388-.11.71-.38 1.005-.28.305-.702.448-1.082.558-.051.017-.06.11 0 .119.887.135 1.952-.719 1.563-1.682-.017-.043-.093-.06-.101 0z" fill="#7E7B88"/><path d="M18.36 10.014c.077.177.009.295-.135.405-.118.093-.27.178-.405.245-.051.026-.026.11.025.102.211-.009.423-.076.558-.254.118-.16.101-.346-.017-.507-.009-.008-.034-.008-.026.008zM9.571 14.526c.854.533.837 1.843 2.104 1.522 1.2-.305 1.623-1.978 2.341-2.823.026-.025-.008-.076-.042-.05-.989.574-1.166 1.884-2.13 2.492-1.217.77-1.293-1.073-2.265-1.191-.025-.009-.033.033-.008.05z" fill="#7E7B88"/><path d="M10.627 14.171c.127.356.423.82.862.82.49 0 .736-.414.938-.794a.07.07 0 0 0-.11-.085c-.228.195-.515.592-.828.617-.38.026-.532-.44-.82-.574-.016-.017-.05-.009-.042.017zM12.166 8.154c-.423-.55-.533-1.031-.44-1.716.042-.296.279-.845.025-1.082a.065.065 0 0 0-.084-.008c-.372.211-.338 1.234-.338 1.623 0 .557.22 1.09.752 1.301.06.026.118-.059.085-.118zM10.788 7.799c0-.22-.068-.44-.085-.66a1.85 1.85 0 0 1 .187-.878c.016-.042.033-.102 0-.152-.034-.043-.043-.06-.094-.068-.067-.008-.126.009-.168.068-.262.456-.38 1.335.05 1.732.042.034.11.009.11-.042zM3.199 15.515c.27.482.059 1.192.05 1.724-.017.583-.008 1.192.322 1.682.033.06.135.042.135-.034-.051-.811-.186-1.58-.135-2.4.016-.372.059-.82-.305-1.031-.042-.017-.084.025-.067.06zM4.179 17.594c.093-.583.135-1.2.177-1.791.034-.516.06-1.226-.371-1.58-.034-.026-.102-.026-.11.025-.093.507.11 1.03.11 1.555 0 .6-.102 1.208.059 1.791.025.06.118.068.135 0zM4.982 16.42c.33-.829.794-1.412 1.648-1.75.676-.27 1.293-.06 1.969-.008.042 0 .05-.051.034-.076-.524-.617-1.623-.49-2.282-.178-.778.372-1.47 1.082-1.53 1.978-.017.118.127.118.16.034zM4.914 14.907c.245-.076.465-.423.634-.609.22-.228.507-.372.794-.482.203-.076.415-.084.609-.177.068-.034.034-.118-.017-.135-.44-.178-1.014.177-1.352.43-.288.22-.6.584-.702.939-.008.017.009.042.034.034zM5.303 12.067c-.228-.042-.389.541-.43.685-.11.372-.297.997-.069 1.36.026.034.085.034.093-.017.068-.363.06-.735.119-1.098.034-.211.093-.406.16-.609.026-.11.119-.211.127-.32zM5.675 12.904c.034-.397.067-.778.177-1.167.093-.338.33-.659.364-1.014 0-.042-.05-.076-.085-.05-.312.202-.43.65-.532.988-.119.39-.203.854-.102 1.26.026.118.17.084.178-.017zM6.41 12.861c.423.11.845.119 1.26.27.574.212.802.626 1.115 1.1.034.05.101.025.11-.034.118-1.082-1.657-1.699-2.493-1.454-.043.025-.043.102.008.118zM9.106 10.69c.17.016-.312-.82.144-.322.152.17.262.406.279.626.059.608-.854.744-1.26.667-1.436-.262-.583-2.053-.388-2.882.008-.033-.034-.059-.06-.033-.743.659-1.022 2.028-.371 2.84.574.718 1.825.557 2.307-.153.397-.583-.211-1.614-.87-1.665-.617-.05-.626 1.445.245 1.09.084-.042.067-.152-.026-.168zM10.07 9.836c.22.27.388.591.414.946.025.296-.11.558-.136.845 0 .043.051.06.076.034.533-.55.22-1.479-.346-1.859 0-.008-.017.017-.008.034zM10.822 10.368c.118.102.169.237.186.389.017.144-.043.279-.017.414.008.034.05.068.076.034.22-.245.11-.786-.22-.87-.025-.01-.042.025-.025.033zM11.43 10.597c.034.168.051.346.136.507.016.033.067.025.084-.009.06-.203-.068-.355-.186-.507-.017-.025-.042-.017-.034.009zM6.841 11.408a.96.96 0 0 0 .203.465c.101.127.237.296.414.321.042.008.06-.05.05-.085-.058-.126-.202-.22-.295-.32a1.957 1.957 0 0 1-.287-.406c-.034-.051-.093-.017-.085.025zM13.01 13.216c.626-.743 1.387-1.445 2.418-1.436.583.008 1.217.21 1.682-.237.033-.034 0-.093-.051-.076-.88.177-1.741-.144-2.595.203-.642.27-1.318.811-1.538 1.496-.008.05.05.092.085.05zM13.467 11.661c.718-.515 1.335-.566 2.197-.515.474.025.955.042 1.336-.27.507-.415.16-1.277-.28-1.59-.498-.363-1.41-.059-1.233.668.068.287.456.414.718.389.16-.017.414-.203.229-.363-.017-.017-.043-.026-.068-.009-.203.118-.372.16-.575-.017-.363-.313.355-.634.575-.566.422.118.735.744.558 1.15-.262.616-1.513.312-2.02.32-.626.017-1.116.262-1.462.778-.026.017 0 .042.025.025zM12.977 11.932c-.245.22-.389.44-.541.735-.16.33-.287.693-.583.93-.17.127-.414.084-.583-.009-.237-.135-.136-.633.143-.667.27-.034.068.245.152.338.026.025.068.042.102.025.33-.101.118-.524-.11-.608-.473-.17-.803.447-.693.845.127.448.837.574 1.166.295.567-.481.533-1.301.972-1.859.009-.025-.008-.042-.025-.025z" fill="#7E7B88"/><path d="M8.633 7.951c-.195.245-.33.516-.397.82-.043.169-.068.684.22.65.05-.008.075-.033.084-.084.008-.084-.042-.127-.068-.211-.05-.135-.017-.296.009-.431.042-.228.135-.474.236-.685.009-.05-.05-.11-.084-.059zM9.165 9.295c-.025-.414-.059-.77.051-1.183.093-.372.347-.634.473-.98.034-.094-.076-.153-.152-.119-.659.347-.87 1.724-.481 2.307.025.051.11.043.11-.025z" fill="#7E7B88"/><path d="M9.613 8.822c.144-.347.178-.702.245-1.065.034-.203.085-.406.17-.6.1-.237.303-.355.456-.541.059-.076 0-.178-.093-.16-.905.168-.812 1.715-.812 2.366 0 .017.026.017.034 0zM12.377 8.67c.642.608 2.34 1.022 2.493-.27.042-.373-.355-.685-.6-.888-.346-.288-.77-.566-1.006-.964-.025-.042-.076-.017-.084.026-.051.591.701.963 1.082 1.318.32.296.388.575.05.888-.608.557-1.276-.127-1.918-.144-.017 0-.026.025-.017.034zM16.433 2.965c.119.98-.523 1.952-.76 2.882-.16.617-.06 1.479.71 1.58.034 0 .059-.05.025-.076-.363-.279-.634-.456-.65-.972-.009-.448.185-.92.329-1.335.228-.617.66-1.428.423-2.096-.009-.034-.085-.025-.077.017zM12.157 9.363c.16.16.456.262.668.346.312.119.642.237.98.144.042-.017.042-.068 0-.085-.296-.118-.617-.152-.921-.262-.212-.076-.457-.236-.685-.228-.05-.008-.076.05-.042.085zM12.385 10.005c.093.253.508.296.719.177.025-.017.025-.059 0-.076-.211-.093-.473-.017-.676-.135-.017-.008-.051.017-.043.034zM5.624 22.031c.507.28.828.719 1.074 1.234.245.524.228 1.056.295 1.614.009.051.076.085.102.026.515-.938-.448-2.722-1.462-2.9-.009-.008-.026.018-.009.026zM4.323 21.06c.177.143.312.32.49.456.16.118.43.27.625.16.034-.017.034-.059 0-.084a.605.605 0 0 0-.245-.085c-.127-.034-.236-.101-.346-.169-.17-.11-.33-.22-.516-.304-.008-.008-.025.017-.008.025zM7.137 28.497c.178-.44-.321-.947-.718-.584-.44.398-.702 1.184-.761 1.758-.127 1.184-.135 2.392-.963 3.33-.457.516-2.172 1.319-1.58 2.223.058.085.21.085.236-.034.11-.532.312-.811.735-1.124.321-.236.617-.49.896-.777.43-.457.676-1.032.811-1.64.144-.693.085-1.42.22-2.113.05-.27.127-.532.22-.794.05-.152.118-.288.194-.431.203-.372.617-.203.668.186 0 .017.034.025.042 0zM7.788 29.012c.245.634.676 1.133 1.014 1.716.346.591.456 1.301.625 1.952.203.786.66 2.299 1.674 2.316.042 0 .084-.05.05-.093-.287-.38-.642-.66-.879-1.082-.304-.532-.44-1.166-.608-1.75-.144-.523-.287-1.039-.566-1.512-.347-.575-.896-1.006-1.285-1.555-.017-.009-.034 0-.025.008z" fill="#7E7B88"/><path d="M8.506 32.038c.127-.592-.27-1.251-.558-1.733-.194-.338-.642-1.192-1.098-1.192a.174.174 0 0 0-.144.085c-.431.989-.287 1.96-.287 3 0 .051.076.06.093.017.245-.938.016-1.977.49-2.848-.06.025-.127.05-.186.076.338.11.66.77.837 1.048.304.49.507 1.014.71 1.555.016.06.126.076.143-.008z" fill="#7E7B88"/><path d="M7.027 32.486c.034-.457-.025-.888.186-1.31l-.17.025c.356.363.449.887.71 1.31.035.05.128.017.11-.05-.143-.508-.278-1.032-.667-1.412-.05-.042-.144-.042-.169.025-.194.423-.27.989-.101 1.428.017.051.093.043.101-.016zM11.996 36.044c.702.43 1.64.524 2.41.82.456.177.895.405 1.242.76.574.592.093 1.31-.322 1.826-.363.448-.803.828-1.174 1.276-.448.532-.795 1.073-1.37 1.487-.659.482-1.42.702-2.23.719-.584.017-1.251-.068-1.759.262-.143.093-.042.287.11.262.845-.119 1.716-.093 2.561-.237.676-.118 1.302-.54 1.809-.98.566-.49.93-1.158 1.436-1.707.49-.524 1.048-1.006 1.395-1.649 1.048-1.935-2.831-3.008-4.09-2.983-.051.008-.077.11-.018.144z" fill="#7E7B88"/><path d="M8.16 42.551c.625.119 1.386-.093 2.011-.169.685-.084 1.395-.101 2.045-.372.98-.414 1.226-1.707.322-2.324-.66-.448-2.257-.093-2.088.913.152.938 1.14.778 1.479.06.025-.052.034-.128-.025-.178-.245-.212-.584-.322-.643.101 0 .025.026.06.051.05.448-.05.186.322-.144.347-.21.017-.355-.194-.405-.363-.093-.288.186-.524.388-.66.44-.295 1.057-.177 1.429.153.507.465.118 1.225-.338 1.521-1.158.76-2.908.093-4.082.845-.026.026-.026.068 0 .076z" fill="#7E7B88"/><path d="M7.492 41.917c.152.043.33-.016.473-.033.288-.034.575-.034.854-.06.456-.042.904-.092 1.115-.54.017-.043-.025-.102-.067-.068-.414.245-1.023.254-1.488.304-.262.034-.82.017-.93.322-.008.033.018.067.043.075zM7.365 41.495c.27 0 .55-.093.811-.144.27-.05.5-.143.744-.262.05-.025.034-.118-.034-.11-.262.034-.524.009-.794.068-.245.05-.583.068-.786.211-.101.068-.076.237.06.237zM3.824 36.475c-.118-.634-.025-1.074.456-1.53.406-.38.939-.583 1.42-.837.034-.016.017-.067-.017-.067-1.04 0-2.924 1.318-1.935 2.468.034.042.085.008.076-.034z" fill="#7E7B88"/><path d="M4.002 36.585c0-.17.076-.398.16-.55.102-.186.355-.414.583-.388.051.008.051-.068.009-.076-.144-.06-.254-.102-.406-.043-.152.06-.262.186-.355.321a.902.902 0 0 0-.16.457.37.37 0 0 0 .11.313c.025.016.059-.009.059-.034zM13.585 40.041c.71-.203 1.302-.811 1.217-1.589-.067-.65-.904-.972-1.42-1.157-.963-.339-1.952-.6-2.83-1.133-.508-.304-.905-.735-1.252-1.2-.363-.49-.456-1.057-.735-1.572-.034-.06-.135-.05-.152.017-.144.668.33 1.394.702 1.927.439.625 1.073 1.081 1.74 1.428.651.33 1.353.54 2.046.76.414.136.82.288 1.191.508.947.566.009 1.496-.566 1.876-.067.034-.025.16.06.135z" fill="#7E7B88"/><path d="M13.087 39.5c.422-.625.008-1.284-.583-1.622-.39-.228-.87-.262-1.302-.355-.718-.152-1.234-.567-1.783-1.014-.042-.034-.102.017-.068.059.372.448.778.98 1.344 1.191.862.313 2.552.33 2.248 1.682-.017.085.093.127.144.06zM7.213 34.767c-.668.609-.879 1.775-.414 2.57.025.042.084.017.093-.026.042-.388-.026-.794-.017-1.183.008-.456.152-.938.389-1.327.017-.025-.026-.059-.051-.034zM6.46 35.215c-.32.39-.498 1.082-.21 1.53.025.034.076.017.084-.025.009-.28.017-.558.06-.828.033-.22.1-.44.1-.668-.008-.009-.025-.017-.033-.009zM5.911 35.528c-.059 0-.076-.017-.135.026a.362.362 0 0 0-.127.152c-.05.101-.084.27.009.355.025.017.059.025.076 0 .06-.068.06-.16.084-.245a.72.72 0 0 1 .11-.262c.017 0 0-.026-.017-.026z" fill="#7E7B88"/><path d="M7.678 34.844c-.524.338-.88 1.428-.245 1.834.042.025.084-.017.076-.06-.042-.279-.102-.532-.085-.82.017-.304.152-.65.288-.92.008-.026-.017-.051-.034-.034zM7.34 37.26c0 .17.093.373.279.398.034 0 .05-.017.042-.05-.025-.144-.144-.246-.203-.381-.025-.06-.118-.025-.118.034zM7.965 35.621c-.253.186-.27.533-.22.811.051.28.237.702.558.744.026 0 .05-.025.042-.042-.016-.203-.169-.38-.253-.566-.152-.296-.144-.6-.085-.913 0-.025-.025-.05-.042-.034zM8.345 36.179c.009.144.068.355.22.397.034.009.05-.017.06-.042.016-.135-.102-.279-.17-.38-.033-.051-.11-.043-.11.025zM6.233 40.261c0-.668.253-1.293.76-1.75.034-.025-.008-.067-.034-.05-.414.177-.633.43-.82.845-.135.296-.194.702.018.98.025.034.076.026.076-.025z" fill="#7E7B88"/><path d="M6.529 40.59c.016-.566.27-1.056.617-1.487.033-.034-.009-.093-.051-.068-.541.246-.795 1.023-.609 1.564.009.017.043.017.043-.008zM5.709 39.56c.093-.153.118-.33.186-.5.067-.177.194-.337.21-.523.01-.05-.033-.085-.084-.068-.312.136-.49.76-.405 1.065 0 .06.067.068.093.026zM6.833 40.946c-.034-.034.186-.44.203-.482.042-.085.084-.178.143-.254.042-.059.06-.16.102-.211.017-.025.017-.076-.017-.076-.288-.042-.423.237-.507.473-.06.17-.144.474.05.583.026.009.043-.017.026-.033z" fill="#7E7B88"/><path d="M4.052 36.762c-1.74-3.786-3.211-7.64-2.924-11.883.254-3.718 1.606-7.395 3.28-10.69C6.071 10.9 8.421 8.195 11.48 6.116a29.22 29.22 0 0 1 10.438-4.395 21.851 21.851 0 0 1 12.11 1.04c3.55 1.378 6.601 3.829 9.103 6.66 2.374 2.687 4.394 5.857 5.552 9.262 1.2 3.516 1.141 7.32.474 10.937-1.353 7.327-6.153 14.494-13.16 17.427-1.647.692-3.38 1.166-5.13 1.546-1.74.38-3.515.702-5.29.752-3.668.102-7.42-.803-10.767-2.273-2.121-.938-4.065-2.223-5.89-3.643-1.243-.963-2.41-2.045-3.271-3.372-.71-1.09-1.192-2.307-1.741-3.482-.39-.82-.82-1.614-1.15-2.46-.38-.988-.777-1.977-1.25-2.932-.06-.118-.246-.034-.204.085.448 1.589.778 3.177 1.513 4.665.507 1.04.964 2.096 1.47 3.135 1.074 2.215 2.74 3.837 4.674 5.325 2.942 2.265 6.094 3.904 9.677 4.868 3.398.913 6.83 1.107 10.286.515 3.482-.6 6.955-1.538 10.023-3.346 3.186-1.877 5.688-4.818 7.581-7.945 3.6-5.95 5.029-13.902 2.603-20.537-1.183-3.245-3.144-6.22-5.392-8.832-2.383-2.763-5.307-5.096-8.646-6.609C31.57.911 27.598.404 23.77.784c-3.693.364-7.335 1.741-10.58 3.5-2.697 1.461-5.148 3.405-7.05 5.822-1.833 2.333-3.135 5.105-4.098 7.902-.99 2.9-1.614 5.916-1.505 8.984.136 3.558 1.682 6.787 3.322 9.872.076.135.253.025.194-.102z" fill="#7E7B88"/><path d="M3.063 16.884c.009-.735.33-1.437.558-2.121.254-.77.786-1.47 1.293-2.088 1.09-1.318 2.088-2.712 3.195-4.022 1.115-1.319 2.586-2.341 4.082-3.195 1.614-.921 3.203-1.826 4.978-2.409.296-.101.169-.566-.127-.465-1.817.592-3.457 1.488-5.122 2.41-1.63.895-3.16 2.036-4.377 3.447-.558.651-1.057 1.353-1.572 2.037-.567.752-1.226 1.437-1.8 2.18-.516.668-.896 1.361-1.108 2.19-.16.642-.405 1.42-.169 2.07.026.085.17.076.17-.034zM43.554 9.396c2.282 2.713 3.786 5.849 5.164 9.094.744 1.741 1.437 3.507 1.58 5.417.136 1.8-.27 3.727-.6 5.485-.642 3.398-1.808 6.635-3.617 9.584a21.878 21.878 0 0 1-3.042 3.896c-1.217 1.243-2.637 2.096-4.032 3.094-.152.11-.059.414.136.33 1.453-.6 2.763-1.716 3.896-2.79 1.217-1.158 2.23-2.51 3.127-3.921 1.935-3.06 3.118-6.575 3.811-10.108.338-1.724.65-3.558.617-5.316-.034-1.842-.727-3.617-1.428-5.3-1.411-3.363-2.95-6.87-5.586-9.473-.017-.017-.034-.009-.026.008zM2.784 34.793c.203.507.237 1.031.322 1.564.084.507.371.997.591 1.453C4.238 38.9 4.72 40 5.362 41.04c.566.912 1.276 1.724 2.189 2.307.49.313.997.617 1.496.93.423.262.803.473 1.301.38.085-.017.076-.127.026-.16-.862-.61-1.86-1.074-2.755-1.649-.964-.608-1.64-1.605-2.206-2.569-.55-.921-1.006-1.885-1.547-2.806-.287-.498-.532-.98-.642-1.547-.076-.414-.127-.82-.406-1.14-.017-.017-.034-.009-.034.008z" fill="#7E7B88"/></svg>