<svg width="51" height="74" fill="none" xmlns="http://www.w3.org/2000/svg"><path d="M30.578 15.517c.684-.084 1.682-1.158.997-1.808-.203-.195-.473.05-.372.287.22.524-.279 1.031-.684 1.31-.076.06-.06.228.059.211zM24.662 13.852c-.363-.236-.668-.55-1.048-.769-.254-.152-.744-.338-.972-.068-.034.043-.042.102 0 .144.135.127.27.118.448.152.211.043.406.152.592.254.304.177.608.321.963.363.042.009.05-.059.017-.076zM23.724 15.39c.287-.575-.389-1.242-.778-1.563-.295-.245-1.479-1.099-1.85-.651-.051.06-.085.16-.026.237.135.185.321.16.524.22.313.084.6.253.87.422.542.346.93.76 1.2 1.335.01.026.043.026.06 0zM22.084 15.145c-.346-.524-.76-.896-1.36-1.124-.575-.211-1.42-.473-2.003-.22-.085.034-.085.195 0 .229.464.21 1.04.143 1.546.253.634.144 1.26.49 1.767.896.033.025.076 0 .05-.034z" fill="#7E7B88"/><path d="M8.807 19.48c-1.158-2.104-1.885-4.537-2.501-6.845-.803-2.992-1.429-6.313-.778-9.39.127-.6.304-1.444.997-1.605.583-.135 1.268.313 1.733.608 1.834 1.175 3.338 2.95 4.733 4.59 1.563 1.825 3.017 3.752 4.428 5.696 1.682 2.324 3.38 4.64 5.029 6.99a133.31 133.31 0 0111.57 20.063c2.975 6.355 5.755 12.871 7.86 19.573.887 2.815 1.69 5.722 1.935 8.68.084 1.056.093 2.138-.135 3.17-.152.692-.364 1.31-1.166 1.267-.905-.042-1.81-.684-2.519-1.175-1.2-.828-2.282-1.842-3.305-2.873-2.307-2.333-4.327-5.004-6.042-7.8-.203-.33-.693-.043-.516.303 1.48 2.95 3.55 5.578 5.84 7.945 1.614 1.673 3.66 3.735 5.984 4.344 4.53 1.191 2.222-8.553 1.774-10.362-1.63-6.6-4.318-12.956-7.048-19.168-3.068-6.98-6.541-13.742-10.683-20.148-2.079-3.203-4.386-6.229-6.566-9.364a127.518 127.518 0 00-3.584-4.902c-1.504-1.944-3.076-3.854-4.834-5.578C9.897 2.417 8.435.964 6.796.837c-.98-.076-1.58.718-1.834 1.572-.609 2.062-.44 4.327-.135 6.423.32 2.223.912 4.446 1.69 6.558.532 1.462 1.115 2.958 1.944 4.285.135.237.473.034.346-.194z" fill="#7E7B88"/><path d="M9.77 18.534C8.606 15.576 7.71 12.45 7.228 9.305c-.17-1.115-.355-2.408-.025-3.515.262-.888.895-.288 1.377.1 1.944 1.522 3.592 3.483 5.198 5.342.93 1.074 1.724 2.24 2.527 3.406 2.789 4.082 5.468 8.24 8.105 12.415 2.95 4.674 5.857 9.381 8.544 14.207.938 1.682 1.86 3.38 2.645 5.139.482 1.081.88 2.298 1.285 3.44 1.445 4.132 2.764 8.324 3.812 12.575.405 1.674.794 3.372.955 5.088.05.55.093 1.124.008 1.673-.042.28-.169.651-.296.693-.287.11-.811-.279-1.107-.498-.972-.702-1.825-1.59-2.645-2.451-1.936-2.037-3.87-4.26-5.223-6.736-.178-.33-.693-.034-.507.296 1.411 2.586 3.38 4.918 5.392 7.04.845.896 1.74 1.774 2.738 2.51.406.296.913.625 1.445.532.964-.177.964-1.58.947-2.307-.043-1.733-.431-3.474-.812-5.147-.988-4.31-2.324-8.544-3.76-12.72-.457-1.326-.913-2.653-1.437-3.946-.626-1.53-1.42-2.992-2.215-4.446-2.586-4.758-5.434-9.372-8.307-13.953a443.29 443.29 0 00-8.376-12.914c-.794-1.174-1.555-2.425-2.467-3.515-1.513-1.818-3.102-3.6-4.818-5.232-.811-.769-2.797-2.84-3.54-.921-.373.963-.254 2.096-.145 3.093.161 1.504.508 2.992.896 4.454a40.933 40.933 0 001.986 5.696c.068.212.457.051.364-.169z" fill="#7E7B88"/><path d="M6.644 3.61c.093-.559.98-.28 1.25-.161.39.169.727.456 1.04.735.524.465 1.056.98 1.513 1.513.042.042.118-.017.084-.068-.701-.98-1.293-1.986-2.425-2.527-.49-.237-1.97-.414-1.505.516 0 .017.034.008.043-.009zM11.8 7.066c.227.355.557.608.929.803.067.033.16-.06.093-.119-.313-.262-.558-.583-.904-.803-.077-.033-.17.051-.119.119zM42.985 67.172c.067.955.101 1.97-.144 2.9-.135.523-.49 1.08-1.082 1.132-.43.033-.693-.28-1.073-.414-.06-.017-.084.05-.05.092.354.431.506.829 1.123.77.55-.051.913-.347 1.209-.803.634-.972.55-2.696.076-3.694-.008-.033-.068-.017-.06.017zM42.773 65.076c-.135.178-.186.262-.143.49.033.186.093.465.245.584.034.025.067.008.093-.017.143-.119.076-.347.025-.499-.05-.144-.211-.38-.144-.532.017-.034-.05-.06-.076-.026zM7.742 15.644c.228 1.14.786 2.273 1.285 3.321.076.17.346.051.296-.126-.338-1.124-1.082-2.13-1.53-3.212-.009-.025-.06-.017-.05.017zM33.35 63.564c-.245-1.116-1.335-1.953-1.86-2.941-.1-.186-.422-.06-.346.143.406 1.09 1.48 1.893 2.147 2.815.025.033.068.016.06-.017zM41.767 61.18c.305.693.516 1.42.694 2.155.008.042.084.051.093 0 .143-.786-.195-1.622-.719-2.206-.042-.042-.093.009-.068.051zM13.405 12.382c-.533-1.031-1.353-1.919-2.096-2.798-.49-.583-.955-1.225-1.522-1.74-.287-.263-.938-.668-1.301-.28-.49.533 0 1.234.22 1.775.025.076.143.043.118-.033-.16-.524-.516-1.936.482-1.319.44.262.752.735 1.073 1.124.938 1.133 1.935 2.29 2.975 3.322.034.008.06-.026.05-.051zM38.43 58.755c.143 1.572.752 3.118 1.157 4.63.457 1.683.803 3.381.845 5.13.093-.067.186-.143.28-.21-.99-.355-1.97-1.302-2.502-2.19-.068-.11-.229-.016-.178.102.533 1.082 1.42 2.08 2.561 2.519.135.05.279-.076.279-.212-.009-1.614-.33-3.194-.727-4.75-.431-1.673-.862-3.439-1.53-5.036-.034-.102-.194-.102-.186.017zM15.196 41.285c-.05-.1-.21-.05-.21.06 0 .101-.212.203-.288.236a1.577 1.577 0 01-.254.102c-.084.025-.127.084-.194.11-.076.033-.043.126.017.143.11.042.177.068.296.034.126-.034.253-.093.363-.16.186-.102.389-.305.27-.525zM18.357 36.95c-.803-.068-1.437.203-2.07.684-.33.254-.643.524-.99.753-.523.346-1.115.422-1.69.634-.076.025-.076.126 0 .16 1.885.643 2.79-1.75 4.547-1.75.566 0 1.15.288 1.555.668.609.575.127 1.42-.448 1.8-.405.271-.895.017-1.15-.337-.363-.508.17-1.344.702-.736.051.05.127.009.127-.05.025-.525-.422-.727-.87-.465-.423.245-.584.617-.49 1.098.093.482.532.837.963.99.617.219 1.158-.238 1.53-.677 1.065-1.285-.398-2.654-1.716-2.772zM17.596 43.618c.068.347.11.668.372.938.034.034.11.009.102-.042-.034-.457.067-1.217-.39-1.496-.236-.144-.54-.186-.802-.245-.127-.034-.701-.118-.752-.254-.026-.05-.093-.042-.093.017-.034.507.668.592 1.056.685.27.05.448.11.507.397zM40.179 36.358c.245-.076.583-.278.752-.481.008-.009.008-.026 0-.034-.101-.17-.465-.068-.609-.026-.16.043-.32.102-.481.136-.093.025-.178.008-.262.05-.06.034-.102.068-.16.085-.043.008-.069.068-.043.101.211.322.465.28.803.17zM20.03 44.725a.093.093 0 00.127-.127c-.448-.938-1.208-1.732-.862-2.856.051-.17-.143-.33-.295-.228-.803.532-1.995 0-2.62-.575-.026-.025-.06 0-.051.025.169.955 1.597 1.327 2.502 1.065-.11.989.355 2.231 1.2 2.696zM21.476 38.92a4.112 4.112 0 011.242-.204c.592.009.938.364 1.437.584.06.025.127-.017.101-.085-.27-1.023-1.732-.921-2.611-.693.16-.845-.085-1.775-.575-2.46-.042-.059-.16-.025-.127.051.322.812.592 1.741.322 2.603-.034.119.093.245.21.203zM16.363 45.283c.017.102.169.093.194 0 .101-.422.27-.82.093-1.25-.17-.415-.685-.364-1.048-.457-.127-.034-.237.127-.135.228a.94.94 0 00.397.228c.16.043.355.051.406.237.05.177.008.372.017.558 0 .16.042.296.076.456zM38.835 40.178c-.22.313-.262.693-.22 1.065.034.28.093.811.431.888.076.017.178-.009.22-.085.118-.245-.06-.524-.118-.769-.076-.313-.153-.676-.085-.997.017-.144-.152-.212-.228-.102zM39.528 46.348c.279.304.414.633.456 1.048.034.32.524.33.507 0-.033-.482-.253-1.217-.803-1.31-.16-.026-.27.135-.16.262zM36.41 47.565c-.068-.085-.195-.034-.229.059-.059.186-.033.389-.042.575a.647.647 0 01-.05.253c-.043.093-.136.127-.17.237-.033.11.043.22.144.253.313.102.49-.287.524-.532a1.254 1.254 0 00-.06-.66.628.628 0 00-.118-.185zM14.639 44.243c-.178-.143-.406-.211-.626-.27-.05-.017-.067.05-.034.084.186.136.372.28.533.44.067.068.228.422.363.287.178-.177-.118-.448-.236-.54zM38.979 38.682c.008.06.042.093.101.102.304.017.482-.296.66-.499.21-.236.439-.43.675-.634.076-.067.017-.194-.076-.194-.32.017-.583.194-.82.406-.22.186-.566.515-.54.82zM26.893 40.28c.6-.27 1.2-.456 1.843-.6.05-.009.05-.093 0-.102-.584-.093-1.124-.016-1.682.161-.423.135-1.234.321-1.378.77-.008.033.009.084.043.1.397.195.802-.16 1.174-.33zM27.46 32.783c.6.677 1.225 1.09 2.062 1.26-.009-.017-.017-.026-.026-.042a52.054 52.054 0 01-.27-.44 5.675 5.675 0 01-1.707-.853c-.051-.026-.093.042-.06.075zM26.614 38.42c-.228.076-.659.262-.642.558 0 .034.034.076.076.076.228-.025.406-.228.609-.33.262-.118.532-.151.81-.202.06-.008.068-.102.018-.127-.27-.127-.6-.059-.87.025zM18.957 35.961c.727-.186.245-1.318.026-1.715-.127-.237-.829-1.327-1.209-1.006a.09.09 0 00-.017.118c.237.313.533.583.752.921.17.262.296.55.372.854.06.245-.042.465-.076.701-.017.085.076.144.152.127zM26.792 43.762c.355.008.583-.135.845-.364.6-.524 1.25-.743 2.037-.803.439-.033 2.535-.084 2.712.558.009.034.06.034.068 0 .22-.743-1.378-1.022-1.85-1.064-1.42-.144-3.17.126-3.897 1.538-.034.059.008.135.085.135zM33.206 40.6l.025.026c-.05-.102-.1-.194-.151-.295a.195.195 0 00.025.134c.025.06.067.093.101.135zM31.195 38.21c-.921.54-1.648-.702-1.488-1.471.11-.507.465-.744.913-.862-.068-.11-.135-.229-.203-.338-.059.017-.11.033-.169.059-.837.33-1.225 1.394-.794 2.189.532.98 1.538 1.174 2.375.422l.076-.076c-.068-.118-.136-.245-.203-.363a1.963 1.963 0 01-.507.44zM27.189 41.742c1.352-.431 2.578-.921 4.006-.6.084.017.127-.085.059-.135-.617-.431-1.302-.524-2.045-.414-.845.126-1.428.532-2.08 1.047-.042.043.01.119.06.102zM22.16 34.11c-.143.127-.152.135-.177.321-.026.17.127.305.287.22 1.192-.617 2.68-.862 3.643-1.868.558-.583.642-1.589-.043-2.096-.693-.507-1.766.237-2.24.71-.71.736-.954 1.843-1.47 2.713zM25 30.992c.684-.22 1.065.371.938 1.005-.101.474-.583.82-.963 1.048-.803.49-1.733.736-2.587 1.124.99-1.03 1.015-2.662 2.612-3.177zM23.927 29.318c.034-.093-.102-.135-.152-.067-.736.988-1.69 1.496-2.874 1.791-.558.136-1.132.203-1.699.245-.388.034-.811 0-1.166.186-.06.026-.06.127 0 .153.456.22 1.023.11 1.504.059.609-.06 1.217-.186 1.809-.355 1.048-.304 2.189-.93 2.578-2.012zM19.253 33.096c-.06.017-.076.093-.034.135.27.313.558.558.76.938.12.212.195.44.255.668.042.186-.026.363-.009.55.008.05.042.11.101.1.829-.084-.22-2.61-1.073-2.39zM33.29 34.677c-.024.008-.041.025-.067.042-.033-.009-.059 0-.084.034-.026.033-.06.067-.085.101a.366.366 0 00-.05.06 1.539 1.539 0 01-.651.354c.059.11.11.22.169.33.042-.009.084-.026.118-.034-.017.05-.034.11-.059.16.093.187.186.364.279.55l.076-.279c.118-.422.33-.752.524-1.132.068-.119-.05-.245-.17-.186zM32.344 32.809a4.91 4.91 0 01-.98.608c.06.102.11.211.17.313.354-.203.684-.482.912-.82.042-.06-.042-.152-.102-.101zM27.087 36.942c.829.093 1.606-.803.922-1.513-.677-.702-1.665-.913-2.595-.744-.947.17-2.062.87-2.341 1.843-.017.016-.034.025-.06.042-.092.076-.067.186 0 .262 0 .033-.008.059-.008.093 0 .067.093.093.127.034.017-.026.025-.043.042-.068.026 0 .043-.009.068-.026 1.26-.87 2.518-.067 3.845.077zm-1.563-1.843c.71-.16 2.011.076 2.307.854.397 1.073-2.147.228-2.485.177-.566-.084-1.157-.101-1.69.085a3.33 3.33 0 011.868-1.116zM24.02 49.568c.059-.042.017-.152-.06-.144-1.698.203-2.265 3.465-1.293 4.598.051.059.152.008.152-.06-.025-.794-.185-1.538-.05-2.332.144-.896.583-1.488 1.25-2.062zM24.916 54.58c-.119.295-.06.6.084.87.262.515.964.955 1.547.735.744-.287.769-1.335.279-1.86-.296-.32-.888-.456-1.277-.287-.278-.016-.54.305-.633.541zm.38.151l.009-.016c.354-.44.887-.49 1.284-.051.287.321.203 1.115-.304 1.166-.38.043-.752-.279-.921-.583a.592.592 0 01-.068-.516zM27.18 52.593c-.059.051 0 .161.077.136.836-.296.955-1.124.566-1.86-.397-.727-1.26-1.15-2.062-1.005-.786.143-1.386.879-1.657 1.589-.203.549-.143 1.783.668 1.783.05 0 .084-.051.076-.093-.118-.507-.465-.77-.355-1.344.11-.575.524-1.073 1.014-1.36 1.26-.744 2.899 1.123 1.673 2.154z" fill="#7E7B88"/><path d="M26.25 52.484c.33-.144.271-.499.136-.753a.452.452 0 00-.532-.236.484.484 0 00-.22.135c-.076 0-.135.042-.178.101a.543.543 0 00-.092.254.49.49 0 00.135.397c.186.203.515.212.752.102zm-.405-.338c-.017-.009-.025-.017-.042-.026h-.008s0-.008-.017-.017a.115.115 0 01-.017-.084c.008-.034.017-.06.017-.093a.997.997 0 01.135-.068c.11-.042.144.093.186.178.008.017.017.05.017.05v.017s-.034.034-.009.017c-.008.009-.034.017-.042.026 0 0-.008 0-.025.008-.009 0-.026.008-.034.008h-.034c-.017 0-.11-.008-.068 0-.008 0-.093-.033-.059-.016zM20.073 49.07c-.414 1.47-2.992.143-3.153 1.52 0 .051.06.093.102.076.456-.135.769-.312 1.26-.312.371 0 .718 0 1.072-.118.44-.144 1.108-.626.88-1.167-.026-.076-.136-.093-.161 0zM15.923 47.007c.795-.414 1.707.076 2.544.042.541-.025 2.155-.853 1.648-1.555-.05-.076-.16-.042-.169.042-.034.406-.558.71-.854.88-.439.253-.938.185-1.41.11-.592-.094-1.218-.246-1.793.033-.802.389-1.918 1.352-1.183 2.29.017.026.06.009.06-.025-.085-.879.422-1.437 1.157-1.817zM20.52 47.092c-.024-.076-.134-.085-.16 0-.38 1.36-1.589 1.132-2.721 1.267-.71.085-1.826.533-1.783 1.395 0 .042.05.076.093.05.185-.118.295-.244.44-.422.236-.304.6-.456.954-.566.558-.16 1.158-.076 1.733-.16.735-.11 1.75-.677 1.445-1.564zM30.248 48.064c-.676.667-1.555.312-2.138-.296-.49-.516-.65-1.302-.532-1.978.296-1.673 2.062-1.977 3.456-1.8.068.008.102-.093.06-.135-.753-.727-1.987-.406-2.781.084-.786.482-1.209 1.361-1.25 2.265-.035.896.464 1.741 1.166 2.257.7.515 1.724.54 2.18-.27.06-.102-.076-.204-.16-.127zM29.099 51.047c.228-.06.346-.346.498-.507a.757.757 0 01.339-.194c.084-.026.169-.017.253-.034.06 0 .085-.009.118-.051a.066.066 0 00.017-.068c-.126-.32-.625-.245-.862-.101-.253.16-.634.6-.465.921.017.026.068.043.102.034zM29.539 25.853c0 .06.067.085.11.042.27-.27.397-.625.667-.904.423-.44 1.107-.532 1.674-.448.802.11 1.546.533 2.315.77 1.657.498 2.984-.651 4.26-1.564.017-.009.017-.043-.009-.043-.896.026-1.614.863-2.408 1.192-1.015.423-2.046-.05-2.984-.405-.777-.296-1.572-.5-2.375-.186-.65.245-1.225.845-1.25 1.546zM29.919 18.923c-1.2.49.135 3.71 1.25 3.423a.135.135 0 00.093-.16c-.152-.49-.676-.837-.92-1.294-.356-.642-.381-1.217-.356-1.927-.008-.025-.042-.059-.067-.042zM26.656 19.134c-.016-.126-.16-.169-.236-.067-.693.93-.127 2.56.346 3.456.448.871 1.513 2.164 2.629 1.919.05-.009.084-.093.034-.135-.372-.296-.803-.482-1.175-.786-.431-.355-.76-.795-1.031-1.276-.27-.49-.431-1.032-.533-1.58-.093-.508.017-1.015-.034-1.53z" fill="#7E7B88"/><path d="M31.322 49.754c.372.862 1.2 1.453 2.13 1.572.092.008.1-.119.042-.16-.846-.618-1.817-1.091-1.834-2.283-.009-.786.769-1.386.617-2.214-.237-1.318-1.86-2.426-3.11-1.682-.905.533-.99 2.062-.093 2.629.684.439 2.18-.685 1.377-1.065-.076-.034-.177.067-.101.127.33.261-.364.583-.507.633-.245.093-.524-.008-.702-.177-.355-.338-.279-.997-.067-1.378.76-1.411 2.94.186 2.67 1.428-.194.922-.87 1.547-.422 2.57zM6.272 38.987c-.575.524-1.065.228-1.682.05-.05-.017-.11.034-.085.085.27.65 1.048.642 1.606.372.718-.355 1.175-1.209 1.335-1.961.153-.718-.185-1.335-.608-1.893-.101-.135-.735-.828-.896-.406 0 .009.009.017.009.017.845.338 1.36 1.48 1.166 2.341-.11.55-.44 1.031-.845 1.395zM30.18 49.162c-.354 0-.675.152-1.03.152-.27 0-.516-.101-.735.102-.034.034-.034.093 0 .135.49.498 1.386.135 1.834-.237.059-.05 0-.152-.068-.152zM16.574 32.97c.972-.33.625-1.59.422-2.426 2.375-.144 5.392-.414 6.618-2.704.566.363 1.75.938 2.493.81-.068-.109-.144-.219-.211-.329-.77-.025-1.716-.566-2.198-.955-.101-.084-.279-.093-.346.043-1.175 2.383-4.378 2.442-6.677 2.62-.177.016-.296.16-.253.337.076.355.177.71.262 1.065.118.533-.043.845-.28 1.302-.067.118.035.287.17.236zM17.005 20.994c-1.268 1.445-.076 3.668 1.47 4.352.922.414 2.02.237 2.992.212 1.353-.034 2.316.591 3.406 1.183-.169-.262-.33-.524-.498-.786a6.002 6.002 0 00-1.167-.541c-.845-.279-1.707-.237-2.586-.195-1.124.06-2.146-.042-2.958-.904-.845-.896-1.098-2.146-.54-3.245.025-.06-.06-.144-.119-.076zM8.24 33.105c1.176-.102 1.581-1.074 2.165-1.919.016-.025-.017-.059-.043-.042-.27.194-.49.414-.693.676-.473.634-1.124.964-1.927.845-1.242-.177-1.732-1.546-1.521-2.637.22-1.149 1.47-1.622 2.333-.786.515.499.498 1.268-.153 1.64-.295.169-.836.177-.769-.355.026-.093.06-.186.11-.279.017-.017.026-.025.034-.042.127.11.355-.034.313-.211-.16-.727-.719-.009-.854.312-.262.643.279 1.158.888 1.116.769-.05 1.301-.76 1.25-1.496-.067-.811-.836-1.47-1.605-1.58-1.767-.262-2.51 2.095-1.834 3.405.456.896 1.293 1.437 2.307 1.353zM17.647 19.887h.009a.21.21 0 00.211 0c.287-.153.617-.245.879-.448.093-.068.076-.27-.068-.254-.346.042-.727.127-1.03.321a.217.217 0 00-.102.245c-.017.076.025.127.101.136zM10.658 28.794c-.135.06-.135.288.034.27.236-.016.507.077.735.11.228.034.473.102.71.11.287.017.296-.447 0-.456-.473 0-1.014-.228-1.48-.034zM36.02 30.434c.017-.017.01-.05-.016-.05-1.048-.22-1.386 1.892-1.319 2.568.144 1.429 1.302 2.89 2.823 2.78.076-.008.093-.109.017-.143-1.175-.405-2.054-1.293-2.333-2.51-.203-.862.119-2.096.829-2.645zM33.696 37.212c-.059.135-.101.279-.143.422l.355.71c.05-.465.143-.912.338-1.36.093-.22.363-.6.338-.862 0-.06-.042-.093-.102-.102h-.017c-.05-.008-.076.042-.084.076v.034l.008.017c-.177-.127-.625.887-.693 1.065zM31.018 30.501c-.516.355-1.057.237-1.48-.194.195.313.38.617.558.913 1.124.203 2.375-1.099 2.19-2.215-.128-.769-1.116-.862-1.632-.464-.245.186-.465.54-.372.862.068.253.305.33.516.186.042-.026.05-.076.017-.11-.414-.474.955-1.099 1.005-.245.026.498-.422 1.005-.802 1.267z" fill="#7E7B88"/><path d="M37.23 30.831c-.863.287-.77 1.614-.668 2.324.152 1.057 1.03 1.936 2.12 1.902.077 0 .102-.102.035-.144-.685-.414-1.327-.769-1.615-1.563-.22-.609-.304-1.894.22-2.375.068-.05 0-.178-.093-.144zM13.058 27.096c-.363-.237-.912-.288-1.335-.22-.11.017-.118.177-.034.228.355.195.803.135 1.141.372.237.16.465-.228.228-.38zM10.142 27.02c-.448-.102-.963-.017-1.42-.017-.067 0-.126.101-.059.152.372.296.972.236 1.429.27.228.017.27-.355.05-.405zM7.15 27.552c.018 0 .018-.026 0-.026-1.242-.228-2.383.541-2.873 1.665-.482 1.1-.169 2.806 1.048 3.271.068.025.127-.059.085-.118-.296-.49-.651-.905-.854-1.445-.203-.516-.06-1.175.152-1.665.431-.998 1.412-1.522 2.443-1.682zM7.979 35.775c1.268-1.783 3.634-1.555 4.817.17.609.887.431 1.935-.313 2.661-.524.516-2.687.854-2.712-.346 0-.102-.153-.127-.178-.025-.228.963 1.412 1.293 2.07 1.14 1.142-.261 2.063-1.428 1.818-2.628-.254-1.225-1.268-2.121-2.426-2.502-1.284-.422-2.662.296-3.406 1.336-.143.203.186.389.33.194zM12.965 31.101c.228.009.237-.304.05-.371-.202-.076-.422-.102-.633-.144a1.458 1.458 0 00-.634-.009c-.127.034-.118.212 0 .245.203.06.414.102.617.153.203.042.397.118.6.126zM11.3 31.98c-.118.034-.135.237 0 .262.16.034.355.127.516.195.135.05.448.254.498 0 .051-.237-.295-.313-.456-.372-.16-.06-.372-.144-.558-.084zM5.773 42.215c-.068 0-.093.093-.034.127 1.437.803 2.831-.245 3.55-1.487.845.388 1.732.549 2.67.464 1.082-.101 1.75-.549 2.629-1.132.025-.017.017-.06-.017-.06-.676.034-1.25.5-1.935.61-1.158.177-2.274.05-3.33-.491-.127-.068-.305-.042-.38.101-.651 1.336-1.69 1.86-3.153 1.868zM40.475 48.655c-.16.507-.33.896-.702 1.285-.152.16-.32.33-.456.515.05.119.101.245.144.364.65-.558 1.605-1.327 1.149-2.18-.034-.06-.118-.043-.135.016zM38.133 51.917a7.907 7.907 0 01-.236-.076c-.152-.034-1.36-.16-1.251.127.093.245.744.186.963.253.254.085.49.17.727.263-.059-.178-.127-.372-.203-.567zM42.148 47.075c.11.363.076.727.287 1.056.051.076.153.076.203 0 .465-.701-.177-1.86-.532-2.501-.465-.829-1.158-1.75-1.986-2.223-.085-.05-.195.05-.136.135.482.744 1.125 1.37 1.581 2.138.254.44.44.905.583 1.395zM33.992 53.143c.752-.144 1.412-.22 2.172-.06.6.127 1.133.465 1.724.634.068.017.11-.059.068-.11-.896-1.073-2.848-1.352-4.006-.574-.06.034-.025.118.042.11zM39.604 27.036c-.017.093.093.136.144.06 1.124-1.53 3.634-.068 4.487 1.098.77 1.057.99 2.417.77 3.685-.246 1.42-1.082 2.358-1.987 3.406-.042.05 0 .118.06.101 1.445-.228 2.197-2.113 2.467-3.355.313-1.496-.042-3.16-.997-4.352-.879-1.082-4.47-2.975-4.944-.643z" fill="#7E7B88"/><path d="M43.23 31.44c-.364-2.07-2.984-2.62-4.623-1.707-.288.16-.034.566.253.43 1.243-.549 2.933-.515 3.677.795.507.887.034 2.011-.592 2.688-.684.735-1.817 1.056-2.654.371-.355-.296-.507-.811-.422-1.259.186-1.014 1.648-.203 1.267.304-.05.076.034.186.119.152.87-.33.32-1.081-.28-1.369-.6-.296-1.267-.127-1.58.474-.786 1.53.998 2.772 2.35 2.569 1.504-.203 2.738-1.978 2.485-3.448zM40.897 41.057c-.65-1.065.913-2.07 1.631-2.544.068-.042.051-.169-.042-.16-1.048.084-2.172 1.166-2.214 2.231-.05 1.141 1.344 1.952 2.197 2.383.093.043.186-.067.11-.143-.54-.592-1.268-1.082-1.682-1.767z" fill="#7E7B88"/><path d="M42.824 37.195c1.352.397 2.637-.617 3.499-1.58.997-1.116 1.47-2.536 1.47-4.023-.008-1.462-.49-2.933-1.233-4.184-.693-1.166-1.843-2.417-3.237-2.687-.093-.017-.144.101-.068.16 1.099.753 2.02 1.471 2.747 2.612.701 1.099 1.098 2.392 1.208 3.676.254 2.865-1.69 5.156-4.377 5.849-.093.025-.093.152-.009.177zM21.13 46.804c.016.068.109.076.143.017.118-.194.211-.405.397-.54.177-.119.44-.127.642-.153.321-.025.676-.042.905-.304.017-.017 0-.042-.026-.034-.43.118-.912-.059-1.36.009-.5.084-.837.507-.702 1.005zM35.657 50.7c0-.067-.084-.093-.118-.034-.203.347-.397.685-.676.972-.321.33-.76.465-1.183.592a.026.026 0 000 .05c.963.406 1.977-.642 1.977-1.58zM22.101 44.953c.127.009.254-.008.38-.008.076 0 .592-.118.626-.017 0 .008.017.008.017 0 0-.211-.262-.262-.431-.287-.33-.051-.575.025-.87.152-.068.034-.035.143.033.143.085-.008.17.009.245.017z" fill="#7E7B88"/><path d="M21.822 43.77c.837.076 1.2-.49 1.285-1.242.076-.676-.423-1.082-1.031-.76-.288.151-.727.734-.245.912.042.017.076-.034.05-.068-.177-.262.972-1.191.795.034-.101.71-.685.837-1.268.566-.591-.279-.887-.896-.701-1.52.287-.964 1.403-1.336 2.282-1.083 2.374.685 1.335 3.567 1.293 5.274-.026 1.378.718 2.56 2.079 2.882.084.025.127-.093.059-.135-.507-.338-.947-.634-1.26-1.175-.456-.811-.422-1.758-.287-2.645.203-1.403.423-2.68-.532-3.863-.642-.794-1.876-1.2-2.823-.727-.862.432-1.521 1.344-1.25 2.333.194.634.895 1.158 1.554 1.217zM21.036 48.833c.448-.372.676-.93 1.158-1.268.321-.22.676-.17 1.04-.186.126-.009.228-.042.279-.16 0 0 0-.018-.009-.018-.27-.008-.507-.101-.777-.135-.296-.034-.575.085-.829.228-.507.296-.828.922-.971 1.462-.017.077.067.119.11.077zM34.913 48.055c.474-1.023.22-2.189-.532-2.992-.203-.211-.676-.524-.955-.245-.228.228-.254.448-.194.685-.186.895-.313 1.791 0 2.696.33.98 1.335.608 1.681-.144zm-1.149.16c-.575-.785-.101-1.91-.194-2.83a.828.828 0 01.312-.136c.17.093.313.313.423.456.186.263.304.567.346.888.043.321 0 .65-.067.955-.06.279-.473 1.15-.82.668zM21.518 51.173c.178-.532.254-1.081.524-1.588.313-.584.845-.93 1.42-1.209.05-.025.017-.093-.025-.101-1.31-.17-2.536 1.758-2.046 2.915.026.06.11.034.127-.017zM28.6 28.786c.186.296.364.591.541.87-.22-.667.043-1.403.55-1.952.566-.608 1.479-.98 2.315-.845.87.144 1.496.786 2.155 1.31.55.44 1.133.735 1.843.811.904.093 1.707-.363 2.408-.887.093-.068.043-.228-.084-.203-.82.186-1.445.575-2.324.524-.71-.042-1.302-.533-1.826-.963-.82-.677-1.85-1.294-2.958-1.09-1.284.236-2.4 1.284-2.62 2.425zM12.348 22.43c-.21-.143-.422-.371-.65-.473-.076-.034-.152.034-.11.11.11.237.372.44.575.609.22.186.464.388.743.464.22.068.304-.27.093-.346-.237-.076-.448-.22-.65-.364zM3.964 36.198c-.016-.034-.042-.06-.076-.06-.32.009-.557.584-.667.829-.178.372-.16.693.152.972.008.008.025 0 .025-.017-.16-.338.068-.752.245-1.04.11-.186.414-.44.321-.684z" fill="#7E7B88"/><path d="M39.444 55.907c-.33.067-.71-.153-.98-.305-.533-.304-.964-.752-1.454-1.115-.955-.71-2.696-.727-3.6.093-.068.059 0 .169.084.143.904-.245 1.69-.49 2.637-.22.65.187 1.174.812 1.707 1.218.355.262.735.481 1.15.591-.229.16-.466.321-.702.474-.06-.085-.119-.161-.178-.254-.076-.118-.127-.262-.211-.38a.063.063 0 00-.101 0c-.153.262-.034.6.126.862-.346.22-.701.422-1.065.625.144-.245.245-.499.313-.693.228-.752-.186-1.513-1.03-1.479-.153.008-.178.211-.035.262.313.11.617.186.727.54.093.305-.068.669-.194.939-.127.27-.313.507-.516.718-.135.144-.296.237-.448.338-.515.254-1.048.482-1.58.694-.06.016-.11.042-.17.059a2.396 2.396 0 01-.633-.093 3.444 3.444 0 01-1.073-.567c-.262-.202-.524-.473-.643-.794-.169-.456.212-.752.533-.989.059-.042.025-.143-.051-.127-1.09.229-1.158 1.234-.507 1.978.296.33.837.718 1.403.947-.245.084-.49.16-.744.236-.025 0-.05.009-.076.009-.372.025-.735-.203-1.031-.398-.625-.414-.98-1.2-1.006-1.926-.025-.702.583-.93 1.116-1.184.194-.093.71-.203.82-.422.017-.042.025-.102-.017-.127-.321-.262-1.141.228-1.445.363-.71.33-.99.761-.998 1.555-.008.795.499 1.632 1.116 2.105.152.118.338.22.54.304l-.396.102c-.372-.076-.736-.127-1.1-.338-.532-.322-.819-.93-.996-1.505-.33-1.056-.076-2.375.955-2.924.676-.364 1.495-.364 2.18-.727.609-.33.913-1.048.87-1.724-.067-1.14-1.555-2.054-2.569-1.47-.54.312-.6 1.107-.388 1.622.245.583.895.592 1.208.093.042-.067-.042-.135-.101-.101-.93.49-.913-.888-.474-1.192.22-.152.533-.101.778-.042.66.169 1.116.803 1.006 1.479-.212 1.369-2.257 1.183-3.17 1.86-1.03.768-1.098 2.298-.743 3.422.211.66.743 1.386 1.411 1.783-.372.068-.752.127-1.132.186-.44-.321-.693-.989-.947-1.428-.279-.482-.608-1.057-1.14-1.293-.491-.22-.948.076-1.243.456-.262.338-.389.812-.524 1.2-.16.457-.38.854-.592 1.268-.313-.017-.625-.034-.938-.06 1.031-.861 1.217-2.408.93-3.659-.254-1.124-1.505-2.544-2.696-1.546-.051.042-.009.143.059.135.54-.034 1.023-.093 1.47.279.406.338.592.887.702 1.386.236 1.073 0 2.51-.989 3.135a.282.282 0 00-.127.203 20.265 20.265 0 01-1.25-.169c1.2-.811 2.535-3.22.904-3.465-.076-.008-.17.085-.085.152 1.209.972-.54 2.705-1.521 3.11a.214.214 0 00-.084.068c-.474-.093-.93-.194-1.395-.313 1.226-.32 2.57-1.884 2.172-2.163-.017-.017-.042 0-.05.017-.525 1.267-2.037 1.715-3.263 1.791-.017 0-.025.009-.042.017-.44-.135-.87-.279-1.293-.448.253.009.515-.034.718-.059.414-.06.82-.203 1.2-.355.423-.169.744-.55 1.141-.769.017-.008.009-.034-.008-.034-.6-.008-1.133.414-1.707.567-.415.11-.829.185-1.26.194-.296.008-.558-.11-.845-.05a.075.075 0 00-.05.084.45.45 0 00.067.127c-.355-.153-.71-.305-1.056-.474.448-.042.904-.186 1.233-.279 1.268-.38 2.367-.735 3.373-1.656 1.301-1.192 2.222-3.922.135-4.868-1.488-.676-3.195.794-2.924 2.35.279 1.597 3.321 1.039 2.425-.727-.059-.119-.245-.034-.22.092.127.524.017.939-.54 1.108-.338.101-.786-.017-1.031-.254-.372-.355-.136-1.006.076-1.37.735-1.292 2.518-1.005 2.907.381.44 1.58-1.09 3.06-2.307 3.753-.685.388-1.42.532-2.164.752-.668.203-1.302.253-1.986.101a.186.186 0 00-.118.017c-.288-.16-.567-.321-.845-.498.414-.026.861-.144 1.183-.203.997-.203 1.969-.44 2.865-.93.177-.093.143-.321 0-.431-.845-.617-1.37-1.462-1.429-2.518-.033-.55.186-1.065.415-1.556.118-.253.194-.397.11-.667-.026-.085-.136-.076-.17 0-.21.524-.574.946-.752 1.496-.143.456-.093.946-.008 1.411.143.803.642 1.479 1.25 2.003-.642.296-1.326.49-2.02.642-.752.16-1.487.152-2.239.245-.397-.27-.786-.549-1.166-.845.245.034.482.051.684.06.88.033 2.358-.026 2.95-.77.008-.017 0-.05-.026-.034-.828.296-1.69.305-2.56.322a4.87 4.87 0 01-1.209-.102c-.355-.076-.659-.27-.98-.43a8.484 8.484 0 01-.406-.373c.516.195 1.158.203 1.648.186 1.057-.042 2.096-.38 3.077-.752.1-.042.202-.152.152-.27-.262-.71-.229-1.37-.127-2.105.068-.524.144-1.107.49-1.53.06-.076-.017-.177-.101-.126-.49.253-.592.811-.736 1.31-.21.777-.245 1.606-.025 2.383-.71.254-1.42.473-2.164.6A5.265 5.265 0 0110 54.26c-.465-.068-.87-.305-1.327-.372h-.034a24.51 24.51 0 01-1.006-1.082c.17.093.338.169.508.245.498.237 1.073.27 1.605.228.998-.076 2.3-.524 2.933-1.352.076-.093-.06-.186-.144-.144-.938.414-1.74.913-2.789 1.031-.997.102-1.783-.414-2.696-.693-.194-.245-.389-.49-.574-.743.49.126 1.056.017 1.259-.457.017-.042-.026-.101-.068-.076-.253.152-.49.203-.786.194-.27-.008-.524-.135-.777-.22-.17-.244-.33-.49-.49-.743.228.076.481.101.667.093.592-.017 1.166-.389 1.648-.693.085-.05.026-.169-.059-.152-.414.084-.811.245-1.217.346-.313.076-.634.085-.938-.05-.211-.093-.254-.212-.49-.195a22.931 22.931 0 01-.693-1.267c.346.338.794.574 1.267.659.677.118 1.48-.228 1.488-.998 0-.084-.118-.143-.17-.076-.329.415-.616.71-1.174.668-.524-.042-1.04-.406-1.352-.82-.364-.49-.355-1.065-.025-1.563.49-.736 1.538-.828 2.205-.262.017.017.043 0 .034-.017-.279-.87-1.521-.82-2.138-.397-.482.32-.752.887-.76 1.453-.127-.304-.246-.6-.356-.912-.11-.288-.202-.575-.295-.863.05-.126.11-.245.202-.354.27-.305.736-.398 1.124-.305.11.026.161-.118.068-.177-.44-.296-.947-.254-1.352.084-.068.06-.144.127-.211.212a31.265 31.265 0 01-.482-1.8c.617-.271 1.403.38 1.96.693.837.464 1.623.363 2.443-.136.076-.05.025-.16-.06-.143-.71.143-1.368.338-2.027-.051-.44-.254-.854-.524-1.319-.744-.304-.135-.769-.253-1.116-.16-.025-.11-.042-.212-.067-.322.49-.101 1.006-.279 1.293-.701.034-.05-.025-.127-.076-.101-.423.16-.845.304-1.285.397-.042-.22-.076-.44-.11-.66a4.247 4.247 0 001.59-.523c.7.726 1.656 1.04 2.628.574.912-.44 1.943-1.386 2.189-2.4.008-.042-.043-.084-.077-.042-.616.659-1.039 1.369-1.817 1.876-.971.634-1.977.44-2.73-.406-.058-.067-.177-.076-.253-.033-.499.295-1.014.498-1.589.557-.042-.304-.076-.608-.11-.912.516.008 1.175-.38 1.412-.66.059-.076-.017-.177-.102-.135-.43.203-.887.372-1.352.321-.017-.16-.025-.32-.042-.481.355-.102.66-.296.946-.541.026-.026 0-.076-.042-.068-.304.11-.617.186-.93.254a217.78 217.78 0 00-.025-.516c.347-.076.735-.27.795-.566.008-.06-.051-.093-.093-.05-.195.168-.457.236-.71.27a21.827 21.827 0 01-.009-.744c1.226-.828 2.755-1.336 3.998-.228.853.769.05 2.155-1.031 1.85-.347-.1-.49-.43-.499-.76-.017-.507.642-.583.744-.05.017.067.093.058.127.016.549-.744-.93-1.14-1.217-.338-.39 1.09.726 1.876 1.715 1.53.499-.178.93-.752.964-1.285.042-.668-.296-1.132-.803-1.521-1.251-.947-2.78-.499-3.99.253.01-.202.01-.405.018-.608.879-.49 1.707-.913 2.789-.71.016 0 .033-.025.016-.034-.862-.448-1.935-.38-2.763.11.017-.254.034-.499.059-.752.397-.321 1.056-.397 1.513-.44.701-.067 1.445.017 2.045.398.042.025.101-.026.068-.076-.431-.634-1.42-.736-2.113-.77-.44-.025-.98.026-1.428.212.042-.304.084-.6.135-.896.093-.068.177-.152.27-.211.237-.152.558-.212.828-.127.051.017.085-.06.034-.093-.287-.17-.524-.237-.853-.178a.706.706 0 00-.178.051c.042-.22.093-.448.144-.668.093-.025.186-.05.27-.059.17-.025.406-.05.575-.008.025.008.06-.034.034-.05a1.373 1.373 0 00-.778-.297c.119-.473.254-.938.397-1.403.026-.025.051-.05.068-.093.668-1.673 2.933-2.679 4.513-3.203 1.86-.608 3.863-.777 5.806-.676.203.009.338-.279.17-.414-1.074-.862-2.19-1.513-2.849-2.764-.405-.76-1.073-2.036-.879-2.991.17-.144.347-.296.524-.44.11 1.31 1.26 2.603 2.629 2.257.033-.009.033-.06 0-.068-1.09-.203-1.817-.921-2.08-1.977a2.093 2.093 0 01-.05-.609c.203-.16.405-.321.617-.482.093.828.718 1.513 1.437 1.978 1.191.786 2.73.43 3.837-.355.016-.017.016-.06-.017-.05-1.057.126-2.02.692-3.077.21-.828-.38-1.791-1.208-1.622-2.205.49-.372.988-.736 1.479-1.099-.28.566-.313 1.209.135 1.673.44.465 1.09.668 1.707.406.499-.211.896-.6.82-1.166-.076-.533-.795-.727-1.234-.651-.431.076-.473.55-.101.727.05.025.11-.017.092-.076-.11-.499 1.285-.17.643.524-.397.43-1.074.372-1.488.025-1.03-.862.592-2.332 1.522-2.138.92.194 1.53 1.268 2.163 1.868.44.414.896.338 1.395.21-.051-.084-.11-.168-.161-.253-.245-.042-.499-.101-.71-.22-.363-.202-.634-.625-.904-.929-.516-.558-1.09-1.073-1.843-1.217.482-.228.972-.44 1.47-.625.01.017.01.033.018.05.101.229.253.414.44.566-.305-.473-.584-.904-.829-1.276-1.8.693-3.482 1.665-5.07 2.78-4.125 2.587-7.379 6.762-9.103 11.224C.846 32.133.652 36.773 1.412 41.201c.676 3.938 2.18 7.64 4.615 10.826 3.786 4.961 9.431 8.207 15.601 9.077 6.355.896 12.93-.634 18.137-4.386-.144-.22-.229-.499-.321-.812zM7.328 21.678c.034.178.093.347.144.524-.203 0-.414.017-.617.042.152-.185.313-.371.473-.566zm-.93 1.15c.39-.203.896-.212 1.31-.237.127-.009.229-.118.186-.245-.084-.287-.186-.566-.245-.862-.008-.042-.017-.085-.025-.135.144-.16.279-.313.423-.465.118-.119.236-.228.354-.347.034.237.093.482.127.702.135.786.49 1.513.938 2.172-1.377.203-2.84.372-4.073 1.022-.06.034-.119.068-.17.102.364-.583.753-1.15 1.176-1.707zm-2.062 3.27c.465-.566.955-1.107 1.64-1.436 1.192-.575 2.637-.677 3.921-.88.136-.016.212-.21.127-.32a6.431 6.431 0 01-.989-1.894 7.179 7.179 0 01-.312-1.36c.186-.178.371-.347.557-.516.026.727.423 1.555.651 2.113.27.66.617 1.276 1.082 1.817.44.507 1.014.896 1.563 1.293-1.96-.034-3.93.22-5.78.87-1.006.356-1.986.854-2.815 1.522-.101.084-.228.177-.363.287.228-.507.465-1.006.718-1.496zm21.78 34.49c.008-.033.025-.075.034-.11.093-.244.16-.49.287-.718.143.28.262.567.482.786-.27.017-.533.034-.803.043zm1.115-.059c-.194-.43-.33-.887-.574-1.293-.076-.118-.254-.16-.355-.042-.22.245-.347.524-.457.828-.05.144-.101.296-.152.44-.017.05-.042.101-.068.152-.363.008-.726.008-1.081 0 .346-.448.524-.93.752-1.521.304-.795.803-1.395 1.47-.6.432.498.71 1.411 1.2 1.969-.245.017-.49.042-.735.067z" fill="#7E7B88"/><path d="M6.213 46.424a1.076 1.076 0 00-.71-.05c-.516.134-.676.667-.347 1.072.313.398.803.398 1.158.051a.729.729 0 00.237-.54.564.564 0 00-.119-.305c-.008-.118-.11-.178-.22-.228zm-.11.777c-.127.16-.347.27-.541.16-.203-.117-.338-.413-.119-.574.186-.135.448-.118.651-.034 0 .009.009.017.009.026.008.101.025.203.059.296a.294.294 0 01-.06.126zM50.075 34.313c-.127-1.36-.43-2.688-.82-3.998-.777-2.594-2.02-5.037-3.55-7.268-1.503-2.197-3.397-4.073-5.518-5.68a25.29 25.29 0 00-.972-.684 24.345 24.345 0 00-3.778-2.18c-.574-.313-1.174-.6-1.791-.744a23.34 23.34 0 00-5.654-1.318c-3.144-.321-6.466-.017-9.534.862.136.203.28.414.432.642l.1-.025a26.504 26.504 0 016.044-.845c.43.21.92.32 1.352.532a3.069 3.069 0 011.428 1.564c.482 1.183-.49 2.594-1.724 2.687-1.09.085-1.97-1.031-1.378-2.037.212-.346.719-.304 1.04-.211.152.042.287.127.414.22.49.405-.346.422-.422.143-.034-.135-.254-.11-.254.034.017.6.803 1.15 1.217.482.321-.507-.025-.972-.465-1.234-1.352-.82-2.73.558-2.096 1.97.322.726 1.031 1.081 1.8 1.132.947.067 1.767-.617 2.206-1.395.845-1.487-.236-3.11-1.64-3.879.11 0 .22.008.33.008.584.33 1.243.39 1.8.829.533.43.778 1.056.736 1.724-.068 1.124-.837 2.18-1.234 3.211-.38.972-.38 1.91.101 2.848.516 1.006 1.674 1.792 2.823 1.69.008 0 .017-.016 0-.025-1.42-.38-2.797-1.622-2.797-3.186 0-1.14.76-2.24 1.191-3.262.355-.845.49-1.724.076-2.56-.228-.457-.65-.863-1.14-1.133 1.056.127 2.104.338 3.126.617.727.203 1.437.44 2.13.71.009.025.009.042.017.067.685 1.504-3.719 1.58-3.583 3.237a.097.097 0 00.177.05c.744-1.14 4.226-1.419 4.032-3.084.43.178.853.372 1.267.583.009.042.017.093.05.135.93 1.175-2.239 1.725-2.864 2.012-.803.363-1.521.972-1.521 1.918-.009 1.572 1.935 2.815 3.363 2.62 1.217-.169 2.527-2.772.778-3-.609-.076-1.26.152-1.724.54-.39.322-.364.888.127 1.091.135.06.228.068.371.06.068 0 .11-.085.06-.136-.102-.093-.431-.27-.406-.431.034-.177.304-.313.44-.38.329-.178 1.005-.389 1.335-.119.465.39-.338 1.48-.685 1.7-.591.371-1.377.092-1.927-.229-.558-.33-1.04-.879-1.191-1.521-.195-.854.65-1.412 1.326-1.69.761-.313 3.55-.956 3.263-2.156.371.203.743.414 1.098.643a.967.967 0 01-.152.346c-.152.195-.363.355-.558.507-.312.237-.828.482-.92.896-.01.042.025.093.067.093.515-.008 1.048-.414 1.428-.727.211-.169.524-.482.634-.803.338.22.668.448.989.676a8.099 8.099 0 00-1.285.676c-.287.195-.887.617-.744 1.04.009.009.017.017.026.017.16-.042.296-.17.43-.27.246-.186.516-.338.778-.482.423-.22.862-.414 1.302-.6.456.346.887.701 1.31 1.082-1.36-.229-2.941.355-3.668 1.453-.026.034.025.076.06.06.853-.567 1.74-.981 2.78-.99.71-.008 1.301.229 1.901.49.135.136.262.271.397.406a4.308 4.308 0 00-1.326-.287c-1.21-.042-2.147.77-2.925 1.589-.853.904-1.614 1.716-2.882 1.927a4.684 4.684 0 01-1.75-.05c-.6-.145-.895-.525-1.368-.846-.026-.017-.043.008-.043.025-.1.905 1.243 1.327 1.902 1.429.955.152 1.995.008 2.84-.474 1.065-.608 1.699-1.75 2.662-2.484 1.428-1.09 2.806-.27 4.099.515.38.465.752.947 1.099 1.445-.786-.414-1.648-.718-2.443-.972-.997-.312-3.06-.54-2.755 1.09.008.026.05.026.05 0 .339-1.41 2.3-.625 3.195-.304.88.322 1.724.753 2.586 1.124a24.066 24.066 0 013.39 8.393c-.06.38-.144.76-.237 1.14-.228.939-.49 1.826-.972 2.671-1.073 1.885-3.068 2.975-4.724 4.268-.11.085-.102.296 0 .389 1.183 1.023 1.901 2.358 2.315 3.845.228.82.423 1.657.524 2.502.051.397.042.803.017 1.2-.034.431-.186.845-.169 1.276-.11.17-.22.33-.338.499.178-1.479-.245-2.975-.701-4.412-.085-.27-1.184-2.501-1.547-2.045-.009.008-.017.034 0 .042.49.693.82 1.59 1.099 2.384.279.803.473 1.64.566 2.484.05.448.05.896.017 1.336-.009.16-.102 1.166-.262 1.25-.085.043-.127.136-.127.229-.287.355-.583.701-.887 1.04l.025-.085c.203-.812.127-1.817-.178-2.595-.025-.05-.1-.042-.1.017-.018.777.109 1.521-.035 2.299a3.361 3.361 0 01-.481 1.15c-.17.143-.339.286-.516.422l-.169.118c.017-.592-.262-1.25-.65-1.614l-.018.008c.043.39.212.744.296 1.133.127.55-.135.879-.38 1.293.11.279.203.54.296.786 4.454-3.803 7.572-9.162 8.35-14.993.143-1.09.21-2.189.21-3.288.204-.946.381-1.901.288-2.89zm-1.96 9.592c-.068-.549-.195-1.073-.516-1.546.372-.296.795-.642 1.124-1.04-.152.87-.355 1.733-.608 2.586zm.735-3.422a9.598 9.598 0 01-1.682 1.681c-.093.076-.068.212 0 .296.558.71.499 1.58.625 2.426a26.2 26.2 0 01-.693 1.741c-.025-.803-.185-1.64-.346-2.35-.118-.532-.279-1.048-.541-1.521-.118-.22-.245-.423-.355-.642-.279-.55.254-.854.609-1.15.955-.794 1.681-1.808 2.315-2.865l.288-.481a21.59 21.59 0 01-.22 2.865zm-.178-2.908c-.304.49-.617.964-.972 1.42-.371.473-.794.913-1.233 1.327-.38.355-.871.6-1.133 1.065-.406.71.524 1.69.735 2.316a9.99 9.99 0 01.431 2.172c.051.583-.05 1.267.085 1.85-.152.305-.313.592-.482.888.102-1.251-.22-2.57-.515-3.736-.398-1.555-1.116-2.983-2.282-4.09 1.825-1.395 3.769-2.603 4.792-4.758.355-.753.566-1.572.727-2.392.16 1.082.253 2.172.27 3.262-.135.237-.296.465-.423.676z" fill="#7E7B88"/><path d="M20.867 15.72c-.27-.06-.583-.101-.904-.152.11.16.22.321.33.49.33.05.659.11.971.211.955.288 1.58.837 2.341 1.429.017.017.051 0 .043-.026-.338-1.15-1.716-1.724-2.78-1.952zM35.378 57.394c.541-.55-.017-1.403-.625-1.606-.423-.144-.913.068-1.183.397a.783.783 0 00-.186.524c-.102.364.025.77.43.955.5.228 1.184.118 1.564-.27zm-1.58-.904a.862.862 0 01.152-.153c.27-.203.65-.245.921-.025.288.245.457.65.093.887-.262.17-.676.237-.963.102-.33-.144-.254-.507-.203-.812zM24.983 23.14c.06.085.11.177.169.262.042-.085-.042-.177-.169-.262zM14.807 45.799c-.185-.195-.447-.296-.684-.431a6.87 6.87 0 01-.93-.626c-.262-.211-.405-.372-.312-.701.008-.042-.034-.085-.076-.076-.567.152 0 .879.202 1.065.431.397 1.074.878 1.648 1.022.186.034.28-.127.152-.253zM25.989 24.01c-.178 1.116 2.054 1.59 2.764 1.193.059-.034.059-.127 0-.161-.398-.211-.87-.16-1.302-.22a2.432 2.432 0 01-.76-.245c-.271-.144-.406-.38-.626-.575-.017-.033-.068-.025-.076.009zM33.697 43.474c.304.288.692.085.82-.253-.178-.372-.364-.752-.55-1.141-.16-.017-.321.025-.397.169a.333.333 0 00-.042.169c-.017.034-.043.068-.051.11-.026.11-.026.228-.017.338.017.22.068.456.236.608zm.43-.845a.685.685 0 01-.008.533c-.093.169-.211-.06-.236-.152-.034-.119-.026-.245-.034-.372 0-.06-.017-.11-.034-.16.093-.043.262.016.313.151zM31.187 25.6c-.017.034.016.084.059.059.963-.65 2.358.473 3.22.87.042.017.093-.025.067-.067-.414-.744-2.797-2.037-3.346-.862zM24.375 21.78c-.136-.212-.322-.355-.516-.516-.076-.06-.152-.127-.228-.186.152.228.296.457.448.685.067.042.143.076.22.11.059.017.1-.051.076-.093zM28.507 26.166c.06-.034.11-.118.102-.186 0-.068-.017-.102-.06-.152-.067-.076-.177-.076-.261-.034-.254.118-.49.254-.736.38-.152.085-.312.144-.473.22.068.11.135.211.203.321.431-.084.87-.38 1.225-.55zM38.742 25.025c-.515.482-.989 1.04-1.58 1.428-.617.406-1.285.17-1.834-.27-.06-.05-.16.008-.119.093.313.575.643.997 1.361.963.617-.025 1.141-.473 1.572-.87 1.031-.947 2.113-2.738 3.727-1.936.017.009.042-.016.026-.033-1.09-.913-2.257-.212-3.153.625zM22.853 18.331c-.456-.203-.93-.355-1.394-.524.152.229.313.465.465.702.6.211 1.174.44 1.665.862.524.456.82 1.14 1.284 1.656.034.034.085 0 .068-.042-.38-1.15-.947-2.13-2.088-2.654zM28.22 31.972c-.27-.422-.558-.879-.862-1.36.144.473.414.912.811 1.318a.086.086 0 01.05.042zM28.82 27.053c.085-.093.11-.228.152-.346.034-.093-.084-.17-.16-.127-.152.085-.28.127-.415.245a3.633 3.633 0 00-.456.499c-.05.067-.093.135-.135.203.067.101.127.203.194.304.152-.16.355-.304.457-.406.118-.127.245-.245.363-.372zM22.98 23.985c-.127-.169-.406.051-.296.229.28.43.71.752 1.192.98-.178-.27-.355-.55-.533-.82a5.443 5.443 0 01-.363-.389zM33.739 29.428c-.457.448-.735 1.031-1.183 1.504a4.029 4.029 0 01-1.91 1.133c-.017 0-.026.008-.043.008.093.152.178.305.262.457.609-.186 1.15-.533 1.64-.947.591-.49 1.327-1.301 1.301-2.121.009-.042-.042-.068-.067-.034zM22.034 26.453c-.22.127-.423.288-.626.44-.135.093-.44.33-.6.304-.025 0-.06.026-.042.05.211.288.625.077.887-.05.203-.093 1.04-.456.609-.744-.06-.042-.16-.033-.229 0zM18.188 21.644c-.279.77.06 1.522.541 2.13.465.583 1.099.76 1.817.617.558-.11 1.048-.532 1.166-1.09.11-.524-.21-1.167-.76-1.251-.82-.127-1.657 1.191-.558 1.369.034.008.06-.034.026-.06-.643-.329.506-1.537.853-.447.287.896-1.006 1.209-1.623 1.04-.447-.127-.777-.66-.971-1.04-.296-.575-.17-1.141.228-1.614.524-.626 1.428-.719 2.172-.448-.102-.152-.195-.305-.296-.457a2.029 2.029 0 00-1.065-.059c-.65.127-1.302.685-1.53 1.31zM19.844 18.948c-.067-.102-.135-.203-.202-.312.042.135.11.236.202.312zM37.779 50.945a6.084 6.084 0 00-.136-.355 3.988 3.988 0 01-.659.524c-.017.009-.017.043.009.051.279.068.549-.042.786-.22zM37.34 40.973c-.01-.034-.018-.068-.035-.102-.008-.025-.017-.042-.017-.042.009-.101-.059-.22-.185-.169-.229.085-.186.389-.136.575.06.203.127.575.355.65.102.034.195-.042.228-.135.06-.143-.084-.371-.126-.498-.026-.093-.051-.186-.085-.28zM37.948 43.508c-.11.212-.076.457.017.668.092.211.33.465.583.44.186-.017.338-.254.169-.406-.118-.11-.228-.152-.321-.287-.085-.136-.127-.288-.212-.415a.135.135 0 00-.236 0zM37.787 37.271a2.26 2.26 0 00-.65.583c-.17.228-.356.6-.17.862.085.127.254.127.347 0 .067-.101.076-.203.101-.32a.823.823 0 01.152-.297c.144-.211.347-.363.482-.583.093-.143-.102-.338-.262-.245zM19.464 26.394c-.549-.16-1.166-.237-1.732-.296-.076-.008-.144.05-.186.11-.042.068-.034.093-.025.17a.213.213 0 00.152.151c.558.16 1.242.102 1.791-.067.043 0 .043-.06 0-.068zM38.843 48.74c-.017-.093-.143-.06-.152.017a.648.648 0 01-.017.126l.178.431a2.191 2.191 0 00-.009-.574zM35.184 39.325a5 5 0 01.389-1.564c.211-.498.575-.912.811-1.403a.056.056 0 00-.076-.076c-1.25.634-1.614 2.274-1.606 3.677.203.43.406.853.609 1.276a6.886 6.886 0 01-.127-1.91zM38.032 47.345c.06.06.16.076.237.034.22-.144.152-.448.059-.65-.093-.204-.245-.356-.347-.542-.059-.11-.21-.067-.245.034-.059.178 0 .338.076.507.043.093.076.195.11.296.017.068.026.127.034.186.017.034.025.068.042.101.009 0 .017.017.034.034zM9.213 37.212c-.212-1.031 1.555-1.42 2.273-1.099.778.355 1.04 1.336.313 1.868-.245.177-.55.253-.845.203-.296-.051-.406-.321-.406-.575.008-.068.025-.135.034-.211.177-.288.338-.305.473-.06-.084.11-.008.296.144.246.397-.11.236-.584-.076-.71-.473-.186-.87.084-.921.6-.136 1.411 1.63 1.318 2.256.44.811-1.142-.575-2.477-1.74-2.342-.643.076-2.469.812-1.598 1.699.034.05.11 0 .093-.06zM10.26 42.63c.922.464 1.987.447 2.866-.136.033-.025.008-.076-.026-.068-.938.262-2.011.288-2.848-.278-.118-.085-.262.008-.313.126-.278.786-1.242 1.953-2.214 1.556-.067-.026-.11.067-.067.118.895.989 2.197-.347 2.603-1.319zM14.131 47.007c.093-.54-1.09-.879-1.453-1.04-.33-.143-.668-.287-.947-.515-.38-.321-.346-.744-.372-1.192 0-.084-.11-.118-.152-.042-.44.744.034 1.454.676 1.851.372.228.786.372 1.183.55.288.126.676.523.998.473a.169.169 0 00.067-.085zM13.658 29.268c.212.067.431.135.634.21.228.094.44.23.676.297.237.067.38-.28.17-.397-.406-.22-1.006-.508-1.48-.39-.135.043-.126.237 0 .28zM13.177 33.409c.895.93 1.284 1.943 1.284 3.22 0 .152.152.27.304.228 1.014-.28 2.003-.702 2.848-1.344.093-.068.043-.228-.084-.194-.896.27-1.716.71-2.603.988-.11-1.276-.592-2.222-1.699-2.966-.042-.017-.076.034-.05.068zM18.315 27.805a1.442 1.442 0 00-.66.051c-.16.05-.117.262.035.28.49.041.98.27 1.479.168.295-.059.169-.507-.127-.448-.237.042-.49-.017-.727-.05zM9.897 50.633c.617.236 1.234.118 1.826-.144.481-.211 1.352-.794.997-1.411-.05-.085-.169-.06-.194.025-.254.828-1.116 1.268-1.953 1.276-.726.009-1.267-.592-1.462-1.242-.16-.541-.025-1.175.575-1.336.423-.11.786.068 1.073.364.127.127.229.296.296.465.152.414-.625.44-.405-.06a.037.037 0 00-.051-.05c-.592.253-.237.82.296.803.515-.017.676-.524.481-.938-.464-1.006-2.037-1.522-2.62-.33-.448.93.22 2.223 1.141 2.578zM8.47 46.948c.253.178.641-.042.785-.254a.356.356 0 00.009-.405c-.085-.119-.203-.152-.33-.144l-.017-.017a.326.326 0 00-.186-.093.5.5 0 00-.389.119.483.483 0 00-.169.371c.026.186.16.33.296.423zm.05-.6a.243.243 0 01.169-.076c.025 0 .059.008.076.025.008.009.034.017.05.026l.077.05c.034.026.067.06.093.093v.042s-.017.034-.017.051c-.06.119-.195.203-.338.16a.232.232 0 01-.11-.371zM13.286 48.173c-.414-.532-.98-.887-1.555-1.225-.397-.228-.828-.406-1.107-.778-.262-.355-.397-.81-.448-1.25-.008-.085-.127-.136-.169-.043-.296.609.118 1.327.516 1.792.279.33.811.524 1.183.735.49.288.946.6 1.301 1.057.152.203.431-.085.28-.288zM15.365 31.397a1.943 1.943 0 00-.912-.346c-.136-.017-.203.211-.068.27.144.06.279.118.414.186.127.068.245.152.372.22.22.127.38-.186.194-.33z" fill="#7E7B88"/><path d="M15.027 33.324c-.05-.05-.135 0-.118.068.16.566.38 1.124.507 1.699.017.084.127.152.211.118.55-.228.938-.66 1.454-.93.034-.017.017-.076-.025-.076-.516.017-.896.389-1.344.6-.102-.549-.27-1.073-.685-1.479zM14.824 27.332c-.101-.034-.143.093-.093.16.127.153.254.246.423.33.16.085.33.136.465.254.186.177.482-.11.287-.287-.304-.27-.71-.33-1.082-.457zM15.551 21.07c-.371.22-.701.355-1.132.389a1.976 1.976 0 01-.592-.034c-.143-.026-.27-.102-.422-.068-.076.017-.119.102-.102.178.127.414.947.346 1.268.296.372-.051 1.056-.237 1.065-.719 0-.034-.05-.06-.085-.042zM15.712 25.912c.093-.033.143-.185.034-.236-.152-.068-.313-.102-.474-.16-.16-.068-.312-.195-.481-.237-.16-.043-.28.126-.203.27.093.186.338.27.524.338.177.06.422.093.6.025zM15.636 23.453c-.363.05-.76-.093-1.124-.152-.144-.026-.228.152-.102.236.364.229.854.364 1.277.313a.201.201 0 00-.051-.397z" fill="#7E7B88"/></svg>