<svg width="16" height="16" fill="none" xmlns="http://www.w3.org/2000/svg"><path d="M15.497 8.212s-.017.177-.042.515c-.009.16-.043.38-.093.642-.034.262-.11.55-.212.863a7.528 7.528 0 0 1-1.022 2.12 7.617 7.617 0 0 1-5.519 3.271c-1.26.11-2.611-.059-3.87-.616-1.268-.558-2.342-1.522-3.263-2.654C.572 11.195.132 9.683.106 8.186c.01-.727.094-1.504.305-2.23.22-.72.524-1.412.93-2.038a8.296 8.296 0 0 1 1.453-1.665c.567-.464 1.175-.87 1.826-1.157A7.907 7.907 0 0 1 8.626.453 8.042 8.042 0 0 1 12.1 1.696a8.055 8.055 0 0 1 2.214 2.197c.532.777.811 1.563.963 2.214.085.321.136.617.16.88.035.253.06.472.052.658 0 .355.008.541.008.541v.026zm-.76-.017s-.018-.17-.043-.49a6.792 6.792 0 0 0-.287-1.344c-.186-.558-.448-1.234-.896-1.919-.448-.684-1.065-1.403-1.91-1.969a7.095 7.095 0 0 0-3.026-1.132 6.976 6.976 0 0 0-3.608.524 7.245 7.245 0 0 0-3 2.476 7.48 7.48 0 0 0-.897 1.825 7.713 7.713 0 0 0-.33 2.029c.01.693.102 1.377.28 2.045.203.66.473 1.293.803 1.902.667 1.234 1.817 2.112 3.025 2.645 1.209.532 2.544.71 3.736.55a7.305 7.305 0 0 0 3.152-1.21 7.086 7.086 0 0 0 1.952-2.062c.465-.71.693-1.428.837-2.002.068-.296.127-.558.144-.778.034-.22.05-.414.05-.592.009-.338.009-.515.009-.515l.008.017z" fill="#7E7B88"/><path d="M1.256 11.465c.144-.684.643-1.656 1.48-1.453.413.101.844.405 1.292.253.896-.296 1.023-1.411.339-2.011-.034-.026-.077.008-.06.042.262.55.39 1.707-.591 1.538-.237-.042-.457-.169-.685-.245-.355-.118-.684-.169-1.04-.017-.659.27-1.123 1.217-.954 1.893.025.11.194.11.22 0zM.53 9.395c.312-.28.481-.617.87-.812.6-.304 1.2-.185 1.843-.236.076-.009.143-.11.076-.178-.507-.43-1.217-.397-1.809-.143-.608.262-.947.65-1.107 1.293-.017.076.076.126.127.076zM.758 6.234c2.222-1.809 3.904 1.2 6.017 1.234 1.42.025 2.612-1.065 3-2.341.026-.085-.093-.17-.16-.093C8.55 6.327 7.113 8.043 5.169 6.445c-.456-.372-.887-.634-1.445-.828-1.056-.38-2.34-.397-3.05.558-.043.042.041.093.084.059z" fill="#7E7B88"/><path d="M5.178 5.093c.955.676 1.648.592 2.67.085.727-.364 1.285-1.1 1.919-1.58 1.513-1.142 3.245.48 3.964 1.605.067.101.202.05.22-.06.185-1.436-1.708-2.197-2.874-2.383C8.643 2.38 7.899 6.158 5.228 5c-.059-.017-.11.05-.05.093zM9.344 7.747c.913-.634 2.443-1.31 3.559-1.006.507.135.946.499 1.31.854.388.38.414.87.701 1.293.06.084.178.093.228 0 .626-1.014-1.014-2.18-1.775-2.544-1.36-.643-3.194.236-4.124 1.268-.068.067.017.194.101.135z" fill="#7E7B88"/><path d="M14.533 11.364c-.202-1.225-1.74-3.144-3.101-3.178-.575-.017-1.293.136-1.598.71-.228.431-.33.795-.422 1.276-.473 2.417-3.28 1.031-3.77-.169-.076-.194-.405-.194-.397.051.093 1.707 2.198 2.164 3.584 1.792.896-.237 1.073-1.2 1.217-1.961.473-2.51 2.704-.473 3.237.06.447.447.726 1.005 1.115 1.495.05.085.144 0 .135-.076z" fill="#7E7B88"/><path d="M3.758 12.26c1.04 1.03 2.316 1.546 3.786 1.682 1.936.177 3.27-.592 4.251-2.257.068-.118-.084-.22-.186-.144-1.293 1.023-2.282 1.97-4.065 1.868-1.327-.076-2.611-.43-3.66-1.276-.092-.068-.21.05-.126.127zM3.251 3.673c.347.837 1.53.803 2.29.65.71-.143 1.572-.362 2.155-.836.812-.65 1.361-1.546 2.384-1.918.042-.017.05-.068.017-.102-.617-.397-1.167.212-1.623.634-.718.668-1.2 1.183-2.164 1.555-.777.305-2.273.643-2.974-.025-.043-.025-.102 0-.085.042zM3.733 2.321c.355.296.794.279 1.234.279.676 0 1.36-.093 1.918-.507.101-.076.042-.22-.084-.195-.55.102-1.065.296-1.623.347-.406.042-.997.169-1.37-.008-.067-.026-.126.042-.075.084zM1.577 12.218c.237-.009.39-.161.567-.296.253-.203.532-.355.786-.558.042-.034.033-.127-.017-.144-.566-.245-1.268.38-1.403.921-.009.034.025.077.067.077zM11.795 10.857c.313.27.541.558.786.896.203.278.305.6.49.887.093.144.313.16.398 0 .22-.406-.152-.837-.397-1.15-.322-.414-.761-.549-1.234-.718-.043-.017-.076.05-.043.085z" fill="#7E7B88"/></svg>