<svg width="46" height="46" fill="none" xmlns="http://www.w3.org/2000/svg"><path d="M7.074 9.256c-1.082.684-1.894 1.859-2.494 2.958-.65 1.2-1.217 2.552-1.081 3.938.008.06.084.068.101.017.456-1.234.854-2.493 1.462-3.668.583-1.141 1.327-2.147 2.07-3.178.026-.042-.025-.093-.058-.067z" fill="#7E7B88"/><path d="M5.924 12.636c-1.132.786-1.884 2.67-1.563 4.006.017.076.135.076.152 0 .372-1.403.786-2.67 1.453-3.964.017-.025-.016-.059-.042-.042zM7.927 8.3c.609-.363 1.099-.904 1.623-1.369a19.233 19.233 0 0 1 2.24-1.724c.05-.033.016-.135-.043-.11-1.487.617-3.034 1.733-3.938 3.094-.05.067.042.152.118.11zM8.806 8.546c.718-.524 1.37-1.133 2.138-1.58.051-.034.009-.102-.05-.077-.82.398-1.615.837-2.172 1.59-.026.033.042.1.084.067zM42.89 19.338c.128 1.242.263 2.451.195 3.702-.076 1.437-.279 2.916-.482 4.335-.016.11.136.161.17.043.82-2.57 1.377-5.536.253-8.122-.025-.06-.144-.034-.135.042zM42.096 22.178c.076 1.023-.16 2.02-.253 3.034-.009.11.143.11.177.025.38-.963.558-2.07.178-3.067-.017-.06-.102-.051-.102.008zM42.51 29.2c-.616 1.674-1.31 3.432-2.484 4.81-.068.084.033.186.11.118 1.462-1.25 2.51-2.924 2.484-4.91-.008-.068-.093-.068-.11-.017zM41.184 30.773c-.39.786-.846 1.436-1.539 1.986-.067.059.009.177.093.152.913-.287 1.496-1.158 1.547-2.113-.008-.05-.084-.067-.101-.025zM40.33 21.29c.05.524.254.998.262 1.547.017.71-.068 1.437-.186 2.138-.228 1.335-.66 2.84-1.809 3.66-.718.515-1.724.405-2.332-.229-.431-.456-.499-1.2-.397-1.791.11-.634.524-1.175 1.191-1.226.829-.067 1.116 1.268.17 1.37-.119.016-.119.168 0 .185.718.093 1.064-.414.929-1.09-.152-.744-.887-1.006-1.547-.837-1.665.415-1.572 3-.549 3.956.77.718 1.97.65 2.814.127.955-.592 1.378-1.649 1.724-2.663.322-.92.44-1.969.465-2.94.017-.6.034-2.012-.676-2.266-.025 0-.059.026-.059.06zM41.8 19.879c.17-.676.288-1.344.575-1.978.296-.633.795-.946 1.243-1.445.135-.152 0-.346-.186-.32-.702.109-1.2.929-1.488 1.503-.346.677-.532 1.496-.33 2.24.026.093.161.101.187 0zM41.632 17.09c-.136-.253.397-.744.549-.887.304-.288.642-.482 1.014-.66.194-.092.05-.38-.144-.338-.524.119-.963.592-1.276.998-.177.236-.44.65-.194.92.017.035.067 0 .05-.033zM6.702 11.782c.296-.338.54-.701.794-1.064.28-.406.676-.736.88-1.192.033-.068-.018-.152-.094-.127-.448.135-.718.499-.989.854-.33.43-.591.904-.777 1.411-.05.11.11.203.186.118zM3.127 17.115c-.643 1.412-.888 3.356-.668 4.877.009.059.101.05.118 0 .22-.719.262-1.429.33-2.172.085-.896.254-1.784.321-2.68 0-.05-.076-.067-.101-.025zM4.25 17.8c-.227-.05-.287.169-.337.355a1.102 1.102 0 0 0-.017.372c.008.101.076.194.11.253.025.043.084.06.127.017.1-.11.135-.236.135-.405 0-.178.025-.38 0-.55.008-.025 0-.042-.017-.042zM3.845 20.006c-.186.963-.152 2.079.186 3.009.017.05.085.042.093-.017.11-.955.06-1.995 0-2.958-.008-.144-.245-.195-.279-.034zM5.197 19.93c-.27.786-.169 1.867.415 2.501.583.634 1.36.862 2.205.93 1.877.152 4.522-1.082 6.018.499.05.059.143 0 .127-.076-.415-1.708-3.06-1.15-4.294-1.006-.896.101-1.825.194-2.713-.026-1.25-.32-1.766-1.64-1.715-2.822-.009-.017-.043-.017-.043 0z" fill="#7E7B88"/><path d="M5.586 16.084c-.279.727-.127 1.513-.008 2.257.101.667.253 1.31.574 1.91.583 1.082 2.155 1.69 3.22.946.043-.034.034-.118-.033-.118-1.327.118-2.4-.017-3.035-1.318-.524-1.082-.574-2.494-.616-3.66.008-.067-.077-.076-.102-.017z" fill="#7E7B88"/><path d="M8.426 11.149c-.989.659-1.302 2.104-1.682 3.16-.499 1.361-.634 3.094.338 4.252.017.025.05 0 .042-.026-.32-1.386-.338-2.738.034-4.116.296-1.081.558-2.366 1.302-3.237 0-.016-.017-.05-.034-.033zM2.518 22.837c.11 1.488 1.564 2.07 2.857 2.197.786.085 1.589 0 2.366-.101 1.014-.144 1.995-.499 3-.625.051-.009.06-.068.009-.085-.744-.313-1.53-.008-2.29.135-.71.136-1.429.22-2.155.254-1.59.067-2.958-.321-3.753-1.784-.008-.008-.034-.008-.034.009zM17.63 23.445c-.161.229-.254.474-.44.685-.347.38-.811-.093-.921-.389-.17-.465.025-1.03.279-1.42.397-.608 1.301-.464 1.867-.22.643.288 1.133.905 1.2 1.607.153 1.664-1.901 2.628-3.27 2.256-1.276-.346-2.358-1.563-3.761-1.115-.076.025-.085.135 0 .152 1.175.262 2.13.895 3.228 1.318.955.372 1.877.33 2.798-.144.777-.405 1.42-1.25 1.513-2.13.101-.938-.398-1.707-1.141-2.23-.66-.474-1.606-.6-2.35-.271-.6.27-.87 1.031-.938 1.631-.068.617.22 1.226.803 1.454.803.312 1.073-.558 1.2-1.158.017-.042-.042-.06-.068-.026z" fill="#7E7B88"/><path d="M7.919 14.326c-.372 1.352-.304 3.034.43 4.26a2.87 2.87 0 0 0 1.522 1.225c.972.338 1.86-.059 2.637-.634.042-.033.017-.101-.034-.084-1.513.524-2.966.49-3.828-1.006-.651-1.132-.82-2.468-.651-3.744-.009-.05-.068-.05-.076-.017zM7.429 19.27c-.127.203.059.516.202.66.195.186.541.397.812.262.05-.026.059-.085.034-.127-.093-.194-.339-.279-.508-.389-.101-.067-.194-.152-.295-.211-.085-.05-.136-.135-.22-.195 0-.008-.017-.008-.025 0zM10.69 21.265c.246.186.516.152.82.135.482-.017.956.06 1.429.11.44.05.854.152 1.234.38.33.195.44.558.76.744.043.026.119 0 .127-.05.102-.66-.659-1.1-1.191-1.302-.398-.152-.862-.195-1.293-.211-.643-.026-1.251.152-1.877.135-.025.008-.025.042-.008.059zM14.114 20.023c.084.245.549.371.752.464.177.085.355.195.498.339.11.118.144.245.296.33.026.008.051.016.076 0 .39-.263-.118-.71-.363-.846-.211-.118-.457-.186-.693-.245-.16-.042-.38-.135-.541-.085a.047.047 0 0 0-.025.043zM20.207 21.552c.406.313.752.617.938 1.108.17.447.178.954.228 1.42.076.659.186 1.343.702 1.808.76.701 2.163.668 2.704-.262.49-.828 0-2.299-1.115-2.012-.355.093-.693.398-.77.77a.583.583 0 0 0 .635.684c.076-.008.11-.118.076-.177-.17-.28-.44-.39-.119-.702.288-.287.719-.253.93.093.634 1.082-.54 1.843-1.488 1.589-1.115-.296-1.123-1.597-1.25-2.527-.119-.879-.533-1.64-1.429-1.868-.033-.008-.076.043-.042.076zM9.127 25.905c.626-.414 1.429-.178 2.088.05.405.144 1.056.71 1.496.618.05-.009.084-.06.084-.11-.017-.609-1.327-.938-1.783-1.074-.634-.194-1.673-.363-2.062.347-.06.101.067.245.177.169zM25.523 23.741c.152.448.338.87.38 1.344.043.499-.287.837-.32 1.293-.01.068.075.119.135.102.507-.144.616-.786.6-1.251-.017-.558-.338-1.141-.71-1.538-.034-.026-.093.008-.085.05zM26.841 24.595c.127.228.246.422.203.693-.033.237-.203.431-.203.676 0 .068.068.102.127.093.355-.05.524-.465.55-.786.025-.338-.237-.684-.516-.837-.11-.042-.22.06-.16.161zM28.143 25.28c.042.092.034.21.05.312.018.119.018.237 0 .355-.016.076.085.119.128.05.101-.143.185-.261.194-.439.008-.177-.135-.27-.254-.363-.067-.06-.16 0-.118.085z" fill="#7E7B88"/><path d="M12.212 13.093c-1.792-.49-3.414 1.808-2.857 3.414.5 1.428 2.612 2.18 3.559.769.059-.093-.06-.186-.144-.144-.524.28-1.04.533-1.648.423-.592-.11-1.04-.566-1.31-1.082-.752-1.462.972-3.27 2.392-3.347.025.009.025-.025.008-.033zM9.981 9.678c-.583.702-1.445 1.978-.414 2.722.55.397 2.045.473 2.206-.415.017-.075-.043-.135-.119-.118-.287.06-.507.254-.794.338-.338.102-.71.051-1.014-.127-.896-.523.025-1.698.203-2.366.008-.034-.043-.067-.068-.034zM9.127 13.245c-.363.126-.591-.195-.65-.516-.051-.253-.44-.143-.39.102.052.27.187.54.449.667.245.119.473.009.659-.16.034-.034-.009-.119-.068-.093zM6.034 35.04c-.22-.295-.406-.565-.482-.929-.11-.507.186-.896.719-.76.549.135.92.879 1.09 1.36.11.313.101.6-.042.896-.212.456-.507.355-.846.127-.1-.068-.236.042-.202.16.11.406.397.592.811.533.397-.05.65-.55.77-.879.312-.862-.415-1.97-1.074-2.46-.609-.456-1.505-.21-1.648.558-.102.533.236 1.437.87 1.454.034-.008.05-.042.034-.06zM4.716 32.64c-.296-.59-.6-1.157-.786-1.8-.16-.54-.33-1.064-.567-1.58-.033-.084-.152-.017-.135.06.186 1.14.347 2.704 1.395 3.414.059.042.118-.043.093-.093zM5.206 31.796c0-.524-.195-1.09-.397-1.572-.026-.051-.11-.068-.127 0-.11.54.228 1.115.456 1.588.017.034.068.017.068-.017zM8.003 37.078c.609 1.03 1.978 1.496 3.051 1.825.051.017.085-.059.043-.084-.482-.28-.964-.533-1.454-.803-.558-.296-1.023-.676-1.53-1.048-.067-.05-.144.042-.11.11zM8.578 36.41c.363.144.811.279 1.209.262.05 0 .067-.067.025-.093-.338-.203-.845-.169-1.226-.22-.033 0-.033.043-.008.051zM8.696 33.714c.507.034 1.048-.414 1.496-.625.795-.372 1.538-.744 2.257-1.251.084-.051.008-.178-.076-.127-.6.33-1.243.608-1.868.896-.617.287-1.2.735-1.834.972-.06.033-.05.127.025.135zM8.248 32.945c.237-.414.499-.812.837-1.158.025-.025-.008-.068-.042-.05-.465.236-.727.692-.87 1.174-.01.05.058.076.075.034zM7.429 32.42c.118-.244.22-.48.236-.751.009-.051-.067-.06-.084-.026-.144.237-.11.507-.186.77 0 .016.025.033.034.008zM20.055 34.28c-.811-.54-1.023 1.006-.938 1.48.169.971 1.192 1.69 2.087.997.753-.584.465-1.809 0-2.477-.22-.312-.557-.583-.963-.557-.566.025-.77.583-.904 1.04-.017.067.076.1.11.041.397-.583.954-.93 1.436-.253.33.465.524 1.217.212 1.724-.17.287-.584.363-.888.313-.363-.06-.566-.39-.66-.71-.109-.347-.185-1.682.483-1.53.034.008.059-.05.025-.068zM16.134 34.567c.278.262.625.364.997.431.346.068.811.178 1.15.077.067-.017.092-.119.016-.153-.27-.126-.608-.101-.904-.135-.406-.05-.845-.127-1.226-.287-.034-.017-.067.042-.034.067zM17.545 33.444c.135.084.279.169.414.253.144.093.304.195.473.237.043.008.076-.034.051-.068-.178-.296-.6-.405-.913-.473-.034-.008-.059.034-.025.05zM18.66 30.376c.203.464.347.955.5 1.436.1.338.177.736.439.99.033.033.11.008.11-.043-.026-.397-.229-.786-.355-1.158-.153-.456-.322-.887-.617-1.268-.043-.05-.102-.008-.076.043zM20.57 32.007c-.042.169-.076.33-.092.498-.017.144-.068.322.016.448.017.026.06.034.085.009.101-.11.076-.245.084-.389 0-.186 0-.372-.016-.558-.009-.042-.068-.05-.076-.008zM23.79 31.407c-.667.498-1.774.972-2.095 1.792-.017.042.033.076.076.059.355-.203.642-.499.963-.744.397-.313.77-.66 1.09-1.057.009-.033-.008-.067-.033-.05zM23.317 33.807c-.211.042-.422.017-.642.06-.16.033-.38.11-.473.253-.043.059.008.144.076.144.169.008.372-.11.524-.17.177-.067.346-.169.524-.228.042-.017.025-.067-.009-.059zM26.613 36.266c-.676-.118-1.343-.346-2.011-.515-.524-.135-1.2-.372-1.733-.194-.059.025-.076.11-.017.143.524.296 1.293.313 1.894.44a8.653 8.653 0 0 0 1.859.21c.05 0 .06-.075.008-.084zM24.205 37.424c-.254-.262-.55-.465-.93-.397-.068.008-.05.101 0 .118.144.05.296.076.44.127.16.05.304.135.447.211.034.017.076-.025.043-.059zM20.072 38.05c-.237 1.25-.338 2.636-.135 3.896.008.059.11.059.118 0 .203-1.251.279-2.603.22-3.863 0-.118-.178-.152-.203-.033zM21.213 38.185c.279.837.49 1.758.963 2.51.034.05.11.017.102-.042-.178-.854-.465-1.784-.921-2.536-.051-.067-.178-.025-.144.068zM22.345 38.59c.296.153.499.339.66.634.017.034.084.017.076-.025-.026-.355-.38-.6-.693-.71-.06-.017-.093.076-.043.102zM18.576 37.399c-.947.296-1.462 1.09-1.91 1.927-.034.068.06.143.11.084.279-.33.625-.617.921-.938.313-.32.634-.634.938-.963.042-.05.009-.135-.059-.11zM33.434 41.303c.008.06.025.127.033.186.076-.042.16-.093.237-.135-.135-.101-.05-.127-.068-.38-.033-.414.237-.82.482-1.124.254-.321.617-.558.997-.71.524-.203.947.287.87.786-.008.076.069.16.145.11.371-.237.304-.575.092-.913-.312-.499-.878-.524-1.377-.338-1.014.389-1.978 1.656-1.454 2.747.034.067.127.093.195.076.034-.009.067-.017.101-.043.118-.076.068-.262-.067-.262-.043-.017-.077-.033-.119-.042-.042-.008-.076.017-.067.042zM30.163 41.633c.372.025.769-.068 1.132-.144.322-.076.702-.143.938-.389a.069.069 0 0 0-.05-.118c-.33.026-.642.178-.955.262-.364.102-.744.17-1.082.313-.042.017-.017.076.017.076zM31.169 40.17c.126.035.253.069.388.077.127.008.296.06.406-.017.025-.017.034-.05.008-.076-.084-.076-.202-.06-.312-.068a2.292 2.292 0 0 0-.482.017c-.034.009-.042.06-.008.068zM31.727 36.24c.228.432.447.854.625 1.302.135.338.228.744.498 1.015.034.033.11.008.11-.043-.033-.414-.27-.82-.44-1.191-.177-.406-.38-.837-.726-1.124-.034-.043-.093 0-.067.042zM34.017 36.157c-.034.295-.017.608.033.904.051.287.085.625.305.836.034.034.093.009.093-.033.017-.254-.093-.499-.144-.744-.076-.321-.118-.65-.203-.963-.017-.06-.076-.043-.084 0zM35.563 36.866a2.158 2.158 0 0 0-.084.406c-.017.101-.042.228.017.321.025.034.076.042.101.008.076-.084.068-.194.076-.304a2.464 2.464 0 0 0-.025-.43c-.009-.043-.068-.034-.085 0zM37.904 35.362c-.194.482-.481.913-.752 1.352-.203.321-.515.685-.524 1.074 0 .033.051.076.085.05.346-.262.54-.752.752-1.124.245-.414.465-.862.482-1.352 0-.025-.034-.025-.043 0zM38.183 37.475c-.11.11-.194.211-.27.346-.102.17-.135.313-.178.49-.008.051.068.093.093.043.068-.136.152-.254.22-.39.076-.143.152-.278.228-.413.034-.06-.042-.119-.093-.076zM24.855 44.447c-.43-.143-.642-.44-.625-.896.085-.185.321-.295.49-.388.33-.178.719-.22 1.082-.254.558-.05 2.527.195 1.893 1.133-.042.067.026.127.093.118.625-.118.55-.66.152-1.023-.701-.659-1.707-.659-2.603-.557-.558.067-1.242.355-1.479.895-.279.626.465 1.065.98 1.048.06.009.068-.059.017-.076zM26.79 40.044c-.1.296-.21.575-.329.862-.093.237-.203.49-.101.744.017.05.076.059.11.017.16-.229.194-.524.287-.778.093-.262.169-.54.135-.82-.008-.067-.084-.084-.101-.025zM27.408 41.236c-.06.186-.144.414-.135.608 0 .05.059.076.093.042.169-.169.16-.43.118-.65-.017-.043-.068-.034-.076 0zM24.222 41.278c.194.135.456.321.524.558.017.067.11.059.126 0 .136-.389-.32-.566-.625-.626-.042-.008-.06.043-.025.068zM21.407 43.5c.558-.008 1.031.381 1.59.28.033-.009.033-.06 0-.068-.533-.076-1.049-.414-1.598-.254-.017.009-.009.043.008.043zM13.776 42.36c-.229-.456.54-.668.853-.482.203.118.338.372.406.592.059.211-.068.363-.068.566 0 .034.026.06.068.06.346.008.33-.474.279-.71-.068-.297-.355-.761-.685-.82-.33-.06-.693.008-.963.21-.254.187-.254.474-.017.677.076.05.169-.017.127-.093zM12.947 40.213c.11.119.195.262.27.398.085.135.136.338.254.43.034.026.076.009.076-.033.017-.16-.126-.347-.22-.465a1.32 1.32 0 0 0-.371-.347c-.009-.008-.017.009-.009.017zM14.46 39.03c.042.279.06.558.076.845.009.237-.017.465.034.693.008.05.076.042.085 0 .16-.473.017-1.09-.136-1.555-.017-.042-.067-.025-.059.017zM16.252 41.954c.16.034.321-.034.456-.101.136-.068.372-.178.431-.313.034-.068 0-.135-.076-.144-.143-.017-.279.127-.389.195-.135.093-.304.143-.439.245-.042.025-.05.101.017.118zM16.565 42.994c.27.05.583.076.853.008.042-.008.034-.067 0-.076-.27-.101-.575.017-.853.034-.017 0-.026.034 0 .034zM14.84 28.043c0-.11-.059-.211-.16-.245-.152-.06-.279.017-.397.11-.22.186-.321.482-.33.769 0 .43.313.744.693.896.313.127.735.127 1.006-.102.313-.27.144-.895-.245-.988-.076-.017-.144.033-.144.11-.008.16.068.278.11.43.008.026.017.085.017.076-.009.051-.009.043-.026.06-.042.042-.093.059-.194.076a.817.817 0 0 1-.279-.026c-.194-.042-.405-.16-.482-.355a.538.538 0 0 1-.016-.363 1.03 1.03 0 0 1 .152-.304c.025-.034.067-.093.11-.127.017-.008.126.025.152.025.017-.008.025-.025.034-.042zM11.629 29.285c.558.355 1.2-.118 1.783-.16.06 0 .118-.034.144-.085.042-.076.034-.093 0-.169-.025-.05-.093-.084-.144-.084-.566.042-1.175.498-1.732.389-.068-.009-.11.076-.051.11zM13.742 30.63c.101-.127.38-.339.338-.525 0-.025-.026-.034-.05-.034-.094.026-.128.119-.187.195a2.248 2.248 0 0 0-.186.304c-.034.068.043.11.085.06zM15.627 31.567c.059-.287-.034-.54-.195-.777-.076-.11-.262-.042-.22.093.068.245.254.431.288.684 0 .068.11.06.127 0zM18.263 27.857c-.55.068-1.242-.33-1.699.152-.05.05-.016.144.06.144.296-.009.583-.043.879-.06a2.15 2.15 0 0 0 .769-.194c.025-.008.017-.05-.009-.042zM29.977 28.795c-1.504.372-.879 2.78.575 2.451.727-.16 1.944-1.716.87-2.18-.067-.026-.152.05-.084.11.617.49-.178 1.369-.634 1.614-1.133.608-1.8-1.513-.71-1.936.034-.017.017-.067-.017-.059zM26.402 28.914c.253.16.54.21.828.253.33.05.643.152.972.203.068.008.11-.06.068-.11-.414-.456-1.268-.346-1.834-.43-.05-.018-.093.058-.034.084zM27.594 27.967c.27.178.507.389.769.583.042.034.101-.034.076-.076-.17-.296-.482-.49-.812-.566-.05-.009-.067.042-.033.06zM32.352 30.925c1.014.169 2.011.617 3.034.575.06 0 .076-.093.017-.11-.98-.245-2.012-.828-3.051-.668-.102.017-.102.186 0 .203zM32.842 29.818c.355.067.676-.119.989-.262.059-.026.034-.127-.034-.119-.321.034-.608.178-.93.22-.084.017-.118.144-.025.16zM32.394 28.339c.16-.118.313-.237.448-.38.05-.06-.017-.16-.093-.119-.169.11-.304.245-.44.39-.05.058.026.16.085.109zM28.954 31.669c-.202 0-.355.101-.498.236a1.318 1.318 0 0 0-.195.237c-.033.042-.059.093-.084.135-.026.042-.026.093-.06.135-.05.077.051.153.119.119s.127-.051.194-.102c.068-.05.127-.11.195-.169.135-.118.245-.262.389-.355.11-.067.076-.236-.06-.236zM29.833 32.353c-.093.448-.084.896-.059 1.344 0 .068.11.093.127.017.093-.44.169-.879.135-1.335-.008-.11-.177-.152-.203-.026zM29.698 35.92c.102-.237-.152-.448-.38-.347-.288.136-.397.482-.423.778-.034.422.27.735.668.82.363.084.786-.009 1.048-.28.287-.303.186-.81-.178-1.005-.067-.034-.152.025-.126.101.067.203.22.423.084.634-.11.17-.38.203-.558.212-.194.008-.405-.051-.515-.228a.516.516 0 0 1-.034-.355.769.769 0 0 1 .16-.347c.102-.118.136-.034.237.034 0 .008.009 0 .017-.017zM22.7 28.677c-.152-.152-.279-.245-.498-.186a1.34 1.34 0 0 0-.592.338c-.228.22-.287.566-.084.82.448.583 1.36.405 1.648-.22.033-.076.025-.177-.06-.228-.177-.102-.33-.16-.524-.068-.067.034-.05.119 0 .152.11.076.245.127.355.195-.017-.076-.042-.152-.059-.229-.186.38-.667.55-1.022.271-.127-.101-.186-.237-.102-.389.068-.127.212-.22.321-.296.186-.126.33-.22.558-.101.05.025.102-.025.06-.06zM13.877 35.717c-.194-.135-.33-.27-.33-.524a.3.3 0 0 1 .229-.287c.067-.017.169.042.202.093.026.033.026.076.026.101a.73.73 0 0 0-.026.237c.009.042.051.067.093.067.296.017.338-.405.229-.591-.127-.212-.39-.296-.617-.254-.288.042-.482.364-.49.634-.009.321.27.845.667.693.076-.025.093-.127.017-.169zM8.764 28.694c-.16-.11-.186-.186-.397-.144-.11.026-.237.068-.27.195-.06.228.16.405.32.524.22.152.499.245.76.194.28-.05.474-.372.339-.626-.025-.042-.101-.059-.135-.016-.085.101-.127.287-.254.33-.127.041-.296-.01-.414-.068a.762.762 0 0 1-.321-.245c-.034-.051 0-.026-.025 0 .118-.076.21-.153.355-.085.05.017.084-.034.042-.06zM18.931 14.267c-1.15-.025-2.062.803-2.011 1.978.05.98.879 1.884 1.834 2.003.81.101 1.622-.448 2.053-1.09.372-.567.355-1.454-.422-1.606-.085-.017-.136.076-.085.135.347.406.431.778.127 1.242-.287.44-.854.753-1.37.82-.726.093-1.233-.43-1.537-1.03-.558-1.083.27-2.24 1.411-2.367.05-.009.05-.085 0-.085zM16.269 14.994c-.423-.363-.938-.727-1.505-.803-.118-.017-.16.17-.059.22.49.237 1.006.465 1.521.66.043.016.076-.043.043-.077zM16.852 13.836c-.22-.422-.338-.972-.71-1.293-.042-.034-.11 0-.093.06.135.464.456.895.752 1.276.026.025.076 0 .05-.043zM21.044 18.273c.498.398.845.939 1.344 1.319.05.042.118-.042.067-.093-.405-.431-.752-1.15-1.352-1.335-.06-.017-.11.067-.06.11zM21.948 17.504c.33.085.66.228.989.279.05.008.067-.042.034-.076-.28-.203-.676-.296-1.015-.27-.033.008-.05.059-.008.067zM22.176 16.211c.178-.127.38-.237.609-.262.042-.008.059-.076.008-.085-.262-.05-.49.085-.676.27-.034.035.009.102.06.077zM18.213 18.315c-.06.262-.152.524-.203.795-.017.076.084.127.127.05.169-.27.143-.532.126-.836 0-.026-.042-.034-.05-.009zM16.92 17.994a1.178 1.178 0 0 0-.339.397c-.016.034.034.068.06.034.093-.135.22-.253.33-.372.025-.025-.018-.084-.051-.059zM20.976 13.481c.27-.22.49-.482.727-.726.228-.237.524-.44.701-.71.026-.043-.008-.102-.059-.102-.338.034-.583.296-.811.524-.262.279-.465.609-.676.921-.042.085.06.144.118.093zM21.906 14.03c.253-.067.524-.245.668-.464.025-.034-.017-.068-.051-.051-.237.11-.414.338-.634.473-.026.017-.009.051.017.043zM38.597 9.636c-.304-.735-1.124-.499-1.538-.017-.532.617-.659 1.623-.11 2.257.634.726 1.809 1.217 2.671.574.727-.54.524-1.91-.321-2.222-.076-.026-.118.059-.093.118.296.617.76 1.386-.025 1.842-.592.347-1.412-.135-1.817-.549-.423-.423-.39-1.014-.161-1.521a1.28 1.28 0 0 1 .515-.583c.288-.17.567.025.82.152.017.008.076-.017.06-.051zM36.57 9.129c.041-.229-.12-.423-.254-.592a1.574 1.574 0 0 0-.685-.465c-.06-.017-.101.05-.076.102.101.202.279.304.448.448.186.16.363.304.49.524.017.016.068.016.076-.017zM35.977 9.737c-.059-.05-.11-.11-.168-.16a3 3 0 0 0-.28-.16c-.135-.077-.253.134-.118.202.076.042.152.076.237.11.093.034.203.042.296.076.033.008.067-.042.033-.068zM35.707 11.31c-.414-.187-1.234-.423-1.606-.068a.09.09 0 0 0 .043.152c.253.084.523.025.794.034.253.008.524.008.769-.06.017 0 .025-.042 0-.059zM36.13 12.662c-.043.126-.153.236-.245.33a.62.62 0 0 0-.17.329c-.008.05.06.11.102.059.169-.211.473-.397.456-.702-.008-.084-.118-.101-.143-.017zM37.558 13.363c-.017.017-.11.076-.144.118a1.47 1.47 0 0 0-.203.398c-.101.262-.202.532-.093.794.026.076.119.093.161.025.144-.21.228-.447.304-.71.034-.135.076-.253.085-.397.008-.059-.034-.177-.034-.203.017-.05-.05-.059-.076-.025zM38.843 13.786c.008.118.025.22.059.33.017.05.033.11.059.16.025.05.076.067.11.101.042.05.127.009.127-.05 0-.034.016-.077.016-.119 0-.05-.025-.118-.042-.169a.736.736 0 0 0-.169-.321c-.05-.06-.16-.008-.16.068zM33.746 5.976c-.32-.33-.845-.388-1.15-.017-.253.313-.151.685.102.947.245.254.651.423 1.006.38.279-.033.794-.414.49-.718-.042-.042-.093-.042-.143-.017-.17.076-.17.27-.364.321-.194.05-.414-.05-.566-.152-.135-.084-.296-.245-.262-.414.067-.363.566-.355.82-.237.05.026.118-.042.067-.093zM31.27 5.072c-.287-.11-.642.127-.44.431.144.22.49.338.651.076.043-.059.06-.177.026-.236-.034-.051-.076-.135-.152-.093-.017.008-.093.084-.043.042-.05.034-.059.076-.076.127 0 .008-.034.034 0 .017-.017.017 0 .008-.017.008-.042 0-.143-.067-.16-.101-.017-.043-.009.008 0-.017-.009.025-.009.008.008 0 .068-.042.16-.06.228-.093.068-.034.034-.135-.025-.16zM28.937 4.633c-.067-.026-.118-.102-.177-.144-.118-.085-.22.093-.144.186.093.11.237.152.355.06a.066.066 0 0 0 0-.094c-.05-.059-.127-.076-.186-.127-.017.068-.034.127-.05.195.059-.009.135.025.194.034.06 0 .06-.093.008-.11zM34.32 16.414c-.532.16-.675-.744-.608-1.099.068-.372.474-.617.803-.44.313.161.516.516.575.846.017.118 0 .279-.076.38-.118.144-.33.144-.456.279-.026.034-.043.101 0 .135.21.17.515.034.693-.135.177-.169.228-.44.202-.668-.059-.524-.422-1.04-.92-1.225-.575-.22-1.116.33-1.175.87-.06.516.32 1.539.98 1.09.017-.016.008-.042-.017-.033zM32.91 18.121c-.507.034-.372-1.056.253-.786a.787.787 0 0 1 .414.456c.068.212-.143.271-.312.322-.051.017-.076.101-.017.126.177.076.355.11.524-.025.135-.11.169-.279.143-.448-.059-.363-.38-.667-.718-.777-.422-.136-.837.16-.896.591-.042.355.22.888.626.592.033 0 .025-.06-.017-.05zM32.648 19.414a.274.274 0 0 0 .101-.135c.009-.025-.008-.008.017-.017.042-.008.101 0 .144 0-.043-.042-.085-.076-.119-.118 0 .059-.025.118-.025.177v.119c0 .059.076.059.093.017.008-.034.076-.076.11-.11.034-.051.05-.11.059-.17.017-.075-.034-.143-.118-.151-.11-.009-.228-.009-.321.076-.076.067-.076.169-.085.253 0 .076.101.093.144.06zM27.577 11.445c-.854-.119-1.133-1.074-.803-1.792.253-.55 1.065-.87 1.546-.448.398.338.533.947.5 1.445-.018.211-.094.465-.271.6-.195.152-.44.034-.634.16-.05.035-.076.102-.042.153.185.279.625.169.862.017.27-.178.405-.507.448-.82.101-.71-.17-1.538-.778-1.952-.685-.482-1.733.076-1.995.786-.304.82.06 2.189 1.167 1.918.034-.017.034-.067 0-.067zM28.583 8.072c-.127-.363.177-.87.312-1.183.051-.118-.093-.253-.194-.144-.245.262-.583 1.108-.228 1.386.05.026.127 0 .11-.059zM29.385 8.672c.06.034.093.068.161.076.076.009.152-.042.211-.084.144-.102.338-.287.347-.473 0-.043-.05-.085-.093-.068-.144.042-.237.203-.321.313-.051.067-.203.236-.296.202-.009-.008-.025.026-.009.034zM30.163 10.515c.524.11 1.14-.017 1.673-.093.068-.009.06-.102.017-.127-.482-.321-1.166 0-1.69.076-.076.009-.068.127 0 .144zM29.115 12.712c.101-.067.203-.017.279.068a.98.98 0 0 1 .118.144.65.65 0 0 0 .152.152c.034.025.076 0 .068-.043a.645.645 0 0 0-.296-.43c-.144-.077-.237-.018-.338.075-.017.026 0 .051.017.034zM26.858 12.273c-.22.135-.363.355-.498.566-.152.237-.347.473-.44.744-.017.059.051.101.102.076.22-.119.338-.355.465-.567.143-.245.304-.481.473-.71.05-.067-.034-.143-.102-.11zM25.819 11.833a1.092 1.092 0 0 0-.406-.008c-.076.017-.135.05-.203.084-.076.051-.11.093-.169.161-.034.042.009.11.06.085.22-.119.447-.254.7-.271.035-.008.043-.05.018-.05zM25.912 8.351c-.338-.338-.575-.752-.811-1.166-.178-.304-.322-.938-.668-1.09-.05-.026-.093-.009-.119.042-.152.389.338 1.023.524 1.335.237.389.567.82.998.99.076.041.127-.06.076-.11zM27.23 8.182c-.118-.33-.194-.752-.54-.92-.068-.035-.178.041-.119.118.101.143.211.278.313.422.093.144.177.279.287.414.017.034.076 0 .06-.034zM25.346 10.075a1.106 1.106 0 0 0-.338-.186c-.076-.025-.161-.059-.237-.084-.068-.026-.093-.042-.16-.017-.018.008-.035.034-.035.05.017.119.153.144.254.178.16.05.33.05.49.101.026.009.043-.025.026-.042zM17.283 3.187c-.778-.042-1.952.313-1.775 1.302.118.693.66 1.073 1.36.972.736-.102 1.446-.524 1.945-1.065.203-.22.659-1.15-.017-1.082-.068.009-.127.068-.102.135.195.736-.912 1.293-1.47 1.496-.423.152-.955.212-1.226-.228-.515-.862.668-1.301 1.293-1.487.026 0 .026-.034-.008-.043zM14.528 5.148c-.651-.22-1.598.389-2.138.71-.043.025-.034.11.025.101.718-.084 1.335-.676 2.079-.617.127.017.135-.152.034-.194zM15.187 6.129a.495.495 0 0 0-.473.016c-.17.093-.262.237-.372.38-.042.06.034.12.093.094.101-.06.194-.119.296-.195.11-.093.236-.169.388-.126.093.025.17-.119.068-.17zM16.548 6.289c-.144.524-.474 1.09-.372 1.648.017.068.11.05.127 0 .11-.287.202-.575.312-.862.093-.237.178-.499.16-.752-.008-.135-.194-.17-.227-.034zM18.044 6.34c.067.118.093.262.152.38.025.06.042.152.076.203.034.05.076.101.11.16.033.051.118.017.101-.042-.017-.059 0-.135-.025-.194l-.076-.203c-.06-.152-.152-.245-.28-.355-.025-.025-.075.008-.058.05zM19.117 5.46c.346.238.727.44 1.065.686.084.059.177-.051.127-.127-.06-.102-.085-.178-.161-.262a1.581 1.581 0 0 0-.296-.237 1.302 1.302 0 0 0-.693-.228c-.093-.009-.11.118-.042.169zM19.726 4.21c.084.287.684.211.895.22.6 0 1.192-.136 1.784-.17.067-.008.101-.118.017-.135-.896-.143-1.775.11-2.663.043-.025 0-.042.025-.034.042zM20.444 3.001c1.065.33 2.408-.126 3.49-.236.085-.009.118-.144.025-.16-1.14-.212-2.349.21-3.498.27-.076 0-.093.101-.017.126zM26.427 3.416c-.042-.017-.076-.051-.118-.06a.792.792 0 0 0-.135-.033.376.376 0 0 0-.245.084c-.085.06-.102.186 0 .254.16.093.338.16.524.143.143-.008.194-.228.034-.27-.153-.034-.28-.05-.423-.127.008.076.017.152.034.228.034-.033.093-.042.135-.059.06-.017.127-.059.186-.067.068-.009.06-.077.008-.093zM18.677 9.687c-.05-.068-.118-.127-.169-.203-.067-.102-.059-.186-.05-.305.008-.067 0-.118.017-.185 0-.009.025-.077.008-.043.008-.008.05-.067.017-.034.034-.042-.017 0 .008-.008.043-.025-.025 0 .026-.008.025-.009-.051 0 0 0 .05 0-.026-.009.034.008.016 0 .033.008.05.017-.05-.017.026.008.034.017.017.008.034.025.05.034.01.008.018.008.026.017.042.033-.025-.026.017.008.034.034.076.068.11.101.017.017.025.034.042.051.034.042 0-.008.026.034a.54.54 0 0 1 .067.118c-.017-.05 0 .009 0 .017 0 0 0 .017.009.026.008.042 0-.043 0 0 0 .016-.009.059 0 0-.009.05.025-.026 0 .008.033-.05-.026.008.025-.025-.042.025.025 0-.026.008-.05.017 0 0-.033.009-.043.008-.085.008-.127.025l-.178.042c-.084.009-.135.127-.05.17.042.025.135.092.228.117a.49.49 0 0 0 .27 0c.161-.042.254-.169.27-.33.026-.27-.21-.532-.413-.684-.203-.152-.541-.262-.735-.025-.127.152-.144.355-.136.55.009.295.27.481.533.532.059.017.076-.026.05-.06zM15.491 9.746c-.05.008-.034 0-.093-.017.076.025.026.093.06.017l.05-.102c.068-.143-.127-.262-.22-.127-.067.093-.135.262-.042.364.101.101.203-.009.262-.05.042-.018.034-.094-.017-.085zM27.78 18.29c-.186.313-.44-.194-.516-.338a.835.835 0 0 1-.076-.203c-.008-.042-.008-.008-.008-.05v-.043c0 .043 0 .009 0 0 .008-.05-.017.017.008-.017.017-.034-.025.026 0 0 .009-.008.042-.034 0 0 .009-.008.06-.034.009-.008.025-.009.042-.017.067-.017-.05.008.017 0 .026 0h.084c.05 0-.034-.009.008 0 .017 0 .026.008.043.008l.093.026c.11.034.186.067.296.135a.491.491 0 0 1 .185.186.158.158 0 0 1 .017.06c0 .008.009-.026-.008.016-.009.042.017-.034 0 0-.009.008-.017.025-.025.034.025-.034-.026.017-.034.025-.034.034.034-.017-.017.017a.176.176 0 0 0-.05.034.166.166 0 0 0-.077.076c.025-.042 0 0-.017.008a.228.228 0 0 0-.067.06s-.034.059-.017.033c-.034.043-.034.136.033.144.06.009.093.034.153.017.05-.008.1-.008.143-.034a.555.555 0 0 0 .195-.144.428.428 0 0 0 .101-.397c-.06-.27-.363-.448-.6-.55-.22-.092-.541-.168-.752-.016-.321.237-.093.66.076.921.093.152.279.288.456.288.16 0 .22-.127.27-.254.035-.017.01-.034 0-.017zM27.585 20.192c-.017-.034-.05-.076-.042-.093.025-.076.152-.16.211-.212h-.144c.06.068.051.068.009.152-.017.034-.025.077 0 .11.017.034.06.034.084.009.06-.042.127-.05.153-.135.042-.11-.034-.203-.102-.28-.034-.042-.101-.033-.144 0-.1.085-.236.187-.236.339 0 .084.101.127.16.169.034.017.076-.026.051-.06zM31.701 23.953c-.076-.237.135-.465.372-.457.16.009.406.136.422.313.009.135-.118.253-.236.304-.186.076-.414.026-.6-.017-.068-.017-.118.068-.068.119.228.245.566.27.854.11.228-.127.372-.398.296-.651-.093-.296-.49-.482-.786-.431a.601.601 0 0 0-.398.27c-.101.17-.059.321.051.465.034.06.118.034.093-.025zM35.3 22.786c-.075-.025-.109-.076-.176-.101.025.042.05.092.075.135.017-.043.009-.085.017-.127-.05.034-.092.076-.143.11l.025-.118c-.135.05-.076.278.06.219.168-.068.16-.278-.026-.32-.076-.017-.135.033-.143.11 0 .041-.009.083 0 .126.008.067.084.084.135.075.067-.008.1-.059.177-.067.016-.008.016-.042 0-.042zM37.964 20.944c-.288.06-.558-.152-.609-.431-.025-.135-.025-.262.017-.321-.025.034.017-.009.025-.017-.033.034.017-.009.026-.009-.043.017.017 0 .025-.008h.05c.077 0 .22.034.297.076.21.093.422.245.524.431l.017.06v.033a.856.856 0 0 1-.322.245c-.084.034-.034.16.043.16.202 0 .397.026.549-.151a.48.48 0 0 0 .076-.474c-.144-.355-.507-.583-.854-.701-.33-.119-.743-.068-.853.313-.068.228-.009.574.152.743.228.254.591.33.853.085.009-.017 0-.034-.016-.034zM19.379 7.937c.617.16.87.465.862 1.107 0 .465-.16.93-.279 1.386-.017.076.085.144.135.085.617-.702.77-3.06-.727-2.67-.042.008-.042.075.009.092zM21.382 8.368c.127.16.22.338.177.55-.034.177-.152.355-.236.515-.051.093.067.186.143.11.406-.372.516-.963-.034-1.25-.042-.018-.084.042-.05.075zM30.712 17.462c0-.406.102-.811.27-1.175.094-.203.204-.389.356-.55.152-.16.278-.143.473-.16.118-.008.211-.135.144-.245-.372-.6-1.04.16-1.243.507-.211.372-.634 1.344-.194 1.707.076.051.194.017.194-.084zM29.25 16.465c.152-.245.262-.516.372-.778.068-.16.135-.313.228-.456.06-.102.152-.186.17-.304.008-.06-.026-.093-.077-.102-.279-.034-.422.355-.515.566-.136.338-.17.702-.245 1.057-.009.025.05.05.067.017zM38.276 16.701c-.084.212-.11.44-.169.668-.059.211-.135.405-.143.625 0 .06.076.093.118.051.279-.321.44-.913.338-1.335-.017-.093-.118-.068-.144-.009zM38.885 17.15c.068.371.008.751-.11 1.106-.017.068.06.119.11.085.44-.28.253-.837.076-1.226-.017-.042-.085-.008-.076.034zM30.002 23.547c.296-.702 1.048-1.073 1.784-1.006.126.017.21-.177.11-.253-.634-.516-2.147.464-2.046 1.242.017.068.127.084.152.017zM28.971 22.702c.49-.98 2.468-2.122 3.49-1.167.051.051.153 0 .128-.076-.246-.752-1.192-.608-1.81-.465-.827.195-1.782.753-1.91 1.665 0 .06.069.102.102.043zM25.286 18.966c-.464.44-.355 1.074-.126 1.606.143.338.769 1.251 1.225.997.034-.017.05-.076.025-.11-.084-.118-.21-.152-.338-.22-.236-.134-.422-.363-.574-.582-.321-.465-.567-1.15-.17-1.648.01-.034-.016-.068-.042-.043zM24.196 20.276c-.16.6.144 1.37.837 1.42.059.009.076-.084.025-.11-.228-.16-.456-.295-.625-.524-.17-.228-.22-.507-.203-.777.008-.026-.025-.034-.034-.009zM7.006 28.787c-.237-.38-.127-.668.127-1.023.236-.33.6-.608.946-.811.06-.034.034-.119-.033-.127-.812-.085-2.088 1.893-1.057 1.994.017.009.025-.017.017-.033zM5.51 28.466c.06-.575.296-1.116.794-1.428.043-.026.026-.085-.025-.085-.684-.034-.921 1.006-.811 1.521 0 .026.042.017.042-.008zM17.004 20.978c.389-.026.76-.076 1.15-.009.481.076.76.38 1.09.71.076.076.177 0 .16-.093-.152-1.005-1.724-1.14-2.442-.735-.043.025-.026.127.042.127zM13.454 18.189c-.245.186-.202.65-.228.913-.017.202-.05.44-.177.6-.17.202-.44.11-.626.262-.042.033-.033.11 0 .152.364.372.922-.119 1.023-.499.118-.465-.076-.946.05-1.411-.008-.009-.025-.026-.042-.017z" fill="#7E7B88"/><path d="M10.91 14.276c-.43.49-.718 1.03-.777 1.69-.05.524.372 1.344 1.014 1.099.06-.026.093-.102.042-.152-.194-.161-.456-.195-.608-.406-.17-.22-.144-.558-.11-.811a3.83 3.83 0 0 1 .49-1.386c0-.026-.034-.051-.05-.034zM10.758 9.754c-.278.355-1.048 1.505-.262 1.775.06.017.127-.042.102-.101-.11-.28-.178-.457-.11-.77.076-.295.22-.566.338-.845.025-.05-.025-.11-.068-.059zM21.458 21.384c.194.261.397.515.55.802.177.338.143.702.11 1.065-.01.06.084.085.117.034.44-.777-.143-1.462-.743-1.927-.026-.008-.05.017-.034.026zM19.835 26.564c.38-.169.609-.744.735-1.107-.092.017-.194.025-.287.034.118.177.254.33.406.473.143.144.279.313.482.364.076.025.126-.051.118-.119-.025-.16-.127-.253-.245-.355-.178-.16-.355-.321-.49-.515-.076-.102-.254-.102-.288.034-.101.414-.32.743-.515 1.115-.017.05.034.102.084.076zM3.65 27.688c.06-.481.71-.997 1.066-1.267.507-.38 1.048-.516 1.64-.677.084-.025.1-.143.025-.186-.693-.397-1.53.161-2.063.609-.295.245-1.208 1.132-.769 1.564.034.042.093.008.102-.043zM3.406 26.006c.042-.025.059-.059.11-.076.084-.034.177-.059.262-.076.093-.025.185-.034.27-.06.042-.008.076-.033.11-.058.008-.009.025-.017.025-.034.051-.085-.059.042-.017.017.034-.026.06-.093.017-.127-.042-.034 0-.025.009.025a.12.12 0 0 0-.068-.076c-.05-.033-.118-.033-.177-.033-.136.008-.28.059-.406.101-.101.042-.228.118-.262.228 0 .06.034.228.127.17zM7.319 25.71c.203.085.498.093.701.026.051-.017.076-.102.017-.127-.211-.102-.55-.135-.727.034-.025.017-.017.059.009.067z" fill="#7E7B88"/><path d="M2.848 31.965c-.66-1.995-1.217-4.049-1.47-6.145-.254-2.104-.043-4.166.422-6.228.828-3.677 2.383-7.218 4.724-10.184 4.657-5.9 12.483-9.525 19.97-7.945 7.489 1.58 13.904 7.37 16.481 14.511 2.502 6.922.938 14.495-3.6 20.183a21.656 21.656 0 0 1-16.996 8.155c-7.065-.017-13.277-3.88-17.232-9.6a22.209 22.209 0 0 1-3.28-7.16 21.715 21.715 0 0 1-.6-3.836c-.093-1.31.051-2.56.119-3.862 0-.085-.135-.11-.152-.017-.186.786-.44 1.521-.533 2.332a13.684 13.684 0 0 0-.05 2.882c.152 1.817.591 3.575 1.242 5.274 1.284 3.372 3.389 6.423 6 8.916 4.716 4.513 11.182 6.66 17.655 5.756 6.567-.922 12.17-4.666 15.83-10.15A21.505 21.505 0 0 0 43.54 15.18C40.889 8.3 34.871 3.027 27.805 1.024c-7.15-2.028-14.579.744-19.819 5.721-3.177 3.01-5.273 6.965-6.431 11.156-.626 2.274-.964 4.606-.812 6.964.17 2.502.922 4.868 1.877 7.176.033.143.279.084.228-.076z" fill="#7E7B88"/><path d="M26.182 2.368c.964.236 1.876.515 2.78.938.787.372 1.514.769 2.359 1.005.093.026.143-.1.067-.152-1.47-.946-3.372-2.138-5.197-1.859-.043 0-.043.06-.009.068zM27.222 3.542c.634.16 1.26.321 1.884.482.068.017.119-.085.051-.118a3.425 3.425 0 0 0-1.935-.414c-.026.008-.034.05 0 .05zM40.727 12.864c.313.66.854 1.319.938 2.07.009.077.127.136.17.043.363-.744-.415-1.792-1.006-2.206-.068-.05-.127.034-.102.093zM40.17 13.912c.092.541.287 1.116.549 1.606.033.068.143.06.16-.017.11-.591-.397-1.115-.659-1.606-.008-.042-.05-.016-.05.017zM39.78 30.739c-.194.769-.87 1.37-1.31 2.011-.05.068.043.144.11.11.871-.44 1.294-1.115 1.251-2.113 0-.025-.042-.033-.05-.008zM38.31 31.415c-.321.17-.6.44-.718.778-.026.067.059.135.127.093.295-.203.464-.524.659-.82.017-.025-.034-.068-.068-.05zM12.525 9.061c-.026-.118.127-.304.177-.397.11-.186.254-.355.38-.524.127-.152.28-.304.44-.423.06-.042.118-.067.178-.11a.466.466 0 0 0 .067-.05c.042-.043.085-.068.017-.034a.111.111 0 0 0 0-.194c-.127-.068-.279-.093-.473.025-.229.135-.389.338-.541.54-.22.288-.533.837-.296 1.184.017.034.06.017.05-.017zM13.776 8.867c.025-.144.16-.296.253-.414.05-.06.11-.119.17-.186.041-.051.041-.093.075-.152.034-.068-.025-.17-.101-.136-.043.017-.076.009-.118.026-.034.025-.068.059-.102.084a.897.897 0 0 0-.16.237c-.051.084-.068.169-.093.262-.026.084-.009.177-.009.262-.008.05.076.067.085.017zM.693 22.939c-.17 1.343-.127 2.62.22 3.93.338 1.267.904 2.476 1.25 3.735.017.068.119.042.102-.025-.212-1.234-.626-2.358-1.014-3.542-.44-1.326-.533-2.704-.533-4.098-.008-.017-.025-.017-.025 0zM41.352 10.912c.094.414.322.735.567 1.073.414.558.727 1.108.98 1.758.465 1.2.88 2.477 1.192 3.727.676 2.713.465 5.545.566 8.317 0 .059.101.076.11.017.43-2.57.33-5.4-.203-7.953-.27-1.285-.752-2.519-1.209-3.744a8.38 8.38 0 0 0-.726-1.521c-.372-.6-1.006-.998-1.26-1.674-.008-.008-.025-.008-.017 0z" fill="#7E7B88"/></svg>