<svg width="91" height="80" fill="none" xmlns="http://www.w3.org/2000/svg"><path d="M58.543 32.07c-.025-.026-.084-.01-.067.033.101.245.177.423.397.6.118.102.245.186.38.27.152.094.338.119.482.22.06.034.101-.033.06-.084-.085-.093-.145-.212-.22-.313-.094-.11-.237-.194-.347-.27-.102-.068-.203-.144-.313-.212-.11-.076-.27-.143-.372-.245zM56.16 23.102c-.025-.025-.068.009-.05.042.735 1.226 1.791 2.265 2.805 3.254 1.107 1.057 2.29 2.13 3.592 2.95.017.017.042-.017.025-.034-1.073-.997-2.222-1.893-3.279-2.882-1.115-1.048-2.096-2.197-3.093-3.33zM65.076 29.643c-.836-.557-1.58-1.42-2.51-1.74-.067-.026-.118.067-.059.118.702.642 1.378 1.327 2.138 1.901.414.313.845.584 1.268.88.321.22.575.43.938.49.06.008.11-.06.085-.119-.305-.693-1.268-1.132-1.86-1.53zM64.028 31.427c.862.853 1.936 1.462 2.975 2.045.042.025.076-.034.034-.06-.955-.743-2.037-1.267-2.983-2.019-.026-.017-.043.017-.026.034zM59.135 27.395c.034.026.068-.025.034-.05-.499-.575-1.15-.997-1.623-1.598-.008-.008-.025 0-.017.017.414.66.989 1.175 1.606 1.631zM64.755 34.968c-1.42-1.04-2.823-2.08-4.175-3.17-.017-.008-.025.01-.017.026 1.243 1.26 2.646 2.29 4.15 3.211.05.026.084-.033.042-.067zM60.808 34.968c.051.017.068-.042.034-.076-.591-.457-1.276-.795-1.918-1.15-.136-.076-.288.102-.16.212.582.54 1.326.777 2.044 1.014zM56.642 27.818c-.026-.017-.05.017-.026.034.44.473.93.938 1.437 1.335.026.017.05-.017.034-.042-.44-.49-.947-.93-1.445-1.327zM39.773 26.838c.059.025.127-.034.093-.093-.507-.972-1.336-1.733-2.003-2.544-.685-.828-1.319-2.037-2.265-2.51-.026-.017-.068.017-.06.05.22 1.04 1.125 1.936 1.742 2.73.684.87 1.445 1.893 2.493 2.367zM43.305 26.128c1.243.777 2.587 1.504 3.677 2.569 1.394 1.378 2.121 3.305 3.6 4.64.085.076.186-.017.144-.11-.87-1.868-2.003-3.752-3.465-5.164-1.099-1.056-2.468-1.75-3.812-2.307-.194-.076-.313.262-.144.372zM60.521 26.22c.211-.16-.194-.456-.33-.506-.059-.026-.11.025-.11.084-.016.195.237.575.44.423zM41.505 31.013c.026.025.06-.017.034-.043-1.901-1.74-3.98-3.279-5.316-5.468-.008-.008-.017 0-.017.009 1.158 2.332 3.355 3.837 5.3 5.502zM25.38 50.426a1.067 1.067 0 0 0-.423-.127c-.076 0-.143-.017-.211-.008-.068.008-.144.042-.22.042-.042.008-.05.05-.025.067.076.051.101.136.186.186.101.06.211.136.304.212.076.059.16.135.237.194.067.05.194.084.236.152.043.068.17.042.17-.05 0-.127.05-.203.016-.356-.008-.118-.152-.253-.27-.312zM34.727 34.58c-.143-.22-.38-.373-.608-.491a.019.019 0 0 0-.026.025c.153.203.33.423.567.533.042.017.093-.026.067-.068zM44.26 25.325c.085 0 .119-.101.068-.16a1.64 1.64 0 0 0-.583-.415c-.254-.101-.482-.245-.752-.279-.06-.008-.102.068-.085.119.152.54.87.727 1.352.735zM41.54 24.116c-.11-.101-.22-.194-.33-.296a11.18 11.18 0 0 1-.626-.642c-.06-.068-.169.009-.144.093.076.321.178.6.39.845.092.119.194.228.312.321.05.043.101.093.169.11.084.026.152 0 .245.009.101.008.169-.136.118-.212-.059-.067-.067-.169-.135-.228zM43.703 23.432c.101-.009.177-.152.093-.237-.676-.634-1.682-.76-2.24-1.555-.042-.06-.16-.068-.177.025-.093.516.32.862.676 1.124.456.338 1.073.668 1.648.643zM53.768 26.018c.744.904 1.648 1.724 2.493 2.544.829.811 1.69 1.546 2.68 2.146.042.026.076-.033.033-.067-.963-.735-1.85-1.59-2.721-2.434-.786-.752-1.563-1.631-2.485-2.19zM59.76 50.89c.28.305.643.508 1.031.626.051.017.068-.042.034-.076l-1.014-.609c-.042-.025-.076.026-.05.06zM58.535 47.155c-1.344-1.04-2.704-2.451-4.293-3.043-.017-.008-.026.017-.017.026 1.352 1.065 2.772 2.172 4.25 3.093.051.025.102-.034.06-.076zM54.039 45.304c.98.964 2.121 1.75 3.262 2.544 1.217.837 2.485 1.64 3.82 2.307.06.034.101-.042.042-.076-1.14-.811-2.34-1.546-3.49-2.316-1.217-.82-2.383-1.698-3.6-2.484-.026-.017-.051.008-.034.025zM53.971 47.932c-.862-.591-1.614-1.31-2.442-1.935-.017-.017-.034.017-.026.026.744.726 1.488 1.478 2.426 1.977.05.017.084-.042.042-.068zM51.436 53.688c2.206 2.104 4.766 4.48 7.893 5.307.043.009.068-.05.026-.067-3.017-1.285-5.358-3.39-7.902-5.257-.017-.017-.034.008-.017.017zM57.428 56.773c-.947-.896-2.139-1.564-3.22-2.265-.017-.009-.034.017-.017.025.913.921 2.113 1.572 3.194 2.299.034.025.077-.025.043-.06zM51.131 44.544c-.895-.685-1.825-1.361-2.51-2.257-.008-.008-.025 0-.017.008 1.032 1.58 2.857 2.747 4.353 3.913 1.935 1.505 3.98 2.89 6.11 4.2.026.018.051-.025.026-.041-1.91-1.285-3.787-2.587-5.587-3.956-.811-.608-1.58-1.259-2.375-1.867zM55.281 39.219c-.067 0-.11.068-.076.135.22.398.668.676.938 1.048.28.372.44.77.82 1.048.076.05.152-.017.16-.084.026-.812-.971-2.155-1.842-2.147zM36.02 50.629c.364 1.225 1.758 2.13 2.874 2.679.059.025.152-.042.101-.102-.389-.524-.811-.93-1.31-1.344-.515-.43-.963-.93-1.479-1.343-.084-.06-.22 0-.186.11zM59.549 22.426c-.118-.11-.211-.228-.346-.313-.093-.059-.237 0-.212.119.017.093.026.152.076.236.06.102.127.178.212.254a.705.705 0 0 0 .481.186c.068 0 .085-.076.043-.127-.093-.118-.153-.245-.254-.355zM60.944 24.81c-.313-.296-.634-.643-1.023-.804-.093-.042-.152.068-.11.152.194.38.54.668.845.956.321.295.642.566 1.014.777.068.042.17-.025.11-.11a5.456 5.456 0 0 0-.837-.972zM61.087 26.643c-.084-.025-.177.043-.135.144.093.245.313.44.507.608.135.119.448.347.6.195.211-.228-.811-.904-.972-.947zM64.51 27.083c.06.008.11-.06.085-.127-.254-.625-.964-1.056-1.454-1.488-.558-.49-1.15-1.233-1.834-1.462-.076-.025-.169.043-.127.136.304.701 1.031 1.217 1.58 1.724.49.44 1.1 1.15 1.75 1.217z" fill="#7E7B88"/><path d="M58.974 42.676c.068.076.203.025.195-.076-.102-1.082-.786-2.198-1.454-3.068-.727-.947-1.834-1.606-2.992-1.648-.025 0-.05.034-.034.059.212.287.49.456.82.583.786.304 1.36.76 1.868 1.445.634.862.862 1.936 1.597 2.705zM58.23 23.55c-.574-.591-1.149-1.183-1.715-1.775-.972-1.005-2.02-2.298-3.203-2.958-.06-.033-.135.026-.093.093.744 1.2 1.952 2.232 2.924 3.246.566.591 1.133 1.191 1.716 1.783.456.465 1.014 1.056 1.614 1.276.127.05.211-.093.152-.211-.296-.6-.93-.98-1.394-1.454zM28.025 50.028c.524.39.803.972 1.285 1.395.05.042.169.034.177-.05.245-1.26-1.453-2.13-2.332-2.62-.685-.381-1.378-.736-1.961-1.235-.608-.515-.98-1.327-1.775-1.597-.084-.025-.152.084-.118.144.566 1.225 1.673 2.18 2.873 2.848.626.363 1.277.684 1.851 1.115zM50.193 26.973c.313.668 1.015 1.09 1.58 1.521a15.49 15.49 0 0 1 2.071 1.876c1.158 1.276 2.325 2.434 4.015 2.823.11.026.16-.11.067-.177-1.369-.98-2.603-2.122-3.735-3.355a12.312 12.312 0 0 0-1.876-1.649c-.609-.448-1.26-1.014-1.97-1.233-.126-.034-.202.093-.152.194zM48.875 26.787c-.532-.473-1.056-.93-1.64-1.319-.633-.422-1.191-.549-1.918-.557-.118 0-.144.186-.025.21 1.428.322 2.662 1.793 3.71 2.824 1.098 1.09 1.969 2.425 2.89 3.693.854 1.158 1.766 2.265 2.924 3.135 1.268.947 2.89 1.277 4.31 1.885.077.034.11-.084.043-.127-1.412-.887-2.984-1.597-4.243-2.67-1.25-1.065-2.197-2.434-3.144-3.753-.87-1.225-1.8-2.34-2.907-3.321zM52.196 26.128c-.44-.321-.98-.44-1.428-.744a.019.019 0 0 0-.025.025c.177.33.456.524.76.719.567.363 1.074.76 1.572 1.234.964.904 1.86 1.868 2.865 2.746a.042.042 0 0 0 .06-.059c-.82-.972-1.572-1.918-2.477-2.797a12.81 12.81 0 0 0-1.327-1.124zM52.89 53.46c.092.118.168.22.295.312.118.085.212.11.347.127.05.009.059-.068.025-.084-.22-.11-.422-.262-.634-.38-.025-.018-.05 0-.034.025zM32.319 28.621s-.017 0-.009.009c.262 1.047 1.192 1.698 1.885 2.434.017.025.059-.009.042-.034-.592-.87-1.547-1.395-1.919-2.409zM40.897 17.643c-.38-.448-.736-.905-1.04-1.412-.279-.465-.422-1.03-.718-1.479-.034-.059-.135-.059-.152.026-.195 1.014.532 2.13 1.022 2.882.702 1.073 1.648 1.977 2.595 2.822.913.812 1.876 1.564 2.84 2.325 1.234.971 2.442 2.062 3.794 2.915.127.085.237-.093.144-.203-1.682-2.205-3.921-3.684-5.916-5.383-.913-.77-1.792-1.58-2.57-2.493zM30.045 20.186c-.203-.414-.482-.752-.87-.963-.043-.025-.085.042-.06.076.254.346.508.684.795 1.006.06.067.169-.034.135-.119zM28.44 31.36c.456.845 1.073 1.563 1.791 2.197.025.025.06-.017.034-.043-.592-.743-1.285-1.394-1.809-2.172 0-.016-.025 0-.017.017zM34.262 16.088c-.084-.009-.152.093-.093.16.127.144.246.33.322.516.033.076.067.203.118.253.093.102.22.076.321-.025.06-.06.085-.17.068-.245a.823.823 0 0 0-.736-.66zM39.773 22.544c.211-.498-.11-.938-.372-1.301-.347-.473-.76-.879-1.26-1.166-.033-.017-.075.017-.067.059.118.473.406.828.71 1.183.321.38.515.913.879 1.242.025.034.084.034.11-.017z" fill="#7E7B88"/><path d="M35.505 17.803c-.017-.008-.034.017-.017.026.65.845 1.065 1.901 1.462 2.932.44 1.141.972 2.223 1.648 3.229.626.93 1.403 1.766 2.282 2.45 1.082.837 2.18 1.361 3.448 1.851.093.034.16-.101.093-.169-.921-.887-2.02-1.42-3.017-2.163-1.031-.77-1.876-1.792-2.578-2.874-.617-.955-1.073-1.994-1.555-3.017-.44-.896-.87-1.842-1.766-2.265zM28.27 26.035c.026.008.068-.026.043-.05-.085-.128-.229-.22-.355-.314-.034-.025-.076.034-.051.068.11.11.228.228.363.296zM30.392 27.454c1.073 2.604 3.414 4.463 5.307 6.559.026.025.068-.009.051-.042-1.58-2.451-4.141-3.897-5.341-6.525-.009 0-.017.008-.017.008zM31.068 20.862c.608 1.175 1.47 2.088 2.417 2.975-.845-.972-1.623-2.003-2.358-3.034-.025-.025-.085.026-.06.06zM27.611 21.251c-.228-.279-.448-.574-.592-.93-.025-.059-.118.01-.092.068.135.364.338.71.65.913.026.017.05-.025.034-.05zM38.285 57.195c-.236.042-.194.347-.008.414.338.119.684.212 1.006.372.295.152.448.397.811.389.068 0 .118-.042.144-.11.177-.422-.254-.693-.592-.862a2.27 2.27 0 0 0-1.36-.203zM45.156 65.934c.136-.38-.338-.718-.591-.938-.338-.279-.668-.49-1.133-.533-.135-.008-.177.161-.101.237.262.287.566.516.862.77.236.202.482.549.837.549.05.008.1-.034.126-.085zM44.835 68.402c.085.06.178.118.27.177.094.06.187.034.296.034a.1.1 0 0 0 .102-.126c-.017-.085-.017-.144-.068-.212-.059-.084-.169-.144-.262-.203a1.434 1.434 0 0 0-.532-.228c-.093-.017-.203.06-.17.16.068.17.212.288.364.398zM47.574 66.01c.084.042.228-.008.21-.118-.084-.845-.7-1.445-1.292-2.037-.702-.71-1.505-1.327-2.325-1.902-1.495-1.04-3.456-2.104-5.35-2.121-.084 0-.11.102-.041.135 1.555.888 3.236 1.547 4.74 2.57a17.266 17.266 0 0 1 2.173 1.749c.608.6 1.09 1.327 1.885 1.724zM26.749 30.801c.66.812 1.37 1.598 2.088 2.392.777.854 1.47 1.8 2.281 2.646.017.016.051-.009.034-.034-.558-.947-1.335-1.741-2.053-2.536a82.66 82.66 0 0 0-2.341-2.484c0-.009-.009.008-.009.016zM21.036 40.986c-.068-.017-.135.059-.127.126.085.406.347.76.541 1.116.203.38.304.769.617 1.065.06.05.194.025.22-.068.127-.524-.085-.887-.313-1.318-.203-.389-.49-.803-.938-.921zM23.123 42.591c.06.034.152.017.203-.042.786-.87-.617-2.46-1.09-2.992-.735-.82-2.164-1.986-3.457-1.699-.126.026-.169.16-.084.228.414.296.938.457 1.394.719.541.313 1.015.727 1.446 1.175.422.439.76.938 1.022 1.504.17.363.178.904.566 1.107zM31.55 61.463c-.28-.169-.727-.422-1.082-.304-.076.025-.152.11-.119.186.11.287.474.456.744.608.355.203.668.372 1.065.49.118.034.211-.093.16-.185a2.04 2.04 0 0 0-.769-.795zM35.184 63.635c.059.051.143-.017.118-.084-.676-1.521-1.851-2.84-3.195-3.837-1.369-1.006-3.11-1.665-4.665-2.333-.068-.034-.194.042-.135.127.389.524 1.014.845 1.614 1.133.82.388 1.648.76 2.417 1.233 1.58.99 2.434 2.587 3.846 3.761zM66.437 49.31c-.338-.186-.702-.389-1.082-.363-.042 0-.084.033-.068.084.119.321.39.499.677.685.312.203.684.473 1.056.473.068 0 .152-.05.135-.135-.076-.364-.389-.566-.718-.744zM46.044 21.057c-.245-.448-.668-.727-1.031-1.056a7.798 7.798 0 0 1-1.082-1.268c-.042-.06-.118-.026-.11.05.101.592.456.98.854 1.378.388.38.794.794 1.293 1.006.059.017.11-.06.076-.11zM65.955 37.03a.019.019 0 0 0-.025.025c.727.938 1.978 1.48 2.983 2.02 1.268.685 2.57 1.445 3.964 1.614.076.009.068-.092.008-.118a65.234 65.234 0 0 1-3.794-1.834c-1.057-.54-2.138-1.022-3.136-1.707zM71.449 38.585c.642.566 1.436.744 2.214.795.042 0 .034-.043 0-.06-.71-.346-1.496-.397-2.197-.76-.017-.009-.034.008-.017.025zM68.44 47.932c.837.423 1.496 1.074 2.341 1.48.093.042.203-.034.135-.136-.98-1.377-2.45-2.011-3.955-2.662-.854-.363-1.716-.701-2.56-1.082-.804-.363-1.581-.938-2.426-1.158-.026-.008-.06.017-.034.051.786 1.2 2.67 1.809 3.938 2.358.854.372 1.716.727 2.561 1.15zM43.34 58.049c.118-.042.135-.178.033-.245-.575-.414-1.301-.583-1.918-.922-.71-.388-1.344-.887-1.961-1.386-.473-.388-.972-.752-1.445-1.132-.474-.363-.845-.887-1.352-1.192-.093-.05-.186.026-.195.11-.084.592.482 1.065.87 1.429.558.507 1.192.955 1.784 1.436.668.55 1.369 1.057 2.13 1.48.617.346 1.343.684 2.053.422zM64.164 47.907c-.026 0-.043 0-.068.009-.245.016-.296.278-.093.43a.255.255 0 0 0 .06.043l.016.008c.017.009.034.026.05.034.102.076.237.034.305-.05.042-.035.085-.068.118-.11.203-.229-.135-.541-.372-.355.068-.06.009-.009-.016-.009zM71.694 35.306a6.782 6.782 0 0 1-1.116-.66c-.017-.008-.025.01-.017.018.313.32.71.557 1.116.684.042.009.042-.025.017-.042zM65.228 50.764c1.251 1.217 2.992 2.155 4.547 2.958.06.034.102-.043.043-.085-1.496-.989-3.018-2.062-4.573-2.907-.017 0-.034.017-.017.034zM68.043 39.447c-.566-.33-1.133-.65-1.707-.955-.338-.177-.786-.583-1.167-.6-.033 0-.05.017-.059.042-.245.685 1.936 1.657 2.4 1.944 1.657 1.023 3.449 1.767 5.308 1.741.042 0 .06-.059.017-.084-.752-.431-1.564-.6-2.35-.88-.845-.303-1.656-.752-2.442-1.208zM47.041 15.724c1.14 1.327 2.011 2.907 3.186 4.243 1.226 1.386 2.553 2.763 4.116 3.76.025.017.042-.016.017-.033a34.651 34.651 0 0 1-4.023-3.846c-1.183-1.326-2.07-2.898-3.28-4.14-.008-.018-.033 0-.016.016zM49.509 17.947c.718.921 1.453 1.876 2.35 2.62.033.025.067-.026.041-.06-.785-.87-1.538-1.783-2.374-2.577-.009-.017-.026.009-.017.017zM65.347 21.986c-.237-.371-.533-.532-.88-.76a20.64 20.64 0 0 1-1.41-1.023c-.49-.389-.956-.82-1.412-1.25-.423-.398-.837-.896-1.327-1.167-.034-.017-.067.008-.042.05.499.964 1.572 1.835 2.366 2.536.702.626 1.75 1.614 2.654 1.707.05 0 .076-.05.05-.093zM48.985 14.845c-.009-.025-.034-.009-.034.008-.05.685.583 1.175.989 1.606.042.05.127-.008.084-.067-.346-.5-.803-.972-1.04-1.547zM69.936 32.17c.211.119.389-.1.211-.287-.144-.152-.346-.253-.524-.346a1.826 1.826 0 0 0-.566-.203c-.034-.009-.05.025-.042.059.059.177.177.287.33.397.177.135.396.27.59.38zM61.67 30.489c-.008-.009-.017.008-.008.017 1.116 1.234 2.527 2.18 3.913 3.06 1.37.87 2.814 1.647 4.302 2.273.05.017.067-.051.025-.076-1.394-.854-2.831-1.58-4.209-2.417-1.42-.846-2.696-1.877-4.023-2.857zM62.87 21.7c.06.025.119.126.17.168.101.085.22.119.304.034.076-.076.076-.236-.017-.33-.144-.135-.296-.228-.473-.202-.17.017-.119.262.017.33zM60.403 20.322c-.034-.009-.06.042-.042.076.616 1.005 1.69 1.901 2.543 2.687.499.456 1.014.896 1.538 1.319.415.33.854.785 1.353.752.084-.009.101-.11.059-.186-.245-.448-.794-.71-1.175-1.014a36.84 36.84 0 0 1-1.85-1.598c-.5-.448-.981-.913-1.446-1.386-.296-.296-.592-.591-.98-.65zM58.628 38.89c-.06.008-.06.101-.009.126.77.465 1.564.845 2.3 1.386.828.609 1.588 1.268 2.518 1.733.135.068.236-.076.143-.186-1.115-1.335-3.152-3.39-4.952-3.06zM49.729 20.49c.169.339.456.61.701.888.025.025.06-.008.05-.034-.185-.338-.456-.6-.684-.904-.034-.042-.093.008-.067.05zM52.357 21.049c-.042-.026-.076.025-.042.067.135.178.279.288.448.414.042.026.076-.025.042-.059-.144-.16-.27-.304-.448-.422zM52.796 18.268c.237-.144-.033-.499-.143-.642-.152-.203-.321-.465-.575-.499-.025 0-.05.017-.05.042-.06.245.126.473.253.668.101.143.296.566.515.43zM46.12 15.952c1.208 1.158 2.02 2.646 3.042 4.006.034.043.085-.008.068-.05-.752-1.513-1.826-2.975-3.093-3.973-.017-.008-.026.009-.017.017zM29.513 36.793c-.457-.98-1.167-1.766-1.885-2.569-1.014-1.124-2.105-2.138-3.11-3.22a102.725 102.725 0 0 0 4.995 5.79zM51.148 14.913c.482.786 1.158 1.47 1.758 2.163.668.77 1.31 1.564 1.97 2.341 1.259 1.488 2.67 3.077 4.36 4.049.06.034.119-.043.068-.093-.702-.634-1.318-1.403-1.986-2.07a40.448 40.448 0 0 1-2.062-2.283c-.668-.786-1.31-1.572-1.978-2.34-.6-.694-1.268-1.438-2.062-1.843-.034-.017-.101.025-.068.076zM23.149 23.837c.465 1.69 1.791 3 3.135 4.006 0 0 .017 0 .009-.008-1.217-1.234-2.012-2.755-3.06-4.057-.025-.033-.093.017-.084.06zM25.169 24.175c-.017-.025-.068.017-.051.043.456.803.955 1.606 1.74 2.096.01.008.026-.009.018-.017-.71-.592-1.082-1.47-1.707-2.122zM48.714 22.874c.626.684 1.26 1.242 2.037 1.74.068.043.144-.058.085-.117-.626-.634-1.192-1.327-1.784-1.978-.532-.583-1.065-1.234-1.758-1.572-.05-.025-.11.025-.076.076.39.685.964 1.268 1.496 1.85zM53.861 16.645c.288.406.71.693 1.031 1.074.457.524.837 1.107 1.226 1.681.65.956 1.31 2.037 2.392 2.451.084.034.135-.076.076-.152a37.249 37.249 0 0 1-2.367-3.05c-.524-.753-1.386-2.046-2.315-2.105-.034 0-.077.06-.043.101zM57.183 17.152c-.752-.76-1.293-1.606-1.919-2.46-.042-.067-.152-.024-.143.06.11.98.93 1.902 1.563 2.603.76.837 1.564 1.657 2.57 2.13.05.025.11-.05.075-.101-.625-.88-1.42-1.488-2.146-2.232zM53.549 14.913c-.262-.305-.592-.685-.956-.812-.118-.042-.177.093-.135.195.16.38.482.693.744.997.313.372.668.66 1.082.88.059.033.135-.026.093-.094a6.765 6.765 0 0 0-.828-1.166zM57.91 19.519c-.119-.026-.22.11-.119.22.38.397.82.718 1.217 1.098.465.448.88.947 1.302 1.437.802.938 1.563 1.707 2.628 2.29.06.034.135-.042.068-.101-.905-.803-1.674-1.834-2.468-2.755-.702-.82-1.589-1.936-2.629-2.19zM67.722 26.026c-.093-.185-.355-.295-.516-.397-.177-.11-.346-.245-.54-.27a.098.098 0 0 0-.11.11c.025.211.22.363.38.481.169.127.43.364.634.372.16 0 .228-.143.152-.296zM64.189 25.359c-.085-.043-.194.025-.127.126.558.846 1.623 1.48 2.519 1.649.059.008.093-.076.042-.119a6.402 6.402 0 0 0-1.056-.794c-.465-.28-.905-.609-1.378-.862zM56.718 18.243c-.009-.009-.017-.017-.026-.017-.059-.06-.152-.017-.126.076.017.05.008.11.017.16.017.068.05.136.076.203.059.127.135.262.245.355.143.11.262-.042.245-.186-.026-.135-.127-.27-.212-.38-.067-.101-.126-.178-.22-.211zM19.456 35.483c.422.516.955.888 1.512 1.268.634.423 1.268.845 1.767 1.437.54.634.98 1.378 1.462 2.07.05.068.186.043.186-.059 0-.44-.119-.862-.321-1.259a202.937 202.937 0 0 1-2.333-2.392c-.625-.414-1.268-.777-1.817-1.267-.507-.465-.71-1.2-1.293-1.572-.034-.017-.06.025-.05.05.236.592.49 1.234.887 1.724zM54.833 13.662c0 .22.076.423.245.566.076.06.144-.008.152-.084.009-.212-.101-.397-.253-.541-.06-.05-.144-.025-.144.06z" fill="#7E7B88"/><path d="M57.673 67a8.582 8.582 0 0 0-.634.151c-1.107-.617-2.155-1.318-3.338-1.791-.026-.009-.051.016-.034.042.76.752 1.648 1.411 2.578 2.003-.457.152-.913.32-1.37.465a16.665 16.665 0 0 1-2.62-1.936c-1.715-1.513-3.389-3.676-5.721-4.276-.042-.009-.076.042-.042.076.98.82 2.02 1.58 2.983 2.434 1.023.913 1.986 1.893 3.042 2.78.516.431 1.057.803 1.615 1.141-.507.152-1.014.296-1.522.44-.304-.178-.617-.33-.946-.389-.05-.008-.11.034-.093.085.076.177.194.346.338.49-.076.025-.16.042-.245.067-.524.127-1.04.245-1.572.347-.203-.11-.406-.237-.6-.355a21.495 21.495 0 0 1-1.834-1.276c-.423-.322-.896-.76-1.437-.862-.05-.009-.11.034-.084.076.203.54.794.955 1.234 1.318.54.448 1.107.88 1.698 1.268-.44.067-.879.127-1.327.169-.54-.237-.98-.406-1.022-.33-.068.119.008.254.144.397-.474.026-.939.043-1.412.034-.422-.008-.845-.017-1.268-.042a21.542 21.542 0 0 1-2.907-2.366c-.803-.77-1.572-1.572-2.358-2.341-.65-.634-1.369-1.429-2.273-1.725-.034-.008-.051.026-.043.051.448.87 1.344 1.564 2.037 2.274.828.845 1.64 1.715 2.502 2.544.532.515 1.09.997 1.682 1.453a6.453 6.453 0 0 1-.727-.49c-.626-.507-1.25-1.107-2.062-1.327-.017-.008-.042.017-.026.034a12.27 12.27 0 0 0 1.657 1.656 35.032 35.032 0 0 1-1.885-.312c-.076-.178-.152-.355-.228-.516-.228-.507-.685-1.022-1.242-1.234-.017-.008-.043.017-.026.034.364.499.583.989.778 1.564a15.88 15.88 0 0 1-.676-.161c-.11-.77-.643-1.648-.922-2.088-.54-.853-1.63-2.391-2.848-2.408-.042 0-.067.05-.05.076.295.422.718.786 1.065 1.175a12.213 12.213 0 0 1 1.42 1.994c.177.321.32.66.422 1.014a34.267 34.267 0 0 1-3.938-1.335 30.376 30.376 0 0 1-1.513-.668c.414-2.417-3.88-3.279-5.519-4.04-.034-.016-.068.026-.042.043.786.794 1.825 1.234 2.831 1.775.55.287 1.056.642 1.479 1.081.203.22.363.49.499.77a25.662 25.662 0 0 1-6.778-5.004c.54.203 1.09.398 1.622.575 1.412.482 2.865.913 4.234 1.53 1.682.76 2.916 1.994 4.049 3.372-.17.093-.338.169-.499.279-.093.067-.06.211.025.262.431.228.862.126 1.268-.136.186-.118.304-.355.17-.54-.948-1.387-2.215-2.57-3.66-3.474-1.243-.77-2.756-1.217-4.15-1.673-1.479-.482-2.941-.955-4.293-1.564a22.11 22.11 0 0 1-1.285-1.682c.71.16 1.437.305 2.121.541.87.296 1.682.693 2.527 1.057.803.338 1.665.617 2.451.997.068.034.135-.06.068-.102-.718-.498-1.36-1.056-2.113-1.504-.685-.406-1.445-.701-2.197-.98-1.1-.414-2.198-.592-3.33-.71-.28-.44-.558-.888-.812-1.335.068-.017.136-.034.203-.06.05-.017.043-.076-.008-.084a3.287 3.287 0 0 1-.305-.042c-.194-.347-.38-.694-.557-1.048.515.101 1.04.126 1.521.059.034-.009.042-.042.008-.051-.65-.22-1.293-.448-1.893-.735a33.665 33.665 0 0 1-1.09-2.536c.397.482.913.888 1.47 1.209.837.482 1.716.38 2.705.397.068 0 .093-.101.026-.118-.947-.144-1.877-.71-2.629-1.2-.837-.55-1.37-1.336-1.682-2.248-.304-.87-.296-3.035-1.487-3.246-.085-.38-.17-.752-.237-1.132.33.177.65.372.947.6.363.279.693.591.988.938.254.304.398.676.677.955.067.06.177.017.21-.068.398-.92-.658-1.732-1.233-2.18a6.042 6.042 0 0 0-1.724-.938c-.05-.296-.102-.6-.144-.896.651.313 1.327.592 1.961.963 1.065.634 1.809 1.513 2.206 2.705.135.389.38 1.58-.414 1.698-.465.068-1.023-.354-1.437-.498-.068-.025-.118.06-.093.11.33.811 1.437 1.428 2.324.667 1.014-.87.262-2.51-.152-3.287-.65-1.217-1.809-1.893-3.017-2.476-.431-.212-.964-.364-1.462-.55a34.473 34.473 0 0 1-.212-2.29v-.093l.093.067c.87.575 1.767 1.116 2.561 1.81.82.71 1.48 1.571 2.062 2.5.533.854.955 1.776 1.851 2.325.135.084.288-.093.228-.22-.904-1.817-2.045-3.626-3.49-4.97-.66-.608-1.412-1.098-2.172-1.554-.38-.22-.778-.431-1.15-.66a22.09 22.09 0 0 1 .034-1.495c.888 1.132 2.308 1.986 3.719 2.053.118.009.16-.16.076-.211-.913-.507-1.85-.938-2.637-1.589a7.236 7.236 0 0 1-.997-1.04c-.034-.042-.068-.092-.102-.143.026-.347.06-.693.102-1.04.042-.363.076-.727.127-1.09.186.389.422.735.6 1.014.025.043.11.017.118-.042.05-.473-.093-.87-.245-1.268-.127-.312-.178-.633-.22-.963-.067.287-.127.575-.186.862.144-.989.338-1.978.634-2.924.076-.245-.287-.33-.38-.102-.66 1.58-.938 3.263-1.158 4.944-.237 1.868-.296 3.677-.127 5.553.364 3.972 1.547 7.81 3.136 11.443 1.479 3.39 3.71 6.449 6.406 8.976 2.84 2.653 6.262 4.462 9.905 5.755 3.66 1.302 7.606 1.995 11.485 1.876 1.936-.059 3.863-.414 5.739-.879 1.91-.473 4.04-.972 5.747-1.96.287-.153.076-.584-.245-.516zM17.292 47.526c.076.186.135.389.169.608-.06-.194-.118-.405-.17-.608z" fill="#7E7B88"/><path d="M49.306 61.776c.575.54 1.15 1.09 1.758 1.597.608.499 1.26 1.116 2.104 1.158.119.008.16-.127.085-.203-.609-.617-1.42-1.065-2.088-1.631-.667-.566-1.276-1.183-1.918-1.766-.997-.896-2.468-2.113-3.922-1.902-.033.008-.034.042-.008.06.676.38 1.403.633 2.062 1.064.702.448 1.319 1.057 1.927 1.623zM34.245 13.476c-.143.05-.287.101-.422.152-.127.05-.262.093-.406.144-.76.313-1.513.65-2.248 1.014-.059.042-.118.085-.16.135a.413.413 0 0 0-.06-.025c-3.211 1.589-6.22 3.65-8.434 6.39-.17.185-.338.371-.499.574-.397.49-.803.972-1.183 1.47-.237.313-.71.795-.685 1.209.009.11.085.211.178.253-.034.068-.068.144-.102.212.06.101.127.203.186.304a.184.184 0 0 0 .136-.093c.008-.008.008-.017.017-.034.118.296.236.6.355.896a56.91 56.91 0 0 0 2.172 3.085c-.372-.6-.694-1.234-.972-1.927-.338-.87-.668-1.885-1.217-2.645.186-.322.388-.643.6-.955a.366.366 0 0 0 .05-.06c.11.347.262.668.423.98.372.744.896 1.522 1.631 1.928.025.017.05-.026.034-.043-.499-.684-1.014-1.301-1.386-2.079a8.565 8.565 0 0 1-.406-1.132c.237-.279.473-.558.719-.837.05-.059.101-.11.152-.169.101.186.236.347.422.448.026.017.076-.025.051-.059a3.646 3.646 0 0 1-.304-.566c.236-.254.481-.499.726-.736.28.66.803 1.2.972 1.91 0 .009.017.009.017-.008a4.657 4.657 0 0 0-.43-1.386 5.154 5.154 0 0 1-.313-.744c.245-.228.498-.448.76-.667.136.481.321.93.507 1.343a11.575 11.575 0 0 0 2.164 3.254c.008.009.025-.008.017-.017-1.15-1.403-2.028-2.975-2.476-4.758l.574-.473c.237.558.566 1.056.921 1.386.017.017.051-.009.034-.034a6.88 6.88 0 0 1-.752-1.521c.11-.093.228-.186.338-.28.093-.075.186-.143.279-.219.093.127.203.237.313.321.017.017.042-.017.025-.034a2.134 2.134 0 0 1-.262-.354c.279-.22.558-.44.845-.643.11.28.237.55.338.778.457.972 1.124 1.927 2.029 2.484.033.017.067-.033.042-.059a8.295 8.295 0 0 1-1.767-2.4 7.056 7.056 0 0 1-.388-.989c.287-.203.575-.405.87-.608.051.042.093.076.144.101.05.034.135-.05.101-.11-.025-.033-.05-.067-.076-.11.313-.21.634-.414.955-.608.212.448.448.879.693 1.318.009.017.043 0 .034-.017a26.876 26.876 0 0 0-.43-1.47c.295-.178.6-.347.912-.507.355-.186.71-.364 1.073-.524.17.406.347.811.533 1.2.566 1.183 1.369 2.755 2.611 3.27 0 0 .017-.008.009-.008-.372-.625-.862-1.15-1.243-1.766-.389-.634-.718-1.31-1.03-1.995-.136-.304-.271-.617-.406-.93.354-.16.718-.312 1.073-.473l.025-.008c.076.068.152.127.228.186.051.034.127-.034.11-.101-.017-.068-.05-.136-.067-.203.405-.178.811-.355 1.225-.507.144-.06.279-.119.414-.186.423.507.786 1.073 1.141 1.64.98 1.571 1.775 3.71 3.49 4.563.11.06.22-.085.136-.186a30.389 30.389 0 0 1-2.062-2.924c-.524-.862-1.014-1.733-1.572-2.56-.17-.238-.364-.525-.592-.812.211-.11.431-.228.65-.321a.166.166 0 0 0 .077-.077c.177-.059.363-.126.54-.185.474.828.795 1.783 1.074 2.73.009.033.06.025.06-.009.143-1.031-.187-2.02-.626-2.882.194-.06.397-.118.592-.178.194.22.405.423.659.575.025.017.05-.017.042-.042a8.979 8.979 0 0 0-.33-.634c.068-.017.136-.042.203-.059.212-.06.431-.11.642-.17.305.533.617 1.074.93 1.607.786 1.352 1.673 2.645 2.747 3.786.05.06.152-.025.11-.093-.33-.499-.55-1.082-.829-1.606a42.446 42.446 0 0 0-1.377-2.518c-.262-.448-.524-.905-.786-1.352.237-.051.473-.102.718-.144.017.025.026.05.042.076.575.955 1.125 1.918 1.784 2.823.642.879 1.36 1.707 2.02 2.594.591.795 1.2 1.488 1.986 2.07-.77-.658-1.336-1.597-1.893-2.433-.575-.862-1.184-1.682-1.741-2.536a48.314 48.314 0 0 1-1.64-2.679l.355-.05c.33.464.693.912 1.065 1.318l.008-.009c-.101-.49-.312-.946-.549-1.386a26.698 26.698 0 0 1 2.003-.177c.228.321.473.625.693.896.042.05.118-.017.085-.076-.161-.28-.305-.558-.448-.845.22-.009.44-.017.667-.017.313.794.77 1.504 1.42 2.028.05.042.11-.034.085-.093-.338-.66-.66-1.293-.972-1.935.338 0 .676.008 1.014.025.338.718.837 1.37 1.301 1.809.051.05.127-.009.093-.076-.287-.558-.583-1.124-.836-1.707.253.016.515.033.769.059.27.465.566.904.837 1.31.777 1.166 1.724 2.51 2.915 3.245.034.025.076-.017.05-.06-.692-1.165-1.664-2.129-2.416-3.228-.27-.388-.507-.794-.735-1.2.143.017.278.034.422.05.186.288.347.508.414.576.034.033.085.008.076-.034a2.01 2.01 0 0 0-.093-.49c.237.034.474.076.71.11a.123.123 0 0 1 .017.025c.507.887 1.141 1.766 1.885 2.45.042.043.11-.008.076-.058-.44-.812-.972-1.547-1.454-2.316.262.05.516.101.778.16.228.372.515.744.87.829.085.017.16-.068.11-.16l-.304-.508c.211.05.422.11.634.17.067.109.127.21.177.295.414.676.93 1.428 1.623 1.775.025.017.06-.026.034-.06-.398-.625-.862-1.2-1.234-1.833.777.236 1.546.498 2.299.803.262.498.633.988.92 1.377 1.556 2.18 3.407 3.947 5.494 5.595.085.067.178-.06.102-.144-1.48-1.479-2.95-3.017-4.268-4.623a20.71 20.71 0 0 1-1.361-1.842c.194.084.389.177.575.262.126.253.295.482.448.693.473.634 1.065 1.073 1.656 1.572.085.076.17-.06.102-.144-.406-.448-.787-.913-1.167-1.377-.101-.127-.211-.262-.313-.398.609.313 1.209.651 1.8 1.006.482 1.192 1.556 2.299 2.443 3.161 1.09 1.056 2.265 1.868 3.626 2.324.076.025.127-.084.042-.135-1.158-.735-2.324-1.589-3.338-2.536a17.91 17.91 0 0 1-1.336-1.436c-.236-.28-.44-.583-.65-.88 3.025 2.004 5.645 4.615 7.758 7.607-.38-.245-.811-.389-1.209-.625-.456-.27-.92-.541-1.352-.854-.025-.017-.05.009-.034.034.347.532.812.938 1.336 1.26.422.261.955.6 1.394.456.017-.009.026-.017.026-.026.169.245.338.499.507.752-.195-.059-.398-.101-.583-.169a10.118 10.118 0 0 1-1.59-.76c-.929-.541-1.74-1.319-2.653-1.843-.042-.025-.093.017-.06.06.576 1.005 1.742 1.8 2.68 2.374.634.398 1.885 1.158 2.62.972.194.321.38.634.566.955-.177-.008-.372.009-.515-.017-.322-.05-.668-.16-.98-.152-.035 0-.06.034-.035.076.195.338.651.474.964.55.203.05.617.16.853.076.186.338.364.676.533 1.022-.423.034-.87-.084-1.293-.22-.812-.253-1.564-.81-2.367-1.047-.05-.017-.101.033-.067.084.591.786 1.682 1.242 2.527 1.547.296.101.997.287 1.496.236l.253.558a2.785 2.785 0 0 1-.55-.177c-.126-.06-.227.084-.151.202.16.254.388.372.65.457.077.025.186.05.296.076.127.296.245.6.364.896a1.943 1.943 0 0 1-.237-.06c-.634-.168-1.225-.464-1.825-.777-.009-.008-.017.008-.017.017.405.701 1.403 1.242 2.324 1.462.067.177.127.355.186.532-.017 0-.026-.008-.043-.008-.642-.194-1.259-.558-1.85-.896-.829-.465-1.665-.862-2.477-1.369-.067-.042-.177.008-.135.101.423.972 1.75 1.437 2.595 1.91.532.305 1.394.812 2.155.998l.177.558-.017-.009c-.549-.194-1.081-.515-1.648-.617-.017 0-.017.017-.008.026.422.498 1.006.785 1.572 1.03.067.034.16.068.253.102.051.186.102.372.153.55-1.302-.465-2.561-1.294-3.837-1.75-.051-.017-.068.034-.043.076.651.828 1.7 1.276 2.603 1.69.465.212.947.448 1.429.626.059.262.126.532.177.794a1.31 1.31 0 0 1-.524-.253c-.034-.026-.067.008-.059.042.06.203.321.389.642.532.102.524.186 1.057.262 1.59-.481-.153-.963-.356-1.386-.66-.025-.017-.05.008-.034.034.322.49.854.76 1.378.955.034.008.06.025.093.033.194 1.539.262 3.077.211 4.615-.98-.287-2.003-.389-2.983-.532-1.403-.212-2.62-.694-3.87-1.463-.888-.54-1.716-1.326-2.62-1.8-.052-.025-.144-.008-.127.068.135.718 1.022 1.183 1.588 1.572 1.09.76 2.18 1.462 3.44 1.85 1.141.356 2.324.423 3.474.618.363.059.718.143 1.073.253-.008.203-.025.406-.042.609h-.017c-1.234-.288-2.62-.237-3.846-.237-.033 0-.067.05-.025.076.82.65 2.172.499 3.102.642.245.034.49.093.735.161-.017.16-.034.321-.06.473-.067.16-.134.322-.202.49-.845-.168-1.69-.261-2.527-.388a15.27 15.27 0 0 1-3.702-1.023c-1.022-.423-1.85-1.04-2.746-1.682-.026-.025-.06.009-.051.042.27.829 1.115 1.37 1.842 1.784.938.532 1.978.946 3 1.234 1.302.355 2.654.456 3.964.701l-.127.457c-.574-.06-1.124-.017-1.42.278-.025.034-.008.085.034.102.39.144.803.228 1.226.304l-.254 1.166c-.422-.32-.836-.642-1.259-.946-1.428-1.04-3.186-1.767-4.876-1.876-.076-.009-.127.076-.076.143.422.592 1.301.786 1.935.99 1.183.388 2.172 1.08 3.178 1.842.304.228.6.456.904.684l-.05.194a16.066 16.066 0 0 1-.5 1.572 39.294 39.294 0 0 1-1.284-.76c-1.707-1.065-3.288-2.468-5.265-2.798-.068-.008-.093.076-.043.119.719.676 1.674 1.04 2.502 1.589.98.659 1.927 1.343 2.941 1.96.296.178.609.355.913.524-.076.186-.152.38-.237.566a78.728 78.728 0 0 0-1.115-.667c-.465-.27-1.082-.642-1.598-.524-.05.008-.076.068-.042.118.288.448.888.693 1.336.964.388.236.769.473 1.157.718-.279.6-.566 1.2-.87 1.783-.11.212-.228.423-.338.626l-.347.55a14.846 14.846 0 0 0-.845-.356c-.017-.008-.025.017-.008.025.245.136.507.288.777.448-.448.685-.913 1.361-1.403 2.012a2.695 2.695 0 0 1-.262-.16c-.025-.018-.059.025-.034.041.077.068.144.144.22.212-.186.245-.372.498-.566.743a6.615 6.615 0 0 1-.456-.278.019.019 0 0 0-.026.025c.119.135.254.254.389.372-.262.338-.532.668-.803.997-1.344-.566-2.696-1.301-3.795-2.18-.025-.017-.059.008-.033.033 1.073 1.015 2.273 1.792 3.617 2.41l-.71.836c-.752-.33-1.445-.71-2.121-1.209-.017-.017-.043.009-.026.026.634.524 1.31.971 2.062 1.284-.49.575-.988 1.141-1.496 1.699-.557-.254-1.073-.558-1.495-.963-.009-.009-.034 0-.017.016.33.49.803.854 1.343 1.141-.05.06-.1.119-.152.17.33.151.651.287.972.422 1.175-1.065 2.045-2.443 2.975-3.719.026-.033.042-.067.068-.101 1.25-1.564 2.417-3.186 3.414-4.927a25.824 25.824 0 0 0 1.623-3.38c.44-.804.693-1.978 1.065-3.34.245-.996.448-2.002.574-3.016.829-6.364-.777-12.914-3.845-18.492-2.983-5.417-7.564-10.116-13.184-12.779a29.002 29.002 0 0 0-10.556-2.713c-3.938-.236-7.868.541-11.562 1.877a45.12 45.12 0 0 0-1.369.524c.034.101.042.11.06.118z" fill="#7E7B88"/><path d="M68.905 29.45l.017.016.017.008.017.017c.168.11.346-.084.185-.253-.008-.008-.025-.017-.033-.034l-.009-.008c-.025-.017-.042-.043-.068-.06-.16-.135-.32.102-.177.246a.222.222 0 0 0 .05.042v.025zM40.517 54.423c-.102-.042-.237.06-.17.16.49.778 1.403 1.252 2.215 1.683.524.279 1.208.684 1.876.862a169.426 169.426 0 0 1-2.028-1.623c-.634-.364-1.234-.778-1.893-1.082zM72.082 49.826c.068-.127.009-.304-.135-.39-.152-.092-.405-.033-.422.145-.009.11-.009.22.067.32.009.018.026.035.043.06.101.11.287.11.371.017a.184.184 0 0 0 .043-.068c.017-.034.025-.059.033-.084-.008.025-.008.025 0 0zM49.72 66.999c.085.076.186.143.279.194.127.068.22.05.346 0 .043-.017.068-.067.06-.101-.009-.11-.026-.178-.119-.254-.093-.067-.194-.127-.296-.186a1.71 1.71 0 0 0-.287-.118c-.076-.026-.186-.026-.262-.068-.025-.008-.059.017-.042.034.06.068.076.178.127.254a.96.96 0 0 0 .194.245zM49.982 13.079c-.068-.009-.127.025-.127.11 0 .16.11.304.195.43a.47.47 0 0 0 .338.229c.042.008.067-.043.059-.085a.962.962 0 0 0-.16-.397c-.085-.11-.17-.262-.305-.287zM22.118 49.099c-.068.228-.22.465-.414.625-.229.194-.55.203-.812.313-.177.076-.262.304-.084.405.372.203.904.009 1.242-.279.363-.304.541-.684.406-1.081-.05-.136-.288-.16-.338.017zM16.76 33.743c.11.33.236.65.363.955.397.971 1.065 2.18 2.29 2.273.068.009.11-.076.051-.11-1.504-.946-1.91-2.746-2.366-4.403-.11.423-.229.854-.338 1.285zM66.395 28.291c-.28-.21-.566-.448-.88-.6-.05-.025-.084.034-.058.076.16.262.405.448.634.634.295.237.583.457.912.643.05.033.118-.017.076-.085a3.413 3.413 0 0 0-.684-.668zM28.33 56.528c.481.32.938.71 1.538.836a.106.106 0 0 0 .127-.143c-.415-1.015-1.8-1.657-2.722-2.156-.989-.54-2.307-1.225-3.524-1.107-.068.009-.127.093-.068.136.837.65 2.029.938 2.992 1.445.566.295 1.116.634 1.657.989zM24.078 55.92c-.574-.145-1.2-.33-1.825-.23-.025.01-.042.043-.034.06.262.406.77.54 1.242.668.677.177 1.336.422 2.054.498.085.009.195-.076.135-.16-.388-.516-.93-.676-1.572-.837zM35.877 61.286c-.068-.17-.288-.321-.44-.414a2.343 2.343 0 0 0-.245-.144c-.11-.06-.22-.06-.338-.102-.11-.033-.178.085-.144.17.034.067.042.143.093.21.06.094.144.178.22.263.135.152.33.338.54.389.246.067.398-.178.314-.372zM22.726 51.144c.465.718 1.462 1.116 2.18 1.606.812.55 1.581 1.377 2.595 1.64.093.025.17-.077.136-.153-.39-.87-1.361-1.42-2.139-1.935-.769-.507-1.682-1.26-2.687-1.285-.068-.008-.119.076-.085.127zM40.364 64.76c.355.287.693.591 1.015.912.33.33.583.752 1.022.955.093.042.203-.008.211-.11.06-.803-.845-1.555-1.453-2.003a10.545 10.545 0 0 0-2.874-1.487c-.05-.017-.093.05-.059.084.66.6 1.428 1.082 2.138 1.648zM44.142 59.579c-.634-.355-1.724-.862-2.476-.693-.101.025-.118.135-.06.202.415.457 1.268.651 1.826.938.643.33 1.167.795 1.783 1.158.043.026.119 0 .127-.05.127-.786-.557-1.192-1.2-1.555zM39.4 59.105c.136-.017.204-.177.077-.253-.828-.473-1.792-.702-2.637-1.141-.76-.397-1.437-1.09-2.265-1.335-.05-.017-.085.042-.068.084.322.778 1.319 1.302 2.029 1.724.811.482 1.867 1.048 2.865.921zM38.885 61.776c.567.287 1.133.55 1.69.853.626.339 1.167.761 1.835 1.032.118.05.245-.051.177-.17-.55-1.039-1.893-1.546-2.933-2.045-.566-.279-1.14-.55-1.69-.853-.55-.305-1.065-.702-1.673-.905-.068-.025-.102.051-.085.102.431.963 1.75 1.513 2.68 1.986zM23.284 43.386c-.008.718.456 1.259.887 1.757.6.702 1.234 1.42 1.995 1.986.854.626 1.8 1.1 2.738 1.615.938.515 1.69 1.276 2.62 1.825.11.06.211-.05.203-.152-.101-.896-.93-1.344-1.597-1.809-.829-.574-1.758-.997-2.629-1.478-1.656-.913-3.034-2.375-4.175-3.77-.008-.008-.042.009-.042.026zM54.352 36.075a3.387 3.387 0 0 0-.719-.794c-.355-.28-.71-.6-1.107-.803-.144-.068-.338.067-.228.236.203.305.481.533.769.761.177.144.346.287.532.423.203.143.398.21.609.32.084.06.211-.033.144-.143zM42.773 28.908c.186.77.98 1.15 1.631 1.428a11.95 11.95 0 0 1 2.975 1.8c1.783 1.48 2.873 3.77 4.91 5.004.068.042.17-.042.11-.11-1.369-1.8-2.772-3.71-4.428-5.18a11.143 11.143 0 0 0-2.696-1.742c-.846-.397-1.708-.684-2.468-1.217-.017-.017-.034 0-.034.017zM45.156 28.917c.068.101.17.186.254.27.194.178.397.347.66.364.1.008.168-.11.151-.203-.059-.262-.253-.389-.448-.533-.093-.076-.203-.143-.296-.22-.084-.059-.185-.092-.27-.16-.11-.093-.245.017-.194.16.042.11.067.212.143.322zM53.625 38.087c-.026-.051-.026-.119-.051-.17a.735.735 0 0 0-.17-.194 1.42 1.42 0 0 0-.405-.27c-.152-.06-.27.135-.194.262.076.143.203.253.321.355.068.059.135.101.22.135.05.025.127.009.169.025.084.034.143-.067.11-.143zM53.151 44.611c.068.042.127-.05.076-.101-.22-.254-.54-.406-.853-.474-.068-.017-.085.068-.026.093.296.119.541.322.803.482zM40.981 33.472c-.017-.008-.042.009-.025.026.473.448.955.895 1.411 1.377.026.026.051-.008.034-.034-.397-.524-.913-.955-1.42-1.369zM41.632 27.86a3.036 3.036 0 0 0-.566-.355c-.135-.067-.321.085-.22.237.118.186.245.372.406.524.152.152.32.372.557.38.17 0 .263-.169.237-.32-.034-.212-.262-.347-.414-.466zM43.872 31.756c.549.558 1.056 1.074 1.758 1.446.1.05.245-.06.168-.17-.397-.59-.853-1.047-1.352-1.546-.465-.456-.997-1.031-1.64-1.192-.016 0-.025.009-.025.026.203.575.677 1.022 1.09 1.436zM37.541 40.622c-.075-.017-.143.101-.059.144.186.084.338.211.516.304.05.025.127-.034.084-.085-.143-.194-.295-.312-.54-.363zM38.987 32.204c-.017-.017-.043.009-.026.026 1.108 1.842 3.068 3.093 4.742 4.454.033.025.084-.017.05-.051-1.614-1.505-3.38-2.755-4.766-4.429zM25 41.172c-.06-.026-.144.042-.102.1.034.069.034.153.06.22.042.102.092.195.152.288.118.194.236.406.456.49a.124.124 0 0 0 .169-.127c-.025-.228-.144-.405-.262-.591a1.423 1.423 0 0 0-.203-.245c-.076-.068-.169-.085-.27-.136zM39.097 42.05c-.009-.017-.034 0-.026.017.77 1.386 2.4 2.35 3.651 3.33a92.414 92.414 0 0 0 5.29 3.862c.035.026.069-.025.043-.05-1.656-1.294-3.33-2.519-4.96-3.778-.626-.482-1.235-.98-1.86-1.454-.77-.583-1.58-1.14-2.138-1.927zM28.828 46.014c.068-.025.102-.093.068-.152-.102-.203-.254-.313-.457-.414a2.876 2.876 0 0 1-.667-.516c-.364-.346-.668-.887-1.167-1.048-.093-.034-.21.085-.177.17.169.515.676.971 1.04 1.352.312.33.82.82 1.36.608zM30.518 45.346c-.71-.397-1.183-.904-1.673-1.512-.008-.009-.025 0-.025.016.008 1.268 1.563 2.02 2.526 2.527.372.195.744.38 1.116.575l-1.487-1.36a7.747 7.747 0 0 1-.457-.246zM47.1 50.434c.254.11.473.304.693.465.026.017.06-.026.034-.042-.203-.203-.414-.415-.71-.474-.025-.008-.05.042-.017.051zM44.387 45.296c.034.025.068-.017.042-.043-.642-.6-1.36-1.115-1.935-1.774-.017-.017-.034.008-.025.017.481.743 1.225 1.259 1.918 1.8zM46.627 49.893c.017.017.034-.017.025-.025-1.42-1.31-3.27-2.07-4.48-3.558-.008-.009-.016 0-.016.008.938 1.623 2.967 2.46 4.47 3.575zM47.683 35.28c.457.465.93.922 1.403 1.37.685.642 1.876 1.952 2.882 1.876.076-.009.127-.076.085-.152-.245-.44-.702-.685-1.1-.964-.574-.414-1.106-.887-1.63-1.36-.49-.44-.955-.896-1.428-1.344-.355-.33-.685-.719-1.141-.896-.127-.042-.203.101-.152.211.228.507.71.88 1.081 1.26zM68.17 31.926c-.212-.102-.423-.237-.643-.322-.076-.033-.143.043-.118.119.068.228.287.346.482.456.126.068.253.127.372.211.11.068.202.127.32.102a.096.096 0 0 0 .077-.11c0-.245-.296-.363-.49-.456zM60.96 43.986c.077.059.195.076.271.033.093.017.177-.05.152-.143a.775.775 0 0 0-.076-.195.215.215 0 0 0-.076-.177c-.06-.05-.152-.093-.228-.068-.05.017-.076.034-.118.06-.034.025-.043.059-.06.092a.24.24 0 0 0-.05.203c.025.102.093.16.169.178l.017.017zm-.11-.423c.01-.008.01-.008 0 0zM49.737 54.575c.684.49 1.36.964 2.037 1.429-.38-.693-1.2-1.124-2.037-1.429zM40.364 47.197a69.35 69.35 0 0 0-2.763-2.493c-.245-.203-.482-.406-.727-.608 1.023.938 2.062 1.867 3.144 2.797.118.101.236.203.346.304zM61.62 56.52c-.06-.035-.11.033-.068.084.237.228.482.447.76.6.051.025.085-.026.051-.068-.21-.245-.473-.44-.743-.617zM63.031 42.82a37.71 37.71 0 0 1-1.673-1.192c-.482-.364-.947-.803-1.522-.964-.042-.008-.084.026-.067.068.211.498.634.836 1.048 1.191.54.465 1.107.913 1.69 1.327 1.014.727 2.273 1.716 3.524 1.792.102.008.127-.101.06-.178-.82-.878-2.071-1.386-3.06-2.045zM65.507 28.79c-.997-.71-1.91-1.572-2.907-2.248-.068-.05-.16.034-.11.11.642.887 1.521 1.572 2.375 2.231.963.744 2.045 1.547 3.186 1.902.068.025.127-.06.068-.119-.803-.735-1.741-1.259-2.612-1.876zM65.034 36.785c-.583-.642-1.166-1.073-1.893-1.521-.668-.414-1.335-.905-2.062-1.166-.05-.017-.093.033-.06.084.398.609 1.049 1.031 1.64 1.411.77.49 1.513.888 2.333 1.268.05.009.067-.05.042-.076zM61.298 36.405c-.878-.584-1.783-1.1-2.687-1.615a44.136 44.136 0 0 1-2.654-1.597c-.862-.558-1.445-1.234-2.146-1.952a.049.049 0 0 0-.085.034c.093 1.732 2.375 2.873 3.651 3.625 1.927 1.133 4.031 2.037 5.941 3.27.077.052.161-.05.085-.117-.701-.575-1.344-1.141-2.105-1.648zM68.964 42.938c-1.225-.499-2.333-1.074-3.414-1.843-1.015-.718-1.986-1.487-3-2.18-.947-.651-2.029-1.302-3.11-1.59-1.074-.286-2.181-.219-3.255-.472-.033-.009-.067.033-.033.067.743.702 1.8.812 2.73 1.065 1.259.338 2.383 1.006 3.49 1.767 2.079 1.42 4.04 3.118 6.592 3.313.068 0 .068-.102 0-.127zM62.93 46.47c-1.623-1.267-3.406-2.307-5.012-3.566a139.62 139.62 0 0 1-2.392-1.919c-.634-.515-1.293-1.174-2.045-1.479-.017-.008-.034.017-.025.034.44.778 1.267 1.386 1.926 1.978.761.676 1.539 1.335 2.342 1.969 1.487 1.183 3.245 2.73 5.147 3.085.059 0 .118-.06.059-.102zM23.267 47.882c.118.262.228.473.456.667.144.119.49.38.702.17.33-.33-.812-.88-.989-.998-.093-.067-.203.068-.169.16zM27.425 51.203c.144.144.288.27.406.448.093.135.144.296.236.44.043.067.119.067.186.016.77-.633-.955-1.673-1.445-1.758-.034-.008-.084.026-.067.06.118.33.44.557.684.794zM29.656 46.809c-.017 0-.025.008-.017.025.296.465.812.718 1.285.997.71.414 1.217 1.031 1.69 1.699.398.558.736 1.15 1.124 1.724.254.38.507.837 1.014.862.077 0 .127-.06.127-.127.06-.549-.515-1.04-.794-1.462-.38-.575-.744-1.158-1.158-1.707a5.407 5.407 0 0 0-3.27-2.011zM32.166 31.46c-.6-.583-1.124-1.216-1.63-1.867 0 0-.018 0-.018.008.786 1.47 2.13 2.772 3.516 3.719.026.017.06-.026.034-.05-.592-.652-1.276-1.201-1.902-1.81zM33.857 56.029c-.237-.363-.592-.634-.896-.938-.389-.389-.702-.854-1.04-1.285-.515-.667-1.081-1.479-2.028-1.555-.085-.008-.11.102-.068.144.677.777 1.361 1.521 1.986 2.358.448.591 1.048 1.47 1.944 1.437.076-.009.144-.093.102-.161zM33.983 58.91c.305.195.786.474 1.175.356a.185.185 0 0 0 .135-.22c-.05-.355-.447-.516-.743-.65-.355-.17-.719-.305-1.082-.449-.093-.034-.203.076-.178.16.119.364.364.592.693.804zM37.795 56.198c-.98-.77-2.13-1.276-3.05-2.096a9.444 9.444 0 0 1-1.37-1.538c-.27-.372-.566-.744-1.048-.87-.093-.026-.177.084-.135.16 1.132 1.994 2.924 4.166 5.502 4.496.084.017.186-.085.101-.152zM29.352 54.533c.448.431.702 1.048.997 1.589.406.752 1.032 1.885 2.113 1.766.11-.017.17-.126.102-.21-.347-.398-.786-.677-1.116-1.091-.346-.457-.608-.972-.887-1.462-.541-.938-1.352-1.758-2.451-2.062-.034-.009-.068.033-.05.067.278.583.827.964 1.292 1.403zM26.394 11.862c.803.6 1.902.912 2.814 1.293.567.236 1.116.498 1.657.786.448.236.837.6 1.344.65.084.009.118-.092.093-.16-.38-.82-1.758-1.192-2.544-1.487-1.082-.398-2.231-.88-3.347-1.108-.025-.017-.025.009-.017.026zM30.366 12.504c.338.313.744.533 1.15.752.456.245.87.592 1.352.786.042.017.084-.042.06-.076-.263-.405-.71-.634-1.133-.853a8.87 8.87 0 0 0-1.42-.634c-.009-.009-.026.017-.009.025zM13.827 4.272c2.434.913 4.86 1.7 7.217 2.823 2.333 1.107 4.581 2.384 6.888 3.55.034.017.06-.026.026-.05a53.178 53.178 0 0 0-6.956-3.948c-2.223-1.056-4.699-2.172-7.175-2.4-.009 0-.009.017 0 .025zM21.28 8.21c1.438.846 3.052 1.505 4.556 2.207.06.025.11-.051.051-.093-1.327-.972-3.017-1.7-4.598-2.147-.017 0-.025.025-.008.034zM58.29 61.717c.744.972 2.011 1.496 3.093 2.003 1.48.701 2.924 1.436 4.454 2.028a29.07 29.07 0 0 0 5.037 1.454c1.555.304 3.178.498 4.724.067.127-.033.093-.22-.033-.22-1.623-.05-3.212-.1-4.81-.414-1.546-.295-3.05-.777-4.538-1.284-1.53-.524-2.983-1.209-4.454-1.876-1.191-.541-2.35-1.057-3.448-1.784a.019.019 0 0 0-.025.026zM78.64 59.815c.094 1.294.128 2.637-.312 3.871-.389 1.09-1.352 1.826-1.834 2.848-.034.06.034.144.102.102 2.29-1.505 2.814-4.344 2.079-6.82-.017-.018-.034-.018-.034 0zM86.543 68.816c.904 1.953 2.307 3.99 1.876 6.263-.66 3.49-5.84 1.673-7.843.777-.093-.042-.169.085-.076.135 1.8 1.04 3.507 1.902 5.662 1.598 1.2-.17 2.198-.752 2.646-1.919.414-1.098.143-2.417-.211-3.49-.398-1.217-1.006-2.553-1.97-3.423-.05-.034-.11.008-.084.06z" fill="#7E7B88"/><path d="M85.765 70c1.327 1.808 1.86 4.64-.54 5.822-.068.034-.034.144.042.144 2.95-.017 2.434-4.868.524-5.992-.009 0-.034.008-.026.025zM18.94 7.442c.414.236.955.38 1.42.482.067.016.11-.06.067-.11-.338-.364-.997-.575-1.479-.44-.033.009-.042.05-.008.068zM22.87 10.704c.287.203.642.313.963.423.38.127.744.287 1.116.414.059.017.093-.05.05-.093-.49-.524-1.42-.752-2.12-.786-.026 0-.026.034-.01.042zM9.922 3.19c.28.28.668.364 1.04.449.296.067.591.11.887.186.245.059.473.169.727.16.068 0 .11-.076.076-.135-.237-.363-.752-.423-1.14-.49-.517-.085-1.057-.076-1.564-.211-.026-.009-.043.025-.026.042zM8.105 3.098c.119.017.245.042.364.05.11.009.245.034.32-.067.026-.034.035-.076 0-.11-.084-.093-.21-.06-.32-.042-.119.017-.237.042-.364.067-.042.009-.05.093 0 .102zM85.292 66.441c.093.27.203.533.364.778.126.203.278.448.54.456.043 0 .093-.034.102-.076.05-.262-.144-.482-.288-.685a1.988 1.988 0 0 0-.591-.566c-.06-.05-.152.017-.127.093zM77.686 57.381c.059.262.177.524.296.77.143.312.262.608.456.895.042.06.118.034.127-.034.067-.6-.313-1.318-.77-1.69a.066.066 0 0 0-.11.06zM76.832 55.877c.136.22.237.465.38.667.043.06.136.043.136-.033-.009-.305-.144-.6-.423-.736-.05-.017-.127.043-.093.102zM74.525 74.377c1.656 1.124 3.786 1.995 5.764 2.274.05.008.067-.051.017-.076a155.07 155.07 0 0 0-2.747-1.108c-.997-.397-1.97-.879-2.992-1.208-.067-.034-.101.076-.042.118zM71.71 73c.077.11.11.21.212.304.101.093.22.169.338.236.245.136.515.186.794.22.068.009.076-.084.034-.118-.22-.152-.448-.237-.684-.347-.203-.093-.499-.16-.66-.312-.016-.034-.05-.009-.033.016z" fill="#7E7B88"/><path d="M83.585 68.909c.87.904 1.47 1.944 1.487 3.228.017 1.065-.566 1.843-1.58 2.13-.972.28-2.045.085-3.009-.11-1.284-.253-2.594-.566-3.811-1.056-.043-.017-.068.05-.026.067 2.19 1.006 5.325 2.561 7.708 1.285.938-.499 1.225-1.538 1.2-2.527-.034-1.369-.794-2.4-1.944-3.068-.025-.008-.05.026-.025.051zM6.652 3.182c-1.344-.203-2.502.203-3.01 1.53-.532 1.411-.16 3.144.195 4.547.406 1.572 1.023 3.11 1.716 4.572 1.132 2.392 2.865 4.445 4.513 6.482.06.076.177-.025.127-.101-1.209-2.138-2.823-4.048-3.93-6.237a26.912 26.912 0 0 1-1.589-3.93c-.456-1.42-.837-2.941-.693-4.446.144-1.487 1.225-2.265 2.654-2.358.05.009.059-.05.017-.059z" fill="#7E7B88"/><path d="M7.159 4.543c-.98.465-1.606 1.082-1.733 2.206-.144 1.25.304 2.332.668 3.499.008.034.067.034.067-.009-.202-1.842-.82-4.411 1.015-5.645.033-.026.008-.068-.017-.051zM6.533 11.44c.211.21.28.557.38.82.093.27.237.439.474.59.059.034.135-.033.093-.092-.347-.457-.305-1.141-.88-1.412a.059.059 0 0 0-.067.093zM18.94 10.611c-1.403.22-2.764.634-3.753 1.707-.861.93-1.208 2.68-.295 3.694.042.05.118.008.118-.051.025-.668-.177-1.31-.076-1.986.093-.592.423-1.116.82-1.547.82-.87 2.079-1.428 3.203-1.783.025 0 .008-.042-.017-.034z" fill="#7E7B88"/><path d="M14.486 11.228c1.775-1.597 4.437-1.513 6.592-.786.076.025.118-.085.05-.127-1.808-1.04-5.535-1.335-6.693.879-.017.025.026.05.051.034zM13.514 12.775c-.017-.152.085-.313.16-.431.085-.136-.118-.305-.227-.178a.577.577 0 0 0-.161.347c-.008.126.05.21.118.304.043.059.119.017.11-.042z" fill="#7E7B88"/><path d="M16.607 8.7c-.718.238-1.495.246-2.23.423-.567.144-1.057.533-1.438.956-.633.701-1.098 1.901-.87 2.84.017.075.135.092.169.024.456-.887.473-1.867 1.166-2.653.803-.921 2.155-1.048 3.212-1.538.034-.026.017-.068-.009-.051zM12.128 13.873c-.068.211-.11.423-.084.65.042.271.152.432.33.626.041.043.11-.017.075-.059a2.155 2.155 0 0 1-.287-1.208c.008-.026-.026-.026-.034-.009zM79.858 63.678c-.245 1.707-.786 3.16-2.341 4.065-1.183.684-2.89.684-4.218.608-.067-.008-.084.102-.017.119 1.632.287 3.153.532 4.649-.355 1.479-.88 2.282-2.764 2.037-4.437 0-.06-.102-.06-.11 0zM80.221 67.303c-.22.524-.507.913-.963 1.251-.372.27-.82.431-1.217.668-.06.034-.034.118.034.127 1.081.016 2.248-.888 2.163-2.046 0-.008-.008-.008-.017 0zM41.674 53.578c1.488 1.58 3.229 2.933 4.936 4.26a125.813 125.813 0 0 0 5.147 3.786c3.609 2.527 7.277 5.054 11.122 7.226.06.034.11-.06.06-.093-3.584-2.451-7.235-4.792-10.793-7.268a141.37 141.37 0 0 1-5.342-3.896c-1.724-1.319-3.372-2.747-5.113-4.032-.017-.008-.025.009-.017.017zM55.061 59.722c.245.38.592.65.955.913.38.279.77.54 1.226.676.059.017.11-.06.059-.11-.304-.287-.66-.507-1.006-.744-.389-.27-.752-.591-1.2-.777-.017-.009-.05.008-.034.042zM76.232 54.559c-.236-.98-.786-1.885-1.335-2.722a30.279 30.279 0 0 0-.947-1.369c-.279-.38-.507-.896-.938-1.116-.05-.025-.135.009-.127.077.051.422.347.71.592 1.047.33.448.668.888.997 1.336.66.879 1.2 1.8 1.724 2.772.017 0 .043-.009.034-.026zM74.863 50.705c-.127-.524-.43-.913-.76-1.344-.237-.313-.474-.812-.846-.947-.042-.017-.101.026-.093.068.026.355.398.668.609.93.355.439.66.895 1.056 1.301.017.017.043.008.034-.008zM75.784 51.617c.44.651.955 1.226 1.47 1.817.702.812 1.32 1.682 1.91 2.57.559.82 1.083 1.665 1.666 2.468.498.676.896 1.428 1.445 2.07.034.042.101 0 .093-.05-.186-.846-.66-1.547-1.158-2.24-.591-.803-1.15-1.623-1.715-2.434a24.097 24.097 0 0 0-1.716-2.231c-.617-.702-1.36-1.285-1.978-1.987-.008-.008-.025 0-.017.017zM76.24 53.282c.694.82 1.21 1.792 1.953 2.553.034.033.093-.009.068-.051-.524-.887-1.133-1.944-1.995-2.535-.017-.017-.042.016-.025.033zM82.799 61.057c-.076.229.245.6.346.778.195.33.432.609.668.904.05.06.152-.008.127-.076a4.138 4.138 0 0 0-.482-1.014c-.11-.177-.355-.634-.6-.642-.025 0-.05.025-.059.05zM84.244 63.432c.043.246.178.541.406.66.042.025.084-.017.076-.06-.025-.126-.085-.21-.152-.32a4.48 4.48 0 0 1-.186-.347c-.042-.076-.16-.017-.144.067zM78.928 57.508c.888.87 1.42 2.054 2.029 3.118.414.727.81 1.471 1.174 2.223.38.803.668 1.648 1.09 2.434.026.051.11.034.11-.025-.202-1.682-1.267-3.355-2.138-4.775-.355-.583-.71-1.175-1.082-1.741-.295-.456-.659-1.014-1.174-1.242l-.009.008zM79.663 59.9c.609.727.626 1.918.795 2.814.008.06.093.042.093-.017.067-.997-.135-2.087-.879-2.814 0-.009-.017.008-.008.017zM17.622 8.625c.87.144 1.724.22 2.586.465.87.253 1.69.625 2.569.853.06.017.093-.067.042-.101-.786-.482-1.648-.786-2.527-1.057-.82-.245-1.825-.507-2.662-.22-.034.01-.042.051-.008.06zM13.616 5.65c.82.102 1.605.355 2.391.592.702.211 1.445.608 2.172.667.06 0 .093-.076.051-.118-.515-.532-1.437-.676-2.13-.862-.786-.211-1.673-.558-2.484-.321-.034.008-.026.042 0 .042zM11.976 9.335c.71-.786 1.64-1.158 2.654-1.378a7.738 7.738 0 0 1 1.589-.16c.676-.009 1.318.236 1.986.177.05-.008.076-.067.025-.093-1.15-.6-2.476-.55-3.702-.296-.955.195-2.324.66-2.628 1.708-.017.042.042.084.076.042zM12.069 6.453c.152-.076.262-.177.44-.22.185-.05.338-.05.498-.152.05-.025.042-.093 0-.118-.203-.144-.414-.11-.642-.034-.186.068-.414.194-.448.406-.017.084.068.16.152.118zM8.3 6.588c.955-1.394 2.45-1.242 3.955-1.487.059-.009.059-.102 0-.11-1.192-.22-3.837-.042-4.023 1.572 0 .05.05.059.068.025zM14.064 19.46c.591 2.036 1.394 3.896 2.518 5.696 1.25 2.011 2.764 3.904 4.184 5.797 1.411 1.877 2.856 3.728 4.394 5.502 1.615 1.868 3.406 3.533 5.29 5.114.043.033.102-.026.06-.068-1.563-1.657-3.178-3.262-4.665-4.995-1.564-1.809-3.043-3.693-4.48-5.612-2.712-3.617-5.645-7.175-7.242-11.46-.026-.017-.068-.008-.06.026z" fill="#7E7B88"/><path d="M18.923 26.559c.837 1.301 1.792 2.518 2.738 3.744.998 1.276 1.97 2.586 3.077 3.77.034.033.093-.01.067-.051-.845-1.285-1.842-2.477-2.797-3.685-1.006-1.276-1.986-2.578-3.051-3.803-.017-.017-.042.008-.034.025zM31.068 42.211c.067.237.304.431.473.6.203.211.423.355.66.524.058.042.117-.042.067-.093-.186-.203-.33-.44-.524-.634-.17-.169-.372-.405-.617-.448-.034-.008-.068.017-.06.051zM17.114 23.457c.322.778.727 1.547 1.234 2.214.043.051.127.026.11-.05-.186-.837-.71-1.572-1.276-2.206-.025-.025-.084 0-.068.042zM44.776 53.485c1.293 1.268 2.721 2.316 4.183 3.38 1.657 1.192 3.212 2.502 4.885 3.677 3.297 2.324 6.812 4.47 10.632 5.79.06.016.093-.068.043-.102-3.525-1.8-6.981-3.668-10.252-5.908-1.614-1.107-3.135-2.35-4.733-3.482-1.58-1.115-3.254-2.138-4.733-3.389-.017-.008-.042.017-.025.034zM36.156 45.794c.524 1.175 1.724 2.105 2.67 2.933 1.014.887 2.121 1.648 3.195 2.46.042.033.101-.043.059-.077-.955-.93-1.952-1.8-2.966-2.67-.998-.862-1.893-1.834-2.9-2.688-.033-.034-.075 0-.058.042z" fill="#7E7B88"/><path d="M38.175 48.262c.355.465.905.752 1.378 1.082.042.034.101-.034.06-.076a5.903 5.903 0 0 0-1.379-1.082c-.05-.034-.092.034-.059.076zM10.675 21.564c.802 1.268 1.85 2.417 2.763 3.609a26.248 26.248 0 0 0 3 3.279c.043.042.102-.017.068-.068-1.014-1.174-1.893-2.467-2.848-3.693-.88-1.115-1.741-2.375-2.924-3.194-.034-.017-.085.033-.06.067zM67.907 71.402c.567.71 1.522 1.411 2.426 1.572.06.008.127-.068.068-.118-.736-.584-1.631-1.065-2.443-1.522-.05-.017-.076.034-.05.068zM31.55 14.921c-2.19-1.31-4.53-2.51-7.007-3.169-2.46-.65-5.502-.71-7.327 1.352-1.352 1.522-1.107 3.778-.617 5.587.701 2.586 2.07 5.003 3.473 7.26 3.153 5.062 7.057 9.735 11.114 14.088 5.375 5.772 11.502 11.02 18.28 15.069 1.885 1.124 3.778 2.231 5.638 3.406 1.884 1.183 3.66 2.51 5.552 3.676 2.79 1.724 5.916 3.17 9.187 3.617 3.287.44 8.054-.473 8.02-4.648-.025-3.828-2.307-7.429-4.876-10.091-.347-.363-.896.186-.55.55 2.73 2.89 7.945 11.08 1.733 13.133-2.333.769-4.961.27-7.243-.457-3.904-1.259-7.124-3.701-10.522-5.907-3.6-2.333-7.395-4.344-10.894-6.82a88.36 88.36 0 0 1-9.246-7.581 105.712 105.712 0 0 1-13.218-14.942c-1.648-2.265-3.194-4.632-4.445-7.15-.997-2.012-2.088-4.53-1.631-6.829.558-2.789 3.82-3.347 6.195-3.009 2.763.389 5.29 1.648 7.767 2.874.16.076.32.16.481.236.16.068.296-.152.135-.245z" fill="#7E7B88"/><path d="M34.651 13.806c-2.975-2.62-6.372-4.708-9.77-6.72-2.991-1.774-6.093-3.388-9.322-4.673C12.373 1.145 8.84.131 5.384.545c-1.521.178-3.06.862-3.93 2.172-1.85 2.798-.025 6.897 1.234 9.534 2.003 4.183 4.766 7.995 7.59 11.646 2.163 2.806 4.445 5.519 6.794 8.164 5.527 6.22 11.35 12.187 17.503 17.79 6.094 5.544 12.559 10.7 19.421 15.263a432.045 432.045 0 0 0 10.785 6.905c3.33 2.07 6.752 4.015 10.454 5.358 3.034 1.099 6.203 2.164 9.474 2.223 2.586.05 5.409-.803 6.077-3.575.633-2.637-.364-5.662-1.395-8.071-1.285-2.983-3.119-5.755-4.953-8.426a87.305 87.305 0 0 0-4.969-6.558c-1.648-1.978-3.414-3.812-5.282-5.578-.372-.347-.93.202-.558.557 5.325 5.03 9.871 10.97 13.497 17.334 1.428 2.51 2.654 5.206 2.966 8.114.144 1.259.077 2.637-.633 3.727-.786 1.192-2.51 1.555-3.82 1.656-3.288.262-6.652-.904-9.703-1.994-3.735-1.327-7.183-3.229-10.555-5.3-7.201-4.41-14.351-8.975-21.01-14.18-6.568-5.148-12.737-10.793-18.577-16.743-3.938-4.006-7.809-8.122-11.384-12.458-2.806-3.405-5.477-6.904-7.885-10.598-1.251-1.918-2.417-3.896-3.398-5.966-.803-1.682-1.512-3.5-1.707-5.358-.135-1.378.093-2.806 1.158-3.778C4.294.833 7.15 1.06 9.255 1.382c3.667.566 7.15 2.08 10.454 3.719 3.288 1.63 6.457 3.516 9.542 5.502 1.724 1.115 3.431 2.273 5.045 3.55.245.194.6-.136.355-.347z" fill="#7E7B88"/><path d="M20.951 24.488c-1.495-1.25-2.13-3.499-2.594-5.316-.28-1.098-.465-2.24-.423-3.372.026-.71.17-1.656.938-1.927.06-.025.051-.11-.017-.11-2.096-.194-1.259 3.956-1.04 4.961.288 1.353.736 2.68 1.345 3.922.312.642.895 1.86 1.698 2.003.085.008.17-.093.093-.16zM72.108 53.274c2.147 2.518 4.97 6.203 3.304 9.668-.033.076.06.17.127.102 1.344-1.428.997-3.406.321-5.071-.752-1.851-2.02-3.626-3.575-4.885-.126-.102-.287.05-.177.186z" fill="#7E7B88"/></svg>