<svg width="40" height="40" fill="none" xmlns="http://www.w3.org/2000/svg"><path d="M2.499 29.159c.313-.431.43-.963.727-1.411.296-.457.743-.786 1.225-1.023.93-.465 2.062-.49 3.077-.583 2.062-.186 4.53-.6 5.054-2.983.033-.127-.136-.195-.203-.085-.364.558-.736 1.124-1.234 1.563-.507.44-1.158.643-1.8.787-1.023.228-2.08.228-3.119.38-.921.135-1.826.355-2.578.93-.667.507-1.36 1.546-1.25 2.408.008.042.067.068.1.017zM12.243 25.533c1.192-.372 1.615-1.605 2.147-2.611.685-1.302 1.69-2.341 3.127-2.747 1.37-.389 2.823-.127 4.2.026 1.403.152 3.094-.305 4.116-1.302.085-.085 0-.245-.118-.203-.718.228-1.378.617-2.104.837-.854.262-1.7.194-2.57.084-1.267-.16-2.569-.228-3.811.127-1.175.33-2.088 1.15-2.772 2.138-.77 1.107-1.057 2.815-2.248 3.575-.043.017-.017.093.033.076zM21.354 18.451c2.231.592 4.15-.49 5.806-1.885.828-.693 1.606-1.411 2.561-1.927.625-.33 1.285-.481 1.978-.524.684-.042 1.394.144 2.062-.017.11-.025.135-.194.034-.245-.955-.464-2.358-.312-3.356-.05-.98.262-1.834.887-2.611 1.521-.837.676-1.597 1.437-2.502 2.02-1.25.811-2.527.896-3.963 1.04-.026.016-.043.058-.009.067zM32.282 12.383c1.25.397 3.811.684 4.496-.82.093-.203-.144-.414-.321-.245-.609.608-1.175.854-2.029.955-.71.084-1.428-.017-2.146.06-.026-.01-.034.033 0 .05zM.589 18.113c1.175-1.082 2.197-2.316 3.397-3.38 1.192-1.049 2.502-1.953 3.736-2.95.06-.042-.017-.127-.076-.093-1.378.803-2.637 1.817-3.846 2.857-1.174 1.014-2.484 2.163-3.304 3.49-.034.06.05.118.093.076zM1.045 16.583c.744-.896 1.446-1.817 2.274-2.637.059-.059-.026-.143-.085-.093-.904.736-1.732 1.606-2.332 2.62-.051.085.076.186.143.11zM17.585 6.171c.245-.017.49-.144.718-.237.194-.076.473-.093.625-.236.034-.034.026-.093-.016-.119-.186-.11-.44.026-.626.102-.253.11-.532.237-.735.422-.017.026 0 .077.034.068zM7.629 8.74c-1.344.389-2.519 1.344-3.533 2.265a15.597 15.597 0 00-1.732 1.851c-.338.423-.829.938-.888 1.504-.008.06.076.11.127.077.397-.296.634-.812.921-1.2.49-.66 1.048-1.277 1.631-1.86a14.408 14.408 0 013.49-2.603c.01-.017 0-.042-.016-.034zM20.12 5.148c1.344-.346 2.62-.92 3.972-1.259 1.395-.355 2.933-.667 4.378-.575.17.009.203-.245.043-.295-.584-.16-1.234-.026-1.826.059-.82.118-1.631.27-2.434.482-1.395.363-2.907.82-4.141 1.58l.008.008z" fill="#7E7B88"/><path d="M18.092 4.996c.752-.169 1.47-.507 2.197-.76a30.076 30.076 0 012.257-.676 22.914 22.914 0 012.29-.474c.752-.118 1.614-.033 2.341-.245a.111.111 0 000-.211c-.642-.194-1.479 0-2.138.084-.786.102-1.564.27-2.324.474-.845.22-1.674.498-2.494.803-.718.27-1.512.524-2.146.955-.034.017-.017.05.017.05zM.386 20.631c.414-1.233.879-2.205 1.775-3.169.837-.896 1.85-1.69 2.848-2.409.05-.033.008-.118-.05-.084-1.167.685-2.223 1.437-3.145 2.434-.769.837-1.589 2.028-1.52 3.212 0 .059.075.067.092.017zM26.636 4.819c1.184-.017 2.324-.034 3.465.33.998.312 1.843.954 2.806 1.335.076.034.127-.076.076-.127-.726-.71-1.605-1.166-2.569-1.479a6.215 6.215 0 00-1.716-.27c-.693-.026-1.369.186-2.062.169-.034-.009-.034.042 0 .042zM7.088 24.908c2.248-.093 5.806-.177 6.026-3.178.008-.127-.178-.211-.262-.11-.414.524-.76 1.124-1.242 1.59-.423.405-.99.608-1.538.752-1.015.262-2.113.27-3 .887-.026.017-.018.059.016.059z" fill="#7E7B88"/><path d="M21.912 2.841c.735-.101 1.445-.296 2.18-.389.38-.05.761-.059 1.141-.042.389.017.719.203 1.099.119.05-.009.05-.068.025-.102-.405-.515-1.453-.397-2.037-.346a6.352 6.352 0 00-2.408.743c-.009 0-.009.017 0 .017zM14.44 6.061c.981-.245 1.843-1.006 2.748-1.428 1.174-.558 2.45-.862 3.625-1.42.042-.025.026-.101-.025-.093-1.141.076-2.24.583-3.27 1.048-1.083.482-2.181 1.124-3.086 1.885l.009.008zM7.773 6.078c-.829.228-1.623.828-2.24 1.42-.05.05.017.144.084.101.727-.464 1.522-.93 2.164-1.495.017-.017.008-.034-.008-.026zM8.922 5.554c1.8-1.242 3.837-1.944 5.815-2.848.042-.025.008-.084-.034-.076-1.133.22-2.19.693-3.229 1.183-.87.406-2.087.828-2.586 1.707-.017.026.009.051.034.034zM15.599 2.368c.49-.084.92-.397 1.394-.566.558-.195 1.133-.212 1.682-.44.034-.017.034-.067-.009-.067-1.081 0-2.357.101-3.093 1.022-.008.026 0 .051.026.051zM5.93 8.31c.98-.694 1.936-1.404 2.933-2.071 1.023-.685 2.096-1.226 3.16-1.834.043-.026.01-.085-.033-.076-1.183.245-2.257 1.048-3.245 1.707-.972.642-2.147 1.285-2.857 2.231-.017.025.017.06.042.042zM8.17 7.388c.456-.253.87-.575 1.318-.853.49-.305 1.023-.567 1.505-.896.025-.017.008-.06-.026-.051-.989.321-2.121.989-2.823 1.766-.016.017 0 .043.026.034zM12.184 4.886c.744-.262 1.454-.633 2.172-.963.955-.431 1.936-.77 2.908-1.14.042-.018.025-.077-.017-.069-1.716.39-3.592 1.2-5.071 2.156-.009.008 0 .025.008.016z" fill="#7E7B88"/><path d="M13.274 3.838c.947-.363 1.91-.684 2.84-1.107 1.082-.49 2.113-1.234 3.313-1.36.06-.009.076-.093.017-.11-.87-.28-2.003.591-2.738.963-1.124.575-2.367.921-3.465 1.538-.034.017-.009.093.034.076z" fill="#7E7B88"/><path d="M17.61 2.537c.625-.17 1.192-.524 1.792-.752.405-.152.82-.245 1.25-.288.288-.025.558.051.854.009.043-.009.043-.068.009-.085-1.015-.71-3.102.457-3.922 1.082-.017.009-.008.042.017.034zM14.263 4.996c1.47-.456 2.815-1.386 4.226-2.003 1.538-.676 3.127-1.115 4.741-1.53.034-.008.043-.059.009-.075-.474-.237-1.014.042-1.488.194-.887.296-1.774.54-2.645.887-1.69.66-3.33 1.53-4.851 2.51-.009 0 0 .017.008.017zM4.18 13.313c.542-.415 1.049-.82 1.649-1.158.558-.313 1.132-.575 1.673-.913.05-.025.017-.11-.034-.093-1.149.414-2.653 1.048-3.313 2.138-.016.025.009.034.026.025zM4.054 12.35c.693-.457 1.352-.964 2.054-1.412.777-.49 1.614-.888 2.391-1.37.051-.033.017-.126-.042-.1-1.563.59-3.296 1.588-4.454 2.813-.025.034.017.093.051.068zM2.752 11.555c.778-.508 1.463-1.167 2.215-1.708.794-.574 1.665-1.03 2.468-1.589.033-.025.016-.093-.034-.076-.93.313-1.758.913-2.544 1.48-.744.549-1.547 1.14-2.121 1.876 0 .008.008.025.016.017zM3.758 9.881c.482-.414.955-.862 1.555-1.081.043-.017.034-.085-.008-.085-.719.034-1.116.676-1.564 1.141-.017.017.009.034.017.025zM6.218 14.31c1.191-.676 2.298-1.521 3.482-2.223.033-.025.008-.093-.034-.076-1.251.516-2.527 1.293-3.465 2.282 0 .008.008.025.017.017zM11.669 10.87c1.056-.313 2.003-.964 2.992-1.428 1.166-.55 2.383-1.006 3.591-1.454 2.4-.887 4.877-1.479 7.328-2.18.059-.017.042-.11-.017-.102-1.158.06-2.265.389-3.38.702-1.268.355-2.528.769-3.77 1.217-2.307.828-4.775 1.766-6.77 3.228 0 0 .009.017.026.017zM27.228 5.52c.913-.101 1.918-.253 2.831-.127.82.11 1.572.66 2.409.592.05 0 .076-.076.025-.101-1.614-.922-3.541-.947-5.274-.398-.017.009-.017.034.009.034zM23.129 4.954C24.456 4.887 25.63 4.16 26.94 4c1.04-.135 2.046-.067 3.034.254.043.017.077-.034.06-.076-.457-.753-1.902-.592-2.646-.524-1.52.126-2.789.98-4.26 1.267-.024.009-.016.034 0 .034zM11.001 10.549c.896-.22 1.64-.997 2.46-1.412 1.039-.523 2.138-.93 3.202-1.42.051-.025.017-.092-.033-.075-.997.236-1.919.608-2.848 1.04-1.031.48-1.893 1.149-2.798 1.825-.025.017-.017.05.017.042zM12.235 9.078c.456-.118.862-.405 1.268-.642.524-.313 1.056-.609 1.572-.938.059-.034.025-.152-.051-.118a9.6 9.6 0 00-1.487.71c-.457.27-.98.532-1.319.946-.017.017-.008.042.017.042zM1.392 22.525c-.355-1.7.82-3.06 1.614-4.437.025-.043-.034-.085-.068-.051-.971.938-2.425 3.119-1.588 4.496.025.025.05.017.042-.008zM2.06 21.417c.177-.701.6-1.301.997-1.901.025-.042-.034-.085-.068-.05-.524.49-.989 1.2-.963 1.951 0 .017.025.017.033 0zM6.581 18.08c.524-.44.989-.947 1.504-1.395a16.974 16.974 0 012.02-1.454c1.293-.82 2.662-1.496 4.006-2.231.034-.017.009-.068-.034-.05-1.479.642-2.915 1.36-4.276 2.222-1.175.744-2.527 1.673-3.288 2.865-.017.034.034.068.068.042zM8.01 17.69c.565-.566 1.216-.997 1.833-1.495.803-.651 1.623-1.268 2.536-1.767.017-.008 0-.025-.017-.017-.87.406-1.69.921-2.451 1.513-.676.524-1.488.989-1.936 1.733-.008.025.026.05.034.033zM7.46 16.093c.422-.076.76-.338 1.09-.608.448-.372.87-.752 1.352-1.082.026-.017.009-.068-.025-.06-.921.364-1.58 1.226-2.434 1.716-.017.009-.008.043.017.034zM20.898 17.293c.735-.186 1.47.16 2.197.017.786-.152 1.53-.346 2.206-.786.634-.406 1.783-1.665 1.099-2.468-.524-.608-1.758-.71-2.105.119-.228.557.347 1.208.88.802.084-.067.109-.135.1-.245 0-.016 0-.033-.008-.05-.008-.043-.05-.076-.084-.085-.11-.034-.338.085-.406.034-.17-.152 0-.431.135-.524.347-.22 1.124.025 1.175.448.042.389-.313.82-.55 1.082-.616.684-1.774 1.132-2.695 1.158-.702.016-1.42-.068-1.978.439-.026.025 0 .06.034.06zM27.405 18.18c.736-.498 1.395-1.123 2.172-1.554.719-.406 1.59-.558 2.409-.592.837-.025 1.724.363 1.234 1.318-.186.364-.533.66-.921.786-.245.076-.6-.008-.634-.346-.025-.279.279-.237.422-.254.06-.008.102-.076.102-.135 0-.034 0-.076.008-.11.009-.084-.05-.194-.135-.228-.465-.228-.794.05-.963.499-.195.54.228.98.684 1.166 1.107.448 2.24-1.073 2.214-2.028-.033-1.386-1.969-1.336-2.89-1.2-1.665.253-2.882 1.208-3.828 2.56-.043.076.05.17.126.119zM34.547 15.197c.65.288 1.42.313 2.113.17.566-.12 1.445-.668 1.234-1.345-.026-.076-.102-.1-.178-.067-.254.118-.389.355-.583.54-.237.229-.592.322-.904.381-.55.11-1.124.042-1.657.211-.05.017-.076.093-.025.11zM35.46 13.904c.735.05 2.29-.414 2.172-1.386-.009-.101-.102-.169-.203-.118-.186.101-.313.262-.457.422-.169.186-.38.313-.608.423-.347.169-.693.313-.921.634-.017.008 0 .025.017.025zM17.5 23.2c.398.204.482.39.254.567-.102.076-.254.076-.372.076-.237.009-.457-.093-.65-.211-.44-.27-.347-.913-.052-1.251.567-.642 1.927-.346 2.646-.228.786.127 1.572.338 2.375.372.895.034 2.307-.39 2.645-1.302.034-.076-.06-.169-.144-.135-.845.296-1.555.854-2.501.854-.643 0-1.302-.195-1.936-.305-1.073-.186-2.713-.524-3.55.423-.81.93-.135 2.265 1.049 2.324.515.025 1.022-.178 1.115-.735.102-.583-.482-1.023-.963-.66-.102.085-.051.246.084.212z" fill="#7E7B88"/><path d="M25.918 20.733c1.411.017 2.552-1.276 3.355-2.274.042-.05-.017-.152-.084-.1-1.1.802-2.054 1.68-3.313 2.23-.077.026-.026.144.042.144zM10.342 26.412c-.583.482-1.37.55-2.08.693-.777.16-1.571.262-2.34.465-.972.254-2.882 1.082-2.941 2.265-.009.186.21.287.363.211.304-.169.44-.422.676-.676.288-.32.642-.558 1.014-.769.744-.422 1.631-.575 2.46-.743.946-.186 2.476-.398 2.899-1.42-.009-.034-.034-.043-.051-.026zM4.806 25.178c-.693-.025-1.36.33-1.885.761-.371.304-1.343 1.006-1.14 1.555.025.068.076.11.143.11.304.009.355-.144.541-.372.22-.279.465-.54.727-.786.499-.473 1.115-.777 1.648-1.208.017-.017-.008-.06-.034-.06zM5.99 29.64c-.922.23-1.818.71-2.274 1.59-.152.304.245.515.44.253.532-.701 1.166-1.259 1.859-1.808.017-.009 0-.034-.026-.034zM8.668 29.015c.541.178 1.057-.067 1.556-.287.642-.287 1.276-.65 1.884-.997 1.192-.685 2.527-1.699 2.798-3.119.008-.076-.085-.118-.127-.05-.702 1.183-1.724 2.078-2.89 2.797-.448.27-.922.49-1.37.76-.557.339-1.183.812-1.85.863-.017-.009-.026.025 0 .033zM15.835 19.178c.558-.144 1.099-.33 1.665-.431.558-.102 1.166-.051 1.69-.262.06-.026.06-.102 0-.127-1.014-.406-2.552.144-3.389.752-.033.026-.008.085.034.068zM33.803 11.242c.566.422 1.64-.245 2.045-.65.186-.187-.11-.474-.287-.288-.406.44-1.15.786-1.741.862-.034.008-.042.05-.017.076zM27.904 14.14c.44-.151.811-.447 1.2-.684.262-.16.524-.287.811-.38.27-.085.55-.076.812-.194.059-.026.05-.119 0-.153-.922-.557-2.316.685-2.865 1.336-.017.034 0 .093.042.076zM8.364 23.074c1.234.448 2.265-.642 3.076-1.454.541-.532 1.057-1.098 1.69-1.53.288-.194.618-.337.973-.346.422-.008.659.288 1.005.448.102.042.212-.05.153-.152-.237-.456-.913-.668-1.395-.592-.625.102-1.132.507-1.597.921-.99.888-2.333 3.01-3.905 2.68-.008 0-.008.017 0 .025zM4.629 32.531c.338-.49.617-.904 1.15-1.2.48-.262 1.056-.338 1.588-.38.947-.076 2.045.169 2.95-.178.05-.025.067-.11 0-.118-1.09-.203-2.392-.135-3.482.017-1.015.143-2.13.71-2.367 1.8-.017.093.102.144.16.059z" fill="#7E7B88"/><path d="M6.184 32.227c.794-.296 1.479-.203 2.248.11.067.025.127-.077.067-.119-.667-.532-1.681-.634-2.374-.084-.043.025.008.11.059.093zM35.831 16.626c.457.169 1.107-.06 1.53-.229.465-.185.938-.473 1.099-.971.076-.237-.304-.338-.372-.102-.27.87-1.555.938-2.257 1.209-.042.025-.05.076 0 .093zM33.127 20.108c.49-.66 1.006-1.2 1.74-1.58.576-.305 1.286-.288 1.92-.373.557-.076 1.994-.296 1.918-1.132-.009-.119-.144-.186-.237-.102-.169.17-.253.364-.465.507-.228.152-.524.22-.786.288-.574.135-1.157.169-1.74.262-1.066.177-2.13 1.056-2.477 2.079-.017.076.085.11.127.05zM6.065 34.12c1.623.321 3.22-.346 4.776-.727 1.85-.456 3.667-1.158 5.434-1.86 3.414-1.36 6.685-3.008 9.98-4.622.069-.034.01-.135-.058-.102-3.237 1.463-6.457 3.01-9.753 4.345a59.686 59.686 0 01-4.919 1.749c-1.75.54-3.6 1.209-5.451 1.124-.05 0-.068.085-.009.093zM32.662 23.454c1.293-.406 2.552-.947 3.77-1.563a9.853 9.853 0 001.673-1.065c.372-.305 1.006-.812 1.03-1.327 0-.085-.092-.118-.151-.085-.44.237-.753.812-1.141 1.15-.533.448-1.141.803-1.758 1.132-1.124.609-2.358 1.023-3.423 1.741-.008 0-.008.017 0 .017zM25.42 10.684c1.402-1.183 3.27-1.352 4.969-1.834.033-.008.025-.068-.009-.068-1.673.153-3.76.651-4.97 1.885-.016.009 0 .026.01.017zM27.033 10.354c.82-.38 1.64-.616 2.553-.642.067 0 .059-.093 0-.101a3.858 3.858 0 00-2.561.727c-.008.017 0 .025.008.017zM25.31 9.712c.963-.27 1.707-.93 2.712-1.115.043-.009.034-.068-.008-.076-.98-.051-1.902.701-2.713 1.157-.017.017-.008.043.008.034zM28.656 8.343c.135-.068.279-.127.423-.17.135-.041.287 0 .397-.084a.051.051 0 000-.067c-.093-.11-.27-.06-.389-.026a2.218 2.218 0 00-.507.212c-.093.042-.008.169.076.135zM25.892 8.622c.338-.135.651-.296.98-.44.407-.177.82-.253 1.243-.354.05-.009.034-.076-.008-.085-.786-.076-1.59.423-2.24.811-.042.017-.017.077.025.068zM30.811 6.661c1.817.22 3.136 1.276 4.26 2.67.025.035.076-.008.05-.041-.887-1.505-2.425-2.908-4.31-2.663-.017.009-.017.026 0 .034zM31.842 7.836c.93.22 1.564 1.073 2.206 1.716.042.042.102-.009.076-.06-.49-.853-1.208-1.69-2.273-1.707-.034.009-.034.043-.009.051zM3.141 21.4c-.862.913-1.183 2.3-.769 3.483.017.059.11.05.102-.017-.026-.558-.06-1.116.033-1.674.102-.625.448-1.166.702-1.74.008-.043-.034-.094-.068-.051zM3.234 22.913c-.236.17-.304.448-.321.727-.017.254.008.693.287.803.034.017.068-.025.076-.05.009-.22-.118-.449-.126-.677-.009-.228.025-.532.169-.727.025-.042-.043-.101-.085-.076zM4.392 22.668c-.093.482.034.905.363 1.268.28.296.82.558 1.217.38.051-.025.026-.093-.016-.101-.161-.06-.322-.06-.482-.102a1.385 1.385 0 01-.575-.32c-.304-.271-.448-.71-.44-1.116.01-.043-.059-.051-.067-.009zM5.178 22.956c.068.44.524.735.921.456.05-.034.017-.118-.042-.101-.16.042-.338.059-.49-.017-.152-.076-.254-.22-.321-.372-.017-.034-.076 0-.068.034zM32.307 9.56c.76.49.558 1.226.178 1.919-.017.033.008.076.05.059.812-.28.727-2.248-.22-2.003-.016 0-.016.017-.008.025z" fill="#7E7B88"/><path d="M32.18 10.253c.06.254.076.617-.16.786-.034.026-.017.085.033.068.178-.068.28-.11.33-.304.06-.212-.05-.406-.169-.567-.017-.008-.034 0-.034.017zM18.26 17.682c.22-.017.44-.067.66-.11.287-.059.524.043.803.068.076.008.11-.085.076-.135-.287-.583-1.183-.186-1.58.042-.06.034-.034.143.042.135zM19.207 16.507c.38-.042.744-.135 1.116-.211.515-.101 1.056-.025 1.572.034.735.093 1.411.143 2.028-.313.043-.034.017-.11-.042-.093-.845.287-1.538.262-2.409.178-.82-.068-1.495.126-2.265.363-.017.017-.017.05 0 .042zM9.159 22.44c.853-.296 1.436-.828 1.74-1.673.018-.051-.058-.085-.084-.034-.38.735-.997 1.225-1.673 1.673-.026.009-.009.043.017.034zM19.114 23.556c.82.515 2.071.38 2.908-.017.059-.034.034-.144-.034-.135-.963.118-1.834.152-2.78-.068-.127-.034-.203.144-.094.22zM15.176 30.723c.735-.017 1.378-.28 2.045-.567.862-.372 1.724-.718 2.578-1.098 1.766-.795 3.457-1.716 5.155-2.654.043-.026.009-.093-.042-.068-1.58.77-3.17 1.547-4.758 2.29-.794.372-1.606.71-2.417 1.048-.845.364-1.665.812-2.56 1.023-.018.009-.018.026 0 .026zM21.7 27.198c.956-.05 1.7-.777 2.477-1.25a.044.044 0 00-.042-.076c-.846.363-1.556 1.022-2.434 1.293-.026.008-.026.033 0 .033zM30.845 23.142c.355.87 5.51-2.418 6.102-2.832.068-.05.008-.152-.068-.118-.955.49-1.876 1.031-2.814 1.555-.33.186-2.924 1.817-3.22 1.395zM23.171 39.571c.178-.727.406-1.183 1.175-1.437.608-.194 1.285-.169 1.918-.27a3.416 3.416 0 002.443-1.758c.05-.093-.06-.228-.152-.152-.558.414-1.006.938-1.623 1.26-.735.38-1.656.312-2.442.473-.846.177-1.826.955-1.403 1.901.008.034.076.025.084-.017zM29.687 35.362c.702-.583 1.293-1.25 2.062-1.758.87-.583 1.868-.845 2.908-.836.295 0 .295-.44 0-.457-1.97-.084-4.184 1.192-5.046 2.992-.025.05.034.093.076.06z" fill="#7E7B88"/><path d="M31.04 35.016c.388-.22.777-.406 1.191-.567.363-.143.786-.093 1.124-.279.085-.05.102-.202 0-.253-.389-.17-.904.008-1.276.177a2.465 2.465 0 00-1.065.905c-.008.008.017.025.025.017zM23.619 37.247c-.575-.017-1.006.304-1.327.76-.296.44-.448 1.175-.008 1.556.042.033.11.017.11-.043.017-.44-.076-.828.118-1.25.211-.457.66-.778 1.116-.947.042-.017.033-.076-.009-.076zM21.185 38.472c-.16.245-.414.414-.515.702-.077.203.008.524.253.55.042 0 .068-.035.076-.077 0-.118-.06-.152-.101-.262-.043-.11-.009-.22.025-.321.076-.203.186-.389.27-.592h-.008zM24.878 36.74c.245.456 1.15-.025 1.454-.169.752-.355 1.487-.794 1.994-1.462.043-.05-.042-.118-.093-.076-.414.389-1.056.701-1.546.989-.372.22-1.344.938-1.8.693 0 .008-.009.017-.009.025z" fill="#7E7B88"/><path d="M20.01 39.596c.195-.667.397-1.174.913-1.673.49-.473 1.124-.744 1.75-.989 1.36-.524 2.67-1.115 3.92-1.868.035-.017.01-.084-.024-.067-1.59.6-3.229 1.166-4.767 1.893-.938.448-2.231 1.513-1.935 2.704.017.076.126.068.143 0zM32.417 32.108c.583-.126 1.14-.312 1.733-.38.38-.042 1.005.152 1.326-.06.043-.024.06-.075.034-.117-.236-.406-1.014-.22-1.403-.161-.6.085-1.25.279-1.707.685-.017.017 0 .042.017.033zM27.93 34.205c.65.11 1.25-.305 1.825-.584.76-.363 1.445-.76 2.07-1.335.034-.034-.008-.084-.05-.068-.583.305-1.175.584-1.758.888-.668.355-1.37.828-2.088 1.056-.017.009-.025.034 0 .043z" fill="#7E7B88"/><path d="M26.171 33.934c1.623.025 3.187-1.37 4.48-2.214.879-.575 1.75-1.158 2.746-1.513.541-.194 1.124-.287 1.69-.211.449.059.829.32 1.268.389.068.008.16-.06.11-.136-.397-.54-1.42-.667-2.045-.608-1.006.093-1.919.54-2.772 1.056-.913.541-1.792 1.166-2.662 1.767-.854.591-1.767 1.259-2.806 1.453-.017 0-.017.009-.009.017zM34.564 28.83c.295.177.65.194.989.245.473.067.777.236 1.149.524.025.017.068-.009.059-.034-.093-.905-1.58-.676-2.18-.812-.034 0-.06.06-.017.076zM21.126 36.656c-.617.1-1.124.617-1.488 1.098-.355.465-.828 1.192-.76 1.809.017.152.245.16.245 0-.017-.575.304-1.116.608-1.59.321-.498.786-1.157 1.403-1.3.009-.009 0-.017-.008-.017zM18.641 38.185c-.194.313-.879 1.082-.558 1.47.034.035.085.018.11-.016.05-.085.06-.102.06-.203.008-.186.084-.372.151-.532.102-.237.195-.465.262-.71.009-.009-.016-.017-.025-.009z" fill="#7E7B88"/><path d="M17.297 39.537c.076-.946.964-1.952 1.674-2.484 1.115-.846 2.577-1.141 3.794-1.809.026-.017.009-.06-.017-.05-1.538.608-3.194.836-4.445 1.994-.397.372-.684.82-.938 1.301-.135.254-.448.82-.237 1.099.051.076.16.05.17-.05zM17.534 37.044c-.389.262-.811.499-1.09.896-.22.321-.541.803-.558 1.2 0 .042.05.076.093.05.321-.202.422-.7.608-1.022.245-.43.694-.693.972-1.098a.019.019 0 00-.025-.026zM16.021 37.467c-.228.279-.532.54-.786.786-.33.313-.693.558-1.124.71a.05.05 0 000 .093c.397.093.752-.195 1.031-.448.212-.186.39-.389.575-.609.135-.169.211-.346.321-.524 0-.008-.017-.017-.017-.008zM35.721 28.103c.195.312.626.27.939.21.279-.05.887-.151.997-.464a.119.119 0 00-.085-.144c-.22-.084-.532.127-.743.195-.33.118-.71.211-1.065.135-.026-.008-.068.034-.043.068zM36.778 27.14c.22.075.363.109.592.05.236-.06.397-.212.583-.355.042-.034.025-.119-.043-.102a2.72 2.72 0 00-.507.161c-.169.076-.43.203-.625.194-.025 0-.025.043 0 .051zM23.847 34.948c.6.076 1.226-.245 1.733-.532.059-.034.034-.118-.034-.118-.6.017-1.183.312-1.716.574-.025.017-.016.076.017.076zM20.044 35.59c.676-.329 1.242-.82 1.927-1.149.862-.414 1.775-.735 2.662-1.09 1.648-.642 3.22-1.335 4.69-2.332.035-.026 0-.068-.033-.051-1.631.938-3.482 1.504-5.223 2.197-.76.304-1.547.592-2.265.989-.676.38-1.209.896-1.792 1.394-.017.017.009.051.034.043zM29.721 30.816c.389-.034.693-.305.98-.533.051-.042-.017-.118-.067-.093-.321.17-.685.313-.93.583-.008.017 0 .043.017.043zM10.705 37.703c1.226-1.09 2.476-2.096 3.871-2.966 1.318-.828 2.688-1.589 4.031-2.383.017-.009 0-.034-.017-.026-2.797 1.37-5.966 2.806-7.97 5.282-.042.068.026.144.085.093zM15.201 35.295c.998-.457 1.919-1.09 2.849-1.665 1.048-.651 2.146-1.217 3.245-1.775 2.18-1.099 4.395-2.138 6.575-3.245.034-.017.009-.068-.025-.051-4.437 1.791-8.849 3.786-12.677 6.693-.026.017 0 .06.034.043zM30.38 27.469c1.251-.457 2.375-1.15 3.651-1.572 1.412-.474 2.831-.736 4.31-.87.203-.018.212-.339 0-.322-1.428.127-2.763.38-4.132.837-1.386.464-2.57 1.191-3.846 1.893-.017.008 0 .042.017.034zM36.736 24.367c.38.009.727-.076 1.081-.194.27-.085.693-.178.803-.465.009-.034-.017-.076-.042-.084-.262-.051-.507.16-.744.262-.355.169-.735.278-1.098.43-.026.017-.026.051 0 .051zM37.809 23.328c.27.067.685-.076.82-.322.008-.025 0-.067-.026-.067-.279-.043-.574.211-.794.355-.017.008-.017.025 0 .034zM11.72 35.717c-.398.17-.736.44-1.116.643-.321.177-.778.236-1.048.481-.025.026-.017.068.008.085.338.143.77-.127 1.057-.288.414-.22.879-.481 1.14-.887.018-.017-.016-.042-.041-.034zM9.97 35.92c-.389.017-.77.27-1.116.423-.05.017-.025.084.017.101.406.144.88-.169 1.133-.465.008-.025 0-.059-.034-.059zM14.956 37.39c-.262.144-.456.322-.667.533-.11.11-.212.22-.322.33-.1.11-.228.186-.27.33-.017.05.025.118.085.11.245-.035.422-.305.574-.491.203-.262.406-.524.651-.752.034-.026-.008-.085-.05-.06zM13.359 37.517c-.321.212-.693.431-.938.736-.118.143.034.405.22.287.338-.236.532-.617.786-.938.033-.042-.009-.11-.068-.084zM36 26.488c.33 0 .643-.025.972-.093.457-.084.896.102 1.344.009.186-.042.127-.296-.042-.313-.389-.034-.795-.067-1.175-.025s-.727.296-1.09.389c-.026.008-.026.033-.009.033zM31.901 29.835c.33-.118.643-.304.972-.43.296-.11.609-.136.896-.263.026-.008.026-.06 0-.076-.583-.262-1.521.254-1.918.668-.034.05 0 .126.05.101z" fill="#7E7B88"/><path d="M18.142 36.613c.186-.22.575-.355.82-.507.305-.186.541-.465.753-.744.574-.726 1.064-1.293 1.884-1.758.71-.405 1.488-.684 2.223-1.03.921-.432 1.825-.93 2.721-1.42.026-.009 0-.043-.017-.034-.946.405-1.867.853-2.814 1.268-.811.354-1.64.667-2.417 1.098-.693.389-1.209.905-1.657 1.555-.312.448-.667.77-1.132 1.057-.203.126-.397.21-.49.448-.017.059.084.118.127.067zM27.667 30.798c.507.009.964-.21 1.403-.44.575-.287 1.15-.565 1.724-.853.668-.338 1.31-.701 2.012-.955.76-.279 1.53-.101 2.29-.296.034-.008.034-.059 0-.067-1.234-.473-2.544.076-3.642.642-1.26.634-2.494 1.386-3.795 1.919-.026.008-.026.05.008.05zM33.38 27.503c.88-.322 1.851-.262 2.764-.22.034 0 .05-.051.017-.068-.803-.346-2.121-.321-2.814.245-.017.017.008.05.033.043zM15.709 36.951c.456.034.861-.54 1.14-.836.668-.702 1.513-1.175 2.282-1.741.034-.026.026-.085-.025-.085-1.428.17-2.493 1.657-3.414 2.612-.017.025-.009.05.017.05zM17.145 36.537c.212-.05.38-.203.541-.346.22-.203.448-.398.693-.567.034-.025.017-.076-.025-.067a1.41 1.41 0 00-.651.355c-.203.185-.414.371-.591.583-.009.017.008.05.033.042zM20.129 33.579c.574-.194 1.073-.642 1.614-.921.744-.389 1.487-.77 2.206-1.192.042-.025.016-.101-.034-.076-.71.279-1.412.566-2.096.904-.702.339-1.15.753-1.707 1.26-.009.008 0 .033.017.025zM14.086 36.977c.296.033.558-.195.769-.372.304-.254.54-.558.82-.828.034-.034-.009-.085-.051-.068-.583.321-.997.853-1.572 1.175-.042.033-.017.093.034.093zM28.293 29.59c.49.076.98-.296 1.386-.532.845-.49 1.732-.829 2.62-1.217.059-.026.034-.136-.034-.127-1.488.152-2.612 1.386-3.972 1.85-.009.01-.017.026 0 .026zM15.362 25.77c.144-.135.313-.237.482-.338.169-.102.363-.144.532-.237.05-.025.025-.093-.025-.093-.397-.025-.845.296-1.048.626-.017.034.025.067.059.042zM14.694 26.547c.998-.32 1.986-.802 2.95-1.225.05-.025.008-.093-.034-.084-1.006.194-2.087.701-2.933 1.267-.016.009-.008.051.017.043zM15.633 26.911c.38-.347.92-.423 1.326-.71.034-.025.017-.076-.025-.067-.473.126-.997.388-1.31.769-.008.008 0 .017.008.008zM29.358 19.905c.059-.017-.009.05.033.025h.034c.05-.017.093-.042.135-.059.127-.076.262-.152.39-.237.058-.042.472-.245.354-.363-.034-.034-.101-.042-.152-.009l-.33.229c-.177.126-.363.253-.481.43-.009.01 0 .035.017.035h.017c.025-.017.008-.06-.017-.051zM29.62 20.488c.354-.017.718-.178.93-.457.024-.034-.018-.059-.052-.05-.295.143-.574.346-.895.44-.026.008-.017.067.016.067zM16.182 15.84c.989-.11 1.86-.761 2.704-1.226 1.26-.693 2.68-.93 3.964-1.547.025-.017.008-.059-.025-.05-1.175.22-2.358.659-3.449 1.14-1.107.49-2.062 1.243-3.211 1.649 0 .008 0 .042.017.034zM17.297 14.699c.719-.262 1.378-.643 2.046-1.015.862-.473 1.758-.82 2.687-1.132.05-.017.043-.093-.008-.093-1.724.118-3.288 1.344-4.775 2.113-.068.042-.017.16.05.127zM18.48 13.27c.525-.245.98-.507 1.564-.591.05-.009.025-.077-.008-.077-.584-.059-1.192.195-1.615.584-.05.042.009.11.06.084zM20.4 14.716c.329-.28.76-.338 1.165-.457.026-.008.026-.059-.008-.05-.431.05-.887.135-1.175.49-.017.008 0 .034.017.017zM8.102 20.26c.617-.533 1.107-1.15 1.851-1.547.034-.017.009-.076-.025-.068-.812.229-1.336.964-1.86 1.564-.025.042.009.076.034.05zM8.795 20.31c.237-.354.541-.557.93-.726.042-.017.008-.076-.034-.076-.422.059-.803.363-.972.752-.017.05.042.093.076.05zM8.068 19.626c.254-.16.465-.364.66-.583.033-.034-.017-.085-.051-.06-.228.186-.465.364-.634.609-.025.017 0 .042.025.034zM27.997 11.589c.38-.144.752-.245 1.158-.296.034 0 .034-.05 0-.05-.406-.035-.829.084-1.184.286-.033.017-.008.076.026.06z" fill="#7E7B88"/><path d="M11.5 37.872c-3.017-1.791-5.73-3.938-7.683-6.904C1.79 27.883.58 23.96.665 20.26c.093-3.888 1.192-7.43 3.372-10.666 2.223-3.288 5.4-5.696 9.102-7.1 3.651-1.385 7.784-1.597 11.562-.6 3.803 1.015 7.167 3.339 9.77 6.255 1.301 1.462 2.391 3.135 3.127 4.952.735 1.834 1.065 3.863 1.191 5.823.254 3.905-.769 7.7-2.704 11.072-3.558 6.212-10.869 9.415-17.841 9.085-2.797-.127-5.629-.634-8.063-2.088-.972-.583-1.834-1.293-2.73-1.977a.182.182 0 01-.042-.034c-.059-.042-.118.06-.059.101.321.22.575.617.828.905.499.54 1.04.997 1.657 1.386 2.172 1.36 4.766 1.944 7.285 2.222 3.575.398 7.065-.177 10.412-1.462 3.11-1.2 5.772-3.203 7.843-5.814 4.428-5.595 5.451-14.004 2.392-20.47C34.597 5.148 27.127.627 19.774.737c-3.702.05-7.31 1.183-10.438 3.144-3.102 1.935-5.476 4.758-7.133 7.995-3.228 6.33-2.535 14.579 1.716 20.275 1.977 2.653 4.513 4.513 7.445 5.975.153.06.288-.16.136-.254z" fill="#7E7B88"/><path d="M35.358 10.667c.093.178.33.076.448-.008.186-.136.33-.313.423-.516.05-.11.059-.262-.043-.346a.307.307 0 00-.279-.076.289.289 0 00-.202.202 1.572 1.572 0 01-.347.727v.017zM36.347 11.901c.008 0 .025 0 .034.009-.034-.009-.06-.026-.093-.034.143.178.414 0 .532-.101a.797.797 0 00.279-.609.308.308 0 00-.304-.304c-.178 0-.288.135-.305.304a.6.6 0 01-.126.313c-.06.093-.16.22-.11.346.008-.034.008-.067.008-.101-.008.008-.008.017-.017.025-.025.068.026.135.102.152zM37.555 14.868c.262.11.5-.068.634-.296.136-.237.144-.533.195-.795.033-.186-.051-.38-.245-.43-.17-.051-.398.059-.431.244-.034.195-.051.38-.093.575-.043.17-.11.347-.136.516-.008.067 0 .16.076.186zM38.341 15.941c.153-.22.27-.44.372-.684.06-.144-.034-.322-.16-.39a.346.346 0 00-.474.128c-.16.287-.152.617-.05.912.042.144.228.16.312.034zM38.764 17.166c.017-.008.042-.017.06-.034-.01 0-.026.009-.026.009a.347.347 0 00.076-.042c.101-.102-.076.067.042-.051.026-.025.042-.068.06-.101.135-.288-.322-.448-.381-.161-.025.118-.025.262.084.346-.016-.025-.042-.05-.059-.076.017.051.068.136.144.11z" fill="#7E7B88"/></svg>