<svg width="51" height="52" fill="none" xmlns="http://www.w3.org/2000/svg"><path d="M10.116 6.703c.254.178.363.752.456 1.023.11.312.237.634.44.896.524.676 1.538.786 2.332.862 1.336.135 2.561.245 3.305 1.53.507.87.668 2.095 1.673 2.569.076.033.144-.034.11-.11-.253-.507-.54-.998-.777-1.513-.245-.541-.44-1.217-.846-1.665-.743-.82-1.622-1.158-2.704-1.268-1.14-.11-2.434-.034-3.026-1.191-.177-.347-.405-1.31-.963-1.158-.008 0-.008.017 0 .025z" fill="#7E7B88"/><path d="M15.356 11.808c.836.22 1.183 1.546 1.521 2.223.347.693 1.09 1.132 1.826 1.31.896.22 1.834.126 2.73.38 1.064.304 1.63 1.31 2.366 2.045.084.085.194-.025.152-.118-.364-.837-.879-1.53-1.648-2.037-.837-.55-1.927-.575-2.89-.642-.541-.042-1.023-.152-1.488-.44-.54-.338-.794-.887-1.09-1.42-.33-.6-.719-1.301-1.48-1.343-.016 0-.024.033 0 .042zM22.37 14.563c.432.423.888.744 1.251 1.234.355.465.634 1.023.854 1.563.33.812.6 1.64 1.023 2.41.295.549.718 1.013 1.293 1.267.82.363 1.605.16 2.408-.085.119-.034.102-.228-.025-.22-.778.077-1.75.102-2.442-.304-.6-.346-.913-1.073-1.184-1.681-.642-1.463-1.335-3.871-3.101-4.32-.076-.016-.136.077-.076.136z" fill="#7E7B88"/><path d="M26.85 18.316c-.211.464.042.81.482 1.039.549.287 1.14.279 1.732.194.102-.017.06-.152-.025-.16-.406-.042-.837-.152-1.234-.254-.38-.101-.879-.32-.862-.786.008-.059-.068-.084-.093-.034zM27.509 21.924c.794.905 2.4.583 3.457.727 1.183.16 1.825.887 2.307 1.919.6 1.284 1.175 3.701 3.093 3.177.127-.034.085-.194-.025-.203-1.986-.245-2.18-2.476-3.051-3.896-.431-.701-1.04-1.107-1.817-1.326-.6-.17-1.26-.144-1.877-.153a7.932 7.932 0 0 1-2.036-.312c-.051-.009-.076.042-.051.067z" fill="#7E7B88"/><path d="M29.377 23.8c.575.06 1.099.136 1.623.406.27.144.498.364.676.609.152.202.211.397.414.549.05.042.143 0 .152-.06.101-.566-.49-1.081-.921-1.36-.558-.372-1.327-.456-1.97-.296-.092.017-.059.144.026.152zM37.803 28.347c.085 1.015 1.014 1.403 1.902 1.58 1.217.246 2.645.068 3.6 1.006.879.863.93 2.35 1.597 3.356.795 1.208 1.995 1.411 3.33 1.327.085-.009.11-.127.017-.152-.617-.153-1.31-.28-1.893-.533-.642-.287-1.065-.879-1.37-1.487-.473-.964-.6-2.037-1.335-2.857-1.513-1.699-4.411-.253-5.73-2.265-.033-.06-.118-.042-.118.025z" fill="#7E7B88"/><path d="M45.384 32.176A4.497 4.497 0 0 0 46.668 34c.457.389 1.294.752 1.851.38.127-.084.136-.33-.05-.363-.254-.05-.49 0-.744-.05-.355-.06-.676-.297-.947-.516-.481-.397-.836-.913-1.259-1.352-.06-.06-.169 0-.135.076zM35.403 24.848c-.414 1.099.625 1.521 1.513 1.724.6.144 1.208.237 1.791.457.305.118.575.304.753.583.185.296.076.642.177.955a.107.107 0 0 0 .194.025c.28-.389.119-1.022-.169-1.36-.346-.406-.853-.6-1.352-.736-.896-.253-2.94-.211-2.67-1.589.025-.143-.186-.202-.237-.059zM36.138 29.42c.245 1.37 1.58 1.792 2.797 1.97.702.11 1.412.16 2.105.33.744.185 1.065.566 1.53 1.132.076.093.21.008.22-.093.118-1.251-1.691-1.555-2.57-1.674-1.428-.186-3.27-.143-3.904-1.724-.051-.101-.203-.059-.178.06zM13.252 10.853c-.153-.009-.356-.22-.474-.305a2.488 2.488 0 0 0-.634-.32c-.422-.161-.82-.339-1.225-.533a4.325 4.325 0 0 1-1.099-.76c-.389-.39-.389-.838-.397-1.345 0-.101-.127-.152-.194-.084-.888.93.405 2.011 1.166 2.45.515.297 1.073.5 1.64.677.21.068 1.03.55 1.233.245.009-.008 0-.025-.017-.025zM13.074 7.405c-.854-.017-.786-1.226-.718-1.775.025-.186-.262-.245-.347-.093-.397.727.085 2.24 1.082 1.96.042-.016.034-.092-.017-.092zM16.835 8.858c.642.583 1.327 1.074 1.715 1.877.28.583.508 1.191.787 1.774.236.482 1.369 2.333 2.112 1.53a.132.132 0 0 0-.025-.203c-.152-.101-.304-.084-.482-.127-.287-.067-.515-.33-.701-.549-.423-.49-.676-1.14-.947-1.724-.54-1.2-1.191-2.037-2.392-2.662-.05-.034-.118.042-.067.084zM42.451 28.854c.355.212.71.17 1.107.288.6.186 1.108.659 1.48 1.14.371.482.735.947 1.157 1.387.66.684 1.953 1.901 2.958 1.166.22-.17.009-.541-.22-.38-.997.71-2.459-1.09-3.025-1.758-.414-.482-.752-1.006-1.251-1.403-.684-.541-1.344-.575-2.18-.541-.051 0-.076.076-.026.101zM6.947 10.295c.245.093.186.178.253.423.085.304.288.583.474.828.498.65 1.149 1.175 1.707 1.766 1.513 1.58 3.068 3.051 4.817 4.37.085.067.203-.085.118-.152-1.377-1.175-2.662-2.485-3.921-3.787-.516-.532-1.031-1.065-1.572-1.58-.55-.524-1.25-1.15-1.344-1.944-.008-.068-.042-.144-.118-.16-.11-.017-.237 0-.338-.017-.178-.026-.237.194-.076.253zM24.357 1.801c1.2-.346 2.485.558 3.406 1.226 1.132.828 1.927 1.817 2.535 3.068.676 1.377 1.26 2.611 2.56 3.498.956.651 2.655 1.522 3.745.727.093-.067.034-.194-.076-.177-1.674.245-3.431-.668-4.522-1.902-.972-1.107-1.267-2.645-2.18-3.803C29.08 3.5 28.1 2.722 27.053 2.14c-.795-.44-1.86-.879-2.73-.43-.05.033-.017.11.034.092z" fill="#7E7B88"/><path d="M32.132 6.492c-.034 1.817 2.104 2.628 3.575 2.907.093.017.169-.118.068-.169-.626-.296-1.285-.515-1.902-.828-.854-.431-1.301-1.048-1.606-1.935-.017-.077-.127-.06-.135.025zM37.262 11.149c1.665-.288 2.73.963 3.541 2.23.66 1.023 1.175 2.046 2.012 2.942.853.921 1.91 1.8 3.076 2.29.82.347 2.307.676 2.916-.228.076-.101-.043-.245-.16-.211-.55.169-.922.405-1.53.363-.694-.059-1.361-.422-1.944-.777-1.141-.693-2.172-1.69-2.95-2.78-1.15-1.607-2.409-4.97-4.995-3.948a.062.062 0 0 0 .034.119z" fill="#7E7B88"/><path d="M44.539 15.84c1.098.878 2.476 1.91 3.955 1.368.194-.067.118-.346-.085-.304-1.479.304-2.594-.389-3.828-1.124-.034-.017-.068.025-.042.06zM36.18 12.39c1.04.128 1.902.314 2.688 1.049.676.634.997 1.53 1.504 2.29.06.085.178.034.16-.067-.354-1.97-2.239-3.897-4.36-3.339-.042.009-.034.068.008.068zM44.986 19.101c.33.736 1.446.998 2.139 1.184.473.126 1.707.456 2.062-.051.296-.423-.938-.144-1.04-.152-.93-.051-2.417-.305-3.06-1.057-.05-.059-.126.017-.1.076zM29.74 7.024c-.524-.507-.693-1.242-1.09-1.834-.372-.557-.862-1.014-1.386-1.42-.558-.43-1.208-.76-1.868-1.03a38.024 38.024 0 0 1-2.814-1.251c-.228-.11-.414.21-.203.338 1.445.87 3.102 1.234 4.513 2.155.702.456 1.327 1.098 1.716 1.842.245.482.558 1.048 1.09 1.251.042.017.068-.034.042-.05z" fill="#7E7B88"/><path d="M27.01 5.038c-.32-.372-.743-.896-1.301-.752-.068.017-.085.118-.017.152.431.22.837.473 1.293.65.025.01.042-.033.025-.05zM28.82 2.08c.734.068 1.241.66 1.622 1.234.287.431.482 1.099.904 1.412.06.042.135-.017.144-.085.008-.625-.634-1.394-1.006-1.85-.406-.5-.989-.99-1.673-.804-.06.017-.043.085.008.093zM35.943 6.221c-.802.085-1.47-1.132-.574-1.428.44-.144.98-.025 1.369.177.693.355.862 1.251.49 1.877-.473.803-1.64.777-2.358.388-.997-.54-1.335-2.079-1.699-3.076-.21-.575-.617-1.834-1.436-1.673-.127.025-.152.22-.034.27.752.355.98 1.344 1.234 2.062.262.744.55 1.598 1.065 2.215 1.048 1.267 3.456 1.25 3.862-.592.33-1.47-1.37-2.417-2.62-2.088-1.327.355-.608 2.561.701 1.91.034 0 .026-.042 0-.042zM38.767 5.866c.32.296.11 1.209-.034 1.522-.28.617-.921.904-1.538 1.065-.06.016-.051.084 0 .101.887.338 1.698-.532 1.96-1.31.068-.194.06-1.656-.389-1.42-.008.009-.008.026 0 .042zM39.882 7.776c.211.372-.194.643-.473.82-.178.11-.364.203-.55.288-.135.067-.27.186-.414.228-.101.034-.076.16.026.169.524.05.972-.211 1.352-.558.287-.27.558-.744.143-1.031-.059-.034-.11.034-.084.084zM39.544 10.075c1.58.465 2.425 1.437 3.026 2.925.346.853.828 1.724 1.876 1.597.059-.008.101-.093.034-.127-.541-.253-.972-.55-1.268-1.082-.279-.507-.431-1.065-.702-1.572-.566-1.04-1.673-2.036-2.932-1.969-.127.009-.16.195-.034.228zM40.39 9.196c.802.38 1.478.592 2.103 1.268.541.592.88 1.335 1.302 2.011.321.508.701.98 1.225 1.302.398.245 1.125.389 1.463.009.059-.068.042-.178-.051-.203-.296-.068-.566.042-.87-.017-.347-.068-.634-.338-.871-.583-.49-.499-.803-1.141-1.158-1.733-.617-1.056-1.783-2.341-3.144-2.113-.025 0-.025.05 0 .06zM45.029 14.926c.287.888 1.623.609 2.265.338.262-.11.034-.498-.22-.388-.524.228-1.47.465-1.91-.026-.059-.059-.16 0-.135.076zM41.031 8.74c.626-.22 1.538 0 1.885.558.085.143.287.076.304-.085.034-.44-.557-.676-.896-.777-.447-.127-.997-.153-1.352.186-.05.059 0 .143.06.118zM18.593 21.062c1.081.98 2.045 2.054 3.186 2.975a60.283 60.283 0 0 0 3.347 2.493c2.366 1.657 4.673 3.39 7.082 4.986 2.409 1.59 4.91 2.992 7.471 4.328 1.2.625 2.409 1.233 3.66 1.74.693.288 1.402.516 2.12.719.432.118.626.347 1.057.211.237-.076.144-.422-.101-.372-.22.051-.144-.05-.296-.135-.211-.118-.54-.16-.778-.228a18.231 18.231 0 0 1-1.876-.65c-1.369-.55-2.679-1.252-3.989-1.936-2.485-1.302-4.893-2.688-7.243-4.234-2.34-1.547-4.58-3.237-6.88-4.843-1.182-.828-2.357-1.657-3.49-2.544-.549-.43-1.115-.853-1.605-1.344-.482-.49-.998-.938-1.59-1.284-.058-.026-.134.067-.075.118zM40.11 37.466c.87.77 1.902 1.344 2.975 1.767.744.296 2.003.608 2.721.143.051-.033.034-.118-.033-.118-.195-.008-.364-.135-.541-.135-.22 0-.44.05-.66.05-.54.009-1.09-.177-1.588-.363-.99-.363-1.885-.963-2.815-1.445-.042-.017-.11.06-.059.101zM4.023 14.512c2.121.473 1.605 2.78 2.94 4.015.313.287.567.532 1.023.507.212-.009.406-.102.609-.119.414-.042.879.305 1.014.668.363.989.431 2.07 1.614 2.417.093.026.135-.101.06-.143-.584-.398-.896-1.141-1.057-1.81-.11-.456-.152-.844-.49-1.2-.296-.312-.862-.48-1.285-.439-.203.017-.389.102-.6.11-.279.017-.642-.44-.794-.65-.93-1.294-.845-3.753-3.009-3.652-.152 0-.194.254-.025.296zM12.12 21.417c-.6 1.217.675 2.612 1.453 3.414.659.685 1.538.93 2.434 1.2 1.124.339 2.307.618 3.355 1.167.456.245.879.558 1.141 1.006.279.481.008.93.127 1.411.025.076.11.093.169.042.65-.54.101-1.724-.338-2.197-.702-.752-1.809-1.141-2.755-1.454-1.023-.338-2.122-.54-3.094-1.014-.524-.245-.912-.744-1.284-1.166-.583-.676-1.099-1.488-1.167-2.4-.008-.017-.033-.026-.042-.009zM21.441 29.26c.245.6.313 1.268.642 1.826.322.549.795 1.014 1.31 1.377.88.626 2.578 1.09 3.61.634.092-.042.05-.169-.026-.194-.524-.178-1.124-.119-1.674-.203a4.47 4.47 0 0 1-1.681-.634c-.575-.364-1.158-1.023-1.378-1.673-.17-.482-.237-.939-.685-1.234-.05-.034-.143.034-.118.101z" fill="#7E7B88"/><path d="M17.325 27.68c.482.101.972.33 1.378.6.228.152.422.363.558.6.118.203.076.422.287.566.042.025.093.008.127-.017.44-.346-.203-1.107-.499-1.327-.54-.405-1.158-.583-1.834-.566-.068.017-.093.127-.017.144zM25.81 34.128c1.048.676 2.477.406 3.634.76.913.271 2.172.888 2.561 1.818.338.82-.668 1.893-1.462 1.369-.456-.305-.82-1.234.068-.998a12.728 12.728 0 0 1-.127-.32c-.06.11-.076.185-.118.32-.034.11.101.237.21.161.102-.076.17-.118.255-.211a.22.22 0 0 0-.093-.364c-.787-.236-1.37.262-.998 1.065.364.786 1.319 1.302 2.062.668 1.167-.989.719-2.206-.355-3.009-1.64-1.217-3.659-1.132-5.578-1.394-.093 0-.11.101-.059.135zM33.18 37.154c.423.43-.144 1.132-.338 1.52-.084.178.093.39.279.28.617-.347.921-1.606.245-2.037-.152-.093-.304.11-.186.237zM34.473 38.202a2.038 2.038 0 0 0-.389.667.721.721 0 0 0-.025.33c.017.093.06.127.101.203.034.076.161.059.178-.026a.434.434 0 0 0 .059-.093c.034-.084.076-.16.102-.245.067-.22.143-.43.245-.634.076-.169-.136-.363-.27-.202zM35.166 40.07c.862-.61 1.682-.297 2.552.16.77.406 1.446.963 2.164 1.437 1.166.76 2.966 1.326 4.166.32.085-.075-.008-.194-.1-.177-1.007.22-2.046.254-3.001-.16-.786-.347-1.47-.913-2.172-1.395-.845-.575-3.144-1.85-3.786-.372-.043.11.059.27.177.186z" fill="#7E7B88"/><path d="M39.823 39.985c.76.727 1.547 1.344 2.518 1.75.676.287 2.105.473 2.494-.339.025-.05.008-.143-.068-.152-.33-.042-.583.076-.904.16-.567.136-1.167-.067-1.674-.304-.803-.371-1.47-.912-2.324-1.174-.042-.017-.068.033-.042.059zM3.025 16.895c1.251-.287 2.062 1.522 1.876 2.527-.118.609-.828 1.065-1.25.457-.153-.228-.17-.516.025-.719.076-.042.152-.076.237-.118-.11-.169-.153-.186-.119-.042.009.093.06.16.093.245.017.05.093.084.135.034.153-.17.482-.626.051-.744-.397-.11-.82.211-.98.55-.38.81.456 1.698 1.267 1.571 1.167-.186 1.158-1.75.863-2.56-.339-.93-1.234-1.91-2.308-1.572-.211.084-.118.422.11.371zM6.178 20.521c.642.026 1.217.034 1.825.296.448.195.837.507 1.082.93.211.355.025.744.194 1.09.026.05.085.05.127.034.389-.194.338-.685.245-1.048-.127-.507-.566-.896-.98-1.183-.71-.474-1.716-.634-2.527-.347-.11.05-.102.228.034.228zM6.727 21.933c.237-.05.54.017.752.127a.661.661 0 0 1 .28.27c.067.127.041.287.092.423.025.067.11.101.17.042.295-.321.024-.778-.28-.98-.321-.212-.735-.178-1.056-.009-.076.042-.026.144.042.127zM11.265 24.375c-.084 1.006.702 1.64 1.538 1.995.482.203.99.346 1.488.498.482.152.972.406 1.479.457.06.008.093-.068.068-.11-.364-.676-1.488-.811-2.147-1.006-1.074-.321-1.86-.744-2.214-1.86a.108.108 0 0 0-.212.026zM15.33 28.5c1.632.177 3.034.963 3.939 2.349.042.059.135.025.118-.05-.397-1.649-2.434-2.697-4.057-2.486-.118.017-.118.178 0 .186zM35.825 41.32c1.513-.397 2.738 1.225 3.685 2.164.414.405.879.912 1.437 1.115.33.119.946.06.828-.43a.109.109 0 0 0-.084-.085c-.161-.034-.305.042-.457.017-.262-.043-.507-.27-.71-.44-.558-.473-1.065-1.023-1.597-1.513-.735-.676-2.189-1.91-3.195-.997-.076.076 0 .194.093.17zM40.693 42.875c.136.431.457.668.88.803.337.11.971.152 1.115-.262.017-.05-.017-.101-.068-.118-.27-.093-.566.034-.845-.009a1.768 1.768 0 0 1-.946-.49c-.06-.059-.17 0-.136.076zM20.013 30.79c.566.701 1.233 1.31 1.825 2.003.6.701 1.242 1.36 1.986 1.918.702.524 1.496.896 2.324 1.183.778.27 1.724.474 2.536.567.042.008.067-.051.05-.085-.38-.575-1.2-.592-1.808-.76a9.178 9.178 0 0 1-2.662-1.226c-.854-.583-1.547-1.335-2.257-2.08-.575-.608-1.158-1.267-1.952-1.58-.043-.017-.068.034-.042.06zM31.261 39.715c.474.067.93.22 1.378.38.6.211.887.524 1.242 1.014.043.06.127.06.17 0 .363-.532-.44-.989-.837-1.158a4.144 4.144 0 0 0-1.944-.321c-.042-.009-.068.076-.009.084zM36.273 44.303c.583.06.482.465.237.634-.135.102-.347.085-.507.06-.347-.051-.685-.288-.82-.617-.245-.609.49-1.26 1.023-1.327.6-.076 1.132.414 1.411.887.33.55.389 1.234.828 1.733.296.338.896.65 1.209.169.05-.068-.017-.144-.085-.152-.405-.051-.625.025-.904-.355-.211-.28-.33-.626-.456-.947-.195-.507-.398-.997-.862-1.327-1.015-.71-2.41-.262-2.561 1.048-.102.837.921 1.31 1.614 1.217.811-.11.77-1.428-.135-1.166-.093.034-.068.135.008.144z" fill="#7E7B88"/><path d="M37.101 45.774c.136.262.254.55.44.786.177.228.65.423.879.16.034-.042.025-.092-.017-.118-.135-.084-.296-.05-.44-.093-.126-.034-.22-.152-.287-.253-.144-.22-.211-.457-.44-.6-.084-.06-.177.042-.135.118zM23.182 45.52c.668 1.243 2.273 1.784 3.482 2.333.82.372 1.656.642 2.518.904 1.023.313 2.037.736 3.06 1.023.169.05.253-.186.118-.279-.752-.507-1.74-.718-2.603-.972-.938-.279-1.893-.498-2.78-.896-1.234-.549-2.9-1.04-3.761-2.13-.026-.025-.043 0-.034.018zM12.93 5.182c.034 1.437 1.902 3.829 3.516 3.305.076-.026.076-.136 0-.161-1.563-.532-2.763-1.547-3.194-3.195-.051-.169-.322-.126-.322.051zM19.1 2.435c.076.49 1.183.921 1.572 1.141a95.03 95.03 0 0 1 2.95 1.817c2.095 1.336 4.183 2.688 6.296 4.006.101.068.186-.093.093-.16a73.263 73.263 0 0 0-5.916-4.125c-.998-.625-1.986-1.25-3.026-1.8-.44-.228-.87-.456-1.302-.684-.21-.11-.414-.28-.642-.22-.017 0-.025.008-.025.025zM32.825 11.52c1.175 1.2 2.696 2.13 4.057 3.094 1.462 1.03 2.94 2.037 4.411 3.06a157.135 157.135 0 0 1 4.344 3.135c1.446 1.081 2.857 2.265 4.353 3.262.076.05.152-.06.093-.127-1.048-1.26-2.536-2.18-3.829-3.16a144.382 144.382 0 0 0-4.318-3.145c-1.462-1.022-2.941-2.037-4.412-3.05-1.521-1.04-3.026-2.266-4.665-3.102-.034-.017-.05.008-.034.034zM43.161 20.437c.262.38.65.549 1.014.81.71.5 1.513.88 2.24 1.353.65.423 1.285.88 1.918 1.327.516.355 1.006.963 1.59 1.183.05.017.1-.042.084-.084-.127-.457-.566-.753-.921-1.023-.617-.465-1.268-.87-1.919-1.293a27.744 27.744 0 0 0-1.935-1.15c-.634-.329-1.521-.633-2.029-1.149-.017-.025-.059.009-.042.026zM47.497 24.755c.862.524 1.496 1.234 2.265 1.851.042.034.101-.008.076-.059-.448-.811-1.37-1.656-2.307-1.876-.051-.009-.085.06-.034.084zM21.103 5.512c-.6-.6-1.319-1.082-1.995-1.58-.566-.423-1.174-.905-1.867-1.1a.222.222 0 0 0-.203.051c-.017.017-.026.034-.043.05-.033.043-.033.085-.016.136.084.203.32.211.507.296.397.177.769.423 1.132.668.803.524 1.58 1.115 2.46 1.52.017 0 .042-.024.025-.041zM17.908 4.844c-.507-.617-1.132-1.327-1.944-1.53-.22-.05-.312.287-.092.338.794.178 1.267.938 2.011 1.226.025.008.034-.017.025-.034zM21.34 7.388c.743.93 1.969 1.622 2.907 2.332 1.056.786 2.087 1.64 3.28 2.198.067.033.143-.051.084-.11-.888-.88-1.936-1.572-2.933-2.307-1.006-.736-2.113-1.775-3.305-2.173-.033-.008-.05.034-.033.06zM28.354 12.552c.38.397.795.81 1.276 1.073.043.025.093-.034.051-.068-.389-.363-.718-.98-1.285-1.082-.042-.008-.076.043-.042.077zM23.562 10.498c.837.803 1.86 1.42 2.815 2.062 1.03.693 2.053 1.403 3.144 2.02.059.034.135-.05.076-.101-.896-.753-1.868-1.395-2.832-2.046-1.022-.684-2.045-1.462-3.152-1.994-.042-.026-.084.025-.05.059zM27.171 10.549c.27.507.77.743 1.234 1.048.685.456 1.225 1.123 1.978 1.487.067.034.152-.05.084-.118-.473-.49-1.022-.93-1.572-1.336-.524-.389-1.234-.642-1.648-1.15-.034-.05-.11.01-.076.069zM34.54 20.733c-.177.498 1.556 1.377 1.877 1.588 1.91 1.276 3.718 2.705 5.721 3.846.06.034.136-.05.076-.102-1.538-1.284-3.22-2.408-4.884-3.532-.88-.6-1.97-1.09-2.756-1.809-.017-.008-.033-.008-.033.009zM36.273 21.417c.609.735 1.631 1.158 2.4 1.724.88.651 1.716 1.437 2.73 1.86.05.016.085-.051.05-.085a25.157 25.157 0 0 0-5.138-3.541c-.033-.017-.059.017-.042.042zM37.845 21.79c.102.126.228.194.38.261.06.026.119.06.186.093.043.025.119.034.16.068.035.034.094-.009.069-.051-.026-.05-.026-.101-.077-.144a.64.64 0 0 0-.194-.11c-.152-.067-.321-.11-.482-.16-.042-.034-.059.017-.042.042zM39.105 22.6c.245.254.549.457.82.685.253.211.506.406.777.583.042.025.076-.034.05-.06-.422-.49-.971-1.039-1.571-1.31-.068-.024-.136.052-.076.102zM26.799 16.76c.676.685 1.597 1.1 2.442 1.556.98.54 1.86 1.217 2.756 1.876 1.944 1.428 3.87 2.865 5.873 4.2.06.034.127-.05.068-.093-1.75-1.403-3.567-2.713-5.375-4.04-.904-.667-1.8-1.36-2.772-1.927-.972-.557-1.97-1.098-2.958-1.63-.025-.018-.06.033-.034.058zM41.75 26.572c.405.482.971.812 1.479 1.158.659.448 1.327.88 1.994 1.319 1.242.81 2.493 1.614 3.719 2.459.186.135.363-.177.177-.304a97.505 97.505 0 0 0-3.735-2.434c-.6-.372-1.2-.753-1.792-1.133-.592-.38-1.175-.845-1.834-1.073-.008-.017-.017 0-.008.008zM17.672 7.65c.084.718 1.03 1.15 1.563 1.504 1.006.66 1.868 1.606 2.78 2.392.043.034.102-.009.077-.06-.516-.92-1.445-1.504-2.214-2.205-.677-.617-1.64-.845-2.172-1.64-.009-.025-.043-.017-.034.009zM19.337 10.008c.245.236.54.44.81.642.33.245.635.524.981.735.06.034.102-.042.068-.084-.212-.262-.49-.448-.752-.643-.338-.245-.693-.507-1.074-.693-.034-.008-.059.026-.034.043zM34.667 15.957c.82.77 1.851 1.336 2.798 1.936.515.32 1.03.642 1.538.972.44.279.862.634 1.36.803.085.025.127-.077.085-.136-.634-.76-1.758-1.267-2.595-1.783-1.022-.634-2.028-1.352-3.11-1.885-.059-.034-.127.043-.076.093zM36.569 18.087c.65.744 1.758 1.209 2.628 1.64.051.025.118-.042.068-.093-.372-.33-.786-.575-1.226-.811-.473-.262-.92-.584-1.403-.829-.059-.017-.11.051-.067.093zM34.693 16.837c.042.093.067.177.118.253.06.085.16.152.245.211.178.127.372.27.592.313.034.009.076-.034.05-.067-.101-.153-.245-.237-.397-.33-.101-.068-.203-.135-.296-.211-.084-.068-.21-.102-.27-.195-.017-.017-.05 0-.042.026zM46.288 25.753c.127.549.837.853 1.234 1.174.718.575 1.285 1.31 2.087 1.767.22.127.406-.203.195-.33-.718-.448-1.293-1.065-1.944-1.597-.465-.389-1.014-.668-1.47-1.073-.034-.051-.119-.009-.102.059zM47.818 28.474c.422.498 1.158.693 1.504 1.268.127.21.465.017.33-.195-.355-.575-1.158-.972-1.767-1.183-.067-.017-.11.068-.067.11zM32.064 18.408c-1.081-.473-1.817-1.445-2.873-1.927-.06-.025-.11.043-.068.085.727.777 1.817 1.758 2.908 1.91.042.008.076-.05.033-.068zM31.397 17.411c-.33-.346-.786-.566-1.209-.777-.05-.026-.11.042-.067.084.363.321.794.567 1.242.744.034.008.05-.034.034-.05zM31.777 12.366c.321.33.701.591 1.073.853.364.254.727.583 1.158.727.068.025.102-.068.068-.11-.254-.313-.626-.515-.955-.735-.414-.288-.829-.583-1.293-.786-.043-.025-.085.017-.051.05zM32.36 13.498c.22.28.558.457.862.617.06.026.118-.042.068-.093-.262-.236-.55-.49-.896-.6-.042-.008-.06.05-.034.076zM23.393 6.34c.305.118.558.287.803.498.186.161.38.431.642.448.051 0 .076-.042.068-.093-.042-.287-.414-.524-.625-.693-.262-.202-.533-.355-.862-.388-.127 0-.127.194-.026.228zM23.57 6.914c.068.313.381.465.651.558.034.017.06-.034.034-.06-.186-.21-.473-.295-.634-.523-.016-.025-.059-.009-.05.025zM43.119 22.93c.262.034.507.203.718.355.228.16.397.405.65.532.069.034.136-.017.128-.093-.068-.313-.38-.524-.626-.701-.245-.178-.566-.347-.87-.228-.06.025-.076.126 0 .135zM42.857 23.522c.05.042.093.11.135.16.093.102.195.203.304.296.212.177.415.363.643.524.05.034.118-.034.084-.085-.152-.236-.355-.405-.566-.591-.178-.144-.364-.228-.55-.338-.042-.017-.075.017-.05.034zM30.247 20.994c.795-.05 1.488.313 2.164.685.422.237.786.54 1.107.896.296.33.43.777.777 1.056.051.043.136.017.136-.05-.034-.93-1.099-1.784-1.843-2.198-.558-.313-1.775-.989-2.35-.422-.016.017-.008.042.01.034zM21.348 12.628c.38.71 1.175 1.065 1.817 1.504.93.642 1.682 1.513 2.629 2.147.202.135.363-.178.186-.313-.787-.6-1.513-1.276-2.3-1.885-.726-.557-1.597-.887-2.298-1.479-.017-.017-.042 0-.034.026zM20.325 16.98c1.082.042 1.784.55 2.468 1.344.55.642.972 1.462 1.75 1.842.059.034.135-.034.093-.093-.88-1.335-2.426-3.803-4.336-3.279-.11.025-.084.177.025.186zM21.466 18.29c-.008-.025-.017-.059-.034-.076l-.126.076a1.4 1.4 0 0 0 .304.288c.169.126.389.236.532.388.043.051.144.017.136-.059-.009-.11-.017-.186-.093-.279-.085-.101-.203-.169-.313-.236a2.092 2.092 0 0 0-.482-.229c-.093-.025-.135.119-.042.144.025.009.06.009.085.009.033.016.042-.009.033-.026zM13.623 12.256c.305.084.6.228.862.397.16.11.305.253.406.414.068.11.203.355.194.49-.008.06.085.085.11.034.102-.203.178-.321.102-.558-.068-.211-.262-.397-.423-.532-.33-.28-.811-.524-1.25-.44-.11.009-.102.16 0 .195zM16.793 17.74c.405.897 1.166 1.505 1.918 2.105.955.76 1.902 1.538 2.857 2.299 2.113 1.682 4.335 3.178 6.566 4.699.043.034.102-.042.06-.076-2.113-1.64-4.268-3.22-6.381-4.868-.862-.676-1.69-1.403-2.57-2.046-.87-.633-1.732-1.301-2.408-2.138-.025-.017-.05.009-.042.026zM29.698 27.849c.803.836 1.868 1.512 2.865 2.087.06.034.11-.05.06-.093-.956-.642-1.801-1.589-2.857-2.079-.06-.025-.11.042-.068.085zM40.414 34.922c.795.972 2.316 1.268 3.39 1.843.743.397 2.163 1.445 3.076 1.09.143-.059.203-.321 0-.355-1.124-.16-2.02-.65-3.034-1.166-1.09-.558-2.257-.989-3.372-1.488-.051-.025-.093.034-.06.077zM45.046 36.258c-.245.38 1.673 1.098 1.96 1.09.195-.008.237-.237.093-.338-.236-.169-.642-.237-.92-.33-.077-.025-1.091-.38-1.091-.397.008-.034-.025-.05-.042-.025zM10.04 12.34c-.516-.228-.837-.862-1.226-1.259-.245-.253-.49-.499-.726-.76-.229-.254-.38-.567-.617-.812-.11-.11-.28 0-.245.144.143.71.98 1.31 1.479 1.774.388.364.718 1.006 1.318.98.034 0 .05-.05.017-.067zM8.992 10.16c-.245-.11-.38-.423-.49-.651-.119-.237-.228-.516-.448-.676-.042-.034-.11-.026-.152 0-.11.067-.068.194 0 .279.135.169.228.363.338.54.169.288.372.575.735.567.034 0 .05-.042.017-.06zM16.336 20.74c.39.77 1.074 1.303 1.75 1.818.963.727 1.901 1.479 2.856 2.231 1.995 1.572 4.1 2.983 6.204 4.386.042.026.084-.033.05-.067-1.91-1.521-3.87-2.967-5.814-4.446-.87-.659-1.707-1.36-2.603-1.994-.845-.6-1.674-1.2-2.375-1.97-.034-.042-.084.01-.068.043zM24.458 28.559c1.302 1.208 2.848 2.172 4.37 3.067.059.034.101-.05.05-.093-1.453-1.005-2.814-2.205-4.395-3.017-.016 0-.042.026-.025.043zM7.141 14.588c-.44-.346-.803-.828-1.166-1.25-.245-.288-.66-.922-1.082-.871-.06.008-.101.05-.085.11.043.211.203.304.364.44.236.202.448.43.659.659.397.414.77.718 1.302.938.008.016.025-.017.008-.026zM6.693 12.797c-.05-.068-.084-.178-.127-.245-.067-.11-.135-.22-.202-.322-.127-.202-.237-.439-.423-.6-.144-.118-.372.034-.262.203.144.228.321.448.482.668.059.084.135.169.228.237.101.076.17.076.27.11.026.008.051-.026.034-.051zM6.82 11.546c-.093-.093-.152-.245-.22-.364-.067-.126-.084-.312-.194-.414-.076-.076-.186-.034-.22.06-.067.16.076.371.17.49.126.152.261.194.43.27.026.017.06-.017.034-.042zM11.722 18.527c.837.507 1.42 1.335 2.29 1.783.05.025.11-.042.068-.084-.676-.677-1.327-1.59-2.282-1.885-.11-.034-.17.127-.076.186zM11.849 19.38c.186.178.363.355.566.507.186.136.372.33.609.338.059 0 .084-.059.059-.11-.085-.194-.305-.287-.474-.405-.228-.152-.473-.262-.718-.38-.034-.009-.068.025-.042.05zM34.625 34.762c.136.397.499.625.837.837.254.152.752.515 1.065.456.034-.009.05-.042.042-.068-.059-.287-.54-.44-.769-.558-.38-.202-.735-.422-1.04-.743-.05-.06-.16 0-.135.076zM34.862 35.7c-.093.16.211.338.304.406.237.177.693.465.997.43.051-.008.068-.05.034-.092-.127-.135-1.369-.583-1.31-.735.017-.009-.017-.026-.025-.009zM1.935 19.76c-.076.06-.144.11-.22.161-.05.034-.067.076-.059.136.279 1.369 1.166 1.681 2.443 1.783.743.059 1.25.22 1.53.946.16.423.202 1.014-.094 1.386-.38.474-1.538.136-1.377-.524.093-.363.304-.16.44-.33.134-.168-.026-.346-.195-.396-.245-.068-.465.202-.583.371-.913 1.361 2.121 2.41 2.425.448.11-.735-.186-1.698-.836-2.121-.482-.313-1.141-.287-1.69-.321-.398-.026-.753-.093-1.09-.296-.322-.194-.778-.82-.669-1.217.009-.017-.008-.042-.025-.025zM7.217 23.978c.642.22 1.243.338 1.851.676.702.38 1.082.879 1.454 1.572.591 1.09 1.301 2.4 2.755 2.096.093-.017.076-.144 0-.169-.88-.304-1.462-.685-1.944-1.479-.38-.625-.684-1.268-1.158-1.834-.38-.44-2.51-1.614-2.992-.938-.017.034 0 .067.034.076zM7.268 25.448c.068.034.17.161.245.203.296.17.575.33.845.541.245.186.448.423.626.676.135.195.203.372.448.431.067.017.118-.025.143-.084.203-.499-.532-1.099-.87-1.37a3.119 3.119 0 0 0-.76-.439c-.136-.05-.33-.042-.474-.05-.042 0-.152.042-.186.042-.025.008-.034.042-.017.05zM13.86 29.142c.347.245.794.228 1.124.498.16.136.38-.025.287-.22-.228-.481-.93-.422-1.369-.447-.093-.009-.11.118-.042.169zM15.829 30.223c.093.009.203.043.287.076.068.034.102.093.17.11-.018-.025-.043-.042-.06-.059l.009.017c.008.034.05.06.084.05.017-.008.026-.008.043-.008.092-.017.126-.11.11-.194-.026-.127-.153-.195-.263-.211a.73.73 0 0 0-.405.076c-.093.042-.043.135.025.143zM24.297 37.754c-.05.32.49.659.677.82.49.422.988.836 1.512 1.225 1.826 1.344 3.913 2.282 6.178 2.476.068.009.076-.093.017-.118-1.986-.685-3.938-1.437-5.696-2.595-.896-.591-1.716-1.335-2.67-1.825l-.018.017zM22.235 36.3c.22.279.474.55.82.676.186.068.296-.178.178-.313-.22-.262-.567-.405-.888-.498-.076-.026-.16.067-.11.135zM21.145 35.278c.009.025 0 .025 0-.009 0 .026.009.068.026.085.025.042.05.084.067.126.026.051.076.093.11.136.017.025.034.033.06.05.025.017.058.017.084.017.059-.008.05-.008 0 0 .067.026.16-.042.152-.118-.008-.05-.034.127 0 0 .017-.05 0-.101-.025-.144-.034-.05-.085-.101-.127-.152-.034-.034-.076-.059-.11-.093s-.068-.042-.11-.05c.068.008.042.008.017-.009-.093-.042-.186.068-.144.16zM30.5 43.441c.736.533 1.64.803 2.384 1.327.955.676 1.826 1.623 2.662 2.434.034.034.102-.008.076-.059-1.03-1.85-2.907-3.448-5.011-3.947-.17-.042-.237.153-.11.245zM11.063 30.596c.6.608 1.63.735 2.383 1.115.98.499 1.952 1.09 2.84 1.741 1.732 1.285 3.127 2.924 4.969 4.057.042.025.085-.034.05-.06-1.478-1.36-2.814-2.864-4.41-4.09-.871-.668-1.826-1.225-2.807-1.716a11.47 11.47 0 0 0-1.454-.608c-.515-.177-1.056-.203-1.53-.482-.033-.025-.067.017-.041.043zM18.348 36.503c.16.955 1.538 1.572 2.222 2.113 1.065.828 2.139 1.53 3.39 2.028.1.034.152-.11.067-.16-1.014-.651-2.003-1.386-2.966-2.113-.837-.626-1.944-1.107-2.629-1.91-.025-.06-.093-.009-.084.042zM24.855 40.957c.28.397.947.701 1.42.71.076 0 .093-.093.034-.136-.22-.152-.456-.295-.685-.43-.22-.127-.456-.271-.71-.254-.042.008-.084.067-.059.11zM10.074 33.384C9.127 31.77 7.555 30.63 5.94 29.75c-.845-.465-1.741-.836-2.628-1.217-.347-.143-.702-.27-1.04-.448-.228-.118-.406-.372-.65-.43-.051-.01-.119 0-.153.042-.667.794 2.831 1.876 3.212 2.045 2.045.921 3.752 2.096 5.316 3.693.034.05.101 0 .076-.05zM5.248 31.069c-.65-.431-1.192-.964-1.935-1.251-.406-.16-.829-.27-1.217-.474-.28-.143-.457-.405-.77-.464-.076-.017-.152.034-.152.118-.033.608.829.811 1.285.963.955.322 1.842.744 2.764 1.15.033 0 .05-.026.025-.042zM2.637 27.325c-.186-.136-.372-.27-.558-.415-.211-.152-.347-.33-.49-.54-.076-.11-.39-.584-.558-.305-.127.22.287.6.43.727.322.296.787.363 1.15.575.034.025.06-.017.026-.043zM6.186 33.148c.533.346 1.133.566 1.69.879.727.405 1.403.971 2.046 1.495 1.03.837 1.927 1.81 2.822 2.79 1.674 1.817 3.685 3.591 6.094 4.318.076.026.118-.084.05-.127-1.14-.676-2.214-1.487-3.295-2.248-1.116-.786-2.029-1.817-2.95-2.814-.879-.964-1.8-1.834-2.848-2.603-1.133-.828-2.273-1.276-3.575-1.724-.042-.025-.06.017-.034.034zM15.086 38.599c.278.794 1.208 1.285 1.842 1.775 1.056.828 2.138 1.555 3.372 2.079.076.033.135-.06.068-.11-.93-.66-1.868-1.302-2.79-1.96-.43-.305-.836-.635-1.267-.93-.406-.28-.845-.508-1.166-.88-.026-.025-.068 0-.06.026zM22.945 43.847c.753 1.293 2.553 2.299 3.998 2.519.101.017.169-.11.076-.178-.609-.389-1.268-.676-1.902-1.023-.735-.405-1.386-.904-2.045-1.42-.076-.059-.186.01-.127.102zM28.726 46.991c.237.55.989.65 1.513.76.558.119 1.099.415 1.623.651.481.22.938.651 1.453.753.093.017.152-.068.119-.153-.338-.718-1.564-1.04-2.265-1.318a6.403 6.403 0 0 0-1.108-.33c-.363-.067-1.005-.126-1.267-.422-.034-.017-.076.025-.068.059zM5.992 37.111c.211.685 1.005.846 1.521.338.625-.608.44-1.445-.22-1.927-.811-.591-1.952-.65-2.83-1.132a5.869 5.869 0 0 1-1.59-1.293c-.515-.592-.65-1.352-1.107-1.952-.034-.051-.135-.06-.144.017-.118.743.372 1.538.829 2.096.583.726 1.31 1.276 2.138 1.698.634.321 1.344.448 2.003.702.44.169.837.43.887.93.068.675-.87 1.022-1.208.405-.085-.152-.33-.042-.28.118z" fill="#7E7B88"/><path d="M4.766 33.274c-.507-.456-1.04-.887-1.572-1.327-.456-.371-.913-.836-1.487-1.005-.076-.026-.17.076-.11.143.346.482.896.812 1.36 1.167.567.43 1.108.82 1.784 1.065.025.025.05-.017.025-.043zM9.06 36.816c.169-.119.059.143.042.185a3.455 3.455 0 0 1-.152.415c-.127.287-.305.549-.499.794-.16.194-.38.422-.642.448-.237.025-.39-.228-.617-.237-.043 0-.102.043-.11.085-.068.33.253.55.54.608.347.076.668-.118.922-.338.524-.456.98-1.352.921-2.062 0-.067-.042-.118-.11-.144-.211-.059-.287-.017-.363.178-.017.05.034.084.067.068zM10.014 38.785c-.194.186-.363.397-.583.566-.236.178-.473.203-.76.279-.068.017-.076.11-.017.144.296.202.634.126.913-.076.27-.203.397-.567.524-.871.025-.042-.043-.076-.076-.042zM7.876 42.698c.846-.904 2.037-.888 3.178-.626a4.204 4.204 0 0 1 1.724.888c.609.507.862 1.276 1.428 1.775.043.042.136.033.144-.043.127-.743-.591-1.445-1.073-1.927a4.604 4.604 0 0 0-2.096-1.14c-1.031-.263-3.136-.38-3.516.946-.042.118.118.22.211.127z" fill="#7E7B88"/><path d="M8.367 43.29c1.335-.668 2.425-.347 3.44.71.041.041.11 0 .092-.051-.397-1.53-2.594-1.894-3.617-.77-.068.06.008.153.085.11zM9.102 44.168c.498-.228 1.022.05 1.496.203.05.017.076-.042.042-.076-.38-.448-1.133-.617-1.623-.262-.084.06-.017.178.085.135zM16.683 44.937c2.155.161 3.617 1.724 4.919 3.288.591.718 2.096 2.772 3.245 2.257.067-.034.05-.127 0-.161-.279-.177-.592-.27-.87-.431-.39-.22-.719-.54-1.04-.854-.609-.6-1.133-1.284-1.69-1.935-1.082-1.26-2.823-2.586-4.573-2.273-.067.016-.05.11.009.11zM22.742 47.549c.702.55 1.192 1.403 1.8 2.045.406.423 1.31 1.209 1.936.812.06-.034.068-.136 0-.17-.304-.16-.65-.16-.963-.32-.423-.229-.761-.592-1.082-.939-.516-.557-.972-1.124-1.657-1.47-.025-.009-.05.025-.034.042zM16.049 47.43c-.33-.6.06-.963.608-1.115.516-.135 1.065.254 1.395.6.397.423.583 1.192 1.15 1.411.075.026.118-.05.11-.11-.077-.49-.567-1.09-.88-1.47-.405-.473-.912-.77-1.53-.845-.802-.093-1.918 1.056-.938 1.606.051.033.11-.026.085-.076z" fill="#7E7B88"/><path d="M16.953 47.507c.026-.229.262-.119.406-.06.177.076.423.237.524.406.034.05.101.017.093-.042-.068-.347-.397-.583-.744-.634-.211-.034-.515.101-.32.338.024.017.041.008.041-.008zM14.291 41.785c-.076.727.338 1.285.921 1.682.516.363 1.445.583 1.902.025a.066.066 0 0 0-.06-.11c-.633.102-1.106.161-1.681-.177-.507-.296-.896-.862-1.014-1.428-.009-.034-.06-.026-.068.008z" fill="#7E7B88"/><path d="M15.271 41.962c-.143.406.347.736.668.862.042.017.068-.042.042-.067-.118-.127-.253-.228-.389-.338-.118-.11-.287-.27-.27-.448 0-.026-.042-.034-.05-.009z" fill="#7E7B88"/><path d="M.769 24.586c.498-4.04 1.462-8.045 3.828-11.426 2.206-3.16 5.308-5.654 8.63-7.572 5.856-3.381 12.744-4.716 19.336-2.9 6.22 1.725 11.224 6.162 14.03 11.926 2.873 5.882 3.355 12.998 1.52 19.252-1.91 6.508-6.566 11.672-12.727 14.452-6.026 2.713-13.091 2.865-19.227.423-6.736-2.68-11.95-8.9-14.148-15.728C.887 29.497.676 25.744 1.26 22.11c.304-1.901.896-3.693 1.479-5.527.423-1.335 1.285-2.535 1.902-3.786.076-.152.135-.313.21-.457.052-.101-.1-.194-.16-.093-.279.541-.701 1.031-1.03 1.547-.423.65-.846 1.301-1.252 1.96-.87 1.429-1.301 3.212-1.673 4.826a24.686 24.686 0 0 0-.118 10.582c1.445 6.896 6.144 13.412 12.22 16.97 11.427 6.685 27.282 2.696 33.916-8.798 6.38-11.063 3.465-26.884-7.116-34.279C28.37-2.813 12.05 1.852 4.242 12.442 1.622 15.992.76 20.276.473 24.595c-.017.186.27.169.296-.009z" fill="#7E7B88"/><path d="M.744 25.626c-.06.769-.136 1.546-.017 2.316.135.938.346 1.867.532 2.797.287 1.47.583 3.17 1.547 4.37.042.05.11-.017.084-.06-.718-1.42-.634-2.975-.938-4.496-.152-.76-.338-1.521-.49-2.282-.178-.887-.473-1.75-.575-2.645-.025-.085-.143-.085-.143 0zM5.603 11.242C7.302 9.45 9.17 7.86 11.173 6.416c2.02-1.454 4.03-2.84 6.38-3.702 2.29-.845 4.708-1.183 7.133-1.327 1.183-.067 2.375-.059 3.558-.076 1.184-.017 2.485.118 3.584.583.05.017.084-.042.042-.067C29.918.643 27.365.82 25.176.837c-2.552.026-5.121.415-7.538 1.252-2.485.862-4.623 2.324-6.719 3.879-2.02 1.496-3.955 3.135-5.434 5.172-.076.076.05.178.118.102z" fill="#7E7B88"/></svg>