<svg width="29" height="29" fill="none" xmlns="http://www.w3.org/2000/svg"><path d="M12.099 19.451c-.279-.321-.524-.44-.964-.363-.414.067-.794.363-1.005.718-.38.642.093 1.614.862 1.597.617-.016 1.14-.617 1.343-1.149.195-.499.043-1.318-.659-1.082-.067.017-.067.102-.017.135.305.22.398.423.262.778-.126.346-.456.701-.81.82-.491.16-.779-.507-.61-.888.22-.498 1.074-.82 1.547-.507.042.026.076-.025.05-.059z" fill="#7E7B88"/><path d="M11.262 19.755c-.253-.185-.54.085-.659.305a.587.587 0 0 0-.042.448c.017.067.059.135.11.177.067.05.126.034.202.06.043.008.085-.043.043-.085-.043-.043-.085-.17-.11-.22-.034-.093-.009-.186.017-.27.059-.178.245-.33.422-.38.026-.01.026-.026.017-.035zM12.572 19.341c.034.718-.321 1.42-.87 1.868-.034.025 0 .084.042.067.465-.135.71-.38.913-.82.169-.38.16-.768-.043-1.123-.017-.009-.042-.009-.042.008zM10.848 18.767c-.287.076-.524.118-.786.287-.237.16-.372.38-.372.668 0 .042.06.059.076.025.245-.423.66-.735 1.09-.947.026-.008.009-.033-.008-.033zM10.121 18.555c-.287.102-.55.322-.566.643 0 .05.076.067.093.025.127-.245.33-.423.499-.634.008-.008 0-.042-.026-.034zM10.518 21.708c.753.397 1.75.093 2.156-.66.017-.033-.026-.059-.051-.033-.558.524-1.327.828-2.096.684 0-.008-.017 0-.008.009zM11.16 22.426c.322-.025.618-.102.93-.203.043-.017.034-.084-.008-.076a3.756 3.756 0 0 0-.921.22c-.034.017-.034.067 0 .059zM14.161 18.116c-.287.16-.507.397-.718.634-.034.033.008.101.05.067.068-.034.127-.059.186-.11.068-.05.119-.118.178-.177.118-.119.228-.237.338-.364.025-.025 0-.067-.034-.05zM5.22 18.885c1.267.524 2.797 1.15 4.183 1.09.05 0 .068-.076.017-.093-1.37-.405-2.798-.693-4.184-1.04-.042-.008-.042.035-.017.043zM6.791 18.665c.575.152 1.133.38 1.724.482.043.008.077-.051.034-.068-.558-.245-1.132-.43-1.75-.465-.033 0-.033.043-.008.051zM8.963 15.082c.076.76.507 1.479.972 2.07.017.026.06-.008.043-.033-.355-.668-.871-1.268-.98-2.037 0-.026-.035-.026-.035 0zM13.392 21.2c1.031 1.513 3.448 1.708 5.088 2.071.042.009.05-.042.017-.059-1.7-.558-3.694-.778-5.046-2.054-.042-.025-.084.009-.06.043zM13.764 20.761c.422.65 1.453.972 2.189 1.048.05.008.05-.068.008-.085-.735-.295-1.555-.456-2.172-.98-.008-.017-.034 0-.025.017zM18.759 10.154c-.338-.583-1.125-.6-1.505-.033-.313.464-.296 1.14.211 1.453.398.245.88.093 1.2-.194.28-.245.61-1.141.094-1.31a.111.111 0 0 0-.102.025c-.194.22-.025.583-.22.829a.622.622 0 0 1-.6.22c-.253-.052-.279-.33-.236-.542.093-.532.744-.524 1.124-.405.025 0 .042-.026.034-.043zM16.578 11.152c-.498.017-1.03.389-1.386.71-.034.025 0 .084.042.067.474-.186.913-.481 1.37-.718.016-.008 0-.06-.026-.06zM19.51 9.994c.82-.279 1.505-.854 2.164-1.386.06-.05-.017-.144-.084-.11-.744.397-1.538.786-2.147 1.378-.05.05 0 .143.068.118zM19.646 10.408c.456-.034.862-.253 1.285-.414.067-.025.059-.144-.017-.135-.457.05-.964.135-1.277.524-.008 0 0 .025.009.025zM19.02 4.517c-.16.778-.346 1.547-.532 2.316-.169.727-.465 1.564-.363 2.316.008.059.084.076.101.017.28-.702.313-1.547.448-2.282.144-.786.279-1.572.355-2.367.009-.008-.008-.008-.008 0zM19.012 8.008c-.067.177-.11.363-.152.55-.042.177-.11.363-.127.54 0 .034.043.042.06.026.261-.254.22-.778.253-1.116.008-.017-.025-.025-.034 0zM17.406 12.343c-.524 1.31-1.132 2.747-1.318 4.15-.009.05.076.068.093.025.617-1.259 1.073-2.772 1.293-4.158.017-.042-.042-.059-.068-.017zM17.863 12.85c-.051.398-.085.795-.127 1.192 0 .042.05.042.068.008.135-.388.143-.794.143-1.208-.008-.042-.076-.042-.084.008zM16.975 11.735c-2.011 1.775-3.203 4.403-4.547 6.676-.067.119.11.22.178.102 1.378-2.333 2.704-4.632 4.378-6.77.008 0 0-.017-.009-.008zM12.437 15.132c-.33.49-.482 1.048-.625 1.623-.153.592-.355 1.293-.305 1.91 0 .068.11.11.144.042.245-.498.27-1.115.372-1.656.118-.642.296-1.26.49-1.876.017-.06-.05-.085-.076-.043zM11.195 16.493c-.102.313-.17.71-.11 1.04.008.059.084.042.101 0 .127-.305.11-.71.076-1.032-.008-.033-.059-.05-.067-.008zM10.924 8.904c-.177-.338-.634-.39-.963-.27a1.33 1.33 0 0 0-.812.861c-.22.744.609 1.488 1.327 1.37.575-.102.896-.787.888-1.319-.009-.617-.651-1.225-1.26-.854-.059.034-.042.11.017.136.389.152.829.16.862.676.026.355-.152.76-.473.938-.456.253-1.014-.338-.989-.77.017-.303.262-.549.516-.684.287-.152.566-.084.87-.042.017 0 .026-.025.017-.042zM11.693 9.453c.744.237 1.538.186 2.308.211.938.026 1.867.153 2.797.17.042 0 .068-.068.025-.085-.718-.321-1.53-.347-2.299-.372-.92-.025-1.901-.101-2.814.017-.042 0-.059.05-.017.06zM11.609 10.13c.304.151.659.185.989.244.354.06.701.203 1.064.178.043 0 .076-.051.034-.085-.279-.253-.659-.304-1.022-.372-.347-.059-.719-.11-1.065-.033-.026.008-.034.05 0 .067zM11.566 10.662c.33.185.719.253 1.057.397.042.017.068-.034.034-.06-.305-.228-.685-.464-1.082-.397-.034 0-.034.051-.008.06zM13.51 2.683c-.473.863-.946 1.733-1.437 2.587-.524.912-1.208 1.8-1.63 2.772-.018.042.033.093.067.05.727-.65 1.2-1.63 1.64-2.493.49-.955.93-1.935 1.394-2.907.008-.009-.025-.025-.034-.009zM12.927 5.71c-.346.354-.634.751-.921 1.148-.321.457-.685.888-.989 1.344-.042.06.042.102.093.068.803-.642 1.166-1.775 1.843-2.544.008-.008-.009-.034-.026-.017zM16.046 7.053c.084.701.44 1.301.769 1.91.025.042.101.025.093-.025-.085-.702-.567-1.243-.803-1.894-.017-.033-.068-.033-.06.009zM12.707 8.152c-.194-.288-.608-.186-.76.092-.17.296.152.668.465.651.253-.008.43-.253.481-.482a.45.45 0 0 0-.05-.346c-.093-.135-.203-.127-.347-.093-.042.008-.05.068-.008.085.11.05.194.152.186.27a.394.394 0 0 1-.22.304c-.135.05-.321-.11-.296-.245.034-.211.364-.253.516-.194.025.008.05-.026.033-.043zM19.866 12.352c0-.16-.068-.313-.237-.346-.177-.034-.355.059-.473.177-.245.237-.237.794.11.93.279.11.566-.144.693-.372.067-.127.101-.28.05-.414-.042-.119-.22-.288-.355-.195-.025.017-.033.034-.025.068.009.076.093.127.127.203.025.059.008.127-.017.186-.06.127-.203.27-.338.279-.17.008-.152-.322-.093-.431.118-.22.355-.296.507-.068.008.025.05.017.05-.017zM13.198 14.186c-.237-.237-.6-.085-.677.22-.084.346.288.6.6.532.246-.05.398-.338.415-.575a.415.415 0 0 0-.127-.304c-.119-.11-.27-.101-.406-.042-.034.017-.05.084 0 .093.144.025.313.067.347.228.034.144-.06.296-.186.372-.144.084-.414-.026-.431-.195-.026-.245.245-.388.448-.295.008.008.034-.017.017-.034zM9.952 5.878c-.33.575-.6 1.53-.304 2.164.017.042.093.042.118 0 .136-.288.127-.583.152-.896.034-.406.06-.82.136-1.226.008-.05-.068-.093-.102-.042zM9.023 7.535c-.068.228-.102.515 0 .743.016.043.084.026.093-.008.059-.228 0-.49-.026-.719 0-.042-.059-.05-.067-.016zM2.836 8.937c.77.406 1.665.49 2.519.617.946.136 1.986.33 2.932.254.135-.009.17-.203.034-.245-.854-.245-1.8-.237-2.679-.338-.93-.102-1.868-.313-2.797-.321-.009.008-.017.033-.009.033zM4.983 11.27c.532-.008 1.03-.118 1.546-.236.677-.153 1.395-.262 2.037-.524.093-.034.076-.17-.025-.17-1.15-.05-2.536.44-3.575.896-.017 0-.009.034.017.034zM7.56 11.532c.423-.127.854-.245 1.251-.422.043-.026.017-.085-.025-.093a1.812 1.812 0 0 0-1.26.456c-.025.025 0 .067.034.06zM3.487 10.906c.017-.168.025-.338.169-.447.152-.11.287-.06.406.067.033.034.059.085.067.119.009.033.009.025.009.042 0 0-.009.076 0 .042-.017.085-.051.135-.127.203-.05.05-.16.11-.228.135-.051.017-.102.034-.152.034.025-.009-.119 0-.076 0-.026 0-.043-.009-.06-.017.043.017-.008-.008-.025-.017.017.008-.008-.008-.008-.017a.844.844 0 0 1-.051-.33c.008-.092-.11-.1-.152-.042-.127.178-.22.313-.127.533.068.152.22.228.38.253.321.043.676-.152.862-.405.245-.338.051-.803-.32-.955-.263-.102-.55.008-.71.22-.144.185-.17.506.084.616.034.017.05-.008.059-.034zM4.864 10.5c.262-.016.508-.092.753-.16.033-.008.05-.067.008-.084-.27-.127-.55.025-.794.16-.026.017-.017.093.033.085zM13.764 8.422c.228.101.448.143.693.169.304.034.625.101.921.017.068-.017.068-.102.017-.135-.397-.305-1.166-.28-1.623-.127-.034 0-.05.059-.008.076zM12.978 7.391c.617-.448 1.03-1.268 1.073-2.028 0-.068-.093-.068-.11-.017-.127.355-.27.701-.44 1.03-.168.339-.405.626-.566.964-.025.026.009.068.043.051zM13.553 7.425c.177-.136.338-.28.507-.432.194-.169.405-.371.617-.515.042-.034.017-.11-.043-.093-.236.085-.44.169-.633.338-.212.186-.39.38-.524.634-.017.034.033.101.075.068zM14.161 7.408c.152.059.321.093.49.101.22.017.431.11.634.203a.075.075 0 0 0 .101-.101c-.21-.44-.878-.6-1.225-.228-.008.008-.008.016 0 .025zM15.615 5.515c.591.49.997 1.107 1.352 1.774.025.051.11.026.11-.033-.026-.727-.685-1.674-1.445-1.784-.017 0-.034.026-.017.043zM17.761 5.92c.288-.456.39-1.014.584-1.504.304-.794.794-1.175 1.47-1.631.042-.025.025-.093-.025-.093-1.386.034-2.012 2.113-2.037 3.237-.009 0 .008-.009.008-.009zM17.981 3.867c.17-.668.778-1.023 1.242-1.471.026-.025.009-.084-.033-.084-.668.067-1.378.845-1.302 1.538 0 .05.076.067.093.017zM21.108 4.28c-.034-.194-.118-.354-.321-.405-.203-.05-.389.034-.516.203-.118.16-.126.43-.076.625a.445.445 0 0 0 .313.321c.27.076.575-.118.701-.355a.438.438 0 0 0 .009-.397c-.076-.169-.262-.211-.431-.22a.049.049 0 0 0-.034.085c.076.068.144.144.203.228.034.05.025.093.008.144-.059.127-.22.203-.33.203-.033 0-.058-.017-.084-.043-.042-.076-.025-.22-.017-.312.017-.27.423-.16.541-.043.017.009.034-.008.034-.033zM22.976 5.075c-.313-.44-.938-.388-1.268 0-.38.465.042 1.167.55 1.31.988.28 1.41-1.648.32-1.614-.058 0-.075.076-.033.11.27.169.498.363.44.71-.043.27-.28.54-.558.54-.355-.008-.702-.498-.558-.828.177-.405.752-.498 1.073-.202.026.017.05-.009.034-.026zM21.015 7.154c-.127-.034-.279-.042-.397.034-.144.093-.144.296-.11.44.05.22.237.346.448.261.177-.067.346-.245.372-.44a.29.29 0 0 0-.076-.261c-.085-.093-.211-.076-.321-.06-.051.01-.034.068 0 .085.076.034.21.102.194.203a.39.39 0 0 1-.194.254c-.076.05-.161.067-.212-.017-.135-.22.034-.507.288-.482.025.008.025-.017.008-.017zM19.62 4.07c.026.862-.118 1.707-.22 2.569-.008.034.052.042.069.008.32-.828.338-1.715.194-2.577-.009-.026-.042-.026-.042 0zM19.976 6.782c.135-.262.346-.507.549-.726.118-.127.262-.245.406-.347.093-.067.22-.11.295-.211.017-.025.009-.05-.017-.068-.27-.101-.616.254-.777.423-.245.253-.431.55-.524.887-.017.05.05.085.068.042zM20.533 6.622c.119-.085.254-.152.39-.211.143-.068.278-.102.405-.195.034-.025.034-.076-.009-.084-.33-.102-.743.127-.836.456-.009.025.025.05.05.034zM22.376 6.985c-.042.085-.042.178-.085.262-.042.11-.101.211-.169.304-.127.186-.304.347-.456.524-.042.043 0 .136.067.11.262-.093.431-.287.592-.515.11-.16.288-.524.093-.685-.017-.008-.034-.017-.042 0zM20.136 8.202c-.346.135-.625.533-.684.896 0 .034.033.06.059.034.101-.127.186-.262.27-.406.102-.177.245-.338.38-.481.009-.017-.008-.051-.025-.043zM23.855 5.81c-.06.558-.093 1.057-.338 1.572-.237.49-.634.939-1.048 1.285-.034.025.008.076.042.06.98-.474 1.978-1.801 1.386-2.925-.017-.025-.042-.008-.042.008zM24.599 6.782c.017.457-.338.88-.609 1.226-.034.05.034.101.076.076.279-.16.49-.398.626-.693.084-.186.152-.507-.06-.634-.017 0-.033.008-.033.025zM21.826 9.554c.355.034.71-.016 1.074.043.355.059.769.236 1.048.456.025.017.067-.008.05-.034-.355-.701-1.53-.955-2.188-.507-.017.009-.009.034.017.042zM23.491 9.073c.347.042.677.236.939.465.033.025.076-.009.059-.043-.17-.397-.575-.617-.998-.465-.033.009-.025.043 0 .043zM17.128 4.957c.194-.541.1-1.124.27-1.682.152-.499.507-.896.693-1.378.025-.067-.06-.093-.101-.059-.964.778-1.116 1.978-.896 3.119 0 .017.025.017.034 0zM15.758 1.458c-.262-.102-.278.22-.21.389.092.21.278.456.515.515.262.068.583-.084.752-.287.16-.195.127-.524-.152-.558-.034 0-.068.042-.051.068.06.16.16.245.017.388a.637.637 0 0 1-.507.186c-.135-.017-.228-.16-.313-.262-.101-.126-.203-.27-.042-.388.017-.009.017-.043-.009-.051zM16.096 4.551c.161-.253-.228-.338-.405-.279-.119.043-.237.136-.254.27-.025.187.11.33.245.432.229.169.592.135.617-.203a.428.428 0 0 0-.118-.346.293.293 0 0 0-.194-.102c-.102-.008-.153.026-.237.06-.025.016-.017.05.008.058.076.026.161.093.229.127.05.026.084.076.092.127.017.127-.1.135-.185.085-.102-.06-.28-.186-.136-.27.085-.052.262-.094.305.033.008.017.025.017.033.008zM15.184 5.143c-.16.034-.262.177-.38.279-.119.101-.237.194-.288.346-.008.042.025.076.06.085.177.008.312-.11.422-.229.118-.118.245-.245.262-.414.008-.05-.043-.076-.076-.067zM14.457 4.83c.135-.44.405-.718.794-.963.44-.28.778-.262 1.251-.152.025.008.068-.017.06-.043-.077-.591-.99-.295-1.31-.143-.356.169-1.2.828-.838 1.301.017.017.043.017.043 0zM15.2 2.675c.288.254 1.319.583 1.48.034.008-.034-.026-.05-.051-.042-.431.202-.98.194-1.412-.017-.008 0-.033.017-.016.025zM13.383 4.805c.634-.837 1.792-2.443.939-3.474-.026-.034-.085-.008-.085.034.025.71.068 1.225-.22 1.901-.22.516-.515.98-.684 1.513-.009.034.034.051.05.026zM14.524 10.62c.28.16.617.135.93.135.313-.009.693.092.972-.051.042-.017.042-.085.017-.11-.211-.22-.566-.17-.854-.152-.346.017-.718.025-1.056.11-.034 0-.042.05-.008.067zM15.42 12.462c-.363.025-.667.338-.879.608-.11.144-.65.71-.388.88a.145.145 0 0 0 .143 0c.228-.136.347-.483.49-.694.17-.253.338-.617.643-.735.025-.009.025-.06-.009-.06zM14.567 12.402c-.152-.033-.338.068-.457.161-.101.085-.33.304-.245.456.093.152.237-.093.28-.16.109-.17.278-.288.422-.423.017-.008.017-.025 0-.034zM15.53 14.947c-.296.481-.54.997-.845 1.479-.304.473-.642.92-.963 1.386-.034.05.033.126.093.092.895-.659 1.52-1.85 1.766-2.924.008-.042-.034-.059-.05-.034zM15.564 17.254a5.808 5.808 0 0 1-1.85 2.07c-.043.034-.018.11.041.093.964-.279 1.513-1.268 1.843-2.146 0-.026-.026-.034-.034-.017zM10.975 14.499c-.431-.305-.862.126-.896.566-.042.524.448.879.947.786.397-.076.608-.524.583-.888a.751.751 0 0 0-.237-.507c-.194-.177-.389-.169-.608-.042-.06.034-.043.118.017.135.194.068.405.16.456.364.05.203-.034.448-.211.557-.229.144-.575-.033-.643-.278-.084-.322.212-.693.55-.617.059.017.076-.043.042-.076zM12.699 13.459c.228-.507.507-.972.904-1.378.457-.464.964-.591 1.513-.862.042-.017.025-.076-.008-.084-.558-.203-1.2.321-1.572.684-.44.423-.837 1.006-.905 1.623-.008.034.051.05.068.017zM12.09 12.284c-.701.398-.591 1.564-.236 2.164.017.034.093.034.101-.017.05-.321-.025-.625-.067-.947-.051-.422.059-.786.253-1.157.017-.026-.017-.06-.05-.043zM11.127 13.873c-.558-.921-2.18-.955-2.874-.178-.042.051.009.119.077.094.456-.203.887-.364 1.394-.372.499 0 .938.262 1.37.49.024.008.05-.009.033-.034zM10.747 11.363c.033.617.126 1.268.304 1.868.008.034.067.025.067-.008.009-.618.026-1.319-.236-1.894-.025-.067-.135-.034-.135.034zM10.324 11.287c-.06.194-.076.389-.093.592-.017.236-.05.448 0 .676.017.059.093.05.11 0 .05-.203.06-.389.076-.592.017-.228.034-.448-.025-.676-.009-.034-.06-.034-.068 0zM9.378 11.33c-.296.396-.6.785-.939 1.149-.32.346-.667.676-.912 1.081-.034.06.042.11.093.068.684-.566 1.605-1.377 1.817-2.273.008-.043-.043-.06-.06-.026zM9.411 12.14c-.076.161-.143.313-.211.474-.017.034.025.067.06.042.143-.118.202-.321.21-.499-.008-.025-.042-.042-.059-.017zM11.566 11.236c.229.38.575.685.939.93.067.042.143-.042.11-.11a2.064 2.064 0 0 0-1.023-.854c-.017-.008-.034.017-.026.034zM13.299 20.051c1.276-.313 3.144.406 3.812 1.555.025.042.084.009.076-.034-.229-1.496-2.705-2.113-3.896-1.546-.017.008 0 .034.008.025zM19.232 21.522c-.093-.102-.17-.237-.296-.305a.81.81 0 0 0-.389-.101c-.27-.008-.532.194-.676.422-.304.482.195 1.09.719 1.023.355-.042.625-.321.743-.65.152-.415-.228-.719-.617-.626-.05.017-.059.084-.017.11.178.093.39.203.39.422 0 .22-.212.398-.406.448-.254.076-.533-.27-.474-.498.043-.144.212-.237.347-.27.169-.043.482-.01.634.075.034.043.076-.017.042-.05zM20.052 18.428a7.382 7.382 0 0 0-.609 1.141c-.16.347-.389.685-.44 1.065-.008.051.051.093.094.051.27-.228.371-.558.507-.879.186-.448.346-.904.49-1.37-.009-.016-.034-.033-.042-.008zM20.085 20.06c-.16.101-.295.253-.405.414-.119.169-.288.346-.313.566-.008.042.05.085.093.068.186-.06.279-.237.372-.39.118-.194.22-.396.313-.608.008-.033-.034-.067-.06-.05zM23.212 20.017c-.574.11-1.123.38-1.664.6-.584.245-1.31.499-1.75.964-.05.05 0 .135.068.118.55-.169 1.065-.54 1.589-.803.583-.287 1.217-.507 1.774-.845.017 0 0-.034-.017-.034zM20.905 22.037c-.346.043-.727-.101-1.04.06-.033.016-.016.059.01.075.329.119.726.077 1.047-.05.034-.017.034-.093-.017-.085zM27.244 15.521c.025-.49-.44-.735-.87-.591-.44.143-.804.625-.778 1.09.017.456.296.912.668 1.174.262.186 1.064.195.912-.304-.017-.042-.042-.067-.093-.067-.127-.009-.194.042-.304.101-.101.06-.237-.008-.321-.068-.237-.152-.38-.456-.448-.726-.076-.313.084-.617.338-.803.347-.254.6-.051.845.22.017.016.05 0 .05-.026zM17.432 17.347c1.276-.229 2.544-.457 3.828-.584 1.183-.11 2.485-.033 3.634-.355.051-.016.06-.1 0-.11-1.166-.185-2.467.026-3.634.153-1.31.143-2.62.346-3.854.82-.042.025-.025.093.026.076zM23.534 17.203c.27.008.515.017.777-.06.28-.075.6-.1.854-.253.05-.034.042-.11-.017-.127-.524-.177-1.124.27-1.623.398-.017.008-.017.042.009.042zM26.213 18.065c-.482.507-.845 1.116-1.217 1.707-.457.727-1.023 1.403-1.395 2.172-.034.076.05.144.11.085.609-.516 1.014-1.209 1.445-1.868.423-.66.854-1.335 1.099-2.079.008-.017-.025-.034-.042-.017zM26.686 14.186c-.025-.76-.355-1.64-.794-2.257-.034-.042-.11-.017-.093.042.22.727.372 1.606.811 2.24.017.034.076.025.076-.025zM25.96 14.287a1.392 1.392 0 0 0-.11-.448c-.077-.16-.195-.312-.364-.38-.05-.025-.102.008-.085.068.068.304.305.524.474.786.017.033.084.025.084-.026zM23.973 15.276c-.084-.11-.245-.456-.059-.532a.34.34 0 0 1 .127-.026c-.034 0 .025.009.025.009-.034-.009.017.017.017.017-.034-.026.009.017.009.017-.026-.034.008.008.008.017-.025-.043.008.016.008.016.009.017.009.034.017.06-.008-.034 0 .05 0 .067 0 .05 0 .034-.017.093a.268.268 0 0 1-.084.152s-.042.026-.017.017c0 0-.068.009-.017.009h-.06c-.084.008-.202-.034-.295-.051-.059-.008-.118.034-.101.101.093.372.524.457.794.22.211-.186.288-.566.178-.82-.152-.363-.584-.43-.88-.186a.47.47 0 0 0-.126.558c.076.17.253.28.43.33.043.017.069-.034.043-.068zM20.297 11.549c.752-.287 1.377-.507 2.197-.431.735.06 1.724.456 2.198 1.048.033.042.1 0 .093-.05-.246-.947-1.015-1.395-1.97-1.497-.811-.084-2.172.009-2.552.888-.017.008 0 .05.034.042z" fill="#7E7B88"/><path d="M21.733 12.158c.516-.085 1.082.016 1.58.143.06.017.102-.059.06-.101-.389-.448-1.209-.44-1.656-.093-.034.017-.017.059.017.05zM24.54 10.163c.304.676 1.935 1.073 2.222.177.009-.033-.025-.084-.059-.076-.346.034-.668.144-1.023.119-.372-.026-.743-.186-1.107-.254-.025 0-.042.017-.034.034zM25.334 9.85c.262.347.744.16.946-.16.034-.051-.017-.127-.076-.102l-.405.152c-.136.06-.305.127-.44.076-.017 0-.034.017-.025.034zM25.537 8.151a5.66 5.66 0 0 1-.364.262c-.126.085-.32.127-.372.28-.016.033.017.067.043.075.16.068.363-.076.49-.169a.63.63 0 0 0 .279-.405c.008-.026-.034-.076-.076-.043zM11.017 5.692c.22-.828.558-1.63.989-2.366.406-.693.98-1.26 1.386-1.952.025-.051-.017-.119-.076-.102-1.606.6-2.57 2.79-2.383 4.403 0 .051.067.068.084.017zM10.51 3.512c.16-.44.389-.862.634-1.26.127-.202.279-.38.456-.54.152-.144.372-.186.524-.321.068-.06.026-.161-.05-.186-.431-.161-.863.414-1.074.701a3.35 3.35 0 0 0-.575 1.589c0 .05.068.05.085.017zM7.391 2.937c.203.338.44.532.482.955.034.389-.16.668-.465.87-.591.39-1.436.355-1.876-.236-.042-.06-.144-.042-.144.034-.05 1.2 1.69.938 2.325.524.448-.296.625-.795.566-1.31-.042-.39-.338-1.09-.845-.922a.058.058 0 0 0-.043.085zM8.203 2.76c.312.033.625.084.913.21.287.128.515.364.769.542.05.034.126-.009.118-.068-.085-.794-1.226-1.318-1.851-.777-.025.025.009.084.05.093zM9.699 2.235c.059.068.126.153.177.237a.6.6 0 0 0 .085.118c.008.017.059.06.059.068.025.076.118.06.127-.017 0 .009.025-.05.025-.05.008-.034.008-.068.008-.102a.353.353 0 0 0-.076-.203.47.47 0 0 0-.346-.194c-.085 0-.102.093-.06.143zM8.727 4.627c.169.16.414.22.625.313.237.11.49.245.71.38.042.026.085-.017.076-.059-.05-.321-.262-.482-.532-.617-.254-.118-.558-.245-.837-.16-.068.008-.093.092-.042.143zM8.71 3.968c.44.211.87.389 1.293.634.042.025.093-.025.068-.068-.254-.44-.837-.718-1.336-.659-.042.009-.076.076-.025.093zM6.766 6.174c-.287.135-.144.676-.068.896.17.507.39.98.803 1.327.051.042.152 0 .127-.077-.22-.726-.482-1.487-.845-2.146h-.017zM5.904 6.148c-.11.16-.11.431-.144.617-.025.152-.05.296-.059.448-.008.119.034.245.025.364-.008.076.093.076.119.017.042-.11.127-.22.177-.339.068-.16.085-.346.102-.515.025-.17.076-.524-.119-.625-.033-.017-.076 0-.101.033zM5.186 5.498c-.6.583-1.64 2.003-.947 2.823.034.042.101.016.118-.034.127-.465.186-.938.38-1.386.187-.448.415-.88.542-1.353.008-.05-.051-.084-.093-.05zM7.637 5.819c.143.253.295.473.355.769.059.304.05.608.16.904.025.06.11.068.127 0 .127-.566.11-1.563-.583-1.766-.043-.009-.085.05-.06.093zM8.431 5.658c.034.119.101.246.177.347.043.06.093.11.136.169.042.06.101.076.143.127.034.042.119.017.136-.034.008-.085.033-.135.016-.22-.008-.076-.084-.16-.135-.22a.64.64 0 0 0-.43-.21c-.035.008-.051.025-.043.041z" fill="#7E7B88"/><path d="M6.977 3.326c.507.16.668 1.006.195 1.31-.06.034-.026.127.042.11.406-.102.583-.431.507-.845-.068-.38-.33-.685-.735-.651-.034.008-.042.059-.009.076zM27.278 15.665c-.136-.22-.406-.347-.66-.237-.245.11-.371.473-.11.642.026.017.077.009.085-.025.05-.118.009-.321.152-.38.152-.06.355-.034.516.017.017.008.025-.009.017-.017zM5.769 14.591c.177-1.115-1.209-1.233-2.003-1.115-1.175.177-1.868 1.344-1.53 2.468.363 1.183 1.648 1.673 2.73 1.149.82-.397 1.944-2.24.744-2.814-.076-.034-.161.042-.119.118.44.845-.093 1.834-.87 2.273-.828.465-1.682-.202-1.919-1.014-.22-.777.27-1.428.99-1.656.658-.211 1.673-.211 1.91.591.016.026.058.026.067 0z" fill="#7E7B88"/><path d="M4.67 14.524c-.262-.49-.769-.448-1.217-.228-.49.245-.811.735-.558 1.259.026.042.093.025.093-.025-.017-.38.254-.744.558-.955.287-.195.828-.33 1.09-.026.017.026.051 0 .034-.025zM7.653 12.073c-.304.16-.557.44-.82.668-.261.236-.506.422-.692.726-.034.06.025.136.093.119.363-.11.608-.313.887-.566.262-.229.55-.508.668-.846.034-.076-.068-.135-.136-.101zM6.276 12.15c-.186.1-.38.109-.575.177a1.17 1.17 0 0 0-.236.101c-.06.034-.085.118-.127.17-.026.033.017.084.059.075.084-.025.16-.025.237-.059a2.144 2.144 0 0 0 .676-.423c.025-.017-.009-.059-.034-.042zM3.039 13.155a24.92 24.92 0 0 1-.989-1.538c-.279-.457-.558-1.082-1.03-1.353-.052-.025-.11.017-.094.068.16.507.6.972.896 1.411.346.524.71 1.023 1.183 1.437.017.017.05-.008.034-.025zM4.29 12.825a.957.957 0 0 0 .008-.38c-.025-.144-.034-.296-.143-.414-.034-.034-.093-.017-.102.025-.025.135.009.254.034.389.025.127.076.296.169.38.008.017.025.017.034 0zM2.11 13.721c-.313-.169-.584-.389-.863-.608-.253-.203-.456-.524-.786-.609a.132.132 0 0 0-.16.16c.084.339.422.584.684.787.33.253.685.38 1.099.363.042 0 .068-.068.025-.093zM2.49 10.62c.11-.296-.085-.677-.237-.913-.203-.313-.423-.524-.786-.617-.05-.017-.101.042-.068.093.17.245.364.464.541.71.17.236.296.557.524.743.009 0 .026 0 .026-.017zM1.687 15.69c-.347-.025-.702-.034-1.048.034-.22.042-.152.363.05.372.372.025.761-.017 1.057-.262.067-.05.008-.135-.06-.144zM2.22 16.983c-.322-.084-.745.118-.99.313-.295.228-.633.71-.33 1.04.051.05.136.05.195 0 .203-.203.254-.508.448-.736.211-.237.44-.389.685-.583.017 0 .017-.026-.009-.034zM2.828 17.718c-.744.212-2.316 1.767-1.285 2.485.06.042.135-.017.135-.076.034-.465.102-.845.372-1.25.245-.373.558-.694.87-1.015.051-.06-.008-.169-.092-.144zM6.47 16.823c.397.228.812.422 1.209.642.448.254.853.566 1.31.811.076.043.135-.05.084-.11-.591-.743-1.614-1.377-2.577-1.436-.051.008-.06.076-.026.093zM6.707 15.902c.38.43 1.208.49 1.732.405.06-.008.051-.084.017-.118-.27-.194-.515-.254-.836-.304-.288-.051-.6-.119-.888-.06-.034 0-.042.051-.025.077zM6.8 14.989c.321.228.769.093 1.115.008.076-.017.068-.118 0-.143-.355-.127-.794-.11-1.115.084-.026.009-.017.034 0 .05zM4.062 17.727c-.229.66-.305 1.344-.482 2.011-.102.364-.254.727-.49 1.015-.195.245-.423.38-.533.676-.017.05.017.101.06.118.692.203 1.14-.668 1.335-1.192.312-.82.22-1.757.228-2.611 0-.068-.093-.076-.118-.017zM2.963 18.953c-.22.346-.524.608-.803.904-.186.203-.465.405-.423.71.009.05.068.084.11.084.296 0 .465-.338.617-.558.237-.338.389-.726.558-1.098a.037.037 0 0 0-.06-.043zM6.96 20.558c-.895-.076-1.749.203-2.476.719-.372.27-1.344 1.115-.896 1.63.034.035.093.035.136.018.202-.102.253-.313.354-.499.195-.397.575-.701.93-.946.575-.406 1.268-.787 1.97-.896 0-.009-.01-.026-.018-.026zM4.822 20.474c.093-.034.16-.102.262-.136.144-.042.288-.076.44-.093.16-.017.32 0 .481-.017.144-.016.338-.084.482-.067.068.008.093-.102.034-.127-.16-.076-.279-.169-.456-.228-.212-.076-.474-.034-.685-.009-.27.043-.828.186-.744.575.026.068.119.119.186.102zM9.276 21.023c-.591-.288-1.293-.262-1.918-.152-.051.008-.043.084 0 .093.608.177 1.293.279 1.918.093 0-.017.009-.034 0-.034zM9.563 21.522c-.659.371-1.259.955-1.8 1.487-.515.507-1.022 1.09-1.15 1.825-.008.034.043.085.077.043.499-.583.98-1.158 1.53-1.69.498-.482 1.098-.956 1.411-1.58.034-.06-.017-.11-.068-.085zM6.842 22.79a3.278 3.278 0 0 0-1.099.912c-.245.313-.625.744-.566 1.158.017.11.16.186.262.152.355-.135.49-.583.634-.904.203-.44.456-.921.837-1.234.05-.034-.017-.11-.068-.084zM21.945 19.713c.803-.05 1.479-.583 2.197-.913.482-.22 1.251-.44 1.538-.93.11-.185-.101-.346-.27-.27-1.2.55-2.417 1.293-3.482 2.062-.017.017-.017.06.017.051zM22.579 23.161c-.507.533-2.088 2.206-.938 2.874.067.034.169-.009.16-.093-.05-.524-.143-.913.042-1.429.178-.473.457-.93.761-1.335.017-.008-.008-.034-.025-.017zM23.381 22.79c-.304.32-.616.625-.777 1.047-.135.355-.33.947.009 1.234.033.026.092.042.126 0 .212-.27.152-.667.22-.989.093-.43.237-.879.49-1.242.034-.042-.034-.084-.068-.05zM19.604 23.998c.203.591.211 1.2.042 1.8-.152.55-.625.913-.87 1.411-.026.051.016.127.084.11.642-.203.98-.803 1.183-1.411.228-.693-.042-1.335-.405-1.919-.009-.017-.043-.008-.034.009zM18.598 25.51a3.351 3.351 0 0 1-.372 1.057c-.16.279-.389.642-.65.845-.043.034-.009.11.042.11.473-.034.71-.228.93-.65.202-.39.22-.913.168-1.336-.008-.068-.11-.093-.118-.025zM12.285 28.03c.034-.457.473-.6.87-.618.474-.017.803.144.837.643 0 .05.068.084.11.042.22-.237.287-.583.042-.837-.236-.236-.6-.313-.93-.296-.456.026-1.563.516-.988 1.1.016.016.059-.01.059-.035zM13.67 23.313c-.32.955-.641 2.215-.312 3.203.009.034.06.034.068 0 .203-1.005.405-2.163.355-3.186-.009-.067-.093-.076-.11-.017zM14.406 25.088c-.11.203-.194.423-.262.634-.076.236-.203.456-.16.71.008.059.084.059.118.034.186-.144.211-.364.27-.575.068-.254.102-.524.102-.778.008-.042-.051-.059-.068-.025zM18.133 24.192c-.735 1.014-1.901 1.606-2.484 2.73-.026.05.025.11.076.076.98-.701 2.24-1.487 2.527-2.763.016-.068-.077-.102-.119-.043zM16.925 26.669c-.305.135-.584.262-.778.54-.025.034.017.06.042.043.296-.135.533-.321.786-.524.043-.026-.008-.076-.05-.06zM8.617 25.748c.414.456 1.048.701 1.58.988.575.305 1.184.6 1.843.6.067 0 .084-.084.034-.118-.567-.406-1.217-.701-1.835-1.014-.498-.254-1.014-.575-1.588-.532-.043-.009-.068.042-.034.076zM10.67 25.527c.17.271.44.465.668.677.254.245.524.414.845.54.06.026.11-.05.076-.1a2.77 2.77 0 0 0-.684-.82c-.245-.195-.524-.406-.854-.39-.042.017-.067.06-.05.093zM10.079 22.9c-.676-.017-.93.735-.913 1.293.026.659.448 1.208 1.124 1.259.068.008.076-.085.034-.11-.372-.245-.617-.676-.727-1.107-.135-.533.152-.921.507-1.276.017-.017 0-.06-.025-.06z" fill="#7E7B88"/><path d="M10.35 23.592c-.178.076-.237.355-.212.524.017.093.06.211.127.279.076.076.16.068.253.076.043 0 .068-.042.043-.084-.026-.06-.017-.127-.051-.186-.034-.06-.042-.11-.06-.178-.024-.135.018-.27 0-.397-.008-.042-.067-.05-.1-.034zM11.888 22.79c.253.354.473.794.625 1.208.203.524.127.921-.178 1.37-.025.033.009.075.043.075.608.042.693-.65.634-1.107-.093-.634-.49-1.327-1.09-1.58-.026-.009-.051.008-.034.033z" fill="#7E7B88"/><path d="M11.668 23.871c.093.313.262.719.118 1.04-.025.059.026.118.085.084.498-.245.186-.904-.127-1.175-.034-.025-.085 0-.076.051zM13.375 22.282c-.228.085-.389.296-.313.55.017.042.076.05.102.017.101-.16.169-.33.279-.482.017-.042-.026-.101-.068-.085zM16.815 24.023c-.009-.186-.05-.338-.262-.363-.228-.025-.44.101-.583.262-.296.33-.262.947.21 1.09.347.11.702-.194.83-.49.185-.422-.11-.837-.567-.854-.05 0-.085.068-.042.102.169.143.43.321.38.575a.51.51 0 0 1-.414.363c-.228.017-.296-.287-.237-.465.068-.203.524-.591.634-.22.017.026.05.026.05 0zM14.922 23.136c-.043.11-.034.245-.068.355-.017.067-.042.127-.05.194-.018.076-.01.16-.026.237-.017.06.06.101.101.06.06-.069.152-.102.203-.178a.632.632 0 0 0 .11-.27c.034-.17 0-.398-.194-.44-.034-.009-.06.008-.076.042zM15.1 19.231c.54.178 1.072-.169 1.58-.321.845-.253 1.622-.524 2.366-.989.042-.025.017-.093-.034-.084-1.369.38-2.67.659-3.921 1.352-.017.008-.009.042.008.042zM17.44 19.248c-.067.473.28.888.558 1.243.034.042.101.008.101-.043a1.665 1.665 0 0 0-.186-.701 2.493 2.493 0 0 0-.22-.355c-.05-.076-.126-.101-.185-.16-.017-.018-.06-.018-.068.016zM19.612 22.941c.245.161.482.322.71.5.203.168.431.363.609.548.042.043.101 0 .093-.05-.076-.355-.237-.558-.524-.786-.245-.195-.541-.338-.862-.304-.051.008-.068.059-.026.092zM21.835 22.172l1.031.026c.025 0 .042-.042.017-.06-.338-.143-.701-.092-1.048-.016-.042 0-.034.042 0 .05zM21.776 21.462c.54-.033 1.09-.363 1.589-.557.042-.017.025-.068-.017-.06-.524.068-1.133.296-1.59.567-.016.017-.008.05.018.05zM20.728 19.215c.49-.229.904-.558 1.343-.863.39-.27.871-.456 1.184-.81.034-.043.008-.102-.043-.102-.49 0-.93.33-1.326.591-.465.313-.905.66-1.243 1.099-.042.05.034.101.085.085zM21.049 17.575a1.72 1.72 0 0 0 .955-.355c.05-.042.025-.11-.042-.102-.355.051-.693.085-.972.33-.042.042-.009.135.059.127zM17.5 16.485c1.081-.364 2.07-.66 3.22-.786.05-.009.067-.076.008-.093-.947-.288-2.696-.085-3.262.836-.009.026.008.051.033.043zM21.97 15.58c.135.034.27.068.406.068h.203c.076 0 .143-.034.22-.025.05 0 .05-.068.008-.085-.06-.025-.102-.059-.16-.076-.068-.025-.153-.017-.22-.017-.161 0-.305.026-.457.06a.039.039 0 0 0 0 .075zM17.846 15.411a6.489 6.489 0 0 1 1.563-.794c.482-.17.98-.28 1.437-.524.042-.026.026-.11-.025-.102-.964.102-2.67.28-3.06 1.361-.008.042.051.085.085.06zM21.277 13.543c1.057-.11 2.012-.21 3.068-.008.05.008.068-.05.034-.076-.888-.65-2.19-.431-3.119.025-.025.017-.017.06.017.06zM21.97 14.279c.16 0 .313.017.473.025.153 0 .33-.025.482 0 .042.009.05-.05.017-.076-.169-.11-.296-.186-.507-.194a.752.752 0 0 0-.499.16c-.025.026-.008.085.034.085zM4.957 15.284c.127.229.034.432-.169.567-.169.11-.439.194-.633.203-.06 0-.093.084-.034.118.296.144.634.05.887-.152.288-.228.313-.55.026-.786-.043-.034-.102 0-.077.05zM1.281 14.482a1.038 1.038 0 0 0-.845.16c-.06.034-.076.144 0 .178a.63.63 0 0 0 .414.033c.16-.034.313-.093.465-.16.084-.05.059-.186-.034-.211zM5.304 17.752c.431.076.904.195 1.344.127.067-.008.059-.093.017-.127a1.59 1.59 0 0 0-1.361-.228c-.101.034-.118.211 0 .228zM8.448 23.643c-.406.38-.77.794-1.031 1.285-.195.355-.414.879-.127 1.234.034.033.11.025.127-.017.169-.372.194-.786.372-1.167.203-.448.465-.87.735-1.293.017-.034-.042-.076-.076-.042z" fill="#7E7B88"/><path d="M7.78 25.19c-.211.456-.203 1.2.254 1.512.067.043.152-.017.152-.093 0-.22-.102-.405-.16-.617a3.02 3.02 0 0 1-.153-.777c.009-.05-.067-.076-.093-.026zM6.597 21.682c-.668.27-1.327.634-1.8 1.183-.228.262-.786 1.26-.203 1.446.034.008.068 0 .093-.026.118-.11.11-.245.11-.405 0-.313.203-.626.38-.88.355-.515.87-.98 1.437-1.267.042-.017.017-.068-.017-.05z" fill="#7E7B88"/><path d="M1.07 17.406c-.524-3.6-.144-7.091 1.969-10.142 2.054-2.975 5.18-5.029 8.747-5.62 3.347-.55 6.812.363 9.601 2.248 2.823 1.902 4.767 5.054 5.578 8.325.845 3.372.253 6.88-1.657 9.786-1.859 2.832-4.884 4.767-8.13 5.612-3.254.845-6.736.44-9.626-1.293-2.721-1.64-4.547-4.378-5.848-7.209-1.057-2.324-.66-5.02-.609-7.48.009-.261-.38-.304-.448-.059-1.589 5.587 1.37 11.714 5.95 14.968 5.308 3.77 12.812 2.434 17.385-1.86 2.35-2.197 3.786-5.248 4.023-8.442.236-3.22-.829-6.483-2.62-9.136C21.75 1.728 14.667-.587 8.624 1.905 5.642 3.14 3.157 5.54 1.636 8.37.123 11.211.115 14.414.833 17.473c.042.152.262.085.237-.067z" fill="#7E7B88"/><path d="M12.64.833c-.22-.093-.507.076-.693.186-.254.16-.482.38-.609.65-.025.06.034.135.102.102.211-.144.388-.313.591-.465.195-.152.44-.211.634-.355.042-.042.034-.102-.025-.118zM13.088 1.002c-.026.076-.076.135-.11.21-.034.069-.06.145-.093.204-.034.067.05.127.101.076.076-.068.135-.11.17-.211.033-.093.016-.178.008-.27 0-.043-.06-.052-.076-.01zM6.817 2.895c.101-.136.346-.093.481-.06.17.051.246.17.39.271.033.025.084.008.118-.017.312-.253-.262-.54-.448-.583-.262-.06-.71-.025-.693.338-.017.101.101.127.152.05zM5.557 3.546c-.228.042-.405.355-.481.54-.085.229.042.575.33.508.042-.009.059-.06.05-.093-.017-.076-.068-.144-.093-.22-.025-.076.017-.178.05-.245.068-.135.204-.288.204-.44.017-.034-.026-.059-.06-.05zM26.94 15.132c.101.16.245.262.38.39.16.151.16.337.228.54.017.05.093.093.135.034.398-.499-.27-.938-.71-1.006-.025-.008-.05.017-.033.042z" fill="#7E7B88"/><path d="M27.827 15.58c-.05.178-.034.364-.017.55.017.211-.068.473-.16.668-.043.076.042.177.118.118.27-.17.397-.33.414-.66a.956.956 0 0 0-.27-.692c-.017-.034-.068-.026-.085.017zM.52 12.115c-.845.499-.473 1.97-.186 2.68.034.092.178.135.237.033.203-.38.11-.71.017-1.115-.127-.524-.101-1.048-.042-1.581.008-.017-.017-.025-.026-.017zM16.705 28.139c1.183-.068 3.203.042 3.88-1.166.058-.102-.06-.203-.153-.152-.744.363-1.403.676-2.223.828-.43.084-1.208.093-1.521.448-.017.017-.008.042.017.042zM25.165 23c.777-.244.98-1.2 1.259-1.867.034-.068-.084-.11-.118-.05-.372.608-.609 1.394-1.175 1.858-.025.026 0 .076.034.06z" fill="#7E7B88"/></svg>