<svg width="40" height="39" fill="none" xmlns="http://www.w3.org/2000/svg"><path d="M11.534 38H.326v-2.224l5.29-5.637c.725-.794 1.26-1.486 1.605-2.078.352-.591.528-1.153.528-1.684 0-.727-.183-1.296-.55-1.708-.367-.419-.891-.628-1.573-.628-.733 0-1.314.254-1.74.763-.42.502-.63 1.164-.63 1.988H0c0-.996.236-1.905.708-2.729a5.027 5.027 0 012.021-1.932c.868-.471 1.853-.707 2.954-.707 1.684 0 2.99.404 3.92 1.213.935.808 1.403 1.95 1.403 3.425 0 .809-.21 1.632-.629 2.47-.42.84-1.138 1.816-2.156 2.932l-3.718 3.92h7.03V38zM21.985 31.846h1.853v2.616h-1.853V38h-3.246v-3.538h-6.704l-.146-2.044 6.817-10.77h3.279v10.198zm-6.862 0h3.616v-5.773l-.213.37-3.403 5.403z" fill="#000"/><path fill-rule="evenodd" clip-rule="evenodd" d="M.214 0h39v38.5h-12v-8h4V8h-23v9.5h-8V0z" fill="#9FC119"/></svg>