<svg width="61" height="61" fill="none" xmlns="http://www.w3.org/2000/svg"><path fill-rule="evenodd" clip-rule="evenodd" d="M50.058.972l1.773 7.683 8.176 1.752-9.794 9.795A26.88 26.88 0 0154 34c0 14.912-12.088 27-27 27S0 48.912 0 34 12.088 7 27 7a26.88 26.88 0 0113.705 3.732l9.353-9.76zM39.28 12.22A24.881 24.881 0 0027 9C13.193 9 2 20.193 2 34s11.193 25 25 25 25-11.193 25-25c0-4.488-1.181-8.697-3.25-12.336l-1.896 1.897-1.777-.254A20.907 20.907 0 0148 34c0 11.598-9.402 21-21 21S6 45.598 6 34s9.402-21 21-21c3.664 0 7.11.94 10.11 2.59l-.206-.892 2.376-2.48zm-1.539 6.106A18.907 18.907 0 0027 15C16.507 15 8 23.507 8 34s8.507 19 19 19 19-8.507 19-19a18.91 18.91 0 00-3.556-11.07l-2.59-.37-2.273 2.273A13.946 13.946 0 0141 34c0 7.732-6.268 14-14 14s-14-6.268-14-14 6.268-14 14-14c3.506 0 6.711 1.289 9.167 3.419l2.234-2.234-.66-2.86zm2.58 2.282l5.825.832 9.847-9.846-5.824-1.248-1.227-5.317-9.846 10.274 1.224 5.305zm-5.572 4.23A11.952 11.952 0 0027 22c-6.627 0-12 5.373-12 12s5.373 12 12 12 12-5.373 12-12c0-2.954-1.067-5.658-2.837-7.749l-3.557 3.557a7 7 0 11-1.414-1.414l3.557-3.557zm-4.992 4.991a5 5 0 101.414 1.414l-3.464 3.465-1.414-1.414 3.464-3.465z" fill="#52458A"/></svg>