<svg width="65" height="62" fill="none" xmlns="http://www.w3.org/2000/svg"><path fill-rule="evenodd" clip-rule="evenodd" d="M32.302 0a1 1 0 01.871.509l10.222 18.136 20.407 4.117a1 1 0 01.539 1.657L50.25 39.745l2.39 20.68a1 1 0 01-1.409 1.025l-18.93-8.664-18.93 8.664a1 1 0 01-1.409-1.024l2.39-20.68L.263 24.418a1 1 0 01.54-1.657l20.406-4.117L31.431.509A1 1 0 0132.302 0zm0 3.037l-9.575 16.988a1 1 0 01-.674.49L2.937 24.372l13.198 14.357a1 1 0 01.257.791l-2.239 19.373 17.733-8.116a1 1 0 01.832 0l17.733 8.116-2.239-19.373a1 1 0 01.257-.791l13.199-14.357-19.117-3.857a1 1 0 01-.673-.49L32.302 3.037zm-3.198 19.292c-.747.746-1.215 1.853-1.215 3.285 0 1.432.468 2.54 1.215 3.286.746.746 1.853 1.214 3.285 1.214 1.432 0 2.54-.468 3.286-1.214.746-.747 1.214-1.854 1.214-3.286s-.468-2.54-1.214-3.285c-.747-.747-1.854-1.215-3.286-1.215s-2.539.468-3.285 1.215zm7.362 8.524a5.77 5.77 0 00.623-.54c1.175-1.174 1.8-2.817 1.8-4.699 0-1.881-.625-3.524-1.8-4.7-1.175-1.175-2.818-1.8-4.7-1.8-1.881 0-3.524.625-4.7 1.8-1.175 1.176-1.8 2.819-1.8 4.7 0 1.882.625 3.525 1.8 4.7.195.195.404.375.623.54-2.788 1.068-4.803 3.173-5.393 5.516a2.38 2.38 0 00-.052.44c-.007.136-.01.3-.012.477-.004.355-.002.791.003 1.211a134.427 134.427 0 00.028 1.503l.003.138.026.975h18.949l.025-.974-1-.026 1 .026.003-.14a132.24 132.24 0 00.028-1.502c.005-.42.008-.856.004-1.211a13.846 13.846 0 00-.013-.477 2.382 2.382 0 00-.052-.44c-.59-2.343-2.604-4.448-5.393-5.516zm3.444 8.261l.01-.64c.005-.415.007-.833.004-1.165a11.861 11.861 0 00-.016-.494c-.604-2.29-3.442-4.7-7.519-4.7s-6.915 2.41-7.519 4.7a11.819 11.819 0 00-.016.495c-.003.331 0 .75.004 1.164l.01.64H39.91zm1.48 5v2h-18v-2h18z" fill="#52458A"/></svg>