<svg width="57" height="55" fill="none" xmlns="http://www.w3.org/2000/svg"><path d="M1 3.5v-1H0v1h1zm55 0h1v-1h-1v1zm0 50v1h1v-1h-1zm-55 0H0v1h1v-1zM33.584 20l.871-.491a1 1 0 00-1.742 0l.871.491zm2.698 4.787l-.871.49a1 1 0 00.673.49l.198-.98zm5.386 1.086l.736.677a1 1 0 00-.538-1.657l-.198.98zm-3.719 4.045l-.736-.676a1 1 0 00-.257.791l.993-.115zm.631 5.459l-.416.909a1 1 0 001.41-1.024l-.994.115zm-4.996-2.287l.416-.91a1 1 0 00-.832 0l.416.91zm-4.996 2.287l-.994-.115a1 1 0 001.41 1.024l-.416-.91zm.63-5.459l.994.115a1 1 0 00-.257-.791l-.736.676zM25.5 25.873l-.198-.98a1 1 0 00-.538 1.657l.736-.677zm5.386-1.086l.198.98a1 1 0 00.673-.49l-.871-.49zM16 20.5v-1h-1v1h1zm5 0h1v-1h-1v1zm0 5v1h1v-1h-1zm-5 0h-1v1h1v-1zm-10-5v-1H5v1h1zm5 0h1v-1h-1v1zm0 5v1h1v-1h-1zm-5 0H5v1h1v-1zm0 5v-1H5v1h1zm5 0h1v-1h-1v1zm0 5v1h1v-1h-1zm-5 0H5v1h1v-1zm0 5v-1H5v1h1zm5 0h1v-1h-1v1zm0 5v1h1v-1h-1zm-5 0H5v1h1v-1zm10-5v-1h-1v1h1zm5 0h1v-1h-1v1zm0 5v1h1v-1h-1zm-5 0h-1v1h1v-1zm10-5v-1h-1v1h1zm5 0h1v-1h-1v1zm0 5v1h1v-1h-1zm-5 0h-1v1h1v-1zm10-5v-1h-1v1h1zm5 0h1v-1h-1v1zm0 5v1h1v-1h-1zm-5 0h-1v1h1v-1zm10-5v-1h-1v1h1zm5 0h1v-1h-1v1zm0 5v1h1v-1h-1zm-5 0h-1v1h1v-1zm0-15v-1h-1v1h1zm5 0h1v-1h-1v1zm0 5v1h1v-1h-1zm-5 0h-1v1h1v-1zm0-15v-1h-1v1h1zm5 0h1v-1h-1v1zm0 5v1h1v-1h-1zm-5 0h-1v1h1v-1zm-30 5v-1h-1v1h1zm5 0h1v-1h-1v1zm0 5v1h1v-1h-1zm-5 0h-1v1h1v-1zM1 4.5h55v-2H1v2zm55 48H1v2h55v-2zm-54 1v-41H0v41h2zm0-41v-9H0v9h2zm53-9v9h2v-9h-2zm0 9v41h2v-41h-2zm-54 1h55v-2H1v2zM11 0v8h2V0h-2zm17 0v8h2V0h-2zm16 0v8h2V0h-2zM32.713 20.491l2.698 4.787 1.742-.982-2.698-4.787-1.742.982zm3.371 5.276l5.386 1.087.396-1.96-5.386-1.088-.396 1.96zm4.848-.57l-3.719 4.045 1.472 1.353 3.72-4.045-1.473-1.353zm-3.976 4.836l.63 5.459 1.988-.23-.631-5.458-1.987.23zm2.04 4.434L34 32.181l-.832 1.818 4.996 2.287.832-1.819zm-5.828-2.286l-4.996 2.286.832 1.819L34 33.999l-.832-1.818zm-3.587 3.31l.631-5.458-1.987-.23-.63 5.459 1.986.23zm.374-6.25l-3.719-4.044-1.472 1.353 3.718 4.045 1.473-1.353zm-4.257-2.387l5.386-1.087-.396-1.96-5.386 1.086.396 1.96zm6.06-1.576l2.697-4.787-1.742-.982-2.698 4.787 1.742.982zM16 21.5h5v-2h-5v2zm4-1v5h2v-5h-2zm1 4h-5v2h5v-2zm-4 1v-5h-2v5h2zm-11-4h5v-2H6v2zm4-1v5h2v-5h-2zm1 4H6v2h5v-2zm-4 1v-5H5v5h2zm-1 6h5v-2H6v2zm4-1v5h2v-5h-2zm1 4H6v2h5v-2zm-4 1v-5H5v5h2zm-1 6h5v-2H6v2zm4-1v5h2v-5h-2zm1 4H6v2h5v-2zm-4 1v-5H5v5h2zm9-4h5v-2h-5v2zm4-1v5h2v-5h-2zm1 4h-5v2h5v-2zm-4 1v-5h-2v5h2zm9-4h5v-2h-5v2zm4-1v5h2v-5h-2zm1 4h-5v2h5v-2zm-4 1v-5h-2v5h2zm9-4h5v-2h-5v2zm4-1v5h2v-5h-2zm1 4h-5v2h5v-2zm-4 1v-5h-2v5h2zm9-4h5v-2h-5v2zm4-1v5h2v-5h-2zm1 4h-5v2h5v-2zm-4 1v-5h-2v5h2zm-1-14h5v-2h-5v2zm4-1v5h2v-5h-2zm1 4h-5v2h5v-2zm-4 1v-5h-2v5h2zm-1-14h5v-2h-5v2zm4-1v5h2v-5h-2zm1 4h-5v2h5v-2zm-4 1v-5h-2v5h2zm-31 6h5v-2h-5v2zm4-1v5h2v-5h-2zm1 4h-5v2h5v-2zm-4 1v-5h-2v5h2z" fill="#52458A"/></svg>