<svg width="898" height="608" fill="none" xmlns="http://www.w3.org/2000/svg"><g opacity=".1"><mask id="a" maskUnits="userSpaceOnUse" x="4" y="-151" width="890" height="757"><path d="M4.488-150.931h889.408V605.17H4.488v-756.101z" fill="url(#paint0_linear)"/></mask><g mask="url(#a)"><g filter="url(#filter0_d)"><path fill-rule="evenodd" clip-rule="evenodd" d="M128.278 258.232C80.327 325.624 64.094 389.617 90.04 434.557c25.946 44.94 89.482 62.877 171.82 55.047 82.242-7.822 182.83-41.335 282.234-98.726 99.405-57.392 178.722-127.746 226.616-195.059 47.952-67.392 64.185-131.385 38.239-176.325-25.946-44.94-89.482-62.877-171.821-55.047-82.242 7.822-182.829 41.335-282.234 98.726-99.404 57.392-178.721 127.746-226.616 195.059zM354.394 62.307C155.395 177.2 36.651 344.085 89.174 435.057c52.522 90.971 256.421 71.579 455.42-43.313 199-114.893 317.743-281.778 265.221-372.75-52.522-90.971-256.421-71.58-455.421 43.313z" fill="#2F2949"/></g><g filter="url(#filter1_d)"><path fill-rule="evenodd" clip-rule="evenodd" d="M125.147 306.21c-6.817 23.196-5.984 43.761 3.529 60.239 9.514 16.477 26.907 27.48 50.404 33.175 23.5 5.696 53.017 6.056 86.59 1.311 67.139-9.49 150.291-39.365 233.51-87.411 83.218-48.047 150.667-105.121 192.455-158.521 20.896-26.702 35.342-52.444 42.16-75.643 6.816-23.197 5.984-43.762-3.529-60.24-9.514-16.477-26.907-27.48-50.404-33.175-23.501-5.696-53.017-6.056-86.59-1.31-67.139 9.489-150.291 39.364-233.51 87.41-83.218 48.047-150.667 105.121-192.455 158.521-20.896 26.702-35.342 52.444-42.16 75.644zM359.262 71.18C192.66 167.368 89.035 299.788 127.81 366.949c38.775 67.16 205.267 43.629 371.87-52.559C666.282 218.201 769.907 85.781 731.132 18.62c-38.775-67.16-205.267-43.629-371.87 52.56z" fill="#2F2949"/></g><g filter="url(#filter2_d)"><path fill-rule="evenodd" clip-rule="evenodd" d="M106.527 327.408c-6.68 26.502-4.986 50.31 6.238 69.751 11.224 19.44 30.995 32.811 57.287 40.277 26.298 7.468 59.057 9.005 96.111 4.813 74.102-8.384 165.183-39.665 255.643-91.892 90.46-52.227 163.09-115.465 207.402-175.448 22.158-29.992 37.206-59.132 43.888-85.64 6.68-26.503 4.986-50.31-6.238-69.75C755.634.077 735.863-13.294 709.571-20.76c-26.298-7.468-59.058-9.006-96.111-4.813-74.102 8.384-165.183 39.664-255.643 91.892-90.46 52.227-163.09 115.465-207.403 175.447-22.157 29.993-37.205 59.132-43.887 85.641zm250.79-261.954C176.216 170.012 66.339 318.745 111.899 397.659c45.561 78.913 229.306 58.123 410.407-46.436C703.407 246.664 813.284 97.931 767.724 19.018c-45.561-78.913-229.306-58.123-410.407 46.436z" fill="#2F2949"/></g></g></g><defs><filter id="filter0_d" x="-9.926" y="-145.724" width="918.841" height="753.499" filterUnits="userSpaceOnUse" color-interpolation-filters="sRGB"><feFlood flood-opacity="0" result="BackgroundImageFix"/><feColorMatrix in="SourceAlpha" values="0 0 0 0 0 0 0 0 0 0 0 0 0 0 0 0 0 0 127 0"/><feOffset dy="4"/><feGaussianBlur stdDeviation="2"/><feColorMatrix values="0 0 0 0 0 0 0 0 0 0 0 0 0 0 0 0 0 0 0.25 0"/><feBlend in2="BackgroundImageFix" result="effect1_dropShadow"/><feBlend in="SourceGraphic" in2="effect1_dropShadow" result="shape"/></filter><filter id="filter1_d" x="53.601" y="-102.984" width="751.739" height="599.538" filterUnits="userSpaceOnUse" color-interpolation-filters="sRGB"><feFlood flood-opacity="0" result="BackgroundImageFix"/><feColorMatrix in="SourceAlpha" values="0 0 0 0 0 0 0 0 0 0 0 0 0 0 0 0 0 0 127 0"/><feOffset dy="4"/><feGaussianBlur stdDeviation="2"/><feColorMatrix values="0 0 0 0 0 0 0 0 0 0 0 0 0 0 0 0 0 0 0.25 0"/><feBlend in2="BackgroundImageFix" result="effect1_dropShadow"/><feBlend in="SourceGraphic" in2="effect1_dropShadow" result="shape"/></filter><filter id="filter2_d" x="25.405" y="-123.867" width="828.813" height="672.41" filterUnits="userSpaceOnUse" color-interpolation-filters="sRGB"><feFlood flood-opacity="0" result="BackgroundImageFix"/><feColorMatrix in="SourceAlpha" values="0 0 0 0 0 0 0 0 0 0 0 0 0 0 0 0 0 0 127 0"/><feOffset dy="4"/><feGaussianBlur stdDeviation="2"/><feColorMatrix values="0 0 0 0 0 0 0 0 0 0 0 0 0 0 0 0 0 0 0.25 0"/><feBlend in2="BackgroundImageFix" result="effect1_dropShadow"/><feBlend in="SourceGraphic" in2="effect1_dropShadow" result="shape"/></filter><linearGradient id="paint0_linear" x1="609.057" y1="371.883" x2="-21.548" y2="-344.643" gradientUnits="userSpaceOnUse"><stop stop-color="#fff"/><stop offset="1" stop-color="#fff" stop-opacity="0"/></linearGradient></defs></svg>