<svg width="120" height="108" fill="none" xmlns="http://www.w3.org/2000/svg"><rect x="20" y="8" width="100" height="100" rx="15" fill="#EDC7FF"/><path d="M50.642 42.013v7.782M93.891 57v7.782M78.891 78v7.782M7.891 22v7.782M19.891 7v7.782M54.534 45.904H46.75M97.782 60.891H90M82.782 81.891H75M11.782 25.891H4M23.782 10.891H16" stroke="#5F458A" stroke-width="2"/><circle cx="50.253" cy="47.072" r="34.41" stroke="#5F458A" stroke-width="2"/><path d="M23.828 47.46a21.656 21.656 0 0 1-.424-4.275c0-8.361 4.756-15.596 11.674-19.071" stroke="#5F458A" stroke-width="2"/><path d="M72.597 20.574c10.227-1.53 18.835-.594 21.007 3.875 4.085 8.402-12.306 24.79-36.61 36.605-24.303 11.814-47.316 14.58-51.4 6.177-2.183-4.49 2.229-11.867 9.824-19.002" stroke="#5F458A" stroke-width="2"/><path d="M58.425 25.08l2.703 3.866.102.145.145.102 3.865 2.703-3.865 2.704-.145.101-.102.145-2.703 3.866-2.704-3.866-.101-.145-.145-.101-3.866-2.704 3.866-2.703.145-.102.101-.145 2.704-3.866zM19.124 78.063l2.21 3.326.097.147.143.105 3.256 2.397-3.256 2.397-.143.105-.097.147-2.21 3.326-2.21-3.326-.098-.147-.142-.105-3.256-2.397 3.256-2.397.143-.105.097-.147 2.21-3.326zM87.609 2.574l2.21 3.326.097.147.142.105 3.257 2.397-3.257 2.397-.142.105-.098.147-2.21 3.326-2.209-3.326-.098-.147-.142-.105-3.257-2.397 3.257-2.397.142-.105.098-.147 2.21-3.326z" stroke="#5F458A" stroke-width="2"/></svg>