<svg width="121" height="107" fill="none" xmlns="http://www.w3.org/2000/svg"><rect x="21" y="7" width="100" height="100" rx="15" fill="#EDC7FF"/><path d="M49.5 15H47V6.5C47 2.1 50.667 1 52.5 1H60c3.6 0 4.5 2.333 4.5 3.5C67.3 4.5 68 6.833 68 8v8a5.255 5.255 0 0 1-1.5-.204M49.5 15H59c1.5 0 4.5-.7 4.5-3.5 0 1.265.64 3.597 3 4.296M49.5 15v6.5c0 2.333 1.7 7 8.5 7s8.5-4.667 8.5-7v-5.704M13 49h-2.5v-8.5c0-4.4 3.667-5.5 5.5-5.5h7.5c3.6 0 4.5 2.333 4.5 3.5 2.8 0 3.5 2.333 3.5 3.5v8a5.255 5.255 0 0 1-1.5-.204M13 49h9.5c1.5 0 4.5-.7 4.5-3.5 0 1.265.64 3.597 3 4.296M13 49v6.5c0 2.333 1.7 7 8.5 7s8.5-4.667 8.5-7v-5.704M61 51h27m-27 0h-2.5v4.5M61 51V34.5M88 51v-8m0 8h2v4.5H58.5m29.5-17V30H61v4.5m-2.5 21H45m16-21c-.4.4-2.167.5-3 .5-4.4 0-6.833-3.333-7.5-5l-8.513 3.274a7 7 0 0 0-4.487 6.533V46.5m7.5 9h-7.5v-9m7.5 9v-9m0-5.5v5.5m0 0h-7.5M13.5 30V13.5H42M24.5 85h27m-27 0H22v4.5m2.5-4.5V68.5m27 16.5v-8m0 8h2v4.5H22m29.5-17V64h-27v4.5m-2.5 21H8.5m16-21c-.4.4-2.167.5-3 .5-4.4 0-6.833-3.333-7.5-5l-8.513 3.274A7 7 0 0 0 1 73.807V80.5m7.5 9H1v-9m7.5 9v-9m0-5.5v5.5m0 0H1m76.5-20V77h-21M72.5 84h12V73" stroke="#5F458A" stroke-width="2"/><path d="M30 21h-9v9" stroke="#5F458A" stroke-width="2"/></svg>