<svg width="266" height="120" fill="none" xmlns="http://www.w3.org/2000/svg"><path d="M142.694 117.883c-.893-.712-2.131-1.335-2.985-.619-.037.032.012.091.052.068.924-.503 1.964.121 2.891.651.053.029.102-.054.042-.1zM143.513 117.906c-.233-1.157-1.399-1.992-2.338-2.482-.041-.022-.08.036-.04.076.863.749 1.852 1.285 2.35 2.415.003.008.027.009.028-.009zM144.052 117.323c.392-.687-.051-2.332-.973-2.435-.057-.007-.053.098.003.105.789.191 1.161 1.658.915 2.287-.008.038.038.075.055.043zM144.4 118.635c2.168-1.132 4.281 1.607 3.332 3.782-.023.044.046.093.078.055 1.553-2.052-1.469-5.722-3.45-3.896-.04.022 0 .081.04.059z" fill="#7E7B88"/><path d="M143.611 119.308c.778.196 2.366-.217 2.578 1.046.009.063.087.055.082.001-.055-1.485-1.842-1.033-2.662-1.093-.029-.009-.023.045.002.046zM142.617 119.098c-1.249-.39-2.215.506-2.175 1.847-.002.058.088.114.1.042.29-1.165.831-1.935 2.08-1.794.051.002.042-.082-.005-.095zM142.774 119.667c-.875.555-1.051 1.725-.306 2.713.037.051.118.015.085-.046-.557-1.033-.372-1.89.247-2.64.018-.015-.005-.034-.026-.027zM145.193 117.028c.392.053.642-.084.949-.29.248-.165.48-.346.759-.452.353-.133.742.04 1.103.163.098.035.127-.104.063-.181-.439-.493-.956-.562-1.447-.352-.506.216-.861.876-1.426.943-.078.017-.081.157-.001.169zM106.47 116.942c.191-.573.682-.732 1.212-.748.487-.022.97.515 1.44.685.633.241 1.184-.251 1.213-.895.003-.118-.127-.191-.195-.109-.261.334-.402.675-.985.602-.284-.039-.634-.348-.901-.49-.259-.145-.558-.159-.823-.107-.499.094-1.161.35-1.062 1.039.013.054.085.068.101.023zM107.338 115.165c.506-.21 1.206.451 1.758.54.429.074.795-.194.686-.692-.017-.062-.095-.111-.129-.052-.163.256-.28.44-.62.402-.271-.032-.543-.169-.793-.294-.333-.164-.805-.386-.923.065-.018.016-.001.039.021.031zM108.136 113.146c-.097.266-.228.609-.047.913.184.311.462.508.79.547.595.07 1.067-.425 1.148-.994.008-.059-.073-.097-.106-.058-.197.262-.488.557-.785.694a.684.684 0 01-.611-.046c-.412-.226-.342-.698-.364-1.055-.003-.008-.021-.012-.025-.001z" fill="#7E7B88"/><path d="M108.521 112.592c-.236.655.554.961 1.01.749.349-.167.52-.714.722-1.042.269-.427.74-.539 1.205-.171.281.221.335.643.456.966.034.084.136.088.159.023.291-.684-.461-1.558-1.135-1.597-.395-.029-.645.114-.889.398-.142.164-.239.379-.346.569a2.895 2.895 0 01-.198.355c-.141.23-.905.586-.945-.235-.002-.027-.031-.037-.039-.015z" fill="#7E7B88"/><path d="M110.746 113.038c.382-.111.775.936 1.019 1.191.261.277.645.372.964.349.704-.069 1.211-.802.925-1.566-.037-.091-.169-.112-.2-.027-.19.645-.805 1.639-1.554.768-.333-.393-.696-1.347-1.253-.897-.074.062.001.205.099.182zM109.534 111.356c.422-.057.737-.468 1.14-.617.557-.202 1.073.06 1.607.346.086.048.187-.036.135-.145-.219-.53-.887-.603-1.315-.602-.72.004-1.16.458-1.623.94-.015.025.016.082.056.078zM111.395 109.726c.751-.122 1.361.952 2.006 1.261.582.274 1.195-.168 1.194-.78.002-.076-.086-.13-.127-.069-.333.441-.678.831-1.294.371-.236-.175-.42-.423-.656-.579-.35-.23-.804-.434-1.14-.246-.015.005.002.047.017.042z" fill="#7E7B88"/><path d="M112.502 109.051c.154.636 1.101 1.072 1.375.459.019-.053-.04-.117-.09-.1-.462.192-.869.096-1.231-.387-.017-.022-.063-.016-.054.028zM112.49 107.917c.359.365.985 1.444 1.474.859.039-.04 0-.137-.06-.144-.129-.021-.26-.005-.385-.036-.161-.037-.307-.217-.416-.345-.163-.183-.344-.387-.578-.428-.053-.009-.076.053-.035.094zM105.115 121.04c.51-.135.869-.276 1.445-.024.321.139.581.432.876.627.462.3.914.328 1.145-.17.03-.068-.062-.132-.117-.103-.338.191-.55.263-.938.023-.267-.167-.503-.382-.77-.548-.654-.407-1.134-.215-1.692.07-.069.033-.029.153.051.125zM106.673 120.186c.32-.061.826.409 1.178.512.323.094.703.1 1.008.024.563-.145 1.025-.587.77-1.309-.027-.088-.126-.064-.142 0-.16.904-.784 1.129-1.617.976-.389-.071-.896-.521-1.239-.266-.026.019.009.065.042.063z" fill="#7E7B88"/><path d="M105.268 120.168c.377-.838 1.056-1.004 1.892-.611.361.168.814.401 1.175.277.494-.169.826-.846.444-1.444-.363-.574-1.065-.547-1.263.026-.143.418.361.964.488.444.016-.044-.019-.11-.077-.109-.257.049-.184-.102.212-.432.204.007.34.116.411.315a.672.672 0 01-.17.767c-.389.347-1.166-.192-1.611-.36-.795-.291-1.546.239-1.642 1.068.002.087.107.119.141.059z" fill="#7E7B88"/><path d="M105.798 118.578c.257-.214.578-.227.898-.075.155.073.241-.169.087-.242-.403-.191-.891-.199-1.056.244-.016.044.037.094.071.073zM105.98 117.498c.431-.051.787-.27 1.219-.321.438-.053 1.049.425 1.477.617.501.226 1.059.219 1.277-.302.027-.057-.047-.138-.099-.121-.439.199-.747.266-1.255.043-.295-.131-.578-.315-.869-.458-.659-.326-1.254.13-1.786.37-.07.053-.052.183.036.172zM143.581 120.546c.679-.051 1.33.351 1.496 1.146.1.499-.117 1.041-.232 1.488-.107.391-.05.744.32.966.049.027.105-.027.076-.079-.449-.922.337-1.825-.046-2.831-.26-.684-1.119-1.061-1.626-.739-.024.017-.012.048.012.049zM146.988 117.833c.383.222.75.405 1.086.724.195.186.354.42.467.661.088.195.103.388.218.574.023.037.082.044.1.011.249-.362-.147-.984-.432-1.293-.374-.395-.934-.837-1.441-.739-.028.009-.019.051.002.062z" fill="#7E7B88"/><path d="M148.076 117.404c.695.41 1.33.999 1.695 1.775.365.777.047 1.537.121 2.297.008.059.072.064.093.021.685-1.359-.154-3.952-1.908-4.128-.013.004-.014.022-.001.035zM151.041 120.024c-.172.739-.401 1.101-.035 1.916.303.681.956 1.299 1.622 1.527 1.112.381 2.452-.583 2.277-1.831-.154-1.117-1.692-1.898-2.252-.947-.488.826.859 1.902 1.089.923.012-.05-.029-.11-.079-.093-.392.141-.796.212-.794-.424.007-.683.793-.56 1.189-.27.901.664.49 1.658-.143 2.091-.741.506-1.599.149-2.248-.581a2.642 2.642 0 01-.612-1.276c-.064-.356.12-.666.05-1.038-.01-.005-.06-.026-.064.003zM154.569 119.714c.537.344.889 1.214 1.027 1.808.169.708-.04 1.098-.331 1.632-.022.043.007.113.061.113.684-.007.718-1.024.616-1.604-.154-.864-.608-1.583-1.362-1.961-.02-.011-.024-.001-.011.012z" fill="#7E7B88"/><path d="M151.976 120.726c.169-.616.414-1.065.938-1.341.214-.111.449-.191.704-.221.175-.021.33.032.475-.065.033-.021.045-.074.028-.116-.265-.535-1.116-.139-1.404.037-.558.335-.948.901-.861 1.679.002.067.103.09.12.027z" fill="#7E7B88"/><path d="M151.626 119.153c.677-.709 1.226-1.695 2.421-1.147.731.336 1.004 1.148 1.614 1.573.059.046.122-.022.113-.085-.109-.877-1.285-1.741-2.007-1.996-1.1-.392-1.973.647-2.186 1.623-.012.032.023.058.045.032zM150.938 118.912c.175-.466.267-.914.58-1.285.164-.207.395-.352.622-.466.186-.092.371-.107.484-.297.019-.035.013-.09-.029-.113-.447-.265-.999.253-1.266.533-.36.378-.623.997-.538 1.593.001.085.123.119.147.035zM153.311 116.808c.266.22.574.363.87.537.203.123.384.272.536.466.098.122.134.211.269.265.031.017.059.008.07-.023.125-.324-.31-.661-.542-.838a2.671 2.671 0 00-1.165-.511c-.053-.01-.09.057-.038.104z" fill="#7E7B88"/><path d="M150.226 117.743c.583-.584.522-1.546 1.358-1.918 1.071-.472 2.174.423 3.159 1.002.043.024.091-.021.071-.072-.498-1.092-1.935-1.468-2.874-1.456-1.15.026-1.697 1.282-1.764 2.403-.005.031.031.057.05.041zM151.44 111.034c-.172.23-.166.501-.19.799-.055.735-.779 1.431-1.317 1.756-.129.079-.041.295.095.331.596.172.636.885 1.222.915.281.015.574-.155.873-.155.509.002 1.125.086 1.517.571.146.179.397.004.248-.182-.483-.61-1.157-.72-1.824-.751-.453-.021-.933.285-1.271-.246-.194-.298-.433-.427-.736-.516.029.109.06.225.095.331a2.783 2.783 0 001.032-1.089c.322-.615.199-1.073.343-1.729.015-.041-.061-.07-.087-.035z" fill="#7E7B88"/><path d="M151.57 113.624c.258-.146 1.135-.348 1.357.017.122.199.42.049.309-.163-.341-.66-1.54-.492-1.744.076-.012.053.038.093.078.07zM146.015 115.002c1.165-.372 3.79.203 3.262 2.091-.043.153.137.276.239.169.564-.631-.06-1.618-.672-2.103-.901-.711-2.025-.637-2.863-.2-.021.007.006.053.034.043zM148.039 113.498c.487.241.932.479 1.324.896.234.245.451.505.643.782.162.243.195.52.344.767.046.074.133.054.165-.002.257-.5-.414-1.174-.766-1.515-.514-.502-1.055-.779-1.692-.961-.027-.009-.038.022-.018.033zM113.903 114.464c.853.007.665-.686 1.009-1.321.222-.421.576-.743.985-.949.342-.164.732.038 1.042-.163.041-.024.053-.095.033-.146-.374-.803-1.438-.219-1.835.079a2.474 2.474 0 00-.764.998c-.202.491-.208.953-.521 1.376a.073.073 0 00.051.126z" fill="#7E7B88"/><path d="M115.7 112.966c.085.027.161.03.237-.005.197-.105.403-.146.634-.148.41-.007.788.232 1.107.53.063.054.143.008.135-.074-.081-.585-.577-.832-1.065-.894-.487-.061-.918.038-1.083.527-.004.03.009.063.035.064zM115.059 114.028c.3.022.5-.266.791-.308.408-.062.818.19 1.205.365.071.033.138-.028.108-.104-.195-.441-.62-.65-1.033-.681-.524-.042-.884.138-1.161.567-.038.07.021.155.09.161zM117.704 111.942c.479.199.908.644 1.36.918a2.45 2.45 0 001.403.371c.728-.028 1.228-.845.895-1.626-.027-.067-.114-.075-.141-.019-.104.255-.104.521-.177.793-.221.788-1.338.406-1.851.143-.468-.232-.966-.785-1.464-.702-.058.02-.085.095-.025.122z" fill="#7E7B88"/><path d="M118.518 111.402c.212.905 1.713 1.253 2.116.582.038-.07.013-.193-.084-.207-.329-.058-.615.048-.941.036-.409-.012-.661-.265-1.014-.465a.05.05 0 00-.077.054zM117.451 113.564c.325.738.605 1.245 1.265 1.698.372.259 1.389.719 1.561.115a.122.122 0 00-.059-.144c-.166-.09-.317-.085-.492-.099-.335-.034-.66-.198-.96-.38-.52-.309-.776-.934-1.286-1.218-.021-.011-.039.004-.029.028z" fill="#7E7B88"/><path d="M118.416 113.717c.155.361 1.237 1.321 1.41.675.012-.032.006-.066-.029-.091-.155-.141-.374-.123-.552-.201-.265-.113-.485-.334-.731-.481-.063-.034-.125.033-.098.098zM118.451 112.865c.606.569 1.122.976 1.89 1.086.38.056.744.072 1.127.155.742.165.98.748 1.276 1.412.033.081.145.098.176.014.271-.789-.491-1.601-1.217-1.826-.505-.162-.997-.154-1.505-.222-.624-.076-1.125-.589-1.721-.674-.035-.007-.05.035-.026.055z" fill="#7E7B88"/><path d="M120.73 114.534c.416.21.777.34 1.095.753.285.371.276.893.288 1.311.004.088.102.154.152.083.353-.432.262-.966-.056-1.496-.373-.628-.904-.692-1.478-.705-.027-.009-.032.037-.001.054z" fill="#7E7B88"/><path d="M120.723 115.219c.127.155.25.302.32.493.079.215-.019.382-.015.586-.001.054.041.121.1.11.661-.104.227-1.248-.39-1.211-.014.004-.025.017-.015.022zM114.227 115.342c.353-.45 1.035-.411 1.583-.402.899.012 1.787.395 1.96 1.496.189 1.198-1.059 1.524-1.773.65-.294-.361-.217-.709.175-.822.029-.01.552-.121.489.102-.035.113-.088.223-.119.344-.028.111.076.287.195.22.284-.141.68-.642.227-.996-.433-.343-1.023-.256-1.382.04-.373.3-.282.84-.025 1.269.341.576 1.013.829 1.562.82 1.345-.028 1.359-2.361.218-3.065-.64-.392-1.307-.435-1.971-.369-.436.045-1.23.072-1.257.661-.009.058.074.103.118.052zM118.551 116.11c.579.897-.315 1.916.306 2.897.41.652.986.982 1.603.703.045-.024.058-.108-.002-.141-.324-.149-.704-.225-.992-.457-.545-.446-.442-1.271-.375-1.817.07-.52-.013-.918-.46-1.256-.056-.044-.119.013-.08.071z" fill="#7E7B88"/><path d="M119.594 117.081c-.121.697-.138 1.259.446 1.8.269.251 1.111.706 1.177.109a.098.098 0 00-.073-.102c-.356-.096-.621-.124-.944-.393-.424-.361-.484-.898-.555-1.404-.006-.034-.047-.038-.051-.01zM120.396 117.751c.106.398 1.015 1.006 1.088.429.005-.029-.016-.059-.04-.079-.129-.076-.237-.04-.378-.067-.216-.029-.421-.172-.598-.325-.031-.017-.081 0-.072.042zM119.451 115.978c.645.161.989 1.011 1.511 1.441.533.435 1.196.561 1.788.531 1.058-.045 1.947-1.464 1.061-2.548-.035-.045-.107-.039-.116.021-.03.294-.039.231.032.548.145.643-.207 1.122-.693 1.353-.621.305-1.589-.021-2.156-.521-.454-.406-.844-1.06-1.444-.866-.004.01.007.035.017.041z" fill="#7E7B88"/><path d="M122.748 116.878c.487-.163 1.142-1.011.652-1.613-.038-.052-.126-.05-.128.025-.016.301-.01.575-.12.843-.107.258-.283.483-.421.723.003.009.01.025.017.022zM122.007 118.251c.954.399 1.557.28 2.335-.232.574-.376 1.145-.742 1.852-.83.748-.092 1.146.562 1.111 1.241-.137.198-.281.4-.422.59-.544.1-.718-.041-.529-.4.32-.014.233-.499-.082-.534-.821-.092-.829.653-.291 1.222.644.685 1.664.234 1.832-.528.207-.955-.396-2.159-1.452-2.19-.606-.013-1.124.172-1.63.449-.354.197-.674.439-.997.673-.557.398-1.095.286-1.712.391a.079.079 0 00-.015.148zM124.698 116.584c.336-.066.618-.311.919-.444.185-.084.399-.118.615-.084.186.024.326.144.497.065.041-.024.083-.068.066-.131-.115-.502-.733-.466-1.061-.402-.432.079-.958.408-1.167.815-.039.092.036.195.131.181zM124.799 115.798c.222-.242.653-.361.976-.394.055-.009.078-.056.062-.119-.184-.608-1.21-.023-1.19.448.004.096.11.108.152.065zM124.256 115.159c.174-.001.281-.172.411-.264.173-.107.352-.12.437-.322.023-.046-.007-.122-.058-.143-.333-.166-1.097.257-.83.714a.115.115 0 01.04.015z" fill="#7E7B88"/><path d="M122.851 119.397c.414.065.681-.157 1.069-.222.292-.052.803.109.955-.192.019-.037.002-.08-.02-.113-.01-.026-.028-.05-.038-.076-.038-.076-.126-.105-.196-.111-.33-.025-.64.003-.941.098-.352.112-.523.43-.832.587-.015.005-.016.025.003.029zM123.537 119.565c.347.107.672.239 1.03.314.412.085.66.393 1.023.597.063.035.164-.018.138-.102-.123-.444-.481-.677-.866-.818-.463-.17-.88.054-1.328-.018-.011-.006-.018.015.003.027zM126.415 120.17c.475.56 1.252.168 1.675-.087.557-.347.917-1.44.633-2.177-.076-.207-.249-.57-.509-.482-.238.08-.048.567-.017.744.12.577-.18 1.192-.582 1.477-.358.251-.784.273-1.186.418-.029.01-.045.071-.014.107zM128.037 120.711c.447.29.873-.06 1.119-.387.223-.3.524-.936.17-1.341-.059-.065-.135-.067-.172.002-.144.273-.175.602-.301.879-.164.365-.452.668-.818.801-.015.005-.012.032.002.046zM122.352 120.239c.651.177 1.188.317 1.793.708.482.31.938.619 1.455.831.709.299 1.584.334 1.911-.391.034-.078-.042-.185-.121-.177-.499.037-.885.29-1.419.197-.509-.092-1.021-.373-1.489-.631-.764-.413-1.348-.811-2.136-.591-.029.009-.02.054.006.054zM120.046 120.554c.368-.068.693-.326 1.047-.449.214-.073.441-.073.67-.005.185.043.322.133.505.109.07-.014.101-.064.077-.144-.153-.534-.862-.583-1.23-.495-.453.107-.991.4-1.165.89-.016.045.048.101.096.094zM118.878 120.22c-.232-.073-.502-.471-.622-.671-.24-.381-.179-.828-.405-1.197-.023-.036-.084-.052-.112-.024-.63.602.699 2.618 1.174 1.978.018-.032-.001-.079-.035-.086zM118 120.398c-.977-.408-1.921.222-2.138 1.2-.02.076.066.145.119.087.309-.343.71-.668 1.125-.85.315-.139.695-.113.901-.42l-.007-.017zM117.293 120.048c-.11-.256-.399-.264-.607-.28-.49-.047-.78.112-.947.581-.024.067.051.129.107.1.26-.149.603-.218.901-.272.166-.027.345-.148.523-.082.015-.005.03-.03.023-.047zM117.232 119.597c-.351-.29-.294-.805-.517-1.164-.029-.052-.091-.031-.109.001-.195.384.066 1.376.62 1.244.037-.003.039-.057.006-.081zM116.233 119.341c-.183-.308-.534-.588-.817-.383-.044.033-.049.118.01.163.226.174.525.287.78.312.039-.003.048-.062.027-.092z" fill="#7E7B88"/><path d="M126.419 122.6c1.207-.173 2.215-.065 3.062-.991.6-.659.964-1.449 1.784-1.855 1.042-.521 1.569.523 1.758 1.288.361 1.467-1.595-.167-.956-.271.125-.023.127-.207-.007-.248-.833-.255-.69.584-.168 1.09.589.569 1.84.864 1.748-.31-.096-1.182-1.104-2.63-2.308-2.218-.679.232-1.157.695-1.587 1.276-.358.489-.655 1.006-1.088 1.434-.501.489-1.588.563-2.251.751-.044-.004-.028.058.013.054z" fill="#7E7B88"/><path d="M130.191 118.733c.458-.329.963-.481 1.551-.405.578.071 1.011.441 1.543.709.043.024.091-.021.064-.069-.625-1.261-2.648-1.242-3.232-.315-.023.046.029.114.074.08zM129.939 118.083c.343-.217.639-.466 1.013-.625.43-.188.824-.108 1.28.088.051.022.111-.018.083-.087-.559-1.282-2.167-.205-2.487.515-.028.079.055.138.111.109zM129.566 117.333c.228-.439.642-.581 1.081-.702.029-.01.028-.078-.016-.082-.569-.078-1.085.08-1.119.754.003.028.039.055.054.03zM134.046 119.531c.683 1.109.16 2.116-.33 2.968-.019.033.021.092.057.062.729-.579 1.245-2.153.294-3.056-.02-.011-.035.012-.021.026z" fill="#7E7B88"/><path d="M134.941 119.91c.27.935.061 1.621-.439 2.279-.026.035.025.082.057.062.359-.22.551-.574.651-1.016.112-.491-.042-.848-.241-1.335-.006-.016-.027-.009-.028.01zM135.735 121.012c.367-.303.853-.412 1.34-.413.469-.005.876.217 1.335.294.055.01.079-.057.036-.101-.729-.797-2.245-.509-2.732.188-.008.023.01.046.021.032zM139.833 119.014c.187-.125.305-.296.525-.382.19-.076.39-.126.593-.167.411-.073.826.102 1.224.063.041-.004.072-.055.036-.102-.284-.379-.849-.333-1.204-.269-.577.101-.949.27-1.211.83-.011.013.022.032.037.027zM113.235 116.536c.186-.054.322-.172.509-.244.201-.076.425-.097.648-.099-.047-.057-.101-.111-.148-.168-.063.475.126 1.056.364 1.502.178.339.588.891.958.659.039-.023.023-.081-.008-.116-.277-.306-.541-.444-.735-.842a3.683 3.683 0 01-.329-1.178c-.005-.071-.083-.144-.15-.131-.51.044-.784.217-1.163.526-.035.03.004.107.054.091z" fill="#7E7B88"/><path d="M113.965 116.992c-.427.491.691 1.782.922 1.366.015-.022.009-.056-.011-.085-.275-.273-1.083-.778-.891-1.27.004-.01-.013-.013-.02-.011zM113.197 117.68c-.069.405.136 1.01.601 1.066.048.002.062-.038.03-.08-.282-.314-.601-.508-.614-.982.004-.01-.013-.014-.017-.004zM110.427 114.886c.088-.066.144-.169.2-.272.072-.127.177-.171.297-.239.025-.018.026-.056.016-.081-.07-.172-.268-.274-.404-.144a.74.74 0 00-.212.687c.01.043.066.08.103.049zM110.956 115.364c.363-.421 1.232.288 1.745.363.404.053.835-.179.754-.669-.009-.044-.048-.079-.092-.064-.326.121-.467.37-.874.269-.342-.085-.692-.291-1.026-.417-.305-.116-.783.123-.536.508.007.017.025.02.029.01zM110.876 117.822c.079-.549.039-1.133.663-1.231.263-.042.701.128.666.485a.626.626 0 01-.345.462c-.178.088-.207-.145-.359-.216-.021-.011-.057-.018-.072.006-.307.272.232.669.509.622.373-.07.684-.454.696-.869.017-.622-.674-.949-1.154-.937-.801.027-1.052.942-.78 1.691.033.101.166.084.176-.013zM109.79 118.144c.297.633.746.88 1.36.919.459.025 1.199-.178 1.179-.762.001-.039-.053-.068-.082-.058-.377.156-.605.434-1.047.47-.425.039-1.085-.155-1.388-.577-.007-.016-.029-.009-.022.008zM110.426 119.667c.699.423 1.91.37 2.077-.531.012-.054-.056-.1-.094-.067-.252.216-.504.413-.826.495-.366.097-.764.007-1.14.018-.051-.002-.057.07-.017.085zM112.554 120.546c.323-.307.461-.658.905-.811.487-.169 1.058.105 1.569.184.036.007.045-.035.02-.056-.445-.464-1.038-.622-1.579-.504-.593.136-.864.513-.98 1.151.003.028.047.053.065.036z" fill="#7E7B88"/><path d="M113.55 120.558c.211-.033.432-.079.655-.041.23.036.453.197.671.303.05.021.116-.02.082-.084-.316-.593-1.095-.652-1.432-.217-.004.011.006.036.024.039zM109.916 120.281c.04.802 1.34.533 1.599.205.034-.04-.022-.117-.066-.102-.419.18-1.098.315-1.493-.126-.017-.023-.04.004-.04.023zM112.71 111.595c.037.69.779.521 1.167.437a2.287 2.287 0 001.14-.593c.237-.231.422-.552.624-.81.765-1.008 2.091-1.022 2.735.457.031.078.134.062.125-.024-.126-1.342-1.277-1.566-2.202-1.285-.745.229-1.126 1.162-1.657 1.673-.283.266-1.685.812-1.903.135-.01-.006-.025-.001-.029.01z" fill="#7E7B88"/><path d="M116.5 110.655c.2.09.406.077.614.127.127.031.256.108.364.192.153.115.148.264.197.423.016.06.08.057.109.028.176-.188.011-.493-.198-.644-.386-.268-.69-.194-1.078-.147-.014.005-.018.016-.008.021zM149.577 112.986c.524.08.884-.834 1.033-1.257.176-.497.271-1.586-.236-2.018-.037-.033-.094-.014-.092.031-.014.242.079.43.135.684.058.3.041.615.015.907-.045.598-.413 1.295-.868 1.603-.018.015-.004.047.013.05zM149.219 111.968c.744-.653.998-2.764-.051-3.542-.047-.038-.096-.004-.08.054.093.327.079.215.27.608.169.356.197.813.203 1.178a3.583 3.583 0 01-.369 1.675c0 .018.013.031.027.027z" fill="#7E7B88"/><path d="M147.865 108.584c.817.767.67 2.076.231 2.871-.629 1.123-2.103.02-2.601-.882-.201-.371-.255-.8-.25-1.185.006-.522.537-1.905 1.337-.922.228.28.308.755.302 1.076-.004.23-.347-.212-.406-.256-.048-.039-.105-.02-.107.035-.03.284.208.807.537.797.531-.013.31-.989.212-1.33-.173-.6-.619-1.016-1.18-1.038-.717-.025-1.012.941-1.073 1.546-.13 1.33 1.492 3.452 2.848 2.935 1.159-.443 1.738-3.019.183-3.685-.042-.023-.061.011-.033.038z" fill="#7E7B88"/><path d="M143.986 109.728c.167-.806.3-1.552.746-2.203.68-.981 1.73-.57 2.75-.437.087.009.13-.111.034-.165-2.143-1.22-3.714.592-3.602 2.791.009.045.068.044.072.014z" fill="#7E7B88"/><path d="M143.452 107.722c.285-.887 2.151-2.138 3.077-1.544.148.098.236-.152.088-.25-.651-.431-1.319-.067-1.861.232-.616.345-1.255.697-1.341 1.555-.004.011.029.03.037.007z" fill="#7E7B88"/><path d="M143.283 106.389c.478-.34 1.722-1.059 2.349-.645.055.031.096-.014.091-.073l.001-.061a.214.214 0 00-.062-.159c-.306-.285-.783-.118-1.088-.03a2.31 2.31 0 00-1.323.929c-.008.023.01.047.032.039zM147.626 112.668c-.677-.295-.911 1.247-.331 1.364.07.013.153-.042.134-.127-.044-.168-.121-.298-.145-.473-.034-.263.035-.725.341-.709.024.001.029-.046.001-.055zM146.399 112.868c-.674-.012-.828 1.565-.125 1.412.053-.009.063-.085.029-.128-.193-.255-.257-.371-.164-.676.059-.212.163-.393.293-.546.022-.026-.008-.061-.033-.062zM145.502 112.428c-.482.021-1.838.758-1.209 1.469.056.057.133.041.124-.042-.046-.709.736-.955 1.143-1.284.051-.037.007-.146-.058-.143zM144.708 111.733c-.747-.206-1.514.325-1.757 1.051-.016.045.034.107.075.083.231-.119.39-.313.575-.505.298-.31.674-.49 1.111-.493.066-.003.062-.12-.004-.136zM144.099 111.1c-.194-.042-.374-.157-.564-.189a2.187 2.187 0 00-.608-.027c-.349.032-.703.135-.852.481-.031.07.051.15.11.129.348-.1.659-.227 1.03-.247.312-.019.652.159.91-.038.03-.03.021-.096-.026-.109zM144.011 110.466c-.345-.385-.891-.722-1.34-.599-.065.022-.057.121.006.155.401.2.877.486 1.303.547.05.002.066-.059.031-.103zM145.288 116.053c.195-.145.106-.502.053-.73-.078-.309-.221-.858-.55-.95-.036-.014-.071.015-.079.053-.028.273.211.544.317.808.071.178.122.363.153.555.014.092.002.158.043.241.009.023.039.039.063.023zM143.433 113.303c-.314-.002-.396.356-.221.653.14.23.367.403.571.558.297.23.543.469.79.769.033.043.088.024.083-.028-.055-.329-.207-.528-.46-.746-.289-.251-1.208-.718-.744-1.159.015-.023.005-.046-.019-.047zM142.49 112.161c-.984-.074-.594 1.954.337 2.054.048.002.057-.055.034-.092-.187-.286-.446-.477-.598-.794-.188-.402-.046-.907.249-1.113.024-.017.002-.054-.022-.055zM141.438 112.983c-.184-.332-.185-.789-.182-1.137-.005-.703.257-1.129.871-1.289.145-.04.06-.249-.074-.259-.785-.084-1.093.824-1.064 1.527.007.117.121 1.405.444 1.187l.005-.029zM141.188 110.347c.224-.194.377-.46.587-.668a1.04 1.04 0 01.585-.278c.143-.019.248.013.388-.035.052-.018.065-.11.015-.151-.719-.561-1.463.491-1.657 1.053-.02.055.044.111.082.079zM128.838 116.904c.314-.483.77-.819 1.323-.912.261-.041.543-.03.817.023.208.036.402.186.608.174.04-.004.052-.038.053-.078-.029-.69-1.198-.6-1.54-.551-.6.08-1.378.517-1.406 1.256.002.088.103.152.145.088zM132.318 116.35c1.084.838 1.634 2.342 2.868 2.947.972.481 1.866-.185 1.686-1.263-.143-.85-1.087-1.342-1.703-.933-.67.454.273 1.146.569.653.012-.032.017-.079-.018-.104a.393.393 0 00-.26-.097c-.069-.15-.038-.234.09-.24.266-.108.559.051.768.283.35.397.236.976-.071 1.244-.342.298-.962.02-1.313-.239-.94-.703-1.398-2.045-2.574-2.348-.054.009-.077.072-.042.097zM113.367 107.145c-.084.414.39.705.702.888.332.194.651.356.95.625.458.403.174.678.039 1.029-.015.041.001.08.028.107.2.221.39.103.547-.057.21-.223.136-.639.034-.928-.127-.389-.536-.674-.847-.875-.24-.163-.506-.271-.761-.392-.238-.118-.408-.322-.639-.424a.036.036 0 00-.053.027zM115.462 107.78c.243.213.462.504.617.791.136.257.101.518.205.777.019.047.063.077.1.073.399 0 .308-.593.149-.869-.233-.403-.621-.762-1.048-.833-.034-.006-.059.029-.023.061zM113.952 106.584c.504 1.397 2.381-.075 3.056 1.32.017.041.056.056.096.033.486-.276-.431-.918-.693-1.016a2.77 2.77 0 00-1.186-.132c-.447.048-.744.046-1.141-.305-.081-.057-.165.018-.132.1zM117.096 108.141c.073.699.635 1.355 1.306 1.436.568.069.886-.456.848-1.009-.041-.581-.606-.985-1.077-.836-.435.137-.228.885.204.702.036-.012.063-.067.043-.116-.027-.047-.05-.123-.099-.162-.005-.073.032-.104.124-.079a.423.423 0 01.305.167c.22.26.116.666-.091.819-.273.213-.648-.023-.898-.255-.246-.223-.333-.556-.617-.711-.028-.009-.054.009-.048.044zM117.938 107.448c.419.068.122-.601-.012-.774-.222-.269-.826-.809-1.087-.45-.04.058-.031.137.009.196.13.201.353.28.538.399.242.163.402.3.495.567a.125.125 0 00.057.062zM119.007 109.891c-.149.424-.004.978.383 1.295.374.304 1.015.354 1.21-.077.022-.044-.018-.122-.07-.131-.272-.055-.567-.048-.834-.168-.284-.124-.576-.601-.595-.905-.002-.045-.082-.064-.094-.014zM121.726 111.204c.11.387.17.906.142 1.285-.015.176-.524.562-.027.693.418.112.637-.385.592-.766-.064-.509-.37-.812-.602-1.247-.036-.069-.13-.046-.105.035zM122.91 112.105c-.02.227-.011.407-.084.624-.077.228-.226.397-.303.624a.101.101 0 00.032.117c.378.332.762-.172.801-.533.019-.19-.104-.946-.435-.844l-.011.012zM123.679 114.705c-.511-.81.652-1.817 1.251-.971.142.207.44.106.4-.136-.139-.831-1.268-.78-1.693-.484-.393.274-.636 1.367.03 1.623.015-.005.019-.016.012-.032z" fill="#7E7B88"/><path d="M123.963 114.447c.098-.289.375-.117.577-.213.109-.056.128-.195.026-.303-.355-.364-.951.046-.675.522.017.022.064.016.072-.006zM125.697 112.566c.104.294.212.559.148.855-.046.243-.048.454.008.709.085.346.367.681.648.879.653.457 1.491.578 1.85-.136.304-.595-.224-1.276-.775-1.484-.541-.203-.826.477-.353.848.072.058.168.017.153-.078-.021-.13-.127-.487.163-.429.365.069.508.496.437.794-.166.658-1.006.273-1.379-.049-.459-.395-.225-.729-.336-1.176-.094-.388-.285-.443-.532-.753-.01-.024-.035-.006-.032.02zM127.683 116.595c.06-.077.081-.189.137-.275.072-.11.226-.181.329-.254.188-.13.449-.161.546-.394.031-.086-.012-.214-.102-.251-.503-.238-1.598.808-.965 1.183a.044.044 0 00.055-.009zM128.172 116.741c.108-.139.247-.241.277-.428.008-.059-.055-.094-.095-.09-.202.048-.31.225-.306.457.002.065.083.122.124.061zM128.433 113.35c.123.226.288.476.283.736-.006.199-.051.321.019.531.05.162.245.177.333.085.437-.495-.025-1.208-.593-1.402-.027-.009-.052.026-.042.05z" fill="#7E7B88"/><path d="M129.076 112.798c.052.109.074.164.158.253.214.215.283.443.357.723.096.372.067.669-.063.991-.075.186-.333.308-.295.538.023.136.19.196.291.172.496-.122.628-.749.575-1.27-.029-.304-.192-.626-.328-.904-.143-.293-.41-.365-.638-.557-.024-.02-.076.007-.057.054zM130.263 115.076c.242.062.48-.01.72-.014.273-.007.558.184.818.125.029-.01.048-.045.038-.071-.138-.798-1.338-.486-1.606-.116-.023.027-.006.069.03.076zM130.485 114.429c.558-.053.19-1.56-.32-1.505-.024 0-.049.017-.05.053-.006.216.132.383.218.577.125.287.094.52.082.8.006.034.032.079.07.075zM131.041 114.165c.153.154.367.156.552.206.163.038.293.116.468.122.05.002.07-.051.057-.102-.093-.267-.225-.409-.476-.501-.22-.076-.56-.045-.614.205-.015.024-.012.051.013.07zM131.028 113.61l.016.039c.023.055.103.1.142.06.256-.237.104-.747-.145-1.012-.125-.136-.328.021-.254.183.122.244.218.48.248.746a.703.703 0 01.078-.097c-.014.004-.031.001-.038.003-.041-.004-.073.033-.047.078zM131.596 113.433c.136.029.238-.005.365-.038.171-.048.305.058.475.048a.069.069 0 00.063-.069.44.44 0 00-.445-.464c-.25.018-.434.174-.517.419a.098.098 0 00.059.104zM131.675 112.785c.228-.13.047-.415-.142-.543a.169.169 0 00-.182.006c-.018.015-.033.02-.05.035-.033.02-.052.09-.029.127.077.147.201.215.306.353.03.035.065.041.097.022zM127.449 112.87c-.025-.121-.049-.159-.153-.235-.215-.168-.316-.374-.368-.642-.066-.32.016-.817.36-.831.234-.005.486.233.629.425a.528.528 0 01.123.319c-.002.055-.063.085-.106.081-.028-.009-.052-.01-.073-.021-.097-.078-.127-.05-.095.087.123-.217-.114-.497-.33-.369-.533.308.494 1.089.927.694.433-.394-.004-1.105-.409-1.44-.551-.451-1.163-.375-1.428.212-.268.597-.004 1.901.86 1.805.039-.004.075-.034.063-.085zM126.068 112.348c-.22-.206-.351-.723-.333-.992.029-.38.414-.492.465-.816.009-.039-.014-.095-.048-.12-.482-.399-.786.599-.782.941.01.358.293 1.014.689 1.044.021-.007.022-.043.009-.057zM125.182 112.072c-.17-.436-.312-.863-.209-1.309.048-.231-.156-.422-.348-.313-.265.143-.204.605-.167.888.047.388.23.801.641.86.058.007.115-.047.083-.126zM124.3 112.232c-.103-.313-.184-.688-.347-.972-.022-.037-.077-.055-.111-.043-.504.205.009.969.412 1.075.034.006.052-.026.046-.06zM128.783 112.663c.602.027 1.064-1.594.237-1.638-.116-.007-.208.144-.148.27.237.462-.213.787-.222 1.22.001.082.059.145.133.148zM129.738 112.415l.013.014c.062.052.118.052.168.017.211-.116.265-.434.142-.676-.093-.187-.325-.183-.351.008-.01.113-.082.546.028.637zM130.496 112.374c.147.006.179-.133.18-.27.007-.259-.358-.302-.33-.036.005.071.027.302.15.306zM119.736 109.18c.01-.113.018-.134-.061-.208a.074.074 0 00-.127.043c-.09.705.234 1.144.898 1.35.413.126.823-.093 1.244.012.672.167.797.946 1.194 1.406.041.041.097.058.126.012.4-.498-.315-1.362-.769-1.685a1.767 1.767 0 00-.909-.334c-.245-.027-.5.058-.728.089-.321.044-.586-.114-.793-.482-.213-.266-.247-.328-.103-.193.01.005.024 0 .028-.01z" fill="#7E7B88"/><path d="M119.953 108.288c.067.761.645 1.102 1.308 1.156.438.038.867-.023 1.314.058.271.047.507.208.72.413.255.246.256.486.397.771.027.046.071.096.125.087.021-.007.046-.006.067-.013.107-.018.168-.066.192-.185.13-.716-.748-1.353-1.304-1.563-.364-.136-.771-.101-1.129-.101-.654.007-1.089-.105-1.579-.669-.045-.05-.12-.034-.111.046zM120.42 107.42c.11.65.661.939 1.214.949.452.006.796-.194 1.274-.085.613.138.863.611 1.268 1.061.034.044.092.024.121-.004.486-.553-.523-1.301-1.003-1.493-.363-.148-.791-.254-1.153-.161-.636.167-1.09.218-1.696-.285-.01-.005-.028.01-.025.018zM120.626 106.712c.066.622.798.699 1.227.706.367 0 .72-.159 1.06-.247.264-.07.529-.074.798.055.194.088.236.131.422.096.055-.009.071-.072.073-.131-.026-.645-.918-.686-1.309-.62-.635.102-1.562.659-2.238.14-.01-.026-.032-.018-.033.001zM119.651 107.922c.615-.376.755-1.362.698-2.139-.057-.679-.239-2.228-.971-2.546-.152-.066-.265.08-.171.236.372.627.582 1.317.716 2.014.167.875-.16 1.592-.349 2.362-.011.049.039.095.077.073z" fill="#7E7B88"/><path d="M119.373 106.808c.516-.782.081-2.635-.822-3.202-.299-.19-.478.302-.176.482.273.163.541.716.666.991.222.498.255 1.174.259 1.683-.001.053.051.089.073.046zM118.684 106.055c.226-.348-.239-.918-.514-1.161-.262-.229-1.071-.919-1.328-.488-.099.169.024.39.222.406.542.054 1.19.68 1.45 1.2.047.075.133.109.17.043zM115.04 105.813c-.001.316.371.384.575.411.446.062.839-.261 1.154-.508.06-.04.092-.13.075-.213-.022-.121-.043-.153-.14-.207-.069-.046-.161-.043-.217.006-.416.331-.829.563-1.402.476-.014.005-.044.015-.045.035zM120.999 106.415c.534-.372.242-1.303.174-1.923-.059-.541.01-1.042.258-1.464.277-.488.831-.535 1.127-.956.037-.049.014-.124-.045-.15-.784-.455-1.57.764-1.742 1.409-.254.958.216 2.05.172 3.047-.004.029.03.054.056.037z" fill="#7E7B88"/><path d="M121.893 106.094c.691.104.345-1.486.363-1.883.023-.81.738-1.591 1.542-.947.216.169.305.466.344.723a.64.64 0 01-.116.44c-.205.321-.822-.004-.499-.299.246-.222-.108-.728-.351-.497-.528.495-.321 1.301.473 1.5.933.237 1.176-.917.893-1.67-.369-.985-1.44-1.157-2.128-.795-.406.211-.564.749-.627 1.218-.085.616.401 1.627.084 2.134-.023.026-.013.07.022.076z" fill="#7E7B88"/><path d="M123.487 105.589c.985.589 2.048.015 2.22-1.052.217-1.31-.47-2.6-1.656-3.249-.289-.158-.444.285-.162.445.883.515 1.385 1.275 1.413 2.302.03 1.073-.825 1.723-1.803 1.486-.034-.007-.046.043-.012.068z" fill="#7E7B88"/><path d="M125.148 101.288c.613.37 1.005.937 1.315 1.612.402.865-.031 1.33-.127 2.071-.009.074.072.161.144.128.737-.345.598-1.556.287-2.31-.242-.582-.954-1.715-1.624-1.552-.018.015-.012.048.005.051zM127.452 103.292c.155.221.309.678.292.929-.034.448-.374.717-.573 1.056a.106.106 0 00.062.152c.549.125.942-.643.908-1.159-.02-.284-.338-1.005-.681-1.018-.017-.003-.025.018-.008.04zM128.539 103.889c.248.375-.015.822.005 1.201.005.052.066.104.111.098.513-.064.358-1.108-.084-1.337-.034-.006-.049.017-.032.038zM138.873 118.308c-.348-.152-.552.287-.798.444l.168.091c-.083-.323-.025-.62.093-.891.125-.292.367-.42.568-.626.022-.026-.001-.083-.036-.09-.697-.108-.993 1.046-.814 1.643.019.068.111.092.154.059.207-.152.382-.563.663-.574.022-.007.023-.045.002-.056zM139.986 116.267a2.68 2.68 0 00-1.2.091c.06.066.113.135.173.202.19-.692.731-.8 1.314-.951.044-.015.039-.09-.001-.106-.671-.359-1.384.299-1.55.925-.032.107.07.237.173.202.363-.115.747-.178 1.097-.327.004-.011.005-.03-.006-.036zM141.477 114.687c-.272-.26-.591-.371-.928-.466l.119.293c.22-.255.81-.294 1.151-.171.057.019.084-.057.057-.105-.333-.534-1.192-.319-1.47.041-.071.091-.003.258.119.293.313.075.622.141.932.188.032-.001.055-.047.02-.073zM137.495 116.871c.102-.564.378-1.13.569-1.658.371-1.044 1.231-1.476 2.153-1.855.099-.043.053-.216-.062-.215-1.056-.012-2.006.953-2.357 1.923-.051.14-.626 1.763-.332 1.815.014.014.025.001.029-.01zM138.069 113.761c.238-.158.417-.442.612-.663.259-.292.535-.396.885-.525.044-.015.049-.085.01-.12-.558-.495-1.439.811-1.588 1.23-.02.055.044.11.081.078zM136.315 116.148c-.16-.299-.657-.383-.912-.324-.362.085-.869.359-.806.859.003.048.064.076.087.049.255-.207.402-.474.725-.595.248-.096.61-.034.875.061.03.01.042-.024.031-.05z" fill="#7E7B88"/><path d="M134.004 116.69c.289-.429.347-.953.765-1.29.466-.383.99-.33 1.527-.514.044-.015.042-.082-.001-.106-.51-.271-1.132.078-1.536.323-.512.311-.747.915-.787 1.569-.008.022.024.04.032.018zM133.469 116.193c.042-.462.11-.859.346-1.227.198-.319.555-.43.76-.714.026-.037-.008-.081-.044-.088-.399-.033-.745.447-.933.753-.21.351-.337.824-.207 1.284.016.041.077.03.078-.008zM132.836 115.847c-.159-.549.078-1.093.258-1.552.199-.513.521-.927 1.038-1.082.036-.012.031-.085-.012-.089-.623-.106-.945.429-1.169.941-.205.458-.563 1.284-.176 1.812.027.047.071.013.061-.03zM142.551 105.557c-.732.546-.393 1.901-.048 2.749l.112-.15a1.817 1.817 0 00-2.261 1.098c-.019.053.044.088.081.057.548-.615 1.238-1.184 2.159-.923.075.021.149-.06.112-.15-.369-.784-.77-2.071-.134-2.651.011-.013-.009-.043-.021-.03z" fill="#7E7B88"/><path d="M140.286 108.362c.41-.303.595-.842 1.178-.863.088-.002.125-.088.093-.169-.104-.313-.244-.615-.351-.937a1.63 1.63 0 01-.09-.556c.006-.204.151-.326.188-.513.008-.039-.019-.104-.065-.097-.887.068-.101 1.693.086 2.172.034-.057.06-.112.093-.169-.615.06-.912.562-1.191 1.069-.018.033.019.085.059.063zM124.51 106.375c.021.127.186.322.241.455.112.258.159.546.188.813.057.509-.09.96.032 1.474.152.646.878.957 1.396.954.495-.005.797-.696.447-1.169-.356-.488-.903-.457-1.009.096-.028.144.145.22.232.164.305-.182.579.513.032.427-.485-.07-.722-.518-.712-.995.005-.395.041-.773-.081-1.17-.057-.178-.501-1.388-.841-1.158-.018.015-.015.041-.002.054.017.021.026.045.043.066.009.024.037.014.034-.011zM125.494 106.213c.163.289.252.532.296.853.027.202.041.294.178.442.042.048.1.019.115-.021.197-.392-.161-1.092-.512-1.353-.059-.05-.118.014-.077.079zM126.45 105.991c.676.928.499 2.16 1.405 2.975.459.411 1.053.167 1.169-.364.103-.464-.235-1.238-.808-1.037-.437.147-.254.694.209.709.031-.001.06-.047.03-.082-.033-.042-.07-.075-.103-.117.322.286.576.29.341.664-.465.738-1.136-.469-1.3-.853-.302-.705-.267-1.414-.926-1.91-.013-.013-.034-.006-.017.015zM127.595 109.63c.03.695 1.179 1.125 1.557.711.04-.041 0-.12-.057-.139-.537-.135-1.046-.019-1.45-.588-.021-.031-.046-.013-.05.016z" fill="#7E7B88"/><path d="M127.522 106.608c.105.119.213.246.364.241.318-.006.516-.091.85.06.69.314.832.976.889 1.647.005.071.095.095.124.049.36-.456-.001-1.162-.39-1.586-.247-.272-.578-.433-.894-.518-.315-.086-.669.306-.939.096l-.004.011zM127.974 105.92c.21-.199 1.092.138 1.356.269.479.243.712.733.952 1.202.03.054.108.065.113-.001.025-.613-.482-1.14-.981-1.412-.313-.17-1.244-.39-1.45-.082-.018.015-.001.037.01.024zM126.98 100.824c-.326.501.153 1.124.548 1.52.518.519 1.342.744 1.924.494.036-.012.038-.086-.014-.095-.461-.065-.903-.062-1.353-.258-.543-.246-1.265-.988-1.078-1.634.005-.029-.016-.04-.027-.027z" fill="#7E7B88"/><path d="M127.737 100.779c-.169.393 0 .747.342 1.033.414.344.898.446 1.358.41.053-.008.052-.09 0-.1-.653-.1-1.729-.45-1.662-1.329-.002-.026-.03-.035-.038-.014zM129.667 100.667c.019.602.207 1.033.584 1.532.177.231.392.441.59.648.679.715.418 1.464.001 2.072-.029.044.016.117.067.091.425-.187.781-.889.597-1.444-.12-.356-.317-.581-.564-.85-.594-.638-1.088-1.142-1.181-2.045-.011-.067-.095-.065-.094-.004z" fill="#7E7B88"/><path d="M130.899 104.711c-.2.24-.396.433-.745.368-.331-.062-.565-.377-.611-.708-.048-.294.106-.647.428-.49.09.043.203.142.25.236.016.04-.106.135-.128.161-.054.064.003.163.076.185.184.056.365.005.402-.199.048-.217-.1-.423-.253-.582-.42-.434-.969-.259-1.12.221-.17.55.15 1.255.716 1.476.438.163 1.219-.017.995-.663.007-.002-.003-.008-.01-.005zM130.626 105.837l-.016-.021c-.056-.043-.087.056-.026.071.077.018.199.244.251.315.124.189.204.428.262.648.091.36.033.699-.088 1.015-.011.03.021.073.056.061.677-.325.193-1.795-.417-2.149-.023-.019-.05-.01-.064.013-.004.01-.015.022-.022.024-.035.048.058.105.07.039l-.006-.016zM131.291 105.352c.52.318.633 1.063.606 1.591-.004.046.058.087.079.044.335-.509-.052-1.514-.684-1.671-.013.005-.021.025-.001.036zM131.911 104.648c.306.016.805.487 1.015.745.03.035.104.038.106-.017.003-.467-.782-1.024-1.131-.752-.014.004-.007.02.01.024zM132.222 103.852c.312-.048.587.162.894.182.043.005.052-.055.031-.086-.212-.318-.737-.369-.949-.135-.011.013.002.046.024.039zM131.859 102.89c.18.007.339-.038.506-.085.219-.066.467-.013.675-.085.037-.013.05-.067.025-.108-.309-.398-.985.004-1.227.226-.015.025-.005.051.021.052zM131.307 102.12a1.24 1.24 0 00.432-.149c.262-.151.483-.168.761-.235.056-.009.047-.096.015-.134-.411-.465-.96.203-1.238.419-.041.025-.014.115.03.099zM130.658 101.435c.195-.148.401-.289.621-.396.191-.096.421-.026.615-.113.041-.024.054-.099-.008-.127-.552-.287-1.025.166-1.261.617-.004.011.021.033.033.019zM131.087 108.694c-1.052-.164-1.288 1.409-.765 2.211.638.984 2.079.824 2.576.067.43-.66-.183-1.902-1.036-1.736-.285.059-.696.289-.661.673.039.393.457.539.726.402.069-.032.068-.133-.009-.181-.198-.127-.498-.165-.229-.403.203-.179.511-.143.746.054.499.423-.025.995-.348 1.14-.431.2-.922.134-1.337-.224-.686-.582-.228-1.712.356-1.917.036-.012.027-.074-.019-.086zM132.658 112.021c.529.175.916-.383 1.13-.78.147-.282.437-1.215-.081-1.422-.021-.011-.036.012-.044.033-.014.145.038.313.051.466.015.256-.056.484-.148.7-.172.421-.506.784-.92.914-.046.006-.027.074.012.089zM133.329 112.798c.716-.274 2.376-1.188 3.039.107.024.039.082.058.097.014.239-.611-.618-.895-1.027-.977-.791-.163-1.807.05-2.155.804-.015.025.016.062.046.052zM134.417 111.392c.361-.148.548-.59.563-1.001.017-.33-.046-1.13-.466-1.242-.117-.033-.166.101-.11.199.198.349.275.675.281 1.061.003.261-.107.794-.298.93-.024.017.002.063.03.053zM135.296 111.078c.699-.297 1.488-.537 2.242.053.036.026.087.008.078-.036-.238-1.027-2.124-.797-2.351-.055-.019.016.009.045.031.038zM135.779 109.736c.44-.13-.317-1.905-.918-1.499-.031.02-.016.077.014.093.282.155.472.376.617.675.083.167.286.535.264.712.006.015.016.021.023.019zM136.45 109.515c.576-.072 1.086-.263 1.556.364.034.045.103.031.087-.03-.21-1.027-1.142-.693-1.67-.382-.011.014.006.055.027.048zM133.328 109.207c.727.458.979-.72.934-1.244-.065-.771-1.018-1.39-1.598-.995-.472.322-.49 1.286.195 1.503.205.068.563-.061.584-.306.025-.273-.271-.347-.445-.261-.046.025-.055.101.007.135.11.054.172.088.034.143-.298.119-.467-.217-.459-.475.027-.583.56-.717.999-.353.561.468.308 1.565-.263 1.684-.074.016-.053.127.012.169zM134.545 107.181l.014.013c.054.055.147.006.131-.071-.066-.261-.212-.421-.392-.625-.438-.483-.577-1.001-.348-1.543.222-.539.941-.689 1.251-.009.148.324-.137.492-.369.516-.193.019-.187-.047-.159-.193.009-.076-.07-.113-.123-.086-.143.084-.217.236-.089.412.142.19.455.13.62.102.62-.116.42-.943-.005-1.293-.66-.553-1.333.064-1.463.71-.196.84.375 1.451.932 2.067zM133.529 100.888c-.008.056.401.561.449.641.197.321.297.666.363 1.023.092.479-.022.923.047 1.384.006.033.049.062.069.038.328-.313.231-.958.159-1.427a2.692 2.692 0 00-1.057-1.757c-.02-.011-.043-.012-.05.008-.019.05-.018.033-.01.092-.001.017.023.018.03-.002zM134.617 101.063c.207.404.432.794.595 1.223.207.554.137 1.07.197 1.621.005.051.08.087.102.045.464-.869-.111-2.231-.847-2.923-.025-.026-.06.003-.047.034zM135.764 101.411c.422.755.452 1.543.384 2.338-.005.046.049.064.066.031.239-.488.301-.971.139-1.564-.079-.275-.242-.833-.574-.845-.024-.001-.031.019-.015.04zM137.021 103.919c.28-.492.115-1.176.406-1.662.149-.253.335-.297.585-.381.086-.029.092-.096.066-.179-.013-.052-.069-.088-.107-.103-.398-.116-.675.264-.836.567-.248.472-.154 1.18-.177 1.724.006.034.048.057.063.034zM137.972 103.674c.149-.68.767-1.148 1.368-1.286.105-.026.096-.214-.007-.265-.357-.183-.732.144-.948.371-.28.295-.544.671-.506 1.154.002.047.081.078.093.026zM138.436 104.668c.208-.796.911-1.545 1.809-1.111.511.247.61 1.155.28 1.47-.154.145-.39.169-.603.129-.258-.109-.377-.302-.369-.584-.007-.277.362-.056.464-.007.06.026.136-.027.099-.099-.128-.273-.353-.402-.608-.345-.298.073-.22.586-.137.829.256.789 1.362.566 1.584.045.316-.731-.153-1.821-1.026-1.891a1.54 1.54 0 00-1.131.362c-.343.283-.388.717-.454 1.177-.005.048.08.076.092.025zM137.526 104.215c-.601.75.258 2.448 1.207 2.544.033.006.035-.047.012-.066-.303-.331-.62-.622-.864-.999-.302-.463-.351-.95-.332-1.46.001-.018-.019-.029-.023-.019zM138.5 105.148c.052.385.259.755.584.976.335.226.779.324 1-.025.019-.034-.005-.071-.04-.078-.624-.065-1.119-.247-1.509-.885-.006-.017-.035-.007-.035.012z" fill="#7E7B88"/><path d="M136.534 104.474c-.38.592-.064 1.547.366 2.162.404.569 1.273 1.358 1.873.96.017-.014.012-.048-.015-.057-1.159-.147-2.674-1.754-2.181-3.035.005-.028-.032-.06-.043-.03zM135.789 105.836c-.055.701.253 1.576.788 2.115.442.445 1.169.91 1.647.49.035-.03.009-.093-.039-.095-.564-.026-1.001-.149-1.471-.584-.493-.455-.854-1.286-.891-1.92-.01-.024-.034-.025-.034-.006zM135.365 106.878c-.056.38.113.764.321 1.109.132.212.392.609.638.473.031-.019.013-.066-.01-.084-.413-.258-.928-1.002-.926-1.497.001-.018-.023-.019-.023-.001zM141.409 103.046c-.034-.086.02.145.039.192.067.146.127.295.174.449.129.436.053.693-.057 1.077-.011.031.012.067.042.066.798-.055.186-1.512-.205-1.879-.013-.014-.04-.022-.057-.008-.007.003-.011.013-.018.015-.017.015-.018.051.012.067.02.011.037.015.057.026l.013-.005zM142.416 103.503c-.012.184.137.395.166.583.049.317-.043.617-.202.851-.014.022-.005.064.029.071.708.122.485-1.188.07-1.526-.024-.019-.059-.007-.063.021zM143.52 104.249c.179.359.016.787-.144 1.068-.029.046.025.101.072.076.389-.23.705-.837.094-1.169-.014.004-.028.009-.022.025zM139.482 107.718c-.269.673-.241 1.396-.117 2.166.108.67.362 1.67.971 2.056.082.052.153-.06.098-.138-.814-1.244-1.072-2.693-.886-4.053.004-.046-.052-.071-.066-.031zM138.676 109.42c-.047.454.106 2.654.867 2.695.04.004.074-.025.088-.065.021-.042.016-.075-.019-.125-.127-.185-.259-.307-.368-.524-.287-.586-.525-1.356-.519-1.972.005-.027-.048-.045-.049-.009zM137.549 112.82c.243-.333.669-.71 1.103-.732.025.001.048-.026.038-.052-.057-.308-.391-.243-.554-.149-.358.19-.631.428-.655.908-.005.031.046.052.068.025zM137.831 111.591c.194.002.336-.144.536-.105.044.004.067-.043.043-.083-.19-.326-.457-.01-.618.113-.037.012-.005.07.039.075zM135.069 113.076c.258.129.607.209.803.458.243.305.481.62.668.961.107.207.197 1.03.52.598.312-.419-.511-1.373-.767-1.691-.226-.284-1.065-.81-1.247-.381-.007.02.003.044.023.055zM136.775 113.425c.038-.022.416.652.462.708.044.048.095.058.135.018.303-.344-.241-.746-.555-.857a.048.048 0 00-.06.029c-.015.041-.015.041-.009.093.003.008.02.011.027.009zM111.886 144.696c-3.226-5.399-6.431-10.532-7.103-16.789-.288-2.693-.045-5.307.346-7.865.456-2.961 1.652-5.133 2.773-7.724.04-.093-.09-.164-.143-.102-3.232 3.795-3.784 10.374-3.323 15.701.498 5.714 3.185 12.605 7.295 16.938.106.106.216-.046.155-.159z" fill="#7E7B88"/><path d="M107.668 114.817c1.672-2.802 3.396-5.389 5.67-7.632 2.395-2.362 5.43-3.289 8.134-5.088.059-.04-.004-.135-.063-.115-3.126.658-5.992 2.746-8.348 4.804-2.285 2.005-4.618 4.772-5.465 7.978-.005.05.048.099.072.053zM121.055 101.154c4.45-1.109 9.034-1.315 13.791-.076 2.338.61 4.612 1.636 6.808 2.839 2.438 1.327 4.342 3.154 6.476 4.96.039.034.095-.013.06-.058-3.298-4.118-8.069-6.676-12.649-8.154-4.63-1.498-10.633-1.987-14.558.353-.066.042.003.15.072.136zM145.76 104.91c2.211 2.396 4.58 4.748 6.448 7.462 1.993 2.891 2.599 6.337 4.082 9.417.035.068.122.056.108-.019-.333-2.897-2.045-6.471-3.525-9.043-1.686-2.933-4.47-5.9-7.092-7.842-.02-.01-.034.012-.021.025zM154.484 120.216c.792 3.676 1.534 7.026 1.328 10.694-.198 3.406-1.063 6.609-2.349 9.565-2.967 6.841-8.953 9.975-15.612 11.963-.036.012-.005.067.024.057 7.02-1.302 12.522-4.533 15.774-11.201 2.881-5.922 4.019-14.143 1.033-21.117-.047-.114-.226-.091-.198.039zM182.661 57.745c1.381-1.255 3.033-2.414 3.403-4.503.034-.18-.351-.455-.431-.305-.917 1.662-2.143 3.053-3.119 4.67-.027.056.099.183.147.139zM153.993 54.985c-.166.585-.45 1.181-.326 1.86.018.103.164.164.226.097.406-.455.459-1.138.623-1.73l.601-2.044c.398-1.346.917-2.696 1.034-4.157.007-.103-.181-.186-.216-.092-.566 1.275-.907 2.683-1.327 4.037l-.615 2.029zM150.464 45.414c-.202.847-.784 1.912-.421 2.878.039.096.223.152.288.094.642-.64.594-1.903.783-2.764.228-1.019.493-2.05.412-3.156-.018-.221-.43-.183-.399-.048-.262.976-.432 2.003-.663 2.996zM188.716 60.508c-.007.003-.011.014-.018.016-.029-.009-.036-.007-.023.027-1.203 1.131-2.172 2.534-3.273 3.773a50.639 50.639 0 00-3.201 4.035c-.042.061.078.172.124.12 1.251-1.177 2.488-2.33 3.638-3.613 1.128-1.277 2.389-2.513 3.139-4.146.047-.111-.158-.308-.267-.31-.087.012-.156.007-.119.098zM192.532 73.517c1.147-.445 2.098-1.068 3.035-1.833.891-.73 1.903-1.432 2.5-2.52.039-.072-.099-.25-.17-.216-.992.432-1.737 1.297-2.554 1.98-.967.815-1.974 1.575-2.938 2.398-.056.049.053.217.127.191zM190.02 67.675c-1.2 1.28-2.255 2.673-3.374 4.03-.057.068.088.22.148.16 1.057-.991 2.17-1.907 3.164-2.973.41-.436.831-.867 1.209-1.34.243-.313.5-.736.942-.8.172-.03-.01-.38-.198-.43-.924-.26-1.455.898-1.891 1.353zM138.39 46.137c.591-.676.551-1.575.551-2.432 0-.822-.362-1.982.067-2.686l-.017-.003c.026-.09-.126-.21-.232-.14-.584.404-.424 1.108-.368 1.713.115 1.198-.136 2.32-.187 3.484.005.07.143.115.186.064zM138.04 55.594c.385-1.005.249-2.238.263-3.333.019-1.222.031-2.442-.105-3.674-.008-.078-.152-.101-.162-.027-.193 1.182-.246 2.398-.293 3.611-.038 1.095-.242 2.272.087 3.395.025.08.18.11.21.028zM145.843 46.028c.257-1.608.424-3.24.671-4.853.257-1.707.628-3.408.633-5.184-.002-.161-.39-.23-.337-.058l-.04.175c-.004.01.017.022.031.017-.252.147-.188.738-.23.987l-.213 1.206c-.161.9-.316 1.798-.452 2.7-.248 1.632-.442 3.255-.264 4.988.015.076.189.09.201.022zM207.452 86.325c-.046-.096-.114-.184-.196-.176-1.012.196-1.873.828-2.752 1.302-.977.53-1.913 1.097-2.787 1.805-.072.056.019.248.112.225 1.079-.331 2.057-.79 3.042-1.323.879-.475 1.877-.839 2.611-1.578.06-.042.026-.153-.03-.255zM132.165 56.136c.037.558-.018 1.103.301 1.637.052.09.177.066.206.002.218-.474.075-1.04.041-1.573a43.958 43.958 0 01-.08-1.87c-.042-1.252-.039-2.491-.046-3.736a64.326 64.326 0 00-.153-3.53c-.069-1.163.149-2.279.111-3.424.001-.036-.08-.062-.099-.03-.507.812-.484 1.883-.507 2.817-.028 1.257.096 2.534.086 3.794a82.75 82.75 0 00.053 4.045c.011.61.046 1.24.087 1.868zM146.886 60.903c-.17 1.058-.469 2.313-.239 3.445.046.21.334.267.382.07.264-1.044.208-2.261.365-3.351.174-1.204.415-2.385.607-3.586.204-1.25.345-2.516.639-3.742.21-.882.774-1.82.279-2.854-.039-.077-.196-.088-.178-.003.308 1.106-.492 2.293-.718 3.271-.27 1.128-.388 2.313-.575 3.468-.171 1.094-.387 2.177-.562 3.282zM142.73 62.716c-.003.091.145.159.179.066.754-2.232.579-4.82.688-7.243.123-2.544.313-5.236 1.15-7.56.031-.082-.141-.169-.188-.09-1.216 1.947-1.252 4.605-1.447 6.912-.219 2.603-.253 5.288-.382 7.915zM112.272 102.177a130.495 130.495 0 00-2.91-3.948c-1.866-2.483-3.942-4.913-5.54-7.6-.029-.053-.087-.024-.058.028 1.443 2.784 3.512 5.216 5.407 7.716a138.963 138.963 0 013.031 4.074c.648.919 1.301 1.889 2.032 2.727.189.218.26.009.072-.209-.728-.848-1.38-1.854-2.034-2.788zM210.866 118.133c.68.01 2.046.175 2.324-.894.005-.011-.01-.026-.01-.026-.354-.083-.668.104-1.004.152-.55.083-1.126.037-1.684-.006-1.126-.091-2.225-.073-3.33-.024-2.771.125-5.575.066-8.321.34-.074.006-.064.16.009.173 2.833.413 5.661.366 8.436.269a65.78 65.78 0 013.58.016zM176.886 127.848c-2.612-.233-5.226-.514-7.836-.787-1.948-.21-3.9-.534-5.854-.656-.31-.019-.3.277.009.296 1.881.127 3.775.452 5.663.683 2.678.336 5.358.613 8.035.883a622.6 622.6 0 007.969.741c2.747.235 5.555.642 8.284.604.11.001.097-.178-.005-.201-2.642-.56-5.335-.64-7.969-.866l-8.296-.697zM215.631 104.71c.094-.044-.017-.308-.11-.306-1.346.1-2.645.386-3.973.53-1.444.155-2.893.251-4.224.761-.082.029-.044.259.052.265 1.393.066 2.726-.11 4.073-.272 1.426-.158 2.913-.308 4.182-.978zM211.813 112.088c-.731-.329-1.443-.077-2.098.034-.976.164-1.932.381-2.921.509-1.95.266-3.907.493-5.87.703-3.919.416-7.823.848-11.699 1.442-3.91.596-7.796 1.275-11.678 1.963-3.466.621-6.936 1.274-10.435 1.785-.275.036-.192.362.083.325 3.301-.451 6.565-1.041 9.843-1.595a534.702 534.702 0 0111.694-1.877c3.883-.576 7.795-.99 11.72-1.389 1.967-.2 3.934-.401 5.88-.676.897-.125 1.78-.266 2.653-.475.866-.205 1.892-.792 2.854-.484.11.042.088-.214-.026-.265zM127.56 46.032c-.098-1.542-.348-3.093-.555-4.633-.207-1.54-.329-3.1-.668-4.64-.044-.206-.43-.138-.387.007 0 1.53.284 3.088.481 4.622.2 1.542.342 3.095.573 4.636.045.268.571.277.556.008zM205.926 100.143c-4.359 1.469-8.642 3.126-13.064 4.424-4.425 1.288-8.796 2.61-13.08 4.333-2.118.846-4.233 1.725-6.406 2.419a166.568 166.568 0 00-6.394 2.188c-3.638 1.35-7.226 2.834-10.878 4.147.035.095.055.196.089.292 3.673-1.278 7.282-2.705 10.938-4.029 2.122-.762 4.265-1.445 6.422-2.112 2.18-.675 4.305-1.525 6.422-2.35 4.295-1.672 8.682-2.946 13.115-4.215 4.391-1.286 8.936-2.435 12.901-4.872.091-.034.022-.247-.065-.225zM206.921 93.414c-2.674.757-5.11 2.227-7.633 3.367-2.331 1.036-5.111 1.394-7.152 3.072-.057.053.013.22.085.204 1.195-.171 2.277-.696 3.382-1.112 1.316-.493 2.678-.908 3.966-1.476 2.531-1.121 5.131-2.193 7.51-3.675.118-.075-.019-.42-.158-.38zM192.525 120.219c1.551-.085 3.508.045 4.863-.775.015-.005.017-.045-.009-.046-.733-.141-1.453.011-2.166.071-.821.069-1.645.128-2.472.179-1.754.106-3.528.12-5.295.171-3.306.082-6.61.234-9.858.613-.055.01-.039.073.013.075 3.321.002 6.615-.067 9.939-.125 1.66-.044 3.323-.079 4.985-.163zM92.99 89.489c-2.75-3.086-5.51-6.16-8.21-9.298-1.324-1.534-2.607-3.16-4.062-4.552-1.436-1.362-2.918-2.683-4.332-4.07-.056-.061-.153.051-.1.105a66.783 66.783 0 004.119 4.301c1.444 1.404 2.738 3.019 4.065 4.542 2.718 3.124 5.482 6.187 8.254 9.248a532.094 532.094 0 008.481 9.19c2.321 2.455 4.639 4.982 7.067 7.312.219.211.372.044.16-.17-2.414-2.352-4.711-4.887-7.017-7.364-2.851-3.026-5.649-6.131-8.425-9.244zM90.574 73.314c.314.687.834 1.252 1.276 1.852.516.689 1.026 1.38 1.528 2.074 1.07 1.489 2.09 3.012 3.128 4.52 1.931 2.829 3.914 5.63 6.029 8.318.032.041.08.008.048-.034a702.237 702.237 0 00-5.727-8.55 244.457 244.457 0 00-2.931-4.262c-.944-1.311-1.958-3.048-3.317-3.947-.016-.003-.04.014-.034.03zM89.898 63.713c.355.54.643 1.182 1.175 1.566.086.06.203-.015.186-.115-.116-.656-.58-1.178-.942-1.715-.42-.624-.846-1.246-1.277-1.858-.854-1.226-1.655-2.53-2.626-3.664-.072-.081-.22.012-.172.11.617 1.368 1.555 2.592 2.392 3.814l1.264 1.862zM106.844 100.346c-2.208-2.697-4.5-5.349-6.765-7.992-2.687-3.147-5.375-6.295-8.02-9.493-2.626-3.168-5.163-6.41-7.684-9.668a231.892 231.892 0 00-3.831-4.855c-.6-.73-1.213-1.454-1.858-2.141-.643-.68-1.642-1.372-1.973-2.307-.037-.112-.204-.002-.184.106.18.737.773 1.274 1.222 1.805.672.794 1.377 1.55 2.032 2.358 1.304 1.6 2.583 3.218 3.859 4.846 2.54 3.25 5.076 6.485 7.712 9.641 2.656 3.185 5.368 6.316 8.07 9.441 2.426 2.792 4.874 5.578 7.237 8.427.184.222.366.054.183-.168zM84.457 65.895c1.665 2.36 3.211 4.813 4.972 7.088.046.055.155 0 .12-.067-1.31-2.594-2.94-5.027-4.587-7.402a88.016 88.016 0 01-2.023-3.102c-.377-.595-1.029-1.836-1.969-1.713-.007.003-.014.023-.014.023.14.33.45.543.676.82.372.446.661.955.95 1.465.572 1.004 1.21 1.941 1.875 2.888zM75.722 54.132c.154 1.13 1.092 2.04 1.691 2.905.705 1.014 1.469 1.983 2.18 2.996.052.07.215-.02.17-.11-.476-1.075-1-2.08-1.658-3.03-.65-.937-1.226-2.26-2.223-2.876-.072-.047-.168.039-.16.115zM112.444 60.382c.098-.449-.065-.827-.192-1.286-.168-.602-.353-1.206-.534-1.803a81.075 81.075 0 00-1.303-3.873c-.436-1.213-.795-2.434-1.211-3.653-.337-.978-.707-2.134-1.516-2.925-.034-.032-.093.006-.081.036.355 1.101.918 2.15 1.255 3.257.345 1.13.661 2.262 1.054 3.385.411 1.186.825 2.38 1.21 3.575.197.6.379 1.197.553 1.797.152.52.209 1.064.572 1.504.059.058.175.07.193-.014zM114.683 47.659c-.308-1.525-.714-3.044-1.059-4.566-.342-1.514-.606-3.063-1.135-4.548-.012-.145-.409-.16-.373.047.212 1.532.636 3.061.972 4.577.338 1.524.629 3.064 1.075 4.57.074.263.574.19.52-.08zM129.2 85.391c.464 4.286.992 8.578 1.375 12.856.03.326.264.327.234.001-.342-4.177-.82-8.362-1.24-12.54l-1.225-12.677c-.399-4.202-.73-8.41-1.146-12.615-.203-2.051-.474-4.098-.717-6.153-.232-1.989-.667-3.98-.879-5.976-.014-.171-.333-.17-.335-.002-.066 1.886.454 3.778.655 5.671l.707 6.148c.46 4.2.815 8.408 1.244 12.609L129.2 85.39zM123.963 76.255c.486 2.933 1.127 5.85 1.727 8.779.58 2.805 1.233 5.673 1.653 8.48.052.342.34.332.288-.01-.37-2.604-.943-5.254-1.453-7.863-.55-2.824-1.134-5.636-1.617-8.465-.481-2.786-.744-5.566-1.225-8.352l-.732-3.973c-.161-.867-.884-1.869-.634-2.725.03-.098-.12-.205-.184-.114-.364.553-.068 1.41.122 2.039.348 1.18.491 2.387.718 3.574.528 2.884.856 5.748 1.337 8.63zM122.361 59.055c.255-.658.098-1.398-.01-2.11-.145-.981-.392-1.964-.601-2.95-.128-.608-.226-1.218-.333-1.834-.037-.207-.112-.78-.398-.896-.01-.005-.017-.003-.02.007-.132.212.015.655.03.906.037.612.12 1.227.231 1.832.163.888.376 1.767.538 2.655.145.787.098 1.596.378 2.373.031.077.163.077.185.017zM120.926 48.667c-.619-2.107-.573-4.219-1.421-6.31-.034-.085-.194-.049-.193.03.019 1.037.411 2.116.539 3.16.13 1.088.284 2.124.909 3.141.045.073.187.051.166-.02zM126.125 98.764c.085.312.307.28.226-.041-1.072-4.082-2.018-8.188-3.014-12.287l-3.079-12.412c-1.031-4.113-2.123-8.222-3.134-12.342l-1.433-6.033c-.474-1.948-.651-3.954-1.394-5.855-.06-.153-.359-.122-.315.046.453 1.86.691 3.731 1.135 5.585.481 2.007.922 4.028 1.424 6.028 1.025 4.115 2.166 8.216 3.224 12.32l3.182 12.404c1.044 4.203 2.046 8.413 3.178 12.587zM121.808 92.545c-.751-2.255-1.401-4.536-2.12-6.803l-2.553-8.05c-.818-2.596-1.502-5.194-2.165-7.817-.653-2.558-1.401-4.996-2.742-7.345-.055-.102-.202-.018-.156.08 1.244 2.407 1.906 5.083 2.565 7.638.641 2.526 1.322 5.022 2.117 7.522l2.519 7.733c.771 2.36 1.473 4.737 2.273 7.097.106.293.362.24.262-.055zM111.923 74.494c-.711-2.2-1.687-4.31-2.315-6.538-.329-1.173-.875-2.342-1.317-3.486-.363-.937-.675-1.953-1.375-2.724-.049-.052-.123-.035-.148.033-.035.099-.047.086.002.155l.016.003c-.024.052.505.967.561 1.095.214.514.388 1.041.576 1.564l1.285 3.497c.385 1.034.663 2.113 1.042 3.149.42 1.125.84 2.268 1.321 3.38.119.254.442.143.352-.128zM106.624 59.579c-.072-1.112-.647-2.208-1.05-3.241-.441-1.15-.898-2.304-1.46-3.405-.037-.074-.16-.032-.137.047.288 1.194.706 2.36 1.128 3.518.377 1.042.665 2.236 1.346 3.148.055.068.179.026.173-.067zM103.783 50.502c-.413-1.051-.905-2.075-1.295-3.143-.225-.61-.213-1.38-.952-1.72-.119-.056-.221.083-.168.16l-.013.005c.581.568.615 1.548.873 2.26.314.894.562 1.888 1.415 2.52.058.05.167-.013.14-.082zM157.567 128.431c2.995.448 5.967 1.066 8.944 1.759 2.974.684 5.946 1.426 8.929 1.906 1.555.253 3.112.428 4.673.611 1.517.18 3.029.513 4.534.849 1.524.339 3.05.686 4.579.957 1.616.279 3.217.315 4.822.484.069.005.073-.11 0-.124-1.497-.357-2.997-.495-4.491-.739-1.529-.252-3.062-.616-4.589-.964-1.498-.338-3.02-.696-4.523-.861-1.558-.176-3.101-.336-4.66-.559-3.112-.446-6.168-1.274-9.27-1.924-2.95-.625-5.985-1.212-8.93-1.62-.297-.051-.322.176-.018.225zM179.98 69.87c-2.534 2.718-4.881 5.63-7.218 8.547-2.327 2.923-4.646 5.863-7.026 8.737-.252.304-.511.61-.771.916.01.272.02.543.001.806.248-.293.504-.588.752-.881 2.501-2.925 4.856-5.982 7.329-8.935 2.438-2.914 5.164-5.631 7.176-8.94.088-.134-.145-.359-.243-.25zM195.69 92.004c-.065.054.013.213.095.183 1.39-.468 2.808-1.061 3.972-1.987.065-.054-.016-.222-.102-.201-1.397.47-2.808 1.082-3.965 2.005zM147.381 85.243c-.633 2.912-1.862 5.64-2.862 8.391a94.13 94.13 0 00-1.515 4.361c-.329 1.026-.619 2.13-1.06 3.083-.11.248.043.443.154.196.41-.888.714-1.896 1.017-2.849a94.81 94.81 0 011.548-4.4c1.045-2.858 2.331-5.668 2.792-8.761.009-.058-.065-.08-.074-.021zM176.099 81.963c-.067.062.056.221.127.168 2.869-2.11 5.477-4.744 7.487-7.825.08-.114-.12-.256-.177-.19l-.003-.007c-1.41 1.094-2.516 2.592-3.711 3.93-1.196 1.337-2.4 2.735-3.723 3.924zM192.696 93.549c-2.892 1.416-5.658 3.116-8.501 4.639l-8.576 4.532a649.656 649.656 0 00-8.548 4.563c-2.375 1.273-4.949 2.493-7.093 4.124-.258.196.013.438.279.24 2.102-1.586 4.678-2.756 7.011-3.982a805.4 805.4 0 018.589-4.475c2.876-1.483 5.754-2.956 8.605-4.481 2.835-1.52 5.743-2.983 8.353-4.915.103-.068-.01-.295-.119-.245zM188.077 101.617c-1.085.549-2.271.869-3.415 1.281-2.413.858-4.738 1.907-7.074 2.971l-7.045 3.142c-2.191.946-4.484 1.803-6.555 2.982-.285.158-.139.53.146.372 2.009-1.114 4.199-1.9 6.302-2.783a397.094 397.094 0 007.077-3.057c2.339-1.033 4.671-2.085 7.08-2.953 1.144-.411 2.328-.763 3.42-1.314 1.096-.565 2.159-1.244 3.191-1.934.061-.043.009-.184-.066-.156-1.081.303-2.053.949-3.061 1.449zM161.924 84.248c-.121-.053-.234-.109-.348-.164-1.156 1.826-9.42 14.218-10.664 15.97-.633.889-1.174 1.842-1.744 2.785-.426.706-.896 1.569-1.44 2.147.067.062.137.113.204.175.447-.47.846-1.121 1.195-1.689.58-.918 1.117-1.86 1.729-2.761a2744.428 2744.428 0 0011.068-16.463zM156.627 101.405c-.553.582-1.364 1.251-1.768 1.955-.061.097-.01.224.097.158.56-.316 1.098-.997 1.564-1.482l2.019-2.06c1.667-1.727 3.298-3.5 4.947-5.252 1.648-1.75 3.403-3.384 5.052-5.135 1.626-1.724 3.104-3.608 4.56-5.504.046-.053-.043-.148-.091-.102-1.657 1.542-3.078 3.34-4.604 5.02-1.621 1.78-3.376 3.413-5.014 5.17l-4.693 5.09-2.069 2.142zM165.395 42.474c-.731.691-.831 1.955-1.136 2.896-.364 1.134-.573 2.288-.672 3.534-.01.095.2.17.223.09.36-1.105.781-2.176 1.13-3.287.288-.944.927-1.978.66-3.128-.019-.085-.154-.159-.205-.105zM165.619 71.05c-.942 1.54-1.796 3.153-2.668 4.744l-1.324 2.387c-.437.772-1.035 1.515-1.282 2.41-.04.144.146.277.236.172.528-.57.886-1.353 1.291-2.04.459-.78.904-1.573 1.342-2.364.882-1.585 1.726-3.204 2.644-4.763 1.885-3.22 4.236-6.046 5.678-9.602.019-.034-.051-.085-.073-.059-1.058 1.439-1.934 3.04-2.876 4.58-.953 1.553-2.026 2.996-2.968 4.536zM149.972 97.812c.887-1.46 7.746-14.249 8.549-15.792-.086-.091-.18-.18-.271-.28-.814 1.556-7.66 14.377-8.53 15.878-.159.258.097.441.252.194zM147.604 94.076a194.469 194.469 0 012.258-5.118c-.032-.22-.064-.438-.079-.654a233.276 233.276 0 00-2.43 5.617c-.111.25.14.404.251.155zM175.304 66.267c-1.303 1.792-2.497 3.67-3.723 5.53-.582.89-1.215 1.743-1.85 2.586l-1.05 1.416c-.365.508-.551 1.05-.828 1.613-.031.066.057.14.109.085 2.875-3.29 5.695-6.918 7.525-11.085.039-.088-.123-.221-.183-.145zM166.563 78.39c.042-.098-.11-.168-.166-.103-.896 1.05-1.629 2.299-2.41 3.45l-1.164 1.713c.111.13.218.272.318.416l1.232-1.81c.774-1.168 1.627-2.344 2.19-3.666zM174.241 58.132c-.521.947-1.024 1.898-1.337 2.99-.02.052.096.134.13.095.727-.784 1.219-1.74 1.726-2.702.499-.959 1.215-1.85 1.468-2.969.025-.101-.194-.213-.208-.106l-.085.093c-.015.005.006.036.023.039-.444.122-.619.664-.838 1.017-.316.497-.598 1.02-.879 1.543zM202.923 81.423c-.046.056.053.22.12.197 1.443-.414 2.893-1.239 3.914-2.403.026 0 .042-.025.05-.047.038-.053.007-.153-.049-.233-.042-.085-.11-.15-.173-.139a.056.056 0 00-.052.019c-1.455.427-2.814 1.42-3.81 2.606zM191.348 88.051c-1.564.91-3.118 1.827-4.64 2.803-.739.48-1.474.968-2.202 1.475-.615.426-1.444.828-1.831 1.534-.059.111.031.34.176.3.738-.2 1.349-.876 1.972-1.305.731-.497 1.47-.977 2.212-1.448 1.526-.967 3.09-1.857 4.661-2.75l4.565-2.626c1.391-.789 2.817-1.51 3.773-2.978.101-.156-.178-.458-.259-.34-1.125 1.167-2.529 1.9-3.894 2.67-1.522.846-3.009 1.78-4.533 2.665zM135.252 74.837l-.031.627-.051 1.26-.119 2.515-.229 5.036c-.143 3.354-.194 6.722-.261 10.087-.008.333.267.367.278.041.092-3.364.197-6.714.347-10.071l.222-5.034c.064-1.657.207-3.412.026-5.085-.007-.096-.142-.078-.128.016l.037.461c-.085-.248-.118-.21-.091.147zM137.741 91.871c.216-2.975.361-5.972.75-8.897.202-1.523.466-3.032.729-4.54.249-1.468.367-2.981.464-4.487.104-1.527.191-3.058.351-4.567.169-1.584.489-3.13.572-4.73.002-.073-.101-.092-.117-.033-.262 1.454-.61 2.873-.814 4.353-.204 1.497-.288 3.035-.382 4.568-.101 1.498-.181 3.026-.422 4.491-.247 1.512-.504 3.018-.705 4.541-.404 3.047-.461 6.158-.679 9.251-.187 2.696-.43 5.43-.762 8.084l.217.062c.367-2.666.613-5.373.798-8.096zM199.604 75.523c.103-.123-.113-.432-.257-.373-1.951.94-3.406 2.66-4.982 4.119-.049.046.043.172.095.134 1.76-1.187 3.745-2.168 5.144-3.88zM119.995 96.179a606.8 606.8 0 00-3.392-9.215l-1.836-4.736-.921-2.367-.454-1.186-.227-.592-.114-.297c-.087-.34-.13-.377-.129-.128l-.118-.44c-.022-.096-.145-.097-.123-.001.364 1.517 1.019 3.038 1.565 4.519.624 1.686 1.293 3.357 1.945 5.042 1.224 3.157 2.4 6.322 3.579 9.495.108.298.338.22.225-.094zM137.111 71.38c.187-2.254.269-4.59.112-6.89-.078-1.128.053-2.272.075-3.389l.034-1.693c.006-.18.269-1.37.206-1.447l.017.004c.03-.082.022-.062-.05-.163-.05-.063-.133-.071-.169-.005-.42.784-.409 1.729-.452 2.62-.056 1.227-.086 2.462-.126 3.692-.031 1.192.061 2.413.032 3.613-.031 1.191-.132 2.388-.105 3.587.014.29.406.355.426.072zM131.365 59.958c-.523 2.477-.413 5.062-.204 7.675.216 2.612.54 5.24.634 7.821l.283 8.374c.084 2.46.239 4.941.289 7.395.007.309.29.347.29.036-.023-2.347-.157-4.72-.214-7.073l-.205-8.063a114.295 114.295 0 00-.524-7.822c-.262-2.747-.579-5.627-.157-8.274.014-.103-.172-.174-.192-.069zM158.623 123.088c-.267.054-.112.278.148.227 1.057-.181 2.219-.179 3.312-.223 1.569-.062 3.134-.201 4.691-.337 2.97-.253 5.98-.769 9.018-.588.052.002.054-.078-.001-.089-3.06-.411-6.067.093-9.063.365-1.609.154-3.229.303-4.855.374-1.075.068-2.204.085-3.25.271zM170.927 115.418c3.857-.907 7.749-1.701 11.643-2.465 3.857-.771 7.707-1.539 11.592-2.217 1.893-.331 3.862-.554 5.688-1.132 1.793-.575 3.577-1.241 5.384-1.78.079-.018.025-.206-.054-.188-1.875.335-3.68.811-5.498 1.364-1.834.559-3.795.801-5.685 1.141-3.878.696-7.717 1.492-11.561 2.3-3.884.812-7.762 1.643-11.609 2.577-3.123.744-6.305 1.448-9.364 2.408-.274.089-.197.384.081.304 3.054-.928 6.241-1.592 9.383-2.312zM155.681 65.144c-1.009 1.015-1.386 2.76-1.846 4.121-.55 1.64-1.041 3.304-1.533 4.968-.919 3.125-1.841 6.224-2.704 9.367-.012.05.048.075.063.034 1.18-2.984 2.169-6.078 3.106-9.181.473-1.568.933-3.13 1.438-4.68a83.62 83.62 0 01.794-2.297c.272-.75.652-1.49.728-2.32-.007-.016-.035-.025-.046-.012zM189.649 83.519c.945-.694 2.408-1.252 2.963-2.441.051-.107-.08-.288-.191-.27-.492.083-.883.485-1.27.748-.564.393-1.16.748-1.72 1.15-1.114.802-2.184 1.648-3.192 2.61-.069.063.032.255.118.215 1.18-.548 2.246-1.254 3.292-2.013zM190.595 74.74c-1.341.987-2.464 2.267-3.703 3.383-1.336 1.208-2.829 2.236-4.194 3.415a142.056 142.056 0 00-4.048 3.676c-1.24 1.156-2.551 2.219-3.642 3.536-.045.055.025.147.085.107 2.798-1.915 5.201-4.374 7.785-6.613 1.373-1.182 2.847-2.214 4.22-3.395 1.335-1.15 2.565-2.476 3.723-3.837.077-.104-.125-.355-.226-.272zM181.103 59.352c-.99.43-1.388 1.5-1.992 2.308-.747 1.008-1.497 1.99-2.103 3.12-.05.102.137.256.201.168.736-.892 1.603-1.667 2.329-2.564.695-.85 1.112-1.934 1.878-2.713.123-.127-.173-.385-.313-.319zM156.264 111.318c2.011-1.306 4.062-2.536 6.067-3.86 2.129-1.398 4.222-2.843 6.33-4.273a182.753 182.753 0 016.379-4.15c1.024-.64 2.051-1.27 3.051-1.951.731-.497 1.609-.925 2.009-1.836.04-.094-.083-.17-.137-.112-.734.818-1.733 1.259-2.634 1.845l-3.065 1.937c-2.063 1.304-4.077 2.671-6.091 4.059l-6.036 4.159c-1.991 1.339-4.03 2.595-6.032 3.928-.241.165-.101.416.159.254zM158.409 107.291c.903-.558 1.755-1.374 2.605-2.042l3.119-2.387c2.178-1.648 4.271-3.405 6.396-5.123 2.162-1.752 4.435-3.374 6.665-5.04 2.23-1.667 4.432-3.383 6.372-5.44.079-.077-.044-.26-.138-.198-2.269 1.523-4.315 3.42-6.468 5.11-2.146 1.686-4.366 3.251-6.476 4.984-2.111 1.733-4.197 3.507-6.343 5.194l-3.116 2.435c-.862.682-1.891 1.392-2.647 2.194-.106.008-.195.127-.156.202-.014.093.064.184.187.111zM154.782 107.126l9.262-8.483c1.547-1.413 3.101-2.809 4.718-4.13.81-.666 1.585-1.359 2.297-2.146.662-.722 1.057-1.565 1.893-2.104.052-.038.026-.145-.044-.13-.711.157-1.228.8-1.68 1.352-.635.79-1.382 1.425-2.134 2.07-1.649 1.41-3.312 2.805-4.901 4.301l-9.608 9.009c-.245.229-.055.493.197.261zM168.047 123.75c-.288.04-.125.365.166.333 2.519-.323 5.332-.054 7.957.123 3.062.193 6.114.321 9.173.465 2.88.139 5.752.26 8.624.294 2.915.038 5.778-.228 8.72.006.121.007.119-.275-.009-.299-2.871-.669-5.671-.268-8.481-.275-2.965.008-5.937-.108-8.916-.222-3.052-.127-6.102-.226-9.164-.38-2.666-.153-5.503-.395-8.07-.045zM144.609 66.632c-.701 2.476-1.048 5.131-1.524 7.685-.491 2.677-.974 5.35-1.437 8.036-.434 2.54-.833 5.086-1.239 7.635-.302 1.899-.493 3.833-.867 5.712-.062.3.194.377.259.084.38-1.807.596-3.678.885-5.51.412-2.614.872-5.207 1.339-7.803l1.434-7.71c.49-2.658 1.142-5.334 1.327-8.07.01-.112-.146-.16-.177-.059zM151.62 58.698c-.529 2.74-1.462 5.306-2.168 7.97-.75 2.813-1.396 5.665-2.039 8.525-.631 2.828-1.279 5.654-1.889 8.493-.547 2.62-1.042 5.466-2.008 7.87-.103.262.143.507.243.237.93-2.256 1.449-4.883 1.987-7.345.645-2.933 1.345-5.848 2.021-8.765.664-2.849 1.334-5.7 2.091-8.516.731-2.762 1.87-5.397 2.024-8.384.011-.13-.24-.21-.262-.085zM157.834 63.895c.928-2.44 1.592-5.01 2.389-7.514.33-1.06.677-2.099.899-3.206.113-.558.222-1.106.398-1.63.129-.382.45-.69.47-1.117 0 0-.007-.016-.024-.02-.934.003-1.147 1.152-1.325 1.75-.321 1.103-.554 2.241-.9 3.343-.855 2.698-1.667 5.463-2.055 8.352-.016.06.124.104.148.041zM151.604 103.61c.863-.816 1.606-1.866 2.308-2.873.949-1.367 2-2.664 3.059-3.926.508-.6 6.04-7.187 6.555-7.79a7.352 7.352 0 01-.615.067c-.218.264-5.468 6.518-5.687 6.782-1.093 1.34-2.291 2.687-3.254 4.144-.749 1.138-1.545 2.367-2.51 3.303-.188.215-.062.486.144.293zM152.056 86.882c.185-.127.392-.242.595-.347 1.147-2.54 4.353-9.663 5.448-12.232 1.52-3.532 2.906-7.13 4.279-10.74.69-1.817 1.398-3.61 2.123-5.402.366-.906.785-1.783 1.187-2.664.309-.666.794-1.381.693-2.25-.015-.115-.222-.202-.222-.082.011.89-.657 1.639-1.02 2.332a34.687 34.687 0 00-1.117 2.373c-.746 1.78-1.429 3.594-2.112 5.408-1.359 3.625-2.732 7.236-4.22 10.785-1.155 2.763-4.424 10.091-5.634 12.819zM100.89 72.317c1.066 2.477 2.506 4.827 3.807 7.189l4.102 7.401c1.282 2.334 2.533 4.686 3.792 7.037.933 1.755 1.786 3.555 2.783 5.28.161.276.369.17.214-.107-.952-1.67-1.774-3.412-2.653-5.125a448.917 448.917 0 00-3.834-7.24 787.645 787.645 0 00-3.901-7.139c-1.36-2.455-2.627-5.02-4.169-7.36-.063-.102-.18-.035-.141.064zM50.087 105.387c1.75.637 3.506 1.105 5.27 1.636.085.027.126-.154.038-.19-1.436-.612-2.837-1.302-4.296-1.832-.599-.217-1.197-.452-1.811-.626-.402-.116-.894-.192-1.212-.568-.124-.143-.294.146-.225.336.358.938 1.599 1.013 2.236 1.244zM44.376 109.612l.018.003c-.001.038.03.056.05.021 1.652.706 3.379 1.087 5.046 1.648a60.626 60.626 0 005.221 1.486c.075.021.087-.133.016-.165-1.72-.73-3.414-1.459-5.16-2.049-1.718-.581-3.496-1.291-5.264-1.387-.118-.007-.144.254-.072.371.055.074.092.146.145.072zM58.003 96.462c.06.026.107-.1.05-.136-1.986-1.182-3.932-2.625-6.109-3.293-.159-.048-.274.248-.132.357 1.904 1.439 4.108 2.153 6.191 3.072zM51.344 85.341c1.206 1.156 2.761 2.04 4.235 2.529.067.023.127-.125.075-.172-1.178-1.166-2.677-2.188-4.157-2.711-.017-.022-.034-.025-.059-.026-.063-.016-.12.04-.144.121-.037.068-.05.155-.002.212.02.03.034.044.052.047zM45.182 117.573c.061.007.095-.155.024-.188-1.88-.825-3.85-1.951-5.798-1.508-.167.038-.163.498.013.524 1.935.222 3.832.862 5.76 1.172zM50.254 99.327c1.213.587 2.409 1.234 3.625 1.81.07.031.128-.126.066-.179-1.04-.883-2.101-1.52-3.253-2.1-1.1-.55-2.256-1.22-3.446-1.372-.078-.01-.123.18-.06.232.936.752 2.049 1.114 3.068 1.61zM218.385 115.605c-1.177.043-2.342.179-3.526.224-.092.002-.073.242.026.257 1.14.246 2.235.38 3.346.34 1.093-.042 2.492.262 3.442-.352.067-.043.027-.206-.041-.252-1.058-.609-2.243-.249-3.247-.217zM219.484 95.31c-2.044.003-3.883.697-5.706 1.364-1.92.702-3.791 1.492-5.667 2.317-.087.042-.003.266.094.252 2.064-.32 3.955-1.01 5.88-1.725.956-.35 1.921-.703 2.891-1.015l1.452-.468.583-.181c.117-.032.409-.351.437-.16.013.08.068.135.095.093.031-.054.055-.105.083-.168.017-.092-.063-.307-.142-.31zM61.507 97.403c.638.364 1.264.777 1.908 1.138a39.573 39.573 0 003.904 1.955c.088.035.181-.116.09-.177-1.118-.862-2.287-1.57-3.493-2.248-1.098-.612-2.39-1.719-3.64-1.804-.109-.01-.175.169-.096.261.356.412.892.627 1.327.875zM102.097 118.063l-12.263-5.413c-2.045-.904-4.079-1.822-6.1-2.828a27.463 27.463 0 00-3.078-1.325c-.97-.341-1.857-.404-2.794-.968-.056-.037-.13.025-.07.088.564.597 1.375.834 2.086 1.048 1.002.302 1.95.752 2.915 1.205 2.11 1.003 4.209 2.02 6.35 2.938l12.889 5.536c.328.14.397-.133.065-.281zM96.459 126.525c-2.565-.42-5.16-.54-7.727-.882-3.563-.463-7.247-1.334-10.783-1.355-.018-.003-.015.025.003.028 3.571.776 7.214 1.23 10.8 1.713 2.572.331 5.153.457 7.72.818.308.038.303-.267-.013-.322zM64.144 109.266c1.794.616 3.645 1.212 5.393 2.001.092.044.151-.134.06-.178-3.427-1.872-7.118-3.32-10.799-4.054-.142-.027-.132.202-.046.23 1.73.907 3.6 1.385 5.392 2.001zM56.64 110.619c3.767 1.356 7.57 2.475 11.371 3.566 3.8 1.092 7.609 2.162 11.404 3.321 3.841 1.171 7.666 2.404 11.512 3.527 1.762.522 3.58 1.138 5.347 1.489 1.38.276 2.875.569 4.214 1.111.289.119.44-.101.151-.22-1.2-.505-2.5-.807-3.746-1.081-1.688-.378-3.385-.884-5.057-1.409-3.911-1.241-7.833-2.489-11.752-3.728-3.907-1.252-7.835-2.31-11.747-3.533-3.866-1.191-7.75-2.733-11.661-3.383-.148-.016-.19.289-.036.34zM61.018 101.969c-1.707-.803-3.479-1.446-5.246-2.017-.134-.048-.204.225-.077.293 1.587.872 3.261 1.437 4.888 2.166 1.757.787 3.458 1.777 5.214 2.601 1.759.833 3.541 1.602 5.317 2.373 1.655.719 3.276 1.533 4.974 2.054.074.021.098-.08.028-.111-3.198-1.865-6.574-3.18-9.882-4.73-1.756-.825-3.467-1.802-5.216-2.629zM96.805 119.022l-2.871-1.112c-2.4-.907-4.805-1.765-7.213-2.651-2.408-.886-4.779-1.905-7.187-2.79-2.369-.871-4.775-1.552-7.183-2.214-.075-.022-.096.088-.025.12 2.244.969 4.547 1.619 6.821 2.42 2.406.839 4.784 1.875 7.185 2.744l6.927 2.477 2.975 1.124c.799.299 1.836.798 2.637.92.114.017.185-.072.072-.146-.591-.397-1.464-.635-2.138-.892zM69.914 99.495c-.105-.038-.175.132-.07.19 2.54 1.511 5.223 2.699 7.828 4.051 2.583 1.341 5.124 2.798 7.723 4.097 2.609 1.304 5.227 2.551 7.814 3.9l3.749 1.952c1.036.536 2.203 1.211 3.286 1.621.068.087.216.129.25.072.09-.021.114-.121-.018-.205-.974-.621-2.111-1.104-3.137-1.634l-3.709-1.975c-2.578-1.389-5.192-2.664-7.794-3.971-2.647-1.338-5.262-2.816-7.89-4.243-2.636-1.434-5.279-2.819-8.032-3.855zM106.508 89.316c-1.582-2.706-3.208-5.388-4.814-8.077-1.514-2.536-3.038-5.06-4.628-7.553-1.614-2.537-3.426-4.937-4.904-7.555-.067-.109-.267-.015-.218.108 1.132 2.71 2.998 4.995 4.57 7.424 1.67 2.562 3.265 5.167 4.85 7.784 1.626 2.682 3.272 5.357 4.871 8.049 1.397 2.356 2.818 4.888 4.51 6.988.186.235.331-.016.146-.251-1.647-2.08-3.029-4.59-4.383-6.917zM76.961 88.325c.072.039.145-.076.095-.14-.82-.988-1.816-1.763-2.756-2.593-1.116-.987-2.195-2.04-3.347-2.98-2.26-1.848-4.526-3.766-6.945-5.354-.13-.083-.276.147-.168.255 2.096 2.092 4.537 3.735 6.808 5.57 2.073 1.704 3.96 4.01 6.313 5.242zM55.977 118.102c2.283.554 4.57.973 6.855 1.43 1.096.216 2.182.492 3.277.766l1.817.455c.638.153 1.211.129 1.848.179.076.002.08-.113.011-.137-4.491-1.482-9.221-2.77-13.793-2.925-.098.005-.115.21-.014.232zM68.321 88.754c.083.045.146-.075.078-.143-1.153-1.074-2.416-2.12-3.772-2.845-.082-.045-.15.086-.081.154 1.146 1.076 2.426 2.125 3.775 2.834zM68.894 65.047c.845 1.137 1.803 2.166 2.672 3.268.939 1.194 1.846 2.426 2.983 3.412.07.057.21-.044.158-.133-.76-1.237-1.657-2.33-2.54-3.445-.942-1.184-1.907-2.424-3.123-3.294-.09-.068-.206.113-.15.192zM59.374 65.876c.05-.035.055-.1.014-.104-.052-.01-.103-.019-.166-.016-.083-.008-.181.142-.135.216 1.197 1.767 2.745 3.148 4.263 4.512 1.606 1.443 3.245 2.811 4.902 4.165.08.063.19-.081.116-.164-1.418-1.685-2.996-3.1-4.609-4.54a130.99 130.99 0 01-2.392-2.183l-1.17-1.114-.46-.446c-.09-.086-.487-.24-.363-.326zM98.772 67.678c-.529-1.033-1.104-2.05-1.657-3.065-.577-1.059-1.097-2.146-1.694-3.2a14.441 14.441 0 00-1.017-1.537c-.372-.502-.87-1.091-.927-1.734-.01-.084-.153-.062-.16.019-.091.938.595 1.698 1.076 2.416.728 1.095 1.29 2.29 1.894 3.454.578 1.12 1.204 2.224 1.795 3.34.577 1.095.968 2.356 1.622 3.398.11.181.358.08.325-.118-.16-1.018-.79-2.06-1.257-2.973zM88.923 50.689c.317 1.062.916 2.01 1.48 2.945.477.797.866 2.001 1.677 2.528.082.051.233-.026.233-.123-.004-.886-.782-1.713-1.23-2.432-.61-.998-1.17-2.039-1.812-3.018-.02-.125-.411-.116-.348.1zM79.322 94.552l8.346 6.044c2.776 2.011 5.55 4.022 8.34 6.01 2.32 1.664 4.73 3.534 7.165 4.869.293.165.324-.154.021-.324-2.407-1.327-4.765-3.205-7.028-4.852a1038.98 1038.98 0 01-8.3-6.068 798.868 798.868 0 00-8.32-6.08c-2.776-1.992-5.542-4.06-8.49-5.723-.107-.064-.211.116-.108.19 2.728 2.072 5.588 3.937 8.374 5.934zM98.446 124.387c-3.047-.647-6.078-1.336-9.138-1.912-3.114-.586-6.233-1.16-9.348-1.831l-4.637-.99c-1.446-.297-2.952-.66-4.392-.693-.109-.001-.074.167.012.195 1.427.456 2.916.672 4.35.983l4.638.99c3.008.631 6.021 1.175 9.032 1.71 2.964.523 5.934 1.062 8.89 1.75 1.13.261 2.251.413 3.378.6.874.14 1.897.258 2.723.566-.001-.085-.006-.178-.007-.263-.671-.257-1.472-.384-2.162-.501-1.108-.203-2.225-.365-3.339-.604zM83.254 92.02c2.004 1.827 4.085 3.51 6.187 5.205l6.288 5.116c1.935 1.598 3.855 3.317 5.888 4.746.28.195.442-.058.169-.255-1.938-1.389-3.765-3.04-5.603-4.597a580.953 580.953 0 00-6.248-5.176c-2.084-1.71-4.173-3.39-6.18-5.206-.953-.862-1.89-1.784-2.909-2.552-1.029-.773-2.12-1.481-3.194-2.15-.065-.04-.123.05-.07.105.85.843 1.865 1.485 2.806 2.198 1.004.773 1.92 1.702 2.866 2.566zM81.634 100.751l3.277 2.072a245.17 245.17 0 006.675 4.041l6.72 3.953c2.197 1.319 4.35 2.709 6.54 4.031.281.171.377-.053.096-.224-2.176-1.345-4.328-2.753-6.518-4.093-2.318-1.417-4.645-2.794-6.974-4.178a253.664 253.664 0 01-6.922-4.269c-1.09-.695-2.181-1.398-3.289-2.06-.816-.485-1.652-1.118-2.57-1.158-.092-.006-.085.13-.005.166 1.067.383 1.995 1.123 2.97 1.719zM108.605 77.554c.577 1.41 1.153 2.839 1.857 4.197.723 1.404 1.459 2.803 2.158 4.224 1.382 2.837 2.464 5.76 3.686 8.644a159.938 159.938 0 003.322 7.421c.063-.03.119-.058.185-.08a151.8 151.8 0 01-3.234-7.46c-1.138-2.8-2.229-5.616-3.521-8.355-.673-1.43-1.403-2.83-2.119-4.237-.701-1.368-1.287-2.784-1.873-4.2-.592-1.43-1.171-2.866-1.822-4.277-.68-1.488-1.533-2.882-2.296-4.332-.03-.06-.122-.028-.098.033.557 1.417 1.291 2.757 1.93 4.137.661 1.416 1.24 2.852 1.825 4.285zM97.414 53.932c1.456 2.036 2.456 4.47 3.399 6.758.97 2.374 1.648 4.961 3.12 7.078.053.077.171.003.138-.082-.98-2.475-1.91-4.993-2.942-7.45-.488-1.178-1.074-2.322-1.628-3.477-.508-1.058-1.094-2.09-1.952-2.933-.065-.074-.187.029-.135.106zM59.978 83.157c.97.692 1.938 1.322 2.982 1.862.09.042.169-.102.1-.17-.88-.83-1.803-1.548-2.773-2.24-.877-.623-1.725-1.374-2.706-1.78-.077-.03-.142.028-.18.114-.051.071-.069.168-.01.23.744.813 1.718 1.358 2.587 1.984zM96.778 52.276c.033.067.18.026.163-.055-.409-1.651-1.124-3.172-1.884-4.695-.376-.75-.771-1.494-1.153-2.242l-.595-1.119c-.15-.288-.33-1.052-.673-1.187.016.003.033-.012.023-.017l-.092-.16c-.011-.161-.342-.058-.282.096.554 1.584 1.397 3.07 2.148 4.571.787 1.592 1.535 3.215 2.345 4.808z" fill="#7E7B88"/><path d="M101.729 103.185a227.898 227.898 0 01-5.134-4.882c-1.714-1.668-3.519-3.243-5.305-4.816-3.615-3.184-7.02-6.582-10.43-10.006-3.402-3.39-6.81-6.948-10.767-9.623-.074-.047-.175.076-.108.144 3.52 3.305 7.113 6.479 10.543 9.895 3.433 3.425 6.865 6.787 10.497 9.939 1.798 1.56 3.61 3.114 5.335 4.77a250.37 250.37 0 005.18 4.839c2.803 2.524 5.654 4.968 8.454 7.502l.141-.182c-2.785-2.556-5.618-5.034-8.406-7.58zM48.712 130.492c-.086.059-.024.302.077.258.746-.376 1.81-.01 2.627.07.915.095 1.817.135 2.724.145 1.983.019 3.952-.036 5.926-.082 3.932-.107 7.86-.202 11.81-.158 3.983.042 7.978.178 11.973.313 3.466.123 6.943.272 10.394.292.28.002.241-.308-.038-.309-3.461-.047-6.941-.224-10.403-.377-4.001-.173-7.995-.329-11.985-.408-3.956-.081-7.887-.014-11.823.085-1.973.046-3.946.072-5.929.072-1.002.004-2.006-.059-3.015-.112-.759-.041-1.674-.243-2.338.211zM58.07 88.542c1.547.604 2.936 1.6 4.337 2.563 1.552 1.077 3.14 2.079 4.7 3.135a157.77 157.77 0 004.85 3.166c.797.5 1.602.979 2.414 1.455.687.409 1.481 1 2.24 1.111.13.02.235-.142.115-.257-.59-.587-1.46-.907-2.153-1.314-.805-.478-1.61-.976-2.406-1.475-1.629-1.025-3.237-2.12-4.836-3.209l-4.688-3.166c-1.422-.975-2.814-1.996-4.467-2.346-.161-.037-.217.264-.099.334l-.007.003zM50.65 117.347c-1.122-.335-2.26-.317-3.369-.741-.167-.065-.193.32-.06.425.959.765 2.074.736 3.102 1 1.285.326 2.538.654 3.832.799.115.018.126-.221.012-.257-1.176-.364-2.337-.873-3.517-1.226zM54.005 122.98c1.868.463 3.736.677 5.602.988 1.876.317 3.758.794 5.631 1.102 1.873.309 3.742.504 5.614.726l2.81.352c.918.118 1.911.401 2.806.297.135-.018.128-.245-.01-.294-.81-.288-1.679-.326-2.508-.454a93.896 93.896 0 00-2.803-.374c-1.868-.234-3.741-.418-5.611-.698-3.857-.56-7.691-1.73-11.535-1.739-.04.004-.04.09.004.094z" fill="#7E7B88"/></svg>