<svg width="44" height="40" fill="none" xmlns="http://www.w3.org/2000/svg"><path d="M17.985.115l-2.208 13.742h3.53L21.512.115h-3.528zm10.647 5.598c-1.234-.61-1.99-1.02-1.99-1.643.015-.567.64-1.147 2.034-1.147a6.142 6.142 0 012.629.509l.32.143.48-2.875a8.909 8.909 0 00-3.168-.567c-3.486 0-5.94 1.812-5.955 4.404-.029 1.913 1.757 2.974 3.094 3.611 1.365.653 1.83 1.077 1.83 1.657-.015.891-1.104 1.302-2.12 1.302-1.408 0-2.165-.212-3.313-.708l-.464-.212-.494 2.988c.829.369 2.354.693 3.936.71 3.705 0 6.115-1.785 6.145-4.547.012-1.516-.93-2.676-2.964-3.625zM41.154.158h-2.731c-.842 0-1.48.242-1.845 1.105l-5.243 12.594h3.704l1.02-2.726h4.145l.529 2.737H44L41.154.158zm-4.067 8.22c.071.008 1.421-4.45 1.421-4.45l1.076 4.45h-2.497zM12.827.116L9.37 9.452 8.993 7.61c-.64-2.124-2.644-4.433-4.882-5.58l3.167 11.813h3.734L16.563.117h-3.735V.115z" fill="#2360BC"/><path d="M7.83 1.888C7.56.84 6.7.133 5.532.118H.056L0 .372c4.272 1.054 7.858 4.295 9.021 7.343L7.83 1.888z" fill="#F90"/><path d="M27.742 30c0 5.11-4.194 9.25-9.37 9.25C13.194 39.25 9 35.107 9 30s4.196-9.249 9.371-9.249c5.176 0 9.372 4.14 9.372 9.25z" fill="#EB001B"/><path d="M29.626 20.751c-2.102 0-4.037.69-5.6 1.844l.008.001c.307.293.646.5.908.837l-1.95.03a9.539 9.539 0 00-.847.98h3.439c.261.31.503.58.723.921h-4.785a9.174 9.174 0 00-.479.923h5.808c.152.317.288.556.404.892h-6.556c-.104.32-.193.646-.26.979h7.09c.07.32.123.616.16.917h-7.391a9.132 9.132 0 00-.047.925h7.49c0 .328-.023.631-.056.925h-7.387c.032.314.079.622.14.925h7.08c-.073.3-.158.601-.264.914h-6.577c.1.316.22.623.353.923h5.821c-.16.337-.344.606-.545.921h-4.8c.189.324.398.633.625.929l3.453.05c-.294.35-.672.56-1.016.864.018.015-.55-.001-1.67-.019a9.401 9.401 0 006.728 2.817C34.803 39.25 39 35.11 39 30c0-5.108-4.196-9.249-9.374-9.249z" fill="#F90"/></svg>