<svg width="74" height="74" fill="none" xmlns="http://www.w3.org/2000/svg"><g clip-path="url(#clip0)"><path d="M73.973 38.137c-.098-.565-.575-.904-1.264-.912-.212-.003-.424.018-.63-.004-.407-.043-.514.093-.511.416.02 1.583.013 3.165.007 4.743-.004.828-.812 1.678-1.783 1.894-3.016.662-6.028 1.334-9.047 1.99a4.75 4.75 0 01-1.042.109c-.15 0-.359-.115-.424-.226-.042-.074.091-.254.195-.346.137-.111.312-.2.492-.262.553-.197 1.115-.377 1.675-.562 2.239-.745 4.482-1.481 6.718-2.23 1.009-.341 1.553-1.014 1.57-1.862.051-2.75.025-5.5.013-8.254 0-.436-.226-.8-.744-.988-.597-.214-1.122-.043-1.64.204-3.17 1.512-6.338 3.021-9.51 4.53-.934.446-1.454 1.09-1.45 2.006.011 2.601.004 5.197.007 7.795 0 .13.013.263.054.386.312.884 1.122 1.39 2.24 1.39 2.23.007 4.468.004 6.7.004 2.224 0 4.44.003 6.664-.003.482 0 .927-.1 1.29-.399.468-.377.444-.856.444-1.334.004-2.533.004-5.063.001-7.6a2.486 2.486 0 00-.025-.485zm-9.273-.812c.225-.584.715-.949 1.462-1.042.495-.064.926.243.997.689.107.687-.752 1.486-1.601 1.483-.709 0-1.104-.495-.858-1.13z" fill="#F90"/><path d="M11.478 27.271v2.381H9.695v-2.388h-.931v5.892h.96v-2.639h1.76v2.642h.948v-5.888h-.954zM35.181 43.49c-.28-1.4-1.345-2.25-3.044-2.39-.67-.052-1.35-.01-2.073-.01v-3.729H28.61V47.73c1.075 0 2.114.062 3.14-.017 1.536-.114 2.708-.725 3.256-1.978.32-.727.326-1.484.175-2.244zm-2.248 1.572c-.27 1.145-1.443 1.685-2.857 1.35 0-1.272-.006-2.523.012-3.778 0-.083.145-.219.249-.238 1.414-.3 2.36.17 2.605 1.35.088.424.09.89-.009 1.316z" fill="#000"/><path d="M6.491 24.094H4.953c-.723-.003-1.324.223-1.817.659-1.693 1.498-1.248 4.345 1.005 4.953-.757 1.137-1.51 2.27-2.298 3.458.32 0 .568-.016.81.005.32.029.483-.075.631-.312.564-.915 1.163-1.817 1.748-2.725.27-.416.303-.428.94-.306v3.31H7.05v-.513-8.081c0-.448-.002-.447-.56-.448zm-.55 4.782c-.734-.007-1.5.175-2.06-.375-.64-.629-.823-1.356-.586-2.153.02-.063.051-.124.077-.184.476-1.096 1.105-1.4 2.569-1.218v3.93z" fill="red"/><path d="M33.176 32.31c-1.6.533-2.704.05-2.993-1.342a3.811 3.811 0 01.166-2.153c.356-.962 1.063-1.249 2.239-.93.023.005.05-.005.09-.011.118-.146.239-.3.37-.465-.971-.637-2.303-.485-3.026.32-.56.621-.778 1.34-.85 2.096-.08.867.028 1.708.6 2.47.601.796 1.641 1.17 2.712.92.755-.179.84-.257.692-.905zM7.848 46.504v-9.14h-5.46c-.075 1.552-.111 3.078-.235 4.6-.11 1.351-.409 2.677-1.006 3.952-.197.421-.434.698-1.037.597-.032-.004-.07.02-.11.035v3.353h1.63v-2.213h5.903v2.22h1.583v-3.404H7.848zm-1.769-.012H2.506c.304-.763.677-1.514.903-2.293.454-1.567.45-3.174.463-4.777.003-.247 0-.497 0-.769h2.209c-.002 2.594-.002 5.195-.002 7.84zM23.19 32.39c-.275.08-.54.177-.818.232-.773.157-1.325-.015-1.62-.502-.345-.57-.328-1.182-.307-1.822h2.918c.063-.96-.055-1.858-.662-2.675-.534-.718-1.458-.833-2.193-.243-.275.22-.508.502-.67.789a4.032 4.032 0 00-.522 2.528c.068.541.217 1.092.448 1.601.334.75 1.108 1.133 2.002 1.038a5.74 5.74 0 001.273-.31c.453-.156.465-.301.152-.636zm-2.26-4.321c.328-.409.87-.397 1.162.032.325.475.364 1 .35 1.55H20.41c.032-.576.142-1.11.52-1.582zM25.874 37.557c-.064-.077-.144-.193-.223-.196-.482-.02-.964-.012-1.496-.012v4.261h-3.121v-4.253h-1.665v10.406h1.686v-.407c0-1.215-.002-2.423 0-3.637 0-.668 0-.668.799-.668h2.313v4.715h1.692c.007-.114.02-.212.02-.306v-9.776c0-.044.02-.098-.005-.127zM26.804 29.575c.582-.67 1.138-1.353 1.704-2.03.069-.083.13-.17.226-.297-.183 0-.29.012-.39-.001-.414-.056-.666.078-.89.374-.496.651-1.047 1.272-1.578 1.904-.06.07-.135.133-.28.273v-2.533h-.921v5.752h.935c0-.683-.015-1.353.009-2.019.009-.23.114-.458.175-.687a.93.93 0 01.324.31c.48.722.956 1.445 1.441 2.162.063.095.172.224.275.237.274.035.556.012.895.012-.675-1.028-1.305-2-1.95-2.966-.123-.18-.132-.312.025-.491zM48.951 37.328c-.271-.01-.393.068-.49.274-.653 1.439-1.322 2.87-1.987 4.304-.291.627-.593 1.254-.887 1.881-.028-.003-.05-.009-.08-.012v-6.422h-1.684v10.422h1.654c1.051-2.27 2.102-4.55 3.162-6.85v6.844h1.903V37.335c-.547 0-1.07.015-1.59-.007zM17.06 46.278c-.517.16-.983.342-1.474.443-1.597.327-2.64-.114-3.096-1.272-.351-.89-.337-1.808-.353-2.778h5.211c-.072-.806-.08-1.593-.226-2.355-.185-.954-.553-1.87-1.315-2.638-.674-.68-1.485-.878-2.496-.603-1.051.284-1.692.945-2.123 1.727-1.264 2.297-1.372 4.662-.405 7.048.292.72.785 1.348 1.605 1.749 1.375.677 3.599.442 4.993-.534l-.32-.787zm-4.135-7.38c.245-.346.572-.628 1.121-.602.537.028.855.309 1.07.674.477.819.557 1.696.553 2.607h-3.581c.09-.964.26-1.867.837-2.68zM17.843 32.373v-5.11h-3.08c0 .384.013.727-.002 1.073-.051 1.2-.095 2.402-.596 3.55-.123.284-.215.587-.693.524v1.854h.888V33.06h3.337v1.198h.84v-1.857l-.694-.028zm-.973 0h-2.075c.9-1.393.778-2.89.843-4.384h1.232v4.384zM36.74 37.35c0 3.49 0 6.953.005 10.418h1.54v-9.37h4.693v-1.047H36.74z" fill="#000"/></g><defs><clipPath id="clip0"><path fill="#fff" d="M0 0h74v74H0z"/></clipPath></defs></svg>