<svg width="150" height="138" fill="none" xmlns="http://www.w3.org/2000/svg"><path d="M75 53c-8.822 0-16 7.178-16 16s7.178 16 16 16 16-7.178 16-16-7.178-16-16-16zm0 30.609c-8.056 0-14.609-6.553-14.609-14.609 0-8.056 6.553-14.609 14.609-14.609 8.056 0 14.609 6.553 14.609 14.609 0 8.056-6.553 14.609-14.609 14.609z" fill="#52458A"/><path d="M71.522 66.217a2.09 2.09 0 00-2.087-2.087 2.09 2.09 0 00-2.087 2.087 2.09 2.09 0 002.087 2.087 2.09 2.09 0 002.087-2.087zm-2.783 0a.697.697 0 011.391 0 .697.697 0 01-1.39 0zM80.565 64.13a2.09 2.09 0 00-2.087 2.087 2.09 2.09 0 002.087 2.087 2.09 2.09 0 002.087-2.087 2.09 2.09 0 00-2.087-2.087zm0 2.783a.697.697 0 010-1.391.697.697 0 010 1.391zM81.725 72.656a.695.695 0 00-.982.054A7.706 7.706 0 0175 75.26a7.707 7.707 0 01-5.743-2.55.696.696 0 10-1.036.928 9.1 9.1 0 006.78 3.014 9.1 9.1 0 006.778-3.014.696.696 0 00-.054-.982z" fill="#52458A"/><g opacity=".5" fill="#52458A"><path d="M75.42 40.89v-9.922-15.833-3.662c0-.539-.84-.546-.84 0V40.89c0 .538.84.538.84 0zM75.42 8.948V5.656v-.464c0-.539-.84-.545-.84 0v3.756c0 .546.84.546.84 0zM51.354 54.334c-2.854-1.656-5.715-3.305-8.57-4.961l-13.681-7.917c-1.055-.612-2.11-1.218-3.164-1.83-.47-.27-.893.457-.423.726 2.855 1.656 5.716 3.306 8.57 4.962l13.682 7.916c1.054.613 2.109 1.219 3.163 1.831.464.27.887-.457.423-.727zM23.756 38.36c-.947-.546-1.894-1.098-2.84-1.643-.135-.08-.27-.155-.404-.236-.47-.269-.893.458-.423.728.947.545 1.894 1.097 2.841 1.642.134.08.269.155.403.236.464.276.887-.451.423-.727zM50.931 81.942c-2.854 1.656-5.715 3.305-8.57 4.961L28.68 94.82c-1.055.612-2.11 1.218-3.164 1.83-.47.27-.047.997.423.728 2.855-1.656 5.716-3.305 8.57-4.962L48.191 84.5c1.054-.613 2.109-1.219 3.163-1.831.464-.27.04-.996-.423-.727zM23.333 97.916c-.947.546-1.894 1.098-2.84 1.643-.135.08-.27.155-.404.236-.47.269-.047.996.423.727.947-.546 1.894-1.098 2.841-1.643.135-.08.269-.155.403-.236.464-.275.047-1.003-.423-.727zM74.58 96.112v29.419c0 .538.84.545.84 0v-9.923-15.834-3.662c0-.538-.84-.538-.84 0zM74.58 128.055v3.756c0 .539.84.546.84 0v-3.292-.464c0-.545-.84-.545-.84 0zM98.645 82.669c2.855 1.656 5.716 3.305 8.571 4.961l13.681 7.917c1.055.612 2.109 1.218 3.164 1.83.47.27.893-.457.423-.726-2.855-1.656-5.716-3.305-8.57-4.962l-13.682-7.916c-1.054-.613-2.109-1.219-3.163-1.831-.47-.27-.894.458-.424.727zM126.244 98.644c.947.545 1.894 1.097 2.841 1.642.134.081.268.155.403.236.47.269.893-.458.423-.727-.947-.546-1.894-1.098-2.841-1.643-.134-.08-.269-.155-.403-.236-.47-.276-.893.452-.423.728zM99.069 55.061c2.854-1.656 5.715-3.305 8.57-4.96l13.681-7.918c1.055-.612 2.109-1.218 3.164-1.83.47-.27.047-.997-.423-.728-2.855 1.656-5.716 3.306-8.57 4.962l-13.682 7.916c-1.055.613-2.109 1.219-3.163 1.831-.47.27-.047.997.423.727zM126.667 39.087c.947-.546 1.894-1.098 2.841-1.643.134-.08.269-.155.403-.235.47-.27.047-.997-.423-.728-.947.546-1.894 1.098-2.841 1.643-.135.08-.269.155-.403.236-.47.276-.047 1.003.423.727zM94.777 49.279l8.792-8.812 1.249-1.252c.383-.384-.208-.977-.591-.593l-8.792 8.812-1.25 1.252c-.389.377.209.977.592.593zM107.941 36.078l6.804-6.82.967-.97c.383-.383-.208-.975-.591-.591l-6.804 6.819-.967.97c-.39.383.208.975.591.592zM68.273 41.719c-1.074-4.012-2.142-8.025-3.217-12.03-.154-.572-.309-1.144-.457-1.723-.14-.525-.947-.303-.812.222 1.074 4.012 2.142 8.024 3.217 12.03.154.572.309 1.144.457 1.723.14.525.953.303.812-.222zM63.458 23.698c-.833-3.104-1.66-6.207-2.492-9.31-.121-.445-.235-.889-.356-1.333-.141-.525-.947-.303-.813.222.833 3.103 1.66 6.207 2.492 9.31.12.444.235.889.356 1.333.14.525.947.303.813-.222zM48.5 60.952c-4.003-1.077-8.006-2.148-12.002-3.225-.571-.155-1.142-.31-1.72-.457-.524-.142-.745.673-.221.814 4.003 1.077 8.006 2.147 12.002 3.225.57.155 1.142.31 1.72.457.523.135.745-.673.221-.814zM30.52 56.118c-3.096-.834-6.193-1.662-9.29-2.497-.442-.121-.886-.236-1.329-.357-.524-.141-.745.673-.222.815 3.097.834 6.193 1.662 9.29 2.497.443.121.886.236 1.33.357.516.141.738-.673.22-.815zM55.223 87.724l-8.792 8.812-1.249 1.252c-.383.384.208.977.591.593l8.792-8.812 1.25-1.252c.382-.377-.209-.976-.592-.593zM42.059 100.919l-6.804 6.819-.967.97c-.383.383.208.976.59.592l6.805-6.819.967-.97c.383-.377-.208-.969-.591-.592zM81.727 95.284c1.074 4.012 2.142 8.025 3.217 12.03.154.572.309 1.145.457 1.723.14.526.947.303.812-.222-1.074-4.012-2.142-8.024-3.217-12.03-.154-.572-.309-1.144-.457-1.723-.147-.525-.953-.303-.812.222zM86.542 113.305c.833 3.104 1.66 6.207 2.492 9.311.121.444.235.888.356 1.333.141.525.947.302.813-.223-.833-3.103-1.66-6.206-2.492-9.31-.12-.444-.235-.888-.356-1.333-.141-.525-.954-.303-.813.222zM101.493 76.051c4.003 1.078 8.006 2.148 12.003 3.225.571.155 1.141.31 1.719.458.524.141.746-.673.222-.815-4.003-1.077-8.006-2.147-12.003-3.224-.571-.155-1.141-.31-1.719-.458-.517-.135-.739.673-.222.814zM119.48 80.885c3.096.835 6.193 1.663 9.289 2.497.443.121.887.236 1.33.357.524.141.745-.673.222-.814-3.097-.835-6.193-1.663-9.289-2.498-.444-.121-.887-.236-1.33-.357-.524-.141-.746.674-.222.815zM91.17 46.095c2.425-3.467 4.843-6.934 7.267-10.401l11.593-16.587c.893-1.273 1.78-2.552 2.673-3.824.309-.444-.416-.868-.725-.424-2.425 3.467-4.843 6.934-7.268 10.4L93.118 41.848c-.893 1.272-1.78 2.551-2.673 3.823-.316.445.416.869.725.425zM113.865 13.768c1.323-1.891 2.646-3.79 3.97-5.681.188-.27.376-.539.564-.802.309-.444-.417-.868-.726-.424-1.323 1.892-2.646 3.79-3.969 5.682-.188.27-.376.539-.564.801-.309.445.416.869.725.424zM63.72 43.26c-1.787-3.837-3.567-7.674-5.353-11.511-2.848-6.12-5.69-12.238-8.537-18.358-.658-1.413-1.31-2.82-1.968-4.234-.228-.492-.954-.06-.725.424 1.786 3.837 3.566 7.674 5.353 11.512 2.847 6.119 5.689 12.238 8.536 18.357.659 1.414 1.31 2.82 1.968 4.235.229.491.954.067.726-.425zM47.137 7.393C46.163 5.3 45.189 3.2 44.215 1.106c-.141-.297-.276-.593-.417-.889-.228-.491-.953-.06-.725.424l2.922 6.288c.14.296.275.592.416.888.229.492.954.068.726-.424zM47.553 65.67l-12.62-1.11c-6.71-.592-13.42-1.178-20.13-1.77-1.545-.135-3.096-.27-4.64-.411-.538-.047-.538.794 0 .842l12.62 1.11c6.71.593 13.42 1.178 20.129 1.77 1.545.135 3.096.27 4.641.411.537.047.537-.794 0-.841zM8.268 62.13l-6.878-.606c-.329-.027-.658-.06-.987-.087-.537-.048-.537.794 0 .841l6.878.606c.329.027.658.06.987.087.544.048.537-.794 0-.841zM58.83 90.909c-2.425 3.466-4.843 6.933-7.267 10.4L39.97 117.897c-.893 1.272-1.78 2.551-2.673 3.823-.31.445.416.869.725.424 2.425-3.467 4.843-6.933 7.267-10.4l11.593-16.588c.893-1.272 1.78-2.551 2.673-3.823.31-.445-.416-.869-.725-.424zM36.128 123.235c-1.323 1.892-2.646 3.79-3.97 5.682-.187.269-.375.538-.564.801-.308.444.417.868.726.424 1.323-1.892 2.646-3.79 3.97-5.682.187-.269.376-.538.564-.801.315-.444-.417-.868-.726-.424zM86.274 93.743c1.786 3.837 3.566 7.674 5.353 11.511 2.848 6.119 5.689 12.239 8.536 18.358.659 1.414 1.31 2.821 1.968 4.234.229.492.954.061.726-.424-1.787-3.837-3.567-7.674-5.353-11.511-2.848-6.12-5.69-12.239-8.537-18.358l-1.968-4.234c-.228-.492-.954-.068-.725.424zM102.857 129.61c.974 2.094 1.948 4.194 2.921 6.288.141.296.276.592.417.888.228.492.954.061.725-.424-.974-2.094-1.948-4.194-2.921-6.287-.141-.297-.276-.593-.417-.889-.228-.492-.947-.067-.725.424zM102.447 71.332l12.62 1.111c6.71.593 13.42 1.178 20.13 1.77 1.545.135 3.096.27 4.641.411.537.047.537-.794 0-.841l-12.62-1.111c-6.71-.592-13.42-1.178-20.13-1.77-1.545-.135-3.096-.27-4.641-.411-.544-.047-.537.794 0 .841zM141.725 74.873l6.878.606c.329.027.658.06.987.088.538.047.538-.795 0-.842l-6.877-.606c-.33-.027-.659-.06-.988-.087-.537-.047-.53.794 0 .841zM72.001 40.985c-.625-4.2-1.256-8.408-1.88-12.609-1.001-6.698-2.002-13.396-2.996-20.094l-.685-4.605c-.08-.538-.894-.31-.813.222.625 4.201 1.256 8.408 1.88 12.61 1.001 6.697 2.002 13.395 2.996 20.094l.685 4.604c.081.539.894.31.813-.222zM49.73 57.343c-3.944-1.555-7.893-3.116-11.835-4.671-6.287-2.484-12.574-4.962-18.86-7.446-1.444-.572-2.882-1.137-4.326-1.71-.503-.195-.718.613-.221.815 3.942 1.555 7.892 3.117 11.834 4.672 6.287 2.484 12.573 4.961 18.86 7.445 1.444.572 2.881 1.138 4.325 1.71.504.195.726-.613.222-.815zM52.725 84.857l-9.954 7.936-15.865 12.65-3.64 2.901c-.423.337.175.929.591.592L33.811 101l15.864-12.65 3.64-2.901c.424-.337-.174-.922-.59-.592zM77.992 96.018c.625 4.201 1.256 8.408 1.88 12.609 1.002 6.698 2.002 13.396 2.996 20.094l.686 4.605c.08.532.886.31.812-.222-.624-4.201-1.256-8.408-1.88-12.609-1.001-6.698-2.002-13.396-2.996-20.094l-.685-4.605c-.08-.539-.887-.31-.813.222zM100.264 79.653c3.943 1.555 7.892 3.117 11.835 4.672 6.286 2.484 12.573 4.961 18.86 7.445 1.444.573 2.881 1.138 4.325 1.71.504.195.719-.612.222-.814-3.943-1.555-7.892-3.117-11.835-4.672-6.286-2.484-12.573-4.962-18.86-7.446-1.444-.572-2.881-1.137-4.325-1.71-.497-.195-.719.62-.222.815zM97.275 52.147l9.954-7.937 15.865-12.65 3.64-2.9c.423-.337-.175-.93-.591-.593-3.318 2.645-6.636 5.29-9.954 7.937l-15.864 12.649-3.64 2.901c-.43.33.167.922.59.593zM79.067 41.248c.826-5.467 1.659-10.933 2.485-16.392.114-.768.235-1.529.35-2.296.08-.532-.726-.76-.813-.222-.826 5.466-1.66 10.932-2.486 16.392-.114.767-.235 1.528-.349 2.296-.08.525.732.753.813.222zM82.277 20.392C83.103 14.926 83.937 9.46 84.763 4c.114-.767.235-1.528.349-2.295.08-.532-.726-.76-.813-.222-.826 5.466-1.659 10.932-2.485 16.392-.114.767-.235 1.528-.35 2.295-.073.525.733.754.813.222zM53.477 51.339c-4.299-3.447-8.604-6.894-12.902-10.34-.612-.492-1.223-.977-1.827-1.468-.417-.337-1.015.256-.591.593 4.298 3.446 8.603 6.893 12.902 10.34.611.491 1.222.976 1.827 1.467.416.337 1.014-.256.59-.592zM37.069 38.124c-4.299-3.447-8.604-6.893-12.903-10.34-.611-.491-1.222-.976-1.827-1.468-.416-.336-1.014.256-.59.593 4.298 3.447 8.603 6.893 12.902 10.34.61.491 1.222.976 1.826 1.468.41.336 1.008-.256.592-.593zM49.407 78.603c-5.138 2.013-10.277 4.025-15.408 6.038l-2.156.848c-.497.196-.282 1.01.222.815 5.138-2.013 10.276-4.026 15.407-6.038l2.156-.849c.497-.202.282-1.016-.221-.814zM29.781 86.237c-5.138 2.013-10.276 4.025-15.408 6.038l-2.156.848c-.497.196-.282 1.01.222.815 5.138-2.013 10.276-4.026 15.408-6.039l2.156-.848c.497-.195.282-1.01-.222-.814zM70.933 95.755c-.826 5.467-1.659 10.933-2.485 16.399-.114.768-.235 1.528-.35 2.296-.08.532.726.761.813.222.826-5.466 1.66-10.932 2.486-16.399.114-.767.235-1.528.349-2.295.074-.525-.732-.754-.813-.222zM67.716 116.611c-.826 5.466-1.66 10.932-2.485 16.399-.114.767-.235 1.528-.35 2.295-.08.532.726.761.813.222.826-5.466 1.66-10.932 2.485-16.398.114-.768.235-1.529.35-2.296.08-.525-.733-.754-.813-.222zM96.516 85.665c4.299 3.446 8.604 6.893 12.903 10.34.611.491 1.222.976 1.827 1.467.416.337 1.014-.256.591-.592-4.299-3.447-8.604-6.894-12.903-10.34-.61-.492-1.222-.977-1.827-1.468-.416-.337-1.014.25-.59.593zM112.932 98.88c4.298 3.446 8.603 6.893 12.902 10.339.611.492 1.222.976 1.827 1.468.416.336 1.014-.256.591-.593-4.299-3.446-8.604-6.893-12.903-10.34-.611-.491-1.222-.976-1.826-1.467-.417-.337-1.015.255-.591.592zM100.587 58.4c5.138-2.012 10.276-4.025 15.407-6.038l2.156-.848c.497-.196.282-1.01-.221-.815-5.138 2.013-10.277 4.026-15.408 6.039l-2.156.848c-.497.202-.282 1.016.222.815zM120.212 50.767c5.138-2.013 10.277-4.026 15.408-6.039l2.156-.848c.497-.195.282-1.01-.222-.815-5.138 2.013-10.276 4.026-15.407 6.039l-2.156.848c-.497.195-.282 1.01.221.815zM83.023 42.069l2.6-9.64c.12-.458.248-.922.369-1.38.14-.525-.672-.747-.813-.222-.867 3.21-1.733 6.429-2.6 9.64-.12.458-.248.922-.369 1.38-.14.525.672.747.813.222zM86.361 29.427c.866-3.212 1.733-6.43 2.6-9.64.12-.458.248-.923.369-1.38.14-.526-.672-.748-.813-.223-.867 3.211-1.733 6.43-2.6 9.64-.12.458-.248.923-.369 1.38-.14.525.672.748.813.223zM89.726 17.1c.867-3.21 1.733-6.428 2.6-9.64.12-.457.248-.922.369-1.38.14-.525-.672-.747-.813-.222-.866 3.211-1.733 6.43-2.6 9.64-.12.458-.248.923-.369 1.38-.14.519.672.74.813.223zM56.17 48.316c-2.344-2.356-4.681-4.712-7.025-7.075-.336-.337-.672-.68-1.008-1.017-.383-.383-.974.21-.59.593 2.343 2.356 4.68 4.712 7.025 7.075.335.337.671.68 1.007 1.016.383.39.974-.202.591-.592zM46.915 39.1a6815.426 6815.426 0 01-7.026-7.075c-.335-.337-.671-.68-1.007-1.016-.383-.384-.974.208-.591.592 2.344 2.356 4.681 4.712 7.025 7.075.336.337.672.68 1.008 1.017.383.39.974-.21.591-.593zM37.942 30.019c-2.344-2.356-4.682-4.712-7.026-7.075-.336-.337-.672-.68-1.007-1.017-.383-.383-.974.209-.591.593 2.344 2.356 4.681 4.712 7.025 7.075.336.336.672.68 1.008 1.016.382.384.974-.208.59-.592zM48.144 74.752l-9.631 2.565c-.457.121-.92.242-1.377.364-.524.14-.303.949.221.814l9.632-2.565 1.377-.363c.523-.142.302-.956-.222-.815zM35.55 78.179l-9.631 2.564c-.457.122-.92.243-1.377.364-.524.141-.302.95.222.815l9.631-2.565 1.377-.364c.524-.141.302-.956-.221-.814zM23.212 81.423l-9.631 2.565-1.377.364c-.524.141-.302.949.221.814l9.632-2.564c.457-.122.92-.243 1.377-.364.524-.141.302-.956-.222-.815zM66.977 94.934l-2.6 9.64c-.12.458-.248.923-.368 1.38-.142.525.671.748.812.222l2.6-9.64c.12-.457.248-.922.369-1.38.134-.525-.672-.747-.813-.222zM63.64 107.577l-2.6 9.64c-.121.457-.249.922-.37 1.38-.14.525.672.747.813.222l2.6-9.64c.12-.458.248-.922.369-1.38.134-.525-.672-.747-.813-.222zM60.274 119.903l-2.6 9.64c-.12.457-.248.922-.369 1.38-.14.525.672.747.813.222l2.6-9.64c.12-.458.248-.922.369-1.38.134-.518-.672-.741-.813-.222zM93.823 88.68a6528.52 6528.52 0 017.025 7.075c.336.337.672.68 1.008 1.017.383.384.974-.209.591-.592a7020.181 7020.181 0 01-7.026-7.076c-.335-.336-.671-.68-1.007-1.016-.376-.384-.967.209-.591.592zM103.078 97.903c2.344 2.356 4.682 4.712 7.026 7.075.336.337.672.68 1.007 1.017.383.383.974-.209.591-.593-2.344-2.356-4.681-4.712-7.025-7.075-.336-.337-.672-.68-1.008-1.016-.376-.39-.973.208-.591.592zM112.052 106.984c2.344 2.356 4.681 4.713 7.025 7.075.336.337.672.68 1.008 1.017.382.384.974-.209.591-.592a7840.155 7840.155 0 01-7.026-7.076c-.336-.336-.671-.68-1.007-1.016-.376-.384-.974.209-.591.592zM101.856 62.251l9.632-2.565 1.376-.363c.524-.142.303-.95-.221-.815l-9.632 2.565c-.456.121-.92.242-1.377.364-.524.14-.302.955.222.814zM114.443 58.825l9.631-2.565 1.377-.364c.524-.141.302-.949-.221-.814l-9.632 2.565-1.377.363c-.517.141-.295.956.222.815zM126.781 55.58l9.632-2.565c.456-.121.92-.242 1.376-.364.524-.14.303-.949-.221-.814l-9.632 2.565-1.377.363c-.523.142-.302.956.222.815zM87.308 43.584c2.552-5.783 5.111-11.566 7.663-17.342.37-.828.733-1.662 1.102-2.49.215-.492-.504-.923-.725-.424-2.553 5.782-5.112 11.565-7.664 17.34-.37.829-.732 1.663-1.101 2.492-.215.484.51.915.725.424zM96.886 21.604c2.552-5.783 5.111-11.565 7.663-17.341.37-.828.732-1.663 1.102-2.49.215-.492-.504-.923-.726-.425-2.552 5.783-5.11 11.565-7.663 17.341-.37.828-.732 1.663-1.102 2.491-.215.491.51.922.726.424zM59.616 45.354c-3.714-5.11-7.435-10.219-11.15-15.328-.537-.734-1.067-1.468-1.605-2.202-.315-.43-1.04-.013-.725.424 3.714 5.11 7.435 10.22 11.15 15.329.537.734 1.067 1.467 1.605 2.201.315.431 1.047.014.725-.424zM45.424 26.054c-3.714-5.11-7.435-10.22-11.15-15.328-.537-.734-1.068-1.468-1.605-2.202-.316-.43-1.04-.013-.725.424 3.714 5.11 7.435 10.22 11.15 15.329.537.733 1.067 1.467 1.605 2.201.315.43 1.04.013.725-.424zM47.311 70.275l-18.82 2.02c-.9.094-1.8.195-2.7.29-.53.053-.537.902 0 .841l18.82-2.02c.9-.094 1.8-.195 2.7-.29.53-.053.538-.894 0-.84zM23.535 72.948l-18.82 2.02c-.9.094-1.8.195-2.7.289-.53.054-.537.902 0 .841l18.82-2.019c.9-.094 1.8-.195 2.7-.29.53-.053.537-.895 0-.841zM62.685 93.42c-2.552 5.782-5.11 11.565-7.663 17.341-.37.828-.732 1.663-1.102 2.491-.215.491.504.922.726.424 2.552-5.783 5.111-11.566 7.663-17.342.37-.828.732-1.662 1.102-2.49.221-.485-.504-.916-.726-.424zM53.108 115.399c-2.553 5.783-5.112 11.565-7.664 17.341-.37.828-.732 1.663-1.102 2.491-.215.492.504.922.726.424 2.552-5.782 5.111-11.565 7.663-17.341.37-.828.733-1.663 1.102-2.491.222-.491-.504-.922-.725-.424zM90.377 91.65c3.715 5.109 7.436 10.218 11.15 15.328.537.733 1.068 1.467 1.605 2.201.316.431 1.041.013.726-.424-3.715-5.11-7.436-10.22-11.15-15.329-.537-.733-1.068-1.467-1.605-2.201-.316-.43-1.041-.013-.725.424zM104.576 110.949c3.714 5.11 7.435 10.219 11.15 15.329.537.734 1.068 1.467 1.605 2.201.316.431 1.041.014.725-.424-3.714-5.109-7.435-10.219-11.149-15.328-.537-.734-1.068-1.468-1.605-2.202-.316-.431-1.041-.013-.726.424zM102.689 66.728l18.819-2.02c.9-.094 1.8-.195 2.7-.29.531-.053.538-.901 0-.84l-18.819 2.019c-.9.094-1.8.195-2.7.29-.531.053-.538.895 0 .84zM126.465 64.055l18.82-2.02c.9-.094 1.8-.195 2.7-.289.531-.054.537-.902 0-.841l-18.82 2.02c-.9.094-1.8.195-2.7.289-.53.054-.537.895 0 .841z"/></g></svg>