<svg width="1423" height="386" viewBox="0 0 1423 386" fill="none" xmlns="http://www.w3.org/2000/svg">
<g opacity="0.3">
<mask id="mask0" mask-type="alpha" maskUnits="userSpaceOnUse" x="-1" y="-1" width="1425" height="388">
<path d="M0 379.419L423.384 0.833693L422.452 0L0 377.751V379.419Z" fill="white"/>
<path d="M0 355.838L397.013 0.833693L396.081 0L0 354.171V355.838Z" fill="white"/>
<path d="M0 332.258L370.643 0.833693L369.71 0L0 330.59V332.258Z" fill="white"/>
<path d="M0 308.677L344.272 0.833693L343.34 0L0 307.01V308.677Z" fill="white"/>
<path d="M0 285.097L317.901 0.833693L316.969 0L0 283.43V285.097Z" fill="white"/>
<path d="M0 261.517L291.53 0.833693L290.598 0L0 259.849V261.517Z" fill="white"/>
<path d="M0 237.936L265.16 0.833693L264.227 0L0 236.269V237.936Z" fill="white"/>
<path d="M0 214.356L238.789 0.833693L237.856 0L0 212.688V214.356Z" fill="white"/>
<path d="M0 190.775L212.418 0.833693L211.486 0L0 189.108V190.775Z" fill="white"/>
<path d="M0 167.195L186.047 0.833693L185.115 0L0 165.528V167.195Z" fill="white"/>
<path d="M0 143.615L159.677 0.833693L158.744 0L0 141.947V143.615Z" fill="white"/>
<path d="M1423 1.37741L993.796 385.166L994.728 386L1423 3.04471V1.37741Z" fill="white"/>
<path d="M1423 24.9578L1020.17 385.166L1021.1 386L1423 26.6251V24.9578Z" fill="white"/>
<path d="M1423 48.5382L1046.54 385.166L1047.47 386L1423 50.2055V48.5382Z" fill="white"/>
<path d="M1423 72.1186L1072.91 385.166L1073.84 386L1423 73.7859V72.1186Z" fill="white"/>
<path d="M1423 95.699L1099.28 385.166L1100.21 386L1423 97.3663V95.699Z" fill="white"/>
<path d="M1423 119.279L1125.65 385.166L1126.58 386L1423 120.947V119.279Z" fill="white"/>
<path d="M1423 142.86L1152.02 385.166L1152.95 386L1423 144.527V142.86Z" fill="white"/>
<path d="M1423 166.44L1178.39 385.166L1179.32 386L1423 168.108V166.44Z" fill="white"/>
<path d="M1423 190.021L1204.76 385.166L1205.69 386L1423 191.688V190.021Z" fill="white"/>
<path d="M1423 213.601L1231.13 385.166L1232.07 386L1423 215.268V213.601Z" fill="white"/>
<path d="M1423 237.181L1257.5 385.166L1258.44 386L1423 238.849V237.181Z" fill="white"/>
<path d="M1423 260.762L1283.87 385.166L1284.81 386L1423 262.429V260.762Z" fill="white"/>
<path d="M1423 284.342L1310.25 385.166L1311.18 386L1423 286.01V284.342Z" fill="white"/>
<path d="M1423 307.923L1336.62 385.166L1337.55 386L1423 309.59V307.923Z" fill="white"/>
<path d="M1423 331.503L1362.99 385.166L1363.92 386L1423 333.171V331.503Z" fill="white"/>
<path d="M1423 355.083L1389.36 385.166L1390.29 386L1423 356.751V355.083Z" fill="white"/>
<path d="M1423 378.664L1415.73 385.166L1416.66 386L1423 380.331V378.664Z" fill="white"/>
<path d="M448.823 0L18.0783 385.166L19.0106 386L449.755 0.833693L448.823 0Z" fill="white"/>
<path d="M44.449 385.166L475.193 0L476.126 0.833693L45.3814 386L44.449 385.166Z" fill="white"/>
<path d="M501.564 0L70.8198 385.166L71.7521 386L502.496 0.833693L501.564 0Z" fill="white"/>
<path d="M97.1905 385.166L527.935 0L528.867 0.833693L98.1229 386L97.1905 385.166Z" fill="white"/>
<path d="M554.306 0L123.561 385.166L124.494 386L555.238 0.833693L554.306 0Z" fill="white"/>
<path d="M149.932 385.166L580.676 0L581.609 0.833693L150.864 386L149.932 385.166Z" fill="white"/>
<path d="M607.047 0L176.303 385.166L177.235 386L607.979 0.833693L607.047 0Z" fill="white"/>
<path d="M202.674 385.166L633.418 0L634.35 0.833693L203.606 386L202.674 385.166Z" fill="white"/>
<path d="M659.789 0L229.044 385.166L229.977 386L660.721 0.833693L659.789 0Z" fill="white"/>
<path d="M255.415 385.166L686.159 0L687.092 0.833693L256.347 386L255.415 385.166Z" fill="white"/>
<path d="M712.53 0L281.786 385.166L282.718 386L713.462 0.833693L712.53 0Z" fill="white"/>
<path d="M308.157 385.166L738.901 0L739.833 0.833693L309.089 386L308.157 385.166Z" fill="white"/>
<path d="M765.272 0L334.527 385.166L335.46 386L766.204 0.833693L765.272 0Z" fill="white"/>
<path d="M360.898 385.166L791.642 0L792.575 0.833693L361.83 386L360.898 385.166Z" fill="white"/>
<path d="M818.013 0L387.269 385.166L388.201 386L818.945 0.833693L818.013 0Z" fill="white"/>
<path d="M413.64 385.166L844.384 0L845.316 0.833693L414.572 386L413.64 385.166Z" fill="white"/>
<path d="M870.755 0L440.01 385.166L440.943 386L871.687 0.833693L870.755 0Z" fill="white"/>
<path d="M466.381 385.166L897.125 0L898.058 0.833693L467.313 386L466.381 385.166Z" fill="white"/>
<path d="M923.496 0L492.752 385.166L493.684 386L924.428 0.833693L923.496 0Z" fill="white"/>
<path d="M519.123 385.166L949.867 0L950.799 0.833693L520.055 386L519.123 385.166Z" fill="white"/>
<path d="M976.238 0L545.493 385.166L546.426 386L977.17 0.833693L976.238 0Z" fill="white"/>
<path d="M571.864 385.166L1002.61 0L1003.54 0.833693L572.796 386L571.864 385.166Z" fill="white"/>
<path d="M1028.98 0L598.235 385.166L599.167 386L1029.91 0.833693L1028.98 0Z" fill="white"/>
<path d="M624.606 385.166L1055.35 0L1056.28 0.833693L625.538 386L624.606 385.166Z" fill="white"/>
<path d="M1081.72 0L650.976 385.166L651.909 386L1082.65 0.833693L1081.72 0Z" fill="white"/>
<path d="M677.347 385.166L1108.09 0L1109.02 0.833693L678.279 386L677.347 385.166Z" fill="white"/>
<path d="M1134.46 0L703.718 385.166L704.65 386L1135.39 0.833693L1134.46 0Z" fill="white"/>
<path d="M730.089 385.166L1160.83 0L1161.77 0.833693L731.021 386L730.089 385.166Z" fill="white"/>
<path d="M1187.2 0L756.459 385.166L757.392 386L1188.14 0.833693L1187.2 0Z" fill="white"/>
<path d="M782.83 385.166L1213.57 0L1214.51 0.833693L783.762 386L782.83 385.166Z" fill="white"/>
<path d="M1239.95 0L809.201 385.166L810.133 386L1240.88 0.833693L1239.95 0Z" fill="white"/>
<path d="M835.572 385.166L1266.32 0L1267.25 0.833693L836.504 386L835.572 385.166Z" fill="white"/>
<path d="M1292.69 0L861.942 385.166L862.875 386L1293.62 0.833693L1292.69 0Z" fill="white"/>
<path d="M888.313 385.166L1319.06 0L1319.99 0.833693L889.245 386L888.313 385.166Z" fill="white"/>
<path d="M1345.43 0L914.684 385.166L915.616 386L1346.36 0.833693L1345.43 0Z" fill="white"/>
<path d="M941.055 385.166L1371.8 0L1372.73 0.833693L941.987 386L941.055 385.166Z" fill="white"/>
<path d="M1398.17 0L967.425 385.166L968.358 386L1399.1 0.833693L1398.17 0Z" fill="white"/>
<path d="M0 379.419L423.384 0.833693L422.452 0L0 377.751V379.419Z" stroke="white"/>
<path d="M0 355.838L397.013 0.833693L396.081 0L0 354.171V355.838Z" stroke="white"/>
<path d="M0 332.258L370.643 0.833693L369.71 0L0 330.59V332.258Z" stroke="white"/>
<path d="M0 308.677L344.272 0.833693L343.34 0L0 307.01V308.677Z" stroke="white"/>
<path d="M0 285.097L317.901 0.833693L316.969 0L0 283.43V285.097Z" stroke="white"/>
<path d="M0 261.517L291.53 0.833693L290.598 0L0 259.849V261.517Z" stroke="white"/>
<path d="M0 237.936L265.16 0.833693L264.227 0L0 236.269V237.936Z" stroke="white"/>
<path d="M0 214.356L238.789 0.833693L237.856 0L0 212.688V214.356Z" stroke="white"/>
<path d="M0 190.775L212.418 0.833693L211.486 0L0 189.108V190.775Z" stroke="white"/>
<path d="M0 167.195L186.047 0.833693L185.115 0L0 165.528V167.195Z" stroke="white"/>
<path d="M0 143.615L159.677 0.833693L158.744 0L0 141.947V143.615Z" stroke="white"/>
<path d="M1423 1.37741L993.796 385.166L994.728 386L1423 3.04471V1.37741Z" stroke="white"/>
<path d="M1423 24.9578L1020.17 385.166L1021.1 386L1423 26.6251V24.9578Z" stroke="white"/>
<path d="M1423 48.5382L1046.54 385.166L1047.47 386L1423 50.2055V48.5382Z" stroke="white"/>
<path d="M1423 72.1186L1072.91 385.166L1073.84 386L1423 73.7859V72.1186Z" stroke="white"/>
<path d="M1423 95.699L1099.28 385.166L1100.21 386L1423 97.3663V95.699Z" stroke="white"/>
<path d="M1423 119.279L1125.65 385.166L1126.58 386L1423 120.947V119.279Z" stroke="white"/>
<path d="M1423 142.86L1152.02 385.166L1152.95 386L1423 144.527V142.86Z" stroke="white"/>
<path d="M1423 166.44L1178.39 385.166L1179.32 386L1423 168.108V166.44Z" stroke="white"/>
<path d="M1423 190.021L1204.76 385.166L1205.69 386L1423 191.688V190.021Z" stroke="white"/>
<path d="M1423 213.601L1231.13 385.166L1232.07 386L1423 215.268V213.601Z" stroke="white"/>
<path d="M1423 237.181L1257.5 385.166L1258.44 386L1423 238.849V237.181Z" stroke="white"/>
<path d="M1423 260.762L1283.87 385.166L1284.81 386L1423 262.429V260.762Z" stroke="white"/>
<path d="M1423 284.342L1310.25 385.166L1311.18 386L1423 286.01V284.342Z" stroke="white"/>
<path d="M1423 307.923L1336.62 385.166L1337.55 386L1423 309.59V307.923Z" stroke="white"/>
<path d="M1423 331.503L1362.99 385.166L1363.92 386L1423 333.171V331.503Z" stroke="white"/>
<path d="M1423 355.083L1389.36 385.166L1390.29 386L1423 356.751V355.083Z" stroke="white"/>
<path d="M1423 378.664L1415.73 385.166L1416.66 386L1423 380.331V378.664Z" stroke="white"/>
<path d="M448.823 0L18.0783 385.166L19.0106 386L449.755 0.833693L448.823 0Z" stroke="white"/>
<path d="M44.449 385.166L475.193 0L476.126 0.833693L45.3814 386L44.449 385.166Z" stroke="white"/>
<path d="M501.564 0L70.8198 385.166L71.7521 386L502.496 0.833693L501.564 0Z" stroke="white"/>
<path d="M97.1905 385.166L527.935 0L528.867 0.833693L98.1229 386L97.1905 385.166Z" stroke="white"/>
<path d="M554.306 0L123.561 385.166L124.494 386L555.238 0.833693L554.306 0Z" stroke="white"/>
<path d="M149.932 385.166L580.676 0L581.609 0.833693L150.864 386L149.932 385.166Z" stroke="white"/>
<path d="M607.047 0L176.303 385.166L177.235 386L607.979 0.833693L607.047 0Z" stroke="white"/>
<path d="M202.674 385.166L633.418 0L634.35 0.833693L203.606 386L202.674 385.166Z" stroke="white"/>
<path d="M659.789 0L229.044 385.166L229.977 386L660.721 0.833693L659.789 0Z" stroke="white"/>
<path d="M255.415 385.166L686.159 0L687.092 0.833693L256.347 386L255.415 385.166Z" stroke="white"/>
<path d="M712.53 0L281.786 385.166L282.718 386L713.462 0.833693L712.53 0Z" stroke="white"/>
<path d="M308.157 385.166L738.901 0L739.833 0.833693L309.089 386L308.157 385.166Z" stroke="white"/>
<path d="M765.272 0L334.527 385.166L335.46 386L766.204 0.833693L765.272 0Z" stroke="white"/>
<path d="M360.898 385.166L791.642 0L792.575 0.833693L361.83 386L360.898 385.166Z" stroke="white"/>
<path d="M818.013 0L387.269 385.166L388.201 386L818.945 0.833693L818.013 0Z" stroke="white"/>
<path d="M413.64 385.166L844.384 0L845.316 0.833693L414.572 386L413.64 385.166Z" stroke="white"/>
<path d="M870.755 0L440.01 385.166L440.943 386L871.687 0.833693L870.755 0Z" stroke="white"/>
<path d="M466.381 385.166L897.125 0L898.058 0.833693L467.313 386L466.381 385.166Z" stroke="white"/>
<path d="M923.496 0L492.752 385.166L493.684 386L924.428 0.833693L923.496 0Z" stroke="white"/>
<path d="M519.123 385.166L949.867 0L950.799 0.833693L520.055 386L519.123 385.166Z" stroke="white"/>
<path d="M976.238 0L545.493 385.166L546.426 386L977.17 0.833693L976.238 0Z" stroke="white"/>
<path d="M571.864 385.166L1002.61 0L1003.54 0.833693L572.796 386L571.864 385.166Z" stroke="white"/>
<path d="M1028.98 0L598.235 385.166L599.167 386L1029.91 0.833693L1028.98 0Z" stroke="white"/>
<path d="M624.606 385.166L1055.35 0L1056.28 0.833693L625.538 386L624.606 385.166Z" stroke="white"/>
<path d="M1081.72 0L650.976 385.166L651.909 386L1082.65 0.833693L1081.72 0Z" stroke="white"/>
<path d="M677.347 385.166L1108.09 0L1109.02 0.833693L678.279 386L677.347 385.166Z" stroke="white"/>
<path d="M1134.46 0L703.718 385.166L704.65 386L1135.39 0.833693L1134.46 0Z" stroke="white"/>
<path d="M730.089 385.166L1160.83 0L1161.77 0.833693L731.021 386L730.089 385.166Z" stroke="white"/>
<path d="M1187.2 0L756.459 385.166L757.392 386L1188.14 0.833693L1187.2 0Z" stroke="white"/>
<path d="M782.83 385.166L1213.57 0L1214.51 0.833693L783.762 386L782.83 385.166Z" stroke="white"/>
<path d="M1239.95 0L809.201 385.166L810.133 386L1240.88 0.833693L1239.95 0Z" stroke="white"/>
<path d="M835.572 385.166L1266.32 0L1267.25 0.833693L836.504 386L835.572 385.166Z" stroke="white"/>
<path d="M1292.69 0L861.942 385.166L862.875 386L1293.62 0.833693L1292.69 0Z" stroke="white"/>
<path d="M888.313 385.166L1319.06 0L1319.99 0.833693L889.245 386L888.313 385.166Z" stroke="white"/>
<path d="M1345.43 0L914.684 385.166L915.616 386L1346.36 0.833693L1345.43 0Z" stroke="white"/>
<path d="M941.055 385.166L1371.8 0L1372.73 0.833693L941.987 386L941.055 385.166Z" stroke="white"/>
<path d="M1398.17 0L967.425 385.166L968.358 386L1399.1 0.833693L1398.17 0Z" stroke="white"/>
</mask>
<g mask="url(#mask0)">
<g opacity="0.5">
<path d="M250.965 95.4222V314.739H190.204V289.464C174.436 308.488 151.6 318 121.696 318C101.034 318 82.2758 313.38 65.4205 304.14C48.837 294.9 35.7877 281.719 26.2726 264.598C16.7575 247.476 12 227.637 12 205.08C12 182.524 16.7575 162.685 26.2726 145.563C35.7877 128.442 48.837 115.261 65.4205 106.021C82.2758 96.781 101.034 92.161 121.696 92.161C149.697 92.161 171.582 100.993 187.35 118.658V95.4222H250.965ZM132.706 265.821C148.746 265.821 162.067 260.385 172.669 249.515C183.272 238.372 188.573 223.561 188.573 205.08C188.573 186.6 183.272 171.925 172.669 161.054C162.067 149.912 148.746 144.34 132.706 144.34C116.394 144.34 102.937 149.912 92.3346 161.054C81.7321 171.925 76.4308 186.6 76.4308 205.08C76.4308 223.561 81.7321 238.372 92.3346 249.515C102.937 260.385 116.394 265.821 132.706 265.821Z" fill="white"/>
<path d="M250.965 95.4222V314.739H190.204V289.464C174.436 308.488 151.6 318 121.696 318C101.034 318 82.2758 313.38 65.4205 304.14C48.837 294.9 35.7877 281.719 26.2726 264.598C16.7575 247.476 12 227.637 12 205.08C12 182.524 16.7575 162.685 26.2726 145.563C35.7877 128.442 48.837 115.261 65.4205 106.021C82.2758 96.781 101.034 92.161 121.696 92.161C149.697 92.161 171.582 100.993 187.35 118.658V95.4222H250.965ZM132.706 265.821C148.746 265.821 162.067 260.385 172.669 249.515C183.272 238.372 188.573 223.561 188.573 205.08C188.573 186.6 183.272 171.925 172.669 161.054C162.067 149.912 148.746 144.34 132.706 144.34C116.394 144.34 102.937 149.912 92.3346 161.054C81.7321 171.925 76.4308 186.6 76.4308 205.08C76.4308 223.561 81.7321 238.372 92.3346 249.515C102.937 260.385 116.394 265.821 132.706 265.821Z" fill="url(#paint0_linear)"/>
<path d="M371.846 100.314H428.121V149.232H373.477V314.739H309.862V90.5304C309.862 65.5277 317.202 45.6887 331.883 31.0132C346.835 16.3377 367.768 9 394.682 9C404.197 9 413.169 10.0871 421.596 12.2612C430.296 14.1636 437.5 17.0172 443.209 20.8219L426.49 66.8866C419.15 61.723 410.586 59.1412 400.799 59.1412C381.497 59.1412 371.846 69.7401 371.846 90.938V100.314Z" fill="white"/>
<path d="M371.846 100.314H428.121V149.232H373.477V314.739H309.862V90.5304C309.862 65.5277 317.202 45.6887 331.883 31.0132C346.835 16.3377 367.768 9 394.682 9C404.197 9 413.169 10.0871 421.596 12.2612C430.296 14.1636 437.5 17.0172 443.209 20.8219L426.49 66.8866C419.15 61.723 410.586 59.1412 400.799 59.1412C381.497 59.1412 371.846 69.7401 371.846 90.938V100.314Z" fill="url(#paint1_linear)"/>
<path d="M521.98 100.314H578.255V149.232H523.611V314.739H459.996V90.5304C459.996 65.5277 467.336 45.6887 482.016 31.0132C496.968 16.3377 517.902 9 544.816 9C554.331 9 563.302 10.0871 571.73 12.2612C580.429 14.1636 587.634 17.0172 593.343 20.8219L576.623 66.8866C569.283 61.723 560.72 59.1412 550.933 59.1412C531.631 59.1412 521.98 69.7401 521.98 90.938V100.314Z" fill="white"/>
<path d="M521.98 100.314H578.255V149.232H523.611V314.739H459.996V90.5304C459.996 65.5277 467.336 45.6887 482.016 31.0132C496.968 16.3377 517.902 9 544.816 9C554.331 9 563.302 10.0871 571.73 12.2612C580.429 14.1636 587.634 17.0172 593.343 20.8219L576.623 66.8866C569.283 61.723 560.72 59.1412 550.933 59.1412C531.631 59.1412 521.98 69.7401 521.98 90.938V100.314Z" fill="url(#paint2_linear)"/>
<path d="M743.476 92.161C770.662 92.161 792.547 100.314 809.131 116.62C825.986 132.926 834.414 157.113 834.414 189.182V314.739H770.798V198.966C770.798 181.573 766.992 168.664 759.38 160.239C751.768 151.542 740.758 147.194 726.349 147.194C710.31 147.194 697.532 152.222 688.017 162.277C678.502 172.061 673.744 186.736 673.744 206.303V314.739H610.129V12.2612H673.744V118.251C682.172 109.826 692.367 103.439 704.329 99.091C716.29 94.471 729.34 92.161 743.476 92.161Z" fill="white"/>
<path d="M743.476 92.161C770.662 92.161 792.547 100.314 809.131 116.62C825.986 132.926 834.414 157.113 834.414 189.182V314.739H770.798V198.966C770.798 181.573 766.992 168.664 759.38 160.239C751.768 151.542 740.758 147.194 726.349 147.194C710.31 147.194 697.532 152.222 688.017 162.277C678.502 172.061 673.744 186.736 673.744 206.303V314.739H610.129V12.2612H673.744V118.251C682.172 109.826 692.367 103.439 704.329 99.091C716.29 94.471 729.34 92.161 743.476 92.161Z" fill="url(#paint3_linear)"/>
<path d="M1113.1 95.4222V314.739H1052.75V288.649C1044.32 298.161 1034.26 305.499 1022.57 310.662C1010.88 315.554 998.239 318 984.646 318C955.829 318 932.993 309.711 916.137 293.133C899.282 276.555 890.854 251.96 890.854 219.348V95.4222H954.469V209.972C954.469 245.302 969.286 262.967 998.919 262.967C1014.14 262.967 1026.38 258.075 1035.62 248.292C1044.86 238.236 1049.48 223.425 1049.48 203.858V95.4222H1113.1Z" fill="white"/>
<path d="M1113.1 95.4222V314.739H1052.75V288.649C1044.32 298.161 1034.26 305.499 1022.57 310.662C1010.88 315.554 998.239 318 984.646 318C955.829 318 932.993 309.711 916.137 293.133C899.282 276.555 890.854 251.96 890.854 219.348V95.4222H954.469V209.972C954.469 245.302 969.286 262.967 998.919 262.967C1014.14 262.967 1026.38 258.075 1035.62 248.292C1044.86 238.236 1049.48 223.425 1049.48 203.858V95.4222H1113.1Z" fill="url(#paint4_linear)"/>
<path d="M1301.71 92.161C1322.1 92.161 1340.59 96.9169 1357.17 106.429C1374.03 115.669 1387.21 128.85 1396.73 145.971C1406.24 162.821 1411 182.524 1411 205.08C1411 227.637 1406.24 247.476 1396.73 264.598C1387.21 281.447 1374.03 294.628 1357.17 304.14C1340.59 313.38 1322.1 318 1301.71 318C1271.54 318 1248.56 308.488 1232.8 289.464V314.739H1172.03V12.2612H1235.65V118.658C1251.69 100.993 1273.71 92.161 1301.71 92.161ZM1290.7 265.821C1307.01 265.821 1320.33 260.385 1330.67 249.515C1341.27 238.372 1346.57 223.561 1346.57 205.08C1346.57 186.6 1341.27 171.925 1330.67 161.054C1320.33 149.912 1307.01 144.34 1290.7 144.34C1274.39 144.34 1260.93 149.912 1250.33 161.054C1240 171.925 1234.83 186.6 1234.83 205.08C1234.83 223.561 1240 238.372 1250.33 249.515C1260.93 260.385 1274.39 265.821 1290.7 265.821Z" fill="white"/>
<path d="M1301.71 92.161C1322.1 92.161 1340.59 96.9169 1357.17 106.429C1374.03 115.669 1387.21 128.85 1396.73 145.971C1406.24 162.821 1411 182.524 1411 205.08C1411 227.637 1406.24 247.476 1396.73 264.598C1387.21 281.447 1374.03 294.628 1357.17 304.14C1340.59 313.38 1322.1 318 1301.71 318C1271.54 318 1248.56 308.488 1232.8 289.464V314.739H1172.03V12.2612H1235.65V118.658C1251.69 100.993 1273.71 92.161 1301.71 92.161ZM1290.7 265.821C1307.01 265.821 1320.33 260.385 1330.67 249.515C1341.27 238.372 1346.57 223.561 1346.57 205.08C1346.57 186.6 1341.27 171.925 1330.67 161.054C1320.33 149.912 1307.01 144.34 1290.7 144.34C1274.39 144.34 1260.93 149.912 1250.33 161.054C1240 171.925 1234.83 186.6 1234.83 205.08C1234.83 223.561 1240 238.372 1250.33 249.515C1260.93 260.385 1274.39 265.821 1290.7 265.821Z" fill="url(#paint5_linear)"/>
</g>
</g>
</g>
<defs>
<linearGradient id="paint0_linear" x1="-79.4958" y1="16.9457" x2="312.268" y2="803.835" gradientUnits="userSpaceOnUse">
<stop stop-color="#FFA800"/>
<stop offset="0.546875" stop-color="#FF57C6"/>
<stop offset="1" stop-color="#10E6D9"/>
</linearGradient>
<linearGradient id="paint1_linear" x1="-79.4958" y1="16.9457" x2="312.268" y2="803.835" gradientUnits="userSpaceOnUse">
<stop stop-color="#FFA800"/>
<stop offset="0.546875" stop-color="#FF57C6"/>
<stop offset="1" stop-color="#10E6D9"/>
</linearGradient>
<linearGradient id="paint2_linear" x1="-79.4958" y1="16.9457" x2="312.268" y2="803.835" gradientUnits="userSpaceOnUse">
<stop stop-color="#FFA800"/>
<stop offset="0.546875" stop-color="#FF57C6"/>
<stop offset="1" stop-color="#10E6D9"/>
</linearGradient>
<linearGradient id="paint3_linear" x1="-79.4958" y1="16.9457" x2="312.268" y2="803.835" gradientUnits="userSpaceOnUse">
<stop stop-color="#FFA800"/>
<stop offset="0.546875" stop-color="#FF57C6"/>
<stop offset="1" stop-color="#10E6D9"/>
</linearGradient>
<linearGradient id="paint4_linear" x1="-79.4958" y1="16.9457" x2="312.268" y2="803.835" gradientUnits="userSpaceOnUse">
<stop stop-color="#FFA800"/>
<stop offset="0.546875" stop-color="#FF57C6"/>
<stop offset="1" stop-color="#10E6D9"/>
</linearGradient>
<linearGradient id="paint5_linear" x1="-79.4958" y1="16.9457" x2="312.268" y2="803.835" gradientUnits="userSpaceOnUse">
<stop stop-color="#FFA800"/>
<stop offset="0.546875" stop-color="#FF57C6"/>
<stop offset="1" stop-color="#10E6D9"/>
</linearGradient>
</defs>
</svg>
