<svg width="53" height="30" viewBox="0 0 53 30" fill="none" xmlns="http://www.w3.org/2000/svg"><path d="M2.37 15L15.715 1.653a.968.968 0 00-1.369-1.37L.284 14.348A.965.965 0 000 15a.965.965 0 00.283.653l14.063 14.063a.968.968 0 001.37-1.369L2.368 15z" fill="#FF7284"/><path d="M52 16a1 1 0 100-2H3a1 1 0 100 2h49z" fill="#FF7284"/></svg>615 15.653L14.347 29.7164C14.7251 30.0945 15.3382 30.0945 15.7164 29.7164C16.0945 29.3382 16.0945 28.7251 15.7164 28.347L2.3694 15Z" fill="#FF7284"/>
<path d="M52 16C52.5523 16 53 15.5523 53 15C53 14.4477 52.5523 14 52 14L3 14C2.44772 14 2 14.4477 2 15C2 15.5523 2.44772 16 3 16L52 16Z" fill="#FF7284"/>
</svg>
