<svg width="645" height="398" fill="none" xmlns="http://www.w3.org/2000/svg"><g clip-path="url(#clip0)"><path d="M98.832 380.918c17.593-15.434 19.197-40.644 15.989-62.796-.531-3.701-.561-7.652-2.687-10.72-2.125-3.059-6.485-4.834-9.633-2.898-2.617 1.604-3.459 4.944-4.712 7.761-1.664 3.751-4.39 7.01-7.789 9.276-2.225 1.485-5.072 2.558-7.538 1.535-3.398-1.414-4.26-5.797-4.642-9.487-.711-6.889-1.433-13.768-2.145-20.648-.38-3.69-.792-7.461-2.325-10.84-1.534-3.38-4.431-6.348-8.05-6.95-3.62-.591-7.74 1.906-8.08 5.606-.14 1.534.33 3.069.4 4.603.071 1.544-.46 3.319-1.864 3.901-1.423.592-3.017-.291-4.24-1.244-4.22-3.309-7.338-7.821-10.275-12.334-2.937-4.513-5.825-9.136-9.734-12.826-3.9-3.68-9.042-6.378-14.355-6.097-5.323.281-10.586 4.172-11.348 9.507-.762 5.355 2.847 10.298 6.616 14.139 5.584 5.706 12 10.6 18.957 14.461 1.253.702 2.616 1.454 3.207 2.767 1.073 2.377-.992 5.075-3.328 6.148-2.646 1.223-5.663 1.263-8.5 1.915-2.837.652-5.815 2.266-6.607 5.114-1.092 3.941 2.496 7.551 5.885 9.798a71.092 71.092 0 0022.214 9.757c2.827.692 5.774 1.254 8.18 2.918 2.396 1.665 4.09 4.834 3.048 7.582-1.033 2.747-4.341 3.951-7.238 3.74-2.897-.211-5.614-1.474-8.44-2.196-5.284-1.354-11.79-.281-14.556 4.462-1.815 3.119-1.564 7.15-.1 10.47 1.453 3.319 3.97 6.037 6.596 8.503 9.182 8.645 20.43 15.173 32.64 17.961 12.22 2.778 23.236 2.677 34.454-2.888z" fill="#CFDAE9"/><path d="M100.948 397.374c-1.774-8.714-4.852-18.913-9.383-29.753-4.511-10.861-10.436-22.353-17.052-34.166a7499.388 7499.388 0 00-4.932-8.724c-1.624-2.858-3.238-5.696-4.982-8.374-3.469-5.365-7.218-10.269-10.917-14.801-3.699-4.543-7.378-8.715-10.846-12.596-3.479-3.87-6.787-7.42-9.935-10.529-6.285-6.238-11.949-10.66-15.959-13.528a124.457 124.457 0 00-4.681-3.229c-.521-.341-.932-.602-1.243-.802-.28-.181-.431-.261-.431-.251-.01.01.13.12.4.311.301.211.702.491 1.204.852 1.062.752 2.626 1.856 4.6 3.33 3.95 2.938 9.544 7.4 15.77 13.658 3.127 3.119 6.405 6.679 9.854 10.559 3.448 3.891 7.097 8.073 10.776 12.616 3.68 4.543 7.398 9.426 10.847 14.771 1.734 2.668 3.328 5.476 4.952 8.344 1.624 2.868 3.258 5.776 4.922 8.724 6.606 11.803 12.54 23.255 17.062 34.065 4.54 10.801 7.658 20.939 9.493 29.613" fill="#D9DFE8"/><path d="M64.398 316.346c.05 0 .11-.572.19-1.614.08-1.043.151-2.548.211-4.423.12-3.73.1-8.895.06-14.581-.04-5.696.02-10.84.19-14.56.081-1.866.161-3.37.231-4.403.06-1.043.08-1.614.03-1.624-.05-.01-.15.561-.29 1.594-.15 1.033-.311 2.537-.451 4.402-.301 3.731-.431 8.895-.391 14.591.05 5.616.1 10.69.14 14.571.01 1.755.01 3.229.01 4.412 0 1.053.03 1.635.07 1.635z" fill="#D9DFE8"/><path d="M15.979 312.716c0 .051.692.051 1.915.02 1.233-.03 3.007-.07 5.202-.06 4.401-.01 10.476.191 17.162.702 6.697.522 12.732 1.254 17.082 1.916 2.176.311 3.94.611 5.153.812 1.213.2 1.895.301 1.905.251.01-.051-.652-.231-1.855-.512a94.772 94.772 0 00-5.123-1.033c-4.34-.782-10.395-1.594-17.101-2.116-6.717-.511-12.812-.631-17.223-.501-2.205.05-3.99.17-5.212.281-1.233.1-1.905.19-1.905.24zM90.883 366.808c.02.01.11-.201.26-.612.171-.491.372-1.083.622-1.805.532-1.574 1.243-3.861 2.085-6.709 1.695-5.685 3.78-13.618 5.965-22.402 2.185-8.785 4.2-16.727 5.764-22.443.772-2.778 1.404-5.064 1.875-6.769.2-.742.361-1.344.501-1.845.11-.421.15-.652.13-.662-.02-.01-.11.2-.26.612-.171.491-.371 1.083-.622 1.805-.531 1.574-1.243 3.86-2.085 6.708-1.694 5.686-3.779 13.619-5.965 22.413-2.185 8.785-4.19 16.727-5.764 22.443-.772 2.778-1.403 5.064-1.874 6.769-.2.742-.361 1.344-.502 1.845-.11.411-.15.642-.13.652z" fill="#D9DFE8"/><path d="M25.602 353.441c0 .02.221.09.652.191.511.11 1.143.25 1.895.411 1.754.361 4.12.852 6.997 1.444 5.904 1.223 14.034 2.998 23.026 4.974 8.992 1.975 17.152 3.68 23.077 4.783 2.967.552 5.373.973 7.037 1.224.772.11 1.403.21 1.925.28.44.061.671.081.681.05 0-.02-.22-.09-.651-.19-.511-.11-1.133-.241-1.895-.411-1.754-.361-4.11-.853-6.987-1.444-5.904-1.224-14.044-2.999-23.026-4.974-8.982-1.976-17.142-3.68-23.077-4.784-2.967-.551-5.373-.972-7.037-1.223-.772-.11-1.404-.211-1.925-.281-.46-.06-.692-.08-.692-.05z" fill="#D9DFE8"/><path d="M185.274 136.914h-84.968v260.38h84.968v-260.38z" fill="#EDF0F4"/><path d="M252.168 136.914h-67.154v260.38h67.154v-260.38z" fill="#DFE9F5"/><path d="M176.943 178.592h-72.077v20.296h72.077v-20.296z" fill="#D9DFE8"/><path d="M110.921 181.139h-4.04v15.533h4.04v-15.533z" fill="#EDF0F4"/><path d="M115.672 184.408c0 .712-.571 1.283-1.283 1.283a1.28 1.28 0 01-1.283-1.283 1.28 1.28 0 011.283-1.284c.712 0 1.283.582 1.283 1.284zM114.389 191.187a1.282 1.282 0 10.001-2.565 1.282 1.282 0 00-.001 2.565z" fill="#D7E0EC"/><path d="M124.764 183.124h-3.969v11.934h3.969v-11.934zM130.499 183.124h-3.97v11.934h3.97v-11.934zM136.222 183.124h-3.969v11.934h3.969v-11.934zM141.957 183.124h-3.97v11.934h3.97v-11.934zM147.681 183.124h-3.97v11.934h3.97v-11.934zM153.415 183.124h-3.97v11.934h3.97v-11.934zM159.139 183.124h-3.97v11.934h3.97v-11.934zM164.873 183.124h-3.97v11.934h3.97v-11.934zM170.597 183.124h-3.97v11.934h3.97v-11.934zM176.331 183.124h-3.969v11.934h3.969v-11.934z" fill="#EDF0F4"/><path d="M176.943 211.102h-72.077v20.297h72.077v-20.297z" fill="#D9DFE8"/><path d="M110.921 213.659h-4.04v15.534h4.04v-15.534z" fill="#EDF0F4"/><path d="M115.672 216.929c0 .712-.571 1.283-1.283 1.283a1.28 1.28 0 01-1.283-1.283 1.28 1.28 0 011.283-1.284 1.28 1.28 0 011.283 1.284zM114.389 223.698a1.283 1.283 0 100-2.567 1.283 1.283 0 000 2.567z" fill="#D7E0EC"/><path d="M124.764 215.645h-3.969v11.933h3.969v-11.933zM130.499 215.645h-3.97v11.933h3.97v-11.933zM136.222 215.645h-3.969v11.933h3.969v-11.933zM141.957 215.645h-3.97v11.933h3.97v-11.933zM147.681 215.645h-3.97v11.933h3.97v-11.933zM153.415 215.645h-3.97v11.933h3.97v-11.933zM159.139 215.645h-3.97v11.933h3.97v-11.933zM164.873 215.645h-3.97v11.933h3.97v-11.933zM170.597 215.645h-3.97v11.933h3.97v-11.933zM176.331 215.645h-3.969v11.933h3.969v-11.933z" fill="#EDF0F4"/><path d="M176.943 243.623h-72.077v20.297h72.077v-20.297z" fill="#D9DFE8"/><path d="M110.921 246.17h-4.04v15.534h4.04V246.17z" fill="#EDF0F4"/><path d="M115.672 249.44a1.28 1.28 0 01-1.283 1.284 1.28 1.28 0 01-1.283-1.284 1.28 1.28 0 011.283-1.283c.712 0 1.283.571 1.283 1.283zM114.389 256.209a1.283 1.283 0 100-2.566 1.283 1.283 0 000 2.566z" fill="#D7E0EC"/><path d="M124.764 248.157h-3.969v11.933h3.969v-11.933zM130.499 248.157h-3.97v11.933h3.97v-11.933zM136.222 248.157h-3.969v11.933h3.969v-11.933zM141.957 248.157h-3.97v11.933h3.97v-11.933zM147.681 248.157h-3.97v11.933h3.97v-11.933zM153.415 248.157h-3.97v11.933h3.97v-11.933zM159.139 248.157h-3.97v11.933h3.97v-11.933zM164.873 248.157h-3.97v11.933h3.97v-11.933zM170.597 248.157h-3.97v11.933h3.97v-11.933zM176.331 248.157h-3.969v11.933h3.969v-11.933z" fill="#EDF0F4"/><path d="M176.943 276.134h-72.077v20.297h72.077v-20.297z" fill="#D9DFE8"/><path d="M110.921 278.681h-4.04v15.534h4.04v-15.534z" fill="#EDF0F4"/><path d="M115.672 281.95a1.28 1.28 0 01-1.283 1.284 1.28 1.28 0 01-1.283-1.284 1.28 1.28 0 011.283-1.283c.712 0 1.283.581 1.283 1.283zM114.389 288.73a1.283 1.283 0 100-2.567 1.283 1.283 0 000 2.567z" fill="#D7E0EC"/><path d="M124.764 280.667h-3.969V292.6h3.969v-11.933zM130.499 280.667h-3.97V292.6h3.97v-11.933zM136.222 280.667h-3.969V292.6h3.969v-11.933zM141.957 280.667h-3.97V292.6h3.97v-11.933zM147.681 280.667h-3.97V292.6h3.97v-11.933zM153.415 280.667h-3.97V292.6h3.97v-11.933zM159.139 280.667h-3.97V292.6h3.97v-11.933zM164.873 280.667h-3.97V292.6h3.97v-11.933zM170.597 280.667h-3.97V292.6h3.97v-11.933zM176.331 280.667h-3.969V292.6h3.969v-11.933z" fill="#EDF0F4"/><path d="M176.943 308.645h-72.077v20.296h72.077v-20.296z" fill="#D9DFE8"/><path d="M110.921 311.202h-4.04v15.533h4.04v-15.533z" fill="#EDF0F4"/><path d="M115.672 314.472c0 .712-.571 1.283-1.283 1.283a1.28 1.28 0 01-1.283-1.283 1.28 1.28 0 011.283-1.284 1.28 1.28 0 011.283 1.284zM114.389 321.241a1.283 1.283 0 100-2.567 1.283 1.283 0 000 2.567z" fill="#D7E0EC"/><path d="M124.764 313.188h-3.969v11.934h3.969v-11.934zM130.499 313.188h-3.97v11.934h3.97v-11.934zM136.222 313.188h-3.969v11.934h3.969v-11.934zM141.957 313.188h-3.97v11.934h3.97v-11.934zM147.681 313.188h-3.97v11.934h3.97v-11.934zM153.415 313.188h-3.97v11.934h3.97v-11.934zM159.139 313.188h-3.97v11.934h3.97v-11.934zM164.873 313.188h-3.97v11.934h3.97v-11.934zM170.597 313.188h-3.97v11.934h3.97v-11.934zM176.331 313.188h-3.969v11.934h3.969v-11.934z" fill="#EDF0F4"/><path d="M176.943 341.167h-72.077v20.297h72.077v-20.297z" fill="#D9DFE8"/><path d="M110.921 343.713h-4.04v15.534h4.04v-15.534z" fill="#EDF0F4"/><path d="M115.672 346.983a1.28 1.28 0 01-1.283 1.284 1.28 1.28 0 01-1.283-1.284 1.28 1.28 0 011.283-1.284 1.28 1.28 0 011.283 1.284zM114.389 353.752a1.283 1.283 0 100-2.567 1.283 1.283 0 000 2.567z" fill="#D7E0EC"/><path d="M124.764 345.699h-3.969v11.934h3.969v-11.934zM130.499 345.699h-3.97v11.934h3.97v-11.934zM136.222 345.699h-3.969v11.934h3.969v-11.934zM141.957 345.699h-3.97v11.934h3.97v-11.934zM147.681 345.699h-3.97v11.934h3.97v-11.934zM153.415 345.699h-3.97v11.934h3.97v-11.934zM159.139 345.699h-3.97v11.934h3.97v-11.934zM164.873 345.699h-3.97v11.934h3.97v-11.934zM170.597 345.699h-3.97v11.934h3.97v-11.934zM176.331 345.699h-3.969v11.934h3.969v-11.934z" fill="#EDF0F4"/><path d="M176.943 373.678h-72.077v20.296h72.077v-20.296z" fill="#D9DFE8"/><path d="M110.921 376.226h-4.04v15.533h4.04v-15.533z" fill="#EDF0F4"/><path d="M114.389 380.778a1.283 1.283 0 100-2.567 1.283 1.283 0 000 2.567zM114.389 386.273a1.282 1.282 0 10.001-2.565 1.282 1.282 0 00-.001 2.565z" fill="#D7E0EC"/><path d="M124.764 378.21h-3.969v11.934h3.969V378.21zM130.499 378.21h-3.97v11.934h3.97V378.21zM136.222 378.21h-3.969v11.934h3.969V378.21zM141.957 378.21h-3.97v11.934h3.97V378.21zM147.681 378.21h-3.97v11.934h3.97V378.21zM153.415 378.21h-3.97v11.934h3.97V378.21zM159.139 378.21h-3.97v11.934h3.97V378.21zM164.873 378.21h-3.97v11.934h3.97V378.21zM170.597 378.21h-3.97v11.934h3.97V378.21zM176.331 378.21h-3.969v11.934h3.969V378.21z" fill="#EDF0F4"/><path d="M149.446 178.591c-.02 0-.05-.211-.08-.622-.03-.411-.06-1.023-.08-1.805-.02-.782-.04-1.745-.091-2.848-.07-1.103-.14-2.376-.501-3.7-.381-1.324-.982-2.738-1.925-4.052-.932-1.313-2.255-2.486-3.939-3.168-1.674-.692-3.599-.953-5.594-1.134-2.005-.17-4.08-.351-6.205-.541-8.511-.742-16.22-1.213-21.814-1.324-2.796-.06-5.062-.05-6.626-.04-.742.01-1.333.01-1.804.01-.411 0-.632-.01-.632-.03 0-.02.211-.04.622-.08.471-.03 1.062-.07 1.804-.11 1.564-.071 3.83-.141 6.636-.121 5.604.01 13.343.431 21.854 1.173 2.125.191 4.2.372 6.215.552 2.005.191 3.98.461 5.734 1.203 1.765.722 3.158 1.986 4.11 3.36.963 1.374 1.554 2.838 1.925 4.202.351 1.393.391 2.667.431 3.78.03 1.113.01 2.076 0 2.858-.01.742-.02 1.334-.02 1.805 0 .411 0 .632-.02.632z" fill="#D9DFE8"/><path d="M127.582 178.591c-.02 0-.03-.2-.05-.591-.01-.442-.01-1.003-.02-1.695-.01-.732-.01-1.635-.09-2.668-.1-1.023-.261-2.226-.892-3.339-.622-1.103-1.855-1.935-3.248-2.497a8.873 8.873 0 00-4.732-.481 7.85 7.85 0 00-2.446.832c-.762.421-1.473 1.013-1.894 1.795a2.535 2.535 0 00.01 2.517 3.414 3.414 0 002.145 1.615c.902.22 1.845-.091 2.506-.723a3.657 3.657 0 001.123-2.386c.09-.893-.241-1.725-.752-2.447a5.392 5.392 0 00-1.895-1.675c-.721-.411-1.553-.471-2.375-.611a55.6 55.6 0 00-2.366-.311 65.494 65.494 0 00-4.281-.331c-2.626-.101-4.751-.07-6.225-.07-.692 0-1.253-.01-1.694-.01-.391-.01-.592-.021-.592-.041s.201-.04.592-.07c.441-.02 1.002-.05 1.694-.09 1.474-.06 3.599-.15 6.245-.1 1.324.03 2.767.11 4.311.27.772.081 1.574.181 2.386.291.411.06.822.121 1.253.191.441.08.872.24 1.273.441a5.824 5.824 0 012.085 1.815c.551.752.952 1.755.852 2.768a4.226 4.226 0 01-1.283 2.728c-.742.732-1.905 1.123-2.977.852a3.885 3.885 0 01-2.476-1.865 3.036 3.036 0 010-3.009c.491-.902 1.283-1.534 2.105-1.985.832-.452 1.724-.722 2.606-.873a9.32 9.32 0 014.972.552c1.444.601 2.737 1.494 3.409 2.717.651 1.214.782 2.457.862 3.5.05 1.053.03 1.956 0 2.698-.03.692-.05 1.253-.07 1.695-.04.391-.061.591-.071.591zM155.331 178.591c-.02 0-.071-.231-.151-.672-.08-.441-.2-1.093-.381-1.926-.371-1.664-.942-4.071-2.135-6.869-1.173-2.778-3.057-5.997-6.265-8.413-1.564-1.224-3.589-1.896-5.734-2.186-2.146-.311-4.431-.301-6.757-.361-9.313-.181-17.753-.141-23.868-.392-3.058-.11-5.524-.25-7.228-.381-.812-.07-1.464-.13-1.965-.17-.451-.04-.681-.08-.681-.1 0-.02.24-.02.691-.01.501.02 1.153.04 1.965.07 1.704.06 4.17.15 7.228.21 6.105.151 14.535.061 23.868.231 2.326.07 4.611.05 6.817.381 2.185.301 4.331 1.013 5.954 2.307 1.614 1.263 2.968 2.687 3.97 4.201 1.023 1.505 1.765 3.029 2.346 4.443 1.163 2.848 1.684 5.295 1.985 6.979.15.843.24 1.505.291 1.946.05.471.07.712.05.712zM175.952 140.154H105.86v10.178h70.092v-10.178z" fill="#D9DFE8"/><path d="M159.441 145.248h-38.163v5.094h38.163v-5.094z" fill="#EDF0F4"/><path d="M645 397.474c0 .14-144.404.261-322.48.261-178.156 0-322.52-.121-322.52-.261s144.364-.261 322.51-.261c178.086 0 322.49.111 322.49.261z" fill="#263238"/><path d="M592.041 272.143s-5.774-3.751-12.671 10.058c-6.887 13.809-9.483 21.761-9.483 21.761s-1.825 2.898-3.82 1.033c-1.995-1.865-4.751-7.19-8.1-6.197-3.478 1.022-4.591 4.933-3.879 10.649.712 5.716 1.814 18.302 1.915 19.435.09 1.113-.532 2.768-2.095 1.715-1.564-1.053-10.576-10.931-15.007-6.378-4.431 4.563.17 20.156.641 21.871.471 1.715.141 2.447-.671 2.888-.812.431-3.529-3.179-6.216-5.876-2.676-2.708-6.265-5.375-8.601-2.527-2.335 2.848-2.997 14.58 8.331 33.544l5.824 8.443 10.275-.652c21.904-2.747 30.756-10.489 31.558-14.079.802-3.59-3.499-4.773-7.278-5.225-3.78-.451-8.301-.371-8.451-1.273-.16-.903.221-1.625 1.855-2.307 1.644-.682 16.761-6.658 17.633-12.956.872-6.298-12.471-7.331-14.255-7.912-1.795-.582-.872-2.096.06-2.708.952-.621 11.548-7.501 16.49-10.459 4.942-2.958 7.328-6.238 5.995-9.617-1.283-3.259-7.167-2.156-9.874-2.577-2.697-.421-1.544-3.65-1.544-3.65s4.672-6.94 11.308-20.869c6.636-13.929-.05-16.205-.05-16.205" fill="#0084E4"/><path d="M585.855 284.498l-.121.301c-.09.21-.22.491-.391.862-.361.772-.882 1.885-1.543 3.309-1.344 2.868-3.319 7.01-5.775 12.114-4.912 10.219-11.819 24.268-19.507 39.762-7.679 15.503-14.626 29.532-19.598 39.721-2.477 5.084-4.481 9.206-5.875 12.064-.692 1.414-1.223 2.517-1.604 3.279-.18.361-.321.642-.421.852-.1.191-.15.281-.15.281l.12-.301c.09-.21.221-.491.391-.862.361-.772.882-1.885 1.544-3.309 1.343-2.868 3.318-7.01 5.774-12.114 4.912-10.219 11.819-24.268 19.508-39.772 7.679-15.493 14.626-29.522 19.598-39.711 2.476-5.084 4.481-9.206 5.874-12.064.692-1.414 1.223-2.517 1.604-3.279.181-.361.321-.642.421-.852.09-.181.151-.281.151-.281z" fill="#263238"/><path d="M561.526 306.389c.02-.01.12.241.27.692.151.451.361 1.113.602 1.925.481 1.635 1.082 3.911 1.704 6.438.601 2.487 1.143 4.734 1.554 6.468l.481 1.956c.11.461.17.722.14.732-.02.01-.12-.241-.27-.692a59.518 59.518 0 01-.592-1.935c-.461-1.645-1.042-3.921-1.654-6.448-.611-2.477-1.173-4.724-1.604-6.449-.19-.772-.361-1.423-.491-1.955-.12-.461-.17-.722-.14-.732zM567.219 324.771c-.03-.09 4.612-1.544 10.346-3.249 5.744-1.705 10.425-3.008 10.445-2.918.03.09-4.601 1.544-10.355 3.249-5.724 1.705-10.406 3.008-10.436 2.918zM554.348 348.036c0-.02.271-.04.752-.05.561 0 1.243-.01 2.055-.01 1.734-.01 4.13-.04 6.776-.161 2.647-.12 5.033-.311 6.767-.461.802-.07 1.494-.13 2.045-.171.481-.04.752-.05.762-.02 0 .02-.261.081-.742.161s-1.173.18-2.045.281c-1.724.21-4.12.441-6.777.561a93.59 93.59 0 01-6.796.06 47.69 47.69 0 01-2.055-.1c-.471-.03-.742-.06-.742-.09zM545.537 332.552c.02-.01.17.191.41.572.241.381.592.932 1.013 1.614.842 1.374 1.975 3.28 3.218 5.385a288.322 288.322 0 013.128 5.446c.391.702.701 1.273.912 1.664.21.401.311.622.291.632-.02.01-.171-.19-.411-.571-.241-.382-.592-.933-1.013-1.615a415.284 415.284 0 01-3.218-5.385 329.147 329.147 0 01-3.128-5.435c-.39-.702-.701-1.274-.912-1.665-.2-.411-.311-.632-.29-.642zM531.562 351.646c.02-.01.2.251.521.732.341.541.782 1.233 1.303 2.066a593.647 593.647 0 014.181 6.879 589.442 589.442 0 014.09 6.929c.481.853.882 1.565 1.203 2.116.28.502.421.793.4.803-.02.01-.2-.251-.521-.732-.341-.542-.782-1.234-1.303-2.066a604.217 604.217 0 01-4.18-6.879 574.82 574.82 0 01-4.09-6.93c-.481-.852-.882-1.564-1.203-2.116-.271-.511-.421-.792-.401-.802zM543.11 370.62c0-.02.341-.05.952-.081.682-.03 1.554-.07 2.607-.11 2.205-.09 5.243-.241 8.591-.481 3.348-.241 6.386-.542 8.571-.772 1.042-.111 1.915-.201 2.596-.271.612-.06.953-.08.963-.06 0 .02-.331.09-.943.19-.611.101-1.493.231-2.586.381-2.185.291-5.213.632-8.581.873-3.358.25-6.406.351-8.611.381-1.103.01-1.995.01-2.617 0-.601-.01-.942-.03-.942-.05z" fill="#263238"/><path d="M95.775 369.805c-3.128-1.644-6.817-1.875-10.295-1.323-1.875.3-3.83.842-5.103 2.236-1.283 1.394-1.544 3.871-.09 5.084.862.722 2.075.842 3.208.832 2.726-.01 5.754-.471 7.92 1.184 1.232.942 2.054 2.507 3.528 2.978 1.453.461 3.097-.381 3.87-1.695.781-1.303.811-2.948.47-4.422-.01 0-.36-3.219-3.508-4.874z" fill="#0084E4"/><path opacity=".3" d="M95.775 369.805c-3.128-1.644-6.817-1.875-10.295-1.323-1.875.3-3.83.842-5.103 2.236-1.283 1.394-1.544 3.871-.09 5.084.862.722 2.075.842 3.208.832 2.726-.01 5.754-.471 7.92 1.184 1.232.942 2.054 2.507 3.528 2.978 1.453.461 3.097-.381 3.87-1.695.781-1.303.811-2.948.47-4.422-.01 0-.36-3.219-3.508-4.874z" fill="#000"/><path d="M103.052 355.987c-1.934 2.728-5.654 1.795-7.368.11-1.714-1.684-2.426-4.111-3.077-6.428-1.484-5.295-2.978-10.84-1.805-16.205.351-1.605.963-3.199 2.095-4.392 1.133-1.184 2.878-1.886 4.461-1.455 1.875.512 3.028 2.357 3.86 4.112a38.61 38.61 0 013.699 16.596c-.01 2.668-.341 5.466-1.865 7.662z" fill="#0084E4"/><path opacity=".3" d="M103.052 355.987c-1.934 2.728-5.654 1.795-7.368.11-1.714-1.684-2.426-4.111-3.077-6.428-1.484-5.295-2.978-10.84-1.805-16.205.351-1.605.963-3.199 2.095-4.392 1.133-1.184 2.878-1.886 4.461-1.455 1.875.512 3.028 2.357 3.86 4.112a38.61 38.61 0 013.699 16.596c-.01 2.668-.341 5.466-1.865 7.662z" fill="#fff"/><path d="M108.295 359.947c-2.065-2.487-2.436-6.097-1.484-9.185.953-3.089 3.058-5.706 5.484-7.842a29.382 29.382 0 019.764-5.676c1.413-.482 2.897-.863 4.381-.712 1.483.15 2.967.922 3.658 2.246 1.013 1.955.011 4.322-1.062 6.247a74.326 74.326 0 01-6.456 9.688c-1.935 2.457-4.14 4.873-7.067 5.966-2.927 1.093-5.955.943-7.489-1.093" fill="#0084E4"/><path d="M102.892 397.303c-.04 0-.09-.441-.16-1.243-.081-.903-.181-2.046-.311-3.4-.151-1.434-.341-3.128-.732-4.983-.381-1.856-.992-3.861-1.764-5.897-.812-2.026-1.805-3.871-2.968-5.345-1.152-1.484-2.506-2.557-3.769-3.179A10.861 10.861 0 0090 372.233c-.792-.09-1.233-.15-1.233-.19 0-.04.441-.04 1.263-.01.812.06 1.995.27 3.329.892 1.343.602 2.766 1.695 3.98 3.209 1.222 1.504 2.245 3.39 3.077 5.445.792 2.076 1.393 4.102 1.754 5.987.361 1.885.521 3.61.632 5.054.1 1.444.13 2.608.14 3.42 0 .812-.01 1.263-.05 1.263z" fill="#263238"/><path d="M102.682 394.685c-.02 0-.03-.201-.03-.582 0-.431.01-.983.02-1.655.01-1.434.03-3.509-.03-6.067-.09-5.124-.481-12.194-1.283-19.976-.802-7.781-1.895-14.781-2.897-19.805a87.724 87.724 0 00-.702-3.389 84.376 84.376 0 00-.571-2.548c-.15-.651-.28-1.183-.371-1.604-.08-.371-.11-.562-.1-.572.02 0 .08.181.2.542.12.421.28.942.471 1.584.21.692.421 1.545.662 2.527.25.993.521 2.116.772 3.38 1.093 5.014 2.245 12.034 3.047 19.825.802 7.792 1.133 14.892 1.133 20.026.01 2.568-.06 4.643-.13 6.077-.05.672-.08 1.214-.111 1.655-.04.391-.06.582-.08.582z" fill="#263238"/><path d="M102.741 381.007c-.04 0-.03-.612.02-1.725.07-1.103.231-2.708.561-4.673a60.98 60.98 0 011.564-6.799 60.245 60.245 0 012.907-8.043c2.396-5.585 5.644-10.148 8.451-12.966.662-.752 1.394-1.284 1.975-1.815.301-.251.571-.502.842-.702.271-.191.531-.361.762-.522.922-.621 1.443-.952 1.453-.922.081.11-2.065 1.354-4.791 4.212-2.707 2.848-5.865 7.38-8.24 12.916a64.943 64.943 0 00-2.918 7.962c-.761 2.497-1.273 4.793-1.664 6.729a66.05 66.05 0 00-.721 4.623c-.091 1.123-.171 1.735-.201 1.725zM267.265 98.777c-.141 0-.261-11.06-.261-24.709 0-13.648.12-24.709.261-24.709.14 0 .26 11.061.26 24.71 0 13.637-.12 24.708-.26 24.708zM520.997 266.356H408.01v124.008h112.987V266.356z" fill="#263238"/><path d="M515.022 291.156H391.51v30.656h123.512v-30.656z" fill="#455A64"/><path d="M421.313 297.474h-24.32v3.74h24.32v-3.74zM421.313 303.912h-24.32v3.74h24.32v-3.74zM421.313 310.569h-24.32v3.741h24.32v-3.741zM430.934 299.73a1.39 1.39 0 01-1.393 1.394 1.39 1.39 0 01-1.394-1.394c0-.772.622-1.394 1.394-1.394.762 0 1.393.632 1.393 1.394zM437.091 299.73a1.39 1.39 0 01-1.394 1.394 1.39 1.39 0 01-1.393-1.394 1.39 1.39 0 011.393-1.393c.762 0 1.394.631 1.394 1.393zM443.245 299.73a1.39 1.39 0 01-1.393 1.394 1.39 1.39 0 01-1.394-1.394 1.39 1.39 0 011.394-1.393c.772 0 1.393.631 1.393 1.393zM449.401 299.73a1.39 1.39 0 01-1.393 1.394 1.39 1.39 0 01-1.394-1.394 1.39 1.39 0 011.394-1.393c.772 0 1.393.631 1.393 1.393zM497.107 299.73a1.39 1.39 0 01-1.393 1.394 1.39 1.39 0 01-1.394-1.394 1.39 1.39 0 011.394-1.393c.772 0 1.393.631 1.393 1.393zM503.383 299.73a1.39 1.39 0 01-1.394 1.394 1.39 1.39 0 01-1.393-1.394 1.39 1.39 0 011.393-1.393c.772 0 1.394.631 1.394 1.393zM455.556 299.73a1.39 1.39 0 01-1.394 1.394 1.39 1.39 0 01-1.393-1.394 1.39 1.39 0 011.393-1.393c.772 0 1.394.631 1.394 1.393zM485.79 299.73a1.39 1.39 0 01-1.393 1.394 1.39 1.39 0 01-1.394-1.394 1.39 1.39 0 011.394-1.393c.772 0 1.393.631 1.393 1.393z" fill="#263238"/><path d="M461.711 299.73a1.39 1.39 0 01-1.394 1.394 1.39 1.39 0 01-1.393-1.394 1.39 1.39 0 011.393-1.393c.772 0 1.394.631 1.394 1.393zM467.866 299.73a1.39 1.39 0 01-1.393 1.394 1.39 1.39 0 01-1.394-1.394 1.39 1.39 0 011.394-1.393c.772 0 1.393.631 1.393 1.393zM480.356 299.73a1.39 1.39 0 01-1.393 1.394 1.39 1.39 0 01-1.394-1.394 1.39 1.39 0 011.394-1.393c.772 0 1.393.631 1.393 1.393zM508.496 299.73a1.39 1.39 0 01-1.393 1.394 1.39 1.39 0 01-1.394-1.394 1.39 1.39 0 011.394-1.393c.761 0 1.393.631 1.393 1.393z" fill="#EDF0F4"/><path d="M474.03 299.73a1.39 1.39 0 01-1.393 1.394 1.39 1.39 0 01-1.393-1.394 1.39 1.39 0 011.393-1.393c.762 0 1.393.631 1.393 1.393zM491.655 299.73a1.39 1.39 0 01-1.394 1.394 1.39 1.39 0 01-1.393-1.394 1.39 1.39 0 011.393-1.393c.772 0 1.394.631 1.394 1.393z" fill="#0084E4"/><path d="M505.699 306.458c0-.772.622-1.394 1.394-1.394a1.39 1.39 0 011.393 1.394 1.39 1.39 0 01-1.393 1.394 1.398 1.398 0 01-1.394-1.394zM499.544 306.458c0-.772.622-1.394 1.394-1.394a1.39 1.39 0 011.393 1.394 1.39 1.39 0 01-1.393 1.394 1.398 1.398 0 01-1.394-1.394zM493.389 306.458a1.39 1.39 0 011.393-1.394c.772 0 1.394.622 1.394 1.394 0 .772-.622 1.394-1.394 1.394a1.39 1.39 0 01-1.393-1.394zM487.234 306.458c0-.772.622-1.394 1.394-1.394.771 0 1.393.622 1.393 1.394 0 .772-.622 1.394-1.393 1.394a1.391 1.391 0 01-1.394-1.394zM439.527 306.458c0-.772.622-1.394 1.393-1.394.772 0 1.394.622 1.394 1.394 0 .772-.622 1.394-1.394 1.394a1.391 1.391 0 01-1.393-1.394zM433.252 306.458a1.39 1.39 0 011.393-1.394c.772 0 1.394.622 1.394 1.394 0 .772-.622 1.394-1.394 1.394a1.39 1.39 0 01-1.393-1.394zM481.079 306.458c0-.772.622-1.394 1.394-1.394a1.39 1.39 0 011.393 1.394 1.39 1.39 0 01-1.393 1.394 1.391 1.391 0 01-1.394-1.394zM450.845 306.458a1.39 1.39 0 011.393-1.394c.772 0 1.394.622 1.394 1.394 0 .772-.622 1.394-1.394 1.394a1.39 1.39 0 01-1.393-1.394z" fill="#263238"/><path d="M474.924 306.458a1.39 1.39 0 011.393-1.394 1.39 1.39 0 011.393 1.394 1.39 1.39 0 01-1.393 1.394 1.39 1.39 0 01-1.393-1.394zM468.769 306.458a1.39 1.39 0 011.393-1.394c.772 0 1.394.622 1.394 1.394 0 .772-.622 1.394-1.394 1.394a1.39 1.39 0 01-1.393-1.394zM456.278 306.458c0-.772.622-1.394 1.393-1.394.772 0 1.394.622 1.394 1.394 0 .772-.622 1.394-1.394 1.394a1.391 1.391 0 01-1.393-1.394zM428.139 306.459c0-.772.622-1.394 1.394-1.394.771 0 1.393.622 1.393 1.394 0 .772-.622 1.394-1.393 1.394a1.398 1.398 0 01-1.394-1.394z" fill="#EDF0F4"/><path d="M462.613 306.458c0-.772.622-1.394 1.394-1.394a1.39 1.39 0 011.393 1.394 1.39 1.39 0 01-1.393 1.394 1.391 1.391 0 01-1.394-1.394zM444.98 306.458c0-.772.622-1.394 1.394-1.394a1.39 1.39 0 011.393 1.394 1.39 1.39 0 01-1.393 1.394 1.398 1.398 0 01-1.394-1.394z" fill="#0084E4"/><path d="M429.543 313.841a1.394 1.394 0 10-.001-2.787 1.394 1.394 0 00.001 2.787zM435.697 313.84a1.394 1.394 0 100-2.787 1.394 1.394 0 000 2.787zM441.853 313.84a1.394 1.394 0 100-2.787 1.394 1.394 0 000 2.787zM448.008 313.84a1.393 1.393 0 100-2.787 1.393 1.393 0 000 2.787zM495.715 313.84a1.393 1.393 0 100-2.786 1.393 1.393 0 000 2.786zM501.99 313.84a1.394 1.394 0 100-2.787 1.394 1.394 0 000 2.787zM454.163 313.84a1.394 1.394 0 100-2.787 1.394 1.394 0 000 2.787zM485.79 312.447a1.39 1.39 0 01-1.393 1.393 1.39 1.39 0 01-1.393-1.393 1.39 1.39 0 011.393-1.394 1.39 1.39 0 011.393 1.394z" fill="#263238"/><path d="M460.318 313.84a1.394 1.394 0 100-2.787 1.394 1.394 0 000 2.787zM467.866 312.447a1.39 1.39 0 01-1.393 1.393 1.39 1.39 0 01-1.393-1.393 1.39 1.39 0 011.393-1.394 1.39 1.39 0 011.393 1.394zM478.964 313.84a1.393 1.393 0 100-2.787 1.393 1.393 0 000 2.787zM508.496 312.447a1.39 1.39 0 01-1.393 1.393 1.39 1.39 0 01-1.394-1.393 1.39 1.39 0 011.394-1.394c.762 0 1.393.621 1.393 1.394z" fill="#EDF0F4"/><path d="M472.629 313.84a1.393 1.393 0 100-2.787 1.393 1.393 0 000 2.787zM490.262 313.84a1.393 1.393 0 100-2.787 1.393 1.393 0 000 2.787z" fill="#0084E4"/><path d="M515.022 328.992H391.51v30.656h123.512v-30.656z" fill="#455A64"/><path d="M430.625 337.255a1.39 1.39 0 01-1.393 1.394 1.39 1.39 0 01-1.393-1.394 1.39 1.39 0 011.393-1.393 1.39 1.39 0 011.393 1.393zM436.78 337.255a1.39 1.39 0 01-1.393 1.394 1.391 1.391 0 01-1.394-1.394 1.39 1.39 0 011.394-1.394 1.39 1.39 0 011.393 1.394zM442.936 337.255c0 .772-.622 1.394-1.394 1.394a1.39 1.39 0 01-1.393-1.394 1.39 1.39 0 011.393-1.394 1.39 1.39 0 011.394 1.394zM449.1 337.255a1.39 1.39 0 01-1.393 1.394 1.391 1.391 0 01-1.394-1.394 1.39 1.39 0 011.394-1.394c.761 0 1.393.621 1.393 1.394zM496.798 337.255c0 .772-.622 1.394-1.394 1.394a1.391 1.391 0 01-1.393-1.394 1.39 1.39 0 011.393-1.394 1.39 1.39 0 011.394 1.394zM503.083 337.255c0 .772-.622 1.394-1.394 1.394a1.39 1.39 0 01-1.393-1.394 1.39 1.39 0 011.393-1.394c.762 0 1.394.621 1.394 1.394zM455.255 337.255c0 .772-.622 1.394-1.394 1.394a1.391 1.391 0 01-1.393-1.394 1.39 1.39 0 011.393-1.394c.762 0 1.394.621 1.394 1.394zM485.489 337.255a1.39 1.39 0 01-1.393 1.394 1.39 1.39 0 01-1.393-1.394 1.39 1.39 0 011.393-1.394c.762 0 1.393.621 1.393 1.394z" fill="#263238"/><path d="M461.411 337.255c0 .772-.622 1.394-1.394 1.394a1.39 1.39 0 01-1.393-1.394 1.39 1.39 0 011.393-1.394c.762 0 1.394.621 1.394 1.394zM467.565 337.255a1.39 1.39 0 01-1.393 1.394 1.39 1.39 0 01-1.393-1.394 1.39 1.39 0 011.393-1.394 1.39 1.39 0 011.393 1.394zM480.056 337.255a1.39 1.39 0 01-1.393 1.394 1.391 1.391 0 01-1.394-1.394 1.39 1.39 0 011.394-1.394 1.39 1.39 0 011.393 1.394zM508.185 337.255c0 .772-.622 1.394-1.394 1.394a1.39 1.39 0 01-1.393-1.394 1.39 1.39 0 011.393-1.394 1.39 1.39 0 011.394 1.394z" fill="#EDF0F4"/><path d="M473.721 337.255c0 .772-.622 1.394-1.393 1.394a1.391 1.391 0 01-1.394-1.394 1.39 1.39 0 011.394-1.394 1.39 1.39 0 011.393 1.394zM491.343 337.255a1.39 1.39 0 01-1.393 1.394 1.39 1.39 0 01-1.393-1.394 1.39 1.39 0 011.393-1.394 1.39 1.39 0 011.393 1.394z" fill="#0084E4"/><path d="M505.397 343.982c0-.772.622-1.394 1.394-1.394a1.39 1.39 0 011.393 1.394 1.39 1.39 0 01-1.393 1.394 1.391 1.391 0 01-1.394-1.394zM499.243 343.982a1.39 1.39 0 011.393-1.394c.772 0 1.394.622 1.394 1.394 0 .772-.622 1.394-1.394 1.394a1.39 1.39 0 01-1.393-1.394zM493.087 343.982c0-.772.622-1.394 1.394-1.394.771 0 1.393.622 1.393 1.394 0 .772-.622 1.394-1.393 1.394a1.391 1.391 0 01-1.394-1.394zM486.923 343.982a1.39 1.39 0 011.393-1.394c.772 0 1.394.622 1.394 1.394 0 .772-.622 1.394-1.394 1.394a1.397 1.397 0 01-1.393-1.394zM439.225 343.982c0-.772.622-1.394 1.394-1.394.771 0 1.393.622 1.393 1.394 0 .772-.622 1.394-1.393 1.394a1.391 1.391 0 01-1.394-1.394zM432.94 343.982c0-.772.622-1.394 1.394-1.394a1.39 1.39 0 011.393 1.394 1.39 1.39 0 01-1.393 1.394 1.398 1.398 0 01-1.394-1.394zM480.768 343.982c0-.772.622-1.394 1.393-1.394.772 0 1.394.622 1.394 1.394 0 .772-.622 1.394-1.394 1.394a1.397 1.397 0 01-1.393-1.394zM450.533 343.982c0-.772.622-1.394 1.394-1.394a1.39 1.39 0 011.393 1.394 1.39 1.39 0 01-1.393 1.394 1.398 1.398 0 01-1.394-1.394z" fill="#263238"/><path d="M474.612 343.982c0-.772.622-1.394 1.394-1.394a1.39 1.39 0 011.393 1.394 1.39 1.39 0 01-1.393 1.394 1.398 1.398 0 01-1.394-1.394zM468.458 343.982a1.39 1.39 0 011.393-1.394 1.39 1.39 0 011.393 1.394 1.39 1.39 0 01-1.393 1.394 1.39 1.39 0 01-1.393-1.394zM455.966 343.982a1.39 1.39 0 011.393-1.394c.772 0 1.394.622 1.394 1.394 0 .772-.622 1.394-1.394 1.394a1.39 1.39 0 01-1.393-1.394zM427.838 343.982c0-.772.622-1.394 1.394-1.394.771 0 1.393.622 1.393 1.394 0 .772-.622 1.394-1.393 1.394a1.391 1.391 0 01-1.394-1.394z" fill="#EDF0F4"/><path d="M462.303 343.982a1.39 1.39 0 011.393-1.394c.772 0 1.394.622 1.394 1.394 0 .772-.622 1.394-1.394 1.394a1.39 1.39 0 01-1.393-1.394zM444.679 343.982c0-.772.622-1.394 1.394-1.394a1.39 1.39 0 011.393 1.394 1.39 1.39 0 01-1.393 1.394 1.391 1.391 0 01-1.394-1.394z" fill="#0084E4"/><path d="M429.232 351.364a1.394 1.394 0 10-.001-2.787 1.394 1.394 0 00.001 2.787zM435.386 351.364a1.394 1.394 0 100-2.788 1.394 1.394 0 000 2.788zM441.542 351.364a1.393 1.393 0 100-2.786 1.393 1.393 0 000 2.786zM447.696 351.364a1.394 1.394 0 10-.001-2.787 1.394 1.394 0 00.001 2.787zM495.404 351.364a1.394 1.394 0 10-.001-2.787 1.394 1.394 0 00.001 2.787zM501.679 351.364a1.394 1.394 0 100-2.788 1.394 1.394 0 000 2.788zM453.852 351.364a1.394 1.394 0 10-.001-2.787 1.394 1.394 0 00.001 2.787zM484.085 351.364a1.394 1.394 0 100-2.788 1.394 1.394 0 000 2.788z" fill="#263238"/><path d="M460.017 351.364a1.394 1.394 0 10-.001-2.787 1.394 1.394 0 00.001 2.787zM466.171 351.364a1.394 1.394 0 100-2.788 1.394 1.394 0 000 2.788zM478.662 351.364a1.394 1.394 0 100-2.788 1.394 1.394 0 000 2.788zM508.184 349.97a1.39 1.39 0 01-1.393 1.394 1.391 1.391 0 01-1.394-1.394c0-.772.622-1.394 1.394-1.394a1.39 1.39 0 011.393 1.394z" fill="#EDF0F4"/><path d="M472.327 351.364a1.394 1.394 0 100-2.788 1.394 1.394 0 000 2.788zM489.95 351.364a1.394 1.394 0 10-.001-2.787 1.394 1.394 0 00.001 2.787z" fill="#0084E4"/><path d="M421.313 335.299h-24.32v3.74h24.32v-3.74zM421.313 341.737h-24.32v3.74h24.32v-3.74zM421.313 348.396h-24.32v3.741h24.32v-3.741z" fill="#263238"/><path d="M515.022 366.817H391.51v30.656h123.512v-30.656z" fill="#455A64"/><path d="M421.313 373.125h-24.32v3.741h24.32v-3.741zM421.313 379.573h-24.32v3.741h24.32v-3.741zM421.313 386.233h-24.32v3.74h24.32v-3.74zM430.185 375.09c0 .772-.622 1.394-1.394 1.394a1.39 1.39 0 01-1.393-1.394 1.39 1.39 0 011.393-1.394 1.391 1.391 0 011.394 1.394zM436.34 375.09a1.39 1.39 0 01-1.393 1.394 1.391 1.391 0 01-1.394-1.394c0-.772.622-1.394 1.394-1.394a1.39 1.39 0 011.393 1.394zM442.495 375.09c0 .772-.622 1.394-1.394 1.394a1.391 1.391 0 01-1.393-1.394c0-.772.622-1.394 1.393-1.394a1.391 1.391 0 011.394 1.394zM448.651 375.09c0 .772-.622 1.394-1.394 1.394a1.39 1.39 0 01-1.393-1.394 1.39 1.39 0 011.393-1.394 1.385 1.385 0 011.394 1.394zM496.357 375.09c0 .772-.622 1.394-1.393 1.394a1.391 1.391 0 01-1.394-1.394c0-.772.622-1.394 1.394-1.394a1.391 1.391 0 011.393 1.394zM502.632 375.09a1.39 1.39 0 01-1.393 1.394 1.391 1.391 0 01-1.394-1.394c0-.772.622-1.394 1.394-1.394a1.39 1.39 0 011.393 1.394zM454.805 375.09a1.39 1.39 0 01-1.393 1.394 1.39 1.39 0 01-1.393-1.394 1.39 1.39 0 011.393-1.394 1.384 1.384 0 011.393 1.394zM485.04 375.09c0 .772-.622 1.394-1.393 1.394a1.391 1.391 0 01-1.394-1.394c0-.772.622-1.394 1.394-1.394a1.385 1.385 0 011.393 1.394z" fill="#263238"/><path d="M460.961 375.09c0 .772-.622 1.394-1.393 1.394a1.391 1.391 0 01-1.394-1.394c0-.772.622-1.394 1.394-1.394.771 0 1.393.622 1.393 1.394zM467.116 375.09c0 .772-.622 1.394-1.394 1.394a1.39 1.39 0 01-1.393-1.394 1.39 1.39 0 011.393-1.394 1.385 1.385 0 011.394 1.394zM479.606 375.09a1.39 1.39 0 01-1.393 1.394 1.39 1.39 0 01-1.393-1.394 1.39 1.39 0 011.393-1.394 1.39 1.39 0 011.393 1.394zM507.746 375.09c0 .772-.622 1.394-1.394 1.394a1.39 1.39 0 01-1.393-1.394 1.39 1.39 0 011.393-1.394 1.391 1.391 0 011.394 1.394z" fill="#EDF0F4"/><path d="M473.27 375.09a1.39 1.39 0 01-1.393 1.394 1.39 1.39 0 01-1.393-1.394 1.39 1.39 0 011.393-1.394 1.384 1.384 0 011.393 1.394zM490.904 375.09a1.39 1.39 0 01-1.393 1.394 1.391 1.391 0 01-1.394-1.394c0-.772.622-1.394 1.394-1.394a1.39 1.39 0 011.393 1.394z" fill="#0084E4"/><path d="M504.949 381.808a1.39 1.39 0 011.393-1.394c.772 0 1.394.622 1.394 1.394 0 .772-.622 1.394-1.394 1.394a1.39 1.39 0 01-1.393-1.394zM498.794 381.808a1.39 1.39 0 011.393-1.394c.772 0 1.394.622 1.394 1.394 0 .772-.622 1.394-1.394 1.394a1.384 1.384 0 01-1.393-1.394zM492.638 381.808c0-.772.622-1.394 1.394-1.394.771 0 1.393.622 1.393 1.394 0 .772-.622 1.394-1.393 1.394a1.385 1.385 0 01-1.394-1.394zM486.483 381.808c0-.772.622-1.394 1.394-1.394a1.39 1.39 0 011.393 1.394 1.39 1.39 0 01-1.393 1.394 1.385 1.385 0 01-1.394-1.394zM438.776 381.808a1.39 1.39 0 011.393-1.394 1.39 1.39 0 011.393 1.394 1.39 1.39 0 01-1.393 1.394 1.384 1.384 0 01-1.393-1.394zM432.5 381.808c0-.772.622-1.394 1.394-1.394a1.39 1.39 0 011.393 1.394 1.39 1.39 0 01-1.393 1.394 1.385 1.385 0 01-1.394-1.394zM480.329 381.808a1.39 1.39 0 011.393-1.394 1.39 1.39 0 011.393 1.394 1.39 1.39 0 01-1.393 1.394 1.384 1.384 0 01-1.393-1.394zM450.094 381.808c0-.772.622-1.394 1.394-1.394a1.39 1.39 0 011.393 1.394 1.39 1.39 0 01-1.393 1.394 1.385 1.385 0 01-1.394-1.394z" fill="#263238"/><path d="M474.173 381.808c0-.772.622-1.394 1.393-1.394.772 0 1.394.622 1.394 1.394 0 .772-.622 1.394-1.394 1.394a1.385 1.385 0 01-1.393-1.394zM468.018 381.808c0-.772.622-1.394 1.394-1.394a1.39 1.39 0 011.393 1.394 1.39 1.39 0 01-1.393 1.394 1.385 1.385 0 01-1.394-1.394zM455.528 381.808a1.39 1.39 0 011.393-1.394 1.39 1.39 0 011.393 1.394 1.39 1.39 0 01-1.393 1.394 1.39 1.39 0 01-1.393-1.394zM427.388 381.808c0-.772.622-1.394 1.394-1.394a1.39 1.39 0 011.393 1.394 1.39 1.39 0 01-1.393 1.394 1.391 1.391 0 01-1.394-1.394z" fill="#EDF0F4"/><path d="M461.853 381.808c0-.772.622-1.394 1.393-1.394.772 0 1.394.622 1.394 1.394 0 .772-.622 1.394-1.394 1.394a1.391 1.391 0 01-1.393-1.394zM444.23 381.808a1.39 1.39 0 011.393-1.394c.772 0 1.394.622 1.394 1.394 0 .772-.622 1.394-1.394 1.394a1.384 1.384 0 01-1.393-1.394z" fill="#0084E4"/><path d="M430.186 387.796c0 .772-.622 1.394-1.394 1.394a1.39 1.39 0 01-1.393-1.394 1.39 1.39 0 011.393-1.394c.762 0 1.394.622 1.394 1.394zM436.34 387.795a1.39 1.39 0 01-1.393 1.394 1.391 1.391 0 01-1.394-1.394c0-.772.622-1.394 1.394-1.394.762 0 1.393.622 1.393 1.394zM442.496 387.795c0 .772-.622 1.394-1.394 1.394a1.39 1.39 0 01-1.393-1.394 1.39 1.39 0 011.393-1.394c.762 0 1.394.622 1.394 1.394zM448.651 387.795c0 .772-.622 1.394-1.394 1.394a1.39 1.39 0 01-1.393-1.394 1.39 1.39 0 011.393-1.394c.772 0 1.394.622 1.394 1.394zM496.358 387.795c0 .772-.622 1.394-1.394 1.394a1.39 1.39 0 01-1.393-1.394 1.39 1.39 0 011.393-1.394c.762 0 1.394.622 1.394 1.394zM502.633 387.795c0 .772-.622 1.394-1.393 1.394a1.391 1.391 0 01-1.394-1.394c0-.772.622-1.394 1.394-1.394.771 0 1.393.622 1.393 1.394zM454.806 387.795a1.39 1.39 0 01-1.393 1.394 1.39 1.39 0 01-1.393-1.394 1.39 1.39 0 011.393-1.394 1.39 1.39 0 011.393 1.394zM485.04 387.795c0 .772-.622 1.394-1.393 1.394a1.391 1.391 0 01-1.394-1.394c0-.772.622-1.394 1.394-1.394.771 0 1.393.622 1.393 1.394z" fill="#263238"/><path d="M460.961 387.795a1.39 1.39 0 01-1.393 1.394 1.391 1.391 0 01-1.394-1.394c0-.772.622-1.394 1.394-1.394a1.39 1.39 0 011.393 1.394zM467.116 387.795c0 .772-.622 1.394-1.394 1.394a1.391 1.391 0 01-1.393-1.394c0-.772.622-1.394 1.393-1.394.772 0 1.394.622 1.394 1.394zM479.607 387.795c0 .772-.622 1.394-1.394 1.394a1.39 1.39 0 01-1.393-1.394 1.39 1.39 0 011.393-1.394c.772 0 1.394.622 1.394 1.394zM507.746 387.795c0 .772-.622 1.394-1.394 1.394a1.39 1.39 0 01-1.393-1.394 1.39 1.39 0 011.393-1.394c.762 0 1.394.622 1.394 1.394z" fill="#EDF0F4"/><path d="M473.271 387.795a1.39 1.39 0 01-1.393 1.394 1.39 1.39 0 01-1.393-1.394 1.39 1.39 0 011.393-1.394 1.39 1.39 0 011.393 1.394zM490.904 387.795a1.39 1.39 0 01-1.393 1.394 1.391 1.391 0 01-1.394-1.394c0-.772.622-1.394 1.394-1.394.762 0 1.393.622 1.393 1.394z" fill="#0084E4"/><path d="M533.597 321.761l-18.575.05v-30.656l18.575-.05v30.656zM533.597 284.487l-18.575.05v-30.646l18.575-.05v30.646zM533.597 359.357l-18.575.05v-30.656l18.575-.05v30.656zM533.597 397.423l-18.575.05v-30.656l18.575-.05v30.656z" fill="#263238"/><path d="M515.924 253.6H392.412v30.656h123.512V253.6z" fill="#455A64"/><path d="M422.215 259.918h-24.319v3.741h24.319v-3.741zM422.215 266.357h-24.319v3.74h24.319v-3.74zM422.215 273.014h-24.319v3.741h24.319v-3.741zM431.83 262.176a1.39 1.39 0 01-1.393 1.394 1.391 1.391 0 01-1.394-1.394 1.39 1.39 0 011.394-1.394c.772 0 1.393.632 1.393 1.394zM437.984 262.174a1.39 1.39 0 01-1.394 1.394 1.39 1.39 0 01-1.393-1.394 1.39 1.39 0 011.393-1.393c.772 0 1.394.631 1.394 1.393zM444.139 262.174a1.39 1.39 0 01-1.393 1.394 1.39 1.39 0 01-1.393-1.394 1.39 1.39 0 011.393-1.393c.772 0 1.393.631 1.393 1.393zM450.294 262.174a1.39 1.39 0 01-1.393 1.394 1.39 1.39 0 01-1.394-1.394 1.39 1.39 0 011.394-1.393c.772 0 1.393.631 1.393 1.393zM498.001 262.174a1.39 1.39 0 01-1.393 1.394 1.39 1.39 0 01-1.394-1.394 1.39 1.39 0 011.394-1.393c.772 0 1.393.631 1.393 1.393zM504.277 262.174a1.39 1.39 0 01-1.394 1.394 1.39 1.39 0 01-1.393-1.394 1.39 1.39 0 011.393-1.393c.772 0 1.394.631 1.394 1.393zM456.45 262.174a1.39 1.39 0 01-1.393 1.394 1.39 1.39 0 01-1.394-1.394 1.39 1.39 0 011.394-1.393c.771 0 1.393.631 1.393 1.393zM486.683 262.174a1.39 1.39 0 01-1.394 1.394 1.39 1.39 0 01-1.393-1.394 1.39 1.39 0 011.393-1.393c.772 0 1.394.631 1.394 1.393z" fill="#263238"/><path d="M462.605 262.174a1.39 1.39 0 01-1.394 1.394 1.39 1.39 0 01-1.393-1.394 1.39 1.39 0 011.393-1.393c.772 0 1.394.631 1.394 1.393zM468.769 262.174a1.39 1.39 0 01-1.393 1.394 1.39 1.39 0 01-1.394-1.394 1.39 1.39 0 011.394-1.393c.761 0 1.393.631 1.393 1.393zM481.26 262.174a1.39 1.39 0 01-1.393 1.394 1.39 1.39 0 01-1.393-1.394 1.39 1.39 0 011.393-1.393c.762 0 1.393.631 1.393 1.393zM509.388 262.174a1.39 1.39 0 01-1.393 1.394 1.39 1.39 0 01-1.393-1.394 1.39 1.39 0 011.393-1.393c.772 0 1.393.631 1.393 1.393z" fill="#EDF0F4"/><path d="M474.925 262.174a1.39 1.39 0 01-1.394 1.394 1.39 1.39 0 01-1.393-1.394 1.39 1.39 0 011.393-1.393c.762 0 1.394.631 1.394 1.393zM492.548 262.174a1.39 1.39 0 01-1.394 1.394 1.39 1.39 0 01-1.393-1.394 1.39 1.39 0 011.393-1.393c.772 0 1.394.631 1.394 1.393z" fill="#0084E4"/><path d="M506.601 268.903a1.39 1.39 0 011.393-1.394c.772 0 1.394.622 1.394 1.394 0 .772-.622 1.394-1.394 1.394a1.39 1.39 0 01-1.393-1.394zM500.437 268.903a1.39 1.39 0 011.393-1.394 1.39 1.39 0 011.393 1.394 1.39 1.39 0 01-1.393 1.394 1.397 1.397 0 01-1.393-1.394zM494.282 268.903a1.39 1.39 0 011.393-1.394c.772 0 1.394.622 1.394 1.394 0 .772-.622 1.394-1.394 1.394a1.39 1.39 0 01-1.393-1.394zM488.126 268.903c0-.772.622-1.394 1.394-1.394a1.39 1.39 0 011.393 1.394 1.39 1.39 0 01-1.393 1.394 1.398 1.398 0 01-1.394-1.394zM440.42 268.903a1.39 1.39 0 011.393-1.394c.772 0 1.394.622 1.394 1.394 0 .772-.622 1.394-1.394 1.394a1.397 1.397 0 01-1.393-1.394zM434.144 268.903a1.39 1.39 0 011.393-1.394c.772 0 1.394.622 1.394 1.394 0 .772-.622 1.394-1.394 1.394a1.39 1.39 0 01-1.393-1.394zM481.971 268.903c0-.772.622-1.394 1.394-1.394a1.39 1.39 0 011.393 1.394 1.39 1.39 0 01-1.393 1.394 1.391 1.391 0 01-1.394-1.394zM451.737 268.903a1.39 1.39 0 011.393-1.394c.772 0 1.394.622 1.394 1.394 0 .772-.622 1.394-1.394 1.394a1.39 1.39 0 01-1.393-1.394z" fill="#263238"/><path d="M475.816 268.903a1.39 1.39 0 011.393-1.394 1.39 1.39 0 011.393 1.394 1.39 1.39 0 01-1.393 1.394 1.39 1.39 0 01-1.393-1.394zM469.661 268.903c0-.772.622-1.394 1.394-1.394.771 0 1.393.622 1.393 1.394 0 .772-.622 1.394-1.393 1.394a1.391 1.391 0 01-1.394-1.394zM457.17 268.903c0-.772.622-1.394 1.394-1.394.771 0 1.393.622 1.393 1.394 0 .772-.622 1.394-1.393 1.394a1.391 1.391 0 01-1.394-1.394zM429.042 268.903a1.39 1.39 0 011.393-1.393 1.39 1.39 0 011.393 1.393 1.39 1.39 0 01-1.393 1.394 1.39 1.39 0 01-1.393-1.394z" fill="#EDF0F4"/><path d="M463.506 268.903c0-.772.622-1.394 1.394-1.394a1.39 1.39 0 011.393 1.394 1.39 1.39 0 01-1.393 1.394 1.391 1.391 0 01-1.394-1.394zM445.873 268.903a1.39 1.39 0 011.393-1.394 1.39 1.39 0 011.393 1.394 1.39 1.39 0 01-1.393 1.394 1.397 1.397 0 01-1.393-1.394z" fill="#0084E4"/><path d="M431.828 274.89a1.39 1.39 0 01-1.393 1.394 1.39 1.39 0 01-1.393-1.394 1.39 1.39 0 011.393-1.394 1.39 1.39 0 011.393 1.394zM437.983 274.89a1.39 1.39 0 01-1.393 1.394 1.391 1.391 0 01-1.394-1.394c0-.772.622-1.394 1.394-1.394a1.39 1.39 0 011.393 1.394zM444.139 274.89c0 .772-.622 1.394-1.394 1.394a1.391 1.391 0 01-1.393-1.394c0-.772.622-1.394 1.393-1.394.772 0 1.394.622 1.394 1.394zM450.294 274.89c0 .772-.622 1.394-1.394 1.394a1.39 1.39 0 01-1.393-1.394 1.39 1.39 0 011.393-1.394c.772 0 1.394.622 1.394 1.394zM498.001 274.89c0 .772-.622 1.394-1.394 1.394a1.39 1.39 0 01-1.393-1.394 1.39 1.39 0 011.393-1.394c.772 0 1.394.622 1.394 1.394zM504.276 274.89a1.39 1.39 0 01-1.393 1.394 1.391 1.391 0 01-1.394-1.394c0-.772.622-1.394 1.394-1.394a1.39 1.39 0 011.393 1.394zM456.449 274.89a1.39 1.39 0 01-1.393 1.394 1.391 1.391 0 01-1.394-1.394c0-.772.622-1.394 1.394-1.394a1.39 1.39 0 011.393 1.394zM486.682 274.89a1.39 1.39 0 01-1.393 1.394 1.391 1.391 0 01-1.394-1.394c0-.772.622-1.394 1.394-1.394a1.39 1.39 0 011.393 1.394z" fill="#263238"/><path d="M462.604 274.89c0 .772-.622 1.394-1.393 1.394a1.391 1.391 0 01-1.394-1.394c0-.772.622-1.394 1.394-1.394.771 0 1.393.622 1.393 1.394zM468.768 274.89a1.39 1.39 0 01-1.393 1.394 1.391 1.391 0 01-1.394-1.394c0-.772.622-1.394 1.394-1.394.762 0 1.393.622 1.393 1.394zM481.26 274.89c0 .772-.622 1.394-1.393 1.394a1.391 1.391 0 01-1.394-1.394c0-.772.622-1.394 1.394-1.394.761 0 1.393.622 1.393 1.394zM509.388 274.89c0 .772-.622 1.394-1.394 1.394a1.39 1.39 0 01-1.393-1.394 1.39 1.39 0 011.393-1.394c.772 0 1.394.622 1.394 1.394z" fill="#EDF0F4"/><path d="M474.924 274.89c0 .772-.622 1.394-1.393 1.394a1.391 1.391 0 01-1.394-1.394c0-.772.622-1.394 1.394-1.394.761 0 1.393.622 1.393 1.394zM492.547 274.89a1.39 1.39 0 01-1.393 1.394 1.391 1.391 0 01-1.394-1.394c0-.772.622-1.394 1.394-1.394a1.39 1.39 0 011.393 1.394z" fill="#0084E4"/><path d="M308.325 100.14h-96.847v296.782h96.847V100.14z" fill="#C3CDDB"/><path d="M384.732 396.922h-76.398l-.14-296.782h76.538v296.782z" fill="#DFE9F5"/><path d="M298.991 147.633H216.84v23.135h82.151v-23.135z" fill="#263238"/><path d="M223.737 150.541h-4.601v17.709h4.601v-17.709z" fill="#455A64"/><path d="M229.16 154.272a1.46 1.46 0 01-1.463 1.464 1.46 1.46 0 01-1.464-1.464 1.46 1.46 0 011.464-1.464c.801 0 1.463.652 1.463 1.464zM229.16 160.529a1.46 1.46 0 01-1.463 1.464 1.46 1.46 0 01-1.464-1.464 1.46 1.46 0 011.464-1.464c.801 0 1.463.652 1.463 1.464z" fill="#fff"/><path d="M239.525 152.808h-4.521v13.598h4.521v-13.598zM246.052 152.808h-4.521v13.598h4.521v-13.598zM252.577 152.808h-4.521v13.598h4.521v-13.598zM259.114 152.808h-4.521v13.598h4.521v-13.598zM265.639 152.808h-4.521v13.598h4.521v-13.598zM272.175 152.808h-4.521v13.598h4.521v-13.598zM278.702 152.808h-4.521v13.598h4.521v-13.598zM285.227 152.808h-4.521v13.598h4.521v-13.598zM291.764 152.808h-4.521v13.598h4.521v-13.598zM298.289 152.808h-4.521v13.598h4.521v-13.598z" fill="#455A64"/><path d="M298.991 180.876H216.84v23.135h82.151v-23.135z" fill="#263238"/><path d="M223.737 183.785h-4.601v17.709h4.601v-17.709z" fill="#455A64"/><path d="M229.16 187.504a1.46 1.46 0 01-1.463 1.465 1.46 1.46 0 01-1.464-1.465 1.46 1.46 0 011.464-1.464c.801 0 1.463.662 1.463 1.464zM229.16 193.762a1.46 1.46 0 01-1.463 1.465 1.46 1.46 0 01-1.464-1.465 1.46 1.46 0 011.464-1.464c.801 0 1.463.662 1.463 1.464z" fill="#fff"/><path d="M239.525 186.04h-4.521v13.598h4.521V186.04zM246.052 186.04h-4.521v13.598h4.521V186.04zM252.577 186.04h-4.521v13.598h4.521V186.04zM259.114 186.04h-4.521v13.598h4.521V186.04zM265.639 186.04h-4.521v13.598h4.521V186.04zM272.175 186.04h-4.521v13.598h4.521V186.04zM278.702 186.04h-4.521v13.598h4.521V186.04zM285.227 186.04h-4.521v13.598h4.521V186.04zM291.764 186.04h-4.521v13.598h4.521V186.04zM298.289 186.04h-4.521v13.598h4.521V186.04z" fill="#455A64"/><path d="M298.991 214.38H216.84v23.135h82.151V214.38z" fill="#263238"/><path d="M223.737 217.288h-4.601v17.709h4.601v-17.709z" fill="#455A64"/><path d="M229.16 221.009a1.46 1.46 0 01-1.463 1.464 1.46 1.46 0 01-1.464-1.464 1.46 1.46 0 011.464-1.465c.801.01 1.463.662 1.463 1.465zM229.16 227.266a1.46 1.46 0 01-1.463 1.464 1.46 1.46 0 01-1.464-1.464c0-.813.652-1.464 1.464-1.464.801.01 1.463.661 1.463 1.464z" fill="#fff"/><path d="M239.525 219.555h-4.521v13.598h4.521v-13.598zM246.052 219.555h-4.521v13.598h4.521v-13.598zM252.577 219.555h-4.521v13.598h4.521v-13.598zM259.114 219.555h-4.521v13.598h4.521v-13.598zM265.639 219.555h-4.521v13.598h4.521v-13.598zM272.175 219.555h-4.521v13.598h4.521v-13.598zM278.702 219.555h-4.521v13.598h4.521v-13.598zM285.227 219.555h-4.521v13.598h4.521v-13.598zM291.764 219.555h-4.521v13.598h4.521v-13.598zM298.289 219.555h-4.521v13.598h4.521v-13.598z" fill="#455A64"/><path d="M298.991 250.572H216.84v23.135h82.151v-23.135z" fill="#263238"/><path d="M223.737 253.48h-4.601v17.709h4.601V253.48z" fill="#455A64"/><path d="M229.16 257.211a1.46 1.46 0 01-1.463 1.464 1.46 1.46 0 01-1.464-1.464 1.46 1.46 0 011.464-1.464c.801 0 1.463.652 1.463 1.464zM229.16 263.468a1.46 1.46 0 01-1.463 1.464 1.46 1.46 0 01-1.464-1.464 1.46 1.46 0 011.464-1.464c.801 0 1.463.652 1.463 1.464z" fill="#fff"/><path d="M239.525 255.747h-4.521v13.598h4.521v-13.598zM246.052 255.747h-4.521v13.598h4.521v-13.598zM252.577 255.747h-4.521v13.598h4.521v-13.598zM259.114 255.747h-4.521v13.598h4.521v-13.598zM265.639 255.747h-4.521v13.598h4.521v-13.598zM272.175 255.747h-4.521v13.598h4.521v-13.598zM278.702 255.747h-4.521v13.598h4.521v-13.598zM285.227 255.747h-4.521v13.598h4.521v-13.598zM291.764 255.747h-4.521v13.598h4.521v-13.598zM298.289 255.747h-4.521v13.598h4.521v-13.598z" fill="#455A64"/><path d="M298.991 287.123H216.84v23.135h82.151v-23.135z" fill="#263238"/><path d="M223.737 290.031h-4.601v17.709h4.601v-17.709z" fill="#455A64"/><path d="M229.16 293.762a1.46 1.46 0 01-1.463 1.464 1.46 1.46 0 01-1.464-1.464 1.46 1.46 0 011.464-1.464c.801 0 1.463.652 1.463 1.464zM229.16 300.02a1.46 1.46 0 01-1.463 1.464 1.46 1.46 0 01-1.464-1.464 1.46 1.46 0 011.464-1.464c.801 0 1.463.652 1.463 1.464z" fill="#fff"/><path d="M239.525 292.298h-4.521v13.598h4.521v-13.598zM246.052 292.298h-4.521v13.598h4.521v-13.598zM252.577 292.298h-4.521v13.598h4.521v-13.598zM259.114 292.298h-4.521v13.598h4.521v-13.598zM265.639 292.298h-4.521v13.598h4.521v-13.598zM272.175 292.298h-4.521v13.598h4.521v-13.598zM278.702 292.298h-4.521v13.598h4.521v-13.598zM285.227 292.298h-4.521v13.598h4.521v-13.598zM291.764 292.298h-4.521v13.598h4.521v-13.598zM298.289 292.298h-4.521v13.598h4.521v-13.598z" fill="#455A64"/><path d="M298.991 359.868H216.84v23.135h82.151v-23.135z" fill="#263238"/><path d="M223.737 362.777h-4.601v17.709h4.601v-17.709z" fill="#455A64"/><path d="M229.16 366.508a1.46 1.46 0 01-1.463 1.464 1.46 1.46 0 01-1.464-1.464 1.46 1.46 0 011.464-1.464c.801 0 1.463.652 1.463 1.464zM229.16 372.765a1.46 1.46 0 01-1.463 1.464 1.46 1.46 0 01-1.464-1.464 1.46 1.46 0 011.464-1.464c.801 0 1.463.652 1.463 1.464z" fill="#fff"/><path d="M239.525 365.044h-4.521v13.598h4.521v-13.598zM246.052 365.044h-4.521v13.598h4.521v-13.598zM252.577 365.044h-4.521v13.598h4.521v-13.598zM259.114 365.044h-4.521v13.598h4.521v-13.598zM265.639 365.044h-4.521v13.598h4.521v-13.598zM272.175 365.044h-4.521v13.598h4.521v-13.598zM278.702 365.044h-4.521v13.598h4.521v-13.598zM285.227 365.044h-4.521v13.598h4.521v-13.598zM291.764 365.044h-4.521v13.598h4.521v-13.598zM298.289 365.044h-4.521v13.598h4.521v-13.598z" fill="#455A64"/><path d="M298.991 323.526H216.84v23.135h82.151v-23.135z" fill="#263238"/><path d="M223.737 326.433h-4.601v17.71h4.601v-17.71z" fill="#455A64"/><path d="M229.16 330.165a1.46 1.46 0 01-1.463 1.464 1.46 1.46 0 01-1.464-1.464 1.46 1.46 0 011.464-1.465c.801 0 1.463.652 1.463 1.465zM229.16 336.422a1.46 1.46 0 01-1.463 1.464 1.46 1.46 0 01-1.464-1.464c0-.813.652-1.464 1.464-1.464.801 0 1.463.651 1.463 1.464z" fill="#fff"/><path d="M239.525 328.7h-4.521v13.598h4.521V328.7zM246.052 328.7h-4.521v13.598h4.521V328.7zM252.577 328.7h-4.521v13.598h4.521V328.7zM259.114 328.7h-4.521v13.598h4.521V328.7zM265.639 328.7h-4.521v13.598h4.521V328.7zM272.175 328.7h-4.521v13.598h4.521V328.7zM278.702 328.7h-4.521v13.598h4.521V328.7zM285.227 328.7h-4.521v13.598h4.521V328.7zM291.764 328.7h-4.521v13.598h4.521V328.7zM298.289 328.7h-4.521v13.598h4.521V328.7z" fill="#455A64"/><path d="M267.656 147.634c-.02 0-.051-.241-.081-.712-.03-.471-.06-1.163-.08-2.056-.02-.892-.04-1.985-.1-3.249-.07-1.253-.16-2.708-.561-4.222-.431-1.504-1.123-3.129-2.196-4.633-1.062-1.504-2.576-2.848-4.501-3.62-1.915-.792-4.11-1.093-6.385-1.294-2.286-.2-4.652-.401-7.078-.611-9.694-.843-18.495-1.384-24.861-1.494-3.187-.071-5.764-.051-7.548-.041-.852.011-1.534.021-2.055.021-.471 0-.722-.01-.722-.031 0-.02.241-.04.712-.08l2.055-.12c1.784-.07 4.371-.151 7.558-.13 6.386.02 15.198.501 24.901 1.343 2.426.211 4.792.421 7.078.622 2.285.211 4.531.521 6.526 1.364 2.005.822 3.588 2.256 4.671 3.821 1.093 1.564 1.774 3.229 2.195 4.783.391 1.574.452 3.038.502 4.312.03 1.274.02 2.367.01 3.259-.01.853-.01 1.534-.02 2.056 0 .461-.01.712-.02.712z" fill="#263238"/><path d="M242.724 147.634c-.02 0-.03-.231-.05-.672-.01-.492-.01-1.133-.02-1.936-.01-.842 0-1.865-.1-3.048-.111-1.173-.291-2.537-1.013-3.811-.712-1.263-2.125-2.216-3.709-2.858a10.15 10.15 0 00-5.413-.551 8.966 8.966 0 00-2.797.952c-.872.482-1.694 1.164-2.175 2.056a2.945 2.945 0 00.01 2.908c.511.903 1.423 1.615 2.466 1.855 1.042.251 2.135-.11 2.887-.832a4.24 4.24 0 001.293-2.748c.1-1.023-.281-1.995-.862-2.808a6.244 6.244 0 00-2.176-1.925c-.832-.471-1.784-.541-2.716-.702a72.624 72.624 0 00-2.707-.361 66.145 66.145 0 00-4.882-.371c-2.987-.12-5.423-.07-7.097-.07h-1.935c-.441-.01-.672-.02-.672-.04s.231-.04.672-.07c.491-.02 1.133-.061 1.935-.101 1.674-.06 4.11-.17 7.117-.1 1.504.04 3.148.13 4.912.311.882.09 1.785.2 2.727.331.471.07.932.13 1.423.22.502.101.983.271 1.444.502a6.656 6.656 0 012.366 2.066c.621.862 1.072 1.985.962 3.138a4.793 4.793 0 01-1.443 3.089c-.842.832-2.146 1.264-3.359.963a4.446 4.446 0 01-2.807-2.106c-.611-1.033-.581-2.397 0-3.4.552-1.023 1.454-1.735 2.386-2.256a9.29 9.29 0 012.958-.983 10.621 10.621 0 015.653.622c1.644.682 3.118 1.695 3.88 3.079.742 1.373.892 2.787.982 3.971.06 1.203.03 2.226.01 3.068-.03.793-.06 1.434-.08 1.936-.03.451-.05.682-.07.682zM274.362 147.634c-.02 0-.071-.261-.171-.762-.09-.502-.23-1.244-.431-2.197-.411-1.895-1.062-4.643-2.416-7.842-1.343-3.168-3.478-6.849-7.147-9.596-1.795-1.404-4.1-2.167-6.556-2.497-2.456-.351-5.053-.341-7.709-.412-10.616-.2-20.24-.16-27.197-.431-3.478-.12-6.295-.281-8.24-.421-.932-.08-1.674-.14-2.236-.191-.511-.05-.781-.08-.771-.1 0-.02.27-.02.781 0 .562.02 1.304.05 2.236.09 1.945.071 4.762.181 8.24.251 6.957.181 16.571.08 27.207.281 2.646.07 5.263.06 7.769.431 2.496.341 4.922 1.153 6.766 2.617 1.835 1.435 3.379 3.059 4.521 4.784 1.163 1.715 2.015 3.44 2.677 5.064 1.323 3.249 1.925 6.027 2.276 7.942.17.963.28 1.715.34 2.217.051.501.071.772.061.772zM297.869 103.831h-79.896v11.603h79.896v-11.603z" fill="#263238"/><path d="M279.043 109.627h-43.497v5.796h43.497v-5.796z" fill="#455A64"/><path d="M330.459 344.454c.01.06-.883.141-2.416.592a20.933 20.933 0 00-6.035 2.958c-1.153.822-2.346 1.855-3.388 3.149a12.114 12.114 0 00-1.394 2.146 14.448 14.448 0 00-.872 2.577c-.912 3.66-.632 7.862-.451 12.234.18 4.363-.1 8.715-1.835 12.215a13.555 13.555 0 01-3.258 4.362 15.594 15.594 0 01-3.999 2.537 15.541 15.541 0 01-3.74 1.123c-1.142.161-2.135.191-2.947.12-.802-.07-1.423-.17-1.834-.29-.411-.111-.622-.171-.622-.191.01-.06.872.211 2.466.271.792.04 1.775-.03 2.887-.211a15.34 15.34 0 003.639-1.173 15.605 15.605 0 003.87-2.527 13.315 13.315 0 003.117-4.242c1.644-3.4 1.925-7.641 1.745-11.994-.181-4.352-.451-8.614.511-12.364.24-.933.531-1.825.922-2.668.431-.812.912-1.564 1.464-2.216 1.092-1.324 2.315-2.357 3.508-3.179 2.396-1.634 4.632-2.447 6.196-2.848.781-.19 1.403-.311 1.824-.351.421-.03.642-.05.642-.03z" fill="#263238"/><path d="M300.194 384.406h-6.556v7.982h6.556v-7.982z" fill="#263238"/><path d="M367.239 324.298h-36.78v40.313h36.78v-40.313z" fill="#455A64"/><path d="M360.658 347.223c1.443-6.532-2.681-12.998-9.211-14.442-6.53-1.444-12.994 2.682-14.437 9.214-1.443 6.533 2.68 12.999 9.211 14.442 6.53 1.444 12.994-2.681 14.437-9.214z" fill="#263238"/><path d="M354.909 344.614a6.057 6.057 0 01-6.055 6.057 6.05 6.05 0 01-6.054-6.057 6.057 6.057 0 016.054-6.057 6.05 6.05 0 016.055 6.057z" fill="#455A64"/><path d="M335.441 331.677a1.123 1.123 0 100-2.245 1.123 1.123 0 000 2.245zM361.615 331.677a1.123 1.123 0 100-2.245 1.123 1.123 0 000 2.245zM362.978 360.318a1.12 1.12 0 01-1.123 1.123 1.121 1.121 0 01-1.123-1.123c0-.622.502-1.123 1.123-1.123a1.12 1.12 0 011.123 1.123zM335.441 361.902a1.123 1.123 0 100-2.247 1.123 1.123 0 000 2.247zM370.207 324.297h-2.968v40.313h2.968v-40.313zM531.411 271.892c0-.01.121-.02.361-.03.261-.01.612-.01 1.053-.03.952-.01 2.305-.031 4.04-.051 1.754.01 3.899-.06 6.285-.732a19.379 19.379 0 007.358-3.871c2.336-2.025 4.521-4.773 5.724-8.233.351-.842.531-1.754.772-2.667.13-.933.341-1.865.341-2.838.11-1.935.02-3.971.05-6.037-.01-8.293-.01-17.399-.02-26.965v-7.08c.01-1.174 0-2.317-.13-3.43-.151-1.113-.381-2.216-.772-3.259-1.474-4.202-4.742-7.491-8.501-9.075-3.779-1.725-7.849-1.134-11.508-1.294-3.679-.04-7.118-.07-10.245-.1-6.246-.081-11.308-.141-14.837-.191-1.724-.03-3.077-.06-4.03-.08a74.62 74.62 0 01-1.052-.03c-.241-.01-.361-.02-.361-.03 0-.01.12-.02.361-.02.26 0 .611-.01 1.052-.02.953 0 2.306-.01 4.04-.02 3.539 0 8.601.01 14.837.02 3.137.01 6.566.03 10.245.04l5.714.03c1.995.02 4.04.431 5.974 1.253 3.88 1.615 7.258 5.014 8.792 9.347.401 1.073.652 2.206.802 3.359.14 1.163.14 2.336.14 3.49v7.08c-.01 9.566-.01 18.672-.02 26.965-.03 2.076.05 4.082-.07 6.067-.01.993-.231 1.956-.371 2.908-.25.933-.441 1.865-.802 2.728-1.253 3.53-3.498 6.328-5.894 8.363a19.549 19.549 0 01-7.529 3.861c-2.426.652-4.621.692-6.355.652-1.725-.02-3.078-.04-4.04-.05-.441-.01-.782-.02-1.053-.03-.23.02-.351.01-.351 0z" fill="#263238"/><path d="M264.057 55.155v-14.21h-7.128l10.727-15.133 10.716 15.022h-6.987v14.32h-7.328z" fill="#fff"/><path d="M507.794 239.4l7.559 9.898 14.415-6.378-9.223-14.801-12.751 11.281z" fill="#D9DFE8"/><path d="M512.276 240.573l.23 4.894 4.772 2.236-.25-5.014-4.752-2.116z" fill="#455A64"/><path d="M516.796 237.836l.231 4.894 4.771 2.236-.25-5.014-4.752-2.116zM521.397 235.098l.231 4.893 4.762 2.237-.241-5.014-4.752-2.116z" fill="#455A64"/><path d="M530.34 242.721l-1.644-2.517-14.115 8.935 3.328 5.575.922-.461c4.1-2.096 20.721-10.931 22.917-13.277 2.436-2.618-11.408 1.745-11.408 1.745z" fill="#0084E4"/><path opacity=".5" d="M523.063 251.575c-.902-1.083-2.185-1.956-3.589-2.146-1.403-.191-2.536-.101-4.09 1.083l2.416 4.001 5.263-2.938z" fill="#fff"/><path opacity=".5" d="M537.226 240.805s5.013-1.254 4.882-.241c-.12 1.023-16.58 10.58-24.209 14.16l-.16-.331 19.297-10.991s-.622-2.076.19-2.597z" fill="#fff"/><path d="M517.508 254.513c0 .01.09-.03.261-.12.22-.11.461-.231.731-.371.732-.381 1.624-.852 2.687-1.404a276.457 276.457 0 008.742-4.874c3.378-1.965 6.405-3.8 8.571-5.164a245.812 245.812 0 002.556-1.635c.25-.17.481-.321.691-.451.161-.11.241-.16.231-.17 0-.011-.09.04-.251.14-.21.13-.441.271-.711.421-.702.431-1.574.953-2.587 1.575a499.597 499.597 0 01-8.601 5.114 590.59 590.59 0 01-8.701 4.924c-1.043.581-1.935 1.063-2.657 1.464-.27.15-.501.281-.721.401-.161.09-.241.14-.241.15z" fill="#263238"/><path d="M537.157 243.622c.06-.02-.261-.672-.241-1.534.01-.863.371-1.494.311-1.525-.04-.04-.491.592-.511 1.515-.02.932.411 1.584.441 1.544zM531.653 243.933c.06 0 .12-.361.13-.822.02-.451-.01-.822-.07-.822-.06 0-.12.361-.13.812-.02.461.01.832.07.832zM530.129 243.993c.05.02.191-.271.311-.632.12-.371.17-.682.12-.692-.05-.02-.19.271-.311.632-.12.371-.17.682-.12.692zM528.596 243.061c.03.05.391-.1.812-.341.421-.241.732-.471.712-.521-.03-.051-.391.1-.812.341-.421.25-.732.481-.712.521zM527.793 242.249c.01.05.471.01.982-.241.512-.24.832-.581.802-.622-.04-.05-.401.201-.892.442-.491.24-.912.371-.892.421z" fill="#263238"/><path d="M531.413 242.399c.01.02.391-.14.922-.541.261-.201.562-.462.862-.793.141-.17.301-.331.431-.561.06-.111.111-.261.06-.421-.04-.161-.21-.271-.35-.291-1.153.06-1.745 1.073-1.815 1.715-.05.341 0 .611.06.792.05.18.111.271.121.261.04-.011-.151-.402-.04-1.033.06-.311.21-.672.491-.973.27-.291.721-.582 1.143-.562.21.02.25.231.15.422-.09.19-.261.361-.391.521a7.479 7.479 0 01-.812.802c-.491.421-.852.632-.832.662z" fill="#263238"/><path d="M531.683 242.298c.02 0 .02-.31-.271-.702a1.823 1.823 0 00-.641-.531c-.281-.11-.662-.271-1.043-.02-.2.15-.16.461-.04.592.11.15.261.25.401.32.271.151.541.251.762.311.451.111.752.091.752.071 0-.031-.281-.061-.702-.201-.21-.07-.461-.18-.712-.331-.24-.12-.531-.421-.32-.602.22-.16.591-.06.842.041.26.12.471.28.611.451.271.321.321.611.361.601zM515.513 250.391c.02.03.391-.281 1.083-.581a5.365 5.365 0 012.877-.391 5.38 5.38 0 012.646 1.213c.582.491.842.892.872.872.01-.01-.04-.11-.17-.29a3.696 3.696 0 00-.612-.682 5.143 5.143 0 00-2.706-1.304 5.215 5.215 0 00-2.968.461c-.35.171-.611.351-.781.482-.161.13-.251.21-.241.22zM524.065 249.108c.02.05 1.052-.341 2.225-1.013 1.183-.672 2.045-1.354 2.015-1.394-.03-.05-.942.552-2.105 1.213-1.173.672-2.165 1.144-2.135 1.194z" fill="#263238"/><path d="M521.238 250.742c-.01.06.191.151.411.311.221.16.381.321.431.291.05-.03-.06-.271-.321-.451-.25-.181-.511-.201-.521-.151zM519.403 250.04c-.01.05.17.151.401.211.24.06.441.07.451.02.01-.05-.171-.15-.401-.211-.241-.07-.441-.07-.451-.02zM517.528 250.321c.041.04.231-.07.482-.12.25-.05.471-.02.491-.08.02-.05-.221-.181-.531-.121-.311.061-.482.281-.442.321zM516.275 250.662c.01.05.13.08.281.06.15-.02.26-.09.25-.14-.01-.05-.13-.08-.28-.06-.151.02-.261.09-.251.14zM412.17 232.09l56.369-53.179a18.512 18.512 0 0113.252-5.575c6.646 0 12.791 3.56 16.089 9.336l28.841 49.579-18.295 10.559-27.778-35.339-27.838 25.161-40.64-.542z" fill="#263238"/><path d="M395.57 234.758c-.241.722-1.915 18.883 22.465 18.883h65.129c8.24 0 14.927-6.689 14.927-14.932s-6.687-14.932-14.927-14.932h-60.638c-2.166 0-4.311.472-6.286 1.384l-20.67 9.597z" fill="#263238"/><path d="M488.919 223.777c0 .14-13.453.261-30.044.261s-30.044-.121-30.044-.261 13.453-.261 30.044-.261c16.601 0 30.044.121 30.044.261zM478.873 195.037c.161 0 .161 2.818.672 6.237.491 3.42 1.303 6.117 1.153 6.167-.121.051-1.163-2.617-1.664-6.087-.522-3.479-.291-6.327-.161-6.317z" fill="#455A64"/><path d="M481.641 194.636c.14 0 .28 2.878-.03 6.408-.301 3.54-.933 6.348-1.063 6.328-.15-.03.251-2.858.541-6.368.311-3.51.401-6.368.552-6.368z" fill="#455A64"/><path d="M431.138 114.651a1.942 1.942 0 01-.973 1.865 1.96 1.96 0 01-2.095-.16c-1.113-.863-.932-2.597-.431-3.911.511-1.314 1.253-2.678.932-4.051-.25-1.053-1.072-1.846-1.664-2.748-1.022-1.575-1.333-3.63-.671-5.385.661-1.755 2.345-3.119 4.22-3.27 1.915-.15 4.03.843 5.634-.21 1.163-.762 1.523-2.306 2.506-3.29 1.514-1.534 4.05-1.323 6.095-.63 2.045.691 4.04 1.784 6.195 1.674 1.794-.09 3.438-1.013 5.193-1.434 3.799-.913 8.08.822 10.175 4.111 2.095 3.299 1.844 7.912-.592 10.961-.872 1.093-2.847 4.372-6.766 3.56" fill="#263238"/><path d="M433.372 99.81l-.531 2.827-8.18 42.239c-.952 4.904 2.506 9.627 7.769 10.599 5.313.983 10.455-2.216 11.488-7.15 1.093-5.184 2.336-10.619 2.336-10.619s6.907.281 10.105-8.153c1.583-4.192 2.847-11.342 3.689-17.228.751-5.295-3.048-10.159-8.371-10.69l-18.305-1.825z" fill="#FFBE9D"/><path d="M456.098 116.515c-.1.592-.692 1.003-1.313.903-.622-.091-1.043-.652-.942-1.244.1-.592.691-1.003 1.313-.902.621.09 1.042.651.942 1.243zM457.743 115.703c-.171.12-.883-.682-2.086-.933-1.202-.26-2.205.171-2.305 0-.05-.08.14-.31.591-.511.431-.201 1.133-.341 1.885-.181.752.161 1.323.562 1.624.923.301.361.371.652.291.702zM444.601 114.18c-.1.591-.692 1.003-1.313.902-.622-.09-1.043-.652-.943-1.243.101-.592.692-1.003 1.314-.903.621.09 1.042.652.942 1.244z" fill="#263238"/><path d="M445.873 113.467c-.17.12-.882-.682-2.085-.933-1.203-.26-2.205.171-2.305 0-.05-.08.14-.31.591-.511.431-.201 1.133-.341 1.885-.18.752.16 1.323.561 1.624.922.3.361.371.652.29.702zM448.39 123.295c.01-.07.782-.04 2.025.05.311.03.621.03.712-.17.12-.211.06-.562-.02-.953a402.61 402.61 0 00-.421-2.527c-.572-3.59-.913-6.518-.772-6.538.14-.02.722 2.868 1.293 6.468.13.882.261 1.725.381 2.537.04.371.16.812-.09 1.243a.784.784 0 01-.602.341c-.21.02-.381-.01-.541-.04-1.223-.19-1.975-.341-1.965-.411z" fill="#263238"/><path d="M446.264 137.705s-5.945-.842-11.027-5.535c0 0 1.584 6.578 10.475 7.571l.552-2.036z" fill="#EB996E"/><path d="M444.681 123.395c.2.03-.071 1.334.852 2.497.922 1.163 2.345 1.304 2.315 1.484 0 .091-.361.191-.952.081a3.299 3.299 0 01-1.945-1.174c-.561-.712-.702-1.524-.631-2.075.06-.542.27-.843.361-.813zM447.166 108.824c-.19.301-1.353-.1-2.797-.22-1.443-.151-2.666.02-2.797-.311-.05-.16.211-.421.732-.642.522-.22 1.314-.371 2.176-.291.862.081 1.614.381 2.085.692.471.311.681.622.601.772zM458.023 112.124c-.271.23-1.043-.231-2.035-.452-.983-.25-1.875-.2-2.015-.521-.06-.161.13-.401.551-.582.421-.18 1.073-.271 1.744-.1.682.16 1.223.531 1.514.882.301.361.361.662.241.773z" fill="#263238"/><path d="M461.14 108.514s-4.932 1.404-10.335-2.588c-3.549-2.617-7.909-4.362-9.042-3.75-1.133.612-2.045 4.573-6.095 5.074 0 0-1.073 7.682-4.07 6.879-2.997-.802.622-15.924.622-15.924l8.44 1.283 8.401-.11 7.468 2.417 5.644 2.657-1.033 4.062zM432.46 95.998c-.02-.12.752-.24 1.524.231.782.471 1.022 1.213.902 1.254-.12.06-.491-.462-1.143-.853-.642-.411-1.283-.501-1.283-.632zM435.507 93.953c.141.04-.09.922-.15 1.985-.06 1.063.231 1.906.11 1.956-.1.07-.641-.793-.571-1.976.06-1.173.511-2.005.611-1.965z" fill="#263238"/><path d="M432.42 111.041c-.111-.09-4.682-2.768-5.785 2.306-1.112 5.075 4.211 5.145 4.251 4.994.04-.15 1.534-7.3 1.534-7.3z" fill="#FFBE9D"/><path d="M429.753 116.075c-.02-.02-.1.04-.271.08a.903.903 0 01-.661-.13c-.491-.311-.762-1.264-.582-2.186a3.11 3.11 0 01.522-1.214c.24-.341.531-.541.812-.531.28 0 .441.201.471.361.04.16-.02.251.01.261.01.02.13-.06.13-.281 0-.1-.03-.241-.13-.361-.1-.13-.271-.211-.461-.241-.401-.06-.832.221-1.093.582a2.955 2.955 0 00-.611 1.344c-.191 1.033.12 2.095.812 2.477.34.17.661.13.842.04.18-.081.23-.181.21-.201z" fill="#EB996E"/><path d="M449.231 114.01c-.05 0-.04-.481-.27-1.294a5.38 5.38 0 00-1.975-2.847c-1.163-.893-3.068-1.384-4.902-.702-1.825.631-3.398 2.577-3.378 4.843-.02 2.266 1.553 4.212 3.378 4.844 1.834.692 3.739.19 4.902-.702a5.385 5.385 0 001.975-2.848c.23-.813.22-1.294.27-1.294.02 0 .03.12.041.351.01.231-.011.572-.111.993-.17.842-.691 2.096-1.945 3.089-1.213.992-3.268 1.584-5.293.862a5.553 5.553 0 01-2.626-1.956c-.702-.922-1.093-2.115-1.103-3.339.01-1.223.411-2.417 1.103-3.339a5.602 5.602 0 012.626-1.956c2.025-.732 4.08-.14 5.293.863 1.254.992 1.775 2.246 1.945 3.088.09.432.111.762.111.993-.011.231-.021.351-.041.351zM462.162 116.346c-.05 0-.04-.482-.271-1.294a5.383 5.383 0 00-1.974-2.848c-1.163-.892-3.068-1.384-4.902-.702-1.825.632-3.399 2.577-3.379 4.844-.02 2.266 1.554 4.212 3.379 4.843 1.834.692 3.739.191 4.902-.702a5.375 5.375 0 001.974-2.848c.231-.812.221-1.293.271-1.293.02 0 .03.12.04.351.01.23-.01.571-.1.993-.171.842-.692 2.095-1.945 3.088-1.213.993-3.268 1.585-5.293.863a5.549 5.549 0 01-2.626-1.956c-.702-.922-1.093-2.116-1.103-3.339.01-1.224.411-2.417 1.103-3.34a5.601 5.601 0 012.626-1.955c2.025-.732 4.08-.14 5.293.862 1.253.993 1.774 2.247 1.945 3.089.09.431.11.762.1.993-.01.23-.02.351-.04.351z" fill="#455A64"/><path d="M439.066 111.022c0 .14-1.454.271-3.248.271-1.794.01-3.248-.111-3.248-.251 0-.141 1.454-.261 3.248-.271 1.794-.01 3.248.11 3.248.251zM451.386 115.313c-.131.061-.452-.431-1.043-.601-.591-.181-1.123.06-1.203-.06-.04-.061.05-.211.291-.341.23-.131.641-.221 1.062-.101.421.121.712.412.842.652.121.251.111.431.051.451z" fill="#455A64"/><path d="M439.456 223.346v-3.35l47.626.983 27.408-43.823 2.516 1.815-28.089 44.806-49.461-.431z" fill="#D9DFE8"/><path d="M472.407 208.745l2.396 3.56v7.32s-1.243.291-1.734-.702c-.491-.993-1.153-4.382-1.153-4.382l-1.163 2.998a2.583 2.583 0 01-3.037 1.575l-8.832-2.217 3.609-10.319 9.914 2.167z" fill="#FFBE9D"/><path d="M423.648 138.046s-13.183 3.299-17.132 9.226c-3.95 5.936-8.461 15.774-13.303 34.878-4.23 16.666-7.498 43.281-2.917 49.518 3.158 4.302 5.173 5.395 5.173 5.395l10.174-3.64a78.607 78.607 0 0026.485-15.944l15.609-14.24-8.261-6.519s6.286-33.955 4.612-45.818c-1.474-10.379-20.44-12.856-20.44-12.856z" fill="#0084E4"/><path d="M427.056 148.285c-5.073 1.264-9.954 3.319-16.881 3.901-1.624.14-3.289-.16-4.682-1.023-4.371-2.697-2.857-7.701-.471-11.071 2.536-3.57 6.526-6.649 10.887-6.207-.832-2.166.451-4.754 2.486-5.867 2.035-1.113 4.571-.972 6.746-.15 2.176.812 4.06 2.236 5.905 3.63 2.486 1.875 4.972 3.751 7.448 5.626 1.674 1.263 3.398 2.587 4.361 4.442.962 1.855 4.531 9.156 2.947 10.52 0 0-2.025.591-3.008 0a1.6 1.6 0 01-.18-.131c-4.441-3.459-10.095-5.034-15.558-3.67zM419.558 154.463l-8.712 40.734a14.584 14.584 0 009.273 16.757l37.863 7.26 4.721-14.12-30.725-9.587 9.012-39.35-21.432-1.694z" fill="#0084E4"/><path d="M410.525 202.949c.01 0 .03.08.06.24.04.181.08.411.14.702.031.161.061.331.101.522.07.19.14.391.22.601.08.221.171.452.261.712.13.241.271.492.411.753.611 1.052 1.594 2.236 3.057 3.239 1.454 1.002 3.339 1.865 5.554 2.426 9.062 1.655 21.974 4.022 37.462 6.86l-.251.15c1.564-4.472 3.208-9.206 4.922-14.12l.161.311c-9.484-2.948-19.869-6.187-30.726-9.566l-.24-.071.06-.24c.531-2.096 1.103-4.342 1.684-6.609 1.784-7.13 3.458-14.119 4.912-20.888.712-3.39 1.393-6.729 1.855-10.018.14-.823.13-1.635.21-2.447-.03-.802-.06-1.605-.271-2.377a10.006 10.006 0 00-2.095-4.172c-2.005-2.406-5.092-3.68-8.029-3.6-2.978.081-5.634 1.685-7.459 3.771-1.854 2.096-3.037 4.603-3.839 7.08-.802 2.487-1.273 4.974-1.744 7.33-1.865 9.447-3.369 17.088-4.421 22.403-.531 2.627-.942 4.673-1.223 6.087-.14.682-.251 1.203-.331 1.585-.08.35-.13.531-.13.531s.02-.191.08-.542c.07-.381.16-.902.281-1.594.26-1.414.641-3.47 1.132-6.107 1.013-5.315 2.456-12.976 4.251-22.433.451-2.367.912-4.864 1.724-7.391.802-2.517 1.995-5.074 3.9-7.24 1.854-2.156 4.641-3.851 7.759-3.941 3.077-.09 6.295 1.234 8.41 3.741a10.382 10.382 0 012.206 4.372c.22.812.25 1.654.28 2.497-.07.832-.07 1.684-.21 2.507-.461 3.319-1.143 6.658-1.845 10.058-1.453 6.789-3.127 13.779-4.912 20.909-.581 2.266-1.153 4.512-1.684 6.608l-.17-.311c10.856 3.39 21.242 6.639 30.715 9.607l.24.07-.08.241a8812.236 8812.236 0 01-4.962 14.109l-.06.181-.19-.04c-15.498-2.898-28.4-5.265-37.442-7.04-2.236-.581-4.14-1.474-5.604-2.517-1.474-1.033-2.466-2.256-3.067-3.339-.141-.271-.281-.532-.401-.772-.091-.261-.171-.502-.251-.722-.07-.221-.14-.432-.211-.622a19.36 19.36 0 00-.09-.532c-.05-.301-.08-.531-.11-.712 0-.16-.01-.24 0-.24z" fill="#263238"/><path d="M426.696 200.852c-.061 0-.111-.481.08-1.213.19-.732.681-1.715 1.524-2.527.852-.813 1.844-1.264 2.586-1.424.742-.161 1.223-.091 1.223-.031.01.081-.451.151-1.113.382-.672.23-1.544.701-2.326 1.444a6.698 6.698 0 00-1.533 2.266c-.281.662-.361 1.113-.441 1.103z" fill="#263238"/><path opacity=".2" d="M418.675 153.921c-4.551 14.119-7.308 28.78-9.122 43.512-.421 3.399-.782 6.859-.201 10.238.582 3.38 2.246 6.709 5.123 8.574 2.687 1.745 6.115 2.006 9.253 1.414 3.137-.591 8.22-1.293 11.117-2.657l-16.942-3.49s-10.926-.682-6.235-21.601c4.692-20.938 7.007-35.99 7.007-35.99zM404.229 150.442c-.07 1.674.09 3.73 1.604 4.432 1.564.722 3.258-.582 4.521-1.755a73.21 73.21 0 0117.222-11.813c-8.51.551-16.821 3.911-23.317 9.426" fill="#000"/><path d="M437.411 145.337c-.07.111-1.614-1.303-4.671-2.497a19.732 19.732 0 00-5.564-1.263c-2.145-.171-4.531.01-6.907.752-2.386.712-4.521 1.795-6.436 2.818-1.904 1.043-3.609 2.025-5.072 2.788-1.464.772-2.677 1.333-3.539 1.674-.862.331-1.353.492-1.363.452-.01-.041.451-.251 1.283-.642a56.47 56.47 0 003.438-1.815c1.454-.843 3.148-1.815 5.013-2.888 1.914-1.053 4.07-2.167 6.516-2.899a18.548 18.548 0 017.097-.732c2.205.191 4.12.763 5.654 1.404 1.534.642 2.686 1.364 3.428 1.916.381.26.652.501.842.662.201.17.291.26.281.27z" fill="#263238"/><path d="M442.715 147.452c-.07.071-1.263-1.133-3.378-2.838a50.636 50.636 0 00-8.912-5.726c-3.719-1.845-7.298-3.018-9.935-3.67-2.636-.662-4.31-.902-4.3-.993 0-.04.431 0 1.183.081.762.08 1.854.26 3.198.551 2.676.572 6.325 1.695 10.084 3.57 3.75 1.875 6.847 4.112 8.912 5.907 1.033.892 1.845 1.664 2.366 2.226.521.541.802.862.782.892z" fill="#263238"/><path d="M445.24 180.415c-.03 0-.1-.291-.201-.842-.1-.552-.24-1.364-.33-2.407-.071-1.043-.161-2.297.17-3.741.17-.702.712-1.534 1.644-1.684.441-.091 1.012.09 1.283.521.271.391.371 1.033-.07 1.464l-.05.05-.08.01c-.552.101-1.093-.18-1.434-.561-.371-.391-.541-.923-.611-1.414-.121-1.003-.131-1.966-.191-2.989-.25-4.803-.441-9.155-.561-12.314-.04-1.494-.08-2.748-.11-3.73-.01-.883-.01-1.374.03-1.374s.1.481.17 1.364c.07.982.17 2.226.281 3.73.21 3.149.461 7.501.711 12.304.071 1.003.071 2.026.181 2.929.07.451.21.862.481 1.153.271.301.642.481.982.421l-.13.06c.211-.18.191-.571.01-.842-.17-.271-.491-.381-.822-.331-.681.1-1.143.712-1.313 1.344-.331 1.313-.301 2.587-.271 3.61.121 2.056.301 3.259.231 3.269z" fill="#D9DFE8"/><path d="M428.781 213.577c.02.031-.411.442-1.223 1.154-.802.722-2.005 1.724-3.529 2.928a110.224 110.224 0 01-12.481 8.534c-5.102 2.998-9.964 5.264-13.553 6.709a79.5 79.5 0 01-4.29 1.624c-1.023.351-1.594.522-1.604.491-.01-.03.531-.27 1.533-.681a181.981 181.981 0 004.211-1.765 127.588 127.588 0 0013.433-6.819c5.072-2.979 9.433-6.057 12.52-8.374a140.034 140.034 0 003.619-2.798c.862-.672 1.344-1.033 1.364-1.003z" fill="#263238"/><path d="M398.245 236.371c-.11.091-.712-.511-1.333-1.344-.622-.832-1.033-1.574-.922-1.654.11-.09.711.511 1.333 1.344.631.822 1.042 1.564.922 1.654zM404.3 233.815c-.08.11-.912-.351-1.684-1.214-.782-.852-1.163-1.724-1.043-1.795.131-.08.692.632 1.434 1.444.732.823 1.383 1.444 1.293 1.565zM411.899 231.308c-.111.1-.953-.682-1.875-1.735-.932-1.053-1.594-1.986-1.484-2.076.111-.1.953.682 1.875 1.735.932 1.053 1.594 1.975 1.484 2.076zM420.059 226.975c-.11.09-1.002-.812-2.005-2.006-.992-1.203-1.704-2.246-1.594-2.346.111-.09 1.003.812 2.005 2.006.993 1.203 1.705 2.256 1.594 2.346zM427.638 221.3c-.1.11-1.053-.602-2.145-1.585-1.083-.982-1.885-1.865-1.795-1.975.1-.11 1.053.602 2.145 1.584 1.093.993 1.895 1.876 1.795 1.976z" fill="#263238"/><path d="M500.319 140.455a2.327 2.327 0 10-4.528-1.072 2.327 2.327 0 004.528 1.072z" fill="#455A64"/><path d="M493.379 136.944c2.556-2.688 6.706-2.768 9.333-.121 1.182 1.194 3.047-.641 1.854-1.845-3.599-3.63-9.503-3.6-13.032.111-1.153 1.213.682 3.078 1.845 1.855zM485.479 126.103c3.539-3.058 7.759-4.984 12.491-4.994 4.691-.01 9.313 1.655 12.741 4.884 1.223 1.153 3.087-.682 1.854-1.845-3.929-3.69-9.212-5.666-14.595-5.656-5.444.01-10.285 2.236-14.345 5.756-1.264 1.103.581 2.959 1.854 1.855z" fill="#455A64"/><path d="M488.596 132.111c2.376-2.567 5.694-4.172 9.213-4.252 3.609-.08 7.097 1.404 9.603 3.981 1.173 1.214 3.038-.632 1.855-1.845-2.967-3.049-7.178-4.854-11.448-4.763-4.18.1-8.23 1.945-11.067 5.014-1.143 1.243.691 3.108 1.844 1.865z" fill="#455A64"/><path d="M147.593 20.893s40.718-4.6 63.13-4.6c22.413 0 64.278 4.6 64.278 4.6s-1.721 52.329-6.886 87.406c-5.166 35.077-57.392 69.004-57.392 69.004s-53.373-33.927-57.391-69.004c-4.017-35.078-5.739-87.406-5.739-87.406z" fill="#0084E4"/><rect x="186.797" y="76.496" width="49.003" height="37.802" rx="7" fill="#D9DFE8"/><path d="M216.199 91.197a4.9 4.9 0 11-9.8 0 4.9 4.9 0 019.8 0z" fill="#263238"/><path d="M209.198 93.997a2.1 2.1 0 114.2 0v8.401a2.1 2.1 0 11-4.2 0v-8.4z" fill="#263238"/><path d="M226 76.496V61.095c0-8.506-6.895-15.401-15.401-15.401-8.505 0-15.401 6.895-15.401 15.401v15.401" stroke="#D9DFE8" stroke-width="2.8"/></g><defs><clipPath id="clip0"><path fill="#fff" d="M0 0h645v397.734H0z"/></clipPath></defs></svg>