<svg width="533" height="497" fill="none" xmlns="http://www.w3.org/2000/svg"><g clip-path="url(#clip0)"><path d="M408.415 381.25l12.85 7.969 2.441-3.942c.72-1.159 2.025-1.781 3.38-1.672.744.061 1.501.086 2.258.074 1.354-.025 2.623.683 3.258 1.879l2.184 4.076 13.327-7.151-2.185-4.076c-.647-1.196-.537-2.636.244-3.759.427-.622.83-1.257 1.196-1.928.659-1.196 1.904-1.941 3.259-1.892l4.625.147.463-15.12-4.649-.135c-1.367-.036-2.551-.878-3.124-2.111-.159-.329-.33-.671-.501-1.001-.17-.329-.353-.646-.549-.964-.695-1.159-.744-2.599-.024-3.758l2.453-3.966-12.85-7.969-2.453 3.941c-.72 1.16-2.026 1.782-3.381 1.66a23.187 23.187 0 00-2.257-.073c-1.355.024-2.624-.684-3.259-1.879l-2.184-4.076-13.326 7.151 2.184 4.076c.647 1.196.537 2.636-.244 3.758-.427.623-.83 1.257-1.184 1.916a3.606 3.606 0 01-3.258 1.904l-4.637-.146-.476 15.12 4.637.146c1.355.037 2.538.879 3.112 2.099.158.342.329.671.5 1.001.171.329.354.647.549.964.708 1.172.745 2.612.025 3.771l-2.404 3.966zm9.543-12.789c-3.234-6.029-.964-13.534 5.064-16.768 6.029-3.234 13.546-.976 16.78 5.052 3.234 6.029.964 13.546-5.064 16.78-6.041 3.234-13.546.964-16.78-5.064zM461.488 334.23l5.297 9.177 2.806-1.623a2.53 2.53 0 012.636.085c.44.293.903.55 1.367.794a2.525 2.525 0 011.391 2.233v3.246h10.593v-3.246c0-.952.549-1.806 1.391-2.233.476-.244.928-.501 1.367-.794a2.505 2.505 0 012.636-.085l2.807 1.623 5.296-9.177-2.819-1.623c-.83-.476-1.281-1.379-1.232-2.343.012-.256.024-.525.024-.781s-.012-.525-.024-.781c-.049-.952.402-1.855 1.22-2.331l2.831-1.635-5.296-9.177-2.819 1.623a2.503 2.503 0 01-2.636-.098c-.44-.293-.891-.549-1.367-.793a2.511 2.511 0 01-1.391-2.233v-3.246h-10.593v3.246c0 .952-.549 1.806-1.391 2.233-.476.244-.928.5-1.367.793-.793.525-1.818.574-2.636.098l-2.819-1.623-5.296 9.177 2.819 1.623c.83.476 1.281 1.379 1.232 2.331-.012.256-.024.524-.024.781 0 .256.012.524.024.781.049.952-.402 1.867-1.232 2.343l-2.795 1.635zm10.141-4.735a8.672 8.672 0 018.677-8.677c4.796 0 8.689 3.881 8.689 8.677 0 4.796-3.893 8.677-8.689 8.677a8.672 8.672 0 01-8.677-8.677zM32.938 36.025l5.296 9.177 2.807-1.623a2.53 2.53 0 012.636.085c.44.293.903.55 1.367.794a2.512 2.512 0 011.391 2.233v3.246h10.593V46.69c0-.952.55-1.806 1.391-2.233.476-.245.928-.5 1.367-.794a2.504 2.504 0 012.636-.085l2.807 1.623 5.296-9.177-2.819-1.623c-.83-.476-1.281-1.38-1.233-2.343.013-.257.025-.525.025-.781 0-.257-.012-.525-.025-.781-.048-.952.403-1.855 1.22-2.331l2.832-1.636-5.296-9.177-2.82 1.624a2.504 2.504 0 01-2.635-.098c-.44-.293-.891-.55-1.367-.793a2.526 2.526 0 01-1.391-2.233v-3.247H46.423v3.246c0 .952-.55 1.807-1.391 2.234-.476.244-.928.5-1.367.793-.793.525-1.818.573-2.636.098l-2.819-1.623-5.296 9.177 2.819 1.623c.83.476 1.281 1.379 1.232 2.33-.012.257-.024.525-.024.781 0 .257.012.525.024.782.05.951-.402 1.867-1.232 2.343l-2.795 1.635zM43.08 31.29a8.672 8.672 0 018.677-8.677c4.796 0 8.689 3.88 8.689 8.677 0 4.796-3.893 8.677-8.689 8.677a8.672 8.672 0 01-8.677-8.677zM85.535 256.871c-2.916 19.941-20.087 35.232-40.833 35.232-22.796 0-41.284-18.476-41.284-41.285 0-22.796 18.488-41.272 41.284-41.272v41.272l40.833 6.053z" fill="#E9EFF4"/><path d="M94.384 242.411c0 2.062-.159 4.076-.451 6.053L53.1 242.411v-41.273c15.315 0 28.69 8.348 35.83 20.746 3.477 6.053 5.454 13.07 5.454 20.527z" fill="#DBDBDB"/><path d="M109.541 273.151H65.644v1.037h43.897v-1.037z" fill="#C8D1D7"/><path d="M112.615 277.276a3.599 3.599 0 01-3.6-3.6c0-1.989 1.611-3.6 3.6-3.6s3.6 1.611 3.6 3.6-1.611 3.6-3.6 3.6zm0-6.151a2.558 2.558 0 00-2.551 2.551 2.558 2.558 0 002.551 2.551 2.558 2.558 0 002.55-2.551c.012-1.403-1.135-2.551-2.55-2.551zM157.868 271.369h-34.097v1.538h34.097v-1.538zM143.077 274.445h-19.306v1.538h19.306v-1.538z" fill="#C8D1D7"/><path d="M254.577 8.847h-9.775v69.524h9.775V8.847zM271.368 25.676h-9.775v52.695h9.775V25.676zM288.16 52.023h-9.775v26.348h9.775V52.023zM304.953 36.964h-9.775v41.394h9.775V36.964zM321.743 21.16h-9.775V78.36h9.775V21.16zM338.539 11.874h-9.775v66.497h9.775V11.874z" fill="#E9EFF4"/><path d="M239.139 0l.11 19.587.061 19.586.073 39.186-.244-.244c8.982-.025 17.964-.037 26.933 0l26.933.049 26.934.048 26.933.147-26.933.146-26.934.049-26.933.049c-8.982.036-17.963.024-26.933 0h-.244v-.244l.073-39.186.061-19.586.11-19.587z" fill="#E9EFF4"/><path d="M236.979 3.93c.72-.22 1.44-.269 2.16-.28.72.011 1.44.06 2.16.28-.72.22-1.44.268-2.16.28-.72-.012-1.44-.06-2.16-.28zM236.979 9.885c.72-.22 1.44-.268 2.16-.28.72.012 1.44.06 2.16.28-.72.22-1.44.268-2.16.28-.72-.011-1.44-.06-2.16-.28zM236.979 15.84c.72-.22 1.44-.268 2.16-.28.72.012 1.44.06 2.16.28-.72.22-1.44.269-2.16.28-.72-.011-1.44-.06-2.16-.28zM236.979 21.795c.72-.22 1.44-.268 2.16-.28.72.012 1.44.06 2.16.28-.72.22-1.44.269-2.16.281-.72-.012-1.44-.061-2.16-.28zM236.979 27.75c.72-.22 1.44-.268 2.16-.28.72.012 1.44.06 2.16.28-.72.22-1.44.269-2.16.281-.72-.012-1.44-.06-2.16-.28zM236.979 33.706c.72-.22 1.44-.269 2.16-.281.72.012 1.44.061 2.16.28-.72.22-1.44.27-2.16.281-.72-.012-1.44-.06-2.16-.28zM236.979 39.66c.72-.219 1.44-.268 2.16-.28.72.012 1.44.061 2.16.28-.72.22-1.44.27-2.16.282-.72-.013-1.44-.062-2.16-.281zM236.979 45.617c.72-.22 1.44-.268 2.16-.28.72.012 1.44.06 2.16.28-.72.22-1.44.269-2.16.28-.72-.011-1.44-.06-2.16-.28zM236.979 51.572c.72-.22 1.44-.268 2.16-.28.72.012 1.44.06 2.16.28-.72.22-1.44.269-2.16.281-.72-.012-1.44-.061-2.16-.28zM236.979 57.528c.72-.22 1.44-.269 2.16-.281.72.012 1.44.06 2.16.28-.72.22-1.44.269-2.16.281-.72-.012-1.44-.06-2.16-.28zM236.979 63.483c.72-.22 1.44-.269 2.16-.281.72.012 1.44.061 2.16.28-.72.22-1.44.27-2.16.281-.72-.012-1.44-.06-2.16-.28zM236.979 69.438c.72-.22 1.44-.269 2.16-.28.72.011 1.44.06 2.16.28-.72.22-1.44.268-2.16.28-.72-.012-1.44-.06-2.16-.28zM180.478 145.123H47.46V53.109h133.018v92.014zm-132.408-.61h131.798V53.719H48.07v90.794z" fill="#E9EFF4"/><path d="M180.478 62.213H47.46v-9.104h133.018v9.104zm-132.408-.61h131.798v-7.884H48.07v7.884z" fill="#E9EFF4"/><path d="M55.733 57.722a2.13 2.13 0 01-2.136 2.136 2.13 2.13 0 01-2.136-2.136 2.13 2.13 0 012.136-2.135 2.13 2.13 0 012.136 2.135z" fill="#C8D1D7"/><path d="M64.458 57.722a2.13 2.13 0 01-2.136 2.136 2.13 2.13 0 01-2.136-2.136 2.13 2.13 0 012.136-2.136 2.13 2.13 0 012.136 2.136z" fill="#E9EFF4"/><path d="M73.184 57.722a2.13 2.13 0 01-2.136 2.136 2.13 2.13 0 01-2.135-2.136 2.13 2.13 0 012.135-2.136 2.13 2.13 0 012.136 2.136z" fill="#028BFC"/><path d="M511.303 273.493h-133.03v-92.027h133.03v92.027zm-132.42-.61h131.81v-90.806h-131.81v90.806z" fill="#E9EFF4"/><path d="M511.303 190.57h-133.03v-9.104h133.03v9.104zm-132.42-.61h131.81v-7.883h-131.81v7.883z" fill="#E9EFF4"/><path d="M384.41 188.215a2.136 2.136 0 100-4.272 2.136 2.136 0 000 4.272z" fill="#C8D1D7"/><path d="M395.271 186.079a2.13 2.13 0 01-2.136 2.136 2.13 2.13 0 01-2.135-2.136 2.13 2.13 0 012.135-2.136 2.13 2.13 0 012.136 2.136z" fill="#E9EFF4"/><path d="M401.861 188.215a2.136 2.136 0 100-4.272 2.136 2.136 0 000 4.272z" fill="#028BFC"/><path d="M266.025 497c144.138 0 260.984-13.484 260.984-30.118s-116.846-30.118-260.984-30.118c-144.137 0-260.984 13.484-260.984 30.118S121.888 497 266.025 497z" fill="#F4FAFD"/><path d="M0 426.135l66.51-.305 66.508-.098 133.006-.207 133.018.207 66.51.098 66.496.305-66.496.293-66.51.109-133.018.208-133.006-.208-66.509-.109L0 426.135z" fill="#263238"/><path d="M475.898 237.529s-26.482-3.71-20.295-35.683c0 0 29.594 6.639 20.295 35.683z" fill="#028BFC"/><path opacity=".1" d="M475.898 237.529s-26.482-3.71-20.295-35.683c0 0 29.594 6.639 20.295 35.683z" fill="#000"/><path d="M474.569 230.854a46.67 46.67 0 00-1.806-4.759l-.074-.611-.109-1.318a198.66 198.66 0 01-.196-2.867c-.109-1.904-.232-3.82-.268-5.736 0-.11-.159-.098-.159 0-.012 1.916-.049 3.832.025 5.736.036.951.097 1.916.158 2.867.013.208.025.428.049.635a56.246 56.246 0 00-5.308-9.079 52.526 52.526 0 00-2.893-3.674c-1.061-1.208-2.172-2.355-3.234-3.551-.073-.073-.183.037-.109.122 1.952 2.026 3.563 4.442 5.101 6.785a65.127 65.127 0 012.282 3.735c-.086-.037-.171-.061-.244-.098a31.8 31.8 0 00-.94-.378c-.72-.281-1.44-.55-2.16-.818-1.416-.525-2.843-1.049-4.259-1.586-.085-.037-.147.109-.061.146 1.403.561 2.807 1.159 4.198 1.757l2.05.879c.342.146.683.281 1.037.427.232.098.464.208.708.244a65.717 65.717 0 011.55 2.905 69.634 69.634 0 013.234 7.627c.061.183.122.366.195.549-.659-.439-1.489-.732-2.172-1.05-.915-.427-1.831-.829-2.746-1.244-1.855-.855-3.697-1.721-5.479-2.722-.086-.049-.171.098-.073.147 1.818.988 3.6 2.05 5.43 3.038.915.501 1.831.977 2.758 1.428.769.366 1.623.891 2.49 1.001.83 2.441 1.525 4.918 1.733 7.517.292 3.613.256 7.261.341 10.886 0 .061.098.061.098 0 .268-3.283.415-6.602.427-9.909 0-3.137-.622-6.053-1.574-9.031z" fill="#263238"/><path d="M470.479 212.047c-.207 1.855-.39 3.771-.268 5.638 0 .049.073.049.085 0 .11-1.867.122-3.734.342-5.601.012-.098-.147-.134-.159-.037zM462.915 213.647c-1.172-.501-2.344-.964-3.405-1.672-.086-.061-.171.085-.073.146 1.073.671 2.208 1.318 3.441 1.648.049.012.098-.098.037-.122zM476.754 288.283c-.025-2.928-.074-5.857-.11-8.774-.061-9.714-.135-19.44-.305-29.154-.135-7.713-.318-15.425-.537-23.15 0-.049-.025-.073-.061-.098l-.037-6.321c0-.049-.061-.073-.122-.073s-.122.024-.122.085l-.037 6.334c-.036.024-.061.049-.061.085-.39 13.729-.732 27.47-.817 41.199-.012 2.795-.012 5.589-.025 8.384a1796.34 1796.34 0 00-.097 26.872l-.037 4.271c-.024 8.189.086 16.39.086 24.578 0 .44.488.659 1.012.684.598.024 1.233-.208 1.233-.72 0-9.031.061-18.074.061-27.104-.012-5.699.012-11.399-.024-17.098z" fill="#263238"/><path d="M465.685 279.399s-12.741-9.433-24.835-3.063c-12.093 6.382-13.985 30.96-13.985 30.96s17.756 2.538 28.935-8.103c10.775-10.251 9.885-19.794 9.885-19.794z" fill="#028BFC"/><path d="M469.163 279.973c-2.306-.964-4.869-1.208-7.383-.964-.512-.11-1.049-.11-1.562-.147-.598-.049-1.196-.085-1.794-.134-1.232-.098-2.477-.171-3.71-.269-2.514-.183-5.04-.341-7.541-.597-.086-.013-.11.146-.013.158 2.478.317 4.955.671 7.444.928 1.282.134 2.563.256 3.845.354.305.024.61.061.927.085-.378.085-.757.171-1.135.281-2.001.561-3.917 1.379-5.772 2.343-1.001.183-2.001.463-2.99.695-1.574.366-3.148.781-4.711 1.184-3.087.805-6.15 1.721-9.225 2.612-.098.024-.049.183.048.158 3.064-.756 6.151-1.44 9.226-2.172 1.489-.354 2.99-.708 4.479-1.074a38.02 38.02 0 011.172-.268 37.305 37.305 0 00-9.055 7.871c-2.539 3.051-4.552 6.382-6.298 9.921-.048.086.086.183.135.086a48.223 48.223 0 017.615-9.995c-.061.171-.11.342-.171.513-.232.744-.476 1.501-.708 2.245-.476 1.501-.952 3.002-1.391 4.503-.025.098.122.134.159.037.537-1.452 1.049-2.917 1.562-4.381.256-.72.5-1.44.756-2.148.134-.366.256-.745.379-1.123.036-.11.085-.232.122-.342a46.518 46.518 0 014.515-3.856 34.761 34.761 0 016.761-3.881c-.049.22-.086.44-.135.647-.122.586-.256 1.16-.378 1.745a386.831 386.831 0 00-.72 3.625c-.476 2.465-.781 4.967-1.245 7.432-.024.097.135.146.159.036.573-2.477 1.306-4.918 1.855-7.407.281-1.245.561-2.49.817-3.734.123-.586.232-1.16.354-1.746.061-.329.147-.646.183-.976.232-.097.464-.195.696-.281 3.344-1.232 7.041-2.135 10.605-1.452 3.405.659 6.333 2.941 7.664 6.139.11.28.549.109.488-.183-.684-3.015-3.234-5.285-6.029-6.468z" fill="#263238"/><path d="M449.662 290.48c-.366 1.611-.72 3.234-1.074 4.845-.342 1.537-.757 3.136-.891 4.71 0 .061.085.061.098.012.524-1.513.768-3.173 1.086-4.747.317-1.598.622-3.185.939-4.784.013-.097-.146-.146-.158-.036zM437.336 294.581c-1.623.817-3.197 1.757-4.893 2.428-.11.049-.037.196.061.147 1.635-.818 3.319-1.538 4.857-2.514.049-.025.012-.086-.025-.061z" fill="#263238"/><path d="M468.553 262.058s-15.572.988-22.808-9.275c-7.249-10.263-5.614-24.932-5.614-24.932s16.353 1.989 22.845 9.36c6.492 7.384 5.577 24.847 5.577 24.847z" fill="#028BFC"/><path d="M475.863 277.422c-.537-1.672-1.208-3.307-1.843-4.942a104.65 104.65 0 00-1.94-4.662 99.53 99.53 0 00-4.662-9.177 100.193 100.193 0 00-3.49-5.54c-.024-.281-.085-.55-.122-.83-.073-.476-.146-.964-.22-1.44-.158-.989-.329-1.965-.488-2.953-.354-2.148-.805-4.284-1.147-6.444-.012-.098-.183-.098-.159 0 .318 2.123.525 4.259.83 6.383.147 1.049.281 2.086.44 3.136.061.378.122.756.17 1.135a114.348 114.348 0 00-7.7-9.995c-.378-.427-.757-.854-1.135-1.269-.036-.122-.097-.232-.146-.354-.11-.293-.232-.598-.342-.891-.232-.622-.452-1.232-.671-1.855-.44-1.22-.83-2.453-1.159-3.697-.025-.098-.184-.049-.159.048a83.73 83.73 0 001.025 3.82c.183.61.378 1.208.598 1.806.037.098.073.195.11.305-1.989-2.172-4.064-4.259-6.163-6.321-.073-.073-.183.049-.11.122 4.064 4.161 7.664 8.762 11.032 13.509a10.053 10.053 0 00-1.147-.293 59.143 59.143 0 00-3.624-.561 264.109 264.109 0 01-7.591-1.037c-.098-.013-.146.134-.037.158 2.417.476 4.809 1.013 7.2 1.575 1.135.256 2.27.475 3.405.707.952.183 1.831.476 2.734.781.256.366.512.72.756 1.074 1.148 1.66 2.234 3.356 3.308 5.065-.525-.11-1.062-.208-1.587-.305a116.48 116.48 0 00-3.612-.647c-2.38-.391-4.747-.806-7.103-1.343-.097-.024-.146.135-.036.159 2.379.561 4.735 1.208 7.102 1.843 1.135.305 2.294.586 3.442.842.573.122 1.147.256 1.733.378.244.049.475.122.695.122a169.047 169.047 0 016.383 11.313 166.233 166.233 0 012.513 5.125c.83 1.77 1.55 3.576 2.319 5.37.147.317.72.171.598-.22z" fill="#263238"/><path d="M459.925 241.641c-.292-1.489-.61-2.965-.939-4.442-.025-.098-.171-.049-.159.049.293 1.464.574 2.916.842 4.381.269 1.452.476 2.941.879 4.357.012.024.049.024.049-.013-.074-1.452-.391-2.904-.672-4.332zM450.835 241.202c-.72-.354-1.489-.647-2.234-.94-.39-.159-.793-.305-1.183-.464-.196-.085-.403-.158-.598-.244-.208-.085-.476-.146-.659-.293-.122-.085-.196.122-.074.135.232.036.452.183.672.268.195.086.39.171.585.269l1.135.512c.757.33 1.513.671 2.295.915.097.025.158-.109.061-.158z" fill="#263238"/><path d="M484.491 249.818s9.421-17.597 23.76-20.331c14.339-2.721 23.114 12.021 23.114 12.021s-10.459 13.35-23.614 15.681c-13.156 2.343-23.26-7.371-23.26-7.371z" fill="#028BFC"/><path d="M517.855 237.383c-3.71-.512-7.518-.451-11.24.134.22-.122.427-.231.635-.341a384.773 384.773 0 003.185-1.636c2.196-1.147 4.43-2.367 6.736-3.282.11-.049.037-.196-.061-.147-2.245 1.05-4.564 1.916-6.822 2.954a69.308 69.308 0 00-3.331 1.635c-.708.378-1.489.732-2.185 1.171-3.148.647-6.223 1.648-9.116 3.027a288.77 288.77 0 001.794-1.953c1.33-1.464 2.648-3.002 4.113-4.332.073-.073-.037-.183-.122-.11-1.501 1.367-3.088 2.624-4.54 4.04a41.93 41.93 0 00-2.038 2.135c-.329.366-.659.745-.964 1.135-6.236 3.393-11.532 8.506-15.035 14.681-1.989 3.514-3.38 7.31-4.185 11.264-.025.097.122.158.158.049 1.965-6.651 5.687-12.887 10.544-17.83 5.272-5.369 11.923-9.238 19.208-11.117a42.156 42.156 0 0113.253-1.208c.171.024.196-.244.013-.269z" fill="#263238"/><path opacity=".1" d="M531.365 241.52s-10.459 13.351-23.614 15.681c-10.031 1.782-18.293-3.453-21.637-6.028l-.72-1.184s6.785-5.723 19.624-9.018c12.825-3.307 26.347.549 26.347.549z" fill="#000"/><path d="M509.531 231.098c-1.086.659-2.172 1.33-3.185 2.099a20.897 20.897 0 00-2.77 2.526c-.073.085.036.183.122.122.952-.83 1.904-1.66 2.892-2.441.964-.769 1.953-1.525 3.014-2.172.098-.049.012-.183-.073-.134zM517.391 234.088c-.537.219-1.074.415-1.599.634-.537.22-1.062.44-1.599.659-.11.049-.061.232.061.183.537-.219 1.062-.427 1.599-.646.537-.22 1.062-.464 1.586-.684.098-.036.049-.195-.048-.146z" fill="#263238"/><path d="M482.61 271.967s2.514 17.463 15.645 23.565c13.131 6.114 29.142 0 29.142 0s-6.297-37.77-44.787-23.565z" fill="#028BFC"/><path d="M518.343 284.183c-1.208-.134-2.416-.341-3.612-.561-.586-.11-1.172-.22-1.77-.33-.293-.061-.61-.134-.927-.183-.354-.329-.696-.659-1.062-.988a53.588 53.588 0 00-8.03-5.821 47.12 47.12 0 00-4.808-2.477c.085 0 .171.012.244.012l4.32.183c2.88.134 5.76.195 8.64.378.11.012.098-.159 0-.159-2.892-.195-5.772-.512-8.652-.756a491.81 491.81 0 01-4.198-.378l-2.16-.183a8.535 8.535 0 01-.549-.062 36.12 36.12 0 00-2.27-.781c-3.588-1.11-7.444-1.549-11.118-.61-3.307.842-6.602 3.015-7.456 6.493-.024.122.159.207.208.085 1.232-2.904 4.466-4.369 7.37-4.979 1.965-.403 3.967-.391 5.944-.122.085.891.414 1.818.659 2.636.366 1.232.72 2.453 1.098 3.685.744 2.453 1.562 4.882 2.294 7.335.025.097.183.048.159-.049-.61-2.453-1.123-4.918-1.721-7.383-.293-1.208-.598-2.404-.891-3.613-.195-.768-.354-1.684-.659-2.477a31.36 31.36 0 013.405.806 51.294 51.294 0 015.955 2.184c.196 1.245.476 2.477.757 3.71a55.203 55.203 0 001.245 4.576c.036.098.171.049.146-.049-.024-.097-.036-.195-.061-.28-.293-1.428-.61-2.856-.915-4.284-.244-1.147-.464-2.306-.72-3.453a53.259 53.259 0 014.784 2.428c.036.354.122.72.171 1.05.097.598.207 1.196.317 1.794.244 1.342.512 2.684.842 4.015.622 2.562 1.318 5.125 2.257 7.59a.076.076 0 000 .098c.025.024.049.061.074.085.061.061.146-.012.134-.085-.61-2.587-1.306-5.15-1.867-7.749-.281-1.294-.574-2.588-.83-3.893-.134-.647-.244-1.306-.378-1.953a7.539 7.539 0 01-.086-.586 56.612 56.612 0 015.114 3.405c2.806 2.111 5.479 4.528 7.822 7.139.098.11.281-.049.195-.159-1-1.318-2.001-2.599-3.124-3.819a46.899 46.899 0 00-2.05-2.063l.22.037c.61.11 1.232.195 1.855.281 1.208.158 2.428.28 3.648.415.098.036.147-.122.037-.135z" fill="#263238"/><path d="M509.116 290.102l-.073-.452c-.037-.195-.134-.378-.159-.573v-.013a69.353 69.353 0 01-.707-3.526c-.013-.086-.147-.061-.147.024.061 1.562.439 3.112 1.001 4.564.012.049.097.037.097-.012-.012 0-.012-.012-.012-.012zM498.135 289.82c0-.048-.037-.073-.074-.073-.366-1.55-.72-3.087-1.037-4.649-.171-.818-.342-1.636-.5-2.453-.086-.44-.171-.879-.244-1.33-.074-.379-.098-.794-.281-1.135-.037-.061-.134-.049-.146.024-.11.732.195 1.623.329 2.343.159.854.329 1.709.513 2.551.378 1.72.817 3.441 1.293 5.137.025.098.183.074.171-.024a4.525 4.525 0 01-.024-.391zM517.148 279.154c-2.392-.329-4.796-.671-7.2-.964-.098-.012-.147.147-.037.159 2.392.354 4.796.647 7.2.964.098.012.147-.146.037-.159z" fill="#263238"/><path d="M475.886 231.024s-8.03-35.243 29.838-49.509c0-.012 10.483 46.385-29.838 49.509z" fill="#028BFC"/><path d="M484.051 211.022c.146-.085.281-.183.403-.244.72-.39 1.427-.793 2.135-1.196l4.393-2.453c2.893-1.623 5.748-3.294 8.653-4.881.097-.049.012-.183-.086-.134-2.916 1.586-5.882 3.075-8.811 4.625l-4.344 2.294c-.586.318-1.184.623-1.77.94 1.27-2.392 2.612-4.747 4.101-7.005 1.977-3.014 4.149-5.894 6.407-8.713.097-.134-.061-.293-.183-.183-3.344 3.197-6.236 6.846-8.762 10.739 0-.122 0-.244.012-.366.049-.879.061-1.758.073-2.636.024-1.721-.061-3.442 0-5.162 0-.11-.159-.098-.159 0-.073 1.696-.268 3.38-.366 5.076a87.732 87.732 0 00-.11 2.539c-.012.451-.061.976-.036 1.476a85.352 85.352 0 00-2.234 3.771 64.569 64.569 0 00-3.38 7.103 92.872 92.872 0 00-.146-2.636c-.11-1.929-.354-3.857-.427-5.785 0-.11-.159-.097-.159 0 .037 1.928-.049 3.857.012 5.797.025.964.061 1.928.122 2.892.025.354.037.72.061 1.074a63.718 63.718 0 00-2.855 9.69c-.733 3.526-1.038 7.065-1.416 10.641 0 .024.037.024.037 0 .329-3.185 1.134-6.407 2.013-9.494.464-1.66.964-3.32 1.501-4.955 1.574-.744 3.088-1.672 4.601-2.514 1.574-.878 3.173-1.733 4.747-2.599 3.161-1.733 6.309-3.49 9.568-5.028.097-.049.012-.183-.086-.134-3.307 1.501-6.626 2.916-9.872 4.552a105.856 105.856 0 00-4.772 2.562c-1.318.745-2.673 1.477-3.917 2.331a65.427 65.427 0 011.171-3.27 95.657 95.657 0 013.881-8.714z" fill="#263238"/><path d="M480.866 202.968c-.013-.098-.171-.098-.159 0 .134 2.013.207 4.015.415 6.028.012.11.183.11.183 0-.073-2.013-.293-4.015-.439-6.028zM499.025 209.705c-2.368.952-4.76 1.855-7.115 2.844-.061.024-.037.134.037.109 2.392-.891 4.759-1.867 7.139-2.806.073-.037.036-.184-.061-.147zM502.623 193.45c-2.318 1.074-4.564 2.257-6.736 3.612-.11.073-.012.232.11.171a114.324 114.324 0 016.712-3.649c.085-.049 0-.183-.086-.134z" fill="#263238"/><path d="M502.038 307.235h-54.61v57.564h54.61v-57.564z" fill="#37474F"/><path d="M446.464 327.615h-2.795v98.605h2.795v-98.605zM505.516 327.615h-2.795v98.605h2.795v-98.605zM477.472 327.615h-2.795v98.605h2.795v-98.605z" fill="#263238"/><path d="M504.112 361.114h-59.04v7.969h59.04v-7.969z" fill="#263238"/><g opacity=".5" fill="#E9EFF4"><path opacity=".5" d="M489.045 221.859H295.339v138.303h193.706V221.859z"/><path opacity=".5" d="M489.045 360.162l-193.706.329h-.33v-.329l-.134-138.302v-.452h.452l193.706.122h.329v.33l-.317 138.302zm0 0l-.33-138.302.33.329-193.706.122.451-.451-.134 138.302-.329-.33 193.718.33z"/></g><path d="M489.046 212.768H295.34v9.079h193.706v-9.079z" fill="#455A64"/><path d="M302.564 217.32a2.26 2.26 0 01-2.257 2.257 2.26 2.26 0 01-2.258-2.257 2.26 2.26 0 012.258-2.258 2.26 2.26 0 012.257 2.258z" fill="#C8D1D7"/><path d="M311.765 217.32a2.26 2.26 0 01-2.258 2.258 2.26 2.26 0 01-2.257-2.258 2.26 2.26 0 012.257-2.258 2.26 2.26 0 012.258 2.258z" fill="#fff"/><path d="M320.968 217.32a2.26 2.26 0 01-2.258 2.258 2.26 2.26 0 01-2.258-2.258 2.26 2.26 0 012.258-2.258 2.26 2.26 0 012.258 2.258z" fill="#028BFC"/><path d="M438.801 337.664h13.986v-90.672h-13.986v90.672z" fill="#fff"/><path d="M438.801 337.666h13.986v-68.889h-13.986v68.889z" fill="#028BFC"/><path d="M417.762 337.66h13.986v-90.635h-13.986v90.635z" fill="#fff"/><path d="M417.762 337.659h13.986V277.96h-13.986v59.699z" fill="#455A64"/><path d="M396.736 337.663h13.985v-90.672h-13.985v90.672z" fill="#fff"/><path d="M396.736 337.659h13.985v-27.58h-13.985v27.58z" fill="#028BFC"/><path d="M375.697 337.661h13.985v-90.635h-13.985v90.635z" fill="#fff"/><path d="M375.697 337.663h13.985v-75.686h-13.985v75.686z" fill="#455A64"/><path d="M354.672 337.661h13.985v-90.635h-13.985v90.635z" fill="#fff"/><path d="M354.672 337.661h13.985v-81.678h-13.985v81.678z" fill="#028BFC"/><path d="M333.633 337.661h13.985v-90.635h-13.985v90.635z" fill="#fff"/><path d="M333.633 337.668h13.985v-51.755h-13.985v51.755z" fill="#455A64"/><path d="M324.323 246.987l.207 22.674.135 22.662.146 45.336-.488-.488 34.438-.025 34.451.061 34.438.159 34.45.293-34.45.305-34.438.159-34.451.061-34.438-.025h-.5v-.5l.146-45.336.146-22.662.208-22.674z" fill="#C8D1D7"/><path d="M322.298 246.987c.695-.208 1.391-.256 2.086-.269.696.013 1.392.061 2.087.269-.695.207-1.391.256-2.087.268-.695-.012-1.391-.061-2.086-.268zM322.297 255.981c.696-.207 1.391-.256 2.087-.268.696.012 1.391.061 2.087.268-.696.208-1.391.257-2.087.269-.696-.012-1.391-.061-2.087-.269zM322.297 264.976c.696-.208 1.391-.257 2.087-.269.696.012 1.391.061 2.087.269-.696.207-1.391.256-2.087.268-.696-.012-1.391-.061-2.087-.268zM322.297 273.957c.696-.208 1.391-.257 2.087-.269.696.012 1.391.061 2.087.269-.696.207-1.391.256-2.087.268-.696-.012-1.391-.061-2.087-.268zM322.297 282.951c.696-.208 1.391-.257 2.087-.269.696.012 1.391.061 2.087.269-.696.207-1.391.256-2.087.268-.696-.012-1.391-.061-2.087-.268zM322.297 291.945c.696-.208 1.391-.256 2.087-.269.696.013 1.391.061 2.087.269-.696.207-1.391.256-2.087.268-.696-.012-1.391-.061-2.087-.268zM322.297 300.939c.696-.208 1.391-.256 2.087-.269.696.013 1.391.061 2.087.269-.696.207-1.391.256-2.087.268-.696-.012-1.391-.061-2.087-.268zM322.297 309.921c.696-.207 1.391-.256 2.087-.268.696.012 1.391.061 2.087.268-.696.208-1.391.256-2.087.269-.696-.013-1.391-.061-2.087-.269zM322.297 318.915c.696-.207 1.391-.256 2.087-.268.696.012 1.391.061 2.087.268-.696.208-1.391.257-2.087.269-.696-.012-1.391-.061-2.087-.269zM322.297 327.908c.696-.207 1.391-.256 2.087-.268.696.012 1.391.061 2.087.268-.696.208-1.391.256-2.087.269-.696-.013-1.391-.061-2.087-.269z" fill="#C8D1D7"/><g opacity=".5" fill="#E9EFF4"><path opacity=".5" d="M250.025 83.936H71.109v116.471h178.916V83.937z"/><path opacity=".5" d="M250.025 200.406l-178.916.33h-.329v-.33l-.122-116.47v-.451h.451l178.916.122h.33v.33l-.11 58.332-.22 58.137zm0 0l-.22-58.332-.109-58.138.329.33-178.916.122.452-.452-.134 116.47-.33-.329 178.928.329z"/></g><path d="M250.024 75.54H71.108v8.396h178.916V75.54z" fill="#455A64"/><path d="M77.784 79.74a2.086 2.086 0 11-4.173 0c0-1.148.927-2.087 2.087-2.087 1.159.012 2.086.94 2.086 2.086z" fill="#C8D1D7"/><path d="M86.28 79.739a2.086 2.086 0 11-4.174 0c0-1.147.928-2.087 2.087-2.087 1.16.012 2.087.94 2.087 2.087z" fill="#fff"/><path d="M94.784 79.739a2.086 2.086 0 11-4.173 0c0-1.147.927-2.087 2.086-2.087 1.147.012 2.087.94 2.087 2.087z" fill="#028BFC"/><path d="M230.059 100.863H104.07v12.277h125.989v-12.277z" fill="#fff"/><path d="M170.823 104.341H108.17v5.32h62.653v-5.32z" fill="#028BFC"/><path d="M230.059 118.887H104.07v12.277h125.989v-12.277z" fill="#fff"/><path d="M205.932 122.377H108.17v5.321h97.762v-5.321z" fill="#455A64"/><path d="M230.059 136.912H104.07v12.277h125.989v-12.277z" fill="#fff"/><path d="M132.675 140.402H108.17v5.321h24.505v-5.321z" fill="#028BFC"/><path d="M230.059 154.949H104.07v12.277h125.989v-12.277z" fill="#fff"/><path d="M185.833 158.426H108.17v5.321h77.663v-5.321z" fill="#455A64"/><path d="M230.059 172.973H104.07v12.277h125.989v-12.277z" fill="#fff"/><path d="M197.353 176.451H108.17v5.321h89.183v-5.321z" fill="#028BFC"/><path d="M88.242 107.392c0 .793-.647 1.427-1.44 1.427a1.43 1.43 0 01-1.428-1.281v-.012c-.012-.11-.012-.22-.012-.342 0-.39.061-.817.208-1.208.146-.391.39-.757.756-1.013.245-.171.55-.268.891-.281.183 0 .33.135.342.318.012.171-.134.329-.317.341-.22 0-.403.074-.55.159a1.114 1.114 0 00-.366.415 2.032 2.032 0 00-.073.159c.171-.074.366-.122.561-.122a1.44 1.44 0 011.428 1.44zm-.647 0a.775.775 0 10-1.55 0c0 .427.342.768.77.768a.775.775 0 00.78-.768zM89.169 106.757c.012-.537.146-1.037.402-1.416.245-.378.635-.659 1.099-.659.451 0 .842.281 1.086.659.256.379.39.867.39 1.416 0 .537-.146 1.037-.39 1.416-.244.366-.635.659-1.086.659-.464 0-.855-.281-1.099-.659-.268-.391-.402-.879-.402-1.416zm2.33 0c0-.427-.121-.793-.28-1.049-.171-.245-.366-.367-.55-.367-.182 0-.378.11-.56.367-.171.256-.281.622-.281 1.049 0 .415.122.793.28 1.05.171.256.379.366.562.366.183 0 .378-.11.549-.366.159-.257.28-.635.28-1.05zM93.295 105.707c0-.586.39-1.061.976-1.061s.964.475.964 1.049v.012c0 .574-.39 1.05-.976 1.05-.574 0-.964-.476-.964-1.05zm1.427 0c0-.341-.183-.61-.451-.61-.28 0-.44.269-.44.586v.012c0 .342.184.598.452.598.269.012.44-.268.44-.586zm-.744 2.758l2.71-3.697c.036-.074.121-.11.194-.11.135 0 .232.097.232.232 0 .061-.024.109-.048.158l-2.71 3.698a.24.24 0 01-.207.11.225.225 0 01-.232-.232c0-.061.025-.122.061-.159zm1.818-.647c0-.585.39-1.073.977-1.073.573 0 .964.475.964 1.049v.012c0 .574-.39 1.062-.977 1.062-.573 0-.964-.476-.964-1.05zm1.416 0c0-.341-.183-.61-.452-.61-.28 0-.439.269-.439.586v.012c0 .342.183.598.452.598.28.012.439-.268.439-.586zM85.388 124.147c0-.793.647-1.427 1.44-1.427a1.41 1.41 0 011.416 1.281c0 .012 0 .012.012.012 0 .11.013.22.013.342 0 .39-.062.818-.208 1.208-.146.391-.39.757-.757 1.013-.244.159-.549.268-.878.281a.337.337 0 01-.342-.318c-.012-.183.134-.329.317-.341.22-.013.403-.074.55-.171a1.26 1.26 0 00.451-.574c-.17.073-.366.122-.561.122a1.443 1.443 0 01-1.453-1.428zm.647 0a.776.776 0 101.55 0 .765.765 0 00-.769-.768.76.76 0 00-.78.768zM89.171 124.782c.012-.537.147-1.037.403-1.415.244-.379.634-.659 1.098-.659.452 0 .842.28 1.086.659.257.378.39.866.39 1.415 0 .537-.146 1.038-.39 1.416-.244.378-.634.659-1.086.659-.464 0-.854-.281-1.098-.659-.269-.378-.403-.879-.403-1.416zm2.331 0c0-.427-.122-.793-.28-1.049-.171-.244-.367-.366-.55-.354-.183-.012-.378.11-.561.354-.171.256-.28.622-.28 1.049 0 .415.121.794.28 1.05.17.256.378.366.561.366.183 0 .379-.11.55-.366a2.05 2.05 0 00.28-1.05zM93.297 123.733c0-.586.39-1.074.976-1.074s.964.476.964 1.049v.013c0 .573-.39 1.061-.976 1.061-.574 0-.964-.476-.964-1.049zm1.428 0c0-.342-.183-.61-.452-.61-.28 0-.44.268-.44.585v.013c0 .341.184.597.452.597.269.013.44-.268.44-.585zm-.745 2.758l2.71-3.698c.036-.073.121-.11.195-.11.134 0 .232.098.232.232 0 .061-.025.11-.05.159l-2.708 3.697a.238.238 0 01-.208.11.224.224 0 01-.232-.232c0-.061.025-.109.061-.158zm1.819-.647c0-.586.39-1.074.976-1.074.573 0 .964.476.964 1.05v.012c0 .573-.39 1.061-.976 1.061-.574 0-.964-.476-.964-1.049zm1.415 0c0-.342-.183-.61-.451-.61-.281 0-.44.268-.44.586v.012c0 .341.183.598.452.598.28.012.44-.257.44-.586zM87.62 142.367c.293.28.427.659.427 1.037 0 .366-.146.744-.427 1.037-.28.281-.659.427-1.037.427a1.49 1.49 0 01-1.037-.427.332.332 0 010-.476.332.332 0 01.476 0 .773.773 0 00.561.232.773.773 0 00.561-.232.773.773 0 00.232-.561.776.776 0 00-.232-.562.776.776 0 00-.561-.231.308.308 0 01-.244-.11v-.012a.343.343 0 01-.012-.476l.598-.611h-.952a.33.33 0 01-.33-.341c0-.183.147-.33.33-.33h1.745a.34.34 0 01.342.33.333.333 0 01-.098.244l-.744.769c.134.073.28.171.402.293zM88.975 142.806c.012-.537.147-1.037.403-1.416.244-.378.634-.659 1.098-.659.452 0 .842.281 1.086.659.257.379.39.867.39 1.416 0 .537-.146 1.037-.39 1.415-.244.379-.634.659-1.086.659-.464 0-.854-.28-1.098-.659-.257-.378-.39-.878-.403-1.415zm2.331 0a2.02 2.02 0 00-.28-1.05c-.172-.244-.367-.366-.55-.354-.183-.012-.378.11-.561.354a2.02 2.02 0 00-.28 1.05c0 .415.121.793.28 1.049.183.257.378.366.561.366.183 0 .378-.109.55-.366.17-.256.28-.634.28-1.049zM93.113 141.756c0-.585.39-1.074.976-1.074s.964.476.964 1.05v.012c0 .574-.39 1.05-.976 1.05-.574.012-.964-.464-.964-1.038zm1.415 0c0-.341-.183-.61-.451-.61-.28 0-.44.269-.44.586v.012c0 .342.184.598.452.598.28.012.44-.256.44-.586zm-.744 2.758l2.71-3.697c.036-.074.121-.11.194-.11.135 0 .232.097.232.232 0 .061-.024.109-.049.158l-2.709 3.698a.24.24 0 01-.207.11.225.225 0 01-.232-.232.619.619 0 01.061-.159zm1.818-.634c0-.586.39-1.074.977-1.074.573 0 .964.476.964 1.049v.012c0 .574-.39 1.062-.977 1.062-.573-.012-.964-.488-.964-1.049zm1.428 0c0-.342-.183-.61-.451-.61-.281 0-.44.268-.44.585v.012c0 .342.183.598.452.598.268 0 .44-.268.44-.585zM88.023 159.22l-1.477 3.491c-.049.122-.158.195-.305.195-.036 0-.085 0-.122-.025a.338.338 0 01-.183-.427l1.27-3.026H85.68a.336.336 0 01-.33-.33c0-.183.147-.329.33-.329h2.086c.037.012.086.024.123.049 0 .012.012.012.012.012.012 0 .012.012.024.024l.025.025c.012.012.012.012.012.024l.012.024c0 .013.012.013.025.025 0 .012.012.024.012.024 0 .012 0 .012.012.025v.134c.012.049 0 .061 0 .085zM88.718 160.831c.013-.537.147-1.037.403-1.415.244-.378.635-.659 1.098-.659.452 0 .842.281 1.086.659.257.378.39.866.39 1.415 0 .537-.145 1.038-.39 1.416-.244.378-.634.659-1.086.659-.463 0-.854-.281-1.098-.659-.256-.378-.39-.879-.403-1.416zm2.331 0c0-.427-.122-.793-.28-1.049-.171-.244-.367-.366-.55-.354-.183-.012-.378.11-.561.354-.159.256-.28.622-.28 1.049 0 .415.121.794.28 1.05.183.256.378.366.561.366.183 0 .379-.11.55-.366.17-.256.28-.635.28-1.05zM92.856 159.794c0-.586.39-1.074.976-1.074s.964.476.964 1.049v.013c0 .573-.39 1.049-.976 1.049-.573 0-.964-.476-.964-1.037zm1.416 0c0-.342-.184-.61-.452-.61-.28 0-.44.268-.44.585v.013c0 .341.184.598.452.598.28 0 .44-.269.44-.586zm-.745 2.746l2.71-3.698c.036-.073.121-.11.195-.11.134 0 .231.098.231.232 0 .061-.024.11-.048.159l-2.71 3.697a.238.238 0 01-.207.11.224.224 0 01-.232-.232.594.594 0 01.061-.158zm1.819-.635c0-.586.39-1.074.976-1.074.573 0 .964.476.964 1.05v.012c0 .573-.39 1.062-.976 1.062-.574-.013-.965-.489-.965-1.05zm1.427 0c0-.342-.183-.61-.451-.61-.28 0-.44.268-.44.586v.012c0 .342.183.598.452.598.268 0 .44-.269.44-.586zM88.145 179.514c0 .769-.635 1.404-1.403 1.404a1.414 1.414 0 01-1.416-1.404c0-.488.244-.915.635-1.171a.967.967 0 01-.196-.586c0-.525.44-.964.977-.964a.967.967 0 01.769 1.55c.378.256.634.683.634 1.171zm-.647 0a.77.77 0 00-.757-.768.765.765 0 00-.768.768.78.78 0 00.769.757.746.746 0 00.756-.757zm-1.098-1.757c0 .183.146.342.341.342.171 0 .33-.159.33-.342a.336.336 0 00-.33-.329c-.195.012-.341.158-.341.329zM89.097 178.856c.012-.537.146-1.038.402-1.416.245-.378.635-.659 1.099-.659.451 0 .842.281 1.086.659.256.378.39.866.39 1.416 0 .537-.146 1.037-.39 1.415-.244.379-.635.659-1.086.659-.464 0-.855-.28-1.099-.659-.256-.378-.402-.878-.402-1.415zm2.33 0c0-.428-.122-.794-.28-1.05-.171-.244-.366-.366-.55-.354-.182-.012-.378.11-.56.354-.172.256-.281.622-.281 1.05 0 .415.122.793.28 1.049.183.256.379.366.562.366.183 0 .378-.11.549-.366.158-.244.28-.622.28-1.049zM93.222 177.818c0-.586.39-1.074.977-1.074.585 0 .964.476.964 1.05v.012c0 .573-.39 1.061-.977 1.061-.573-.012-.964-.488-.964-1.049zm1.428 0c0-.342-.183-.61-.451-.61-.281 0-.44.268-.44.586v.012c0 .341.183.598.452.598.268 0 .44-.269.44-.586zm-.744 2.758l2.709-3.698c.037-.073.122-.11.195-.11.135 0 .232.098.232.232 0 .061-.024.11-.049.159l-2.709 3.698a.24.24 0 01-.207.109.224.224 0 01-.232-.231.39.39 0 01.06-.159zm1.818-.647c0-.586.39-1.074.976-1.074.574 0 .965.476.965 1.05v.012c0 .574-.391 1.062-.977 1.062-.573-.013-.964-.488-.964-1.05zm1.416 0c0-.342-.183-.61-.452-.61-.28 0-.44.268-.44.586v.012c0 .342.184.598.452.598.281 0 .44-.269.44-.586z" fill="#263238"/><g opacity=".5"><path opacity=".5" d="M275.74 265.696H28.765v128.991H275.74V265.696z" fill="#028BFC"/><path opacity=".5" d="M275.738 394.699l-246.975.329h-.329v-.329L28.3 265.707v-.451h.451l246.975.122h.329v.329l-.109 64.594-.208 64.398zm0 0l-.329-128.992.329.33-246.975.122.452-.452-.134 128.992-.33-.33 246.987.33z" fill="#E9EFF4"/></g><path d="M275.739 256.408H28.765v9.299h246.974v-9.299z" fill="#455A64"/><path d="M36.16 261.058a2.312 2.312 0 01-2.307 2.306 2.312 2.312 0 01-2.306-2.306 2.305 2.305 0 114.613 0z" fill="#C8D1D7"/><path d="M45.57 261.058a2.313 2.313 0 01-2.306 2.307 2.313 2.313 0 01-2.307-2.307 2.312 2.312 0 012.307-2.306 2.304 2.304 0 012.306 2.306z" fill="#fff"/><path d="M54.978 261.058a2.313 2.313 0 01-2.306 2.307 2.313 2.313 0 01-2.307-2.307 2.312 2.312 0 012.306-2.306 2.297 2.297 0 012.307 2.306z" fill="#028BFC"/><path d="M47.765 292.471c35.293-.171 68.804-.134 104.096-.207 35.293.073 69.768.024 105.06.207-35.292.171-69.767.134-105.06.208-35.292-.074-68.803-.037-104.096-.208zM47.765 309.116c35.293-.171 68.804-.134 104.096-.207 35.293.073 69.768.024 105.06.207-35.292.171-69.767.135-105.06.208-35.292-.086-68.803-.037-104.096-.208zM47.765 325.749c35.293-.17 68.804-.134 104.096-.207 35.293.073 69.768.024 105.06.207-35.292.171-69.767.135-105.06.208-35.292-.073-68.803-.025-104.096-.208zM47.765 342.395c35.293-.171 68.804-.135 104.096-.208 35.293.073 69.768.025 105.06.208-35.292.171-69.767.134-105.06.207-35.292-.073-68.803-.036-104.096-.207zM47.765 359.041c35.293-.171 68.804-.134 104.096-.208 35.293.074 69.768.025 105.06.208-35.292.171-69.767.134-105.06.207-35.292-.085-68.803-.036-104.096-.207z" fill="#fff"/><path d="M67.827 281.658c.171 15.548.135 31.095.208 46.642-.073 15.547-.025 31.095-.208 46.642-.17-15.547-.134-31.095-.207-46.642.073-15.547.024-31.094.207-46.642zM85.901 281.658c.171 15.548.135 31.095.208 46.642-.073 15.547-.025 31.095-.208 46.642-.17-15.547-.134-31.095-.207-46.642.073-15.547.037-31.094.207-46.642zM103.987 281.658c.171 15.548.134 31.095.208 46.642-.074 15.547-.025 31.095-.208 46.642-.171-15.547-.134-31.095-.207-46.642.073-15.547.024-31.094.207-46.642zM122.059 281.658c.171 15.548.134 31.095.207 46.642-.073 15.547-.024 31.095-.207 46.642-.171-15.547-.134-31.095-.207-46.642.073-15.547.036-31.094.207-46.642zM140.145 281.658c.171 15.548.134 31.095.207 46.642-.073 15.547-.024 31.095-.207 46.642-.171-15.547-.134-31.095-.207-46.642.073-15.547.024-31.094.207-46.642zM158.219 281.658c.171 15.548.134 31.095.207 46.642-.073 15.547-.024 31.095-.207 46.642-.171-15.547-.134-31.095-.208-46.642.074-15.547.037-31.094.208-46.642zM176.305 281.658c.171 15.548.134 31.095.208 46.642-.074 15.547-.025 31.095-.208 46.642-.171-15.547-.134-31.095-.207-46.642.073-15.547.024-31.094.207-46.642zM194.377 281.658c.17 15.548.134 31.095.207 46.642-.073 15.547-.024 31.095-.207 46.642-.171-15.547-.135-31.095-.208-46.642.073-15.547.037-31.094.208-46.642zM212.463 281.658c.17 15.548.134 31.095.207 46.642-.073 15.547-.024 31.095-.207 46.642-.171-15.547-.135-31.095-.208-46.642.073-15.547.025-31.094.208-46.642zM230.537 281.658c.171 15.548.134 31.095.207 46.642-.073 15.547-.024 31.095-.207 46.642-.171-15.547-.134-31.095-.208-46.642.074-15.547.037-31.094.208-46.642zM248.623 281.658c.171 15.548.134 31.095.207 46.642-.073 15.547-.024 31.095-.207 46.642-.171-15.547-.134-31.095-.208-46.642.074-15.547.025-31.094.208-46.642z" fill="#fff"/><path d="M47.46 282.671c.231 15.377.439 30.765.451 46.142l.22 46.141-.672-.378 103.206.097 51.596.074 55.465.207-55.465.208-51.596.073-103.206.097h-.683v-.378l.22-46.141c.024-15.389.232-30.765.463-46.142z" fill="#fff"/><path opacity=".62" d="M47.767 374.942s9.714-40.479 19.574-40.479c8.287 0 11.777 11.935 18.5 11.935 8.873 0 10.093-30.899 18.66-30.899s10.397 12.081 17.744 12.081c7.346 0 10.592-14.229 18.195-14.229s9.47 20.953 17.586 20.953c8.115 0 8.261-33.035 18.207-33.035 9.946 0 12.533 14.23 18.354 14.23 5.809 0 9.177-10.398 17.744-10.398 16.206 0 36.281 69.841 36.281 69.841H47.767z" fill="#028BFC"/><path opacity=".62" d="M47.767 374.942s10.458-37.501 19.733-37.501S77.75 347.74 85.56 347.74c7.81 0 7.932-18.097 18.427-18.097 7.237 0 9.775 7.346 17.756 7.346 10.984 0 9.336-17.048 18.306-17.048 11.471 0 6.834 23.492 18.793 23.492 7.566 0 9.58-10.532 18.611-10.532 5.979 0 8.591 7.578 16.401 7.578 7.944 0 9.531-15.12 19.294-15.12 15.999 0 35.78 49.595 35.78 49.595H47.767v-.012z" fill="#028BFC"/><path opacity=".62" d="M47.765 374.942s9.434-13.777 20.063-13.777c7.981 0 9.409 3.612 18.183 3.612 5.504 0 7.615-14.486 18.183-14.486 10.569 0 10.776 8.543 18.013 8.543 7.236 0 9.274-8.055 18.146-8.055 8.872 0 9.946 4.43 17.879 4.43 9.042 0 8.762-17.939 18.085-17.939 9.324 0 9.665 14.925 18.281 14.925 6.065 0 8.42-6.395 17.671-6.395 12.923 0 36.683 29.13 36.683 29.13H47.765v.012z" fill="#028BFC"/><g opacity=".5"><path opacity=".5" d="M499.111 21.88H309.957v149.786h189.154V21.881z" fill="#028BFC"/><path opacity=".5" d="M499.099 171.666l-189.155.33h-.329v-.33L309.48 21.88v-.451h.452l189.142.122h.33v.33l-.305 149.785zm0 0l-.33-149.786.33.33-189.143.122.452-.452-.134 149.786-.33-.329 189.155.329z" fill="#E9EFF4"/></g><path d="M499.111 11.093H309.957V21.88h189.154V11.093z" fill="#455A64"/><path d="M318.537 16.486a2.672 2.672 0 11-2.673-2.672c1.477-.012 2.673 1.196 2.673 2.672z" fill="#C8D1D7"/><path d="M329.458 16.486a2.672 2.672 0 11-5.345 0 2.672 2.672 0 012.673-2.672c1.476-.012 2.672 1.196 2.672 2.672z" fill="#fff"/><path d="M340.393 16.486a2.672 2.672 0 11-2.672-2.673c1.477-.011 2.672 1.197 2.672 2.673z" fill="#028BFC"/><path d="M441.181 103.267h-48.826v.317h48.826v-.317z" fill="#263238"/><path d="M439.668 105.292a1.867 1.867 0 10.001-3.735 1.867 1.867 0 00-.001 3.735zM450.932 102.144l-1.44 3.417a.306.306 0 01-.293.195.402.402 0 01-.122-.025.328.328 0 01-.171-.414l1.245-2.966h-1.489a.323.323 0 01-.318-.317c0-.183.147-.318.318-.318h1.977c.012 0 .036 0 .061.013.036 0 .085.024.122.049.012 0 .012.012.012.012l.024.024.025.025c.012.012.012.012.012.024a.037.037 0 01.012.024l.025.025v.024c.012.012.012.012.012.025a.211.211 0 010 .122c0 .024-.012.036-.012.061zM453.726 103.291c.28.281.427.647.427 1.013 0 .366-.147.732-.427 1.013a1.434 1.434 0 01-1.013.427h-.012a1.36 1.36 0 01-1.001-.427c-.134-.122-.134-.329 0-.464a.34.34 0 01.464 0 .734.734 0 00.561.232.746.746 0 00.549-.232.795.795 0 00.232-.549.774.774 0 00-.232-.561.715.715 0 00-.549-.22.833.833 0 00-.561.22.34.34 0 01-.464 0c-.024-.025-.037-.049-.061-.073 0-.013 0-.013-.012-.013 0-.012-.012-.024-.012-.024 0-.012-.013-.024-.013-.037v-.012c-.012-.036-.012-.073 0-.097l.171-1.501a.335.335 0 01.147-.232c.012 0 .012 0 .024-.012 0-.013.012-.013.012-.013a.332.332 0 01.147-.036h1.708c.183 0 .33.146.33.329 0 .171-.147.33-.33.33h-1.415l-.074.573c.122-.036.257-.049.391-.049.366 0 .732.135 1.013.415zM455.032 102.693c0-.573.391-1.049.965-1.049.573 0 .951.464.951 1.025v.012c0 .561-.378 1.037-.964 1.037-.561 0-.952-.463-.952-1.025zm1.392 0c0-.329-.183-.598-.44-.598-.268 0-.439.269-.439.574v.012c0 .33.183.586.452.586.268.012.427-.256.427-.574zm-.72 2.709l2.648-3.624c.036-.073.11-.11.195-.11.122 0 .232.098.232.232a.26.26 0 01-.049.147l-2.648 3.624a.24.24 0 01-.207.11.231.231 0 01-.232-.232c0-.061.024-.11.061-.147zm1.781-.634c0-.574.391-1.05.964-1.05.562 0 .952.464.952 1.025v.013c0 .561-.39 1.037-.964 1.037-.573 0-.952-.464-.952-1.025zm1.392 0c0-.33-.183-.598-.452-.598-.268 0-.427.268-.427.573v.013c0 .329.183.585.439.585.269 0 .44-.256.44-.573zM469.066 108.868h-20.783v.5h20.783v-.5zM469.066 110.223h-20.783v.5h20.783v-.5zM469.066 111.577h-20.783v.5h20.783v-.5zM469.066 112.932h-20.783v.5h20.783v-.5zM469.066 114.287h-20.783v.5h20.783v-.5zM469.066 115.641h-20.783v.5h20.783v-.5zM469.066 116.996h-20.783v.5h20.783v-.5zM441.179 133.762H423.13l-.049-.037-30.74-30.179.219-.232 30.692 30.131h17.927v.317z" fill="#263238"/><path d="M441.546 133.604a1.87 1.87 0 01-1.88 1.867 1.867 1.867 0 01-1.867-1.867c0-1.037.842-1.879 1.867-1.879a1.888 1.888 0 011.88 1.879z" fill="#455A64"/><path d="M451.04 134.555a1.386 1.386 0 01-2.77 0c0-.476.244-.903.622-1.147a.928.928 0 01-.195-.573c0-.525.427-.952.964-.952.524 0 .952.427.952.952a.93.93 0 01-.196.573c.379.244.623.671.623 1.147zm-.623 0a.749.749 0 00-.744-.756.76.76 0 00-.757.756.75.75 0 001.501 0zm-1.074-1.72c0 .183.147.329.33.329a.323.323 0 000-.647.32.32 0 00-.33.318zM454.115 133.481c.281.281.428.647.428 1.013 0 .366-.147.733-.428 1.013a1.43 1.43 0 01-1.012.427h-.013c-.354 0-.732-.134-1-.427-.135-.122-.135-.329 0-.464a.339.339 0 01.463 0 .738.738 0 00.562.232.748.748 0 00.549-.232.798.798 0 00.232-.549.774.774 0 00-.232-.561.718.718 0 00-.549-.22.837.837 0 00-.562.22.339.339 0 01-.463 0c-.025-.024-.037-.049-.061-.073 0-.012 0-.012-.013-.012 0-.013-.012-.025-.012-.025 0-.012-.012-.024-.012-.037v-.012c-.012-.036-.012-.073 0-.097l.171-1.501a.337.337 0 01.146-.232c.013 0 .013 0 .025-.012 0-.013.012-.013.012-.013a.33.33 0 01.146-.036h1.709c.183 0 .329.146.329.329 0 .171-.146.33-.329.33h-1.416l-.073.573c.122-.036.256-.049.391-.049.366-.012.732.135 1.012.415zM455.432 132.883c0-.573.39-1.049.964-1.049.573 0 .952.464.952 1.025v.012c0 .562-.378 1.037-.964 1.037-.574 0-.952-.463-.952-1.025zm1.391 0c0-.329-.183-.598-.439-.598-.269 0-.44.269-.44.574v.012c0 .33.183.586.452.586.256.012.427-.256.427-.574zm-.732 2.697l2.648-3.624c.037-.073.11-.11.195-.11.122 0 .232.098.232.232 0 .061-.024.11-.049.146l-2.648 3.625a.24.24 0 01-.207.11.232.232 0 01-.232-.232.705.705 0 01.061-.147zm1.782-.622c0-.574.39-1.05.964-1.05.561 0 .952.464.952 1.026v.012c0 .561-.391 1.037-.965 1.037-.573 0-.951-.476-.951-1.025zm1.391 0c0-.33-.183-.598-.452-.598-.268 0-.427.268-.427.574v.012c0 .329.183.586.439.586.281 0 .44-.269.44-.574zM469.064 139.046h-20.783v.501h20.783v-.501zM469.064 140.402h-20.783v.5h20.783v-.5zM469.064 141.755h-20.783v.501h20.783v-.501zM469.064 143.11h-20.783v.501h20.783v-.501zM469.064 144.465h-20.783v.501h20.783v-.501zM469.064 145.819h-20.783v.501h20.783v-.501zM469.064 147.186h-20.783v.5h20.783v-.5zM392.513 103.425h-.318v-67.01h48.985v.318h-48.667v66.692z" fill="#263238"/><path d="M439.666 38.44a1.867 1.867 0 100-3.734 1.867 1.867 0 000 3.735z" fill="#37474F"/><path d="M450.469 36.452c.28.28.427.647.427 1.013 0 .366-.147.732-.427 1.013-.281.28-.647.427-1.013.427h-.012c-.354 0-.733-.135-1.001-.427a.318.318 0 010-.464.34.34 0 01.464 0 .735.735 0 00.561.232.747.747 0 00.549-.232.796.796 0 00.232-.55.774.774 0 00-.232-.56.718.718 0 00-.549-.22.835.835 0 00-.561.22.34.34 0 01-.464 0c-.024-.025-.037-.05-.061-.074 0-.012 0-.012-.012-.012 0-.012-.012-.024-.012-.024 0-.013-.013-.025-.013-.037v-.012a.136.136 0 010-.098l.171-1.501a.335.335 0 01.147-.232c.012 0 .012 0 .024-.012 0 0 .012 0 .012-.012a.327.327 0 01.147-.037h1.708c.183 0 .33.147.33.33 0 .17-.147.317-.33.317h-1.415l-.074.574c.122-.037.257-.05.391-.05.366 0 .744.147 1.013.428zM451.847 36.879c0-.537.134-1.013.391-1.38.244-.365.622-.646 1.074-.646.451 0 .829.269 1.073.647.245.366.391.854.391 1.379s-.134 1.013-.391 1.379c-.244.366-.622.647-1.073.647-.452 0-.83-.281-1.074-.647-.257-.366-.391-.854-.391-1.38zm2.282 0a1.93 1.93 0 00-.28-1.025c-.171-.244-.354-.354-.537-.354-.183-.012-.379.11-.55.354a1.93 1.93 0 00-.28 1.025c0 .415.11.78.28 1.025.171.244.367.354.55.354.183 0 .366-.11.537-.354.158-.244.28-.61.28-1.025zM455.887 35.854v-.012c0-.562.391-1.038.964-1.038.574 0 .952.464.952 1.025v.013c0 .56-.378 1.037-.964 1.037-.561 0-.952-.464-.952-1.025zm1.404 0v-.012c0-.318-.183-.586-.44-.586-.268 0-.439.268-.439.573v.013c0 .33.183.585.451.585.257 0 .428-.256.428-.573zm-.733 2.697l2.649-3.625c.036-.073.109-.097.195-.097.122 0 .232.097.232.22 0 .06-.025.11-.049.146l-2.648 3.624a.24.24 0 01-.208.11.232.232 0 01-.232-.232c.013-.049.025-.11.061-.146zm1.782-.623c0-.573.391-1.05.964-1.05.562 0 .952.465.952 1.026v.012c0 .562-.39 1.038-.964 1.038-.574-.013-.952-.477-.952-1.026zm1.391 0c0-.33-.183-.598-.451-.598-.269 0-.427.269-.427.574v.012c0 .33.183.586.439.586.281 0 .439-.269.439-.574zM469.067 42.017h-20.783v.5h20.783v-.5zM469.067 43.371h-20.783v.5h20.783v-.5zM469.067 44.725h-20.783v.5h20.783v-.5zM469.067 46.08h-20.783v.5h20.783v-.5zM469.067 47.435h-20.783v.5h20.783v-.5zM469.067 48.789h-20.783v.5h20.783v-.5zM469.067 50.144h-20.783v.5h20.783v-.5zM392.537 103.546l-.232-.232 35.122-36.452h13.753v.33h-13.619l-35.024 36.354z" fill="#263238"/><path d="M441.545 67.033a1.87 1.87 0 01-1.879 1.867 1.867 1.867 0 010-3.734 1.87 1.87 0 011.879 1.867z" fill="#455A64"/><path d="M451.148 67.962c0 .78-.635 1.403-1.404 1.403-.732 0-1.318-.55-1.391-1.257 0-.012 0-.012-.012-.012 0-.11-.012-.22-.012-.33 0-.39.061-.805.207-1.184.146-.378.378-.744.744-.988.245-.159.537-.256.867-.268.183-.013.317.122.329.305.013.17-.134.317-.317.33a1.26 1.26 0 00-.549.158 1.179 1.179 0 00-.366.403 9.968 9.968 0 00-.073.146 1.39 1.39 0 01.549-.122c.793.012 1.428.647 1.428 1.415zm-.647 0a.76.76 0 00-.757-.757.752.752 0 00-.756.757c0 .427.341.756.756.756s.757-.33.757-.757zM454.187 66.912c.28.28.427.646.427 1.012s-.147.733-.427 1.013c-.281.281-.647.427-1.013.427h-.013c-.353 0-.732-.134-1-.427a.316.316 0 010-.463.339.339 0 01.463 0 .739.739 0 00.562.231.747.747 0 00.549-.231.8.8 0 00.232-.55.774.774 0 00-.232-.561.718.718 0 00-.549-.22.84.84 0 00-.562.22.338.338 0 01-.463 0c-.025-.024-.037-.049-.061-.073 0-.012 0-.012-.012-.012 0-.013-.013-.025-.013-.025 0-.012-.012-.024-.012-.036v-.013a.136.136 0 010-.097l.171-1.501a.337.337 0 01.146-.232c.013 0 .013 0 .025-.012 0-.013.012-.013.012-.013a.326.326 0 01.146-.036h1.709c.183 0 .329.146.329.33 0 .17-.146.329-.329.329h-1.416l-.073.573c.122-.036.256-.048.391-.048.366-.013.732.134 1.013.415zM455.491 66.314c0-.574.39-1.05.964-1.05s.952.464.952 1.025v.012c0 .562-.378 1.038-.964 1.038-.562 0-.952-.464-.952-1.025zm1.391 0c0-.33-.183-.598-.439-.598-.269 0-.439.268-.439.573v.012c0 .33.183.586.451.586.269 0 .427-.256.427-.573zm-.72 2.697l2.648-3.625c.037-.073.11-.11.196-.11.122 0 .231.098.231.232 0 .061-.024.11-.048.147l-2.649 3.624a.238.238 0 01-.207.11.232.232 0 01-.232-.232c0-.049.025-.098.061-.147zm1.782-.623c0-.574.39-1.05.964-1.05.561 0 .952.464.952 1.026v.012c0 .561-.391 1.037-.964 1.037-.574 0-.952-.476-.952-1.025zm1.391 0c0-.33-.183-.598-.451-.598-.269 0-.428.269-.428.574v.012c0 .33.183.586.44.586.268 0 .439-.269.439-.574zM469.064 72.476h-20.783v.5h20.783v-.5zM469.064 73.831h-20.783v.5h20.783v-.5zM469.064 75.185h-20.783v.5h20.783v-.5zM469.064 76.54h-20.783v.5h20.783v-.5zM469.064 77.895h-20.783v.5h20.783v-.5zM469.064 79.249h-20.783v.5h20.783v-.5zM469.064 80.604h-20.783v.5h20.783v-.5z" fill="#263238"/><g opacity=".7"><g opacity=".7"><path opacity=".7" d="M340.001 103.424c0-28.91 23.443-52.353 52.354-52.353v104.706c-28.923.013-52.354-23.43-52.354-52.353z" fill="#37474F"/><path opacity=".7" d="M347.37 103.424c0-24.846 20.136-44.982 44.983-44.982 12.093 0 23.076 4.772 31.167 12.545l-31.167 32.425v44.982c-24.847.013-44.983-20.123-44.983-44.97z" fill="#455A64"/><path opacity=".7" d="M354.633 103.425c0-20.844 16.889-37.733 37.733-37.733 20.844 0 37.733 16.89 37.733 37.733h-37.733v37.733c-20.844.012-37.733-16.89-37.733-37.733z" fill="#263238"/><path opacity=".7" d="M362.444 103.424c0-16.523 13.399-29.923 29.923-29.923 16.523 0 29.923 13.4 29.923 29.923 0 8.14-3.247 15.511-8.518 20.905l-21.405-20.905v29.923c-16.524 0-29.923-13.387-29.923-29.923z" fill="#455A64"/></g><path opacity=".7" d="M413.689 112.155c4.842-11.768-.773-25.232-12.54-30.074-11.768-4.842-25.233.773-30.075 12.54-4.842 11.769.773 25.233 12.541 30.075 11.768 4.842 25.233-.773 30.074-12.541z" fill="#E9EFF4"/></g><path d="M412.172 104.865l4.784 11.532-4.771 1.977-4.809-11.617-7.883 6.126v-32.51l22.759 22.991-10.08 1.501zM401.726 71.805c-.476-1.684-.585-3.38-.61-5.064.012-1.684.122-3.38.61-5.065.489 1.684.598 3.38.611 5.065-.025 1.684-.135 3.368-.611 5.064zM392.989 75.417c-1.537-.854-2.806-1.977-4.015-3.148-1.183-1.209-2.294-2.478-3.148-4.015 1.538.854 2.807 1.964 4.015 3.148 1.184 1.208 2.294 2.477 3.148 4.015zM389.376 84.143c-1.684.476-3.38.586-5.064.61-1.684-.012-3.38-.122-5.064-.61 1.684-.488 3.38-.598 5.064-.61 1.684.025 3.38.134 5.064.61zM392.989 92.868c-.854 1.538-1.977 2.807-3.148 4.015-1.208 1.184-2.477 2.294-4.015 3.149.854-1.538 1.965-2.807 3.148-4.016 1.209-1.171 2.49-2.294 4.015-3.148zM414.063 84.143c1.684-.476 3.381-.585 5.065-.61 1.684.012 3.38.122 5.064.61-1.684.488-3.38.598-5.064.61-1.684-.024-3.368-.122-5.065-.61zM410.452 75.417c.855-1.538 1.977-2.807 3.149-4.015 1.208-1.184 2.477-2.294 4.015-3.148-.854 1.537-1.965 2.806-3.149 4.015-1.208 1.171-2.477 2.294-4.015 3.148z" fill="#263238"/><path d="M214.451 118.512c-6.687 2.966-34.584 38.71-36.561 61.933-1.465 17.304 32.205 15.425 32.205 15.425s2.294-71.024 1.293-70.011" fill="#0084E4"/><path d="M208.07 166.606c.012.012-.11.195-.354.524-.244.318-.598.781-1.061 1.343a149.246 149.246 0 01-3.686 4.259 116.739 116.739 0 01-3.868 4.1c-.513.513-.928.915-1.221 1.184-.293.268-.464.415-.476.403-.012-.013.135-.183.415-.476.378-.403.757-.818 1.172-1.245a772.223 772.223 0 013.807-4.137 931.95 931.95 0 003.734-4.198c.391-.439.757-.867 1.123-1.281.244-.33.403-.489.415-.476z" fill="#263238"/><path d="M206.933 161.297c.012.024-.452.11-1.196.5-.732.379-1.721 1.111-2.66 2.258-.964 1.135-1.831 2.697-2.929 4.344a13.183 13.183 0 01-4.723 4.357c-2.026 1.098-4.235 1.599-6.224 1.574a12.878 12.878 0 01-5.137-1.122c-1.379-.623-2.38-1.331-3.015-1.88-.634-.549-.927-.915-.927-.915.024-.024.342.317.988.83.647.512 1.66 1.196 3.027 1.794a12.84 12.84 0 005.064 1.062c1.953.012 4.113-.489 6.102-1.563 2.001-1.073 3.563-2.623 4.65-4.259 1.11-1.623 2.001-3.185 2.989-4.32.977-1.147 1.99-1.879 2.758-2.233.769-.39 1.233-.427 1.233-.427z" fill="#fff"/><path d="M190.046 193.636s-.195-.049-.561-.208a5.825 5.825 0 01-1.452-.927c-1.135-.952-2.478-2.856-2.783-5.553-.329-2.672.269-5.87 1.343-9.226 1.122-3.356 3.014-6.773 5.174-10.214 4.369-6.846 8.786-12.753 11.19-17.512.659-1.159 1.099-2.27 1.563-3.222.39-.976.695-1.83.951-2.526.183-.659.33-1.196.452-1.647.11-.379.171-.574.171-.574s-.037.208-.122.586c-.11.451-.244 1.001-.415 1.672-.244.708-.537 1.562-.915 2.55-.44.964-.891 2.087-1.526 3.259-2.367 4.796-6.773 10.727-11.129 17.561-2.148 3.429-4.04 6.833-5.163 10.153-1.086 3.319-1.684 6.492-1.391 9.128.281 2.648 1.574 4.54 2.673 5.492 1.123.988 1.977 1.171 1.94 1.208z" fill="#fff"/><path d="M208.973 184.265s-.122.317-.525.756c-.415.44-1.135.964-2.172 1.294-1.025.354-2.319.427-3.722.39-1.404-.036-2.941-.109-4.516.257-3.16.659-5.638 2.44-7.078 3.954a15.87 15.87 0 00-1.562 1.952c-.317.501-.488.781-.5.769 0 0 .488-1.245 1.928-2.843 1.416-1.575 3.917-3.405 7.151-4.089 1.599-.378 3.185-.292 4.577-.244 1.403.049 2.66 0 3.661-.317 1.013-.293 1.733-.781 2.148-1.184.427-.415.585-.707.61-.695z" fill="#fff"/><path opacity=".3" d="M210.095 195.87c-5.223-15.364-9.519-31.363-3.722-46.654 1.879 18.952 4.113 36.244 3.722 46.654z" fill="#000"/><path d="M259.14 172.44l-71.183 64.508c-3.661-4.04-8.469-7.249-10.531-12.387-2.038-5.052-5.468-9.421-7.579-14.437l89.293-37.684z" fill="#263238"/><path d="M252.832 165.009l-71.83 65.093a97.047 97.047 0 01-9.897-12.96 96.21 96.21 0 01-7.578-14.437l89.305-37.696z" fill="#455A64"/><path d="M244.01 433.901l-1.245 21.832s21.771 8.603 21.93 12.655l-42.42-.903.549-34.097 21.186.513z" fill="#0084E4"/><path d="M229.682 453.62c-.829.208-1.415 1.123-1.244 1.953.171.83 1.098 1.44 1.928 1.245.83-.196 1.562-1.269 1.306-2.075-.269-.805-1.392-1.464-2.148-1.074M222.275 467.485l.049-3.393 40.735 2.099s1.867.867 1.623 2.185l-42.407-.891z" fill="#E0E0E0"/><path d="M243.449 455.526c-.012.207-1.05.28-2.087.927-1.049.622-1.599 1.501-1.782 1.416-.195-.049.147-1.282 1.416-2.038 1.257-.757 2.502-.488 2.453-.305zM247.865 457.465c.049.207-.866.537-1.586 1.391-.745.842-.94 1.782-1.147 1.77-.196.024-.318-1.184.61-2.246.903-1.049 2.123-1.11 2.123-.915zM250.269 462.847c-.195.036-.451-1.001.098-2.124.549-1.123 1.537-1.55 1.623-1.379.11.171-.525.769-.977 1.696-.451.916-.537 1.782-.744 1.807zM243.18 450.52c-.085.183-1.037-.122-2.209-.061-1.171.037-2.086.403-2.196.22-.122-.147.793-.903 2.172-.94 1.379-.061 2.343.622 2.233.781zM243.35 446.116c0 .086-.818.196-2.124-.061a9.165 9.165 0 01-2.209-.732 10.058 10.058 0 01-1.208-.671c-.195-.134-.427-.256-.634-.513-.22-.219-.342-.769-.074-1.098.22-.317.611-.452.916-.452.317 0 .561.062.793.123.476.122.915.292 1.306.475a7.415 7.415 0 011.928 1.331c.964.927 1.281 1.708 1.208 1.757-.098.061-.561-.598-1.55-1.367a8.58 8.58 0 00-1.867-1.11 8.729 8.729 0 00-1.208-.403c-.452-.122-.83-.134-.952.061-.049.073-.049.11.037.244.097.122.268.244.463.378.367.257.745.476 1.111.671.732.379 1.44.647 2.038.83 1.232.354 2.038.427 2.026.537z" fill="#263238"/><path d="M243.082 446.408c-.073.024-.464-.72-.512-2.062a6.633 6.633 0 01.341-2.319c.135-.427.33-.854.574-1.282.256-.414.573-.964 1.379-1.049.415-.012.757.329.879.61.134.293.158.537.207.781.073.501.049.989-.024 1.428a4.898 4.898 0 01-.952 2.172c-.855 1.086-1.721 1.306-1.733 1.245-.061-.11.659-.488 1.318-1.538.329-.512.61-1.196.72-1.977.049-.39.049-.805-.012-1.232-.061-.452-.22-.818-.391-.781-.207-.012-.573.329-.757.683a7.018 7.018 0 00-.549 1.135 7.392 7.392 0 00-.451 2.111c-.134 1.257.073 2.038-.037 2.075z" fill="#263238"/><path d="M274.103 435.597l-4.064 21.49s20.477 11.349 20.111 15.389l-41.943-6.383 4.954-33.742 20.942 3.246z" fill="#0084E4"/><path d="M257.347 453.291c-.842.098-1.55.928-1.476 1.77.061.854.903 1.562 1.745 1.489.842-.086 1.72-1.05 1.562-1.892-.159-.842-1.184-1.623-1.989-1.342M248.207 466.094l.488-3.356 40.126 7.359s1.745 1.098 1.33 2.379l-41.944-6.382z" fill="#E0E0E0"/><path d="M270.746 456.977c-.036.208-1.074.147-2.184.647-1.123.476-1.77 1.281-1.953 1.172-.183-.074.305-1.245 1.66-1.831 1.354-.598 2.55-.171 2.477.012zM274.872 459.467c.013.208-.927.415-1.745 1.184-.854.732-1.171 1.647-1.366 1.611-.196 0-.159-1.221.89-2.148 1.038-.94 2.246-.842 2.221-.647zM276.568 465.118c-.195.012-.317-1.05.378-2.099.684-1.05 1.721-1.343 1.782-1.16.086.183-.622.696-1.184 1.562-.573.843-.768 1.697-.976 1.697zM271.139 451.974c-.11.171-1.013-.256-2.185-.354-1.171-.122-2.123.134-2.208-.061-.098-.171.903-.793 2.269-.659 1.379.134 2.246.928 2.124 1.074zM271.871 447.63c-.012.085-.842.085-2.099-.33a9.532 9.532 0 01-2.099-1.013 10.653 10.653 0 01-1.111-.818c-.171-.158-.39-.317-.561-.585-.195-.244-.244-.806.073-1.099.269-.292.659-.366.964-.329a2.6 2.6 0 01.769.232 6.86 6.86 0 011.233.647 7.684 7.684 0 011.745 1.562c.842 1.049 1.049 1.867.976 1.891-.098.049-.476-.659-1.355-1.55a8.88 8.88 0 00-1.708-1.342 8.925 8.925 0 00-1.147-.561c-.427-.183-.806-.244-.952-.061-.049.073-.061.097.012.244.073.134.244.28.415.427a11.24 11.24 0 002.929 1.891c1.159.501 1.94.684 1.916.794z" fill="#263238"/><path d="M271.566 447.886c-.073.024-.366-.781-.244-2.111a6.914 6.914 0 01.634-2.258c.196-.403.44-.805.733-1.196.305-.378.695-.891 1.501-.854.415.049.707.427.793.72.098.305.085.549.098.805 0 .501-.086.976-.22 1.416a4.832 4.832 0 01-1.233 2.038c-.988.964-1.879 1.074-1.879 1.001-.049-.11.72-.403 1.513-1.355a4.817 4.817 0 00.964-1.867 4.4 4.4 0 00.147-1.221c0-.451-.11-.842-.281-.817-.207-.037-.61.244-.842.573-.268.342-.5.708-.696 1.062a7.612 7.612 0 00-.72 2.038c-.256 1.208-.158 2.001-.268 2.026z" fill="#263238"/><path d="M231.267 60.79l-.171 56.71 24.334 1.16.708-13.79s8.64 1.72 10.873-6.31c1.428-5.125 1.074-44.75 1.074-44.75l-36.818 6.98z" fill="#FFBE9D"/><path d="M207.472 236.253l-.122 5.894a83.677 83.677 0 002.758 23.077l2.685 10.153 6.553 170.178 31.461 1.83-1.489-205.153-41.846-5.979z" fill="#263238"/><path d="M218.406 238.962l.012 7.224a25.421 25.421 0 0013.021 22.125l25.176 69.292-11.483 105.828 32.315 3.173 16.487-109.001c-1.66-5.309-20.112-98.629-20.112-98.629h-55.416v-.012z" fill="#263238"/><path d="M273.98 335.43c.037.171-3.746 1.026-8.445 1.904-4.698.879-8.53 1.44-8.554 1.269-.037-.17 3.746-1.025 8.445-1.903 4.686-.867 8.518-1.44 8.554-1.27z" fill="#455A64"/><path d="M273.993 344.082c-.036.085-1.001-.183-2.55-.647a818.032 818.032 0 01-6.053-1.794c-4.748-1.379-8.482-2.88-8.421-3.038.037-.086 1.001.183 2.551.646 1.794.525 3.819 1.135 6.053 1.794 4.759 1.367 8.493 2.868 8.42 3.039z" fill="#455A64"/><path d="M245.133 443.431c-.012 0 0-.183.024-.549.037-.39.086-.915.147-1.586.146-1.428.354-3.478.634-6.102.574-5.321 1.404-12.984 2.429-22.442 2.123-18.977 5.04-45.177 8.286-74.185l.012.146c-.146-.415-.317-.866-.476-1.33-4.967-13.9-9.702-27.141-14.009-39.185-2.148-6.029-4.186-11.752-6.09-17.11-1.879-5.357-3.844-10.299-6.541-14.29-2.709-3.978-5.724-7.188-7.908-10.373-2.331-3.112-3.332-6.419-3.795-9.067a29.16 29.16 0 01-.379-6.224c.074-1.428.22-2.16.22-2.16s0 .183-.012.549c-.025.366-.049.903-.073 1.611a30.22 30.22 0 00.488 6.175c.5 2.636 1.513 5.845 3.844 8.908 2.197 3.137 5.223 6.322 7.993 10.325 2.77 4.027 4.76 9.018 6.676 14.363 1.928 5.358 3.978 11.069 6.15 17.085 4.32 12.045 9.067 25.274 14.046 39.173.159.452.33.903.476 1.331l.025.073-.013.073c-3.307 28.996-6.309 55.184-8.469 74.161-1.11 9.445-2.013 17.097-2.636 22.418-.317 2.623-.573 4.661-.744 6.089-.086.671-.159 1.196-.208 1.587-.048.353-.097.536-.097.536z" fill="#455A64"/><path opacity=".4" d="M248.206 458.027l-1.781 7.322 1.781.086 1.111-6.92-1.111-.488z" fill="#000"/><path d="M205.931 238.961h67.986l-2.746-57.283c-.452-11.252-.378-12.595-.659-22.98 0 0 10.58 12.79 18.903 21.759 5.028 5.419 12.997 6.932 19.684 3.771l43.543-30.374-6.969-17.818-40.747 21.186c-1.806-1.123-17.219-23.102-27.861-33.828-6.809-6.871-15.999-10.825-25.664-11.106-7.322-.207-16.145.122-24.041.964-11.996 1.27-21.368 10.91-22.381 22.919-.769 9.201 3.515 38.087 3.515 38.087l1.623 21.612-4.186 43.091z" fill="#0084E4"/><path d="M207.629 124.565s-.024.256-.097.72l-.33 2.062c-.159.891-.342 1.99-.439 3.271-.11 1.281-.33 2.734-.366 4.357-.391 6.468-.049 15.425 1.074 25.249 1.061 9.824 2.306 18.708 2.66 25.176.427 6.48-.024 10.482-.024 10.482s-.013-.256.012-.732c.012-.549.036-1.232.073-2.087.037-1.806-.012-4.43-.232-7.663-.403-6.468-1.672-15.328-2.733-25.164-1.111-9.824-1.44-18.806-1.001-25.286.049-1.623.281-3.075.403-4.356.109-1.282.305-2.38.488-3.271.158-.83.28-1.513.378-2.05.073-.464.134-.708.134-.708zM303.279 164.263c-.037-.012.024-.403.146-1.025.122-.634.305-1.489.537-2.453.22-.952.439-1.818.61-2.428.171-.623.293-1.001.317-.989.037.012-.024.403-.146 1.038a52.714 52.714 0 01-.537 2.44 63.49 63.49 0 01-.61 2.429c-.159.61-.281 1-.317.988zM307.245 164.873c-.073.012-.524-1.733-1.025-3.918-.5-2.184-.842-3.953-.781-3.978.073-.012.525 1.733 1.025 3.917.501 2.185.842 3.967.781 3.979zM272.342 160.541s-.146-.122-.414-.366c-.318-.305-.696-.672-1.135-1.099a141.427 141.427 0 01-4.089-4.149c-1.684-1.794-3.648-3.99-5.564-6.626-1.904-2.636-3.771-5.748-5.053-9.299-1.305-3.539-1.867-7.164-1.671-10.434.146-3.259.768-6.2 1.879-8.421 1.086-2.233 2.575-3.685 3.661-4.503.561-.403 1.001-.708 1.33-.866.317-.183.488-.269.488-.269.025.037-.671.366-1.757 1.208a12.495 12.495 0 00-3.564 4.503c-1.073 2.209-1.671 5.114-1.806 8.348-.183 3.233.379 6.821 1.672 10.336 2.612 7.066 7.237 12.289 10.507 15.889 1.672 1.806 3.076 3.222 4.028 4.21.439.452.805.818 1.11 1.135.256.256.378.403.378.403z" fill="#263238"/><path d="M280.788 127.714s-.207.195-.622.549a12.46 12.46 0 01-2.001 1.306c-1.819.988-4.76 1.952-8.494 2.001-3.734.11-8.091-.854-12.826-2.05-2.38-.574-4.869-1.196-7.505-1.538-2.624-.342-5.406-.439-8.164.086-1.379.268-2.709.683-3.942 1.269-1.233.573-2.367 1.33-3.49 2.05-1.123.72-2.246 1.415-3.442 1.916-1.183.512-2.452.793-3.697.781-2.49 0-4.747-.842-6.724-1.733-1.977-.915-3.759-1.904-5.455-2.624-3.381-1.55-6.517-1.55-8.506-1.062a7.53 7.53 0 00-2.197.867c-.464.281-.683.476-.695.464 0 0 .207-.208.659-.501.451-.293 1.196-.671 2.196-.915 2.002-.525 5.187-.549 8.604.989 1.72.72 3.502 1.696 5.467 2.599 1.965.891 4.198 1.696 6.639 1.696 5.113.134 8.713-5.272 14.522-6.028 2.794-.537 5.601-.427 8.249-.086 2.648.354 5.15.976 7.53 1.562 4.735 1.208 9.067 2.185 12.777 2.099 3.698-.024 6.626-.952 8.445-1.916.927-.463 1.574-.939 2.013-1.257.427-.354.659-.524.659-.524z" fill="#fff"/><path d="M280.141 170.06s.135-.159.391-.427a8.49 8.49 0 001.025-1.306c.818-1.171 1.648-3.173 1.77-5.748.134-2.562-.391-5.662-1.733-8.798-1.331-3.149-3.442-6.273-5.736-9.483-2.294-3.209-4.479-6.309-5.894-9.445a22.717 22.717 0 01-1.575-4.613 18.006 18.006 0 01-.39-4.222c.073-2.612.793-4.65 1.489-5.919.695-1.281 1.269-1.855 1.269-1.855s-.11.171-.33.476a11.82 11.82 0 00-.854 1.416c-.659 1.269-1.342 3.295-1.391 5.882-.073 2.575.537 5.65 2.001 8.737 1.428 3.1 3.6 6.188 5.895 9.397 2.294 3.197 4.417 6.358 5.748 9.531 1.33 3.173 1.842 6.297 1.696 8.896-.147 2.612-1.013 4.625-1.867 5.797-.855 1.196-1.514 1.684-1.514 1.684z" fill="#fff"/><path d="M299.729 150.461s-.061.427-.366 1.147c-.317.695-.94 1.672-2.014 2.575-1.061.903-2.538 1.72-4.308 2.221-1.769.5-3.783.671-5.882.756-2.099.11-4.112.122-5.87.525a18.841 18.841 0 00-4.503 1.648c-1.22.634-2.111 1.305-2.672 1.818-.562.512-.818.866-.842.842 0 0 .219-.366.769-.915.549-.55 1.44-1.245 2.66-1.904a17.653 17.653 0 014.527-1.721c1.794-.427 3.82-.439 5.907-.549 2.099-.085 4.088-.256 5.833-.732s3.198-1.269 4.247-2.136c1.062-.866 1.696-1.794 2.038-2.477.342-.683.439-1.098.476-1.098zM316.714 178.688c-.025-.012.158-.354.378-1.001.22-.647.439-1.635.476-2.868.037-1.232-.134-2.697-.561-4.271-.428-1.574-1.123-3.234-1.904-4.955-.769-1.72-1.526-3.368-2.038-4.93-.525-1.562-.818-3.026-.891-4.271-.073-1.245.049-2.258.195-2.941.159-.683.318-1.037.318-1.037.024.012-.098.378-.22 1.049-.122.684-.22 1.672-.122 2.905.097 1.232.403 2.672.927 4.21.525 1.55 1.282 3.185 2.05 4.906.769 1.72 1.477 3.404 1.892 4.991.427 1.599.574 3.087.525 4.332-.061 1.245-.317 2.246-.562 2.892-.244.659-.463.989-.463.989z" fill="#fff"/><path d="M347.542 141.308s-.11.22-.329.622c-.208.415-.574.989-1.05 1.721-.976 1.452-2.611 3.417-4.991 5.455-2.38 2.038-5.516 4.088-9.189 5.98-3.674 1.903-7.872 3.624-12.192 5.626-4.307 2.001-8.322 4.185-11.52 6.772-3.197 2.588-5.589 5.504-7.102 8.213-1.513 2.722-2.172 5.199-2.404 6.92-.11.866-.171 1.537-.159 2.001-.012.464-.037.696-.037.696s-.012-.244-.012-.696c-.024-.464.025-1.135.122-2.013.196-1.733.842-4.235 2.343-6.993 1.501-2.746 3.893-5.699 7.115-8.311 3.222-2.623 7.237-4.82 11.557-6.821 4.32-2.002 8.53-3.722 12.191-5.602 3.673-1.867 6.797-3.905 9.177-5.906 2.38-2.014 4.027-3.942 5.028-5.37.488-.72.866-1.281 1.086-1.684.232-.415.366-.61.366-.61z" fill="#fff"/><path d="M343.403 159.98c-.024 0-.024-.293-.048-.818a12.653 12.653 0 00-.379-2.185c-.463-1.83-1.672-4.149-3.258-6.553a41.403 41.403 0 00-2.307-3.331c-.756-.989-1.427-1.941-1.659-2.893-.244-.939-.171-1.72-.11-2.245.037-.269.085-.464.11-.598.024-.134.049-.207.061-.207.024 0-.025.292-.073.817-.037.525-.086 1.294.183 2.185.244.903.903 1.818 1.671 2.794.782.976 1.563 2.124 2.331 3.332 1.587 2.404 2.795 4.771 3.21 6.638.232.928.293 1.697.305 2.221 0 .269-.012.476-.024.611 0 .158-.013.232-.013.232zM271.134 169.267s-.744.622-2.318 1.379c-1.562.757-4.04 1.501-7.164 1.574-3.124.098-6.846-.561-10.678-2.05-3.856-1.452-7.822-3.649-12.057-5.76-4.222-2.111-8.457-3.807-12.521-4.405a21.003 21.003 0 00-5.784-.122 17.875 17.875 0 00-4.845 1.342c-2.831 1.245-4.723 3.026-5.723 4.418a8.227 8.227 0 00-.647.951 6.038 6.038 0 00-.415.733c-.208.402-.317.622-.317.622s.085-.22.28-.647c.086-.207.22-.463.391-.756.158-.293.366-.623.622-.977.989-1.427 2.868-3.246 5.736-4.527a17.93 17.93 0 014.893-1.391c1.819-.244 3.808-.208 5.846.097 4.1.586 8.359 2.295 12.594 4.406 4.234 2.123 8.188 4.308 12.033 5.772 3.819 1.501 7.505 2.16 10.592 2.087 3.1-.049 5.553-.769 7.127-1.489a13.065 13.065 0 001.77-.927c.366-.208.585-.33.585-.33z" fill="#fff"/><path d="M244.252 205.181s-.171-.28-.464-.854a15.684 15.684 0 01-.964-2.612c-.659-2.33-.952-5.894-.22-10.165.342-2.136.916-4.43 1.538-6.895.61-2.465 1.281-5.089 1.611-7.92.708-5.663-.073-11.984-1.77-18.318-1.696-6.358-4.027-12.203-5.894-17.585-1.891-5.382-3.344-10.336-4.064-14.607-.768-4.26-.439-7.884.55-10.117a9.472 9.472 0 011.44-2.38c.427-.464.683-.695.683-.695.061.036-1.098.866-2.026 3.099-.952 2.221-1.245 5.809-.464 10.044.745 4.247 2.209 9.189 4.113 14.558 1.879 5.382 4.222 11.228 5.919 17.598 1.708 6.358 2.489 12.716 1.757 18.415-.342 2.843-1.025 5.479-1.635 7.945-.623 2.452-1.208 4.747-1.562 6.87-.757 4.247-.488 7.798.134 10.117.305 1.171.671 2.026.915 2.611.256.586.403.891.403.891zM246.592 239.021c-.012 0 0-.11.025-.318.036-.28.073-.573.11-.915.085-.793.183-1.94.17-3.356 0-2.831-.488-6.785-2.172-10.788-.83-2.001-1.879-3.783-2.709-5.479-.842-1.684-1.464-3.283-1.769-4.686-.306-1.404-.33-2.575-.232-3.369.085-.793.232-1.22.232-1.22.024 0-.086.439-.135 1.22-.061.794-.012 1.941.318 3.32.317 1.379.951 2.953 1.794 4.625.842 1.684 1.903 3.466 2.733 5.479a27.42 27.42 0 012.124 10.886c-.049 2.88-.489 4.601-.489 4.601zM268.39 238.949s-.146-.256-.402-.757c-.257-.5-.598-1.269-.916-2.294-.671-2.038-1.147-5.174-.793-9.006.171-1.916.525-3.991 1.025-6.187.525-2.197 1.196-4.503 1.867-6.944 1.331-4.845 2.771-10.373 1.904-16.182-.854-5.772-3.112-10.946-4.283-15.877-1.221-4.93-1.465-9.555-1.282-13.375a46.33 46.33 0 011.318-8.969c.537-2.075.952-3.185.952-3.185s-.073.292-.219.829a60.08 60.08 0 00-.623 2.38c-.476 2.087-1.074 5.138-1.232 8.958-.159 3.807.109 8.408 1.33 13.314 1.184 4.905 3.441 10.08 4.308 15.901.878 5.87-.586 11.447-1.929 16.279-.683 2.441-1.366 4.747-1.891 6.932-.513 2.184-.879 4.259-1.062 6.15-.378 3.808.073 6.92.708 8.958a16.84 16.84 0 00.866 2.294l.354.781zM217.17 219.325c.012 0-.037.281-.134.781-.11.501-.232 1.233-.354 2.136a30.267 30.267 0 00-.098 7.09 29.851 29.851 0 001.587 6.92c.305.854.586 1.537.793 2.013.207.464.305.732.293.745-.012.012-.147-.244-.378-.696a21.616 21.616 0 01-.867-1.989c-.671-1.709-1.367-4.161-1.672-6.956-.293-2.795-.122-5.345.171-7.151.147-.903.293-1.636.439-2.124.135-.5.208-.769.22-.769zM211.778 120.306s.085.036.232.134c.146.085.378.22.646.439a6.35 6.35 0 011.819 2.356c.549 1.183.842 2.794.866 4.637.049 1.855-.22 3.954-.769 6.212-.524 2.257-1.269 4.698-1.672 7.383a48.064 48.064 0 00-.537 8.652c.122 6.126 1.318 12.789 2.88 19.684 1.55 6.895 3.125 13.485 3.808 19.587.732 6.102.525 11.691-.391 16.255-.878 4.576-2.428 8.066-3.709 10.312-.647 1.123-1.196 1.977-1.611 2.514-.403.549-.623.83-.623.83s.196-.305.586-.867c.403-.549.94-1.403 1.562-2.538 1.245-2.258 2.77-5.736 3.612-10.3.891-4.54 1.074-10.117.33-16.194-.696-6.09-2.27-12.655-3.82-19.562-1.562-6.895-2.758-13.583-2.868-19.733a47.464 47.464 0 01.562-8.701c.415-2.71 1.171-5.15 1.708-7.396.562-2.245.842-4.332.806-6.175 0-1.83-.281-3.417-.806-4.6a6.199 6.199 0 00-1.757-2.356c-.537-.402-.867-.549-.854-.573z" fill="#fff"/><path d="M236.611 210.478c0 .013-.097-.036-.256-.146-.22-.134-.464-.293-.72-.452-.61-.402-1.538-.927-2.709-1.525-2.331-1.196-5.748-2.502-9.714-3.149-3.966-.622-7.627-.439-10.214-.036-1.294.207-2.343.415-3.051.61-.293.073-.562.134-.818.207-.183.049-.293.062-.293.049 0 0 1.526-.585 4.137-1.049 2.6-.464 6.285-.671 10.276-.037 3.99.647 7.431 1.989 9.75 3.234 2.343 1.257 3.612 2.294 3.612 2.294zM272.246 204.84c0 .012-.098.048-.306.11-.268.085-.561.183-.878.28-.903.281-1.989.61-3.246.989-1.428.427-3.051.915-4.821 1.44-1.818.537-3.807 1.135-5.955 1.623-2.136.488-4.222.781-6.126.793-1.904.024-3.625-.22-5.016-.586-1.391-.378-2.465-.866-3.161-1.257-.707-.39-1.049-.683-1.049-.683.012-.025.378.232 1.098.598.708.366 1.77.83 3.161 1.171 1.379.342 3.075.562 4.967.525 1.879-.037 3.954-.329 6.077-.818 2.124-.475 4.125-1.073 5.943-1.598 1.782-.513 3.405-.976 4.833-1.391 1.269-.354 2.355-.659 3.27-.916.33-.085.623-.158.891-.232.208-.036.318-.061.318-.048z" fill="#fff"/><path d="M256.1 186.474s-.061.195-.208.549c-.171.427-.378.939-.634 1.55a22.59 22.59 0 01-1.099 2.416c-.476.915-.952 2.001-1.659 3.099-.33.562-.684 1.148-1.05 1.758-.366.61-.818 1.196-1.245 1.83-.83 1.294-1.879 2.551-2.953 3.893a59.576 59.576 0 01-8.018 7.81 60.605 60.605 0 01-9.433 6.041c-1.562.732-3.026 1.477-4.466 1.989-.72.269-1.392.574-2.075.794-.671.219-1.33.427-1.953.622-1.232.427-2.391.659-3.392.903a23.228 23.228 0 01-2.599.525c-.659.11-1.209.195-1.66.268-.378.061-.574.074-.574.074s.196-.049.574-.123c.451-.085.988-.183 1.647-.305.72-.122 1.587-.28 2.587-.561 1.001-.268 2.148-.5 3.369-.94.622-.207 1.269-.415 1.94-.634.671-.22 1.342-.525 2.062-.806 1.44-.524 2.893-1.269 4.442-2.013a61.715 61.715 0 009.385-6.029c3.087-2.477 5.76-5.162 7.993-7.761 1.074-1.343 2.124-2.587 2.966-3.869.427-.634.878-1.22 1.244-1.818.367-.61.72-1.184 1.05-1.745.708-1.098 1.196-2.16 1.684-3.075.5-.903.854-1.721 1.135-2.392.268-.61.488-1.111.671-1.538.171-.342.269-.512.269-.512z" fill="#263238"/><path opacity=".3" d="M219.21 219.301c-.536.146-.488-1.025-.475-1.587.012-.878.475-1.708 1.098-2.33 1.318-1.306 3.246-1.746 5.028-2.258a37.344 37.344 0 008.481-3.588c3.795-2.197 7.176-5.028 10.544-7.847 2.526-2.111 5.052-4.234 7.566-6.346 0 .013-9.824 18.001-32.242 23.956zM258.847 144.554c4.6 14.461 8.152 29.643 12.752 44.104l-1.098-29.96c-4.259-3.929-8.14-8.664-11.654-14.144z" fill="#000"/><path d="M350.436 148.241l4.588-4.943s5.37.171 6.236-.866c.867-1.038 8.457-9.299 8.457-9.299s-1.061-1.514-3.136-2.587c-1.635-.855-1.379-.562-2.587-1.148-2.209-1.061-.403-2.147-2.355-2.452-1.123-.183-3.588 1.83-4.552 2.44l-11.24 7.139 4.589 11.716z" fill="#FFBE9D"/><path d="M349.998 134.365c-.147-.696 2.758-6.126 2.355-8.164-.391-2.05 1.733-1.343 2.123 0 .391 1.342.915 4.344.915 4.344l-5.393 3.82z" fill="#FFBE9D"/><path d="M358.233 128.569c.036.061-1.843 1.342-4.211 2.855-2.367 1.526-4.307 2.71-4.344 2.649-.037-.061 1.843-1.343 4.21-2.856 2.355-1.513 4.308-2.709 4.345-2.648zM364.226 129.386c-.012.048-.366-.074-.94-.025-.573.037-1.354.281-2.062.793-.72.513-1.245 1.135-1.635 1.587-.379.451-.623.72-.647.708-.025-.025.159-.33.512-.818.354-.476.867-1.135 1.623-1.672.757-.549 1.599-.781 2.209-.769.61 0 .952.183.94.196zM367.447 131.131c-.013.037-.354-.122-.904-.317-.536-.208-1.379-.293-2.099.256-1.427 1.062-2.343 2.246-2.404 2.185-.024-.025.171-.33.55-.794.39-.451.951-1.061 1.696-1.598.378-.269.83-.44 1.245-.44.414 0 .768.11 1.049.232.586.244.879.452.867.476z" fill="#AA6550"/><path d="M272.308 63.06c.684 5.382-6.846 8.506-6.846 8.506l-1.318 12.74c-1.049-.17-3.539-.036-3.539-.036.635-5.98-7.066-4.809-7.847-.733-.756 3.918 3.71 6.541 3.71 6.541-3.087 4.735-4.332 7.225-8.713 11.655-4.735 4.796-7.286 5.186-12.167 5.04l-5.382-.244s-1.916-4.601-3.319-15.462c-.671-5.223-4.76-12.082-3.6-20.575 3.295-24.151 26.445-21.6 26.445-21.6 11.996.33 20.99 1.671 22.576 14.168z" fill="#263238"/></g><defs><clipPath id="clip0"><path fill="#fff" d="M0 0h532.048v497H0z"/></clipPath></defs></svg>