<svg width="54" height="54" fill="none" xmlns="http://www.w3.org/2000/svg"><path fill-rule="evenodd" clip-rule="evenodd" d="M31.219 28.358A10.201 10.201 0 0026.156 27h-2.531v-1.688a8.437 8.437 0 003.232-5.062H27a3.375 3.375 0 002.531-5.586v-2.851a10.969 10.969 0 10-21.937 0v2.851a3.375 3.375 0 002.531 5.586h.169a8.438 8.438 0 003.206 5.063V27h-2.531A10.125 10.125 0 00.844 37.125v15.188a.844.844 0 00.844.843H32V51.47h-9.345L20.25 37.26l1.02-2.042 1.942.97c.127.066.27.098.413.093a.843.843 0 00.802-.573l2.328-7.02a8.437 8.437 0 014.464 1.687v-2.017zM27 15.188v3.374a1.687 1.687 0 100-3.375zm-18.068.494a1.687 1.687 0 001.193 2.88v-3.375c-.448 0-.877.178-1.193.495zm.35-2.064c.275-.074.558-.114.843-.118a.844.844 0 01.844-.844h5.062a4.219 4.219 0 003.375-1.687l1.013-1.35a.843.843 0 011.35 0l1.012 1.35a4.22 4.22 0 003.375 1.687.844.844 0 01.844.844c.285.004.569.044.844.118v-1.806a9.281 9.281 0 00-18.563 0v1.806zm2.53.726v4.219a6.75 6.75 0 0013.5 0v-4.278a5.957 5.957 0 01-3.88-2.304l-.338-.447-.338.447a5.906 5.906 0 01-4.725 2.363h-4.218zM21.938 26.29a8.37 8.37 0 01-3.375.709 8.37 8.37 0 01-3.375-.709v1.249l3.374 4.05 3.375-4.05v-1.249zm-9.796 2.396l1.847 5.56 3.24-1.62-3.282-3.94h-1.805zm-7.355 2.674a8.438 8.438 0 00-2.256 5.764v14.344h3.375V39.656h1.688V51.47h6.876l2.405-14.209-1.055-2.042-1.94.97a.842.842 0 01-.38.093.844.844 0 01-.802-.607l-2.328-6.986a8.438 8.438 0 00-5.583 2.673zm13.649 6.608l-2.253 13.5h4.759l-2.253-13.5h-.253zm-.194-1.688h.641l.911-1.814-1.232-.616-1.231.616.91 1.814zm1.62-3.653l3.24 1.62 1.881-5.56h-1.805l-3.316 3.94z" fill="#0084E4"/><path fill-rule="evenodd" clip-rule="evenodd" d="M52.312 24.469h-20.25a.844.844 0 00-.844.844v27a.844.844 0 00.844.843h20.25a.844.844 0 00.844-.843v-27a.844.844 0 00-.844-.844zm-5.906 1.687h-8.438v1.688h8.438v-1.688zm-13.5 25.313h18.562V26.156h-3.375v2.532a.844.844 0 01-.843.843H37.125a.844.844 0 01-.844-.843v-2.532h-3.375V51.47z" fill="#00C9C9"/><path d="M38.813 31.219h-3.376a.843.843 0 00-.843.843v3.376a.843.843 0 00.843.843h3.376a.843.843 0 00.843-.843v-3.376a.843.843 0 00-.843-.843zm-.844 3.375H36.28v-1.688h1.688v1.688zM38.813 37.969h-3.376a.843.843 0 00-.843.843v3.376a.843.843 0 00.843.843h3.376a.843.843 0 00.843-.843v-3.376a.843.843 0 00-.843-.843zm-.844 3.375H36.28v-1.688h1.688v1.688zM38.813 44.719h-3.376a.843.843 0 00-.843.843v3.376a.843.843 0 00.843.843h3.376a.843.843 0 00.843-.843v-3.376a.843.843 0 00-.843-.843zm-.844 3.375H36.28v-1.688h1.688v1.688zM41.344 31.219h8.437v1.687h-8.437V31.22zM41.344 34.594h8.437v1.687h-8.437v-1.687zM41.344 37.969h8.437v1.687h-8.437V37.97zM41.344 41.344h8.437v1.687h-8.437v-1.687zM41.344 44.719h8.437v1.687h-8.437V44.72zM41.344 48.094h8.437v1.687h-8.437v-1.687z" fill="#00C9C9"/></svg>