<svg width="54" height="54" fill="none" xmlns="http://www.w3.org/2000/svg"><path fill-rule="evenodd" clip-rule="evenodd" d="M41.035 28.688h1.996a.844.844 0 01.844.843v2.532h1.688a.844.844 0 01.79.547l2.467 6.579 3.245 3.246a.845.845 0 01.248.596v5.063a.844.844 0 01-.844.843h-.844a3.375 3.375 0 01-6.75 0H31.219a3.375 3.375 0 11-6.75 0h-3.375a.844.844 0 01-.844-.843V29.532a.844.844 0 01.844-.845h19.94zm-19.097 13.5V30.374h20.25v11.813h-20.25zm21.937-8.438h1.103l1.898 5.063h-3.001V33.75zm4.313 16.59a1.687 1.687 0 11-1.876-2.806 1.687 1.687 0 011.876 2.807zm-2.625-4.325a3.371 3.371 0 00-1.235 1.235h-.453V40.5h3.87l2.88 2.88v3.87h-.455a3.372 3.372 0 00-4.607-1.235zM28.78 50.34a1.688 1.688 0 11-1.875-2.807 1.688 1.688 0 011.875 2.807zm-2.624-4.326a3.372 3.372 0 00-1.235 1.235h-2.985v-3.375h20.25v3.375H30.764a3.371 3.371 0 00-4.607-1.235z" fill="#0084E4"/><path d="M8.681 6.63a20.257 20.257 0 0132.354 22.058h-1.801a18.565 18.565 0 10-31.328 5.401 18.434 18.434 0 0012.344 6.333v1.694A20.248 20.248 0 018.681 6.63z" fill="#00C9C9"/><path d="M34.594 21.094h2.507c-.408-7.42-6.168-13.438-13.476-14.25v2.437a.844.844 0 11-1.687 0v-2.53c-8.092 0-14.725 6.36-15.164 14.343h2.507a.844.844 0 010 1.687H6.774a15.175 15.175 0 0013.476 14.25v1.698A16.862 16.862 0 015.063 21.938c0-9.305 7.57-16.875 16.875-16.875.23 0 .459.006.687.015a.831.831 0 01.4.02c8.8.563 15.788 7.9 15.788 16.84a16.937 16.937 0 01-1.408 6.75h-1.859a15.22 15.22 0 001.555-5.907h-2.507a.844.844 0 110-1.687z" fill="#00C9C9"/><path d="M46.406 43.875a.844.844 0 110-1.688.844.844 0 010 1.688z" fill="#0084E4"/><path d="M23.378 22.534a.845.845 0 01-.597.247H13.5a.844.844 0 010-1.687h8.932l7.346-7.347a.844.844 0 011.194 1.193l-7.594 7.594z" fill="#00C9C9"/></svg>