<svg width="50" height="51" fill="none" xmlns="http://www.w3.org/2000/svg"><path d="M49.78 46.052l-2.685-2.685a.739.739 0 00-1.044 1.044l1.424 1.424H4.165V2.525L5.59 3.948a.738.738 0 101.044-1.044L3.948.22a.738.738 0 00-1.044 0L.22 2.905a.738.738 0 001.044 1.043l1.425-1.424v44.049a.738.738 0 00.738.738h44.048l-1.425 1.425a.739.739 0 101.045 1.044l2.684-2.685a.739.739 0 000-1.044z" fill="#028BFC"/><path d="M8.205 31.222a.78.78 0 00.131-.011C16.203 29.8 36.337 17.633 43.984 4.787l.444 1.859a.738.738 0 101.434-.343L44.98 2.61a.74.74 0 00-.89-.549l-3.693.881a.738.738 0 10.343 1.437l2.054-.49c-7.49 12.766-27.856 24.637-34.72 25.867a.738.738 0 00.129 1.465v.001z" fill="#028BFC"/><path d="M12.484 33.543a.739.739 0 00-.738.738v7.94a.738.738 0 00.738.739h3.797a.738.738 0 00.739-.739v-7.94a.738.738 0 00-.739-.738h-3.797zm3.059 7.94h-2.32V35.02h2.32v6.463zM21.241 28.48a.738.738 0 00-.738.739V42.22a.738.738 0 00.738.739h3.797a.738.738 0 00.738-.739V29.22a.738.738 0 00-.738-.739h-3.797zM24.3 41.483h-2.32V29.957h2.32v11.526zM29.999 23.418a.738.738 0 00-.738.738v18.065a.738.738 0 00.738.739h3.797a.739.739 0 00.738-.739V24.156a.739.739 0 00-.738-.738h-3.797zm3.058 18.065h-2.32V24.895h2.32v16.588zM38.755 18.355a.739.739 0 00-.738.739V42.22a.739.739 0 00.738.739h3.797a.738.738 0 00.738-.739V19.094a.738.738 0 00-.738-.739h-3.797zm3.058 23.128h-2.32V19.832h2.32v21.651z" fill="#00C9C9"/></svg>