<svg width="128" height="48" fill="none" xmlns="http://www.w3.org/2000/svg"><path fill-rule="evenodd" clip-rule="evenodd" d="M126.867 20.874c-1.303 0-2.326.388-3.068 1.163-.744.775-1.115 1.879-1.115 3.312v6.6h-2.405v-13.25h2.305v2.225c.417-.766 1.035-1.35 1.853-1.75.818-.4 1.812-.6 2.981-.6v2.325a4.857 4.857 0 00-.551-.025zm-20.739 5.25c.15 1.167.664 2.105 1.54 2.813.877.708 1.966 1.062 3.269 1.062 1.586 0 2.863-.533 3.832-1.6l1.328 1.55a5.817 5.817 0 01-2.242 1.6c-.894.367-1.891.55-2.993.55-1.403 0-2.647-.287-3.732-.862-1.086-.575-1.925-1.379-2.518-2.413-.593-1.033-.889-2.2-.889-3.5 0-1.283.288-2.441.864-3.475a6.18 6.18 0 012.38-2.412c1.01-.575 2.15-.863 3.419-.863 1.269 0 2.4.288 3.394.863a6.07 6.07 0 012.329 2.412c.559 1.034.839 2.217.839 3.55 0 .184-.017.425-.05.725h-10.77zm7.151-4.462c-.777-.708-1.741-1.063-2.893-1.063-1.152 0-2.117.35-2.893 1.05-.777.7-1.232 1.617-1.365 2.75h8.516c-.134-1.116-.589-2.029-1.365-2.737zM99.59 32.099c-1.336 0-2.371-.358-3.106-1.075-.735-.716-1.102-1.741-1.102-3.075v-7.275h-2.254v-1.975h2.254v-2.9h2.405v2.9h3.807v1.975h-3.807v7.175c0 .717.179 1.267.538 1.65.359.384.873.575 1.541.575.734 0 1.36-.208 1.878-.625l.752 1.725c-.351.3-.785.53-1.303.688a5.462 5.462 0 01-1.603.237zm-11.421-7.5c0-1.283-.31-2.25-.927-2.9-.618-.65-1.503-.975-2.655-.975-1.303 0-2.33.38-3.081 1.138-.751.758-1.127 1.846-1.127 3.262v6.825h-2.405v-13.25h2.305v2c.484-.683 1.139-1.208 1.966-1.575.826-.366 1.766-.55 2.818-.55 1.686 0 3.026.488 4.02 1.463.993.975 1.49 2.404 1.49 4.287v7.625h-2.404v-7.35zm-24.346 1.525c.15 1.167.663 2.105 1.54 2.813.877.708 1.966 1.062 3.269 1.062 1.586 0 2.863-.533 3.832-1.6l1.327 1.55a5.806 5.806 0 01-2.241 1.6c-.894.367-1.891.55-2.993.55-1.403 0-2.647-.287-3.732-.862-1.086-.575-1.925-1.379-2.518-2.413-.593-1.033-.889-2.2-.889-3.5 0-1.283.288-2.441.864-3.475a6.18 6.18 0 012.38-2.412c1.01-.575 2.15-.863 3.419-.863 1.269 0 2.4.288 3.394.863a6.07 6.07 0 012.329 2.412c.559 1.034.839 2.217.839 3.55 0 .184-.017.425-.05.725h-10.77zm7.151-4.462c-.777-.708-1.741-1.063-2.893-1.063-1.152 0-2.117.35-2.893 1.05-.777.7-1.232 1.617-1.365 2.75h8.516c-.134-1.116-.589-2.029-1.365-2.737zm-19.011 7.762c.692.384 1.473.575 2.342.575.751 0 1.436-.158 2.053-.475.618-.316 1.136-.791 1.553-1.425l1.829 1.15a5.254 5.254 0 01-2.192 2.113c-.943.492-2.016.737-3.218.737-1.353 0-2.559-.291-3.62-.875a6.415 6.415 0 01-2.492-2.412c-.601-1.025-.902-2.188-.902-3.488 0-1.3.301-2.462.902-3.487a6.33 6.33 0 012.492-2.4c1.061-.575 2.267-.863 3.62-.863 1.202 0 2.275.242 3.218.725a5.183 5.183 0 012.192 2.1l-1.829 1.175c-.417-.633-.935-1.108-1.553-1.425a4.44 4.44 0 00-2.053-.475c-.869 0-1.65.192-2.342.575a4.106 4.106 0 00-1.628 1.638c-.393.708-.589 1.521-.589 2.437 0 .934.196 1.755.589 2.463a4.097 4.097 0 001.628 1.637zM43.5 39h-1a1.5 1.5 0 01-1.5-1.5v-36A1.5 1.5 0 0142.5 0h1A1.5 1.5 0 0145 1.5v36a1.5 1.5 0 01-1.5 1.5zm-8 4h-1a1.5 1.5 0 01-1.5-1.499V9.66l-4.479 2.562a1.5 1.5 0 01-2.047-.558l-.497-.868a1.501 1.501 0 01.558-2.047l6.944-3.971A1.497 1.497 0 0135.255 5h.245A1.5 1.5 0 0137 6.5v35.001A1.5 1.5 0 0135.5 43zm-8.433-11.051h-2.956v-1.625c-.384.584-.931 1.03-1.64 1.338-.71.308-1.566.462-2.568.462s-1.878-.171-2.63-.512c-.751-.342-1.331-.817-1.74-1.425a3.605 3.605 0 01-.614-2.063c0-1.2.447-2.162 1.34-2.887.893-.725 2.3-1.088 4.22-1.088h3.457v-.2c0-.933-.28-1.65-.839-2.15-.56-.5-1.39-.75-2.492-.75-.752 0-1.491.117-2.217.35-.726.234-1.34.559-1.841.975l-1.227-2.275c.701-.533 1.544-.941 2.529-1.225a11.294 11.294 0 013.131-.425c1.971 0 3.478.471 4.521 1.413 1.044.942 1.566 2.362 1.566 4.262v7.825zm-3.131-5.725h-3.231c-1.804 0-2.705.592-2.705 1.775 0 .567.225 1.017.676 1.35.451.334 1.077.5 1.879.5.784 0 1.481-.179 2.091-.537a2.925 2.925 0 001.29-1.538v-1.55zM7.43 29.449c.684 0 1.315-.154 1.891-.462.576-.308 1.056-.771 1.44-1.388l2.405 1.4a5.423 5.423 0 01-2.267 2.313c-.994.542-2.142.812-3.444.812-1.386 0-2.63-.291-3.732-.875a6.428 6.428 0 01-2.58-2.437C.525 27.77.216 26.591.216 25.274c0-1.316.309-2.491.927-3.525a6.485 6.485 0 012.567-2.425c1.094-.583 2.342-.875 3.745-.875 1.319 0 2.475.267 3.469.8a5.202 5.202 0 012.242 2.3l-2.405 1.4c-.384-.616-.864-1.079-1.44-1.387a3.95 3.95 0 00-1.891-.463c-1.169 0-2.138.38-2.906 1.138-.768.758-1.152 1.771-1.152 3.037 0 1.267.38 2.28 1.14 3.038.759.758 1.732 1.137 2.918 1.137zm20.07 9.55A4.5 4.5 0 1127.499 48 4.5 4.5 0 0127.5 39z" fill="#fff"/></svg>