<svg width="560" height="355" fill="none" xmlns="http://www.w3.org/2000/svg"><g clip-path="url(#clip0)"><path d="M313.817 290.899a22.25 22.25 0 00-9.537-3.28c-1.557-.158-3.264-.111-4.511.826-.262.199-.524.501-.461.826.04.238.247.413.445.564 3.875 2.954 9.744 3.327 14.064 1.064zM313.571 290.629c-2.16-1.683-4.328-3.383-6.163-5.416-1.826-2.041-3.311-4.455-3.859-7.139-.167-.81-.214-1.747.302-2.39 4.915 3.828 8.767 8.783 9.72 14.945z" fill="#E0E0E0"/><path d="M313.76 290.858c-.373-2.684-.5-5.447.111-8.084.62-2.636 2.057-5.169 4.304-6.67.85 1.985.485 4.264-.111 6.337a30.766 30.766 0 01-4.272 8.989M318.573 299.483c-2.923.358-5.464 1.898-7.648 3.868a14.465 14.465 0 00-4.375 7.512c2.867-.175 5.296-2.2 7.059-4.463s2.986-4.749 4.924-6.869M319.622 300.865c-2.351-5.797-1.501-12.778 2.175-17.844 1.668 5.916 1.057 12.61-2.175 17.844zM325.982 308.433a13.693 13.693 0 00-7.647 1.795 13.712 13.712 0 00-5.392 5.717c-.159.326-.302.731-.087 1.024.19.255.548.278.865.255 2.573-.167 4.844-1.716 6.726-3.471 1.882-1.763 3.518-3.795 5.591-5.32M325.776 308.02a24.35 24.35 0 01-.247-13.572c.477-1.747 1.279-3.581 2.899-4.407.135-.071.302-.135.445-.079.135.055.214.19.278.325.571 1.199.738 2.565.682 3.891-.055 1.326-.333 2.637-.611 3.939-.508 2.406-.778 4.995-2.096 7.076-.31.492-.588 1.024-.842 1.556-.246.524-.254.715-.485 1.136M342.611 310.529c-1.247-4.741.079-10.498 3.065-14.381.222-.286.508-.596.873-.564.548.047.691.786.667 1.334a25.978 25.978 0 01-4.605 13.611zM344.127 311.569c5.765 1.501 12.372.04 17.169-3.494a13.931 13.931 0 00-9.292-1.143c-3.104.715-5.947 2.104-7.877 4.637zM345.405 308.409c3.224-5.265 9.418-8.696 15.581-9.013-.707 2.509-2.772 4.454-5.099 5.638-2.326 1.175-4.923 1.691-7.48 2.183-.993.199-2.359.405-3.002 1.192zM342.928 293.083c.873-2.994 1.755-6.011 1.993-9.124.238-3.113-.206-6.361-1.819-9.029-3.017 5.836-3.319 12.65-.262 18.463M353.084 287.952c3.526-6.408 10.72-11.53 18.002-12.245-2.811 6.988-10.474 12.396-18.002 12.245zM350.861 289.207c5.257.802 9.736 4.161 14.652 6.194 1.048.437 2.183.787 3.311.636 1.128-.151 2.239-.906 2.493-2.017.207-.922-.206-1.898-.873-2.573-.659-.675-1.533-1.096-2.406-1.461-5.352-2.232-11.094-2.287-16.732-.93" fill="#E0E0E0"/><path d="M347.819 292.892c1.191.342 1.596.961 2.541 1.763a27.488 27.488 0 0011.11 5.71c.421.103.985.151 1.191-.238.183-.334-.047-.739-.286-1.041-1.707-2.136-4.145-3.597-6.71-4.558-2.565-.953-4.788-2.104-7.846-1.858M344.39 270.617c4.272 3.994 10.299 6.043 16.12 5.487.262-.024.556-.063.731-.262.405-.444-.08-1.119-.556-1.493-4.733-3.692-10.475-5.225-16.295-3.732z" fill="#E0E0E0"/><path d="M348.455 269.132c5.654-4.24 13.405-5.519 20.115-3.319-2.533 2.493-6.051 3.843-9.585 4.208-3.534.366-7.076-.023-10.53-.889zM346.843 258.896c-.468-4.732-.167-8.465-.492-13.221-.024-.382-.111-.834-.461-.977-.492-.191-.905.421-1.072.921-1.405 4.383-.635 9.41 2.017 13.166" fill="#E0E0E0"/><path d="M346.501 259.42c3.208-1.985 5.614-4.574 7.838-7.616 1.548-2.12 2.851-4.653 2.501-7.258-2.176-.039-4.24 1.16-5.654 2.811-1.413 1.652-2.255 3.717-2.882 5.797-.628 2.081-1.072 4.217-1.803 6.266zM354.196 257.276a63.265 63.265 0 0019.289-11.371c-2.303-.929-4.94-.374-7.243.556-5.264 2.12-9.561 5.709-12.141 10.76M348.662 262.002c3.558.389 7.179.643 10.713.055 3.47-.579 6.749-1.953 9.997-3.319.27-.111.564-.246.683-.516.127-.286-.008-.643-.246-.858-.238-.214-.548-.317-.85-.397-3.525-.985-7.337-.524-10.807.643-3.471 1.168-6.313 2.557-9.49 4.392zM328.333 270.785c-2.43-4.9-2.272-10.626-.175-15.676 1.477 2.247 1.66 5.114 1.39 7.798-.27 2.676-1.088 5.432-1.136 8.124M318.628 265.884c-6.067-.119-12.134 2.47-16.247 6.925 3.025.476 6.146-.302 8.894-1.652 2.755-1.342 5.201-3.232 7.623-5.106M312.109 263.709c-2.97-.239-5.821-.612-8.672.27-2.851.873-5.447 2.858-6.615 5.606 2.772.31 5.591-.381 8.132-1.533 2.541-1.159 4.86-2.755 7.155-4.343zM321.765 263.804c-2.668-1.747-5.408-3.526-8.521-4.256-3.105-.723-6.71-.191-8.878 2.152 2.518 1.477 5.567 1.651 8.481 1.651 2.915 0 6.496-.031 9.244.937" fill="#E0E0E0"/><path d="M321.781 263.946c-4.567-4.478-6.29-12.53-4.455-18.653 3.589 5.448 5.193 12.174 4.455 18.653zM334.328 251.249c.858-2.001 1.469-4.098 2.24-6.138.77-2.033 1.731-4.042 3.192-5.654 1.461-1.62 3.478-2.819 5.654-2.931-1.358 6.163-5.456 11.674-10.967 14.755M332.056 253.894c-1.421-1.962-3.073-4.622-5.002-6.083-1.93-1.461-4.447-2.351-6.806-1.787 2.406 4.288 6.933 7.306 11.808 7.87zM332.509 251.416c-.937-2.375-1.874-4.773-2.247-7.29-.381-2.518-.151-5.217 1.144-7.409 2.501 4.733 3.311 9.815 1.238 14.754M334.352 236.709c1.421-4.693 5.717-8.147 10.355-9.736.587-.198 1.207-.365 1.818-.27.612.096 1.207.517 1.342 1.12.167.802-.492 1.517-1.112 2.041a35.143 35.143 0 01-12.403 6.845zM334.408 232.874c.182-3.026.365-6.099 1.35-8.966.984-2.867 2.882-5.559 5.638-6.813.468 3.057-.882 6.098-2.502 8.727-1.628 2.628-3.589 5.114-4.566 8.044M334.328 234.954c-1.176-3.423-1.295-7.766-3.343-10.744-1.43-2.081-3.725-3.502-4.956-5.71-.818 2.057-.571 4.431.286 6.48.858 2.049 2.271 3.804 3.788 5.424 1.517 1.62 2.819 2.843 4.225 4.55z" fill="#E0E0E0"/><path d="M334.351 335.687c-.087 0-.167-22.815-.175-50.958-.008-28.151.064-50.966.151-50.966.088 0 .167 22.815.175 50.966.008 28.143-.056 50.958-.151 50.958z" fill="#E0E0E0"/><path d="M354.291 267.338c.008.024-.302.135-.857.326-.62.206-1.414.476-2.359.794a135.75 135.75 0 00-7.695 2.874c-2.938 1.263-5.709 2.287-7.29 3.653-.786.675-1.239 1.406-1.461 1.938-.23.532-.27.865-.294.857-.008 0-.008-.087.008-.238.024-.151.064-.381.167-.667.191-.564.635-1.342 1.429-2.064.794-.723 1.898-1.374 3.161-1.962a95.943 95.943 0 0111.904-4.614 52.967 52.967 0 012.398-.698c.564-.151.881-.223.889-.199z" fill="#E0E0E0"/><path d="M360.827 251.28c.008.008-.079.096-.238.255-.191.182-.437.412-.731.69-.683.62-1.604 1.462-2.731 2.486a5521.141 5521.141 0 01-9.101 8.1c-3.549 3.16-6.623 6.178-8.751 8.457a112.611 112.611 0 00-2.477 2.732c-.27.301-.485.556-.66.754-.15.175-.238.254-.246.254-.008-.008.056-.111.199-.294.135-.182.341-.46.611-.794a59.062 59.062 0 012.406-2.811c2.089-2.319 5.138-5.376 8.704-8.544 3.565-3.153 6.805-5.988 9.164-8.029a862.24 862.24 0 002.803-2.406c.31-.262.572-.468.77-.643.175-.143.27-.215.278-.207z" fill="#E0E0E0"/><path d="M344.191 266.027c-.095-.039.651-1.755 1.39-3.922.746-2.168 1.095-3.995 1.191-3.979.087.008-.127 1.89-.882 4.082a25.896 25.896 0 01-1.104 2.739c-.325.691-.555 1.096-.595 1.08zM334.375 279.837c-.016.016-.214-.215-.548-.636-.373-.476-.841-1.079-1.405-1.794a564.409 564.409 0 00-4.63-5.924c-1.826-2.303-3.502-4.36-4.717-5.853-.572-.707-1.056-1.302-1.429-1.771-.334-.42-.509-.659-.493-.675.016-.015.231.199.596.596.365.397.881.977 1.517 1.707a175.162 175.162 0 014.796 5.797 179.048 179.048 0 014.558 5.988 77.65 77.65 0 011.318 1.858c.294.445.453.691.437.707z" fill="#E0E0E0"/><path d="M330 274.223c-.055.055-1.223-1.327-1.834-3.431-.453-1.485-.468-2.835-.413-3.454l.143.008c-.063.262-.111.405-.135.397-.024-.008-.024-.151-.008-.421l.143.008c.056.611.143 1.921.588 3.367.595 2.041 1.604 3.47 1.516 3.526zM324.353 267.124c-.039.047-.42-.429-1.278-.747-.858-.333-2.136-.405-3.55-.286a21.636 21.636 0 00-3.573.58c-.905.222-1.453.397-1.469.349-.016-.039.508-.293 1.405-.579a16.445 16.445 0 013.614-.683c1.429-.127 2.779-.016 3.66.397.898.405 1.223.961 1.191.969zM323.02 265.4c-.024.048-.747-.302-1.962-.715a19.984 19.984 0 00-4.891-1.008 20.256 20.256 0 00-4.987.254c-1.263.222-2.025.46-2.041.405-.008-.024.175-.095.516-.222.342-.127.85-.27 1.477-.413 1.263-.294 3.073-.501 5.059-.358 1.985.151 3.74.636 4.939 1.12.603.238 1.08.461 1.398.635.333.183.5.286.492.302zM334.327 258.126c-.087.023-.73-2.2-1.429-4.964-.699-2.763-1.199-5.018-1.112-5.042.088-.024.731 2.199 1.43 4.963.706 2.763 1.199 5.019 1.111 5.043z" fill="#E0E0E0"/><path d="M334.423 258.126c-.095.032-.508-1.453-1.58-2.97-1.048-1.548-2.383-2.326-2.335-2.406.016-.032.389.103.897.461.517.357 1.152.968 1.7 1.755 1.119 1.58 1.397 3.152 1.318 3.16zM334.351 323.528c-.032.008-.103-.548-.357-1.516-.254-.969-.731-2.343-1.525-3.947-1.58-3.224-4.447-7.306-8.092-11.396-1.802-2.064-3.557-4.01-5.042-5.876-1.493-1.858-2.716-3.637-3.606-5.201-.897-1.565-1.477-2.915-1.818-3.86a14.292 14.292 0 01-.357-1.103c-.072-.255-.104-.39-.096-.397.032-.008.199.524.572 1.453.373.929.985 2.247 1.906 3.788.913 1.54 2.152 3.287 3.645 5.13 1.493 1.842 3.248 3.779 5.058 5.844 3.653 4.106 6.52 8.243 8.052 11.515.771 1.636 1.223 3.033 1.438 4.018.103.492.174.881.198 1.143.024.262.04.405.024.405z" fill="#E0E0E0"/><path d="M352.37 303.175c.008.024-.334.199-.945.532-.604.342-1.461.866-2.446 1.62-.985.755-2.088 1.747-3.216 2.931-1.128 1.191-2.295 2.58-3.478 4.065-2.375 2.978-4.59 5.615-5.924 7.719a29.314 29.314 0 00-1.485 2.541c-.326.62-.493.961-.516.953-.008-.008.023-.095.087-.27.071-.167.167-.429.318-.738.285-.636.746-1.541 1.405-2.605 1.295-2.152 3.494-4.828 5.861-7.798 1.191-1.485 2.366-2.875 3.518-4.066 1.151-1.191 2.279-2.176 3.295-2.914a17.32 17.32 0 012.533-1.549c.31-.159.572-.254.739-.325.159-.08.254-.112.254-.096z" fill="#E0E0E0"/><path d="M352.727 309.775c.008.048-.763.143-1.994.294-1.23.159-2.938.365-4.732.929-1.787.58-3.272 1.469-4.241 2.224-.977.754-1.437 1.381-1.485 1.342-.016-.008.08-.183.294-.461a7.795 7.795 0 011.04-1.064c.953-.818 2.454-1.763 4.288-2.358 1.835-.58 3.574-.747 4.813-.85 1.238-.087 2.009-.095 2.017-.056z" fill="#E0E0E0"/><path d="M340.855 313.84c-.103-.055.794-1.429 1.493-3.28.651-1.866.81-3.502.929-3.478.04.008.04.413-.032 1.072a11.868 11.868 0 01-.58 2.526c-.349.96-.81 1.755-1.159 2.31-.365.548-.611.874-.651.85zM358.206 285.451c.008.008-.103.071-.317.166l-.937.429c-.413.175-.913.397-1.469.699-.564.294-1.223.588-1.906 1.001-.35.198-.715.405-1.088.619-.381.214-.755.477-1.152.723-.802.484-1.604 1.088-2.461 1.699a46.58 46.58 0 00-5.146 4.527 47.264 47.264 0 00-4.352 5.296c-.579.882-1.151 1.7-1.612 2.525-.238.405-.476.787-.683 1.176-.198.381-.397.754-.579 1.111-.39.699-.668 1.366-.937 1.938-.278.572-.485 1.08-.644 1.493-.159.389-.294.699-.397.953-.095.214-.151.326-.159.326-.008 0 .024-.12.096-.35l.333-.977c.143-.428.334-.937.596-1.524.254-.58.524-1.263.897-1.97.183-.357.373-.738.564-1.127.198-.389.437-.779.675-1.191.453-.834 1.016-1.668 1.596-2.558a44.8 44.8 0 014.36-5.352 44.806 44.806 0 015.201-4.542c.874-.612 1.684-1.207 2.502-1.684.405-.246.786-.5 1.167-.714.381-.207.754-.413 1.104-.604.698-.397 1.366-.691 1.937-.961.572-.278 1.08-.492 1.501-.651.389-.151.707-.27.961-.373.23-.079.349-.119.349-.103z" fill="#E0E0E0"/><path d="M343.944 295.004c-.032-.008.127-.556.786-1.167.636-.611 1.803-1.175 3.161-1.215 1.35-.04 2.525.341 3.327.651.802.318 1.271.572 1.255.612-.016.047-.516-.135-1.334-.389-.81-.247-1.954-.572-3.24-.54-1.279.039-2.382.532-3.018 1.056-.651.524-.881 1.024-.937.992zM341.816 297.204c-.087-.047.715-1.231.898-2.922.214-1.684-.302-3.018-.199-3.049.04-.016.214.293.373.849s.262 1.358.159 2.232a5.937 5.937 0 01-.667 2.136c-.286.516-.532.778-.564.754zM318.597 326.792c.492 8.719 3.121 17.589 7.163 26.555h17.573c3.851-8.878 6.297-17.733 6.734-26.555h-31.47z" fill="#E0E0E0"/><path d="M347.216 340.904c0 .087-5.789.166-12.928.166-7.139 0-12.928-.071-12.928-.166 0-.088 5.789-.167 12.928-.167 7.139.008 12.928.079 12.928.167zM346.827 344.064c0 .087-5.424.167-12.118.167s-12.118-.072-12.118-.167c0-.088 5.424-.167 12.118-.167s12.118.079 12.118.167zM326.038 332.518c.087 0 .167 1.81.167 4.05 0 2.239-.072 4.049-.167 4.049-.087 0-.167-1.81-.167-4.049 0-2.232.08-4.05.167-4.05z" fill="#FAFAFA"/><path d="M335.456 332.518c.087 0 .167 1.874.167 4.192 0 2.319-.072 4.193-.167 4.193-.088 0-.167-1.874-.167-4.193 0-2.31.072-4.192.167-4.192zM344.294 332.446c.087 0 .166 1.914.166 4.273 0 2.358-.071 4.28-.166 4.28-.088 0-.167-1.914-.167-4.28 0-2.351.079-4.273.167-4.273z" fill="#FAFAFA"/><path d="M349.511 332.517c0 .088-6.789.167-15.159.167-8.378 0-15.16-.071-15.16-.167 0-.087 6.79-.166 15.16-.166 8.37.008 15.159.079 15.159.166z" fill="#FAFAFA"/><path d="M559.975 73.25H442.101v78.955h117.874V73.25z" fill="#F5F5F5"/><path d="M559.975 73.25H442.101v7.887h117.874V73.25z" fill="#EBEBEB"/><path d="M447.212 77.194c0 .486-.422.89-.952.89s-.952-.395-.952-.89c0-.485.431-.889.952-.889.521.01.952.404.952.89zM450.284 77.194c0 .486-.422.89-.952.89s-.952-.395-.952-.89c0-.485.431-.889.952-.889.53.01.952.404.952.89zM453.355 77.194c0 .486-.422.89-.952.89s-.952-.395-.952-.89c0-.485.431-.889.952-.889.53.01.952.404.952.89z" fill="#fff"/><path d="M418.512 8.398H197.251v148.199h221.261V8.397z" fill="#E0E0E0"/><path d="M418.512 8.398H197.251V23.2h221.261V8.398z" fill="#E0E0E0"/><path d="M206.836 15.799c0 .916-.8 1.662-1.788 1.662s-1.787-.746-1.787-1.662c0-.916.799-1.662 1.787-1.662.979 0 1.788.746 1.788 1.662zM212.602 15.799c0 .916-.799 1.662-1.787 1.662-.988 0-1.788-.746-1.788-1.662 0-.916.8-1.662 1.788-1.662s1.787.746 1.787 1.662zM218.378 15.799c0 .916-.8 1.662-1.788 1.662s-1.787-.746-1.787-1.662c0-.916.799-1.662 1.787-1.662.979 0 1.788.746 1.788 1.662z" fill="#fff"/><path d="M549.771 139.63h-166.2v111.318h166.2V139.63z" fill="#E0E0E0"/><path d="M549.771 139.63h-166.2v11.12h166.2v-11.12z" fill="#E0E0E0"/><path d="M390.766 145.189c0 .692-.602 1.249-1.347 1.249-.746 0-1.348-.557-1.348-1.249 0-.691.602-1.248 1.348-1.248.745 0 1.347.557 1.347 1.248zM395.105 145.189c0 .692-.602 1.249-1.347 1.249-.746 0-1.348-.557-1.348-1.249 0-.691.602-1.248 1.348-1.248.745 0 1.347.557 1.347 1.248zM399.443 145.189c0 .692-.602 1.249-1.348 1.249-.745 0-1.347-.557-1.347-1.249 0-.691.602-1.248 1.347-1.248.746 0 1.348.557 1.348 1.248z" fill="#fff"/><path d="M290.874 223.228H172.999v78.954h117.875v-78.954z" fill="#F5F5F5"/><path d="M290.874 223.228H172.999v7.886h117.875v-7.886z" fill="#EBEBEB"/><path d="M178.11 227.171c0 .485-.422.889-.952.889s-.952-.395-.952-.889c0-.485.422-.889.952-.889.521.009.952.404.952.889zM181.183 227.171c0 .485-.423.889-.953.889s-.952-.395-.952-.889c0-.485.422-.889.952-.889.521.009.953.404.953.889zM184.254 227.171c0 .485-.422.889-.952.889s-.952-.395-.952-.889c0-.485.431-.889.952-.889.53.009.952.404.952.889z" fill="#fff"/><path d="M117.875 33.612H0v78.954h117.875V33.612z" fill="#F5F5F5"/><path d="M117.875 33.612H0v7.886h117.875v-7.886z" fill="#EBEBEB"/><path d="M5.102 37.556c0 .485-.423.889-.953.889s-.952-.395-.952-.89c0-.484.431-.889.952-.889.53 0 .953.396.953.89zM8.184 37.556c0 .485-.423.889-.953.889s-.952-.395-.952-.89c0-.484.422-.889.952-.889.521 0 .953.396.953.89zM11.255 37.556c0 .485-.422.889-.952.889s-.952-.395-.952-.89c0-.484.422-.889.952-.889s.952.396.952.89z" fill="#fff"/><path d="M175.451 0H60.873v76.736h114.578V0z" fill="#E0E0E0"/><path d="M175.451 0H60.873v7.662h114.578V0z" fill="#E0E0E0"/><path d="M65.84 3.835c0 .476-.414.862-.926.862s-.925-.386-.925-.862.413-.862.925-.862.926.386.926.862zM68.83 3.835c0 .476-.412.862-.924.862s-.925-.386-.925-.862.413-.862.925-.862.925.386.925.862zM71.813 3.835c0 .476-.413.862-.925.862s-.925-.386-.925-.862.413-.862.925-.862.925.386.925.862z" fill="#fff"/><path d="M401.716 23.57H180.455v148.199h221.261v-148.2z" fill="#F5F5F5"/><path d="M401.716 23.57H180.455v14.803h221.261V23.57z" fill="#EBEBEB"/><path d="M190.04 30.97c0 .917-.8 1.663-1.788 1.663s-1.787-.746-1.787-1.662c0-.916.799-1.662 1.787-1.662.988 0 1.788.737 1.788 1.662zM195.815 30.97c0 .917-.799 1.663-1.787 1.663-.988 0-1.788-.746-1.788-1.662 0-.916.8-1.662 1.788-1.662s1.787.737 1.787 1.662zM201.591 30.97c0 .917-.8 1.663-1.788 1.663s-1.787-.746-1.787-1.662c0-.916.799-1.662 1.787-1.662.979 0 1.788.737 1.788 1.662z" fill="#fff"/><path d="M338.66 56.328H117.398v148.199H338.66v-148.2z" fill="#F5F5F5"/><path d="M338.66 56.328H117.398V71.13H338.66V56.328z" fill="#EBEBEB"/><path d="M126.973 63.73c0 .915-.799 1.66-1.787 1.66-.988 0-1.788-.745-1.788-1.66 0-.917.8-1.663 1.788-1.663s1.787.746 1.787 1.662zM132.75 63.73c0 .915-.8 1.66-1.788 1.66s-1.787-.745-1.787-1.66c0-.917.799-1.663 1.787-1.663.988 0 1.788.746 1.788 1.662zM138.525 63.73c0 .915-.799 1.66-1.787 1.66-.988 0-1.788-.745-1.788-1.66 0-.917.8-1.663 1.788-1.663.979 0 1.787.746 1.787 1.662z" fill="#fff"/><path d="M497.916 353.507c0 .126-106.997.234-238.956.234-132.004 0-238.983-.108-238.983-.234 0-.125 106.979-.233 238.983-.233 131.959 0 238.956.099 238.956.233z" fill="#263238"/><path d="M405.767 117.55s-6.359-6.413-7.275-7.985c-4.734-8.12-25.564-43.034-25.564-43.034l-11.542 7.814s23.785 42.801 28.671 48.684c4.887 5.884 11.731 11.74 11.731 11.74l3.979-17.219z" fill="#FFBE9D"/><path d="M139.819 85.493c.027.009 7.932-13.752 11.902-12.97 3.97.78 7.473 3.655 7.473 3.655l-10.105 11.875-9.27-2.56z" fill="#B78876"/><path d="M93.633 118.925l28.599-10.86 17.714-26.947 10.904 5.65-20.614 36.738-33.89 12.844-2.713-17.425z" fill="#263238"/><path d="M376.234 37.374H151.802v150.319h224.432V37.374z" fill="#FAFAFA"/><path d="M376.234 37.374H151.802v15.018h224.432V37.374z" fill="#455A64"/><path d="M161.521 44.883c0 .935-.808 1.69-1.814 1.69s-1.814-.755-1.814-1.69c0-.934.808-1.688 1.814-1.688.997 0 1.814.754 1.814 1.688zM167.377 44.883c0 .935-.809 1.69-1.815 1.69-1.006 0-1.814-.755-1.814-1.69 0-.934.808-1.688 1.814-1.688.998 0 1.815.754 1.815 1.688zM173.225 44.883c0 .935-.809 1.69-1.815 1.69-.997 0-1.814-.755-1.814-1.69 0-.934.808-1.688 1.814-1.688s1.815.754 1.815 1.688z" fill="#fff"/><path d="M376.234 187.694c0-1.527-.072-58.745-.189-150.32l.189.19c-61.843.008-139.864.026-224.414.044h-.018l.233-.233c-.009 53.552-.018 104.482-.018 150.319l-.215-.216c132.192.126 222.518.216 224.432.216-1.914 0-92.24.089-224.432.215h-.216v-.215c-.009-45.837-.009-96.767-.018-150.32v-.233h.252c84.55.018 162.571.036 224.414.045h.188v.189c-.116 91.565-.188 148.792-.188 150.319z" fill="#263238"/><path d="M216.528 112.889h-2.47v-.449h2.021v-2.021h.449v2.47zM209.432 112.889h-4.626v-.449h4.626v.449zm-9.252 0h-4.625v-.449h4.625v.449zm-9.26 0h-4.626v-.449h4.626v.449zm-9.252 0h-4.626v-.449h4.626v.449zM172.415 112.889h-2.47v-2.47h.449v2.021h2.021v.449zM170.394 105.793h-.449v-4.626h.449v4.626zm0-9.252h-.449v-4.626h.449v4.626zm0-9.252h-.449v-4.626h.449v4.626zm0-9.252h-.449v-4.625h.449v4.625zM170.394 68.776h-.449v-2.47h2.47v.45h-2.021v2.02zM209.432 66.756h-4.626v-.45h4.626v.45zm-9.252 0h-4.625v-.45h4.625v.45zm-9.26 0h-4.626v-.45h4.626v.45zm-9.252 0h-4.626v-.45h4.626v.45zM216.528 68.777h-.449v-2.021h-2.021v-.45h2.47v2.47zM216.528 105.793h-.449v-4.626h.449v4.626zm0-9.252h-.449v-4.626h.449v4.626zm0-9.252h-.449v-4.626h.449v4.626zm0-9.252h-.449v-4.625h.449v4.625z" fill="#263238"/><path d="M218.621 121.269h-51.028v3.413h51.028v-3.413zM284.533 73.87h-51.028v3.412h51.028V73.87zM360.434 86.588c0 .126-28.42.234-63.46.234-35.058 0-63.469-.108-63.469-.234 0-.125 28.411-.233 63.469-.233 35.049 0 63.46.099 63.46.233zM360.434 94.043c0 .126-28.42.234-63.46.234-35.058 0-63.469-.108-63.469-.234s28.411-.233 63.469-.233c35.049-.01 63.46.098 63.46.233zM360.434 101.49c0 .126-28.42.233-63.46.233-35.058 0-63.469-.107-63.469-.233s28.411-.234 63.469-.234c35.049 0 63.46.108 63.46.234zM360.434 108.945c0 .126-28.42.234-63.46.234-35.058 0-63.469-.108-63.469-.234s28.411-.234 63.469-.234c35.049 0 63.46.108 63.46.234zM360.434 116.4c0 .126-28.42.234-63.46.234-35.058 0-63.469-.108-63.469-.234s28.411-.233 63.469-.233c35.049 0 63.46.107 63.46.233zM283.051 123.855c0 .126-11.093.234-24.773.234s-24.773-.108-24.773-.234 11.093-.233 24.773-.233 24.773.107 24.773.233zM359.509 138.326c0 .126-18.675.234-41.714.234-23.04 0-41.714-.108-41.714-.234 0-.125 18.674-.233 41.714-.233 23.039 0 41.714.099 41.714.233zM359.509 146.24c0 .126-18.675.233-41.714.233-23.04 0-41.714-.107-41.714-.233s18.674-.234 41.714-.234c23.039-.009 41.714.099 41.714.234zM359.509 154.144c0 .126-18.675.234-41.714.234-23.04 0-41.714-.108-41.714-.234s18.674-.233 41.714-.233c23.039 0 41.714.107 41.714.233zM359.509 162.057c0 .126-18.675.234-41.714.234-23.04 0-41.714-.108-41.714-.234 0-.125 18.674-.233 41.714-.233 23.039 0 41.714.108 41.714.233zM218.755 137.563c0 .126-11.138.234-24.863.234-13.734 0-24.863-.108-24.863-.234s11.129-.233 24.863-.233c13.725 0 24.863.107 24.863.233zM218.755 143.779c0 .126-11.138.233-24.863.233-13.734 0-24.863-.107-24.863-.233s11.129-.234 24.863-.234c13.725 0 24.863.108 24.863.234zM218.755 149.994c0 .126-11.138.234-24.863.234-13.734 0-24.863-.108-24.863-.234 0-.125 11.129-.233 24.863-.233 13.725 0 24.863.108 24.863.233zM218.755 156.21c0 .126-11.138.234-24.863.234-13.734 0-24.863-.108-24.863-.234s11.129-.233 24.863-.233c13.725 0 24.863.098 24.863.233zM218.755 162.426c0 .126-11.138.233-24.863.233-13.734 0-24.863-.107-24.863-.233s11.129-.234 24.863-.234c13.725 0 24.863.099 24.863.234zM269.685 134.544h-36.207v35.031h36.207v-35.031z" fill="#455A64"/><path d="M236.28 166.575l10.016-18.019 8.191 11.515 4.986-6.116 7.401 12.62H236.28zM257.981 145.044a2.607 2.607 0 01-2.605 2.605 2.607 2.607 0 01-2.605-2.605 2.607 2.607 0 012.605-2.605 2.607 2.607 0 012.605 2.605z" fill="#FEAC42"/><path d="M266.874 166.674s-.009-.054-.009-.144c0-.108-.009-.243-.009-.404 0-.369-.009-.899-.018-1.581-.009-1.392-.018-3.395-.036-5.946-.018-5.12-.045-12.405-.072-21.154l.144.144c-8.857.009-19.366.018-30.585.027-.045.036.323-.323.171-.171v15.423c-.009 4.904-.009 9.548-.018 13.815l-.153-.153c9.126.036 16.761.054 22.114.081 2.677.018 4.779.027 6.243.036.71.009 1.267.009 1.653.018.18 0 .323.009.431.009h.144s-.045.009-.135.009c-.108 0-.242.009-.413.009-.386 0-.925.009-1.626.018-1.446.009-3.548.018-6.207.035-5.389.018-13.042.045-22.213.072h-.153v-.152c-.009-4.267-.009-8.902-.018-13.815 0-2.452 0-4.976-.009-7.545v-3.899V137.427c-.152.153.207-.215.18-.179 11.228.009 21.728.018 30.585.027h.153v.143c-.036 8.785-.054 16.106-.072 21.243-.018 2.533-.027 4.536-.036 5.92-.009.664-.009 1.185-.018 1.545 0 .161-.009.287-.009.395 0 .117-.009.153-.009.153z" fill="#263238"/><path d="M206.045 61.133h-51.163v49.492h51.163V61.133z" fill="#FEAC42"/><path d="M158.843 106.394l14.156-25.465 11.578 16.276 7.033-8.65 10.465 17.839h-43.232zM185.825 79.654a3.683 3.683 0 100-7.365 3.683 3.683 0 000 7.365z" fill="#FAFAFA"/><path d="M202.075 106.528s-.009-.072-.009-.206c0-.153-.009-.342-.009-.575-.009-.53-.018-1.267-.027-2.228-.009-1.967-.027-4.805-.054-8.407l-.108-29.884.207.206c-12.522.01-27.36.018-43.223.036-.063.054.458-.458.242-.233v11.111c0 3.638 0 7.195-.009 10.662l-.027 19.518-.215-.215 31.249.107c3.782.027 6.755.045 8.812.054 1.006.009 1.787.018 2.335.027.252.009.449.009.602.009.153.018.225.018.234.018 0 0-.063.009-.189.009-.153 0-.341.009-.584.009-.539.009-1.311.018-2.299.027-2.048.009-5.012.036-8.767.054l-31.393.108h-.216v-.216l-.027-19.518c0-3.468 0-7.024-.009-10.662v-5.515V65.227c-.215.216.297-.305.252-.25 15.863.008 30.701.026 43.223.035h.206v.207l-.108 30.019c-.026 3.583-.044 6.404-.053 8.362a301.77 301.77 0 01-.027 2.192c-.009.233-.009.413-.009.557.009.125 0 .188 0 .179z" fill="#FAFAFA"/><path d="M169.137 84.917c2.183-2.56 4.752-5.676 5.884-7.464 2.12-3.332 1.823-3.53 1.401-3.728-1.141-.512-3.943 5.713-4.105 4.007-.162-1.707 4.294-7.195 3.081-7.68-1.581-.638-4.392 5.937-4.671 6.476-.269.52-1.051.135-.781-.341.395-.674 4.41-7.905 2.856-8.543-.862-.35-1.311 1.267-1.311 1.267s-3.261 7.051-3.979 6.719c-.737-.333 1.042-4.536 1.742-5.91.692-1.357.333-2.255-.512-2.076-.575.126-2.811 4.276-3.467 5.65-.656 1.375-2.398 5.183-3.045 2.57-.647-2.615-2.102-4.384-2.82-4.59-.719-.207-1.24.736-.728 1.391.413.53.844 1.626 1.132 2.47.233.692.359 1.42.359 2.147 0 .63-.018 1.186-.054 1.69l-.251 5.344 6.108 4.185 3.161-3.584zM97.234 248.719l6.333 96.901 14.704-1.626s.359-94.458-.332-94.413c-.683.054-20.705-.862-20.705-.862zM65.257 245.934L48.712 342l13.07 1.985 22.904-93.479-19.429-4.572zM86.006 84.388l-.099 33.315 14.291.683.413-8.102s5.075 1.006 6.387-3.71c.835-3.009.628-26.282.628-26.282l-21.62 4.096z" fill="#B78876"/><path d="M110.851 83.58c-.961 1.993-5.551 5.631-5.551 5.631l-2.075 5.551c-1.797-1.41-4.213-1.33-4.67 1.833-.333 2.281 2.505 2.748 2.505 2.748-1.653 2.812-2.775 5.093-5.183 7.761-2.605 2.892-4.069 3.189-6.89 3.234h-3.116s-6.377-5.327-5.12-19.357C82.01 76.95 93.506 79.6 97.638 77.534c.52-.251 16.42-.602 13.213 6.045z" fill="#263238"/><path d="M80.464 93.728c-2.38-1.347-5.596-1.015-7.653.79-2.057 1.797-2.802 4.644-3.305 7.339-.503 2.686-.916 5.524-2.57 7.707-.421.557-.933 1.096-1.077 1.779-.207.988.512 2.03 1.464 2.362.952.341 2.048.063 2.865-.539.818-.602 1.375-1.482 1.788-2.407-.054 1.706 1.751 3.206 3.422 2.856 1.626-.341 2.605-1.994 3.126-3.575.629-1.904.89-3.934.745-5.928-.134-1.842-.592-3.692-.287-5.506.305-1.815 1.734-3.656 3.584-3.575M103.234 94.762s.773 4.158-1.158 4.58c-.854.19-1.842-.251-1.842-.251l-1.94 4.294s-1.24 6.161 2.317 6.898c3.288.683 6.71.234 7.034-4.976l.089-3.764s-2.604.584-2.856-.602c-.251-1.185-.449-9.395-.449-9.395l-1.195 3.216z" fill="#263238"/><path d="M66.622 105.801c.009.054-.485-.098-1.096.369-.287.224-.566.646-.503 1.167.054.503.431 1.087 1.06 1.204.629.126 1.365-.189 1.85-.79.503-.602.835-1.429 1.042-2.309.413-1.778.162-3.835.207-6.009.027-1.087.152-2.174.52-3.162a6.034 6.034 0 011.716-2.47 6.781 6.781 0 014.707-1.635 7.664 7.664 0 013.252.88c.35.19.61.36.781.486.17.125.252.197.243.215-.027.036-.387-.215-1.096-.53a8.03 8.03 0 00-3.18-.718c-1.365-.027-3.054.413-4.41 1.625a5.687 5.687 0 00-1.572 2.309c-.332.925-.458 1.958-.485 3.018-.045 2.12.197 4.213-.252 6.09-.233.925-.593 1.796-1.167 2.461-.557.674-1.447 1.051-2.22.862-.799-.179-1.22-.907-1.248-1.5a1.497 1.497 0 01.647-1.329c.719-.476 1.24-.234 1.204-.234zM103.593 83.704c.009-.035.287.045.799.054a4.048 4.048 0 002.048-.476c.781-.404 1.527-1.284 1.689-2.434a2.958 2.958 0 00-.243-1.742c-.26-.566-.718-1.06-1.275-1.429-1.132-.754-2.497-.88-3.683-.772-1.195.108-2.264.404-3.162.629-1.796.485-2.964.575-2.973.512 0-.036.278-.1.772-.225a48.856 48.856 0 002.102-.602c.89-.26 1.958-.602 3.207-.736 1.231-.135 2.722-.027 3.979.808.62.404 1.141.97 1.437 1.617.306.647.369 1.374.261 2.012-.216 1.302-1.096 2.263-1.967 2.668-.881.422-1.689.44-2.21.359-.53-.072-.79-.216-.781-.243z" fill="#263238"/><path d="M81.47 102.711s.135-.009.395-.009c.26-.018.647-.027 1.132-.134.96-.198 2.326-.764 3.647-1.941 1.338-1.167 2.515-2.946 3.7-4.967 1.204-1.985 2.533-4.33 4.815-5.901 2.308-1.545 4.994-1.841 7.266-2.3 2.3-.422 4.357-1.06 5.767-2.146 1.41-1.078 2.111-2.408 2.335-3.36.234-.97.099-1.527.135-1.527 0 0 .153.557-.063 1.545-.206.97-.907 2.345-2.326 3.45-1.419 1.122-3.512 1.778-5.812 2.21-2.281.466-4.94.772-7.195 2.28-2.236 1.546-3.556 3.854-4.77 5.84-1.194 2.011-2.397 3.799-3.763 4.975-1.347 1.186-2.748 1.743-3.727 1.914-.98.188-1.536.071-1.536.071z" fill="#fff"/><path d="M82.862 106.241s.1-.072.288-.189c.197-.116.467-.296.826-.53a20.18 20.18 0 002.794-2.299 19.114 19.114 0 003.242-4.249c1.006-1.742 1.734-3.907 3.26-5.73 1.555-1.842 3.818-2.605 5.75-3.117 1.967-.512 3.745-.898 5.146-1.527 1.411-.593 2.408-1.366 2.973-1.994.575-.63.782-1.07.8-1.051 0 0-.189.449-.746 1.105-.557.655-1.563 1.446-2.973 2.066-1.401.646-3.197 1.06-5.156 1.571-1.922.53-4.132 1.276-5.65 3.072-1.5 1.779-2.236 3.935-3.251 5.695a19.075 19.075 0 01-3.306 4.258 18.763 18.763 0 01-2.847 2.263c-.719.458-1.15.656-1.15.656zM73.476 112.726c-.018-.009.197-.269.458-.799.26-.53.548-1.347.629-2.407.099-1.051-.036-2.318-.324-3.692-.27-1.374-.7-2.874-.826-4.509-.126-1.626.108-3.252.89-4.464.772-1.222 1.957-1.914 2.972-2.219a5.387 5.387 0 012.515-.17c.593.116.89.269.89.269-.01.027-.315-.108-.899-.198a5.425 5.425 0 00-2.46.225c-.989.314-2.13 1.006-2.866 2.182-.746 1.177-.98 2.767-.853 4.366.125 1.608.547 3.108.808 4.491.278 1.383.395 2.668.278 3.737-.098 1.068-.404 1.904-.691 2.425-.288.53-.521.763-.521.763z" fill="#fff"/><path d="M67.646 113.598c-.009-.036.413.098.98-.297.565-.377 1.077-1.248 1.463-2.389.395-1.141.665-2.56.818-4.15.161-1.59.215-3.359.503-5.201.287-1.832.88-3.557 1.823-4.886.925-1.338 2.2-2.21 3.395-2.524 1.186-.35 2.219-.225 2.866-.018.655.216.952.458.952.458-.01.018-.323-.198-.97-.386-.638-.18-1.653-.279-2.803.072-1.159.323-2.389 1.185-3.287 2.497-.916 1.302-1.491 3-1.779 4.814-.287 1.824-.35 3.584-.52 5.183-.162 1.599-.44 3.036-.863 4.177-.404 1.141-.943 2.03-1.545 2.398-.62.404-1.05.243-1.033.252z" fill="#fff"/><path d="M80.516 96.702c-.125.018-.34-.826-.485-1.886-.098-.764-.134-1.437-.098-1.752l.09.09c.062-.045 0-.027 0-.018-.019.01-.01.036-.01.054 0 .018-.035.036-.08-.009-.027-.027-.1-.17.107-.225l.054-.017.045.098c.117.288.26.943.36 1.716.143 1.06.152 1.931.017 1.95zM71.653 190.559l-14.588 72.46 26.534 4.509 9.557-51.989 4.078 51.989 24.567-3.485-6.297-77.122-43.851 3.638z" fill="#FEAC42"/><path d="M107.797 214.586c0 .036-.404.081-1.141.144-.826.063-1.877.144-3.116.234-2.632.197-6.261.476-10.267.871a412.94 412.94 0 00-10.24 1.15c-1.24.152-2.273.278-3.099.377-.736.081-1.14.117-1.15.081-.009-.036.395-.126 1.123-.261a76.724 76.724 0 013.081-.521c2.614-.404 6.234-.889 10.24-1.293 4.015-.395 7.653-.629 10.294-.737a85.507 85.507 0 013.125-.089c.746 0 1.15.017 1.15.044z" fill="#263238"/><path d="M118.98 229.497c.027.323 3.827 6.09 3.827 6.09l-1.913.853s4.15 5.731-.279 13.097l-1.635-20.04zM65.554 225.24c-.323.215-4.689 7.033-4.689 7.033h.853s-5.102 6.575-1.113 13.15l4.949-20.183z" fill="#FEAC42"/><g opacity=".2"><path opacity=".2" d="M118.98 229.497c.027.323 3.827 6.09 3.827 6.09l-1.913.853s4.15 5.731-.279 13.097l-1.635-20.04zM65.554 225.24c-.323.215-4.689 7.033-4.689 7.033h.853s-5.102 6.575-1.113 13.15l4.949-20.183z" fill="#000"/></g><path d="M121.739 259.48c0 .036-.342.099-.961.198-.728.099-1.608.225-2.641.368-2.345.324-5.372.737-8.722 1.195-3.342.494-6.369.943-8.713 1.284-1.033.153-1.913.279-2.64.387-.63.08-.97.116-.98.08-.009-.035.333-.125.952-.26.62-.135 1.51-.323 2.623-.53 2.219-.422 5.291-.934 8.695-1.428 3.404-.485 6.503-.844 8.749-1.06 1.123-.108 2.03-.18 2.659-.225.619-.036.97-.045.979-.009zM84.013 264.295c-.01.026-.378-.027-1.042-.162-.755-.162-1.689-.359-2.794-.593l-9.198-1.985c-3.548-.737-6.754-1.41-9.215-1.922-1.105-.234-2.04-.431-2.794-.593-.656-.153-1.015-.243-1.015-.279.01-.036.377.009 1.042.099.665.09 1.635.243 2.82.449 2.38.405 5.65 1.024 9.252 1.788a245.37 245.37 0 019.18 2.12c1.168.296 2.111.548 2.758.736.655.189 1.006.306 1.006.342zM90.893 217.461c-.126-.027-.162-.341-.09-.709.081-.36.243-.638.368-.611.126.027.162.341.09.71-.08.368-.242.637-.368.61zM89.743 222.769c-.126-.027-.099-.646.063-1.374.162-.736.386-1.302.512-1.275.126.027.099.646-.063 1.374-.153.736-.386 1.302-.512 1.275zM88.594 228.087c-.126-.027-.1-.647.063-1.375.161-.736.386-1.302.511-1.275.126.027.1.647-.062 1.374-.162.728-.387 1.303-.512 1.276zM87.443 233.396c-.126-.027-.099-.647.063-1.374.162-.737.386-1.303.512-1.276.126.027.099.647-.063 1.374-.162.728-.386 1.303-.512 1.276zM86.285 238.703c-.126-.026-.099-.646.063-1.374.162-.736.386-1.302.512-1.275.126.027.099.646-.063 1.374-.153.728-.386 1.302-.512 1.275zM85.135 244.013c-.126-.027-.1-.647.063-1.374.161-.737.386-1.303.512-1.276.125.027.098.647-.063 1.375-.153.736-.387 1.311-.512 1.275zM83.986 249.33c-.126-.027-.099-.646.063-1.374.162-.736.386-1.302.512-1.275.126.027.099.646-.063 1.374-.153.727-.386 1.302-.512 1.275zM82.836 254.639c-.126-.027-.099-.647.063-1.374.161-.737.386-1.303.512-1.276.125.027.099.647-.063 1.374-.153.728-.386 1.303-.512 1.276zM81.685 259.948c-.125-.027-.098-.647.063-1.374.162-.737.386-1.303.512-1.276.126.027.1.647-.063 1.375-.152.736-.386 1.302-.512 1.275z" fill="#263238"/><path d="M80.824 263.926c-.126-.027-.162-.341-.09-.709.08-.36.242-.638.368-.611.126.027.162.341.09.709-.072.36-.242.638-.368.611zM113.898 193.64c-.126.009-.252-.288-.279-.656-.027-.368.063-.683.189-.692.125-.009.251.288.278.656.018.368-.063.683-.188.692zM114.257 198.903c-.126.009-.279-.575-.324-1.303-.054-.727.009-1.32.144-1.329.126-.009.278.575.323 1.303.045.718-.018 1.32-.143 1.329zM114.634 204.158c-.126.009-.279-.575-.332-1.303-.054-.727.009-1.32.134-1.329.126-.009.279.575.333 1.302.054.728 0 1.321-.135 1.33zM115.038 209.422c-.126.009-.279-.575-.333-1.294-.054-.727 0-1.32.135-1.329.126-.009.278.575.332 1.293.054.728-.009 1.321-.134 1.33zM115.46 214.685c-.126.009-.279-.566-.342-1.293-.062-.728 0-1.321.126-1.33.126-.009.279.566.341 1.294.054.718 0 1.311-.125 1.329zM115.901 219.94c-.126.009-.288-.566-.342-1.293-.063-.728-.009-1.321.126-1.339.126-.009.288.566.341 1.294.054.727 0 1.329-.125 1.338zM116.358 225.194c-.126.009-.287-.565-.35-1.293s-.009-1.32.117-1.338c.125-.009.287.565.35 1.293s.009 1.329-.117 1.338zM116.843 230.449c-.125.009-.287-.566-.35-1.294-.063-.727-.018-1.32.108-1.338.126-.009.287.566.35 1.293.063.728.018 1.33-.108 1.339zM117.338 235.704c-.126.008-.288-.566-.36-1.294-.071-.728-.017-1.32.108-1.338.126-.018.288.566.36 1.293.071.728.027 1.321-.108 1.339zM117.859 240.949c-.126.009-.288-.566-.369-1.293-.072-.728-.027-1.321.099-1.339.126-.008.288.566.368 1.294.072.728.027 1.329-.098 1.338zM118.398 246.204c-.126.009-.297-.565-.369-1.284-.071-.728-.035-1.32.099-1.338.126-.009.297.566.369 1.284.071.719.035 1.321-.099 1.338zM118.964 251.449c-.126.018-.297-.565-.377-1.284-.081-.728-.036-1.32.089-1.338.126-.018.297.565.378 1.284.071.719.036 1.32-.09 1.338zM119.538 256.686c-.126.018-.296-.557-.377-1.284-.081-.728-.045-1.321.09-1.339.134-.018.296.557.377 1.285.081.727.036 1.329-.09 1.338zM119.987 260.647c-.126.018-.27-.269-.306-.646-.045-.369.027-.683.153-.692.126-.018.27.269.306.647.044.368-.027.682-.153.691z" fill="#263238"/><path d="M48.963 339.162l2.39-12.504 14.416 2.533-3.476 12.737-13.33-2.766z" fill="#F0F0F0"/><path d="M48.963 339.162l-2.219 9.88 15.297 1.886.548-9.79-13.626-1.976z" fill="#455A64"/><path d="M55.87 339.648c.126.018-.099 2.048-.503 4.536-.404 2.488-.835 4.482-.961 4.464-.126-.018.099-2.048.503-4.536.404-2.488.835-4.491.961-4.464z" fill="#263238"/><path d="M62.104 349.85c-.017.063-.853-.063-2.218-.278-1.518-.243-3.324-.539-5.309-.863-2.075-.341-3.943-.691-5.29-.997-1.348-.296-2.165-.539-2.156-.602.018-.062.853.063 2.219.279 1.518.242 3.323.539 5.308.862 2.075.342 3.943.692 5.29.997 1.348.306 2.165.548 2.156.602zM65.203 331.257c-.01.063-.818-.027-2.111-.224-1.293-.207-3.072-.53-5.04-.908-1.867-.359-3.565-.682-5.02-.961-1.285-.251-2.075-.413-2.066-.476.009-.063.817-.009 2.12.153 1.302.162 3.09.449 5.057.826 1.967.377 3.727.755 5.012 1.042 1.275.279 2.057.485 2.048.548z" fill="#263238"/><path d="M64.61 332.802c-.008.063-.816-.018-2.101-.197a183.57 183.57 0 01-5.003-.8c-1.95-.341-3.71-.673-4.985-.934-1.276-.26-2.057-.458-2.048-.521.009-.063.808.018 2.093.198a189.694 189.694 0 0110.006 1.733c1.266.27 2.048.459 2.039.521z" fill="#FEAC42"/><path d="M103.602 347.704c-.171-1.105-.953-16.133-.953-16.133l15.998-1.23.557 15.548-15.602 1.815z" fill="#F0F0F0"/><path d="M120.381 347.353l-.233-1.761-16.545 2.111.7 5.794 1.033-.063c4.581-.315 23.255-1.931 26.175-3.234 3.26-1.446-11.13-2.847-11.13-2.847z" fill="#455A64"/><path d="M110.259 352.626a5.736 5.736 0 00-2.542-3.251c-1.213-.719-2.623-.997-3.997-.719l.575 4.608 5.964-.638z" fill="#455A64"/><path d="M127.442 348.287s5.084.8 4.572 1.689c-.512.88-19.321 3.224-27.711 3.53l-.018-.368 21.962-2.542c0-.009.242-2.156 1.195-2.309z" fill="#455A64"/><path d="M104.024 353.156c0 .009.099.009.288-.009.242-.018.512-.036.817-.054a475.02 475.02 0 003.009-.243 297.72 297.72 0 0019.779-2.452c1.177-.198 2.174-.359 2.982-.494.297-.054.566-.108.809-.153.189-.036.278-.063.278-.063 0-.009-.098 0-.287.027-.243.036-.512.072-.817.108l-2.992.431a450.719 450.719 0 01-19.77 2.444c-1.185.116-2.191.224-3 .305-.305.036-.575.063-.817.09-.18.036-.279.054-.279.063z" fill="#263238"/><path d="M126.273 350.848c.063 0 .018-.719.378-1.5.35-.782.916-1.231.88-1.276-.018-.045-.683.351-1.06 1.195-.386.835-.242 1.599-.198 1.581zM121.11 348.979c.054.027.251-.288.44-.701.198-.404.305-.763.26-.781-.053-.027-.251.287-.44.7-.197.414-.314.764-.26.782zM119.681 348.44c.044.036.278-.17.53-.458.251-.287.422-.557.377-.593-.045-.036-.279.171-.53.458-.243.297-.413.557-.377.593zM118.649 346.993c.009.054.395.054.871 0 .476-.053.853-.143.853-.197-.009-.054-.395-.054-.871 0s-.862.144-.853.197zM118.227 345.934c-.009.054.431.188.997.161.566-.027.988-.206.97-.251-.018-.054-.449.027-.988.054-.53.018-.97-.018-.979.036z" fill="#263238"/><path d="M121.486 347.479c0 .027.414.018 1.06-.135a6.523 6.523 0 001.096-.386c.198-.099.404-.18.611-.35a.595.595 0 00.224-.36c.027-.161-.08-.332-.215-.404-1.078-.395-2.021.296-2.327.862-.17.297-.233.566-.26.746-.018.188 0 .287.009.287.036.009.018-.422.368-.961.171-.26.449-.53.836-.7.359-.162.889-.252 1.275-.072.18.107.144.305-.027.44-.162.135-.377.233-.566.332a7.796 7.796 0 01-1.051.422c-.637.189-1.033.243-1.033.279z" fill="#263238"/><path d="M121.765 347.497c.018.009.135-.279.027-.755a1.68 1.68 0 00-.386-.736c-.216-.216-.495-.503-.953-.431-.242.063-.323.359-.269.53.045.179.144.332.242.449.189.242.396.44.584.575.369.287.647.377.656.35.018-.027-.234-.162-.566-.458a3.83 3.83 0 01-.521-.584c-.171-.207-.323-.593-.063-.674.261-.054.566.171.755.36.197.206.314.44.386.646.135.432.072.719.108.728zM103.8 348.602c.009.036.467-.108 1.222-.108a5.345 5.345 0 012.793.764 5.355 5.355 0 011.95 2.137c.341.674.422 1.15.458 1.141.009 0 0-.126-.045-.332a4.55 4.55 0 00-.288-.863 5.09 5.09 0 00-1.976-2.245 5.127 5.127 0 00-2.901-.737 4.54 4.54 0 00-.907.135c-.198.054-.315.099-.306.108zM112.136 350.766c0 .054 1.096.099 2.434-.063 1.338-.152 2.398-.44 2.389-.494-.009-.054-1.078.144-2.407.297-1.338.152-2.416.197-2.416.26z" fill="#263238"/><path d="M108.903 351.161c-.036.045.117.216.26.449.144.234.225.44.288.431.054-.008.054-.269-.117-.538-.162-.27-.404-.387-.431-.342zM107.501 349.796c-.036.045.09.197.288.35.188.153.377.243.413.198.036-.045-.09-.198-.288-.351-.197-.152-.386-.242-.413-.197zM105.669 349.32c.018.054.233.027.494.081.251.045.44.162.485.117.045-.036-.126-.252-.44-.315-.323-.062-.557.072-.539.117zM104.394 349.15c-.018.054.089.126.233.162.144.035.27.017.288-.036.018-.054-.09-.126-.234-.162-.144-.036-.278-.018-.287.036zM118.441 332.991c.009.125-3.539.413-7.922.628-4.384.216-7.941.288-7.95.162-.009-.126 3.539-.413 7.923-.629 4.383-.215 7.94-.296 7.949-.161z" fill="#263238"/><path d="M118.442 334.949c.009.125-3.486.44-7.797.691-4.312.252-7.815.36-7.824.225-.009-.126 3.485-.44 7.797-.692 4.311-.251 7.815-.35 7.824-.224z" fill="#FEAC42"/><path d="M69.398 158.689l1.032 19.788.171 17.318 45.585-3.332-1.958-31.869c-.296-7.456-.44-15.225-.62-22.106 3.117-1.176 32.058-12.135 34.052-12.422 2.102-.297 21.055-35.355 21.055-35.355.602-4.203-10.806-6.898-10.806-6.898s-17.704 26.713-19.204 28.213-29.228 4.42-29.228 4.42c-8.516-1.923-30.073-2.228-35.274 1.599-.018-.009-11.812 5.811-4.805 40.644z" fill="#455A64"/><path d="M141.184 118.035c-.116.063-.844-1.231-1.446-2.928-.602-1.698-1.14-3.027-1.042-3.081.117-.063.845 1.23 1.446 2.928.602 1.689 1.141 3.027 1.042 3.081z" fill="#263238"/><path d="M143.169 115.763c-.081.072-1.096-.719-2.371-1.698-1.285-.979-2.201-1.949-2.102-2.039.081-.072 1.096.719 2.371 1.698 1.285.979 2.201 1.949 2.102 2.039zM114.004 116.059c.009.08-1.069.08-2.668.628-1.58.521-3.7 1.734-5.191 3.818-1.491 2.093-1.94 4.491-1.923 6.153.009 1.688.36 2.712.279 2.73-.027.009-.135-.233-.27-.7a9.234 9.234 0 01-.314-2.021c-.099-1.716.314-4.222 1.877-6.414 1.563-2.191 3.8-3.395 5.453-3.862.835-.243 1.527-.341 2.012-.359.485-.027.745 0 .745.027zM100.395 115.422c0 .116-3.242.242-7.257.269-4.007.027-7.258-.045-7.258-.161 0-.117 3.243-.243 7.258-.27 4.006-.027 7.248.045 7.257.162zM93.424 132.398c.018-.009.117.234.324.683.206.44.494 1.132 1.158 1.778.333.306.782.593 1.312.692.539.117 1.132-.054 1.644-.449.52-.386.979-.952 1.643-1.383.683-.423 1.572-.575 2.426-.378a3.968 3.968 0 012.29 1.438c.593.772.835 1.814.728 2.838a4.969 4.969 0 01-1.303 2.856c-.763.809-1.751 1.321-2.694 1.896-.935.556-1.869 1.23-2.291 2.254-.422 1.024-.332 2.219-.431 3.44-.045.611-.162 1.249-.431 1.851a4.268 4.268 0 01-1.204 1.536c-1.015.844-2.488 1.167-3.781.763a4.37 4.37 0 01-1.743-.988c-.494-.467-.826-1.042-1.123-1.599-.566-1.096-1.078-2.308-2.164-2.614-1.07-.305-2.22.306-3.459.279-1.275-.027-2.389-.862-2.865-1.958-.494-1.114-.207-2.408.503-3.27a3.05 3.05 0 011.338-.952c.494-.198.997-.296 1.464-.422.468-.126.917-.27 1.276-.521.35-.252.593-.62.683-1.033.161-.835-.162-1.698-.306-2.533-.377-1.734.422-3.359 1.464-4.222 1.07-.916 2.363-1.042 3.288-.889a4.105 4.105 0 011.985.88c.386.324.52.548.52.548-.017.018-.188-.188-.583-.476a4.288 4.288 0 00-1.958-.772c-.898-.126-2.111.036-3.09.907-.97.835-1.689 2.353-1.311 3.961.143.808.502 1.671.332 2.668-.09.494-.395.961-.817 1.266-.423.297-.917.458-1.393.593-.952.261-1.976.458-2.587 1.258-.62.754-.853 1.895-.43 2.838.412.934 1.41 1.671 2.487 1.68 1.087.045 2.246-.62 3.575-.27.656.18 1.177.665 1.536 1.195.368.53.629 1.105.916 1.653.288.548.593 1.069 1.024 1.473.431.404.97.709 1.554.88a3.636 3.636 0 003.36-.674 3.673 3.673 0 001.069-1.365c.233-.521.34-1.105.395-1.698.099-1.167 0-2.416.476-3.575.485-1.167 1.536-1.895 2.479-2.452.961-.566 1.922-1.069 2.614-1.805a4.604 4.604 0 001.212-2.614c.108-.934-.107-1.886-.628-2.578-.521-.701-1.294-1.15-2.075-1.329-.782-.189-1.581-.063-2.2.305-.62.386-1.088.943-1.645 1.338-.548.423-1.248.602-1.841.459a2.929 2.929 0 01-1.392-.782c-.674-.701-.934-1.419-1.114-1.868a8.864 8.864 0 01-.189-.53c-.018-.135-.036-.198-.027-.207zM115.315 172.683c0 .009-.126.054-.386.09a3.774 3.774 0 01-1.15-.054 4.032 4.032 0 01-1.662-.755c-.592-.422-1.068-1.14-1.464-1.922-.422-.763-.808-1.698-1.599-2.236-.817-.575-1.913-.261-3.062-.036-.575.107-1.249.152-1.869-.063a3.39 3.39 0 01-1.599-1.15 3.056 3.056 0 01-.628-1.949c.027-.71.287-1.401.745-1.967.44-.575 1.123-.934 1.77-1.123.646-.198 1.275-.305 1.832-.539.548-.216.979-.62 1.123-1.141.153-.521.054-1.105-.063-1.661-.117-.566-.27-1.123-.296-1.707a4.04 4.04 0 01.26-1.653 4.413 4.413 0 011.859-2.281 4.087 4.087 0 012.363-.548c.718.054 1.311.26 1.751.503.44.242.737.494.916.691.18.189.252.306.243.315-.036.036-.368-.422-1.249-.845a4.33 4.33 0 00-1.688-.404 3.8 3.8 0 00-2.174.566 4.083 4.083 0 00-1.671 2.129 3.814 3.814 0 00-.215 1.5c.027.521.188 1.06.314 1.635.126.566.252 1.212.072 1.877-.171.674-.755 1.204-1.374 1.446-1.222.503-2.632.494-3.414 1.527-.799.97-.862 2.416-.116 3.351.35.467.844.826 1.374 1.006.53.188 1.096.161 1.653.062.557-.089 1.122-.242 1.697-.278.575-.045 1.186.09 1.653.413.934.665 1.285 1.653 1.68 2.407.386.791.799 1.447 1.338 1.869a3.927 3.927 0 001.545.781c.943.225 1.491.09 1.491.144zM73.16 118.557c.037-.054.387.485 1.357.79a1.934 1.934 0 001.707-.323c.602-.387 1.096-1.105 1.958-1.59.871-.476 2.057-.503 3.099-.009.52.242 1.015.602 1.401 1.078.386.485.656 1.087.764 1.724.215 1.285-.162 2.695-1.024 3.8-.898 1.123-2.237 1.706-3.405 2.461-.583.377-1.122.799-1.49 1.338-.378.53-.558 1.159-.647 1.797-.162 1.284-.01 2.632-.485 3.862a4.265 4.265 0 01-2.578 2.461c-1.096.378-2.237.207-3.1-.206-.853-.44-1.553-1.051-1.787-1.842-.197-.772-.027-1.419-.036-1.922.027-.512-.143-.871-.359-1.033-.197-.17-.35-.206-.341-.233 0 0 .152 0 .395.161.252.144.485.566.485 1.105.036.53-.09 1.177.108 1.851.206.646.88 1.239 1.68 1.616.808.369 1.85.503 2.829.144a3.854 3.854 0 002.3-2.246c.413-1.104.269-2.407.43-3.772.081-.683.288-1.401.72-2.012.421-.611 1.014-1.069 1.616-1.455 1.212-.773 2.497-1.348 3.296-2.354.79-.997 1.15-2.29.962-3.44a3.376 3.376 0 00-.656-1.536 3.677 3.677 0 00-1.249-.988c-.934-.458-2.003-.458-2.775-.045-.782.413-1.312 1.114-1.967 1.518-.647.44-1.402.467-1.905.279a2.854 2.854 0 01-1.042-.638c-.188-.207-.269-.332-.26-.341zM129.847 119.167c.036-.009.18.315.459.889.287.548.7 1.438 1.67 1.968.467.251 1.087.377 1.653.143.584-.215 1.06-.754 1.635-1.266.557-.53 1.401-.961 2.29-.934.881 0 1.779.314 2.497.907.728.584 1.177 1.455 1.312 2.317.143.863-.009 1.716-.288 2.452a5 5 0 01-1.257 1.833c-.53.467-1.114.772-1.644 1.006-1.069.44-1.904.808-2.362 1.239-.467.423-.62.746-.665.719-.018-.009.018-.09.09-.243.072-.152.215-.368.44-.61.449-.494 1.32-.935 2.344-1.402.512-.242 1.042-.548 1.518-.988a4.672 4.672 0 001.123-1.706c.252-.674.368-1.455.243-2.219a3.265 3.265 0 00-1.159-2.03 3.594 3.594 0 00-2.201-.808c-.781-.018-1.464.305-2.012.808-.557.476-1.078 1.042-1.787 1.303-.71.269-1.446.08-1.949-.216-1.069-.638-1.438-1.608-1.68-2.183-.207-.62-.297-.97-.27-.979zM153.103 91.241c.027.018-.144.332-.44.898-.27.557-.737 1.428-.575 2.515.081.53.341 1.096.871 1.42.521.332 1.24.404 1.994.556.764.126 1.608.548 2.12 1.276.53.71.808 1.617.763 2.542-.036.934-.467 1.814-1.068 2.434-.611.629-1.384 1.015-2.138 1.231a4.974 4.974 0 01-2.228.081c-.692-.144-1.284-.432-1.787-.719-.997-.593-1.779-1.042-2.399-1.159-.61-.126-.97-.054-.979-.099 0-.018.081-.036.252-.071.17-.027.422-.045.754-.009.665.062 1.536.503 2.524 1.042.503.26 1.069.512 1.698.628a4.673 4.673 0 002.039-.116c.692-.207 1.383-.566 1.922-1.132.539-.557.907-1.312.934-2.138a3.63 3.63 0 00-.664-2.255c-.449-.637-1.123-.988-1.842-1.131-.709-.162-1.482-.243-2.111-.656-.637-.404-.925-1.105-.988-1.698-.125-1.23.432-2.11.746-2.65.359-.53.584-.808.602-.79z" fill="#263238"/><path d="M125.276 134.095c-.018.027-.332-.125-.943-.449l.018.009c-.503-.17-1.24-.09-2.147.135-.458.099-.97.225-1.554.207a3.119 3.119 0 01-1.733-.638 3.194 3.194 0 01-1.177-1.698 3.143 3.143 0 01.242-2.236c.342-.71.997-1.33 1.788-1.599.772-.297 1.59-.395 2.29-.71.45-.206.8-.53.962-.961.17-.422.134-.907.062-1.383-.17-.943-.512-1.94-.341-2.919.296-1.95 1.806-3.306 3.234-3.593a4.302 4.302 0 013.26.592c.342.216.557.441.701.584.135.162.198.252.18.261-.036.036-.306-.315-.971-.692-.646-.359-1.778-.745-3.089-.422-1.285.296-2.641 1.572-2.884 3.332-.143.872.18 1.77.369 2.785.08.503.134 1.078-.072 1.626-.198.557-.683.988-1.195 1.221-.799.36-1.617.449-2.317.719a2.7 2.7 0 00-1.554 1.374c-.315.611-.396 1.321-.234 1.931.162.62.548 1.141 1.006 1.5.458.36 1.006.566 1.518.602.521.027 1.015-.063 1.473-.152.907-.189 1.734-.243 2.255-.009l.009.009c.566.35.862.547.844.574zM95.231 193.998c-.009.009-.072-.17.036-.467.099-.296.36-.709.862-1.051.512-.332 1.249-.485 2.075-.521.818-.054 1.779 0 2.704-.35a3.909 3.909 0 002.201-2.237c.404-1.077.26-2.452-.494-3.512-.746-1.086-2.147-1.572-3.44-2.353-.647-.395-1.294-.934-1.662-1.68-.395-.727-.521-1.545-.611-2.335-.153-1.581-.17-3.144-1.051-4.303-.817-1.158-2.165-1.895-3.45-1.823-1.284.072-2.406.943-2.891 1.967a2.739 2.739 0 00-.252 1.608c.08.53.27 1.042.404 1.554.135.512.198 1.051.054 1.536a2.35 2.35 0 01-.781 1.141c-.683.548-1.447.673-2.021.718a7.834 7.834 0 01-1.339-.054c-.305-.036-.458-.063-.458-.081 0-.053.647.045 1.788-.044.557-.063 1.266-.216 1.868-.737.296-.252.557-.593.665-1.015.108-.422.054-.889-.081-1.374-.135-.485-.341-.997-.44-1.581a3.089 3.089 0 01.26-1.824c.53-1.158 1.743-2.128 3.216-2.236 1.464-.09 2.946.718 3.853 1.985.458.629.755 1.401.89 2.183.143.781.18 1.563.26 2.344.08.772.216 1.527.557 2.165.323.646.88 1.122 1.5 1.5 1.213.754 2.704 1.257 3.557 2.488.835 1.186.97 2.704.503 3.898a4.241 4.241 0 01-2.452 2.407c-1.033.369-2.003.27-2.812.306-.817.009-1.509.135-1.994.413-.476.287-.745.656-.862.925-.17.27-.144.44-.162.44z" fill="#263238"/><path d="M88.8 194.465c-.028 0-.09-.251-.055-.709.01-.459.27-1.105.216-1.842a1.717 1.717 0 00-.512-1.042c-.296-.296-.746-.485-1.23-.62-.495-.134-1.043-.215-1.617-.386a4.24 4.24 0 01-1.644-.898c-.97-.853-1.5-2.066-1.51-3.189a4.145 4.145 0 01.98-2.712 4.21 4.21 0 011.545-1.168c.43-.171.682-.189.691-.171.045.081-1.024.288-1.976 1.536-.458.611-.844 1.5-.808 2.497.027.997.52 2.084 1.383 2.848.853.817 2.021.916 3.063 1.212.521.153 1.033.378 1.392.764.36.377.54.853.566 1.284.018.44-.08.809-.17 1.114-.09.305-.153.566-.198.781-.072.45-.072.701-.117.701zM68.858 155.824s.171-.251.674-.494c.252-.117.61-.207 1.024-.117.413.09.835.351 1.186.773l.009.009.009.018c.35.817.71 1.913 1.652 2.65.467.35 1.087.601 1.707.485.629-.108 1.159-.611 1.707-1.123.53-.521 1.275-1.069 2.164-1.141a3.933 3.933 0 012.542.638 3.698 3.698 0 011.581 2.254c.225.934.117 1.941-.26 2.848a4.93 4.93 0 01-1.276 1.814c-.548.485-1.158.853-1.742 1.204-1.168.673-2.327 1.338-2.857 2.407-.538 1.06-.449 2.282-.538 3.395-.054 1.114-.369 2.228-1.025 2.973a4.193 4.193 0 01-2.2 1.384c-.737.188-1.491.143-1.94-.216-.44-.341-.656-.7-.818-.925-.161-.225-.233-.35-.224-.359.009-.009.117.099.296.305.189.198.44.548.853.835.414.297 1.07.315 1.77.117a3.912 3.912 0 002.012-1.338c.593-.71.853-1.689.89-2.785.08-1.078-.055-2.344.538-3.566 1.258-2.506 4.833-2.667 5.839-5.416.341-.826.44-1.734.233-2.56a3.234 3.234 0 00-1.383-1.985c-.674-.458-1.491-.665-2.246-.584-.772.054-1.383.494-1.94 1.006-.548.494-1.14 1.06-1.913 1.195-.773.126-1.473-.189-1.976-.584-1.033-.862-1.347-2.003-1.67-2.829l.017.026c-.287-.377-.665-.637-1.024-.727a1.457 1.457 0 00-.934.054c-.503.17-.719.386-.737.359z" fill="#263238"/><path d="M149.018 78.055c.988.234 1.85.97 2.236 1.913a8.634 8.634 0 015.668-1.859c-.153 1.177-.97 2.174-1.904 2.91-.934.737-2.003 1.285-2.946 2.012-.944.728-1.779 1.698-1.959 2.875" fill="#B78876"/><path d="M439.02 350.345l-.746-7.303 13.68-1.482 1.204 10.68-.844.144c-3.755.62-19.115 2.874-21.729 2.389-2.901-.548 8.435-4.428 8.435-4.428z" fill="#FEAC42"/><path d="M448.183 352.671a4.79 4.79 0 011.428-3.108c.835-.808 1.922-1.311 3.09-1.338l.413 3.826-4.931.62z" fill="#FEAC42"/><path d="M433.505 352.447s-3.944 1.616-3.369 2.227c.584.62 16.195-1.087 23.022-2.434l-.054-.305-18.198 2.137s-.602-1.679-1.401-1.625z" fill="#FEAC42"/><path d="M453.311 351.898c0 .009-.081.027-.234.054-.197.036-.422.072-.674.117-.673.099-1.5.225-2.47.377-2.093.306-4.985.683-8.192 1.042-3.206.351-6.116.602-8.218.764-.988.063-1.815.126-2.497.17-.252.009-.476.027-.683.036-.153.009-.234.009-.234 0s.081-.018.234-.036c.207-.018.422-.044.674-.062.673-.063 1.509-.135 2.488-.225 2.102-.189 5.012-.458 8.218-.808 3.207-.351 6.099-.719 8.192-.988.979-.126 1.806-.234 2.479-.324.252-.027.477-.063.674-.081.162-.027.243-.036.243-.036z" fill="#263238"/><path d="M434.933 354.288c-.054.009-.153-.575-.593-1.132-.431-.566-.979-.817-.952-.862.009-.045.619.152 1.087.754.467.602.494 1.24.458 1.24zM438.742 351.8c-.036.027-.252-.189-.485-.476-.234-.297-.395-.557-.359-.584.036-.027.251.189.485.476.233.297.395.557.359.584zM439.784 351.09c-.027.036-.261-.081-.521-.269-.261-.189-.449-.368-.423-.404.027-.036.261.08.521.269.261.189.45.368.423.404zM440.349 349.725c.009.045-.305.126-.7.171-.396.045-.719.045-.728 0-.009-.045.305-.117.701-.171.395-.045.718-.045.727 0zM440.484 348.791c.018.036-.315.234-.773.315-.458.089-.835.027-.835-.018s.368-.063.799-.144c.45-.081.791-.198.809-.153z" fill="#263238"/><path d="M438.149 350.659c0 .018-.333.099-.881.09-.278 0-.601-.036-.961-.108-.179-.045-.359-.072-.557-.161a.491.491 0 01-.251-.252c-.054-.126 0-.287.099-.368.79-.53 1.688-.144 2.048.251.197.207.296.413.35.557.054.144.054.234.045.234-.027.018-.099-.342-.485-.71a1.607 1.607 0 00-.8-.404c-.323-.054-.763-.036-1.042.188-.125.117-.053.279.108.351.153.081.351.117.521.161.342.081.665.117.934.135.53.045.872.009.872.036z" fill="#263238"/><path d="M437.925 350.722c-.009.009-.162-.197-.171-.602a1.4 1.4 0 01.171-.664c.134-.216.305-.503.682-.53.207 0 .333.224.315.377a1 1 0 01-.108.413 2.465 2.465 0 01-.359.575c-.243.297-.45.422-.468.413-.018-.018.162-.179.369-.485.107-.152.215-.341.314-.566.099-.197.144-.539-.081-.557-.224 0-.422.243-.539.441-.116.206-.17.422-.188.601-.009.36.09.575.063.584zM452.628 348.189c0 .027-.395.009-1.006.143a4.406 4.406 0 00-2.102 1.15 4.51 4.51 0 00-1.167 2.093c-.144.611-.126 1.006-.153 1.006-.009 0-.027-.099-.027-.278-.009-.18.009-.441.072-.755a4.25 4.25 0 011.168-2.192 4.323 4.323 0 012.2-1.149 3.65 3.65 0 01.755-.063c.161.018.26.036.26.045zM450.59 342.656c.045-.009.233 1.248.422 2.793.188 1.554.305 2.812.26 2.821-.045.009-.233-1.249-.422-2.794-.188-1.554-.305-2.82-.26-2.82zM446.322 351.521c.009.045-.862.287-1.976.413-1.114.135-2.021.099-2.021.054 0-.045.898-.09 1.994-.225 1.105-.125 1.985-.287 2.003-.242z" fill="#263238"/><path d="M448.999 351.225c.036.027-.054.198-.126.414-.072.215-.099.404-.144.404-.044.009-.089-.207-.009-.458.081-.243.243-.387.279-.36zM449.871 349.86c.036.027-.036.18-.162.341-.126.162-.261.261-.296.234-.036-.027.036-.18.161-.342.135-.161.261-.26.297-.233zM451.254 349.123c-.009.045-.188.063-.377.162-.198.09-.323.216-.368.189-.036-.018.054-.225.296-.342.243-.108.458-.054.449-.009zM452.251 348.746c.017.045-.054.116-.162.179-.108.054-.216.072-.234.027-.018-.045.054-.117.162-.179.108-.054.216-.072.234-.027z" fill="#263238"/><path d="M399.021 350.506l.215-7.339 13.752.324-.206 10.743-.854.036c-3.799.125-19.33.35-21.854-.476-2.793-.926 8.947-3.288 8.947-3.288z" fill="#FEAC42"/><path d="M407.806 354.009a4.792 4.792 0 011.823-2.892c.934-.692 2.075-1.042 3.243-.925l-.09 3.844-4.976-.027z" fill="#FEAC42"/><path d="M393.282 351.862s-4.123 1.087-3.629 1.769c.494.683 16.196 1.042 23.139.593l-.018-.305-18.324-.261c.009.009-.368-1.742-1.168-1.796z" fill="#FEAC42"/><path d="M412.99 353.919c0 .009-.081.009-.234.018l-.683.027c-.682.018-1.518.027-2.506.054-2.111.027-5.03.027-8.254-.045a230.943 230.943 0 01-8.255-.323c-.988-.063-1.815-.117-2.497-.162a44.01 44.01 0 01-.683-.054 51.713 51.713 0 00-.233-.027s.08-.009.233 0l.683.027c.682.027 1.518.063 2.497.108a375.545 375.545 0 0016.5.359h2.506c.252 0 .476 0 .683.009.162 0 .243.009.243.009z" fill="#263238"/><path d="M394.46 353.885c-.054.009-.081-.593-.44-1.204-.351-.62-.863-.934-.827-.979.009-.045.593.233.97.889.387.656.333 1.303.297 1.294zM398.564 351.916c-.036.027-.225-.215-.423-.539-.197-.323-.314-.602-.278-.62.036-.027.224.216.422.539.189.315.314.593.279.62zM399.687 351.35c-.036.036-.242-.116-.476-.332-.234-.216-.395-.422-.359-.458.036-.036.242.117.476.332.233.216.395.422.359.458zM400.424 350.065c0 .045-.324.081-.719.072-.395-.009-.719-.045-.719-.09s.324-.08.719-.071c.395 0 .719.044.719.089zM400.684 349.158c.018.045-.342.189-.809.216-.467.027-.835-.09-.826-.126.009-.045.368-.009.817-.036.449-.027.8-.098.818-.054z" fill="#263238"/><path d="M398.124 350.704c0 .018-.341.054-.88-.027a4.96 4.96 0 01-.934-.225c-.171-.062-.35-.116-.53-.233a.493.493 0 01-.216-.279c-.036-.134.045-.278.144-.35.853-.422 1.689.072 1.994.521.171.225.243.449.279.593.036.153.027.243.018.243-.036.008-.054-.351-.387-.764a1.553 1.553 0 00-.745-.512c-.315-.099-.755-.135-1.051.045-.144.099-.09.269.063.359.143.099.332.162.494.225.332.126.638.206.907.26.503.108.844.117.844.144z" fill="#263238"/><path d="M397.891 350.739c-.009.009-.135-.216-.09-.62a1.43 1.43 0 01.251-.638c.162-.188.368-.458.746-.431.206.027.296.27.26.413a.933.933 0 01-.161.396 2.396 2.396 0 01-.432.521c-.287.26-.503.359-.512.35-.018-.018.18-.153.432-.431.125-.135.26-.315.386-.521.126-.18.215-.521-.009-.566-.225-.027-.449.189-.593.359a1.44 1.44 0 00-.261.566c-.062.368.009.593-.017.602zM412.8 350.156c0 .027-.395-.045-1.015.009a4.413 4.413 0 00-2.236.862 4.46 4.46 0 00-1.429 1.923c-.224.583-.251.979-.287.979-.009 0-.009-.099.009-.279.018-.179.063-.431.171-.736a4.276 4.276 0 011.437-2.021 4.184 4.184 0 012.326-.845c.324-.018.584.009.755.036.17.027.269.063.269.072zM411.506 344.398c.045 0 .072 1.266.054 2.829-.018 1.563-.063 2.83-.108 2.83s-.072-1.267-.054-2.83c.009-1.563.054-2.829.108-2.829zM406.108 352.626c.009.045-.898.171-2.012.153-1.114-.009-2.012-.162-2.012-.207.009-.045.898.027 2.012.036 1.105.027 2.003-.027 2.012.018z" fill="#263238"/><path d="M408.804 352.689c.036.035-.081.188-.171.395-.099.206-.152.386-.197.377-.045 0-.063-.216.045-.458.107-.234.296-.35.323-.314zM409.847 351.45c.036.036-.063.171-.207.315-.143.143-.287.224-.323.197-.036-.036.063-.17.207-.314.152-.144.296-.234.323-.198zM411.319 350.901c-.009.045-.198.045-.395.108-.207.063-.35.171-.386.135-.036-.027.08-.216.341-.297.242-.08.449.009.44.054zM412.351 350.65c.018.045-.063.108-.179.153-.117.045-.225.036-.234 0-.018-.045.063-.108.18-.153.116-.045.224-.045.233 0z" fill="#263238"/><path d="M449.485 190.281s9.772 51.118 7.527 51.765c-2.237.655-53.014 1.176-53.014 1.176l-5.506-48.729 24.207-7.994 26.786 3.782z" fill="#FEAC42"/><path opacity=".4" d="M449.485 190.281s9.772 51.118 7.527 51.765c-2.237.655-53.014 1.176-53.014 1.176l-5.506-48.729 24.207-7.994 26.786 3.782z" fill="#000"/><path d="M447.321 177.193l.943 92.76 7.788 76.296h-23.534l-4.743-74.113s-1.868-60.918-3.772-60.954c-3.198-.063-5.632 136.818-6.863 137.079-2.093.449-23.955 0-23.955 0s7.051-159.885 6.988-159.885c-.054 0 47.148-11.183 47.148-11.183z" fill="#263238"/><path d="M424.874 210.58c-.027.018-.225-.18-.566-.575-.305-.413-.754-1.033-1.132-1.895-.386-.854-.718-1.923-.943-3.135-.224-1.213-.323-2.56-.35-3.97-.027-2.821.09-5.363.144-7.204.071-1.842.152-2.973.215-2.973s.108 1.14.117 2.982c0 1.976-.009 4.446-.009 7.186.027 2.793.431 5.299 1.132 6.988.673 1.689 1.464 2.542 1.392 2.596zM437.818 197.07c.071 0 .044 1.186.089 3.099.063 1.878.198 4.59 1.545 7.141.674 1.258 1.59 2.309 2.623 2.973a6.671 6.671 0 003.054 1.06c1.895.153 2.937-.602 2.973-.503.009.018-.215.216-.718.44-.494.225-1.285.422-2.273.396a6.705 6.705 0 01-3.26-1.024c-1.114-.692-2.093-1.797-2.794-3.117-1.419-2.668-1.482-5.462-1.464-7.357a34.78 34.78 0 01.117-2.272c.036-.548.072-.836.108-.836zM398.484 211.811c.027-.027.233.161.664.395.432.216 1.132.44 2.004.377.871-.045 1.868-.431 2.775-1.14.916-.701 1.77-1.698 2.524-2.821 1.518-2.254 2.219-4.671 2.497-6.422.27-1.77.189-2.884.27-2.884.027 0 .08.279.116.782.027.503.036 1.239-.054 2.147-.188 1.796-.862 4.311-2.434 6.638-.781 1.158-1.661 2.173-2.65 2.901-.979.736-2.083 1.123-3.027 1.123-.943.027-1.67-.27-2.101-.548-.441-.297-.602-.539-.584-.548zM443.872 267.204c.018.054-.664.386-1.805.809a42.805 42.805 0 01-4.563 1.383c-1.815.44-3.476.718-4.689.862-1.213.144-1.967.171-1.976.108-.018-.135 2.964-.548 6.557-1.428 3.593-.872 6.431-1.869 6.476-1.734zM442.103 266.172c.009.125-1.949.323-4.374.44-2.426.117-4.393.108-4.402-.027-.009-.126 1.949-.323 4.375-.44 2.425-.117 4.401-.108 4.401.027zM413.288 276.609c.027.126-2.47.79-5.587 1.491-3.117.701-5.659 1.159-5.686 1.033-.027-.126 2.47-.791 5.587-1.491 3.108-.692 5.659-1.159 5.686-1.033zM412.434 274.111c-.009.126-2.345.144-5.228.036-2.883-.108-5.219-.305-5.219-.431s2.345-.144 5.237-.036c2.874.108 5.21.297 5.21.431z" fill="#455A64"/><path d="M434.205 117.73l7.446.009s7.383.162 12.243 6.997c3.413 4.806 3.979 11.076 1.886 16.582l-.772 2.03-7.285 17.138c-.557 2.272 0 6.934 0 24.8l-47.552 3.09 2.066-29.902.781-8.641.377-10.815s-8.73-5.874-15.746-14.686l14.13-14.102s10.473 9.207 13.257 8.937c2.803-.26 19.169-1.437 19.169-1.437z" fill="#FEAC42"/><path d="M433.424 118.969l-14.632 1.078c-.198-1.689-.476-8.273-.476-8.273s-6.108-.565-6.557-6.611c-.449-6.045-.261-20.003-.261-20.003a21.064 21.064 0 0121.297 1.356l.943.638-.314 31.815z" fill="#FFBE9D"/><path d="M413.537 95.481a.882.882 0 00-.018-1.248.882.882 0 00-1.249.018.882.882 0 00.018 1.248.882.882 0 001.249-.018z" fill="#263238"/><path d="M411.983 94.188c.098.098.664-.396 1.5-.45.835-.071 1.464.342 1.554.225.044-.054-.063-.233-.342-.422a2.067 2.067 0 00-1.248-.314 1.99 1.99 0 00-1.186.493c-.243.225-.323.423-.278.468zM421.63 94.32a.888.888 0 00-.216 1.231.888.888 0 001.231.216.887.887 0 00.215-1.23.887.887 0 00-1.23-.216z" fill="#263238"/><path d="M421.082 94.366c.099.1.665-.395 1.5-.449.835-.072 1.464.341 1.554.225.045-.054-.063-.234-.341-.422-.27-.18-.728-.35-1.249-.315a1.99 1.99 0 00-1.186.494c-.251.225-.323.422-.278.467zM418.164 101.445c0 .063-.53.108-1.375.135-.108 0-.224.009-.377-.027a.56.56 0 01-.395-.324c-.135-.35 0-.655.063-.907l.521-1.743c.763-2.47 1.482-4.437 1.598-4.4.126.035-.395 2.065-1.158 4.535-.189.602-.377 1.168-.557 1.734-.099.269-.162.503-.117.638.027.116.198.152.422.17.854.054 1.384.126 1.375.189z" fill="#263238"/><path d="M420.93 102.199c.835-.575-2.308 1.419-4.015 1.437 0 0 1.069 1.491 2.776.746 1.769-.773 1.239-2.183 1.239-2.183z" fill="#fff"/><path d="M418.307 111.694s3.844.072 7.751-2.731c0 0-1.598 4.474-7.671 4.294l-.08-1.563z" fill="#EB996E"/><path d="M432.382 93.846c.135-.054 4.492-.62 4.078 4.527-.413 5.147-5.47 3.027-5.47 2.884 0-.144 1.392-7.41 1.392-7.41z" fill="#FFBE9D"/><path d="M432.715 99.577c.027-.018.081.072.234.153a.92.92 0 00.665.072c.556-.153 1.086-.98 1.185-1.905a2.942 2.942 0 00-.143-1.302c-.126-.386-.351-.674-.62-.745a.455.455 0 00-.548.206c-.081.135-.054.243-.081.252-.018.009-.108-.1-.045-.306a.574.574 0 01.225-.305.676.676 0 01.503-.09c.395.063.718.45.871.871.171.422.251.934.198 1.455-.117 1.033-.728 1.959-1.483 2.12a.998.998 0 01-.808-.197c-.162-.153-.18-.27-.153-.279z" fill="#EB996E"/><path d="M411.984 85.528c-1.491-.368-2.551-1.922-2.497-3.467.054-1.536 1.114-2.955 2.515-3.593 1.402-.638 3.072-.548 4.483.072.422-2.237 2.613-3.997 4.886-3.934 2.272.063 4.365 1.94 4.662 4.194.143-1.167 1.464-1.823 2.641-1.895 1.176-.072 2.434.279 3.188 1.168.764.898.836 2.398-.027 3.189 1.312-.144 2.686.125 3.755.898 1.069.772 1.769 2.084 1.671 3.395-.099 1.311-1.069 2.56-2.363 2.82-.44.09-.979.117-1.221.504-.135.215-.126.485-.126.736.045 1.455.081 2.901.126 4.357-.764-.387-1.734.17-2.111.943-.368.772-.306 1.68-.243 2.533-.368.556-1.311.395-1.715-.144-.405-.539-.431-1.258-.44-1.931-.027-2.336-.063-4.671-.09-6.998a2.388 2.388 0 01-2.255 0 2.384 2.384 0 01-1.194-1.913 4.728 4.728 0 01-3.764 1.258 4.692 4.692 0 01-3.35-2.12c-.719.575-1.456 1.15-2.3 1.527-.844.377-1.823.53-2.695.234-.871-.297-1.59-1.132-1.572-2.057.099-.09.207-.18.306-.26" fill="#263238"/><path d="M409.118 86.336c-.027-.009.063-.207.378-.233a.724.724 0 01.521.188c.179.162.269.45.206.728-.054.278-.26.566-.566.71-.305.143-.673.152-1.024.035-.682-.215-1.284-.96-1.194-1.823.08-.835.709-1.482 1.356-1.707a2.69 2.69 0 011.76-.027c.953.342 1.339.845 1.312.872-.045.071-.512-.333-1.392-.557-.432-.1-.988-.117-1.518.107-.521.207-.988.72-1.051 1.348-.072.62.368 1.194.871 1.374.512.198 1.033-.027 1.132-.422a.496.496 0 00-.413-.656c-.234-.027-.36.09-.378.063zM433.478 84.962c-.045-.063.368-.386.925-.988.269-.306.557-.692.727-1.177.162-.476.198-1.069-.098-1.545-.288-.494-.8-.727-1.294-.646-.494.071-.952.287-1.293.485-.701.404-1.051.808-1.105.754-.045-.027.215-.52.925-1.033.359-.242.808-.512 1.41-.629a1.64 1.64 0 01.979.117c.324.153.593.404.773.719.386.637.323 1.392.099 1.94-.225.557-.575.97-.899 1.257-.637.566-1.113.79-1.149.746zM421.901 78.728c-.045-.027.125-.548.574-1.32a4.906 4.906 0 011.024-1.222c.476-.395 1.132-.7 1.869-.71.727-.035 1.464.324 1.823.872.368.53.458 1.114.458 1.572-.045.925-.314 1.419-.359 1.41-.081-.018.072-.557.027-1.401-.036-.413-.153-.907-.467-1.32-.306-.423-.854-.683-1.464-.656-1.276.027-2.138.979-2.632 1.652-.503.683-.791 1.16-.853 1.123z" fill="#263238"/><g opacity=".4"><path opacity=".4" d="M411.984 85.528c-1.491-.368-2.551-1.922-2.497-3.467.054-1.536 1.114-2.955 2.515-3.593 1.402-.638 3.072-.548 4.483.072.422-2.237 2.613-3.997 4.886-3.934 2.272.063 4.365 1.94 4.662 4.194.143-1.167 1.464-1.823 2.641-1.895 1.176-.072 2.434.279 3.188 1.168.764.898.836 2.398-.027 3.189 1.312-.144 2.686.125 3.755.898 1.069.772 1.769 2.084 1.671 3.395-.099 1.311-1.069 2.56-2.363 2.82-.44.09-.979.117-1.221.504-.135.215-.126.485-.126.736.045 1.455.081 2.901.126 4.357-.764-.387-1.734.17-2.111.943-.368.772-.306 1.68-.243 2.533-.368.556-1.311.395-1.715-.144-.405-.539-.431-1.258-.44-1.931-.027-2.336-.063-4.671-.09-6.998a2.388 2.388 0 01-2.255 0 2.384 2.384 0 01-1.194-1.913 4.728 4.728 0 01-3.764 1.258 4.692 4.692 0 01-3.35-2.12c-.719.575-1.456 1.15-2.3 1.527-.844.377-1.823.53-2.695.234-.871-.297-1.59-1.132-1.572-2.057.099-.09.207-.18.306-.26" fill="#000"/><path opacity=".4" d="M409.118 86.336c-.027-.009.063-.207.378-.233a.724.724 0 01.521.188c.179.162.269.45.206.728-.054.278-.26.566-.566.71-.305.143-.673.152-1.024.035-.682-.215-1.284-.96-1.194-1.823.08-.835.709-1.482 1.356-1.707a2.69 2.69 0 011.76-.027c.953.342 1.339.845 1.312.872-.045.071-.512-.333-1.392-.557-.432-.1-.988-.117-1.518.107-.521.207-.988.72-1.051 1.348-.072.62.368 1.194.871 1.374.512.198 1.033-.027 1.132-.422a.496.496 0 00-.413-.656c-.234-.027-.36.09-.378.063zM433.478 84.962c-.045-.063.368-.386.925-.988.269-.306.557-.692.727-1.177.162-.476.198-1.069-.098-1.545-.288-.494-.8-.727-1.294-.646-.494.071-.952.287-1.293.485-.701.404-1.051.808-1.105.754-.045-.027.215-.52.925-1.033.359-.242.808-.512 1.41-.629a1.64 1.64 0 01.979.117c.324.153.593.404.773.719.386.637.323 1.392.099 1.94-.225.557-.575.97-.899 1.257-.637.566-1.113.79-1.149.746zM421.901 78.728c-.045-.027.125-.548.574-1.32a4.906 4.906 0 011.024-1.222c.476-.395 1.132-.7 1.869-.71.727-.035 1.464.324 1.823.872.368.53.458 1.114.458 1.572-.045.925-.314 1.419-.359 1.41-.081-.018.072-.557.027-1.401-.036-.413-.153-.907-.467-1.32-.306-.423-.854-.683-1.464-.656-1.276.027-2.138.979-2.632 1.652-.503.683-.791 1.16-.853 1.123z" fill="#000"/></g><path d="M438.139 138.694s-9.215 16.618-12.683 19.519c-3.467 2.901-29.273-3.467-29.273-3.467l-.422-.71s-1.204-1.455-2.731-4.419a7.972 7.972 0 01-.781-2.461c-.153-1.042-.297-2.435-.144-3.216.189-.97-.88-1.68-1.527-1.078-.647.602-1.23 3.27-.494 6.378.728 3.107-3.171.027-4.608-1.069-1.437-1.096-6.054-4.276-6.728-4.096-.988.269-.88 1.41.584 2.47 1.482 1.078 5.632 4.563 5.039 5.308-.583.737-7.85-4.949-7.85-4.949s-1.365-1.473-2.075-.629c-1.294 1.518 6.853 6.98 7.644 7.483.548.35-.072 1.185-.638.781-.584-.422-7.114-5.847-8.443-4.32-1.024 1.176 6.665 4.563 7.41 6.449.746 1.895-5.578-3.171-6.503-2.012-.35.431-.548.808 3.494 3.18 2.883 1.697 9.71 4.509 13.572 6.054 3.512 1.733 16.411 7.931 27.01 10.608 8.174 2.066 16.77.656 21.513-6.315l14.659-23.282-16.025-6.207z" fill="#FFBE9D"/><path d="M398.482 194.503l24.998-6.117v-2.749l-23.578-1.913-1.42 10.779z" fill="#FEAC42"/><path opacity=".4" d="M398.482 194.503l24.998-6.117v-2.749l-23.578-1.913-1.42 10.779z" fill="#000"/><path d="M448.335 181.981c-1.698.548-24.855 3.656-24.855 3.656v2.748l26.579 4.968-1.724-11.372z" fill="#FEAC42"/><path opacity=".4" d="M448.335 181.981c-1.698.548-24.855 3.656-24.855 3.656v2.748l26.579 4.968-1.724-11.372z" fill="#000"/><path d="M418.845 189.75c-.053.027-.269-.287-.35-.88-.09-.575.009-1.455.548-2.219a3.193 3.193 0 011.913-1.257c.584-.117.943-.018.943.036 0 .072-.35.099-.853.278-.494.18-1.159.557-1.617 1.204-.458.647-.602 1.401-.602 1.931-.009.548.081.88.018.907z" fill="#263238"/><path d="M419.636 186.446c-.018-.054.242-.216.709-.333.467-.117 1.195-.17 1.913.171.728.323 1.141 1.033 1.177 1.545.054.521-.144.808-.197.781-.072-.018-.009-.305-.135-.718a1.924 1.924 0 00-1.051-1.186c-.593-.278-1.213-.287-1.662-.26-.449.027-.736.071-.754 0z" fill="#263238"/><path d="M423.742 185.771c.107-.063.494.611.35 1.5-.144.898-.719 1.41-.809 1.321-.107-.081.234-.638.342-1.393.135-.754-.018-1.383.117-1.428zM402.156 189.795c-.018-.125 3.665-.718 8.219-1.32 4.554-.602 8.264-.988 8.282-.862.018.125-3.665.718-8.219 1.32-4.563.602-8.273.988-8.282.862z" fill="#263238"/><path d="M441.059 185.142c.018.126-3.782.728-8.48 1.339-4.697.611-8.524.997-8.542.871-.018-.126 3.782-.728 8.479-1.338 4.698-.611 8.525-.997 8.543-.872z" fill="#263238"/><path d="M438.373 187.46c0 .063-.799.072-2.084.063-1.464-.009-3.153-.027-5.021-.045-1.868.009-3.557.018-5.021.027-1.284.009-2.084 0-2.084-.063s.791-.17 2.075-.26a69.205 69.205 0 015.039-.162c1.967 0 3.746.081 5.03.18 1.276.09 2.066.197 2.066.26z" fill="#263238"/><path d="M419.726 187.028s-6.943 17.83-7.572 35.507v5.363l9.881.431s-1.473-27.621 1.446-39.944l-3.755-1.357z" fill="#FEAC42"/><path opacity=".4" d="M419.726 187.028s-6.943 17.83-7.572 35.507v5.363l9.881.431s-1.473-27.621 1.446-39.944l-3.755-1.357z" fill="#000"/><path d="M421.792 225.976c-.009.135-2.183.063-4.859.018-2.677-.045-4.851-.054-4.86-.189-.009-.125 2.174-.332 4.86-.278 2.694.045 4.868.323 4.859.449z" fill="#263238"/><path d="M414.849 227.997c-.126.027-.341-.467-.404-1.123-.063-.656.072-1.186.197-1.177.135.009.216.512.27 1.132.054.62.063 1.141-.063 1.168zM418.981 228.204c-.117.045-.395-.449-.458-1.114-.072-.665.099-1.204.224-1.186.135.018.171.53.243 1.141.054.611.117 1.114-.009 1.159zM417.382 204.292c-.063-.009.009-1.051.243-2.722a67.663 67.663 0 011.257-6.467c.62-2.497 1.32-4.725 1.895-6.306.575-1.59.997-2.542 1.051-2.515.063.027-.251 1.015-.736 2.623a118.034 118.034 0 00-1.752 6.315 117.1 117.1 0 00-1.383 6.404c-.323 1.653-.503 2.677-.575 2.668z" fill="#263238"/></g><defs><clipPath id="clip0"><path fill="#fff" d="M0 0h559.984v354.837H0z"/></clipPath></defs></svg>