<svg width="495" height="477" fill="none" xmlns="http://www.w3.org/2000/svg"><g clip-path="url(#clip0)"><path d="M453.382 0H35.917v277.658h417.465V0z" fill="#ECECEC"/><path d="M440.728 12.406H23.263v277.658h417.465V12.406z" fill="#F3F3F3"/><path d="M48.805 374.625c4-2.064 8.719-2.333 13.159-1.602 2.386.398 4.88 1.107 6.504 2.903 1.623 1.795 1.935 4.945.064 6.493-1.107.914-2.655 1.053-4.096 1.043-3.483-.043-7.342-.656-10.116 1.44-1.59 1.193-2.644 3.182-4.536 3.763-1.86.569-3.946-.516-4.935-2.193-.978-1.677-1.021-3.763-.559-5.655 0 0 .484-4.107 4.515-6.192zM39.635 356.919c2.451 3.494 7.203 2.344 9.418.204 2.203-2.139 3.139-5.224 3.988-8.18 1.935-6.741 3.892-13.815 2.451-20.673-.43-2.054-1.193-4.096-2.645-5.623-1.44-1.526-3.655-2.429-5.687-1.892-2.397.635-3.891 2.989-4.966 5.214a49.184 49.184 0 00-4.87 21.146c-.021 3.419.387 6.998 2.311 9.804zM32.906 361.94c2.655-3.15 3.16-7.751 1.978-11.707-1.183-3.957-3.86-7.311-6.934-10.063a37.404 37.404 0 00-12.417-7.321c-1.795-.634-3.687-1.128-5.58-.946-1.891.183-3.805 1.151-4.686 2.838-1.312 2.494-.054 5.515 1.3 7.977a93.979 93.979 0 008.16 12.417c2.44 3.149 5.246 6.256 8.966 7.686 3.73 1.419 7.6 1.258 9.567-1.322" fill="#EBEBEB"/><path d="M39.463 409.66c.043 0 .118-.559.226-1.591.107-1.161.258-2.612.42-4.332.203-1.828.472-3.999.977-6.364.506-2.355 1.301-4.913 2.312-7.504 1.053-2.58 2.332-4.924 3.837-6.794 1.484-1.881 3.215-3.247 4.849-4.032a13.257 13.257 0 014.085-1.268c1.01-.108 1.58-.183 1.58-.226 0-.043-.57-.054-1.612-.021-1.032.064-2.548.333-4.257 1.107-1.71.763-3.548 2.139-5.107 4.064-1.57 1.913-2.902 4.31-3.977 6.923-1.032 2.634-1.817 5.224-2.29 7.632-.484 2.408-.699 4.602-.85 6.44a79.615 79.615 0 00-.214 4.364c-.033 1.032-.022 1.602.021 1.602z" fill="#E0E0E0"/><path d="M39.764 406.327c.022 0 .032-.258.043-.741 0-.559 0-1.247-.01-2.107 0-1.828 0-4.473.096-7.751.161-6.537.72-13.578 1.817-23.5 1.032-9.332 2.408-20.189 3.87-27.242.312-1.601.624-3.053.925-4.31.28-1.269.526-2.366.752-3.247.204-.828.366-1.516.495-2.053.107-.473.15-.721.129-.731-.022-.011-.108.236-.258.688-.162.526-.366 1.204-.613 2.021-.269.881-.548 1.967-.87 3.225a93.955 93.955 0 00-1.022 4.3c-1.44 6.396-2.967 15.33-4.064 25.274-1.086 9.944-1.58 18.995-1.623 25.553a130.37 130.37 0 00.118 7.762c.054.86.097 1.548.13 2.107.031.505.064.752.085.752z" fill="#E0E0E0"/><path d="M39.807 388.869c.043 0 .043-.784-.01-2.204a62.952 62.952 0 00-.678-5.966c-.419-2.505-1.01-5.472-1.935-8.697-.398-1.473-1.344-5.009-3.633-10.288-3.01-7.149-7.106-12.997-10.675-16.62-.839-.957-1.764-1.655-2.516-2.333-.387-.322-.731-.655-1.075-.903-.344-.236-.677-.462-.978-.666-1.172-.806-1.828-1.226-1.85-1.183-.107.14 2.624 1.753 6.075 5.418 3.44 3.666 7.417 9.471 10.406 16.567a82.052 82.052 0 013.655 10.191c.957 3.193 1.59 6.128 2.064 8.611.452 2.483.72 4.504.882 5.913.128 1.386.225 2.16.268 2.16zM22.93 419.668l1.752 23.963H55.47l1.752-23.963H22.93zM60.9 410.219H19.961v9.449H60.9v-9.449z" fill="#E0E0E0"/><path d="M19.962 442.717v2.612h40.26v-2.612h-40.26z" fill="#EBEBEB"/><path d="M23.768 449.941l-1.881-4.611h36.862l-2.193 4.611H23.768z" fill="#E0E0E0"/><path d="M56.654 427.495c.01.011-.044.075-.14.215-.119.161-.269.365-.463.613-.44.559-1.042 1.333-1.795 2.3l-.075.108-.075-.108c-1.13-1.559-2.634-3.644-4.408-6.095h.258c-1.311 1.86-2.774 3.924-4.343 6.138l-.14.194-.15-.183c-1.602-1.903-3.344-3.978-5.15-6.117h.301c-.086.108-.182.237-.28.355-1.59 1.999-3.138 3.934-4.6 5.773l-.15.193-.14-.204c-1.56-2.215-3.021-4.279-4.344-6.138l.248.01c-2.14 2.441-3.956 4.505-5.343 6.096l-.097.107-.075-.118c-.71-1.183-1.269-2.129-1.677-2.817-.172-.301-.312-.548-.43-.752-.097-.172-.14-.258-.13-.269.011 0 .065.075.183.237.13.193.28.43.474.72.43.666 1.02 1.602 1.752 2.763l-.172-.011c1.365-1.602 3.16-3.698 5.257-6.16l.129-.15.118.172c1.333 1.859 2.806 3.913 4.375 6.117l-.29-.011 4.59-5.773c.097-.118.194-.247.28-.355l.15-.183.15.183c1.796 2.15 3.538 4.225 5.129 6.139l-.29.01c1.58-2.204 3.053-4.268 4.386-6.117l.129-.182.129.182c1.73 2.484 3.214 4.58 4.31 6.16h-.16c.784-.946 1.407-1.688 1.87-2.236.204-.236.365-.419.494-.58.13-.162.194-.226.205-.226zM57.652 419.507c0 .108-7.718.194-17.232.194s-17.233-.086-17.233-.194c0-.107 7.708-.193 17.233-.193 9.514 0 17.232.086 17.232.193zM59.201 445.588c0 .107-8.385.193-18.727.193s-18.727-.086-18.727-.193c0-.108 8.385-.194 18.727-.194 10.342.011 18.727.097 18.727.194z" fill="#F5F5F5"/><path d="M460.767 449.941c0 .151-103.159.28-230.378.28-127.251 0-230.389-.129-230.389-.28 0-.15 103.138-.279 230.4-.279 127.218 0 230.367.129 230.367.279z" fill="#263238"/><path d="M426.463 26.822H8.998V302.49h417.465V26.821z" fill="#fff"/><path d="M426.474 302.48c0-1.817-.086-107.545-.226-275.669l.226.226c-114.716.021-259.952.043-417.443.064h-.033l.28-.28c-.011 98.097-.011 191.42-.022 275.67l-.258-.258c245.773.15 415.175.247 417.476.247-2.301 0-171.692.108-417.465.258h-.258v-.258L8.719 26.822v-.28H9.03c157.491.022 302.727.043 417.432.054h.226v.226c-.129 168.123-.215 273.841-.215 275.658z" fill="#263238"/><path d="M48.684 54.072c-.624 0-1.224-.1-1.8-.3-.568-.2-1.008-.464-1.32-.792l.348-.684c.304.304.708.552 1.212.744a4.514 4.514 0 001.56.276c.752 0 1.316-.136 1.692-.408.376-.28.564-.64.564-1.08 0-.336-.104-.604-.312-.804-.2-.2-.448-.352-.744-.456a10.97 10.97 0 00-1.236-.36 13.999 13.999 0 01-1.512-.456c-.376-.152-.7-.38-.972-.684-.264-.304-.396-.716-.396-1.236 0-.424.112-.808.336-1.152.224-.352.568-.632 1.032-.84.464-.208 1.04-.312 1.728-.312.48 0 .948.068 1.404.204.464.128.864.308 1.2.54l-.3.708a3.997 3.997 0 00-1.128-.516 4.08 4.08 0 00-1.176-.18c-.736 0-1.292.144-1.668.432-.368.28-.552.644-.552 1.092 0 .336.1.608.3.816.208.2.464.356.768.468.312.104.728.22 1.248.348.616.152 1.112.304 1.488.456.384.144.708.368.972.672.264.296.396.7.396 1.212 0 .424-.116.812-.348 1.164-.224.344-.572.62-1.044.828-.472.2-1.052.3-1.74.3zM59.259 47.688V54h-.816v-1.152a2.379 2.379 0 01-.924.9c-.392.208-.84.312-1.344.312-.824 0-1.476-.228-1.956-.684-.472-.464-.708-1.14-.708-2.028v-3.66h.852v3.576c0 .664.164 1.168.492 1.512.328.344.796.516 1.404.516.664 0 1.188-.2 1.572-.6.384-.408.576-.972.576-1.692v-3.312h.852zM64.897 47.64c.592 0 1.128.136 1.608.408.48.264.856.64 1.128 1.128.272.488.408 1.044.408 1.668 0 .632-.136 1.192-.408 1.68a2.916 2.916 0 01-1.128 1.14c-.472.264-1.008.396-1.608.396-.512 0-.976-.104-1.392-.312a2.687 2.687 0 01-1.008-.936v3.516h-.852v-8.64h.816v1.248a2.637 2.637 0 011.008-.96 3.01 3.01 0 011.428-.336zm-.06 5.664c.44 0 .84-.1 1.2-.3.36-.208.64-.5.84-.876.208-.376.312-.804.312-1.284s-.104-.904-.312-1.272c-.2-.376-.48-.668-.84-.876a2.355 2.355 0 00-1.2-.312c-.448 0-.852.104-1.212.312a2.27 2.27 0 00-.84.876c-.2.368-.3.792-.3 1.272s.1.908.3 1.284c.208.376.488.668.84.876.36.2.764.3 1.212.3zM73.03 47.64c.592 0 1.128.136 1.608.408.48.264.856.64 1.128 1.128.272.488.408 1.044.408 1.668 0 .632-.136 1.192-.408 1.68a2.916 2.916 0 01-1.128 1.14c-.472.264-1.008.396-1.608.396-.512 0-.976-.104-1.392-.312a2.687 2.687 0 01-1.008-.936v3.516h-.852v-8.64h.816v1.248a2.637 2.637 0 011.008-.96 3.01 3.01 0 011.428-.336zm-.06 5.664c.44 0 .84-.1 1.2-.3.36-.208.64-.5.84-.876.208-.376.312-.804.312-1.284s-.104-.904-.312-1.272c-.2-.376-.48-.668-.84-.876a2.355 2.355 0 00-1.2-.312c-.448 0-.852.104-1.212.312a2.27 2.27 0 00-.84.876c-.2.368-.3.792-.3 1.272s.1.908.3 1.284c.208.376.488.668.84.876.36.2.764.3 1.212.3zM77.91 45.096h.853V54h-.852v-8.904zM86.437 47.688l-3.156 7.068c-.256.592-.552 1.012-.888 1.26-.336.248-.74.372-1.212.372-.304 0-.588-.048-.852-.144a1.846 1.846 0 01-.684-.432l.396-.636c.32.32.704.48 1.152.48.288 0 .532-.08.732-.24.208-.16.4-.432.576-.816l.276-.612-2.82-6.3h.888l2.376 5.364 2.376-5.364h.84zM94.606 54.072c-.832 0-1.584-.184-2.256-.552a4.11 4.11 0 01-1.572-1.524 4.337 4.337 0 01-.564-2.196c0-.808.188-1.536.564-2.184a4.061 4.061 0 011.584-1.536c.672-.368 1.424-.552 2.256-.552.624 0 1.2.104 1.728.312.528.208.976.512 1.344.912l-.564.564c-.656-.664-1.484-.996-2.484-.996a3.65 3.65 0 00-1.812.456c-.544.304-.972.72-1.284 1.248a3.495 3.495 0 00-.456 1.776c0 .656.152 1.248.456 1.776.312.528.74.944 1.284 1.248a3.65 3.65 0 001.812.456c1.008 0 1.836-.336 2.484-1.008l.564.564c-.368.4-.82.708-1.356.924a4.674 4.674 0 01-1.728.312zM102.619 47.64c.792 0 1.42.232 1.884.696.472.456.708 1.124.708 2.004V54h-.852v-3.576c0-.656-.164-1.156-.492-1.5-.328-.344-.796-.516-1.404-.516-.68 0-1.22.204-1.62.612-.392.4-.588.956-.588 1.668V54h-.852v-8.904h.852v3.696a2.31 2.31 0 01.96-.852c.408-.2.876-.3 1.404-.3zM109.732 47.64c.824 0 1.456.208 1.896.624.44.408.66 1.016.66 1.824V54h-.816v-.984a1.947 1.947 0 01-.852.768c-.368.184-.808.276-1.32.276-.704 0-1.264-.168-1.68-.504-.416-.336-.624-.78-.624-1.332 0-.536.192-.968.576-1.296.392-.328 1.012-.492 1.86-.492h2.004v-.384c0-.544-.152-.956-.456-1.236-.304-.288-.748-.432-1.332-.432-.4 0-.784.068-1.152.204a2.822 2.822 0 00-.948.54l-.384-.636c.32-.272.704-.48 1.152-.624.448-.152.92-.228 1.416-.228zm-.3 5.748c.48 0 .892-.108 1.236-.324.344-.224.6-.544.768-.96v-1.032h-1.98c-1.08 0-1.62.376-1.62 1.128 0 .368.14.66.42.876.28.208.672.312 1.176.312zM114.602 47.688h.852V54h-.852v-6.312zm.432-1.38a.603.603 0 01-.444-.18.59.59 0 01-.18-.432c0-.16.06-.3.18-.42s.268-.18.444-.18.324.06.444.18c.12.112.18.248.18.408 0 .176-.06.324-.18.444a.603.603 0 01-.444.18zM121.041 47.64c.792 0 1.42.232 1.884.696.472.456.708 1.124.708 2.004V54h-.852v-3.576c0-.656-.164-1.156-.492-1.5-.328-.344-.796-.516-1.404-.516-.68 0-1.22.204-1.62.612-.392.4-.588.956-.588 1.668V54h-.852v-6.312h.816v1.164c.232-.384.552-.68.96-.888.416-.216.896-.324 1.44-.324z" fill="#000"/><path d="M49.043 150.375l.355-.688c.602.591 1.677 1.021 2.784 1.021 1.58 0 2.268-.667 2.268-1.494 0-2.323-5.203-.893-5.203-4.021 0-1.247.968-2.322 3.118-2.322.957 0 1.946.279 2.623.752l-.301.71a4.323 4.323 0 00-2.322-.699c-1.548 0-2.236.688-2.236 1.537 0 2.322 5.203.914 5.203 4 0 1.247-.99 2.3-3.15 2.3-1.269 0-2.505-.441-3.139-1.096zM60.45 151.019c-.334.301-.85.452-1.345.452-1.193 0-1.86-.677-1.86-1.849v-3.838h-1.139v-.72h1.14v-1.387h.86v1.387h1.935v.72h-1.935v3.795c0 .752.386 1.161 1.096 1.161.355 0 .699-.108.946-.323l.301.602zM67.297 148.493h-5.31c.096 1.333 1.107 2.215 2.494 2.215.774 0 1.462-.28 1.945-.828l.484.559c-.57.677-1.451 1.043-2.451 1.043-1.978 0-3.333-1.355-3.333-3.236 0-1.881 1.312-3.225 3.107-3.225 1.785 0 3.075 1.311 3.075 3.225.01.054-.01.15-.01.247zm-5.31-.645h4.504c-.108-1.247-1.01-2.118-2.258-2.118-1.225.011-2.139.882-2.247 2.118zM75.5 148.224c0 1.935-1.355 3.236-3.161 3.236-1.01 0-1.881-.43-2.419-1.258v3.537h-.86v-8.697h.817v1.258c.516-.849 1.398-1.301 2.451-1.301 1.817 0 3.171 1.312 3.171 3.225zm-.86 0c0-1.473-1.022-2.472-2.366-2.472-1.354 0-2.365.999-2.365 2.472 0 1.484 1.01 2.473 2.365 2.473 1.344 0 2.365-.989 2.365-2.473zM85.432 148.977c0 1.408-1.021 2.494-3.064 2.494-1.214 0-2.386-.42-3.042-1.086l.42-.688c.548.57 1.526.978 2.623.978 1.397 0 2.171-.656 2.171-1.698 0-1.011-.71-1.677-2.279-1.677h-.602v-.645l2.343-2.935h-4.321v-.774h5.429v.612l-2.387 3.011c1.806.096 2.71 1.053 2.71 2.408z" fill="#D5AC50"/><path d="M346.922 284.237h-43.678a1.923 1.923 0 01-1.925-1.925v-22.457c0-1.064.86-1.924 1.925-1.924h43.678c1.064 0 1.924.86 1.924 1.924v22.457a1.937 1.937 0 01-1.924 1.925z" fill="#E0E0E0"/><path d="M322.465 272.175c0 1.215-.903 1.914-2.687 1.914h-3.3v-7.171h3.096c1.601 0 2.515.677 2.515 1.839 0 .817-.441 1.365-1.096 1.623.924.226 1.472.828 1.472 1.795zm-5.224-4.623v2.602h2.279c1.15 0 1.817-.441 1.817-1.301 0-.86-.667-1.301-1.817-1.301h-2.279zm4.472 4.569c0-.935-.688-1.343-1.946-1.343h-2.526v2.687h2.526c1.258 0 1.946-.408 1.946-1.344zM328.109 270.756v3.333h-.698v-.839c-.323.548-.968.892-1.849.892-1.215 0-1.968-.634-1.968-1.569 0-.828.538-1.527 2.075-1.527h1.709v-.322c0-.925-.526-1.419-1.526-1.419-.699 0-1.355.247-1.796.634l-.322-.538c.538-.462 1.344-.731 2.193-.731 1.398 0 2.182.699 2.182 2.086zm-.731 1.72v-.882h-1.687c-1.043 0-1.387.409-1.387.968 0 .624.505 1.011 1.365 1.011.828 0 1.43-.387 1.709-1.097zM329.561 271.401c0-1.613 1.171-2.731 2.773-2.731.914 0 1.677.355 2.107 1.065l-.537.365c-.366-.537-.946-.795-1.57-.795-1.172 0-2.042.838-2.042 2.096 0 1.269.86 2.096 2.042 2.096.624 0 1.193-.247 1.57-.784l.537.365c-.43.699-1.193 1.064-2.107 1.064-1.612 0-2.773-1.139-2.773-2.741zM337.774 271.391l-1.269 1.171v1.538h-.731v-7.59h.731v5.149l3.215-2.935h.903l-2.301 2.204 2.516 3.182h-.892l-2.172-2.719zM310.694 268.875c.064.064-.807.967-1.935 2.01l-.011.011v-.248c1.129 1.032 1.999 1.914 1.935 1.989-.065.065-1.032-.709-2.161-1.741l-.14-.119.14-.129.011-.01c1.129-1.043 2.096-1.839 2.161-1.763z" fill="#fff"/><path d="M313.779 270.766c0 .097-1.151.172-2.57.172-1.419 0-2.569-.075-2.569-.172 0-.096 1.15-.172 2.569-.172s2.57.076 2.57.172z" fill="#fff"/><path d="M402.684 284.237h-43.679a1.922 1.922 0 01-1.924-1.925v-22.457c0-1.064.86-1.924 1.924-1.924h43.679c1.064 0 1.924.86 1.924 1.924v22.457a1.93 1.93 0 01-1.924 1.925z" fill="#D5AC50"/><path d="M372.013 266.929v7.17h-.623l-4.601-5.816v5.816h-.753v-7.17h.624l4.612 5.816v-5.816h.741zM378.883 271.627h-4.505c.086 1.129.946 1.871 2.118 1.871.656 0 1.237-.237 1.645-.71l.409.473c-.484.57-1.226.882-2.075.882-1.677 0-2.828-1.151-2.828-2.742 0-1.602 1.118-2.73 2.634-2.73 1.516 0 2.613 1.118 2.613 2.73 0 .065-.011.14-.011.226zm-4.505-.548h3.817c-.097-1.054-.86-1.796-1.914-1.796-1.043.011-1.817.742-1.903 1.796zM383.645 274.089l-1.71-2.247-1.72 2.247h-.817l2.129-2.763-2.021-2.623h.817l1.612 2.107 1.613-2.107h.796l-2.021 2.623 2.15 2.763h-.828zM388.515 273.766c-.29.258-.72.376-1.14.376-1.01 0-1.58-.57-1.58-1.569v-3.258h-.957v-.612h.957v-1.183h.731v1.183h1.634v.612h-1.634v3.215c0 .634.323.978.935.978.301 0 .592-.097.796-.28l.258.538zM393.47 272.627c-.064-.065.806-.968 1.935-2.011l.011-.01v.247c-1.14-1.032-2-1.914-1.935-1.989.064-.064 1.032.71 2.161 1.742l.139.118-.139.129-.011.011c-1.129 1.042-2.096 1.827-2.161 1.763z" fill="#fff"/><path d="M390.396 270.735c0-.097 1.15-.172 2.569-.172s2.57.075 2.57.172c0 .096-1.151.172-2.57.172-1.429-.011-2.569-.086-2.569-.172z" fill="#fff"/><path d="M59.063 116.339c5.842 0 10.578-4.736 10.578-10.578s-4.736-10.578-10.578-10.578c-5.843 0-10.579 4.736-10.579 10.578s4.736 10.578 10.579 10.578z" fill="#D5AC50"/><path d="M274.724 106.374c-.076 0-.022-.946-.441-2.559a10.62 10.62 0 00-3.859-5.698c-1.183-.87-2.667-1.612-4.376-1.913-1.698-.28-3.612-.226-5.429.473-.914.322-1.795.806-2.612 1.408a9.572 9.572 0 00-2.172 2.193c-1.268 1.688-1.978 3.86-1.999 6.096.021 2.236.731 4.407 1.999 6.095a9.391 9.391 0 002.183 2.193 9.46 9.46 0 002.612 1.408c1.817.699 3.73.753 5.429.473 1.709-.29 3.193-1.042 4.375-1.913a10.495 10.495 0 003.86-5.698c.419-1.612.354-2.558.43-2.558 0 0 .139.946-.226 2.612-.355 1.634-1.398 4.053-3.838 5.956-1.204.924-2.741 1.72-4.526 2.053-1.774.322-3.773.279-5.687-.441a10.301 10.301 0 01-2.752-1.462 9.923 9.923 0 01-2.3-2.3c-1.344-1.774-2.097-4.064-2.118-6.418.021-2.355.785-4.644 2.118-6.418a10.151 10.151 0 012.3-2.3c.86-.635 1.785-1.14 2.752-1.463 1.914-.72 3.924-.763 5.687-.44 1.785.333 3.322 1.128 4.526 2.053 2.44 1.903 3.472 4.332 3.838 5.955.365 1.667.226 2.613.226 2.613zM377.206 105.159c-.075 0-.021-.946-.441-2.559a10.613 10.613 0 00-3.859-5.697c-1.183-.87-2.666-1.613-4.375-1.914-1.699-.28-3.612-.225-5.429.473a10.11 10.11 0 00-2.613 1.409 9.563 9.563 0 00-2.171 2.193c-1.269 1.687-1.978 3.859-2 6.095.022 2.236.731 4.408 2 6.095a9.411 9.411 0 002.182 2.194 9.514 9.514 0 002.612 1.408c1.817.699 3.731.752 5.429.473 1.71-.29 3.193-1.043 4.376-1.914 2.386-1.795 3.451-4.117 3.859-5.697.419-1.624.355-2.57.43-2.559 0 0 .14.946-.226 2.612-.354 1.634-1.397 4.053-3.838 5.956-1.204.925-2.741 1.72-4.525 2.053-1.774.323-3.774.28-5.687-.44a10.314 10.314 0 01-2.752-1.462 10.17 10.17 0 01-2.301-2.301c-1.344-1.774-2.096-4.064-2.118-6.418.022-2.354.785-4.644 2.118-6.418a10.157 10.157 0 012.301-2.3c.86-.635 1.784-1.14 2.752-1.462 1.913-.72 3.924-.764 5.687-.441 1.784.333 3.321 1.129 4.525 2.053 2.441 1.903 3.473 4.332 3.838 5.956.366 1.666.226 2.612.226 2.612z" fill="#263238"/><path d="M63.47 102.902c.108.107-1.73 2.236-4.117 4.751-.387.398-.753.785-1.108 1.161l-.193.194-.194-.183c-1.935-1.881-3.29-3.311-3.203-3.408.086-.097 1.602 1.183 3.58 3.021l-.387.011c.354-.376.72-.763 1.096-1.172 2.387-2.526 4.408-4.483 4.526-4.375z" fill="#fff"/><path d="M148.226 103.611H71.641v4.3h76.585v-4.3zM161.309 116.339c5.842 0 10.578-4.736 10.578-10.578s-4.736-10.578-10.578-10.578-10.579 4.736-10.579 10.578 4.737 10.578 10.579 10.578z" fill="#D5AC50"/><path d="M165.716 102.902c.108.107-1.731 2.236-4.117 4.751-.387.398-.753.785-1.108 1.161l-.193.194-.194-.183c-1.935-1.881-3.289-3.311-3.203-3.408.086-.097 1.602 1.183 3.58 3.021l-.387.011c.354-.376.72-.763 1.096-1.172 2.387-2.526 4.419-4.483 4.526-4.375z" fill="#fff"/><path d="M250.472 103.611h-76.585v4.3h76.585v-4.3z" fill="#D5AC50"/><path d="M354.308 105.159c0 .151-17.147.28-38.292.28-21.157 0-38.293-.129-38.293-.28 0-.15 17.147-.279 38.293-.279 21.145 0 38.292.118 38.292.279z" fill="#263238"/><path d="M426.474 71.65c0 .151-93.463.28-208.727.28-115.308 0-208.749-.118-208.749-.28 0-.15 93.441-.279 208.749-.279 115.264 0 208.727.13 208.727.28z" fill="#E0E0E0"/><path d="M373.132 165.694c0 .15-71.296.279-159.233.279-87.959 0-159.244-.129-159.244-.279 0-.151 71.285-.28 159.244-.28 87.937 0 159.233.119 159.233.28zM196.644 178.261c0 .01-.129.021-.365.032-.269.011-.624.021-1.075.032-.979.011-2.365.032-4.139.054-3.634.021-8.815.054-15.212.086-12.879.021-30.606.054-50.193.086-19.597-.032-37.325-.065-50.203-.086-6.397-.032-11.59-.065-15.212-.086-1.774-.022-3.15-.043-4.139-.054a69.794 69.794 0 01-1.075-.032c-.247-.011-.365-.022-.365-.032 0-.011.129-.022.365-.033.269-.01.624-.01 1.075-.032.978-.011 2.365-.032 4.139-.054 3.623-.021 8.815-.053 15.212-.086 12.878-.021 30.606-.053 50.203-.086 19.587.033 37.314.065 50.193.086 6.397.033 11.589.065 15.212.086 1.774.022 3.16.043 4.139.054.451.011.806.022 1.075.032.236.011.365.022.365.033zM340.601 196.547c0 .15-58.224.279-130.036.279-71.833 0-130.046-.129-130.046-.279 0-.151 58.213-.28 130.046-.28 71.812 0 130.036.119 130.036.28z" fill="#263238"/><path d="M64.212 200.696a5.688 5.688 0 01-5.687-5.686 5.689 5.689 0 015.687-5.687 5.689 5.689 0 015.687 5.687c-.011 3.139-2.559 5.686-5.687 5.686zm0-10.298a4.618 4.618 0 00-4.612 4.612 4.617 4.617 0 004.612 4.611 4.618 4.618 0 004.612-4.611c-.011-2.538-2.075-4.612-4.612-4.612z" fill="#E0E0E0"/><path d="M287.859 210.479s-.182.021-.537.032c-.376.011-.903.011-1.57.032-1.408.011-3.44.032-6.041.054-5.268.021-12.858.054-22.221.086-18.781.021-44.689.054-73.295.086-28.628-.032-54.536-.065-73.317-.086-9.364-.032-16.943-.065-22.221-.086-2.602-.022-4.633-.043-6.042-.054-.666-.011-1.193-.021-1.57-.032a7.236 7.236 0 01-.537-.032s.183-.022.538-.033c.376-.01.903-.01 1.57-.032 1.408-.011 3.44-.032 6.041-.054 5.268-.021 12.857-.053 22.221-.086 18.781-.021 44.689-.053 73.317-.086 28.617.033 54.514.065 73.295.086 9.363.033 16.942.065 22.221.086 2.601.022 4.633.043 6.041.054.678.011 1.194.022 1.57.032.355.011.537.033.537.033z" fill="#263238"/><path d="M64.211 216.155a5.69 5.69 0 01-5.687-5.687 5.69 5.69 0 015.687-5.687 5.69 5.69 0 015.687 5.687c-.01 3.139-2.558 5.687-5.687 5.687zm0-10.288a4.61 4.61 0 10-.002 9.226 4.61 4.61 0 00.002-9.226z" fill="#E0E0E0"/><path d="M64.21 212.984a2.505 2.505 0 100-5.01 2.505 2.505 0 000 5.01z" fill="#D5AC50"/><path d="M340.6 227.465c0 .15-58.223.279-130.035.279-71.833 0-130.046-.129-130.046-.279 0-.151 58.213-.28 130.046-.28 71.812 0 130.035.129 130.035.28z" fill="#263238"/><path d="M64.211 231.625a5.69 5.69 0 01-5.687-5.687 5.69 5.69 0 015.687-5.687 5.69 5.69 0 015.687 5.687c-.01 3.139-2.558 5.687-5.687 5.687zm0-10.299a4.61 4.61 0 10-.002 9.226 4.61 4.61 0 00.002-9.226z" fill="#E0E0E0"/><path d="M158.771 229.572c-5.181 2.3-6.364 6.514-6.439 8.998-.075 2.483.043 5.407-1.924 6.934-1.849 1.429-4.559.784-6.752 1.601-2.795 1.032-4.171 4.161-4.783 7.074-.613 2.913-.807 6.031-2.43 8.525-1.57 2.408-4.225 3.827-6.611 5.418-2.398 1.591-4.774 3.698-5.214 6.536-.635 4.064 2.945 8.214 1.472 12.062-.946 2.473-3.612 3.741-5.611 5.483-2.602 2.247-4.225 5.568-4.419 8.998-.182 3.429 1.075 6.912 3.408 9.428 1.882 2.021 4.612 3.451 7.343 3.064 2.655-.377 4.773-2.322 6.783-4.107a108.767 108.767 0 0124.349-16.362c2.29-1.118 4.774-2.311 5.956-4.569.591-1.139.796-2.44.978-3.709 2.473-16.931 4.935-33.852 7.407-50.784M183.894 213.479c-.999-3.731 1.183-7.784 4.419-9.901 3.225-2.118 7.267-2.613 11.126-2.505 3.967.118 8.375 1.096 10.568 4.407 1.376 2.086 1.612 4.73 2.827 6.902 3.451 6.128 13.04 6.246 16.781 12.191 3.559 5.654-.075 13.061.774 19.694.57 4.44 3.139 8.321 5.15 12.331 2.01 3.999 3.494 8.751 1.795 12.9-1.817 4.429-6.966 7.3-7.482 12.062-.634 5.913 6.364 11.309 4.214 16.846-1.591 4.106-7.558 5.665-8.203 10.019-.344 2.333 1.043 4.526 1.667 6.794 1.591 5.762-2.14 12.094-7.482 14.76-5.354 2.677-11.815 2.236-17.47.301-9.019-3.096-16.684-9.976-20.737-18.609-4.053-8.632-4.44-18.92-1.053-27.843" fill="#263238"/><path d="M123.403 270.906c-.032.033-.14-.44-.838-.763a2.136 2.136 0 00-1.355-.107c-.527.107-1.107.494-1.322 1.161-.237.655-.129 1.505.355 2.214.462.71 1.386 1.161 2.386 1.14 1-.011 2.053-.452 2.838-1.28.807-.817 1.366-1.935 1.72-3.16.753-2.484.538-5.375.807-8.461.161-1.548.494-3.16 1.268-4.655a7.668 7.668 0 011.527-2.064 6.788 6.788 0 012.279-1.354c1.698-.591 3.504-.667 5.278-.903 1.752-.226 3.612-.72 4.719-2.161 1.151-1.408 1.247-3.397 1.108-5.289-.119-1.914-.527-3.87-.387-5.934.172-2.043.849-4.01 1.978-5.655 1.107-1.655 2.687-2.988 4.536-3.633 1.882-.656 3.827-.398 5.601-.258 1.763.129 3.623.204 4.935-.828 1.343-.989 1.666-2.752 1.763-4.333.096-1.612.064-3.246.473-4.773.795-3.053 2.677-5.493 4.816-7.052a11.687 11.687 0 016.686-2.257c2.108-.054 3.903.43 5.247 1.01 1.365.57 2.3 1.258 2.891 1.752.592.495.85.817.85.817-.022.022-.312-.258-.925-.731a11.616 11.616 0 00-2.902-1.634 12.46 12.46 0 00-5.161-.892c-2.042.065-4.386.72-6.46 2.268-2.054 1.527-3.849 3.913-4.602 6.848-.387 1.462-.344 3.043-.43 4.698-.053.828-.139 1.677-.419 2.516-.269.838-.785 1.644-1.516 2.193-.72.58-1.644.86-2.558.967-.914.108-1.828.054-2.731-.01-1.806-.14-3.655-.366-5.386.247-1.72.602-3.214 1.849-4.257 3.429-1.075 1.559-1.72 3.451-1.881 5.386-.129 1.935.258 3.892.387 5.848.064.978.086 1.967-.075 2.946-.151.978-.527 1.946-1.151 2.72-.612.784-1.451 1.354-2.354 1.709-.892.355-1.817.527-2.73.645-1.806.236-3.58.312-5.182.86a6.188 6.188 0 00-2.107 1.236c-.591.548-1.064 1.215-1.441 1.914-.741 1.419-1.075 2.978-1.247 4.483-.29 3.02-.096 5.955-.892 8.525-.376 1.268-.978 2.44-1.849 3.3-.849.871-2.01 1.354-3.085 1.344-1.086.01-2.107-.506-2.602-1.301-.505-.785-.613-1.709-.333-2.44.258-.742.924-1.161 1.494-1.258a2.24 2.24 0 011.43.161c.742.366.806.871.806.849zM240.871 284.226c.01 0 .053.086.129.269.075.183.161.484.15.871 0 .774-.484 1.999-1.795 2.795-.634.398-1.494.666-2.43.505-.903-.172-1.827-.709-2.505-1.559a6.038 6.038 0 01-1.3-3.128c-.14-1.215.107-2.516.612-3.752 1.011-2.515 3.107-4.622 5.053-6.966.968-1.183 1.871-2.494 2.451-3.999.591-1.494.86-3.171.839-4.87a12.995 12.995 0 00-1.151-5.063c-.72-1.634-1.881-3.064-3.246-4.333-1.365-1.279-2.892-2.462-4.268-3.891-1.365-1.409-2.526-3.247-2.731-5.343-.215-2.086.366-4.075.914-5.934.581-1.871 1.129-3.688 1.269-5.548.344-3.687-.602-7.428-2.86-9.997-1.107-1.29-2.472-2.29-3.956-2.903-1.483-.645-3.064-.731-4.601-.699-1.527.011-3.096.054-4.494-.559-1.397-.602-2.332-1.816-2.881-3.02-1.118-2.473-1.075-4.935-1.559-6.934-.225-1.011-.526-1.925-.967-2.688-.419-.763-1.011-1.333-1.591-1.752-1.193-.828-2.387-.957-3.128-.817-.742.15-1.075.43-1.097.398 0 0 .301-.312 1.064-.506.753-.182 2.011-.086 3.268.753.624.419 1.247 1 1.699 1.795.473.785.795 1.72 1.043 2.741.516 2.032.516 4.483 1.612 6.838.538 1.15 1.419 2.257 2.688 2.795 1.279.548 2.773.516 4.311.483 1.537-.043 3.225.033 4.784.71 1.558.634 2.999 1.688 4.16 3.021 2.376 2.687 3.365 6.579 3.01 10.385-.151 1.924-.72 3.805-1.29 5.665-.548 1.849-1.097 3.773-.892 5.708.193 1.935 1.247 3.645 2.58 5.021 1.322 1.386 2.849 2.569 4.235 3.87 1.398 1.29 2.623 2.806 3.365 4.504a13.649 13.649 0 011.183 5.268c.021 1.763-.269 3.504-.893 5.063-.612 1.57-1.558 2.924-2.547 4.117-2 2.366-4.053 4.419-5.053 6.827-.505 1.182-.742 2.419-.624 3.558a5.776 5.776 0 001.194 2.967c.623.796 1.473 1.312 2.311 1.495.839.161 1.656-.065 2.258-.43 1.257-.731 1.763-1.882 1.795-2.613.086-.731-.161-1.107-.118-1.118z" fill="#263238"/><path d="M157.169 230.883c-2.042.559-3.15 2.881-3.15 4.999s.817 4.128 1.376 6.171c.559 2.042.828 4.332-.193 6.181-2.043 3.72-7.773 3.526-10.535 6.751-3.516 4.096-.237 10.869-2.774 15.631-2.311 4.343-8.772 5.698-10.052 10.449-.817 3.021.893 6.311.043 9.321-.967 3.418-4.751 5.149-6.751 8.084-2.01 2.956-1.999 6.977-.612 10.266 1.225 2.935 3.397 5.365 5.848 7.407.311.258.612.506.935.753l37.024-8.611 7.428-68.49-18.587-8.912z" fill="#263238"/><path d="M177.476 218.198a5.39 5.39 0 00-5.859 4.343l-12.212 71.919c-1.677 8.439 9.6 15.824 18.652 17.555 9.137 1.753 10.395-2.644 12.234-10.632 3.074-13.33 4.138-18.35 4.128-18.275 0 0 11.911.548 17.49-13.954 2.774-7.213 5.01-19.522 6.515-29.66 1.354-9.127-2.258-21.436-11.428-22.404l-29.52 1.108z" fill="#FFBE9D"/><path d="M213.028 248.492c-.182 1.021-1.193 1.72-2.268 1.548-1.075-.172-1.795-1.129-1.613-2.161.183-1.021 1.194-1.72 2.269-1.548 1.075.172 1.795 1.14 1.612 2.161zM214.414 246.557c-.29.204-1.516-1.194-3.59-1.624-2.065-.462-3.806.28-3.978-.021-.086-.14.258-.538 1.021-.882.753-.344 1.967-.569 3.258-.29 1.29.28 2.268.989 2.795 1.613.516.613.634 1.118.494 1.204zM192.398 244.052c-.182 1.021-1.193 1.72-2.268 1.548-1.075-.172-1.795-1.129-1.612-2.161.182-1.021 1.193-1.72 2.268-1.548 1.075.161 1.795 1.129 1.612 2.161zM193.978 241.923c-.29.205-1.526-1.193-3.59-1.623-2.064-.462-3.806.28-3.978-.021-.086-.14.247-.538 1.021-.882.753-.344 1.968-.57 3.258-.29 1.29.279 2.268.989 2.795 1.612.516.624.634 1.118.494 1.204zM198.213 258.296c.011-.118 1.355-.064 3.494.108.538.053 1.064.064 1.226-.28.204-.355.107-.967-.022-1.645l-.71-4.364c-.946-6.192-1.515-11.245-1.268-11.277.247-.032 1.225 4.956 2.172 11.148.225 1.526.43 2.978.634 4.364.075.645.269 1.398-.172 2.129-.226.365-.677.57-1.032.591-.366.033-.656-.021-.925-.064-2.107-.323-3.418-.592-3.397-.71z" fill="#263238"/><path d="M194.419 283.108s-10.234-1.505-18.953-9.643c0 0 2.806 11.675 18.125 13.47l.828-3.827z" fill="#DFA68A"/><path d="M196.278 263.102c-.537-1.14-1.72-1.968-3.053-2.097-.924-.096-1.924.14-2.623.764-.698.612-1.042 1.634-.688 2.429.387.903 1.516 1.333 2.57 1.269 1.053-.076 2.042-.538 2.988-1.011.258-.129.527-.269.72-.484.194-.215.291-.526.162-.774" fill="#FFBE9D"/><path d="M191.817 258.436c.344.054-.129 2.301 1.451 4.311s4.031 2.268 3.978 2.591c0 .15-.624.322-1.645.14-1-.183-2.376-.807-3.354-2.032-.968-1.226-1.193-2.645-1.075-3.58.118-.978.494-1.484.645-1.43zM195.677 237.914c-.323.516-2.333-.194-4.827-.409-2.484-.279-4.601.022-4.816-.559-.097-.268.365-.731 1.268-1.107s2.268-.623 3.763-.473c1.494.151 2.773.667 3.59 1.215.817.548 1.172 1.086 1.022 1.333zM214.93 242.826c-.462.398-1.784-.397-3.494-.784-1.698-.452-3.235-.355-3.461-.925-.097-.269.236-.688.967-1 .721-.311 1.839-.451 3.01-.161 1.172.29 2.097.935 2.591 1.537.495.613.592 1.14.387 1.333z" fill="#263238"/><path d="M188.377 215.445c-2.934-3.053-7.159-5.074-11.406-4.783-4.246.29-8.342 3.182-9.352 7.224-.656 2.634-.119 5.697-1.817 7.826-1.613 2.032-4.569 2.365-6.88 3.591-3.634 1.924-5.558 6.46-4.408 10.374.989 3.354 3.956 6.299 3.515 9.761-.419 3.246-3.687 5.364-5.02 8.363-1.473 3.312-.322 7.3 1.924 10.192 2.258 2.892 5.451 4.902 8.579 6.858 2.44 1.527 5.063 3.107 7.955 3.075 3.43-.032 6.536-2.548 7.687-5.708 1.15-3.161.526-6.784-1.172-9.729-1.473-2.537-3.784-4.924-3.644-7.827.215-4.515 6.192-6.977 6.815-11.459.323-2.312-.871-4.537-1.806-6.687-.935-2.161-1.591-4.762-.312-6.719 1.667-2.548 5.462-2.483 8.106-4.042 2.204-1.301 3.548-3.892 3.311-6.418-.236-2.526-2.021-4.87-4.44-5.805" fill="#263238"/><path d="M187.496 211.715c-.656 2.999.086 6.278 1.967 8.697 1.881 2.419 4.88 3.945 7.955 4.042 2.387.075 5.139-.537 6.859 1.107 1.806 1.731 1.214 4.892 2.72 6.902 2.15 2.87 6.815 1.623 9.954 3.333 2.43 1.322 3.516 4.149 4.784 6.611 1.269 2.451 3.429 4.988 6.182 4.784.333-2.365.677-4.752.462-7.138-.215-2.376-1.032-4.784-2.709-6.483-.925-.935-2.075-1.623-2.903-2.644-1.774-2.204-1.623-5.332-2.429-8.041-1.043-3.494-3.87-6.408-7.343-7.526-2.881-.935-6.117-.709-8.837-2.053-2.01-.989-3.569-2.773-5.633-3.644-4.02-1.699-8.568.473-12.255 2.806" fill="#263238"/><path d="M132.606 298.277s-.42-.043-1.151-.377c-.72-.333-1.752-.989-2.655-2.236a7.734 7.734 0 01-1.441-5.257c.183-2.16 1.269-4.568 3.269-6.439.999-.935 2.193-1.709 3.332-2.612 1.129-.893 2.258-1.968 2.688-3.44.44-1.462.096-3.097 0-4.795a9.946 9.946 0 011.096-5.149 11.019 11.019 0 013.666-4.15c1.559-1.097 3.537-1.677 5.493-1.731 1.957-.097 3.935.108 5.87-.161.968-.129 1.914-.398 2.731-.914.827-.505 1.472-1.258 1.945-2.118.925-1.763 1.183-3.805 1.677-5.751.237-.978.549-1.957 1.033-2.849.483-.892 1.15-1.709 1.978-2.279 1.677-1.161 3.644-1.505 5.45-1.881 1.806-.355 3.58-.828 4.977-1.828.688-.494 1.258-1.15 1.581-1.892.344-.742.44-1.58.408-2.386-.097-1.634-.656-3.182-1.161-4.677-.494-1.505-.86-3.053-.72-4.579.075-.753.29-1.495.677-2.129a4.55 4.55 0 011.537-1.494c1.226-.71 2.537-.903 3.731-1.075 1.204-.172 2.333-.29 3.354-.57 2.042-.537 3.483-1.806 4.397-2.956a8.61 8.61 0 001.537-3.043c.204-.763.226-1.182.258-1.171 0 0 .021.419-.151 1.204-.172.774-.559 1.913-1.472 3.139-.903 1.204-2.365 2.537-4.483 3.128-1.043.301-2.193.43-3.387.613-1.182.183-2.461.398-3.579 1.064-1.129.645-1.892 1.903-1.989 3.322-.118 1.419.236 2.913.731 4.386.505 1.484 1.096 3.053 1.204 4.795.043.87-.065 1.784-.441 2.612-.365.838-.989 1.569-1.741 2.107-1.505 1.097-3.355 1.58-5.182 1.935-1.806.376-3.709.742-5.235 1.806-1.548 1.064-2.344 2.913-2.785 4.827-.484 1.914-.731 3.978-1.72 5.88-.494.936-1.225 1.785-2.139 2.333-.903.559-1.935.849-2.946.989-2.031.269-4.01.054-5.912.151-3.838.021-7.171 2.472-8.73 5.558a9.638 9.638 0 00-1.064 4.891c.086 1.645.441 3.333-.043 4.945-.484 1.623-1.709 2.752-2.859 3.644-1.172.903-2.365 1.656-3.333 2.559-1.946 1.795-3.021 4.107-3.225 6.181a7.5 7.5 0 001.301 5.107c.849 1.225 1.827 1.903 2.526 2.257.699.387 1.107.473 1.097.506zM221.758 321.056c-.032-.032.387-.301.946-1.021.538-.72 1.15-1.978 1.236-3.72.108-1.72-.29-3.859-1.429-6.052-1.054-2.225-2.752-4.526-3.87-7.493-1.075-2.967-1.237-6.622-.033-10.159a15.066 15.066 0 012.838-4.999c1.301-1.505 2.882-2.774 4.139-4.365 1.215-1.558 2.14-3.655 1.527-5.654-.613-2.011-2.43-3.408-4.032-4.978-.806-.784-1.601-1.666-2.16-2.709-.57-1.042-.871-2.214-.989-3.397-.226-2.386.322-4.773 1.171-7.02.871-2.257 2.021-4.321 2.978-6.418.957-2.085 1.753-4.246 1.925-6.439.354-4.408-1.602-8.697-4.634-11.352-1.516-1.355-3.386-2.118-5.042-3.236-.817-.559-1.591-1.226-2.118-2.075-.548-.849-.731-1.827-.903-2.72-.172-.903-.354-1.763-.827-2.462-.441-.72-1.108-1.257-1.828-1.655-1.462-.796-3.074-1.129-4.59-1.494-1.516-.355-2.989-.774-4.247-1.452-1.268-.655-2.332-1.494-3.225-2.375-1.795-1.753-2.881-3.688-3.483-5.333-.602-1.655-.795-3.02-.827-3.945-.033-.924.032-1.408.032-1.408.118-.022-.237 1.999 1.01 5.267a14.432 14.432 0 003.505 5.182 13.373 13.373 0 003.171 2.279c1.236.645 2.645 1.043 4.171 1.376 1.516.355 3.15.667 4.709 1.505.763.419 1.505 1 1.999 1.795.527.785.731 1.731.903 2.624.172.903.355 1.795.85 2.558.484.763 1.193 1.387 1.989 1.924 1.591 1.065 3.515 1.839 5.106 3.258 3.161 2.752 5.203 7.181 4.838 11.782-.183 2.301-1 4.515-1.968 6.633-.967 2.118-2.118 4.182-2.956 6.386-.828 2.193-1.355 4.515-1.14 6.772.108 1.118.387 2.226.914 3.193.516.968 1.258 1.806 2.053 2.58.796.774 1.635 1.516 2.398 2.344.763.817 1.43 1.774 1.763 2.87.333 1.097.247 2.279-.097 3.311-.344 1.043-.892 1.978-1.548 2.817-1.311 1.655-2.913 2.913-4.171 4.375a14.538 14.538 0 00-2.763 4.827c-1.193 3.429-1.064 6.988-.032 9.879 1.064 2.903 2.741 5.236 3.784 7.493 1.118 2.236 1.516 4.451 1.365 6.203-.118 1.774-.785 3.053-1.365 3.774-.602.688-1.043.924-1.043.924z" fill="#455A64"/><path d="M209.663 308.286s9.535 8.944 9.256 23.65c-.28 14.707 2.096 41.389 2.096 41.389l40.69 24.865-11.482 17.588-44.828-19.888-9.396-19.254 13.664-68.35z" fill="#D5AC50"/><path d="M222.09 409.058s1.516-2.913-2.752-5.138l-6.913-.011-13.491-23.285 10.772-72.339-18.405-13.986-40.733-3.623-14.233 73.21 18.2 33.261 36.089 14.835 31.466-2.924z" fill="#D5AC50"/><path d="M157.75 291.214l.807-6.902a2.183 2.183 0 012.752-1.859c10.084 7.901 20.479 11.922 31.434 8.761a2.87 2.87 0 012.01 3.44l-4.257 17.297-11.148 3.333-14.717-2.881-6.87-12.707v-8.482h-.011z" fill="#D5AC50"/><path d="M193.032 295.976c.011.033-.44.334-1.3.796-.871.462-2.172 1.053-3.849 1.591-3.332 1.086-8.342 1.784-13.642.591-5.3-1.193-9.525-3.977-12.073-6.396-1.29-1.204-2.214-2.301-2.795-3.086-.591-.784-.86-1.257-.838-1.279.097-.075 1.29 1.763 3.902 4.075 2.58 2.3 6.741 4.966 11.933 6.138 5.182 1.172 10.095.548 13.406-.43 3.332-.968 5.203-2.107 5.256-2z" fill="#263238"/><path opacity=".2" d="M159.717 289.537c-.623 1.279-.279 2.859.506 4.053.784 1.193 1.945 2.075 3.085 2.924 3.945 2.935 8.052 5.859 12.782 7.202 4.73 1.344 10.277.85 13.911-2.483 1.053-.967 1.87-2.763.774-3.676-.817-.688-2.043-.269-3.042.118-4.827 1.849-10.278 2.021-15.212.494-4.934-1.526-9.331-4.751-12.266-8.998" fill="#000"/><path d="M154.095 367.853l66.566 35.691-24.016 14.513-45.786-13.428c-24.285-6.428-30.918-16.512-30.681-26.929.086-3.795-.355-40.808 1.279-58.954 2.226-24.726 29.101-28.059 29.101-28.059l-.473 21.146.301 25.812.914 23.693c2.43-1.215 3.042 3.343 3.042 3.343l-.247 3.172z" fill="#D5AC50"/><path d="M150.859 364.155c-.15 0-.365-8.955-.462-19.996-.097-11.051-.054-20.006.097-20.006.15 0 .365 8.955.462 20.006.097 11.03.054 19.985-.097 19.996z" fill="#263238"/><path d="M153.859 369.067c-.076-.043.129-.44.236-1.118.108-.666.065-1.655-.451-2.537-.516-.881-1.355-1.408-1.989-1.634-.645-.247-1.097-.258-1.097-.344-.01-.064.463-.204 1.204-.032a3.795 3.795 0 012.355 1.731c.602 1.043.58 2.193.354 2.902-.215.731-.559 1.075-.612 1.032z" fill="#263238"/><path d="M153.859 369.068c.021 0 .032.043.118.096.075.065.215.151.387.248.355.215.881.505 1.559.881 1.365.742 3.364 1.796 5.837 3.086 5.02 2.58 11.847 6.074 19.394 9.944 7.546 3.859 14.383 7.353 19.415 9.922 2.429 1.258 4.407 2.29 5.858 3.042.645.344 1.161.624 1.581.85.354.204.548.311.537.333-.011.021-.215-.065-.58-.226-.43-.204-.968-.451-1.634-.763-1.473-.72-3.483-1.699-5.945-2.892a1547.214 1547.214 0 01-19.49-9.783c-7.579-3.87-14.417-7.428-19.329-10.094-4.892-2.634-7.88-4.429-7.708-4.644zM197.419 381.345c-.022.075-1.215-.215-3.118-.753a175.734 175.734 0 01-7.375-2.322 165.697 165.697 0 01-7.256-2.655c-1.838-.731-2.956-1.237-2.924-1.301.032-.075 1.193.301 3.064.935 2.031.699 4.536 1.559 7.299 2.505 2.763.935 5.268 1.784 7.31 2.483 1.871.613 3.021 1.032 3 1.108zM181.003 353.91c.032.021-.086.301-.322.784-.237.495-.645 1.172-1.226 1.968-.57.795-1.365 1.666-2.322 2.548a19.688 19.688 0 01-3.462 2.44 19.882 19.882 0 01-3.923 1.58c-1.258.333-2.419.516-3.408.57-.978.054-1.774.032-2.322-.043-.549-.065-.839-.118-.839-.161.011-.108 1.215.01 3.118-.194.957-.097 2.075-.322 3.3-.666a21.755 21.755 0 003.795-1.57 21.214 21.214 0 003.386-2.333c.957-.827 1.753-1.655 2.355-2.408 1.225-1.494 1.773-2.569 1.87-2.515zM150.58 318.057c-.086.011-.226-1.494-.581-3.902-.366-2.397-.968-5.73-2.505-9.073-1.537-3.344-3.859-5.87-5.826-7.235-1.968-1.398-3.462-1.785-3.419-1.892.011-.033.387.043 1.032.258.656.215 1.57.634 2.612 1.3 2.086 1.323 4.537 3.892 6.106 7.332 1.57 3.44 2.118 6.837 2.387 9.267.129 1.215.193 2.204.215 2.892.021.666.011 1.053-.021 1.053zM221.596 373.217c.032.086-.742.398-1.698 1.365-.946.946-2.14 2.398-3.172 4.182-1.064 1.763-1.784 3.494-2.15 4.784-.376 1.29-.376 2.139-.473 2.139-.053.011-.193-.86.086-2.236.28-1.365.957-3.171 2.054-4.977 1.064-1.817 2.332-3.279 3.386-4.182 1.053-.935 1.956-1.139 1.967-1.075z" fill="#263238"/><path opacity=".2" d="M211.674 399.383c2.214-4.246 1.666-9.395.419-14.018-1.247-4.623-3.15-9.127-3.505-13.9-.311-4.139.549-8.267 1.387-12.331.828-4.063 1.634-8.213 1.204-12.341-.43-4.128-2.279-8.299-5.751-10.578 1.376 3.429 2.773 6.901 3.236 10.567.462 3.666-.108 7.612-2.344 10.557-1.139 1.505-2.698 2.741-3.44 4.472-.989 2.312-.839 4.935-1.58 7.257-.807 2.547-2.269 11.083-2.269 11.083-.096.473 2.527 5.3 5.128 8.74 2.602 3.44 5.741 6.536 7.622 10.428" fill="#000"/><path d="M211.835 399.093c-.011.01-.108-.097-.269-.323-.194-.258-.43-.58-.731-.978-.656-.914-1.57-2.172-2.698-3.741-2.323-3.279-5.569-7.869-9.407-13.298l-.064-.086.021-.108c1.043-5.128 2.236-10.965 3.483-17.146.129-.656.269-1.301.398-1.935l.021-.076.054-.064c4.107-4.193 6.257-9.772 6.139-14.642-.248-4.902-2.086-9.052-4.258-11.589l-.043-.043v-.054c-.172-2.741-.311-4.934-.408-6.504-.032-.709-.065-1.29-.086-1.73-.011-.398-.011-.602 0-.602.021 0 .043.204.097.591.043.441.107 1.01.172 1.72.139 1.57.333 3.752.569 6.493l-.043-.107c2.29 2.58 4.193 6.762 4.494 11.793.14 2.537-.473 5.203-1.494 7.794a22.374 22.374 0 01-4.752 7.256l.075-.14c-.129.635-.258 1.28-.397 1.935-1.28 6.171-2.484 12.008-3.548 17.126l-.043-.194a8570.252 8570.252 0 019.235 13.416c1.085 1.602 1.945 2.892 2.58 3.817.268.419.494.752.666 1.021.183.269.247.387.237.398z" fill="#263238"/><path opacity=".2" d="M163.512 363.961c-.666-.516-1.698.29-1.655 1.14.043.849.742 1.494 1.462 1.935 1.967 1.204 4.386 1.515 6.686 1.333 2.86-.226 5.73-1.226 7.816-3.193 2.085-1.967 3.268-4.988 2.634-7.794-.054-.226-.119-.462-.28-.624-.537-.559-1.44.065-1.978.624-3.676 3.892-8.89 6.3-14.233 6.558M150.526 363.499c-2.472-1.097-5.644-.28-7.278 1.86-.527.688-.892 1.655-.441 2.386.377.602 1.205.796 1.893.635.698-.162 1.29-.602 1.849-1.032a86.258 86.258 0 003.622-2.957c.172-.139.344-.301.42-.505.075-.204.01-.484-.194-.57" fill="#000"/><path d="M144.904 369.111c-.065-.011-.011-.549.312-1.334.322-.784.978-1.806 1.967-2.676.989-.86 2.085-1.376 2.913-1.591.828-.226 1.355-.205 1.365-.14.043.161-2.053.484-3.913 2.15-1.892 1.623-2.483 3.655-2.644 3.591z" fill="#263238"/><path d="M125.113 332.463c-.151 0-.14-4.3.021-9.6.172-5.3.43-9.589.581-9.579.15 0 .14 4.301-.022 9.6-.172 5.3-.43 9.59-.58 9.579zM129.896 347.46c-.151 0-.29-5.15-.301-11.503-.011-6.354.107-11.503.269-11.503.15 0 .29 5.149.301 11.503 0 6.353-.119 11.503-.269 11.503zM138.486 309.447c.075 0 .108 1 .097 2.612a205.6 205.6 0 01-.161 6.289 197.373 197.373 0 01-.334 6.278c-.118 1.613-.226 2.602-.301 2.602-.075 0-.107-1-.097-2.613.011-1.612.065-3.837.162-6.299.096-2.462.215-4.677.333-6.289.118-1.591.226-2.58.301-2.58zM144.774 340.31c-.15 0-.279-3.321-.268-7.406 0-4.096.129-7.407.29-7.407.15 0 .279 3.321.269 7.407 0 4.095-.129 7.406-.291 7.406zM137.722 357.221c-.151-.011-.118-3.139.075-6.988.194-3.849.473-6.966.634-6.955.162.01.119 3.139-.075 6.987-.204 3.849-.484 6.966-.634 6.956zM123.328 371.346c-.151 0-.334-3.074-.398-6.88-.065-3.805.011-6.891.161-6.891.151 0 .333 3.075.398 6.88.064 3.795-.011 6.881-.161 6.891zM129.853 372.389c-.15-.01-.161-2.236-.01-4.988.15-2.741.397-4.966.548-4.956.15.011.161 2.237.011 4.989-.151 2.752-.398 4.966-.549 4.955zM164.372 380.248c-.064.129-3.021-1.14-6.45-3.118-3.44-1.978-6.009-3.913-5.923-4.031.086-.129 2.795 1.58 6.203 3.547 3.407 1.968 6.235 3.451 6.17 3.602zM186.336 391.74c-.033.064-.893-.258-2.215-.914a50.435 50.435 0 01-5.01-2.881 47.365 47.365 0 01-4.633-3.462c-1.129-.956-1.763-1.612-1.72-1.677.107-.129 2.902 2.204 6.654 4.666 3.752 2.472 6.999 4.117 6.924 4.268zM187.722 398.05c-.065.14-2.43-.827-5.278-2.15-2.849-1.333-5.107-2.515-5.042-2.655.064-.14 2.429.828 5.278 2.15 2.849 1.322 5.106 2.516 5.042 2.655zM202.59 403.2c-.097.139-2.548-1.409-5.73-3.01-3.182-1.613-5.881-2.666-5.827-2.828.043-.14 2.86.688 6.074 2.322 3.225 1.624 5.569 3.397 5.483 3.516zM198.891 410.574c-.096.129-1.763-.924-3.87-2.117-2.107-1.204-3.87-2.097-3.805-2.236.053-.14 1.945.537 4.074 1.752 2.15 1.204 3.687 2.483 3.601 2.601zM147.053 366.122c-.15.011-.354-1.978-.451-4.429-.097-2.451-.054-4.451.107-4.462.151-.01.355 1.979.452 4.44.086 2.441.043 4.44-.108 4.451zM179.831 336.656c-.15.021-.634-2.731-1.075-6.149-.44-3.419-.666-6.203-.516-6.225.151-.021.635 2.731 1.075 6.149.441 3.419.667 6.214.516 6.225zM183.432 354.963c-.15 0-.322-2.924-.376-6.536-.054-3.612.032-6.536.183-6.547.15 0 .322 2.924.376 6.536.054 3.613-.032 6.537-.183 6.547zM161.792 357.576c-.139.032-.817-2.656-1.053-6.053-.247-3.397.032-6.16.183-6.149.161.011.139 2.742.376 6.106.236 3.354.656 6.063.494 6.096zM169.2 375.539c-.14.032-.785-2.505-1.043-5.708-.28-3.204-.075-5.816.075-5.806.161 0 .215 2.591.484 5.763.258 3.16.645 5.719.484 5.751zM172.392 349.728c-.151 0-.28-2.806-.28-6.279 0-3.472.129-6.278.28-6.278.15 0 .279 2.806.279 6.278 0 3.473-.118 6.279-.279 6.279zM163.502 328.109c.15 0 .279 2.107.279 4.709 0 2.601-.129 4.708-.279 4.708-.151 0-.28-2.107-.28-4.708 0-2.602.129-4.709.28-4.709zM172.596 312.241c.15 0 .322 1.871.365 4.182.043 2.312-.043 4.182-.193 4.193-.151 0-.323-1.871-.366-4.182-.054-2.311.032-4.193.194-4.193zM189.27 329.679c-.151.01-.527-3.967-.839-8.869-.312-4.913-.441-8.902-.279-8.912.15-.011.526 3.956.838 8.869.301 4.912.43 8.901.28 8.912zM194.709 361.059c-.15 0-.279-4.451-.279-9.934 0-5.493.129-9.933.279-9.933.151 0 .28 4.451.28 9.933 0 5.483-.129 9.934-.28 9.934zM184.949 377.098c-.151 0-.28-3.118-.28-6.977 0-3.849.129-6.977.28-6.977.15 0 .279 3.118.279 6.977 0 3.859-.129 6.977-.279 6.977zM193.839 386.515c-.151 0-.28-1.214-.28-2.698 0-1.494.129-2.698.28-2.698.15 0 .279 1.215.279 2.698 0 1.484-.129 2.698-.279 2.698zM199.762 320.616c.15 0 .279 2.849.279 6.364 0 3.515-.129 6.364-.279 6.364-.151 0-.28-2.849-.28-6.364 0-3.515.129-6.364.28-6.364zM193.667 298.47c.15 0 .279 3.784.279 8.461 0 4.665-.129 8.46-.279 8.46-.151 0-.28-3.784-.28-8.46 0-4.677.118-8.461.28-8.461zM182.153 300.739c.151 0 .28 2.58.28 5.751 0 3.182-.129 5.752-.28 5.752-.15 0-.279-2.58-.279-5.752 0-3.182.129-5.751.279-5.751zM208.556 327.012c-.15.011-.569-3.107-.634-6.998-.075-3.881.237-7.02.387-7.009.161.01.108 3.139.172 7.009.065 3.859.237 6.988.075 6.998zM213.608 338.784c-.15 0-.279-3.182-.279-7.106s.129-7.106.279-7.106c.151 0 .28 3.182.28 7.106 0 3.913-.129 7.106-.28 7.106zM216.716 359.446c-.151 0-.28-3.279-.28-7.332s.129-7.332.28-7.332c.15 0 .279 3.279.279 7.332 0 4.042-.129 7.332-.279 7.332zM209.609 370.777c-.15 0-.279-3.483-.279-7.772 0-4.301.129-7.773.279-7.773.151 0 .28 3.483.28 7.773 0 4.289-.129 7.772-.28 7.772zM204.051 383.882c-.15 0-.279-3.677-.279-8.224 0-4.537.129-8.224.279-8.224.151 0 .28 3.676.28 8.224 0 4.547-.129 8.224-.28 8.224zM216.275 377.001c-.151 0-.28-2.139-.28-4.773 0-2.633.129-4.773.28-4.773.15 0 .279 2.14.279 4.773 0 2.634-.129 4.773-.279 4.773zM228.208 400.243c-.064.14-3.73-1.257-8.202-3.128-4.472-1.871-8.042-3.494-7.988-3.644.065-.14 3.731 1.257 8.203 3.128 4.472 1.871 8.052 3.505 7.987 3.644zM242.462 395.954c-.054.15-3.978-1.118-8.762-2.827-4.794-1.71-8.632-3.215-8.578-3.355.053-.15 3.977 1.119 8.772 2.828 4.784 1.709 8.622 3.203 8.568 3.354zM232.443 386.429c-.075.14-2.698-1.064-5.88-2.687-3.182-1.623-5.698-3.043-5.622-3.182.075-.14 2.698 1.064 5.88 2.687 3.171 1.624 5.687 3.053 5.622 3.182zM137.787 298.406c.107.129-1.591 1.677-3.279 3.934-1.699 2.247-2.731 4.301-2.881 4.236-.129-.054.688-2.268 2.43-4.569 1.741-2.322 3.644-3.719 3.73-3.601zM152.504 302.48c-.151.033-.591-1.462-.978-3.343s-.581-3.419-.43-3.451c.15-.032.591 1.462.978 3.344.387 1.881.58 3.418.43 3.45z" fill="#FAFAFA"/><path d="M214.037 413.552l71.113-34.54a23.666 23.666 0 0122.683 1.096c12.417 7.601 15.093 24.489 5.644 35.562l-30.81 36.056-78.66 10.88-7.364-44.549 8.74-13.535 8.654 9.03z" fill="#263238"/><path d="M256.985 428.302c.021.032-.291.29-.871.72-.581.43-1.43 1.043-2.505 1.774a183.469 183.469 0 01-8.514 5.45 171.942 171.942 0 01-8.805 4.978 85.465 85.465 0 01-2.73 1.386c-.656.312-1.021.473-1.043.43-.021-.032.312-.258.935-.623.731-.43 1.613-.935 2.645-1.537a536.258 536.258 0 008.697-5.107 538.288 538.288 0 008.589-5.3c1.011-.634 1.882-1.171 2.602-1.623.634-.387.978-.58 1-.548z" fill="#455A64"/><path d="M106.804 430.957s7.063-34.1 10.697-39.346c3.633-5.246 11.298-16.985 20.984-18.2 9.686-1.215 29.477 10.406 33.089 14.975 9.117 11.546 66.641 72.457 65.942 71.65l-18.544 12.793-19.587-6.203h-56.224c-.021-.01-38.969-6.6-36.357-35.669z" fill="#263238"/><path d="M199.363 466.605c0 .021-.301 0-.86-.043-.569-.022-1.386-.172-2.44-.387-2.096-.473-5.063-1.441-8.557-3.021-6.999-3.15-16.158-8.622-25.339-15.857-9.277-7.105-17.329-14.007-22.661-19.533-2.645-2.763-4.687-5.117-5.88-6.912-.656-.849-1.022-1.613-1.312-2.086-.28-.494-.419-.752-.398-.763.022-.011.194.237.495.699.322.462.709 1.193 1.397 2.021 1.237 1.741 3.311 4.042 5.988 6.762 5.375 5.429 13.449 12.266 22.715 19.361 9.17 7.224 18.233 12.718 25.156 15.943 3.451 1.623 6.386 2.644 8.45 3.171 1.032.247 1.849.43 2.408.484.548.086.849.15.838.161zM174.176 458.994c.011.021-.237.172-.731.44-.538.291-1.247.688-2.14 1.183-.935.505-2.15.978-3.526 1.602-.688.322-1.472.537-2.268.827-.817.258-1.655.624-2.58.828-3.644 1.097-8.159 1.838-13.191 1.967a54.209 54.209 0 01-16.189-2.096 50.266 50.266 0 01-14.75-6.998c-1.01-.764-2.021-1.441-2.945-2.215-.925-.774-1.72-1.634-2.451-2.483a30.054 30.054 0 01-3.462-5.192c-1.795-3.376-2.602-6.408-2.913-8.504-.162-1.053-.226-1.881-.215-2.44 0-.559 0-.85.021-.85.065 0 .032 1.183.409 3.258.376 2.075 1.236 5.042 3.053 8.353a30.263 30.263 0 003.461 5.074c.731.828 1.505 1.666 2.419 2.408.903.752 1.924 1.419 2.924 2.171a50.516 50.516 0 0014.621 6.881 55.34 55.34 0 0016.028 2.117c4.988-.096 9.471-.795 13.105-1.827.924-.194 1.763-.538 2.58-.785.806-.279 1.591-.473 2.268-.785 1.376-.591 2.602-1.032 3.548-1.505.913-.451 1.634-.817 2.182-1.085.462-.237.731-.355.742-.344zM235.839 458.026c-.107.107-14.072-14.588-31.176-32.821-17.103-18.232-30.874-33.1-30.767-33.207.108-.108 14.072 14.588 31.176 32.82 17.104 18.233 30.875 33.1 30.767 33.208z" fill="#455A64"/><path d="M177.798 457.768s-12.717 5.171-11.384 11.105c1.322 5.923 7.891 8.676 14.513 8.041 6.633-.634 18.834-6.095 18.834-6.095l6.289-3.333s-7.643-.118-11.492-1.505c-4.472-1.602-16.76-8.213-16.76-8.213z" fill="#D5AC50"/><path d="M193.526 468.153l45.108 7.095 95.301-9.493-52.246-14.319-88.131 12.675a2.04 2.04 0 00-1.752 2.031c-.011 1 .731 1.86 1.72 2.011z" fill="#455A64"/><path d="M250.781 403.458l-10.922 64.566c-.613 3.633 2.397 6.859 6.074 6.493l88.012-8.772a5.58 5.58 0 004.945-4.558l11.901-65.362c.666-3.676-2.387-6.966-6.095-6.558l-88.991 9.568a5.58 5.58 0 00-4.924 4.623z" fill="#455A64"/><path d="M191.795 466.132c0-.011.086 0 .236.01.183.022.409.054.699.086.645.086 1.548.215 2.677.377 2.376.355 5.741.86 9.944 1.483 8.482 1.312 20.275 3.139 33.681 5.214l-.312.226c.559-3.365 1.129-6.87 1.72-10.46 2.655-15.889 5.052-30.262 6.805-40.711.892-5.171 1.612-9.375 2.128-12.331.258-1.419.463-2.537.602-3.343.076-.355.129-.645.172-.871.043-.194.065-.29.076-.29.01 0 0 .107-.022.301-.032.225-.064.516-.118.881-.118.807-.29 1.935-.505 3.365-.463 2.956-1.129 7.171-1.946 12.352-1.709 10.46-4.053 24.844-6.644 40.744-.591 3.579-1.172 7.084-1.731 10.449l-.043.269-.268-.043c-13.406-2.15-25.178-4.042-33.649-5.397-4.182-.699-7.546-1.258-9.911-1.645-1.129-.193-2.022-.355-2.667-.462a41.083 41.083 0 00-.688-.129c-.161-.043-.236-.065-.236-.075z" fill="#263238"/><path d="M305.779 431.419c0 3.505-2.537 6.343-5.654 6.343-3.128 0-5.655-2.838-5.655-6.343s2.537-6.343 5.655-6.343c3.128 0 5.654 2.838 5.654 6.343z" fill="#FAFAFA"/><path d="M173.166 255.599c2.268 3.364 4.569 6.783 5.848 10.642 1.268 3.86 1.408 8.278-.57 11.826-1.645 2.956-4.676 5.256-5.181 8.6-.86 5.687 5.966 9.89 6.45 15.62.279 3.268-1.591 6.321-3.698 8.826-2.118 2.505-4.591 4.784-5.967 7.762-1.376 2.977-1.301 6.966 1.247 9.03-3.139-.882-6.396 2.451-9.492 1.419-2.634-.871-3.333-4.214-3.591-6.977-1.301 1.634-1.752 3.902-1.172 5.913-4.773-4.838-5.912-12.869-2.687-18.856 1.881-3.483 5.138-6.569 5.085-10.525-.054-4.332-4.075-7.568-5.214-11.75-.774-2.86-.129-5.913.731-8.751.86-2.838 1.956-5.654 2.075-8.621.118-2.967-.151-4.15-2.699-5.677" fill="#263238"/><path d="M165.265 327.281c0 .011-.086 0-.237-.043a2.856 2.856 0 01-.666-.215 4.695 4.695 0 01-2.043-1.763c-.666-.978-1.171-2.419-1.128-4.117.032-1.71.795-3.559 1.967-5.311 1.161-1.774 2.763-3.44 4.257-5.354 1.451-1.902 2.924-4.235 2.913-6.944.022-2.72-1.473-5.322-3.128-7.773-1.666-2.451-3.623-5.074-4.203-8.342-.291-1.612-.054-3.333.677-4.762.72-1.441 1.774-2.613 2.806-3.709 1.042-1.097 2.096-2.107 2.924-3.257.838-1.14 1.494-2.398 1.677-3.709.204-1.312-.161-2.613-.839-3.688-.666-1.085-1.537-2.01-2.333-2.956-1.655-1.86-2.633-4.096-2.913-6.203-.301-2.107.011-4.063.624-5.633a11.457 11.457 0 012.268-3.634 10.648 10.648 0 012.064-1.741c.258-.172.462-.28.602-.355.14-.075.215-.107.215-.097.054.065-1.183.613-2.731 2.344a11.433 11.433 0 00-2.128 3.601c-.57 1.527-.839 3.43-.527 5.461.301 2.032 1.236 4.15 2.881 5.956.785.935 1.677 1.86 2.398 2.999.72 1.129 1.15 2.58.924 4.01-.204 1.441-.903 2.763-1.763 3.946-.86 1.204-1.935 2.246-2.967 3.321-1.021 1.086-2.032 2.226-2.709 3.569a7.021 7.021 0 00-.624 4.419c.549 3.085 2.43 5.654 4.107 8.127.838 1.247 1.623 2.526 2.225 3.87.592 1.344.979 2.774.957 4.203.011 1.43-.408 2.796-.989 3.989-.581 1.204-1.322 2.257-2.075 3.236-1.537 1.945-3.139 3.569-4.289 5.289-1.161 1.698-1.924 3.472-1.978 5.095-.065 1.624.387 3.032 1 3.989a4.769 4.769 0 001.902 1.784c.559.323.893.366.882.398z" fill="#455A64"/><path d="M240.688 425.399c-3.107-2.785.387-6.042-5.225-11.342-4.192-3.956-12.137-10.739-27.52-15.878l-9.632 17.211 16.77 5.418-.161 10.944a4.01 4.01 0 004.053 4.064l8.707-.108s-2.537 10.74-2.118 11.396c1.194 1.87 3.763 1.01 4.107-.441.344-1.452 7.504-18.802 7.504-18.802s4.676 4.042 5.343 1.73c-.011 0 1.268-1.408-1.828-4.192z" fill="#FFBE9D"/><path d="M217.264 436.074c-.032-.065.408-.323.978-.893.581-.559 1.247-1.472 1.656-2.634a7.191 7.191 0 00.344-3.096c-.097-.806-.28-1.279-.215-1.311.043-.022.322.43.505 1.258.183.827.193 2.042-.237 3.279-.43 1.236-1.193 2.182-1.849 2.719-.655.549-1.161.721-1.182.678zM222.864 435.719c-.107-.086 1.172-1.322 1.677-3.365.538-2.032.022-3.73.151-3.752.043-.01.247.387.376 1.086.129.699.151 1.709-.118 2.774-.28 1.064-.785 1.935-1.236 2.483-.452.548-.817.806-.85.774zM229.616 429.419c.054-.011.162.344.172.946a5.78 5.78 0 01-.462 2.269c-.366.838-.882 1.505-1.322 1.902-.441.409-.774.57-.807.527-.086-.097 1.065-1 1.731-2.602.699-1.591.559-3.042.688-3.042z" fill="#FFBE9D"/><path d="M457.864 379.13c.968-3.354 3.043-6.59 6.235-7.966 3.333-1.441 7.192-.624 10.6.623 3.408 1.236 6.762 2.892 10.374 3.118 3.623.225 7.708-1.495 8.794-4.956 1.021-3.257-.946-6.73-3.397-9.084-5.16-4.967-12.922-7.074-19.888-5.407-6.966 1.677-12.922 7.073-15.266 13.846" fill="#D5AC50"/><path opacity=".5" d="M457.864 379.13c.968-3.354 3.043-6.59 6.235-7.966 3.333-1.441 7.192-.624 10.6.623 3.408 1.236 6.762 2.892 10.374 3.118 3.623.225 7.708-1.495 8.794-4.956 1.021-3.257-.946-6.73-3.397-9.084-5.16-4.967-12.922-7.074-19.888-5.407-6.966 1.677-12.922 7.073-15.266 13.846" fill="#000"/><path d="M429.182 393.674c-5.311-5.041-5.042-13.824-2.397-20.662 2.644-6.826 8.428-12.072 14.889-15.534 12.524-6.697 28.176-7.202 41.098-1.333-6.353.215-12.492 3.817-15.771 9.267-2.913 4.838-3.558 10.697-5.966 15.803-2.677 5.687-7.6 10.277-13.448 12.567-5.849 2.301-12.578 2.258-18.405-.108zM426.635 363.359c-5.881-6.945-6.665-18.082-5.795-27.145.871-9.051 2.967-18.168 1.538-27.155-.85-5.321-2.914-10.406-3.612-15.749-.699-5.343.29-11.384 4.429-14.835 4.762-3.967 12.255-3.032 17.2.688 4.956 3.719 7.816 9.568 9.912 15.405 4.601 12.804 6.299 27.005 2.515 40.077-3.784 13.072-12.663 24.758-25.682 28.703" fill="#D5AC50"/><path d="M423.807 420.314c-.021 0-.021-.28-.021-.796.01-.527 0-1.301.043-2.29.075-1.988.268-4.869.709-8.406.452-3.537 1.15-7.73 2.258-12.309 1.096-4.591 2.967-9.493 5.622-14.255 2.655-4.763 5.902-8.88 9.181-12.277a58.937 58.937 0 019.621-8.009c1.473-1.021 2.892-1.784 4.118-2.505a118.518 118.518 0 013.246-1.634c.893-.376 1.591-.666 2.118-.892.484-.194.742-.29.753-.28.01.011-.237.14-.71.366-.516.236-1.204.559-2.075.968-.881.462-1.956 1.021-3.193 1.698-1.204.731-2.601 1.516-4.052 2.548a59.98 59.98 0 00-9.493 8.03c-3.236 3.387-6.439 7.472-9.084 12.202-5.407 9.46-6.891 19.404-7.966 26.37a117.573 117.573 0 00-.86 8.375c-.054.956-.097 1.72-.14 2.29-.032.526-.053.806-.075.806z" fill="#263238"/><path d="M373.087 335.978c-10.879 6.569-10.847 12.546-9.03 18.179 1.817 5.644 8.493 9.557 14.029 7.45 3.129-1.194 5.397-3.913 7.332-6.644 1.935-2.73 3.752-5.655 6.472-7.622 2.709-1.967 6.643-2.709 9.374-.763" fill="#D5AC50"/><path opacity=".5" d="M373.087 335.978c-10.879 6.569-10.847 12.546-9.03 18.179 1.817 5.644 8.493 9.557 14.029 7.45 3.129-1.194 5.397-3.913 7.332-6.644 1.935-2.73 3.752-5.655 6.472-7.622 2.709-1.967 6.643-2.709 9.374-.763" fill="#000"/><path d="M364.938 343.17c2.849-3.935 9.869-5.074 14.309-3.107 4.44 1.957 7.687 5.848 10.6 9.729 2.913 3.881 5.74 7.987 9.772 10.686 4.031 2.698 9.664 3.676 13.674.957 2.634-1.785 4.171-4.892 4.644-8.042.484-3.149.022-6.364-.634-9.481-.957-4.559-2.526-9.332-6.181-12.223-4.075-3.236-9.719-3.387-14.911-3.215-5.956.194-12.008.645-17.598 2.709s-11.299 6.526-13.675 11.987z" fill="#D5AC50"/><path d="M414.766 411.595c-.011 0-.021-.086-.032-.236a29.707 29.707 0 01-.032-.699c-.022-.656-.054-1.559-.097-2.698-.065-2.387-.161-5.773-.29-9.933a615.655 615.655 0 00-.602-14.718c-.312-5.536-.721-11.621-1.559-17.952-.43-3.161-.925-6.257-1.806-9.117-.882-2.87-2.053-5.536-3.333-7.976-1.29-2.441-2.709-4.655-4.203-6.601a42.702 42.702 0 00-4.59-5.042c-3.086-2.816-6.042-4.547-8.149-5.547-.527-.247-.989-.484-1.408-.656-.409-.161-.764-.301-1.065-.408-.268-.108-.473-.194-.655-.258-.151-.065-.216-.097-.216-.108 0-.011.086.011.237.054.183.054.398.129.667.215.301.107.666.226 1.085.365.43.162.893.387 1.441.613 2.139.957 5.149 2.656 8.299 5.472a42.236 42.236 0 014.676 5.053c1.527 1.945 2.967 4.182 4.279 6.643 1.301 2.462 2.494 5.15 3.397 8.042.892 2.913 1.398 6.02 1.828 9.191.838 6.353 1.236 12.449 1.526 17.996.28 5.547.409 10.535.505 14.728.086 4.192.119 7.59.129 9.933v2.698c0 .291-.01.516-.01.699-.011.172-.011.247-.022.247zM418.68 416.519s-.613-1.613-1.193-4.677c-.57-3.053-.989-7.579-.495-13.126.462-5.547 1.881-12.062 4.15-19.049 2.236-6.999 5.267-14.481 7.858-22.533 1.279-4.031 2.376-8.009 3.129-11.922.763-3.913 1.236-7.729 1.548-11.374.612-7.299.526-13.91.344-19.447-.183-5.536-.484-10.019-.667-13.115-.086-1.527-.161-2.72-.215-3.569-.021-.387-.032-.699-.043-.925-.011-.204-.011-.312 0-.322.011 0 .022.107.043.311.022.237.054.538.097.925.075.849.172 2.043.301 3.558.236 3.096.591 7.569.817 13.116.226 5.547.344 12.169-.247 19.501-.291 3.665-.764 7.493-1.527 11.427-.742 3.935-1.838 7.945-3.128 11.976-2.602 8.073-5.644 15.545-7.891 22.522-2.279 6.955-3.72 13.427-4.225 18.942-.537 5.515-.161 10.008.344 13.061.269 1.527.516 2.699.731 3.494.097.376.161.677.215.903.043.215.065.323.054.323z" fill="#263238"/><path d="M445.652 421.432h-51.085l-1.161-9.837h52.246v9.837z" fill="#455A64"/><path d="M400.049 420.314l6.386 29.499h27.768l5.966-29.499h-40.12z" fill="#455A64"/><path d="M445.652 421.432c0 .139-11.234.215-25.08.172-13.857-.043-25.091-.183-25.08-.312 0-.129 11.234-.215 25.091-.172 13.846.043 25.069.183 25.069.312z" fill="#455A64"/><path d="M436.891 435.998c-.065.097-1.505-1.387-4.494-2.58a15.779 15.779 0 00-5.471-1.096c-2.118-.065-4.408.44-6.73 1.236-2.333.785-4.505 1.698-6.622 2.204-2.129.462-4.107.43-5.719.172-1.624-.258-2.871-.731-3.677-1.161-.398-.226-.699-.409-.882-.559-.193-.14-.29-.226-.279-.237.032-.043.441.258 1.247.634.817.366 2.053.785 3.644.989 1.581.205 3.516.205 5.569-.268 2.042-.516 4.214-1.441 6.568-2.236 2.344-.807 4.72-1.323 6.891-1.226a15.66 15.66 0 015.59 1.226 14.137 14.137 0 013.333 1.945c.355.28.623.516.795.688.162.162.248.248.237.269z" fill="#263238"/><path d="M436.503 437.966c-.064.097-1.451-1.344-4.321-2.548a14.72 14.72 0 00-5.279-1.086c-2.042-.053-4.267.409-6.503 1.172-2.247.753-4.365 1.623-6.375 2.172-2.011.548-3.913.741-5.504.612-1.592-.107-2.828-.559-3.602-.967-.387-.215-.677-.398-.86-.548-.183-.14-.279-.215-.269-.237.033-.043.42.247 1.204.602.785.344 2 .731 3.548.796 1.537.075 3.386-.14 5.354-.71 1.978-.559 4.074-1.44 6.342-2.193 2.269-.774 4.569-1.236 6.676-1.161 2.096.065 3.956.57 5.397 1.215a14.67 14.67 0 013.193 1.924c.344.269.602.505.763.667.161.182.247.279.236.29z" fill="#fff"/><path d="M437.396 434.042c-.064.097-1.559-1.408-4.622-2.72-1.516-.645-3.43-1.215-5.612-1.344-2.172-.15-4.547.409-6.945 1.226-2.408.806-4.644 1.785-6.858 2.236-2.215.398-4.247.28-5.913.011-1.666-.29-2.956-.764-3.795-1.204-.408-.226-.731-.42-.924-.57-.194-.151-.301-.237-.291-.247.033-.043.452.258 1.29.645.85.376 2.129.795 3.763 1.032 1.634.226 3.634.301 5.773-.108 2.118-.451 4.364-1.44 6.783-2.257 2.408-.828 4.87-1.398 7.128-1.215 2.246.161 4.192.785 5.719 1.483a16.302 16.302 0 013.408 2.054c.365.29.645.527.817.709.204.162.29.248.279.269z" fill="#fff"/><path d="M446.103 421.475c0 .129-11.492.247-25.661.247-14.179 0-25.671-.108-25.671-.247 0-.14 11.492-.248 25.671-.248 14.169 0 25.661.119 25.661.248z" fill="#263238"/></g><defs><clipPath id="clip0"><path fill="#fff" d="M0 0h494.147v477H0z"/></clipPath></defs></svg>