<svg width="533" height="538" fill="none" xmlns="http://www.w3.org/2000/svg"><g clip-path="url(#clip0)"><path d="M77.023 438.582v-39.74c21.798 0 39.739 17.942 39.739 39.74 0 21.798-17.941 39.739-39.74 39.739-21.453 0-39.24-17.372-39.739-38.825l39.74-.914z" fill="#E6EFF7"/><path d="M67.328 427.867l-39.74.902c0-10.348 4.047-21.205 11.262-28.621 7.214-7.417 17.526-11.736 27.873-12.009l.605 39.728zM493.142 51.677l29.795-4.557c2.492 16.34-8.899 31.849-25.239 34.34-16.339 2.493-31.848-8.899-34.34-25.238-2.492-16.34 8.899-31.849 25.239-34.34a30.105 30.105 0 017.867-.167l-3.322 29.962z" fill="#EFF9FF"/><path d="M502.812 21.822l-3.619 23.091 22.665-4.26s-3.335-12.933-19.046-18.83zM52.733 34.874H36.228v65.928h16.505V34.874zM77 49.256H60.494v51.547H77V49.256zM101.644 61.027H85.139v39.775h16.505V61.027zM124.464 77.177h-16.506v23.613h16.506V77.177z" fill="#E6EFF7"/><path d="M321.82 275.044c-.32-20.327 15.877-37.141 36.109-37.462 20.231-.332 36.962 15.948 37.295 36.275.32 20.327-15.877 37.141-36.109 37.461-20.243.332-36.975-15.936-37.295-36.274zm54.252-.879c-.154-9.718-8.152-17.502-17.835-17.348-9.671.155-17.419 8.188-17.265 17.918.154 9.718 8.152 17.502 17.835 17.348 9.67-.154 17.419-8.187 17.265-17.918z" fill="#EFF9FF"/><path d="M321.82 275.043c-.32-20.326 15.877-37.141 36.109-37.461l.308 19.247c-9.671.154-17.419 8.187-17.265 17.917.154 9.719 8.152 17.503 17.835 17.349l.308 19.246c-20.243.309-36.975-15.959-37.295-36.298z" fill="#E6EFF7"/><path d="M354.642 234.628c23.672-.38 42.563 17.989 42.943 41.78l-22.403.356c-.178-11.368-8.84-18.535-20.161-18.345l-.379-23.791z" fill="#E9F1F8"/><path d="M518.487 517.871c0 .166-110.461.308-246.684.308-136.282 0-246.719-.142-246.719-.308s110.437-.309 246.719-.309c136.223 0 246.684.143 246.684.309z" fill="#263238"/><path d="M314.665 218.656l-5.197 7.404-1.412 5.922 5.28 7.582 10.039-6.159 8.745-8.591c.57-.557.641-1.447.166-2.076l-1.424-1.934.19-.416a2.655 2.655 0 00-.89-3.251l-1.269-.89 4.77-6.075c.676-.855.7-2.065.071-2.955l-12.187 9.161-5.221-.107-1.661 2.385z" fill="#B78876"/><path d="M331.088 220.59c.047.06-.546.641-1.661 1.413-.57.379-1.199.83-2.065 1.21-.427.178-.973.297-1.531.154-.534-.107-1.115-.569-1.234-1.21-.13-.605.071-1.199.356-1.638.285-.451.617-.783.902-1.115.558-.593 1.08-1.163 1.602-1.721.926-.961 1.531-1.53 1.59-1.483.059.059-.427.724-1.27 1.768-.486.582-.985 1.175-1.495 1.804-.569.652-1.258 1.4-1.08 2.254.072.392.392.653.784.76.391.106.795.035 1.186-.107.76-.309 1.46-.736 2.029-1.056 1.139-.653 1.828-1.104 1.887-1.033z" fill="#AA6550"/><path d="M332.428 224.198c.059.059-.534.652-1.543 1.566-.51.451-1.068 1.021-1.922 1.471-.771.463-2.29.594-2.955-.64-.284-.617-.071-1.27.19-1.709.273-.463.582-.819.878-1.163a12.216 12.216 0 011.757-1.649c1.091-.831 1.886-1.151 1.922-1.092.047.083-.653.534-1.65 1.424a13.905 13.905 0 00-1.601 1.685c-.273.344-.57.7-.784 1.092-.213.379-.32.818-.154 1.162.154.345.57.57.973.629.404.06.807-.059 1.187-.225.747-.368 1.376-.914 1.898-1.305 1.056-.831 1.745-1.306 1.804-1.246zM318.106 228.576c-.071-.071.855-.64 1.579-2.136.367-.747.545-1.708.534-2.836-.024-1.091-.178-2.408-.938-3.381l-.463-.606.748.119a6.057 6.057 0 002.017-.024c.985-.166 1.899-.534 2.611-1.079.724-.546 1.163-1.294 1.258-2.053l.261.296c-1.78-.059-3.264-.118-4.308-.189-1.044-.06-1.637-.131-1.637-.19 0-.06.605-.095 1.637-.131a202.99 202.99 0 014.308-.035h.284l-.023.296c-.083.902-.606 1.839-1.424 2.457-.795.628-1.804 1.044-2.872 1.222a6.67 6.67 0 01-2.219.012l.285-.487c.902 1.222.985 2.611.997 3.762-.012 1.174-.261 2.242-.712 3.014a5.375 5.375 0 01-1.294 1.578c-.368.308-.605.415-.629.391z" fill="#AA6550"/><path d="M266.428 175.796c.072-.024-.32-.546-.213-1.578a4.331 4.331 0 01.629-1.745c.379-.629.949-1.246 1.613-1.934.665-.676 1.389-1.483 1.923-2.515a9.032 9.032 0 00.997-3.513 8.87 8.87 0 00-.618-3.987c-.51-1.317-1.269-2.539-2.017-3.773-.747-1.234-1.436-2.445-1.863-3.714-.439-1.258-.534-2.54-.284-3.726.51-2.385 1.803-4.319 2.42-6.159.677-1.815.665-3.476.332-4.509a4.007 4.007 0 00-.522-1.127c-.166-.237-.273-.332-.284-.32-.06.035.332.498.569 1.518.237 1.009.202 2.563-.51 4.296-.641 1.756-1.982 3.643-2.563 6.194-.285 1.27-.19 2.705.273 4.034.439 1.341 1.163 2.599 1.91 3.845.748 1.234 1.495 2.433 1.982 3.679a8.494 8.494 0 01-.273 7.036c-.475.973-1.139 1.744-1.78 2.445-.641.7-1.21 1.364-1.59 2.052a4.563 4.563 0 00-.57 1.899c-.023.558.095.973.214 1.234.107.261.214.368.225.368zM232.906 166.232c-.688 2.1-2.812 3.595-5.031 3.726-2.219.13-4.414-1.009-5.743-2.777-1.341-1.768-1.839-4.094-1.555-6.301.131-.997.404-1.993.238-2.99-.238-1.4-1.329-2.504-1.768-3.869-.772-2.444.89-5.161 3.192-6.289 2.302-1.127 5.031-.973 7.523-.415" fill="#263238"/><path d="M267.2 135.546c2.397 2.16 1.697 5.21.76 7.298-.95 2.088-2.101 4.224-1.994 6.514.107 2.338 1.519 4.403 2.278 6.622a12.576 12.576 0 01-.189 8.686c-.819 2.076-2.184 3.892-3.014 5.956-.831 2.065-1.045 4.628.344 6.361-1.234-.131-2.314-.997-2.931-2.089-.617-1.08-.819-2.349-.866-3.595-.167-4.723 1.839-9.434 1.008-14.085-.486-2.706-1.91-5.245-1.875-7.998.024-2.753 1.507-5.257 2.528-7.808 1.02-2.563 1.542-5.707-.143-7.891" fill="#263238"/><path d="M261.113 126.92c2.8.201 5.648 1.507 7.131 3.892 1.483 2.385 1.222 5.897-.997 7.641-2.088 1.638-5.185 1.317-7.499.012-1.697-.961-3.156-2.432-3.856-4.26-.7-1.827-.57-4.01.545-5.612 1.128-1.602 3.275-2.48 5.15-1.899" fill="#263238"/><path d="M263.368 126.504c-1.412-3.322-4.568-5.707-8.033-6.728-3.465-1.02-7.191-.783-10.692.083-3.5.867-6.823 2.338-10.11 3.797-2.397 1.068-4.853 2.172-6.751 3.987-1.875 1.792-3.097 4.189-3.857 6.681-1.424 4.675-1.305 8.022.914 12.376.973 1.887.391 4.106 1.27 6.04.878 1.934 4.58 4.082 3.571 5.957" fill="#263238"/><path d="M255.808 185.087c.131-9.516.119-13.088.131-13.029 0 0 8.175-1.376 9.848-12.056.831-5.304.546-14.014.084-21.121-.416-6.396-4.676-14.24-11.06-13.551l-19.911 5.078c-1.934.214-3.394 1.863-3.346 3.809v50.858" fill="#B78876"/><path d="M263.474 146.167c.024.724-.558 1.341-1.317 1.389-.748.047-1.388-.511-1.412-1.235-.024-.723.558-1.34 1.317-1.388.759-.035 1.388.51 1.412 1.234zM263.996 142.726c-.166.178-1.211-.582-2.682-.582-1.471-.012-2.551.748-2.705.57-.083-.083.095-.404.557-.748.463-.344 1.246-.676 2.172-.676.913 0 1.685.344 2.136.688.451.344.605.665.522.748zM249.543 146.167c.024.723-.557 1.34-1.317 1.388-.747.047-1.388-.51-1.412-1.234-.024-.724.558-1.341 1.317-1.388.748-.036 1.377.51 1.412 1.234zM249.519 143.722c-.166.178-1.21-.581-2.682-.581-1.471-.012-2.551.747-2.705.569-.083-.083.095-.403.558-.747.463-.344 1.246-.677 2.171-.677.914 0 1.685.345 2.136.689.451.344.605.664.522.747zM254.883 154.627c-.012-.083.902-.249 2.385-.439.38-.036.736-.119.795-.368.083-.273-.071-.676-.249-1.115-.356-.914-.724-1.863-1.115-2.86-1.555-4.07-2.682-7.428-2.516-7.488.166-.059 1.555 3.192 3.109 7.262.38 1.009.736 1.958 1.068 2.884.142.427.392.914.202 1.471-.095.285-.38.487-.617.546-.238.071-.451.083-.641.095-1.483.083-2.409.095-2.421.012z" fill="#263238"/><path d="M255.939 172.047s-7.179.474-14.298-3.786c0 0 3.619 7.334 14.298 6.313v-2.527z" fill="#AA6550"/><path d="M250.16 139.403c-.142.403-1.614.214-3.346.427-1.733.178-3.121.688-3.358.332-.107-.166.142-.545.7-.937.558-.392 1.448-.759 2.48-.878s1.982.047 2.622.297c.641.261.962.569.902.759zM263.438 139.154c-.261.332-1.27-.012-2.492-.024-1.222-.059-2.255.225-2.492-.119-.107-.166.059-.51.51-.818.439-.321 1.187-.582 2.029-.558.843.024 1.567.332 1.994.664.427.344.57.689.451.855z" fill="#263238"/><path d="M254.266 158.009c-.499-.653-1.365-1.009-2.219-.914-.594.072-1.199.356-1.555.843-.356.486-.439 1.175-.107 1.637.368.522 1.151.641 1.804.451s1.222-.617 1.756-1.056c.143-.118.297-.249.392-.403.095-.166.107-.38 0-.51" fill="#AA6550"/><path d="M250.788 155.66c.226-.012.226 1.471 1.507 2.527 1.27 1.056 2.86.89 2.872 1.092.024.095-.356.285-1.02.308-.653.024-1.614-.19-2.397-.83-.784-.653-1.116-1.507-1.163-2.124-.06-.606.107-.973.201-.973zM263.711 129.352c-.51 3.382-5.85 3.928-9.196 3.275-2.207 2.884-5.957 4.497-9.564 4.118-.487-.048-1.009-.131-1.46.059-.486.202-.783.676-1.091 1.092a9.567 9.567 0 01-5.803 3.631c-.451 3.37-3.168 6.324-6.49 7.048 0 0-1.092-.546-.712-4.853.391-4.308-.083-13.278-.083-13.278L241 125.14l13.966-2.599c-.024-.024 9.6 1.092 8.745 6.811z" fill="#263238"/><path d="M225.039 147.175c.095.012-.047-1.175.724-3.002a7.671 7.671 0 012.077-2.8 7.669 7.669 0 014.129-1.745l.19-.023.047-.19c.428-1.697 1.234-3.56 2.765-4.889 1.472-1.305 3.88-1.958 5.838-.985l.321.166.118-.356c.048-.119.083-.249.131-.391 1.103-3.074 4.094-5.055 6.87-5.328a8.536 8.536 0 012.065.059c.688.071 1.412.142 2.112-.095.7-.237 1.175-.759 1.578-1.198.404-.463.772-.867 1.199-1.175 1.744-1.258 3.678-1.21 4.817-.926 1.175.297 1.721.76 1.757.7.011-.011-.119-.13-.38-.32-.285-.166-.7-.427-1.305-.605a6.037 6.037 0 00-5.15.807c-.985.629-1.578 1.863-2.682 2.242-1.115.356-2.539-.225-4.07-.047-2.99.273-6.194 2.349-7.404 5.696l-.143.427.451-.19c-2.278-1.115-4.912-.356-6.526 1.092-1.662 1.471-2.468 3.453-2.884 5.221l.238-.202a7.96 7.96 0 00-4.355 1.946 7.719 7.719 0 00-2.089 3.014 7.175 7.175 0 00-.486 2.29c-.024.522.024.807.047.807z" fill="#455A64"/><path d="M243.479 135.89c-.012.036.296.166.878.285.581.131 1.448.226 2.527.143 2.113-.131 5.198-1.223 7.274-3.916l-.391.095c.107.047.225.106.356.154a8.027 8.027 0 004.782.439 7.688 7.688 0 003.488-1.78 7.256 7.256 0 001.626-2.065c.285-.557.368-.89.332-.901-.107-.072-.593 1.269-2.242 2.634a7.537 7.537 0 01-3.323 1.554 7.77 7.77 0 01-4.414-.451c-.107-.047-.226-.095-.32-.142l-.238-.107-.154.202c-1.934 2.515-4.806 3.619-6.823 3.856-2.053.261-3.334-.118-3.358 0z" fill="#455A64"/><path d="M249.483 129.578c.024.189 1.566.047 3.382.474 1.815.404 3.156 1.199 3.251 1.044.107-.118-1.151-1.21-3.109-1.661-1.946-.451-3.56-.012-3.524.143zM253.531 129.233c.142.119.688-.344 1.376-.83.688-.499 1.282-.878 1.222-1.044-.059-.155-.83-.024-1.59.534-.771.545-1.139 1.234-1.008 1.34zM236.941 135.439c.071.178 1.412-.261 3.121-.201 1.697.035 3.026.546 3.097.368.083-.143-1.222-.962-3.085-1.009-1.851-.059-3.204.7-3.133.842zM233.986 141.147c0 .166 2.018.249 4.331-.57 2.326-.806 3.845-2.135 3.738-2.254-.106-.154-1.732.89-3.951 1.661-2.207.783-4.129.973-4.118 1.163zM226.701 145.229c.142.118 1.127-.985 2.777-1.555 1.637-.605 3.108-.368 3.132-.546.071-.154-1.507-.712-3.346-.047-1.839.653-2.717 2.088-2.563 2.148zM226.915 129.91c.047.012.166-.356.545-.926.38-.557 1.08-1.281 2.148-1.875 2.136-1.186 5.553-2.052 9.315-2.088 3.785-.047 7.179.676 9.588 1.27 2.42.605 3.904 1.068 3.927.973.012-.036-.344-.202-.996-.463a38.162 38.162 0 00-2.824-.949c-2.409-.7-5.839-1.519-9.719-1.472-3.868.048-7.345.985-9.54 2.338-1.092.676-1.792 1.495-2.136 2.136-.308.641-.344 1.044-.308 1.056z" fill="#455A64"/><path d="M226.048 135.689c.119.047.368-1.317 1.649-3.002 1.235-1.697 3.62-3.584 6.729-4.474 3.108-.878 6.111-.771 8.235-.629 2.135.154 3.453.332 3.476.237.012-.071-1.281-.415-3.429-.688-2.136-.261-5.209-.451-8.449.475-3.251.925-5.719 2.978-6.918 4.818-.605.913-.961 1.744-1.115 2.337-.19.582-.214.914-.178.926zM266.013 140.15c.012.059.973-.261 1.97-1.471.984-1.163 1.91-3.382 1.281-5.767-.664-2.374-2.575-3.833-4.011-4.343-1.471-.546-2.468-.344-2.444-.285-.012.119.949.083 2.278.7 1.306.581 2.979 1.97 3.572 4.094.558 2.124-.202 4.177-1.032 5.328-.831 1.198-1.673 1.649-1.614 1.744z" fill="#455A64"/><path d="M222.477 156.905c.059-.095-1.057-.605-2.647-1.661-.771-.546-1.649-1.282-2.278-2.338-.641-1.032-.902-2.42-.391-3.737a5.047 5.047 0 012.586-2.813c1.116-.498 2.267-.522 3.18-.379 1.875.308 2.825 1.151 2.884 1.044.024-.024-.178-.261-.641-.57a6.047 6.047 0 00-2.159-.902c-.973-.213-2.231-.237-3.501.285-1.258.522-2.409 1.638-2.955 3.133-.581 1.483-.249 3.144.487 4.26.724 1.139 1.697 1.886 2.539 2.397.843.51 1.567.83 2.077 1.032.51.202.795.285.819.249zM221.979 156.988c-.036-.012-.202.321-.439.95a25.15 25.15 0 00-.855 2.705c-.285 1.163-.534 2.611-.439 4.224.095 1.602.558 3.418 1.721 4.937 1.163 1.519 2.907 2.432 4.568 2.551 1.685.154 3.157-.653 3.952-1.602.818-.949 1.103-1.982 1.103-2.658 0-.688-.166-1.044-.19-1.032-.059.011.024.379-.059 1.02-.071.629-.392 1.555-1.187 2.385a4.264 4.264 0 01-3.571 1.317c-1.484-.13-3.062-.973-4.106-2.349-1.056-1.388-1.519-3.073-1.638-4.592-.13-1.531.072-2.931.285-4.082.487-2.326.961-3.738.855-3.774z" fill="#263238"/><path d="M236.74 141.562c1.436 2.504.629 5.672-.558 8.295-1.174 2.634-2.729 5.257-2.669 8.14.083 4.829 4.627 8.84 4.307 13.658-.19 2.86-2.326 5.494-5.091 6.277 2.196-1.661 2.207-5.019 1.199-7.571-1.021-2.551-5.613-9.172-6.384-11.818-2.563-8.876-1.744-9.968 1.222-13.302" fill="#263238"/><path d="M228.434 148.457c0 .071.64.189 1.673-.024 1.02-.202 2.409-.795 3.548-1.958 1.127-1.163 1.673-2.587 1.839-3.607.178-1.033.047-1.673-.036-1.673-.095 0-.13.628-.403 1.578-.261.937-.831 2.207-1.863 3.263-1.032 1.068-2.278 1.673-3.204 1.97-.925.308-1.554.356-1.554.451z" fill="#455A64"/><path d="M233.69 175.013c.012.012.119-.06.309-.226s.439-.439.712-.83a6.184 6.184 0 001.009-3.857 5.688 5.688 0 00-.855-2.682c-.546-.878-1.341-1.613-2.136-2.361-.807-.748-1.578-1.554-2.1-2.587a7.94 7.94 0 01-.842-3.429 7.475 7.475 0 01.795-3.441c.51-1.044 1.198-1.958 1.851-2.848 1.352-1.744 2.397-3.512 2.978-5.091.605-1.59.771-2.978.759-3.915-.011-.95-.154-1.46-.189-1.448-.131-.012.296 2.136-.985 5.197-.629 1.531-1.662 3.192-3.038 4.913-.664.878-1.388 1.815-1.946 2.919a7.861 7.861 0 00-.866 3.726 8.389 8.389 0 00.913 3.714c.57 1.115 1.436 2.005 2.255 2.741.819.748 1.578 1.436 2.1 2.219.511.783.772 1.637.855 2.444a6.16 6.16 0 01-.772 3.691c-.462.759-.854 1.103-.807 1.151z" fill="#455A64"/><path d="M227.366 148.183c-.024-.023-.273.167-.629.594-.368.427-.807 1.115-1.175 2.053-.747 1.863-.973 4.794.107 7.689 1.08 2.883 2.907 5.019 4.26 6.431 1.376 1.412 2.338 2.172 2.385 2.112.071-.071-.783-.937-2.053-2.42-1.258-1.472-2.966-3.608-3.999-6.36-1.02-2.753-.878-5.518-.273-7.322.594-1.815 1.484-2.705 1.377-2.777z" fill="#455A64"/><path d="M308.233 226.203l-8.947 4.236-11.273 6.064c-4.675-13.682-4.473-28.265-6.147-33.795-5.256-17.383-14.998-18.89-14.998-18.89l-.012.142a3.357 3.357 0 00-.914-.475l-8.211-2.551-.261-4.462-27.755.653-.225 5.601-8.746 1.459c-5.458.914-10.335 4.225-12.768 9.197-.178.356-.332.712-.486 1.079-5.719 14.038-18.25 44.89-19.211 48.165-3.37 11.427 8.757 21.442 19.365 19.116.748-.166 3.05-1.068 6.135-2.338-.012 2.801 1.056 5.542 3.216 7.476 1.008.902 2.088 1.495 3.026 1.495l50.893.285c1.365.024 2.824-1.163 3.987-2.445 2.065 1.009 4.687 1.08 7.393.534h.012c.011 0 .011 0 .023-.011 4.391-.902 8.995-3.382 10.063-4.438l25.808-24.29-9.967-11.807zm-89.197 7.761l-.463 2.23-2.836.19 3.358-11.213.024 8.104a4.443 4.443 0 01-.083.689z" fill="#13ACAC"/><path d="M232.22 235.293c-.356.036-.724.071-1.234.119-.926.083-2.089.19-3.465.308-3.085.249-7.155.593-11.759.961l-.463.036.142-.439a116.95 116.95 0 001.092-3.418c1.602-5.316 2.955-10.181 4.034-13.657a114.146 114.146 0 011.353-4.106c.344-.961.57-1.483.617-1.471.048.011-.107.557-.38 1.542-.308 1.104-.7 2.492-1.162 4.153-.985 3.513-2.267 8.378-3.869 13.717a92.186 92.186 0 01-1.103 3.442l-.309-.404a592.22 592.22 0 0111.783-.759c2.943-.143 4.77-.178 4.723-.024zM237.915 248.096c.012.036-.415.285-1.21.7-.914.475-2.053 1.056-3.394 1.745-2.871 1.447-6.763 3.595-11.166 5.826-4.402 2.242-8.638 3.749-11.759 4.58-1.566.415-2.836.712-3.726.866-.89.178-1.376.25-1.388.202-.024-.107 1.922-.57 4.995-1.495 3.074-.926 7.239-2.492 11.605-4.711 4.379-2.207 8.318-4.307 11.249-5.66 1.46-.688 2.646-1.222 3.489-1.566.819-.356 1.293-.522 1.305-.487zM269.835 231.958c-.107-.059.949-1.554 1.969-4.283 1.009-2.694 1.875-6.716 1.306-11.107-.273-2.195-.807-4.248-1.258-6.123-.463-1.875-.843-3.595-1.056-5.055-.214-1.459-.261-2.658-.238-3.476.036-.819.107-1.27.143-1.27.107 0-.024 1.815.522 4.675.261 1.424.676 3.109 1.175 4.984.486 1.875 1.032 3.939 1.317 6.182.593 4.509-.368 8.639-1.507 11.344-.57 1.365-1.151 2.409-1.602 3.097-.451.7-.748 1.056-.771 1.032zM270.084 232.813c.13.023-1.033 2.064-.7 5.601.142 1.744.676 3.785 1.59 5.933.89 2.159 2.135 4.426 3.275 6.906 1.139 2.48 1.993 5.007 2.183 7.404.237 2.397-.285 4.604-1.163 6.194-.854 1.614-1.993 2.634-2.86 3.157a4.805 4.805 0 01-1.044.51c-.249.083-.38.118-.391.107-.024-.06.498-.25 1.305-.807.795-.558 1.827-1.59 2.598-3.157.784-1.554 1.235-3.643.985-5.945-.213-2.302-1.056-4.746-2.183-7.202-1.127-2.457-2.361-4.735-3.239-6.942-.902-2.195-1.401-4.319-1.496-6.123-.106-1.804.167-3.275.487-4.224.154-.475.308-.843.439-1.068.131-.237.202-.344.214-.344zM270.225 186.891c.155-.024.582 1.97.487 4.462-.083 2.491-.653 4.449-.807 4.414-.178-.036.107-2.006.19-4.438.095-2.433-.048-4.414.13-4.438zM284.252 252.214c-.071.012-.344-.878-.498-2.373-.154-1.484-.131-3.584.344-5.839.486-2.242 1.317-4.176 2.065-5.47.747-1.305 1.364-1.993 1.424-1.958.178.095-1.982 3.145-2.896 7.559-.961 4.39-.237 8.057-.439 8.081zM223.497 195.767c-.119 0-.119-.76-.641-1.828-.51-1.056-1.543-2.385-3.014-3.453-1.448-1.103-3.002-1.756-4.153-1.97-.285-.047-.546-.059-.783-.071-.226.024-.427.024-.582.06-.296.095-.498.142-.522.106-.024-.035.131-.154.451-.332.166-.071.38-.107.629-.178.249-.024.546-.035.866-.024 1.27.107 2.943.748 4.462 1.911 1.554 1.127 2.599 2.599 3.049 3.773.439 1.211.285 2.029.238 2.006z" fill="#263238"/><path opacity=".3" d="M222.631 232.896a57.386 57.386 0 01-1.376-14.584l-.451.89-1.709 5.957-.51 11.023 9.837-.427a11.666 11.666 0 00-5.791-2.859z" fill="#000"/><path d="M257.4 181.741c.011-.024.261.403.059 1.187-.166.771-.973 1.779-2.302 2.254-2.599.878-6.313 1.578-10.466 1.555-4.153 0-7.867-.795-10.454-1.602-1.293-.416-2.314-.807-3.002-1.128-.688-.32-1.056-.51-1.044-.545.035-.095 1.578.545 4.165 1.245 2.586.689 6.241 1.401 10.335 1.401 4.07.023 7.784-.606 10.312-1.353 1.257-.404 1.993-1.234 2.23-1.922.25-.653.095-1.08.167-1.092z" fill="#263238"/><path d="M209.793 219.191c-.154.059-.902-1.424-1.673-3.311-.76-1.898-1.258-3.477-1.092-3.548.154-.059.902 1.424 1.673 3.311.76 1.898 1.258 3.488 1.092 3.548zM204.12 235.115c.048.166-1.708.854-3.927 1.542-2.219.688-4.059 1.116-4.118.949-.047-.166 1.709-.854 3.928-1.542 2.231-.688 4.07-1.116 4.117-.949zM202.779 251.347c-.166 0-.261-1.59-.202-3.548.06-1.958.238-3.536.416-3.536.166 0 .261 1.59.201 3.548-.059 1.958-.237 3.536-.415 3.536zM222.5 246.554c-.13.118-1.293-.985-2.764-2.29-1.472-1.318-2.694-2.35-2.599-2.492.095-.131 1.507.688 3.002 2.029 1.507 1.341 2.48 2.646 2.361 2.753zM236.396 238.247c.118.119-.629 1.116-1.685 2.231-1.056 1.116-2.006 1.923-2.136 1.804-.119-.119.629-1.116 1.685-2.231 1.056-1.115 2.017-1.922 2.136-1.804zM216.959 198.128c.095.143-1.21 1.151-2.919 2.243-1.708 1.092-3.156 1.863-3.251 1.72-.095-.142 1.21-1.139 2.919-2.242 1.697-1.104 3.156-1.875 3.251-1.721zM232.717 194.438c-.167.048-.796-1.531-1.614-3.465-.807-1.934-1.507-3.5-1.353-3.583.142-.083 1.092 1.376 1.922 3.346.831 1.958 1.211 3.655 1.045 3.702zM234.177 214.195c-.083.142-1.768-.606-3.631-1.887-1.875-1.282-3.18-2.575-3.073-2.706.119-.13 1.578.938 3.417 2.196 1.851 1.257 3.37 2.242 3.287 2.397zM245.508 223.806c.083.155-1.922 1.365-4.474 2.718-2.551 1.352-4.687 2.326-4.77 2.171-.083-.154 1.923-1.364 4.474-2.717 2.551-1.341 4.687-2.314 4.77-2.172zM250.813 212.284c-.166.036-.64-1.388-1.068-3.18-.427-1.804-.628-3.287-.462-3.322.166-.036.64 1.388 1.068 3.18.415 1.791.628 3.275.462 3.322zM265.159 223.213c-.154.083-1.044-1.365-1.982-3.216-.949-1.851-1.59-3.417-1.435-3.5.154-.083 1.044 1.364 1.981 3.216.95 1.862 1.59 3.429 1.436 3.5zM263.129 191.815c.095.143-1.198 1.234-2.895 2.445-1.697 1.21-3.145 2.088-3.252 1.946-.094-.143 1.199-1.234 2.896-2.445 1.697-1.21 3.156-2.076 3.251-1.946zM249.733 192.717c-.154.071-.712-.771-1.234-1.875-.534-1.115-.83-2.064-.676-2.147.154-.072.712.771 1.234 1.874.522 1.116.831 2.077.676 2.148zM241.652 180.863c.012.166-.926.356-2.088.403-1.163.048-2.113-.047-2.124-.213-.012-.166.925-.356 2.088-.404 1.163-.059 2.112.048 2.124.214zM251.038 181.053c-.143-.107.273-.866.902-1.721.64-.842 1.257-1.447 1.4-1.352.13.106-.273.866-.902 1.72-.641.855-1.27 1.46-1.4 1.353zM276.931 205.378c-.166.024-.499-1.637-.724-3.702-.226-2.064-.273-3.749-.107-3.761.166-.024.498 1.637.724 3.702.225 2.053.285 3.738.107 3.761zM279.98 220.116c-.118.119-1.281-.819-2.42-2.254-1.151-1.436-1.804-2.777-1.662-2.872.155-.095 1.021 1.08 2.148 2.48 1.104 1.4 2.053 2.516 1.934 2.646zM275.732 235.245c-.155-.083.498-1.566 1.447-3.311.95-1.744 1.839-3.097 1.994-3.014.154.084-.499 1.567-1.448 3.311s-1.851 3.097-1.993 3.014zM280.834 257.245c-.154.059-.949-1.685-1.78-3.892-.819-2.207-1.353-4.058-1.198-4.118.154-.059.949 1.685 1.78 3.893.83 2.219 1.364 4.058 1.198 4.117zM296.225 249.259c-.072.154-1.412-.32-3.002-1.068-1.591-.747-2.813-1.471-2.742-1.626.072-.154 1.413.321 3.003 1.068 1.59.748 2.824 1.472 2.741 1.626zM304.875 241c-.166 0-.249-1.709.167-3.762.415-2.052 1.162-3.595 1.317-3.524.166.06-.309 1.662-.712 3.655-.404 1.994-.594 3.643-.772 3.631zM253.957 235.661c-.154-.071.404-1.59 1.258-3.382.843-1.804 1.661-3.192 1.816-3.121.154.071-.404 1.59-1.258 3.382-.855 1.792-1.661 3.192-1.816 3.121zM229.395 263.795c-.143.095-1.151-1.068-2.267-2.599-1.115-1.531-1.898-2.86-1.756-2.954.143-.095 1.151 1.067 2.267 2.598 1.103 1.531 1.898 2.86 1.756 2.955zM241.035 260.71c-.154-.059.356-1.744 1.151-3.749.795-2.006 1.567-3.584 1.721-3.525.154.06-.356 1.745-1.151 3.75-.795 2.017-1.566 3.595-1.721 3.524zM259.844 264.009c-.048.154-1.804-.297-3.75-1.389-1.946-1.079-3.24-2.349-3.133-2.468.119-.142 1.555.878 3.441 1.934 1.875 1.057 3.501 1.757 3.442 1.923zM267.52 251.917c-.154.059-.937-1.602-1.436-3.797-.498-2.195-.51-4.035-.344-4.047.178-.011.451 1.757.95 3.904.486 2.16.996 3.881.83 3.94z" fill="#FAFAFA"/><path opacity=".3" d="M213.981 261.529c2.658 1.447 5.897 1.542 8.84.807 2.943-.736 5.637-2.207 8.223-3.786 1.484-.901 2.991-1.863 4.687-2.207 1.887-.379 3.845.036 5.732.416 4.449.89 9.089 1.613 13.48.486 4.39-1.127 8.496-4.545 9.077-9.042.237-1.815-.38-3.999-2.112-4.592-.676-.237-2.895-1.068-3.619-1.009-18.867 1.531-44.522 16.815-44.498 17.337" fill="#000"/><path d="M299.31 475.461l4.793 37.141-16.838 1.068-8.638-35.634 20.683-2.575z" fill="#B78876"/><path d="M285.698 506.467s12.863 6.728 17.562-1.246l1.958 3.287 10.051 23.969c.652 1.555.13 3.43-1.329 4.248a3.252 3.252 0 01-3.501-.189c-5.446-3.94-25.417-18.512-25.559-20.837l-.76-6.123a3.097 3.097 0 011.578-3.109z" fill="#13ACAC"/><path opacity=".6" d="M313.382 536.975l-28.811-23.388.19 1.329c.071 1.459.783 1.946 1.59 2.788 2.409 2.469 8.876 7.844 23.982 18.856.878.64 2.029.795 3.049.415zM287.715 509.113c.867.439 1.294 1.59.89 2.468-.403.878-1.566 1.329-2.444.902-.878-.415-1.424-1.792-.926-2.622.499-.831 1.899-1.282 2.647-.665" fill="#fff"/><path d="M304.257 524.231c.19.059.665-1.685 2.421-2.836 1.709-1.199 3.512-.997 3.524-1.199.012-.083-.415-.273-1.163-.273-.747 0-1.792.249-2.753.89-.949.653-1.578 1.531-1.851 2.231-.273.7-.261 1.175-.178 1.187zM307.094 528.134c.166.119 1.032-1.044 2.599-1.744 1.542-.724 2.99-.629 3.014-.831.071-.178-1.543-.628-3.311.19-1.768.807-2.48 2.326-2.302 2.385zM299.333 519.413c.166.131 1.495-1.673 3.833-2.966 2.314-1.329 4.545-1.531 4.521-1.745.024-.178-2.373-.284-4.865 1.14-2.504 1.4-3.655 3.5-3.489 3.571zM297.743 511.914c.106.178 1.744-.795 3.998-1.187 2.243-.427 4.118-.107 4.165-.308.06-.167-1.874-.831-4.283-.38-2.433.439-3.999 1.744-3.88 1.875z" fill="#263238"/><path d="M303.024 510.478c.035-.012-.024-.439-.333-1.151-.308-.712-.878-1.709-1.898-2.694-.51-.451-1.092-1.056-2.065-1.174-.486-.06-1.08.225-1.305.735-.226.511-.178 1.044-.024 1.519.665 1.911 2.919 3.216 5.174 2.777 2.243-.475 3.785-2.362 4.094-4.308.047-.486 0-1.056-.404-1.495-.403-.439-1.08-.439-1.483-.225-.854.427-1.246 1.139-1.649 1.697a9.338 9.338 0 00-1.282 3.026c-.166.759-.154 1.186-.119 1.198.131.047.273-1.732 1.804-3.94.403-.522.842-1.162 1.471-1.435.309-.131.617-.095.807.118.202.202.261.606.202.997-.273 1.59-1.697 3.311-3.595 3.69-1.887.392-3.869-.759-4.426-2.29-.131-.368-.155-.771-.024-1.056.118-.285.403-.439.712-.415.664.047 1.269.546 1.768.961 2.005 1.78 2.444 3.548 2.575 3.465z" fill="#263238"/><path d="M247.62 473.824l.486 38.054-20.563-.783-3.038-36.82 23.115-.451z" fill="#B78876"/><path d="M227.187 506.502s-22.807 8.496-23.056 12.709l44.106-.083.036-11.534-1.626.38a32.784 32.784 0 01-19.46-1.472z" fill="#13ACAC"/><path opacity=".6" d="M243.183 509.765c.855.238 1.448 1.187 1.246 2.053-.201.866-1.163 1.472-2.029 1.258-.854-.214-1.602-1.341-1.317-2.183.297-.831 1.471-1.495 2.255-1.068M248.249 519.128l.036-3.584-42.409 1.412s-1.958.855-1.733 2.243l44.106-.071z" fill="#fff"/><path d="M226.475 506.277c.012.213 1.08.308 2.148.997 1.079.664 1.625 1.59 1.827 1.507.202-.048-.131-1.329-1.424-2.148-1.293-.819-2.599-.558-2.551-.356zM221.858 508.199c-.047.214.89.57 1.614 1.484.759.889.949 1.874 1.163 1.862.202.036.344-1.234-.582-2.337-.925-1.127-2.195-1.222-2.195-1.009zM219.237 513.74c.189.048.498-1.032-.06-2.207-.546-1.186-1.566-1.649-1.649-1.471-.119.178.534.807.973 1.78.463.961.522 1.875.736 1.898z" fill="#263238"/><path d="M226.949 506.146c0 .095.855.226 2.207-.012a10.288 10.288 0 002.314-.711c.416-.19.843-.416 1.27-.677.202-.13.439-.261.664-.522.238-.225.368-.795.095-1.151-.225-.344-.629-.486-.949-.486-.32-.012-.593.059-.831.118a8.192 8.192 0 00-1.376.475 7.33 7.33 0 00-2.029 1.341c-1.021.949-1.365 1.756-1.294 1.791.095.072.594-.605 1.638-1.388a8.973 8.973 0 011.97-1.115 7.847 7.847 0 011.269-.392c.463-.119.867-.13.985.083.048.083.048.107-.047.249-.107.131-.285.25-.487.38-.391.249-.783.475-1.163.665a12.73 12.73 0 01-2.135.818c-1.27.356-2.101.416-2.101.534z" fill="#263238"/><path d="M227.234 506.455c.071.036.498-.736.582-2.136a7.102 7.102 0 00-.879-3.761c-.261-.439-.581-1.021-1.412-1.116-.439-.012-.795.321-.925.617-.143.297-.178.558-.226.807a4.793 4.793 0 000 1.484c.143.937.522 1.72.95 2.278.866 1.139 1.768 1.4 1.78 1.329.071-.107-.677-.522-1.341-1.626a5.16 5.16 0 01-.7-2.076 4.666 4.666 0 01.035-1.282c.071-.475.237-.842.415-.795.214 0 .594.344.772.724.225.391.403.795.546 1.198.273.795.403 1.555.427 2.207.095 1.306-.143 2.113-.024 2.148zM287.633 311.686c-.913-20.564-16.707-43.038-16.707-43.038l-24.314-2.029v-.083l-.51.047-27.945 2.278s-12.305 26.841-9.113 58.832c3.204 31.979 14.014 149.667 14.014 149.667h25.631l.558-170.29 25.951 176.057h25.654c0-.012-12.305-150.877-13.219-171.441z" fill="#263238"/><path d="M219.938 474.441l3.572 17.348 26.117-.083 1.579-15.983-31.268-1.282zM273.477 479.983l5.719 19.555 24.302-3.394-1.27-21.987-28.751 5.826zM250.291 306.904c0 .024-.13.012-.38-.012-.237-.059-.617-.154-1.008-.451-.807-.557-1.567-1.827-1.934-3.488-.594-3.311-1.163-7.879-1.709-12.946a397.35 397.35 0 01-1.163-12.993 128.377 128.377 0 01-.237-3.94c-.036-.937-.036-1.448 0-1.448.047 0 .118.511.237 1.436.119 1.056.261 2.361.427 3.928.356 3.453.819 7.962 1.329 12.958.546 5.054 1.044 9.647 1.519 12.922.297 1.602.961 2.812 1.649 3.382.724.581 1.294.593 1.27.652zM248.12 270.428c-.012-.024.19-.154.617-.202a2.75 2.75 0 011.744.368 3.297 3.297 0 011.507 2.195 2.39 2.39 0 01-.273 1.638c-.296.522-.807.901-1.364 1.127-1.128.439-2.469.178-3.169-.676-.7-.843-.723-1.887-.534-2.611.19-.748.594-1.258.914-1.531.309-.273.546-.332.558-.308.083.071-.819.546-1.068 1.91-.119.653-.036 1.519.546 2.148.534.641 1.602.842 2.527.487.949-.333 1.46-1.258 1.305-2.101-.118-.854-.652-1.531-1.186-1.922-1.151-.771-2.136-.392-2.124-.522zM234.973 234.343l-2.48-12.068c-.202-.961.546-1.863 1.531-1.863l31.231.143c.926 0 1.638.807 1.531 1.732l-3.228 27.636a2.169 2.169 0 01-2.159 1.911l-20.362-.155a2.168 2.168 0 01-2.077-1.625l-3.987-15.711z" fill="#455A64"/><path d="M232.22 227.995c1.352 0 2.575.831 3.061 2.1.51 1.329 1.258 2.884 2.089 3.346 1.53.831 4.176 1.507 5.577.819 1.388-.688 6.965-5.696 7.95-5.138.973.558 1.815 1.816.842 2.931s-6.134 4.462-5.161 5.577c.973 1.116 11.854-3.797 13.527-3.358 1.673.427 2.646 1.46 1.673 2.136-.973.676-8.365 3.453-8.781 4.438 0 0 11.154-2.931 11.57-2.231.415.7 1.115 1.816 0 2.231-1.116.415-10.739 2.931-11.57 3.346-.83.415-3.714 1.258-4.295 1.258-.309 0-2.492.736-4.498 1.424a9.852 9.852 0 01-6.941-.19l-1.127-.463a4.434 4.434 0 01-2.753-4.367l.225-3.797-1.222-3.132-.166-6.93z" fill="#B78876"/><path d="M250.956 225.064a1.14 1.14 0 11-2.278 0 1.14 1.14 0 012.278 0z" fill="#FAFAFA"/><path d="M5.577 359.174s.154-.131.475-.38c.344-.249.819-.605 1.447-1.08 1.294-.949 3.18-2.337 5.625-4.129 4.936-3.595 12.115-8.828 21.145-15.414 18.12-13.148 43.644-31.671 73.344-53.231l-.106.332c-5.969-16.529-9.636-35.61-9.636-55.521-.07-6.325.392-12.555.997-18.678.76-6.099 1.661-12.115 3.038-17.917 2.622-11.617 6.36-22.57 11.012-32.478 9.314-19.864 21.608-35.669 33.367-47.274 11.819-11.617 22.901-19.306 30.84-24.04a4651.8 4651.8 0 015.34-3.062c1.554-.867 2.919-1.507 3.998-2.077 1.08-.546 1.899-.961 2.469-1.246.557-.273.854-.403.854-.403s-.273.166-.819.463c-.569.296-1.376.735-2.444 1.305-1.068.581-2.421 1.234-3.963 2.124-1.543.902-3.311 1.934-5.305 3.097-7.879 4.782-18.914 12.519-30.661 24.147-11.689 11.617-23.911 27.399-33.166 47.215-4.628 9.885-8.342 20.79-10.941 32.371-1.364 5.779-2.254 11.771-3.014 17.847-.605 6.099-1.056 12.317-.984 18.617 0 19.841 3.642 38.838 9.564 55.32l.071.214-.178.13a656218.48 656218.48 0 00-73.475 53.053c-9.077 6.527-16.28 11.712-21.252 15.272-2.468 1.768-4.379 3.121-5.684 4.058-.64.451-1.127.795-1.471 1.033a7.397 7.397 0 01-.487.332z" fill="#13ACAC"/><path d="M142.012 49.446s-.225.13-.676.356c-.463.225-1.127.557-1.994.985-.889.427-1.969.96-3.251 1.578-1.281.617-2.705 1.46-4.331 2.337-6.479 3.584-15.604 9.34-25.595 18.037-4.924 4.414-10.205 9.422-15.284 15.33a181.443 181.443 0 00-14.95 19.841c-9.6 14.655-17.67 32.359-23.246 51.783-5.59 19.449-8.164 38.672-9.054 56.151-.878 17.502-.237 33.32 1.115 46.503 1.377 13.183 3.797 23.684 6.052 30.745a127.46 127.46 0 002.812 8.057c.356.89.63 1.578.819 2.065.178.462.261.711.261.711s-.119-.225-.32-.688c-.202-.474-.499-1.163-.878-2.041-.748-1.803-1.78-4.497-2.931-8.033-2.314-7.048-4.818-17.562-6.254-30.769-1.412-13.195-2.1-29.036-1.258-46.574.867-17.526 3.43-36.797 9.03-56.293 5.59-19.484 13.706-37.247 23.365-51.926a179.492 179.492 0 0115.034-19.863c5.102-5.922 10.418-10.917 15.378-15.331C115.919 63.72 125.103 58 131.63 54.489c1.649-.866 3.073-1.697 4.366-2.29l3.275-1.531c.878-.403 1.543-.712 2.018-.925.486-.214.723-.297.723-.297zM180.508 0c.012 0 .059.06.154.202.107.154.237.356.403.617.368.57.89 1.376 1.543 2.397 1.353 2.136 3.299 5.22 5.755 9.09 4.913 7.843 11.854 18.914 20.018 31.954l-.32-.118c10.228-2.824 21.81-5.114 34.115-6.396 11.972-1.258 23.459-1.46 33.877-.89a207.16 207.16 0 0127.47 3.299c.973.178 1.911.356 2.836.522.914.202 1.804.392 2.67.581 1.732.38 3.37.748 4.889 1.08 3.026.795 5.648 1.424 7.76 2.041 2.077.629 3.714 1.127 4.853 1.471l1.258.392c.285.095.427.143.427.154 0 .012-.154-.023-.439-.095-.32-.083-.735-.201-1.269-.344-1.151-.32-2.789-.771-4.877-1.352-2.124-.57-4.747-1.175-7.784-1.935-1.531-.32-3.169-.664-4.901-1.032-.866-.178-1.756-.368-2.67-.558-.925-.166-1.863-.332-2.836-.498a213.25 213.25 0 00-27.422-3.156c-10.383-.534-21.846-.32-33.783.937-12.27 1.282-23.815 3.548-34.032 6.337l-.202.059-.106-.178c-8.081-13.077-14.952-24.195-19.829-32.074-2.397-3.916-4.295-7.013-5.612-9.184-.629-1.045-1.116-1.863-1.472-2.445-.154-.261-.273-.475-.368-.64-.071-.155-.118-.238-.106-.238zM481.739 158.946c-.012 0-.06-.107-.131-.332l-.32-.997c-.285-.926-.665-2.219-1.163-3.857-.499-1.673-1.08-3.737-1.923-6.075-.403-1.175-.83-2.432-1.293-3.773-.225-.665-.463-1.353-.7-2.053-.273-.688-.546-1.4-.831-2.136-1.151-2.907-2.337-6.123-3.892-9.457-.771-1.673-1.483-3.441-2.361-5.186-.878-1.756-1.78-3.548-2.706-5.399-3.856-7.309-8.543-15.129-14.144-22.854-5.636-7.701-11.641-14.56-17.372-20.516-1.459-1.472-2.883-2.896-4.26-4.284-1.388-1.377-2.824-2.634-4.165-3.904-2.658-2.551-5.304-4.723-7.665-6.776-.594-.51-1.175-1.008-1.733-1.495-.581-.462-1.151-.913-1.697-1.352a726.023 726.023 0 01-3.108-2.492c-1.923-1.578-3.655-2.848-5.055-3.892-1.365-1.033-2.445-1.851-3.216-2.433-.344-.26-.617-.474-.831-.64-.19-.143-.273-.226-.273-.238.012-.012.107.06.309.19.225.154.51.344.866.593l3.287 2.338c1.424 1.02 3.18 2.254 5.126 3.809.985.771 2.029 1.59 3.145 2.456.557.44 1.127.878 1.72 1.341.57.487 1.151.973 1.756 1.483 2.386 2.03 5.055 4.2 7.737 6.728 1.353 1.258 2.789 2.516 4.189 3.88 1.388 1.389 2.824 2.813 4.295 4.284 5.767 5.957 11.807 12.827 17.467 20.552 5.613 7.761 10.312 15.604 14.145 22.961.925 1.863 1.827 3.667 2.693 5.423.866 1.768 1.578 3.536 2.338 5.221 1.542 3.346 2.705 6.586 3.833 9.517.284.735.557 1.447.818 2.147.238.712.463 1.4.688 2.065.44 1.341.855 2.611 1.246 3.785.819 2.35 1.365 4.426 1.828 6.123.451 1.661.807 2.967 1.056 3.892.107.416.19.76.261 1.021.024.213.047.332.036.332zM437.157 488.324c-.011 0-.071-.107-.189-.332a39.912 39.912 0 00-.499-.997c-.439-.913-1.08-2.219-1.898-3.904-1.65-3.441-4.035-8.425-7.037-14.69-5.981-12.59-14.394-30.306-24.183-50.893l-.107-.214.19-.142a230.82 230.82 0 0025.797-22.748c1.4-1.352 2.705-2.788 3.999-4.212 1.305-1.412 2.598-2.824 3.88-4.213 1.222-1.447 2.444-2.883 3.655-4.307 1.21-1.424 2.432-2.824 3.536-4.284 2.254-2.907 4.533-5.695 6.55-8.603 1.032-1.435 2.053-2.847 3.061-4.248.985-1.424 1.899-2.859 2.848-4.26a234.128 234.128 0 0017.419-31.302c2.184-4.616 3.869-8.924 5.4-12.673 1.435-3.797 2.598-7.084 3.571-9.778.866-2.693 1.543-4.806 2.006-6.265.225-.7.403-1.234.534-1.626.118-.368.201-.546.201-.546s-.035.19-.142.57c-.119.392-.273.937-.475 1.637-.439 1.472-1.08 3.584-1.898 6.301-.938 2.706-2.065 6.016-3.477 9.825-1.507 3.774-3.156 8.093-5.328 12.733a227.749 227.749 0 01-17.336 31.433c-.938 1.412-1.863 2.848-2.836 4.284a1508.113 1508.113 0 01-3.062 4.271c-2.017 2.919-4.295 5.72-6.55 8.627-1.103 1.471-2.337 2.872-3.536 4.296-1.21 1.423-2.432 2.871-3.655 4.319-1.281 1.4-2.586 2.812-3.88 4.236-1.293 1.424-2.61 2.86-4.011 4.224a229.392 229.392 0 01-25.879 22.783l.095-.356c9.694 20.623 18.048 38.375 23.981 50.989 2.931 6.289 5.268 11.296 6.882 14.761.783 1.709 1.388 3.026 1.816 3.951.19.44.344.772.451 1.021.071.214.118.332.106.332z" fill="#13ACAC"/><g opacity=".8"><path opacity=".8" d="M5.577 359.174s.154-.131.475-.38c.344-.249.819-.605 1.447-1.08 1.294-.949 3.18-2.337 5.625-4.129 4.936-3.595 12.115-8.828 21.145-15.414 18.12-13.148 43.644-31.671 73.344-53.231l-.106.332c-5.969-16.529-9.636-35.61-9.636-55.521-.07-6.325.392-12.555.997-18.678.76-6.099 1.661-12.115 3.038-17.917 2.622-11.617 6.36-22.57 11.012-32.478 9.314-19.864 21.608-35.669 33.367-47.274 11.819-11.617 22.901-19.306 30.84-24.04a4651.8 4651.8 0 015.34-3.062c1.554-.867 2.919-1.507 3.998-2.077 1.08-.546 1.899-.961 2.469-1.246.557-.273.854-.403.854-.403s-.273.166-.819.463c-.569.296-1.376.735-2.444 1.305-1.068.581-2.421 1.234-3.963 2.124-1.543.902-3.311 1.934-5.305 3.097-7.879 4.782-18.914 12.519-30.661 24.147-11.689 11.617-23.911 27.399-33.166 47.215-4.628 9.885-8.342 20.79-10.941 32.371-1.364 5.779-2.254 11.771-3.014 17.847-.605 6.099-1.056 12.317-.984 18.617 0 19.841 3.642 38.838 9.564 55.32l.071.214-.178.13a656218.48 656218.48 0 00-73.475 53.053c-9.077 6.527-16.28 11.712-21.252 15.272-2.468 1.768-4.379 3.121-5.684 4.058-.64.451-1.127.795-1.471 1.033a7.397 7.397 0 01-.487.332z" fill="#fff"/><path opacity=".8" d="M142.012 49.446s-.225.13-.676.356c-.463.225-1.127.557-1.994.985-.889.427-1.969.96-3.251 1.578-1.281.617-2.705 1.46-4.331 2.337-6.479 3.584-15.604 9.34-25.595 18.037-4.924 4.414-10.205 9.422-15.284 15.33a181.443 181.443 0 00-14.95 19.841c-9.6 14.655-17.67 32.359-23.246 51.783-5.59 19.449-8.164 38.672-9.054 56.151-.878 17.502-.237 33.32 1.115 46.503 1.377 13.183 3.797 23.684 6.052 30.745a127.46 127.46 0 002.812 8.057c.356.89.63 1.578.819 2.065.178.462.261.711.261.711s-.119-.225-.32-.688c-.202-.474-.499-1.163-.878-2.041-.748-1.803-1.78-4.497-2.931-8.033-2.314-7.048-4.818-17.562-6.254-30.769-1.412-13.195-2.1-29.036-1.258-46.574.867-17.526 3.43-36.797 9.03-56.293 5.59-19.484 13.706-37.247 23.365-51.926a179.492 179.492 0 0115.034-19.863c5.102-5.922 10.418-10.917 15.378-15.331C115.919 63.72 125.103 58 131.63 54.489c1.649-.866 3.073-1.697 4.366-2.29l3.275-1.531c.878-.403 1.543-.712 2.018-.925.486-.214.723-.297.723-.297zM180.508 0c.012 0 .059.06.154.202.107.154.237.356.403.617.368.57.89 1.376 1.543 2.397 1.353 2.136 3.299 5.22 5.755 9.09 4.913 7.843 11.854 18.914 20.018 31.954l-.32-.118c10.228-2.824 21.81-5.114 34.115-6.396 11.972-1.258 23.459-1.46 33.877-.89a207.16 207.16 0 0127.47 3.299c.973.178 1.911.356 2.836.522.914.202 1.804.392 2.67.581 1.732.38 3.37.748 4.889 1.08 3.026.795 5.648 1.424 7.76 2.041 2.077.629 3.714 1.127 4.853 1.471l1.258.392c.285.095.427.143.427.154 0 .012-.154-.023-.439-.095-.32-.083-.735-.201-1.269-.344-1.151-.32-2.789-.771-4.877-1.352-2.124-.57-4.747-1.175-7.784-1.935-1.531-.32-3.169-.664-4.901-1.032-.866-.178-1.756-.368-2.67-.558-.925-.166-1.863-.332-2.836-.498a213.25 213.25 0 00-27.422-3.156c-10.383-.534-21.846-.32-33.783.937-12.27 1.282-23.815 3.548-34.032 6.337l-.202.059-.106-.178c-8.081-13.077-14.952-24.195-19.829-32.074-2.397-3.916-4.295-7.013-5.612-9.184-.629-1.045-1.116-1.863-1.472-2.445-.154-.261-.273-.475-.368-.64-.071-.155-.118-.238-.106-.238zM481.739 158.946c-.012 0-.06-.107-.131-.332l-.32-.997c-.285-.926-.665-2.219-1.163-3.857-.499-1.673-1.08-3.737-1.923-6.075-.403-1.175-.83-2.432-1.293-3.773-.225-.665-.463-1.353-.7-2.053-.273-.688-.546-1.4-.831-2.136-1.151-2.907-2.337-6.123-3.892-9.457-.771-1.673-1.483-3.441-2.361-5.186-.878-1.756-1.78-3.548-2.706-5.399-3.856-7.309-8.543-15.129-14.144-22.854-5.636-7.701-11.641-14.56-17.372-20.516-1.459-1.472-2.883-2.896-4.26-4.284-1.388-1.377-2.824-2.634-4.165-3.904-2.658-2.551-5.304-4.723-7.665-6.776-.594-.51-1.175-1.008-1.733-1.495-.581-.462-1.151-.913-1.697-1.352a726.023 726.023 0 01-3.108-2.492c-1.923-1.578-3.655-2.848-5.055-3.892-1.365-1.033-2.445-1.851-3.216-2.433-.344-.26-.617-.474-.831-.64-.19-.143-.273-.226-.273-.238.012-.012.107.06.309.19.225.154.51.344.866.593l3.287 2.338c1.424 1.02 3.18 2.254 5.126 3.809.985.771 2.029 1.59 3.145 2.456.557.44 1.127.878 1.72 1.341.57.487 1.151.973 1.756 1.483 2.386 2.03 5.055 4.2 7.737 6.728 1.353 1.258 2.789 2.516 4.189 3.88 1.388 1.389 2.824 2.813 4.295 4.284 5.767 5.957 11.807 12.827 17.467 20.552 5.613 7.761 10.312 15.604 14.145 22.961.925 1.863 1.827 3.667 2.693 5.423.866 1.768 1.578 3.536 2.338 5.221 1.542 3.346 2.705 6.586 3.833 9.517.284.735.557 1.447.818 2.147.238.712.463 1.4.688 2.065.44 1.341.855 2.611 1.246 3.785.819 2.35 1.365 4.426 1.828 6.123.451 1.661.807 2.967 1.056 3.892.107.416.19.76.261 1.021.024.213.047.332.036.332zM437.157 488.324c-.011 0-.071-.107-.189-.332a39.912 39.912 0 00-.499-.997c-.439-.913-1.08-2.219-1.898-3.904-1.65-3.441-4.035-8.425-7.037-14.69-5.981-12.59-14.394-30.306-24.183-50.893l-.107-.214.19-.142a230.82 230.82 0 0025.797-22.748c1.4-1.352 2.705-2.788 3.999-4.212 1.305-1.412 2.598-2.824 3.88-4.213 1.222-1.447 2.444-2.883 3.655-4.307 1.21-1.424 2.432-2.824 3.536-4.284 2.254-2.907 4.533-5.695 6.55-8.603 1.032-1.435 2.053-2.847 3.061-4.248.985-1.424 1.899-2.859 2.848-4.26a234.128 234.128 0 0017.419-31.302c2.184-4.616 3.869-8.924 5.4-12.673 1.435-3.797 2.598-7.084 3.571-9.778.866-2.693 1.543-4.806 2.006-6.265.225-.7.403-1.234.534-1.626.118-.368.201-.546.201-.546s-.035.19-.142.57c-.119.392-.273.937-.475 1.637-.439 1.472-1.08 3.584-1.898 6.301-.938 2.706-2.065 6.016-3.477 9.825-1.507 3.774-3.156 8.093-5.328 12.733a227.749 227.749 0 01-17.336 31.433c-.938 1.412-1.863 2.848-2.836 4.284a1508.113 1508.113 0 01-3.062 4.271c-2.017 2.919-4.295 5.72-6.55 8.627-1.103 1.471-2.337 2.872-3.536 4.296-1.21 1.423-2.432 2.871-3.655 4.319-1.281 1.4-2.586 2.812-3.88 4.236-1.293 1.424-2.61 2.86-4.011 4.224a229.392 229.392 0 01-25.879 22.783l.095-.356c9.694 20.623 18.048 38.375 23.981 50.989 2.931 6.289 5.268 11.296 6.882 14.761.783 1.709 1.388 3.026 1.816 3.951.19.44.344.772.451 1.021.071.214.118.332.106.332z" fill="#fff"/></g><path d="M359.697 148.148a5.091 5.091 0 100-10.182 5.091 5.091 0 000 10.182zM333.983 46.491a5.09 5.09 0 01-5.091 5.09 5.09 5.09 0 01-5.09-5.09 5.09 5.09 0 015.09-5.09 5.09 5.09 0 015.091 5.09zM486.355 159.148a5.09 5.09 0 01-5.091 5.09 5.089 5.089 0 01-5.09-5.09 5.09 5.09 0 1110.181 0zM223.023 397.264a5.09 5.09 0 01-5.091 5.091 5.09 5.09 0 01-5.09-5.091 5.089 5.089 0 015.09-5.09c2.813-.012 5.091 2.278 5.091 5.09zM152.847 398.652a5.09 5.09 0 10.001-10.18 5.09 5.09 0 00-.001 10.18zM432.067 291.466a5.09 5.09 0 10.001-10.18 5.09 5.09 0 00-.001 10.18zM55.272 161.782a5.09 5.09 0 01-5.09 5.09 5.09 5.09 0 115.09-5.09zM341.115 202.483a5.09 5.09 0 01-5.091 5.09 5.089 5.089 0 01-5.09-5.09 5.09 5.09 0 1110.181 0zM439.579 205.508a5.09 5.09 0 100-10.18 5.09 5.09 0 000 10.18zM110.509 181.017a5.089 5.089 0 01-5.09 5.09 5.09 5.09 0 115.09-5.09zM109.393 118.661a5.09 5.09 0 100-10.181 5.09 5.09 0 000 10.181zM57.242 306.477a2.547 2.547 0 01-2.551 2.551 2.555 2.555 0 01-2.551-2.551 2.547 2.547 0 012.55-2.551 2.547 2.547 0 012.552 2.551zM100.327 232.611a2.547 2.547 0 01-2.551 2.551 2.547 2.547 0 01-2.551-2.551 2.547 2.547 0 012.55-2.552c1.401 0 2.552 1.139 2.552 2.552zM149.727 321.903c0 1.4-1.139 2.551-2.551 2.551a2.547 2.547 0 01-2.551-2.551 2.547 2.547 0 012.551-2.551 2.547 2.547 0 012.551 2.551zM123.717 231.435a2.547 2.547 0 01-2.552 2.552 2.547 2.547 0 01-2.551-2.552 2.547 2.547 0 012.551-2.551 2.547 2.547 0 012.552 2.551zM160.121 174.135a2.547 2.547 0 01-2.551 2.551 2.547 2.547 0 01-2.551-2.551c0-1.4 1.139-2.551 2.551-2.551a2.562 2.562 0 012.551 2.551zM69.63 235.162a2.551 2.551 0 100-5.102 2.551 2.551 0 000 5.102zM411.623 333.069c0 1.4-1.139 2.551-2.551 2.551a2.547 2.547 0 01-2.551-2.551 2.547 2.547 0 012.551-2.551 2.547 2.547 0 012.551 2.551zM393.858 319.731c0 1.4-1.139 2.551-2.551 2.551a2.547 2.547 0 01-2.551-2.551 2.547 2.547 0 012.551-2.551 2.547 2.547 0 012.551 2.551zM430.68 345.089a2.548 2.548 0 01-2.552 2.551 2.547 2.547 0 01-2.551-2.551c0-1.4 1.139-2.551 2.551-2.551a2.548 2.548 0 012.552 2.551zM330.375 347.474c0 1.4-1.139 2.551-2.551 2.551a2.548 2.548 0 01-2.552-2.551 2.548 2.548 0 012.552-2.551 2.547 2.547 0 012.551 2.551zM346.489 386.632a2.547 2.547 0 01-2.551 2.551 2.547 2.547 0 01-2.551-2.551 2.547 2.547 0 012.551-2.551 2.547 2.547 0 012.551 2.551zM318.26 374.79a2.548 2.548 0 01-2.552 2.551 2.547 2.547 0 01-2.551-2.551 2.548 2.548 0 012.551-2.552 2.556 2.556 0 012.552 2.552zM153.441 145.597c0 1.4-1.139 2.551-2.551 2.551a2.547 2.547 0 01-2.551-2.551 2.548 2.548 0 012.551-2.552 2.563 2.563 0 012.551 2.552zM213.637 116.003a2.548 2.548 0 01-2.552 2.551 2.547 2.547 0 01-2.551-2.551 2.547 2.547 0 012.551-2.551 2.556 2.556 0 012.552 2.551zM288.143 109.002c0 1.4-1.139 2.551-2.551 2.551a2.555 2.555 0 01-2.551-2.551 2.547 2.547 0 012.551-2.551 2.547 2.547 0 012.551 2.551zM405.381 47.915a2.547 2.547 0 01-2.551 2.552 2.555 2.555 0 01-2.552-2.552 2.547 2.547 0 012.552-2.55 2.562 2.562 0 012.551 2.55zM209.626 43.774a2.547 2.547 0 01-2.551 2.551 2.555 2.555 0 01-2.552-2.551 2.548 2.548 0 012.552-2.551 2.547 2.547 0 012.551 2.55z" fill="#13ACAC"/><path d="M180.507 324.145c-.012.012-.107-.095-.296-.285-.214-.225-.487-.522-.843-.889-.747-.819-1.815-1.994-3.18-3.477-.676-.772-1.471-1.578-2.266-2.551-.784-.973-1.638-2.03-2.552-3.157-.901-1.139-1.91-2.326-2.895-3.643-.961-1.341-1.97-2.764-3.038-4.248-4.165-6.016-8.816-13.444-12.72-22.332-3.963-8.84-7.132-19.116-8.864-30.163-.522-2.753-.688-5.518-1.021-8.223l-.249-4.047c-.035-.664-.083-1.341-.118-2.005-.012-.665-.012-1.329-.024-1.982l-.036-3.916.143-3.844c.023-1.27.118-2.516.225-3.762.107-1.234.214-2.456.309-3.666 1.068-9.636 3.025-18.179 5.244-25.156a120.253 120.253 0 016.301-16.138c.89-1.839 1.638-3.252 2.172-4.189.261-.475.474-.819.617-1.056.142-.237.225-.356.237-.344.012.012-.059.13-.178.38-.142.272-.332.628-.569 1.091a95.85 95.85 0 00-2.053 4.225 124.9 124.9 0 00-6.099 16.173c-2.16 6.977-4.059 15.497-5.091 25.085-.095 1.198-.202 2.421-.297 3.655a56.163 56.163 0 00-.213 3.737c-.048 1.258-.083 2.54-.131 3.821.012 1.294.024 2.587.048 3.904.012.653.023 1.317.023 1.982.036.664.084 1.329.119 1.993l.249 4.023c.333 2.694.511 5.435 1.021 8.176 1.72 11 4.865 21.216 8.781 30.033 3.856 8.852 8.448 16.28 12.554 22.308 1.044 1.495 2.053 2.919 2.99 4.26.973 1.329 1.97 2.515 2.86 3.666a869.13 869.13 0 012.504 3.181c.771.973 1.554 1.803 2.219 2.575 1.317 1.518 2.361 2.717 3.085 3.547l.795.938c.154.19.249.308.237.32zM69.56 238.947c-.012 0-.012-.118-.024-.344v-1.009c.024-.937.048-2.23.083-3.892.024-.854.048-1.791.071-2.812.048-1.02.13-2.136.202-3.334.178-2.397.285-5.126.653-8.129.154-1.506.32-3.073.498-4.71.178-1.638.463-3.335.7-5.091.451-3.524 1.175-7.25 1.887-11.178 1.578-7.831 3.666-16.375 6.431-25.168a245.07 245.07 0 019.28-24.266c1.685-3.619 3.25-7.084 4.912-10.216.819-1.579 1.567-3.121 2.362-4.569.806-1.436 1.578-2.824 2.313-4.141 1.436-2.658 2.919-4.96 4.154-7.013.628-1.02 1.198-1.982 1.756-2.848.569-.854 1.091-1.625 1.566-2.337.926-1.365 1.649-2.445 2.171-3.216.238-.344.428-.617.582-.831.13-.19.202-.273.214-.273.011.012-.048.107-.167.309-.142.225-.308.51-.522.866-.498.783-1.198 1.887-2.076 3.287-.463.712-.961 1.507-1.519 2.361-.522.878-1.104 1.84-1.709 2.872-1.21 2.065-2.658 4.378-4.07 7.048-.724 1.317-1.483 2.706-2.278 4.153-.783 1.448-1.519 2.991-2.326 4.569-1.65 3.144-3.18 6.597-4.853 10.217-3.192 7.297-6.396 15.473-9.208 24.23-2.753 8.769-4.865 17.289-6.467 25.097-.724 3.916-1.472 7.63-1.934 11.142-.25 1.756-.546 3.441-.736 5.079a991.59 991.59 0 00-.534 4.699c-.392 2.99-.534 5.719-.748 8.104-.095 1.187-.178 2.302-.26 3.335-.048 1.02-.096 1.957-.131 2.8-.083 1.649-.154 2.955-.202 3.88-.024.416-.047.748-.071 1.009.024.202.012.32 0 .32zM312.529 92.164c-.012.023-.321-.06-.902-.238-.629-.201-1.472-.462-2.528-.783a68.008 68.008 0 00-4.022-1.198c-1.578-.415-3.358-.973-5.376-1.4-1.008-.238-2.052-.475-3.144-.724-1.092-.25-2.243-.427-3.429-.665-2.374-.486-4.937-.819-7.618-1.198-5.399-.641-11.356-1.068-17.633-1.044-6.278.07-12.234.593-17.622 1.317-2.681.427-5.244.795-7.606 1.317-1.186.249-2.337.45-3.429.712-1.092.273-2.136.522-3.133.771-2.005.451-3.773 1.032-5.351 1.471a65.166 65.166 0 00-3.999 1.258c-1.044.344-1.887.617-2.516.83-.581.179-.89.274-.89.25-.011-.024.285-.142.855-.368.617-.237 1.447-.546 2.48-.937a52.3 52.3 0 013.975-1.353c1.566-.475 3.334-1.092 5.34-1.566l3.132-.819c1.092-.273 2.243-.486 3.43-.748 2.361-.545 4.936-.937 7.618-1.376a141 141 0 0117.692-1.377c6.301-.023 12.293.428 17.704 1.104 2.694.403 5.269.748 7.642 1.258 1.186.237 2.349.439 3.441.7 1.092.261 2.148.522 3.144.771 2.018.451 3.786 1.033 5.364 1.483 1.578.44 2.907.902 3.999 1.294 1.044.38 1.875.676 2.492.902.605.213.901.332.89.356zM358.807 146.214c-.012.012-.226-.202-.594-.641-.403-.475-.949-1.103-1.613-1.898-.356-.416-.736-.879-1.151-1.377-.44-.498-.938-1.009-1.448-1.566-1.056-1.116-2.195-2.433-3.619-3.738-.7-.665-1.424-1.365-2.184-2.1-.759-.724-1.613-1.412-2.468-2.16-1.685-1.519-3.631-2.967-5.648-4.521-4.129-2.99-8.864-6.016-14.097-8.698-5.268-2.634-10.501-4.651-15.366-6.206-2.457-.7-4.771-1.412-6.99-1.863-1.103-.237-2.171-.522-3.203-.712-1.033-.178-2.03-.344-2.979-.51-1.898-.38-3.643-.51-5.162-.7-.759-.083-1.471-.19-2.124-.237-.652-.036-1.245-.083-1.791-.107a407.306 407.306 0 01-2.48-.178c-.57-.048-.867-.083-.867-.107 0-.024.297-.024.867-.024.629.012 1.459.036 2.492.06.545.023 1.151.035 1.803.059.653.036 1.365.119 2.136.19 1.531.166 3.287.261 5.197.617.962.154 1.958.308 3.003.475 1.044.178 2.112.45 3.227.676 2.243.427 4.58 1.139 7.049 1.827 4.888 1.531 10.169 3.548 15.473 6.194 5.268 2.694 10.027 5.755 14.156 8.793 2.017 1.578 3.963 3.05 5.648 4.592.843.76 1.697 1.46 2.457 2.196a341.33 341.33 0 002.159 2.135c1.412 1.329 2.54 2.682 3.572 3.821.51.582.997 1.104 1.424 1.602.403.51.771.985 1.115 1.412a207.75 207.75 0 001.531 1.97c.32.463.498.712.475.724zM384.2 113.962c-.012.011-.095-.06-.25-.214-.178-.178-.415-.392-.7-.664-.64-.629-1.519-1.496-2.634-2.599-.57-.57-1.21-1.199-1.899-1.887-.711-.676-1.518-1.364-2.361-2.136-1.709-1.507-3.583-3.322-5.862-5.078-1.115-.902-2.29-1.852-3.5-2.836-1.222-.985-2.575-1.899-3.928-2.908-2.682-2.052-5.743-3.975-8.923-6.051-6.467-3.975-13.824-7.95-21.881-11.415-8.093-3.382-16.067-5.922-23.424-7.808-3.702-.843-7.214-1.709-10.549-2.207-1.661-.273-3.263-.606-4.817-.807-1.555-.19-3.05-.368-4.474-.546-2.848-.415-5.446-.498-7.725-.688-1.139-.072-2.195-.166-3.18-.214-.973-.024-1.863-.035-2.67-.047-1.566-.036-2.812-.072-3.702-.095a59.047 59.047 0 01-.961-.036c-.214-.012-.332-.024-.332-.035 0-.012.107-.024.332-.024.249 0 .57-.012.961-.024.89 0 2.136-.012 3.702-.024h2.682c.985.024 2.041.107 3.18.166 2.278.155 4.889.202 7.749.594 1.436.166 2.931.332 4.497.51 1.566.19 3.168.51 4.841.771 3.358.487 6.883 1.341 10.597 2.16 7.392 1.863 15.402 4.39 23.518 7.796 8.081 3.477 15.474 7.475 21.941 11.498 3.18 2.1 6.241 4.046 8.923 6.123 1.353 1.02 2.705 1.946 3.916 2.943 1.21.996 2.373 1.958 3.488 2.883 2.267 1.792 4.118 3.619 5.815 5.162.83.783 1.637 1.495 2.325 2.183.677.7 1.294 1.353 1.863 1.934 1.092 1.14 1.946 2.041 2.564 2.682.272.285.486.522.652.712.166.131.237.214.226.226zM466.575 231.151c-.012 0-.024-.107-.036-.321a57.015 57.015 0 01-.035-.925c-.012-.866-.036-2.053-.06-3.572-.012-.783-.023-1.637-.023-2.575-.048-.949-.095-1.97-.143-3.061-.118-2.195-.178-4.699-.463-7.452-.118-1.377-.249-2.824-.379-4.331-.143-1.507-.38-3.062-.57-4.675-.356-3.24-.973-6.657-1.578-10.265-1.365-7.19-3.204-15.034-5.696-23.103-2.551-8.057-5.506-15.544-8.484-22.237-1.566-3.31-3.002-6.479-4.557-9.338-.759-1.436-1.447-2.848-2.195-4.165-.747-1.318-1.471-2.575-2.159-3.774-1.329-2.432-2.718-4.521-3.869-6.396-.581-.925-1.127-1.791-1.625-2.598-.523-.772-1.009-1.495-1.448-2.136-.843-1.258-1.507-2.255-1.982-2.967-.201-.32-.368-.569-.498-.783-.107-.178-.166-.273-.154-.273 0 0 4.26 5.399 9.955 14.928.7 1.198 1.436 2.456 2.196 3.761.759 1.317 1.459 2.729 2.23 4.165 1.578 2.86 3.038 6.028 4.616 9.339 3.014 6.692 5.993 14.204 8.556 22.284 2.503 8.093 4.331 15.972 5.66 23.187.581 3.619 1.198 7.06 1.53 10.299.178 1.626.416 3.18.534 4.687.119 1.507.238 2.955.345 4.343.771 11.095.332 17.954.332 17.954zM440.433 200.418s.048.19.095.57c.048.403.119.961.214 1.685.154 1.483.51 3.666.688 6.49.534 5.649.866 13.872.498 24.017-.178 5.067-.64 10.608-1.293 16.541-.795 5.91-1.673 12.234-3.144 18.784-.333 1.65-.689 3.311-1.128 4.972-.415 1.662-.842 3.358-1.269 5.055-.985 3.37-1.935 6.835-3.157 10.276-2.361 6.906-5.138 13.979-8.745 20.837-3.584 6.882-7.618 13.29-11.866 19.247-4.236 5.957-8.793 11.356-13.266 16.351-9.078 9.897-18.179 17.918-26.296 24.017-8.104 6.099-15.07 10.502-20.041 13.243-2.433 1.459-4.438 2.385-5.755 3.097-.641.332-1.151.581-1.507.771-.345.166-.523.249-.523.249s.167-.106.499-.296c.356-.202.854-.475 1.483-.831 1.293-.748 3.275-1.709 5.684-3.192 4.924-2.8 11.83-7.238 19.887-13.373 8.058-6.123 17.111-14.156 26.141-24.052 4.45-4.996 8.983-10.383 13.195-16.316 4.213-5.933 8.236-12.329 11.807-19.176 3.596-6.835 6.36-13.871 8.722-20.754 1.222-3.429 2.171-6.882 3.156-10.24.427-1.697.855-3.382 1.282-5.043a86.913 86.913 0 001.139-4.948c1.483-6.527 2.385-12.839 3.192-18.725.664-5.921 1.163-11.439 1.364-16.506.428-10.121.167-18.333-.296-23.969-.143-2.836-.463-5.008-.57-6.503-.071-.724-.118-1.281-.154-1.697-.036-.379-.036-.581-.036-.581z" fill="#13ACAC"/><path d="M386.466 149.287c.012-.012.118.107.32.356.226.261.522.617.902 1.08.759.961 1.982 2.314 3.37 4.212 2.86 3.702 6.728 9.291 10.798 16.625 2.053 3.654 4.035 7.796 6.028 12.305 1.863 4.556 3.809 9.457 5.352 14.785 1.59 5.304 3.002 10.964 3.963 16.921.973 5.945 1.709 12.163 1.851 18.558.178 6.396-.071 12.65-.676 18.654a141.828 141.828 0 01-2.955 17.134c-2.634 10.775-6.277 20.125-10.062 27.601-3.762 7.487-7.417 13.219-10.134 17.028-1.305 1.946-2.468 3.346-3.192 4.343-.356.474-.641.83-.854 1.115-.19.249-.297.368-.309.368-.012-.012.083-.142.261-.404.202-.284.463-.664.807-1.151.688-1.02 1.827-2.444 3.097-4.402 2.646-3.844 6.242-9.599 9.932-17.087 3.714-7.476 7.298-16.814 9.896-27.541 1.234-5.375 2.255-11.083 2.908-17.064.593-5.98.83-12.198.664-18.57-.142-6.372-.866-12.554-1.827-18.475-.95-5.933-2.338-11.57-3.904-16.85-1.519-5.316-3.43-10.205-5.269-14.75-1.97-4.497-3.916-8.638-5.933-12.293-3.999-7.333-7.808-12.946-10.608-16.684-1.353-1.91-2.539-3.287-3.275-4.271a63.928 63.928 0 00-.855-1.116c-.213-.285-.308-.427-.296-.427zM336.024 425.767s-.214.059-.641.154c-.451.095-1.068.225-1.875.391-1.649.333-4.094.867-7.25 1.377-6.313 1.115-15.509 2.48-26.948 3.287a272.892 272.892 0 01-40.262-.083c-7.558-.57-15.485-1.448-23.625-2.801-8.14-1.352-16.529-3.037-24.978-5.363-8.437-2.338-16.553-5.138-24.064-8.603-7.535-3.406-14.501-7.321-20.873-11.451-6.372-4.129-12.115-8.508-17.336-12.78-5.233-4.259-9.861-8.531-13.99-12.506-8.235-7.986-14.429-14.916-18.63-19.746a210.39 210.39 0 01-4.77-5.636c-.522-.641-.926-1.127-1.222-1.483-.273-.332-.404-.522-.404-.522s.155.154.451.474c.297.344.724.819 1.27 1.448 1.103 1.27 2.717 3.168 4.853 5.553 4.26 4.782 10.49 11.665 18.76 19.591 4.142 3.952 8.781 8.188 14.014 12.424 5.221 4.248 10.964 8.591 17.325 12.697 6.36 4.093 13.301 7.986 20.813 11.367 7.475 3.442 15.556 6.242 23.969 8.568 8.425 2.314 16.791 4.01 24.907 5.363 8.128 1.353 16.031 2.255 23.578 2.836a278.54 278.54 0 0040.19.214 274.544 274.544 0 0026.948-3.097c3.168-.487 5.613-.973 7.274-1.27.807-.142 1.436-.249 1.887-.332.403-.048.629-.071.629-.071z" fill="#13ACAC"/><path d="M270.392 405.736s-6.194.487-16.209-.189c-1.246-.095-2.563-.202-3.928-.309-1.364-.119-2.776-.332-4.236-.498-2.931-.309-6.028-.89-9.303-1.448-6.502-1.27-13.586-3.038-20.86-5.458-7.251-2.48-13.955-5.376-19.9-8.307-2.943-1.542-5.755-2.954-8.27-4.485-1.27-.748-2.516-1.436-3.667-2.171a463.327 463.327 0 01-3.311-2.136c-8.365-5.53-13.005-9.671-13.005-9.671.012-.012.095.047.249.154.178.131.404.297.677.487.629.474 1.495 1.115 2.586 1.922.558.427 1.187.89 1.852 1.4.688.498 1.459 1.009 2.278 1.578 1.637 1.116 3.465 2.457 5.601 3.75 1.056.664 2.159 1.364 3.322 2.088 1.151.724 2.409 1.389 3.679 2.136 2.527 1.507 5.339 2.907 8.27 4.426 5.945 2.896 12.626 5.767 19.84 8.235a173.676 173.676 0 0020.766 5.482c3.251.57 6.336 1.163 9.255 1.496 1.46.178 2.86.403 4.213.534 1.353.118 2.658.237 3.904.344 2.492.273 4.746.308 6.728.415.997.047 1.91.107 2.765.119.842 0 1.625.011 2.325.011 1.365.012 2.433.024 3.228.036.332.012.617.024.843.024.213.012.308.024.308.035zM229.988 374.292c0 .023-.356-.024-1.032-.143-.724-.13-1.709-.308-2.943-.522l-2.124-.391c-.772-.167-1.602-.38-2.504-.594-1.792-.451-3.845-.89-6.064-1.613a654.178 654.178 0 00-3.488-1.068c-1.211-.38-2.433-.867-3.726-1.329-2.587-.879-5.257-2.065-8.093-3.264-5.589-2.551-11.581-5.731-17.526-9.599-5.921-3.928-11.202-8.164-15.77-12.282-2.231-2.124-4.379-4.093-6.218-6.134-.925-.997-1.863-1.935-2.693-2.896-.819-.961-1.614-1.898-2.362-2.776-1.542-1.745-2.765-3.453-3.892-4.925-.558-.735-1.08-1.412-1.542-2.053-.439-.652-.843-1.246-1.211-1.791-.688-1.045-1.246-1.875-1.649-2.492-.368-.57-.558-.878-.546-.89.012-.012.237.273.641.819l1.744 2.42c.38.534.795 1.116 1.246 1.756.475.629 1.009 1.294 1.578 2.018 1.151 1.435 2.385 3.132 3.952 4.841a570.42 570.42 0 002.385 2.741c.83.949 1.78 1.863 2.705 2.86 1.839 2.005 3.999 3.963 6.23 6.063 4.568 4.07 9.837 8.271 15.734 12.187 5.921 3.856 11.866 7.024 17.42 9.599 2.812 1.211 5.458 2.409 8.033 3.311 1.282.463 2.492.961 3.702 1.353 1.199.38 2.362.747 3.465 1.103 2.195.748 4.236 1.211 6.016 1.697.89.226 1.721.463 2.48.641.771.166 1.472.308 2.112.451 1.223.273 2.196.486 2.919.641.677.142 1.021.237 1.021.261zM275.685 459.704c0 .011-.13.023-.38.059-.284.024-.652.059-1.127.107-1.032.083-2.48.201-4.331.344-.949.071-1.994.154-3.133.237-1.151.059-2.397.059-3.738.107-2.681.035-5.743.202-9.113.035-1.685-.047-3.465-.106-5.304-.154-1.839-.059-3.749-.273-5.731-.415-3.975-.226-8.176-.843-12.614-1.4-8.828-1.365-18.463-3.394-28.348-6.361-9.86-3.049-18.997-6.739-27.09-10.537-3.999-2.005-7.832-3.844-11.249-5.861-1.721-.985-3.429-1.887-4.996-2.86-1.554-.985-3.061-1.922-4.485-2.824-2.895-1.745-5.34-3.584-7.547-5.115-1.092-.783-2.124-1.483-3.049-2.171-.902-.712-1.721-1.353-2.469-1.946-1.459-1.151-2.598-2.065-3.405-2.706-.368-.296-.653-.534-.878-.712-.19-.166-.297-.249-.285-.261.012-.011.119.06.32.214.238.166.534.392.914.665.831.617 1.994 1.495 3.477 2.61.759.57 1.59 1.21 2.504 1.899.925.676 1.969 1.364 3.073 2.124 2.219 1.495 4.675 3.31 7.582 5.031 1.436.89 2.931 1.815 4.498 2.788 1.566.962 3.275 1.84 4.995 2.825 3.429 2.005 7.25 3.82 11.249 5.802 8.081 3.75 17.194 7.416 27.019 10.454 9.849 2.955 19.449 4.996 28.253 6.384 4.415.581 8.603 1.21 12.566 1.46 1.982.154 3.881.367 5.72.45 1.839.072 3.607.131 5.292.19 3.37.19 6.42.06 9.101.06 1.341-.024 2.587-.012 3.738-.048 1.139-.071 2.184-.13 3.133-.178 1.851-.095 3.311-.178 4.343-.225.475-.024.842-.036 1.127-.048.238-.035.368-.035.368-.023zM105.419 181.017c-.06.154-11.332-4.023-25.18-9.327-13.848-5.316-25.026-9.754-24.966-9.908.059-.154 11.332 4.023 25.18 9.327 13.847 5.316 25.025 9.754 24.966 9.908zM151.696 144.458c.012.012-.071.107-.237.296-.19.214-.439.487-.748.831-.641.748-1.697 1.744-2.86 3.204-2.456 2.8-5.743 7.108-9.196 12.803-3.393 5.732-6.882 12.899-9.671 21.253-2.812 8.341-4.971 17.834-6.17 27.92-.878 7.607-1.222 15.035-.89 21.81l.012.321h-.309c-15.034-.048-27.992-.083-37.235-.107-4.569-.036-8.223-.071-10.775-.083-1.222-.024-2.183-.036-2.871-.048-.297-.012-.546-.023-.748-.023-.166-.012-.249-.012-.249-.024s.083-.012.25-.024c.2-.012.438-.012.747-.024.688-.012 1.65-.023 2.871-.047 2.552-.024 6.206-.048 10.775-.083 9.243-.024 22.189-.071 37.235-.107l-.296.32c-.356-6.846-.012-14.274.866-21.928 1.21-10.134 3.394-19.662 6.242-28.04a108.657 108.657 0 019.837-21.299c3.512-5.696 6.87-9.98 9.386-12.732 1.198-1.436 2.278-2.409 2.954-3.133l.795-.795c.178-.178.273-.273.285-.261z" fill="#13ACAC"/><path d="M178.846 325.854c.036.024-.32.475-.973 1.258s-1.638 1.898-2.872 3.251c-2.456 2.706-5.956 6.36-9.991 10.229a215.72 215.72 0 01-10.632 9.552 123.08 123.08 0 01-3.358 2.729c-.807.629-1.27.961-1.293.926-.024-.036.379-.428 1.139-1.104l3.227-2.871a397.187 397.187 0 0010.49-9.671 386.123 386.123 0 0010.098-10.075c1.21-1.246 2.219-2.29 3.014-3.109.712-.759 1.115-1.151 1.151-1.115zM168.606 368.323c.142.095-6.716 11.356-15.319 25.156-8.603 13.8-15.699 24.919-15.841 24.824-.143-.095 6.716-11.356 15.319-25.156 8.603-13.801 15.698-24.919 15.841-24.824zM225.942 376.534c.036.012-.178.653-.605 1.792-.463 1.234-1.08 2.848-1.815 4.806a779.225 779.225 0 00-5.862 15.888 819.834 819.834 0 00-5.47 16.031c-.653 1.982-1.199 3.62-1.614 4.877-.392 1.151-.617 1.78-.665 1.768-.035-.011.119-.664.427-1.839.321-1.175.807-2.86 1.424-4.936 1.246-4.153 3.086-9.861 5.305-16.102a378.756 378.756 0 016.027-15.842 164.341 164.341 0 012.006-4.734c.51-1.127.795-1.733.842-1.709zM330.802 426.787c-.024.012-.095-.166-.213-.51-.143-.416-.297-.914-.499-1.507-.439-1.412-1.02-3.299-1.732-5.577a2052.278 2052.278 0 01-10.787-37.022c-.628-2.302-1.151-4.213-1.542-5.637-.154-.605-.285-1.115-.392-1.542-.083-.356-.118-.546-.095-.546.024 0 .095.178.214.51.142.415.297.914.498 1.507.439 1.412 1.021 3.299 1.733 5.577a1833.63 1833.63 0 015.482 18.487c2.1 7.227 3.975 13.777 5.304 18.523.629 2.302 1.151 4.213 1.543 5.637.154.605.284 1.115.391 1.542.083.368.119.546.095.558zM342.894 385.458c-.155.059-3.667-8.746-7.82-19.651-4.165-10.916-7.405-19.816-7.25-19.875.154-.06 3.666 8.733 7.819 19.662 4.177 10.905 7.417 19.804 7.251 19.864zM428.211 344.603c-.024.035-.605-.214-1.649-.712-1.045-.487-2.528-1.234-4.355-2.196a165.126 165.126 0 01-13.86-8.187 162.39 162.39 0 01-12.958-9.552 130.081 130.081 0 01-3.726-3.157c-.866-.759-1.329-1.198-1.293-1.234.024-.035.546.344 1.448 1.056.996.772 2.29 1.78 3.844 2.991 3.252 2.515 7.808 5.909 13.029 9.374a218.282 218.282 0 0013.729 8.318c1.721.961 3.157 1.744 4.26 2.361 1.009.57 1.555.89 1.531.938zM483.376 299.167c-.035.166-12.269-2.717-27.303-6.443-15.047-3.726-27.197-6.871-27.162-7.037.036-.166 12.27 2.718 27.304 6.444 15.034 3.725 27.197 6.87 27.161 7.036zM469.196 231.851c0 .166-10.68.439-23.851.593-13.183.155-23.863.143-23.863-.023 0-.166 10.68-.439 23.863-.594 13.16-.154 23.839-.142 23.851.024zM439.58 200.287c0 .166-23.175.712-51.772 1.21-28.597.499-51.784.772-51.784.594 0-.166 23.175-.712 51.772-1.211 28.597-.498 51.784-.759 51.784-.593zM481.739 158.946c.012.024-.166.095-.51.237-.415.155-.902.333-1.495.558l-5.53 1.97a794.83 794.83 0 00-18.178 6.692 812.27 812.27 0 00-18.001 7.168c-2.219.913-4.058 1.673-5.435 2.23-.593.238-1.08.428-1.483.594-.344.13-.522.19-.534.166-.012-.024.154-.119.486-.285.392-.19.867-.415 1.436-.7a236.176 236.176 0 015.352-2.421c4.544-1.993 10.869-4.628 17.953-7.345a428.873 428.873 0 0118.262-6.526c2.361-.772 4.272-1.389 5.601-1.78.605-.178 1.115-.321 1.531-.451.355-.083.545-.131.545-.107zM390.832 113.808c.119.13-6.763 6.372-15.366 13.942-8.603 7.571-15.663 13.611-15.77 13.48-.119-.13 6.763-6.372 15.366-13.943 8.603-7.57 15.664-13.61 15.77-13.479zM401.749 48.485c.143.095-6.811 10.098-15.521 22.32-8.709 12.234-15.888 22.07-16.031 21.964-.142-.095 6.812-10.098 15.521-22.332 8.71-12.21 15.889-22.047 16.031-21.952zM269.515 63.08c-.023 0-.023-.202-.023-.582.012-.45.035-.996.059-1.66.071-1.543.154-3.608.273-6.124a342.49 342.49 0 00.19-20.208 334.362 334.362 0 00-1.056-20.184c-.214-2.503-.392-4.568-.534-6.11-.048-.665-.095-1.211-.131-1.662-.024-.38-.024-.581 0-.581s.06.19.131.57c.071.45.154.996.249 1.648.202 1.436.463 3.513.724 6.088.534 5.15 1.068 12.305 1.234 20.208.166 7.903-.06 15.07-.38 20.243a164.53 164.53 0 01-.463 6.123l-.178 1.661c-.035.38-.071.57-.095.57zM210.765 115.837c-.035.023-.368-.427-.949-1.258a136.015 136.015 0 01-2.373-3.572 217.603 217.603 0 01-7.227-12.163 205.544 205.544 0 01-6.407-12.613 117.464 117.464 0 01-1.745-3.916c-.391-.937-.593-1.46-.545-1.471.035-.012.308.474.771 1.376.51 1.009 1.151 2.302 1.922 3.833a388.106 388.106 0 006.562 12.507 371.517 371.517 0 007.06 12.234c.878 1.471 1.626 2.705 2.207 3.678.499.855.76 1.341.724 1.365zM352.719 186.487c-.012-.012-.012-.142-.024-.403-.012-.297-.012-.665-.024-1.128-.011-1.032-.035-2.468-.059-4.283-.035-3.726-.071-9.042-.119-15.557l.238.238c-10.715.023-24.895.047-40.416.071-.273.273.368-.38.308-.309V176.14c0 3.572-.011 7.036-.011 10.335l-.285-.285c11.747.06 21.798.107 28.977.143 3.548.035 6.384.059 8.389.083.949.012 1.697.024 2.255.035.486.012.759.024.771.036.012.012-.237.024-.736.036-.546.012-1.269.023-2.195.035-1.982.024-4.794.048-8.318.083-7.215.036-17.336.083-29.167.143h-.285v-.297c0-3.299-.012-6.752-.012-10.335v-5.447V165.128c-.071.059.582-.593.309-.308 15.521.023 29.689.059 40.416.071h.237v.237c-.047 6.574-.095 11.926-.119 15.699-.023 1.804-.047 3.216-.059 4.236-.012.451-.024.807-.024 1.092a5.992 5.992 0 00-.047.332z" fill="#13ACAC"/><path d="M345.611 172.568c0 .167-6.277.309-14.014.309-7.749 0-14.026-.142-14.026-.309 0-.166 6.277-.308 14.026-.308 7.737 0 14.014.142 14.014.308zM345.611 177.172c0 .166-6.277.309-14.014.309-7.749 0-14.026-.143-14.026-.309s6.277-.308 14.026-.308c7.737 0 14.014.142 14.014.308zM336.023 186.012c.166 0 .309 2.587.309 5.767 0 3.192-.143 5.767-.309 5.767s-.308-2.587-.308-5.767.13-5.767.308-5.767zM500.25 280.099c-.012-.012-.012-.143-.024-.404-.011-.296-.011-.664-.023-1.127-.012-1.032-.036-2.468-.06-4.284-.035-3.726-.071-9.042-.118-15.556l.237.237c-10.715.024-24.895.048-40.416.071-.273.273.368-.379.309-.308v11.023c0 3.572-.012 7.037-.012 10.336l-.285-.285c11.748.059 21.798.107 28.977.142 3.548.036 6.384.06 8.389.083.95.012 1.697.024 2.255.036.486.012.759.024.771.036.012.011-.237.023-.736.035-.545.012-1.269.024-2.195.036-1.981.024-4.794.047-8.318.083-7.214.035-17.336.083-29.167.142h-.284v-.296c0-3.299-.012-6.752-.012-10.336v-5.446V258.74c-.072.059.581-.594.308-.309 15.521.024 29.689.06 40.416.071h.237v.238c-.047 6.574-.095 11.925-.118 15.699-.024 1.803-.048 3.215-.06 4.236-.011.451-.023.807-.023 1.091-.036.214-.036.333-.048.333z" fill="#13ACAC"/><path d="M493.142 266.18c0 .166-6.277.308-14.014.308-7.748 0-14.025-.142-14.025-.308s6.277-.309 14.025-.309c7.737 0 14.014.143 14.014.309zM493.142 270.784c0 .166-6.277.308-14.014.308-7.748 0-14.025-.142-14.025-.308 0-.167 6.277-.309 14.025-.309 7.737 0 14.014.142 14.014.309z" fill="#13ACAC"/><path d="M509.316 78.802H468.9v21.371h40.416v-21.37z" fill="#fff"/><path d="M509.317 100.173c-.012-.012-.012-.142-.024-.403-.012-.297-.012-.665-.024-1.127-.012-1.033-.035-2.469-.059-4.284-.036-3.726-.071-9.042-.119-15.557l.237.238c-10.715.023-24.895.047-40.415.07-.273.274.367-.379.308-.308V89.826c0 3.572-.012 7.037-.012 10.335l-.285-.284c11.748.059 21.798.106 28.977.142 3.548.036 6.384.059 8.39.083.949.012 1.697.024 2.254.036.487.011.76.023.772.035.011.012-.238.024-.736.036-.546.012-1.27.024-2.195.035-1.982.024-4.794.048-8.318.083l-29.167.143h-.285v-.297c0-3.299-.012-6.752-.012-10.335V84.39 78.802c-.071.06.582-.593.309-.308 15.52.024 29.689.06 40.415.071h.238v.237c-.048 6.574-.095 11.926-.119 15.7-.024 1.803-.047 3.215-.059 4.235-.012.451-.024.807-.024 1.092-.036.237-.036.356-.047.344z" fill="#13ACAC"/><path d="M502.208 86.254c0 .166-6.277.309-14.013.309-7.749 0-14.026-.143-14.026-.309s6.277-.308 14.026-.308c7.736 0 14.013.142 14.013.308zM502.208 90.87c0 .166-6.277.309-14.013.309-7.749 0-14.026-.142-14.026-.309 0-.166 6.277-.308 14.026-.308 7.736 0 14.013.13 14.013.308zM481.55 100.078c.166 0 .308 12.626.308 28.182 0 15.569-.142 28.182-.308 28.182s-.309-12.613-.309-28.182c0-15.556.143-28.182.309-28.182zM40.725 155.481c-.012-.012-.012-.142-.024-.403-.012-.297-.012-.665-.024-1.128-.012-1.032-.035-2.468-.059-4.283-.036-3.726-.071-9.042-.119-15.557l.238.238c-10.715.023-24.895.047-40.416.071-.273.273.368-.38.308-.309V145.134c0 3.572-.012 7.037-.012 10.335l-.284-.284c11.747.059 21.798.106 28.977.142 3.548.036 6.384.059 8.389.083.95.012 1.697.024 2.255.036.486.011.759.023.77.035.013.012-.236.024-.735.036-.546.012-1.27.024-2.195.035-1.982.024-4.794.048-8.318.083l-29.167.143H.024v-.297c0-3.299-.012-6.752-.012-10.335v-5.447V134.122c-.07.06.582-.593.309-.308 15.52.023 29.689.059 40.416.071h.237v.237c-.047 6.574-.095 11.926-.119 15.699-.023 1.804-.047 3.216-.059 4.236-.012.451-.024.807-.024 1.092-.023.225-.035.344-.047.332z" fill="#13ACAC"/><path d="M33.617 141.562c0 .167-6.277.309-14.014.309-7.749 0-14.026-.142-14.026-.309 0-.166 6.277-.308 14.026-.308 7.736 0 14.014.142 14.014.308zM33.617 146.166c0 .167-6.277.309-14.014.309-7.749 0-14.026-.142-14.026-.309 0-.166 6.277-.308 14.026-.308 7.736 0 14.014.142 14.014.308z" fill="#13ACAC"/><path d="M113.417 381.506H73.001v21.371h40.416v-21.371z" fill="#fff"/><path d="M113.404 402.877c-.011-.012-.011-.142-.023-.403-.012-.297-.012-.665-.024-1.128-.012-1.032-.036-2.468-.059-4.283-.036-3.726-.072-9.042-.119-15.557l.237.238c-10.715.023-24.895.047-40.415.071-.273.273.367-.38.308-.309V392.53c0 3.572-.012 7.036-.012 10.335l-.285-.285c11.748.06 21.798.107 28.977.143 3.548.035 6.384.059 8.39.083a328.4 328.4 0 012.254.035c.487.012.76.024.771.036.012.012-.237.024-.735.036-.546.011-1.27.023-2.195.035-1.982.024-4.794.048-8.319.083-7.214.036-17.336.083-29.166.143h-.285v-.297c0-3.299-.012-6.752-.012-10.335v-5.447V381.518c-.071.059.581-.593.309-.308 15.52.023 29.688.059 40.415.071h.238v.237c-.048 6.574-.095 11.926-.119 15.699-.024 1.804-.047 3.216-.059 4.236-.012.451-.024.807-.024 1.092-.024.225-.036.344-.048.332z" fill="#13ACAC"/><path d="M106.296 388.958c0 .166-6.277.309-14.014.309-7.748 0-14.025-.143-14.025-.309s6.277-.308 14.025-.308c7.737 0 14.014.142 14.014.308zM106.296 393.562c0 .166-6.277.309-14.014.309-7.748 0-14.025-.143-14.025-.309s6.277-.308 14.025-.308c7.737 0 14.014.142 14.014.308zM355.058 24.017c-.012-.012-.012-.142-.024-.404-.012-.296-.012-.664-.024-1.127-.012-1.032-.035-2.468-.059-4.283-.036-3.726-.071-9.042-.119-15.557l.238.237c-10.715.024-24.895.048-40.416.072-.273.273.368-.38.308-.309V13.67c0 3.571-.012 7.036-.012 10.335l-.308-.273c11.747.06 21.798.107 28.977.143 3.548.035 6.384.059 8.389.083.949.012 1.697.023 2.255.035.51 0 .783.012.795.024.012.012-.238.024-.736.035-.546.012-1.27.024-2.195.036-1.982.024-4.794.048-8.318.083-7.215.036-17.337.083-29.167.143h-.285v-.297c0-3.299-.012-6.752-.012-10.335V8.235 2.658c-.071.06.582-.593.309-.308 15.521.023 29.689.059 40.416.07h.237v.238c-.048 6.574-.095 11.925-.119 15.699-.023 1.803-.047 3.216-.059 4.236-.012.45-.024.807-.024 1.092-.035.225-.035.344-.047.332z" fill="#13ACAC"/><path d="M347.95 10.11c0 .166-6.277.309-14.014.309-7.749 0-14.026-.143-14.026-.309s6.277-.308 14.026-.308c7.737 0 14.014.13 14.014.308zM347.95 14.714c0 .166-6.277.308-14.014.308-7.749 0-14.026-.142-14.026-.308s6.277-.309 14.026-.309c7.737 0 14.014.13 14.014.309zM50.182 160.251c0 .048-.498.084-1.388.119-1.02.024-2.29.059-3.786.095-3.204.059-7.618.095-12.495.095-5.114 0-9.718-.036-12.898-.095h-.214v-.202c.036-1.388.072-2.551.095-3.5.036-.819.072-1.27.119-1.27.036 0 .083.451.119 1.27.023.949.059 2.112.094 3.5l-.213-.213c3.192-.06 7.796-.095 12.898-.095 4.877 0 9.303.035 12.495.095 1.495.035 2.765.071 3.786.095.89.023 1.388.071 1.388.106zM317.656 89.814c-.024-.011.035-.237.154-.664.154-.498.344-1.116.569-1.875.522-1.709 1.234-4.046 2.113-6.906a355.873 355.873 0 006.075-23.008 343.624 343.624 0 002.599-12.377v.06c-.119-6.111-.214-11.344-.285-15.141a1067.67 1067.67 0 00-.036-4.343c0-1.009.024-1.555.048-1.555.035 0 .083.546.13 1.543.048 1.092.119 2.54.202 4.331.13 3.797.308 9.03.51 15.141V45.08c-.7 3.833-1.554 8.034-2.563 12.4-2.065 9.078-4.402 17.183-6.265 22.997a219.822 219.822 0 01-2.302 6.847 99.557 99.557 0 01-.688 1.839c-.155.45-.25.664-.261.652zM149.727 393.562c0 .166-7.666.308-17.111.308-9.457 0-17.111-.142-17.111-.308s7.665-.309 17.111-.309c9.445 0 17.111.143 17.111.309zM494.709 442.224c1.02-3.536 3.204-6.953 6.586-8.413 3.512-1.519 7.582-.652 11.177.653 3.596 1.305 7.132 3.061 10.953 3.287 3.821.237 8.128-1.578 9.279-5.233 1.08-3.429-.997-7.096-3.583-9.588-5.447-5.245-13.635-7.464-20.98-5.696-7.357 1.768-13.634 7.464-16.102 14.608" fill="#13ACAC"/><path opacity=".5" d="M494.709 442.224c1.02-3.536 3.204-6.953 6.586-8.413 3.512-1.519 7.582-.652 11.177.653 3.596 1.305 7.132 3.061 10.953 3.287 3.821.237 8.128-1.578 9.279-5.233 1.08-3.429-.997-7.096-3.583-9.588-5.447-5.245-13.635-7.464-20.98-5.696-7.357 1.768-13.634 7.464-16.102 14.608" fill="#000"/><path d="M464.45 457.567c-5.6-5.328-5.327-14.595-2.527-21.798 2.8-7.202 8.9-12.744 15.711-16.387 13.207-7.072 29.724-7.606 43.37-1.4-6.704.226-13.183 4.023-16.648 9.778-3.073 5.102-3.75 11.296-6.289 16.683-2.824 6.005-8.01 10.846-14.192 13.267-6.182 2.397-13.278 2.349-19.425-.143zM461.757 425.576c-6.206-7.321-7.037-19.08-6.123-28.645.913-9.564 3.132-19.175 1.625-28.656-.89-5.613-3.073-10.976-3.809-16.624-.735-5.637.309-12.021 4.676-15.652 5.019-4.189 12.934-3.192 18.155.736 5.221 3.928 8.247 10.098 10.466 16.256 4.865 13.516 6.645 28.503 2.646 42.291-3.987 13.8-13.362 26.129-27.102 30.294" fill="#13ACAC"/><path d="M458.779 485.678c-.012 0-.024-.297-.024-.843.012-.557 0-1.364.047-2.42.083-2.101.285-5.138.748-8.876.475-3.726 1.21-8.152 2.385-12.993 1.151-4.842 3.133-10.015 5.933-15.047 2.8-5.031 6.23-9.374 9.683-12.945a61.324 61.324 0 0110.157-8.449c1.555-1.068 3.05-1.887 4.343-2.634 1.329-.7 2.48-1.27 3.429-1.721.938-.392 1.685-.712 2.231-.937.51-.214.783-.309.795-.297.012.012-.249.154-.747.392-.546.249-1.27.593-2.184 1.02-.925.487-2.064 1.08-3.37 1.792-1.269.771-2.753 1.602-4.271 2.693a62.484 62.484 0 00-10.015 8.473c-3.418 3.571-6.8 7.891-9.576 12.874-5.708 9.98-7.262 20.469-8.402 27.826-.51 3.714-.771 6.74-.913 8.829l-.143 2.409c-.071.569-.094.854-.106.854z" fill="#263238"/><path d="M405.251 396.683c-11.487 6.93-11.451 13.231-9.529 19.187 1.922 5.957 8.959 10.086 14.809 7.856 3.299-1.258 5.696-4.13 7.737-7.013 2.041-2.884 3.963-5.969 6.823-8.045 2.859-2.077 7.013-2.86 9.896-.807" fill="#13ACAC"/><path opacity=".5" d="M405.251 396.683c-11.487 6.93-11.451 13.231-9.529 19.187 1.922 5.957 8.959 10.086 14.809 7.856 3.299-1.258 5.696-4.13 7.737-7.013 2.041-2.884 3.963-5.969 6.823-8.045 2.859-2.077 7.013-2.86 9.896-.807" fill="#000"/><path d="M396.66 404.277c3.002-4.153 10.419-5.352 15.106-3.275 4.687 2.065 8.116 6.17 11.177 10.276 3.074 4.094 6.064 8.425 10.312 11.273 4.248 2.848 10.193 3.88 14.429 1.008 2.789-1.886 4.403-5.161 4.901-8.484.51-3.322.024-6.716-.676-10.015-1.009-4.818-2.67-9.849-6.527-12.898-4.295-3.406-10.252-3.572-15.734-3.394-6.289.202-12.673.676-18.571 2.86-5.897 2.171-11.913 6.882-14.417 12.649z" fill="#13ACAC"/><path d="M449.227 476.482c-.012 0-.024-.083-.036-.249a38.635 38.635 0 01-.036-.736c-.023-.688-.059-1.649-.094-2.848-.072-2.515-.178-6.087-.297-10.477-.143-4.426-.321-9.695-.641-15.533-.332-5.838-.759-12.258-1.649-18.938-.451-3.335-.973-6.598-1.899-9.624-.925-3.025-2.171-5.838-3.512-8.413-1.365-2.575-2.86-4.912-4.438-6.965a45.851 45.851 0 00-4.841-5.316c-3.264-2.978-6.373-4.794-8.592-5.862-.557-.261-1.044-.51-1.495-.688-.427-.166-.807-.309-1.127-.439-.273-.107-.51-.202-.688-.273-.154-.071-.237-.107-.226-.107 0-.012.083.012.25.059.189.06.415.143.7.226.32.107.7.237 1.139.392.451.166.949.403 1.519.652 2.254 1.009 5.434 2.801 8.757 5.767a44.395 44.395 0 014.936 5.328c1.614 2.053 3.133 4.414 4.521 7.001 1.377 2.599 2.634 5.435 3.584 8.496.949 3.073 1.471 6.348 1.934 9.706.89 6.705 1.305 13.136 1.614 18.986.296 5.85.439 11.119.534 15.545.095 4.426.13 8.009.142 10.489v2.848c0 .297-.012.546-.012.736-.024.154-.036.237-.047.237zM453.367 481.667s-.641-1.708-1.258-4.936c-.593-3.216-1.044-7.998-.522-13.848.487-5.85 1.994-12.72 4.379-20.101 2.361-7.381 5.553-15.283 8.282-23.779 1.353-4.248 2.504-8.449 3.299-12.578.795-4.13 1.305-8.152 1.626-12.009.64-7.701.557-14.678.368-20.528-.202-5.85-.511-10.573-.701-13.848-.094-1.614-.166-2.872-.225-3.761-.024-.404-.036-.736-.047-.985-.012-.226-.012-.333 0-.333.011 0 .023.107.047.333.024.249.059.569.095.973.071.89.178 2.147.32 3.761.249 3.263.617 7.986.867 13.848.237 5.85.367 12.839-.262 20.576-.308 3.868-.806 7.914-1.601 12.056-.784 4.153-1.946 8.377-3.299 12.637-2.741 8.52-5.957 16.411-8.33 23.768-2.409 7.345-3.928 14.168-4.462 19.982-.569 5.815-.178 10.561.356 13.789.285 1.601.534 2.847.771 3.678.095.392.178.712.238.949.035.249.059.356.059.356z" fill="#263238"/><path d="M481.822 486.864h-53.907l-1.234-10.383h55.141v10.383z" fill="#455A64"/><path d="M433.705 485.678l6.74 31.124h29.285l6.313-31.124h-42.338z" fill="#455A64"/><path d="M481.82 486.865c0 .142-11.854.225-26.473.178-14.619-.036-26.473-.19-26.473-.333 0-.142 11.854-.225 26.473-.178 14.619.036 26.473.19 26.473.333z" fill="#455A64"/><path d="M472.567 502.219c-.071.107-1.59-1.46-4.746-2.717a17.107 17.107 0 00-5.779-1.163c-2.231-.072-4.652.462-7.096 1.305-2.456.831-4.747 1.804-6.989 2.326a16.445 16.445 0 01-6.04.178c-1.709-.273-3.038-.772-3.88-1.234-.416-.238-.736-.428-.938-.594-.201-.154-.308-.237-.296-.249.023-.036.462.273 1.317.665.854.391 2.171.83 3.844 1.044 1.674.213 3.715.213 5.886-.285 2.16-.534 4.45-1.519 6.93-2.361 2.468-.855 4.972-1.389 7.274-1.294 2.29.083 4.319.617 5.897 1.294a14.923 14.923 0 013.512 2.052c.38.297.653.546.843.724.19.202.273.297.261.309z" fill="#263238"/><path d="M472.163 504.308c-.071.107-1.531-1.412-4.557-2.682a15.705 15.705 0 00-5.565-1.151c-2.16-.059-4.497.427-6.87 1.234-2.374.795-4.604 1.721-6.728 2.29-2.124.582-4.13.783-5.803.653-1.673-.119-2.978-.593-3.809-1.021-.403-.225-.712-.415-.902-.569-.19-.143-.296-.237-.285-.249.024-.048.451.261 1.27.64.831.368 2.112.772 3.738.831 1.626.083 3.572-.154 5.648-.748 2.089-.581 4.296-1.518 6.693-2.313 2.397-.819 4.817-1.306 7.036-1.223 2.219.072 4.177.606 5.696 1.282a14.923 14.923 0 013.37 2.041c.368.285.629.534.807.7.19.166.273.261.261.285z" fill="#fff"/><path d="M473.1 500.155c-.071.095-1.649-1.496-4.877-2.872-1.601-.676-3.619-1.282-5.921-1.424-2.302-.166-4.794.427-7.321 1.293-2.539.855-4.901 1.887-7.238 2.362-2.338.427-4.486.296-6.23.012-1.756-.309-3.121-.807-4.011-1.27-.439-.237-.771-.439-.973-.605-.213-.154-.308-.249-.308-.261.023-.048.474.273 1.364.688.89.403 2.243.831 3.975 1.092 1.721.237 3.833.32 6.088-.119 2.242-.475 4.604-1.531 7.155-2.385 2.539-.878 5.138-1.471 7.523-1.282 2.361.167 4.426.831 6.04 1.567a17.374 17.374 0 013.595 2.159c.392.309.677.558.867.748.201.19.284.285.272.297z" fill="#fff"/><path d="M482.297 486.9c0 .142-12.128.261-27.079.261-14.963 0-27.09-.119-27.09-.261 0-.142 12.127-.261 27.09-.261 14.951.012 27.079.119 27.079.261z" fill="#263238"/></g><defs><clipPath id="clip0"><path fill="#fff" d="M0 0h533v537.177H0z"/></clipPath></defs></svg>