<svg width="709" height="502" fill="none" xmlns="http://www.w3.org/2000/svg"><g filter="url(#filter0_d)"><g clip-path="url(#clip0)"><rect x="93" y="31" width="550" height="330" rx="5" fill="#fff"/><path d="M104.506 66.26h526.478V349.74H104.506V66.261z" stroke="#A0A0A0" stroke-width=".522"/><path d="M132.134 75.874h485.267M132.134 232.412h485.267M132.134 107.182h485.267M132.134 263.719h485.267M132.134 138.489h485.267M132.134 295.027h485.267M132.134 169.797h485.267M132.134 326.334h485.267M132.134 201.104h485.267" stroke="#E6E6E6" stroke-width=".522"/><path d="M136.245 76v250" stroke="#B3B3B3" stroke-width=".522"/><path d="M177.245 76v250M219.245 76v250M261.245 76v250M303.245 76v250M344.245 76v250M386.245 76v250M428.245 76v250M469.245 76v250M511.245 76v250M553.245 76v250M595.245 76v250" stroke="#E6E6E6" stroke-width=".522"/><path d="M124.71 77.244c.956 0 1.666-.6 1.666-1.407 0-.626-.37-1.081-.992-1.185v-.038c.499-.152.809-.562.809-1.118 0-.698-.551-1.32-1.464-1.32-.853 0-1.561.525-1.59 1.3h.578c.022-.49.489-.78 1.002-.78.545 0 .896.33.896.829 0 .52-.407.857-.992.857h-.395v.53h.395c.749 0 1.166.381 1.166.925 0 .523-.456.877-1.089.877-.571 0-1.024-.294-1.06-.77h-.607c.036.775.72 1.3 1.677 1.3zm4.261 0c1.089 0 1.715-.922 1.715-2.534 0-1.6-.636-2.534-1.715-2.534-1.079 0-1.715.935-1.715 2.534 0 1.612.626 2.534 1.715 2.534zm0-.53c-.718 0-1.137-.72-1.137-2.004 0-1.281.424-2.014 1.137-2.014.713 0 1.137.733 1.137 2.014 0 1.284-.419 2.004-1.137 2.004zm-5.716 31.463h3.112v-.53h-2.293v-.039l1.108-1.185c.848-.908 1.098-1.332 1.098-1.879 0-.761-.617-1.368-1.484-1.368-.865 0-1.522.588-1.522 1.455h.568c0-.561.364-.935.935-.935.535 0 .944.328.944.848 0 .455-.267.793-.838 1.417l-1.628 1.782v.434zm5.716.067c1.089 0 1.715-.922 1.715-2.534 0-1.599-.636-2.534-1.715-2.534-1.079 0-1.715.935-1.715 2.534 0 1.612.626 2.534 1.715 2.534zm0-.53c-.718 0-1.137-.72-1.137-2.004 0-1.281.424-2.014 1.137-2.014.713 0 1.137.733 1.137 2.014 0 1.284-.419 2.004-1.137 2.004zm-3.028 27.529h-.598l-1.233.819v.607l1.205-.799h.028v4.307h.598v-4.934zm3.028 5.001c1.089 0 1.715-.922 1.715-2.534 0-1.599-.636-2.534-1.715-2.534-1.079 0-1.715.935-1.715 2.534 0 1.612.626 2.534 1.715 2.534zm0-.53c-.718 0-1.137-.72-1.137-2.004 0-1.281.424-2.014 1.137-2.014.713 0 1.137.733 1.137 2.014 0 1.284-.419 2.004-1.137 2.004zm0 31.53c1.089 0 1.715-.922 1.715-2.534 0-1.599-.636-2.534-1.715-2.534-1.079 0-1.715.935-1.715 2.534 0 1.612.626 2.534 1.715 2.534zm0-.53c-.718 0-1.137-.72-1.137-2.004 0-1.281.424-2.014 1.137-2.014.713 0 1.137.733 1.137 2.014 0 1.284-.419 2.004-1.137 2.004zm-5.753 28.731h-2.158v.53h2.158v-.53zm2.725-2.202h-.598l-1.233.819v.607l1.205-.799h.028v4.307h.598v-4.934zm3.028 5.001c1.089 0 1.715-.922 1.715-2.534 0-1.599-.636-2.534-1.715-2.534-1.079 0-1.715.935-1.715 2.534 0 1.612.626 2.534 1.715 2.534zm0-.53c-.718 0-1.137-.72-1.137-2.004 0-1.281.424-2.014 1.137-2.014.713 0 1.137.733 1.137 2.014 0 1.284-.419 2.004-1.137 2.004zm-6.475 29.731h-2.158v.53h2.158v-.53zm.759 2.732h3.112v-.53h-2.293v-.039l1.108-1.185c.848-.908 1.098-1.332 1.098-1.879 0-.761-.617-1.368-1.484-1.368-.865 0-1.522.588-1.522 1.455h.568c0-.561.364-.935.935-.935.535 0 .944.328.944.848 0 .455-.267.793-.838 1.417l-1.628 1.782v.434zm5.716.067c1.089 0 1.715-.922 1.715-2.534 0-1.599-.636-2.534-1.715-2.534-1.079 0-1.715.935-1.715 2.534 0 1.612.626 2.534 1.715 2.534zm0-.53c-.718 0-1.137-.72-1.137-2.004 0-1.281.424-2.014 1.137-2.014.713 0 1.137.733 1.137 2.014 0 1.284-.419 2.004-1.137 2.004zm-6.84 28.731h-2.158v.53h2.158v-.53zm2.579 2.799c.956 0 1.666-.6 1.666-1.407 0-.626-.37-1.081-.992-1.185v-.038c.499-.152.809-.562.809-1.118 0-.699-.551-1.32-1.464-1.32-.853 0-1.561.525-1.59 1.301h.578c.022-.492.489-.781 1.002-.781.545 0 .896.33.896.829 0 .52-.407.858-.992.858h-.395v.529h.395c.749 0 1.166.381 1.166.925 0 .523-.456.877-1.089.877-.571 0-1.024-.294-1.06-.771h-.607c.036.776.72 1.301 1.677 1.301zm4.261 0c1.089 0 1.715-.922 1.715-2.534 0-1.599-.636-2.534-1.715-2.534-1.079 0-1.715.935-1.715 2.534 0 1.612.626 2.534 1.715 2.534zm0-.53c-.718 0-1.137-.72-1.137-2.004 0-1.281.424-2.014 1.137-2.014.713 0 1.137.733 1.137 2.014 0 1.284-.419 2.004-1.137 2.004zm-6.952 28.731h-2.158v.53h2.158v-.53zm.875 1.72h2.322v1.012h.568v-1.012h.675v-.53h-.675v-3.392h-.722l-2.168 3.431v.491zm2.322-.53h-1.677v-.038l1.638-2.592h.039v2.63zm3.755 1.609c1.089 0 1.715-.922 1.715-2.534 0-1.599-.636-2.534-1.715-2.534-1.079 0-1.715.935-1.715 2.534 0 1.612.626 2.534 1.715 2.534zm0-.53c-.718 0-1.137-.72-1.137-2.004 0-1.281.424-2.014 1.137-2.014.713 0 1.137.733 1.137 2.014 0 1.284-.419 2.004-1.137 2.004zm-6.727 29.731h-2.158v.53h2.158v-.53zm2.532 2.799c.94 0 1.629-.694 1.629-1.638 0-.956-.665-1.657-1.571-1.657-.332 0-.655.118-.857.279h-.029l.173-1.455h2.062v-.53h-2.563l-.299 2.429.559.067c.205-.147.554-.253.858-.251.629.005 1.089.482 1.089 1.128 0 .633-.444 1.098-1.051 1.098-.505 0-.908-.325-.954-.771h-.578c.037.752.684 1.301 1.532 1.301zm4.195 0c1.089 0 1.715-.922 1.715-2.534 0-1.599-.636-2.534-1.715-2.534-1.079 0-1.715.935-1.715 2.534 0 1.612.626 2.534 1.715 2.534zm0-.53c-.718 0-1.137-.72-1.137-2.004 0-1.281.424-2.014 1.137-2.014.713 0 1.137.733 1.137 2.014 0 1.284-.419 2.004-1.137 2.004z" fill="#333"/><path d="M188.227 45.61c0-.72.584-1.304 1.305-1.304h75.138c.72 0 1.304.584 1.304 1.304v11.48c0 .72-.584 1.304-1.304 1.304h-75.138a1.305 1.305 0 01-1.305-1.304V45.61z" fill="#fff" stroke="#A0A0A0" stroke-width=".522"/><path d="M109.365 50.913h.759c-.225-1.174-1.209-1.98-2.49-1.98-1.557 0-2.656 1.197-2.656 3.119 0 1.92 1.091 3.118 2.703 3.118 1.447 0 2.479-.963 2.479-2.466v-.652h-2.313v.652h1.601c-.02 1.09-.738 1.779-1.767 1.779-1.126 0-1.992-.854-1.992-2.431 0-1.578.866-2.431 1.945-2.431.878 0 1.473.495 1.731 1.292zm1.959 4.175h.7v-2.882c0-.617.486-1.068 1.15-1.068.187 0 .38.036.427.048v-.712a6.759 6.759 0 00-.367-.011c-.546 0-1.02.308-1.186.758H112v-.687h-.676v4.553zm4.818.094c1.233 0 2.063-.937 2.063-2.348 0-1.423-.83-2.36-2.063-2.36s-2.063.937-2.063 2.36c0 1.411.83 2.348 2.063 2.348zm0-.628c-.937 0-1.364-.806-1.364-1.72 0-.913.427-1.731 1.364-1.731s1.364.818 1.364 1.731c0 .913-.427 1.72-1.364 1.72zm4.008.533h.688l.996-3.498h.071l.997 3.498h.687l1.388-4.553h-.735l-.985 3.474h-.047l-.961-3.474h-.747l-.972 3.486h-.048l-.984-3.486h-.735l1.387 4.553zm7.732-4.553h-.972v-1.091h-.7v1.09h-.688v.594h.688v2.846c0 .794.641 1.174 1.234 1.174.26 0 .426-.048.521-.083l-.142-.629c-.059.012-.154.036-.308.036-.309 0-.605-.095-.605-.688v-2.656h.972v-.593zm1.85 1.814c0-.794.507-1.245 1.198-1.245.658 0 1.055.415 1.055 1.138v2.846h.7v-2.893c0-1.171-.622-1.72-1.553-1.72-.718 0-1.127.3-1.34.771h-.06v-2.23h-.699v6.072h.699v-2.739zm8.609-1.814h-1.02v-.463c0-.45.19-.688.652-.688.202 0 .321.048.392.072l.201-.605c-.106-.048-.32-.119-.664-.119-.652 0-1.28.392-1.28 1.174v.629h-.736v.593h.736v3.96h.699v-3.96h1.02v-.593zm2.643 4.648c1.233 0 2.064-.937 2.064-2.348 0-1.423-.831-2.36-2.064-2.36s-2.063.937-2.063 2.36c0 1.411.83 2.348 2.063 2.348zm0-.628c-.937 0-1.364-.806-1.364-1.72 0-.913.427-1.731 1.364-1.731s1.364.818 1.364 1.731c0 .913-.427 1.72-1.364 1.72zm3.132.533h.699v-2.881c0-.617.487-1.068 1.151-1.068.186 0 .379.036.427.048v-.712a6.764 6.764 0 00-.368-.011c-.546 0-1.02.308-1.186.758h-.047v-.687h-.676v4.553zm4.877.095c.925 0 1.601-.462 1.814-1.15l-.676-.19c-.178.475-.59.712-1.138.712-.822 0-1.388-.53-1.42-1.506h3.305v-.297c0-1.695-1.008-2.277-1.957-2.277-1.233 0-2.051.973-2.051 2.372 0 1.4.806 2.336 2.123 2.336zm-1.42-2.739c.047-.709.548-1.34 1.348-1.34.759 0 1.246.57 1.246 1.34h-2.594zm6.22 2.74c1.008 0 1.672-.617 1.79-1.424h-.699c-.131.498-.546.795-1.091.795-.831 0-1.364-.688-1.364-1.743 0-1.032.545-1.708 1.364-1.708.616 0 .984.38 1.091.794h.699c-.118-.853-.842-1.423-1.802-1.423-1.234 0-2.052.973-2.052 2.36 0 1.364.783 2.348 2.064 2.348zm4.153.011c.795 0 1.21-.427 1.352-.723h.036v.617h.699v-3c0-1.448-1.103-1.614-1.684-1.614-.688 0-1.47.238-1.826 1.068l.664.237c.154-.332.519-.688 1.186-.688.643 0 .961.341.961.925v.024c0 .338-.344.308-1.174.415-.845.11-1.767.296-1.767 1.34 0 .89.687 1.4 1.553 1.4zm.107-.628c-.558 0-.961-.25-.961-.736 0-.533.486-.7 1.032-.77.296-.036 1.091-.119 1.21-.261v.64c0 .57-.451 1.127-1.281 1.127zm6.483-3.012c-.219-.647-.712-1.08-1.613-1.08-.96 0-1.672.546-1.672 1.317 0 .628.374 1.05 1.21 1.245l.759.178c.459.107.676.326.676.64 0 .392-.415.712-1.068.712-.572 0-.931-.246-1.055-.736l-.664.166c.163.774.8 1.186 1.731 1.186 1.059 0 1.779-.578 1.779-1.363 0-.635-.397-1.035-1.21-1.234l-.676-.166c-.539-.133-.782-.314-.782-.664 0-.391.415-.676.972-.676.611 0 .863.338.984.652l.629-.177zm3.117-1.02h-.973v-1.091h-.699v1.09h-.688v.594h.688v2.846c0 .794.64 1.174 1.233 1.174.261 0 .427-.048.522-.083l-.143-.629c-.059.012-.154.036-.308.036-.308 0-.605-.095-.605-.688v-2.656h.973v-.593zm3.649 1.992c0 1.494.403 2.74 1.127 3.795h.616c-.569-.783-1.019-2.384-1.019-3.795s.45-3.012 1.019-3.795h-.616c-.724 1.056-1.127 2.3-1.127 3.795zm5.859 1.423c0 .664.415 1.221 1.186 1.221.759 0 1.174-.557 1.174-1.22v-.321c0-.664-.403-1.222-1.174-1.222-.759 0-1.186.558-1.186 1.222v.32zm-3.024-3.475c0 .665.415 1.222 1.186 1.222.759 0 1.174-.557 1.174-1.222v-.32c0-.664-.403-1.221-1.174-1.221-.759 0-1.186.557-1.186 1.221v.32zm.226 4.614h.675l4.175-6.072h-.676l-4.174 6.072zm3.403-1.46c0-.367.166-.71.581-.71.427 0 .569.343.569.71v.321c0 .368-.154.712-.569.712-.427 0-.581-.344-.581-.712v-.32zm-3.024-3.474c0-.367.166-.711.581-.711.427 0 .569.344.569.711v.32c0 .368-.154.712-.569.712-.427 0-.581-.344-.581-.712v-.32zm7.613 1.898c0-1.495-.403-2.74-1.126-3.795h-.617c.569.782 1.02 2.383 1.02 3.795 0 1.41-.451 3.012-1.02 3.794h.617c.723-1.055 1.126-2.3 1.126-3.794z" fill="#777"/><path d="M250.851 55.088h3.831v-.652h-2.823v-.047l1.364-1.459c1.044-1.118 1.352-1.64 1.352-2.312 0-.937-.759-1.684-1.826-1.684-1.065 0-1.874.723-1.874 1.79h.7c0-.69.447-1.15 1.15-1.15.658 0 1.162.403 1.162 1.044 0 .56-.329.975-1.032 1.743l-2.004 2.194v.533zm7.035.083c1.341 0 2.111-1.135 2.111-3.118 0-1.97-.782-3.12-2.111-3.12-1.328 0-2.11 1.15-2.11 3.12 0 1.983.77 3.118 2.11 3.118zm0-.652c-.883 0-1.399-.886-1.399-2.466 0-1.578.522-2.479 1.399-2.479.878 0 1.4.901 1.4 2.479 0 1.58-.516 2.466-1.4 2.466z" fill="#000"/><path d="M370.854 45.61c0-.72.584-1.304 1.305-1.304h75.138c.72 0 1.304.584 1.304 1.304v11.48c0 .72-.584 1.304-1.304 1.304h-75.138a1.305 1.305 0 01-1.305-1.305V45.61z" fill="#fff" stroke="#A0A0A0" stroke-width=".522"/><path d="M281.889 55.087c1.85 0 2.893-1.15 2.893-3.047 0-1.886-1.043-3.024-2.81-3.024h-1.957v6.071h1.874zm-1.139-.652v-4.767h1.174c1.423 0 2.147.901 2.147 2.372 0 1.482-.724 2.395-2.23 2.395h-1.091zm7.08.747c.925 0 1.601-.462 1.814-1.15l-.675-.19c-.178.475-.59.712-1.139.712-.821 0-1.387-.53-1.42-1.506h3.306v-.297c0-1.696-1.008-2.277-1.957-2.277-1.233 0-2.052.973-2.052 2.372 0 1.4.807 2.336 2.123 2.336zm-1.42-2.74c.047-.708.548-1.34 1.349-1.34.759 0 1.245.57 1.245 1.34h-2.594zm6.22 2.74c1.008 0 1.672-.616 1.791-1.423h-.7c-.13.498-.546.795-1.091.795-.83 0-1.364-.688-1.364-1.744 0-1.031.546-1.707 1.364-1.707.617 0 .984.38 1.091.794h.7c-.119-.853-.842-1.423-1.803-1.423-1.233 0-2.052.973-2.052 2.36 0 1.364.783 2.348 2.064 2.348zm2.813-.095h.7v-2.881c0-.617.486-1.068 1.15-1.068.187 0 .38.036.427.048v-.712a6.719 6.719 0 00-.367-.012c-.546 0-1.02.309-1.186.76h-.048v-.688h-.676v4.553zm4.877.095c.925 0 1.601-.462 1.815-1.15l-.676-.19c-.178.475-.59.712-1.139.712-.821 0-1.387-.53-1.42-1.506h3.306v-.297c0-1.696-1.008-2.277-1.957-2.277-1.233 0-2.051.973-2.051 2.372 0 1.4.806 2.336 2.122 2.336zm-1.42-2.74c.048-.708.549-1.34 1.349-1.34.759 0 1.245.57 1.245 1.34H298.9zm5.71 2.752c.795 0 1.21-.427 1.352-.723h.036v.616h.7v-3c0-1.447-1.103-1.613-1.684-1.613-.688 0-1.471.238-1.827 1.068l.664.237c.155-.332.519-.688 1.186-.688.644 0 .961.34.961.925v.024c0 .338-.344.308-1.174.415-.845.11-1.767.296-1.767 1.34 0 .89.688 1.4 1.553 1.4zm.107-.628c-.557 0-.96-.25-.96-.736 0-.533.486-.7 1.031-.77.297-.036 1.091-.12 1.21-.261v.64c0 .57-.451 1.127-1.281 1.127zm6.483-3.013c-.219-.646-.711-1.079-1.613-1.079-.96 0-1.672.546-1.672 1.317 0 .628.374 1.05 1.21 1.245l.759.178c.459.106.676.326.676.64 0 .391-.415.712-1.067.712-.573 0-.931-.247-1.056-.736l-.664.166c.163.774.801 1.186 1.731 1.186 1.059 0 1.779-.578 1.779-1.364 0-.634-.397-1.034-1.209-1.233l-.676-.166c-.54-.133-.783-.314-.783-.664 0-.391.415-.676.972-.676.611 0 .863.338.985.652l.628-.178zm3.046 3.63c.925 0 1.601-.463 1.814-1.151l-.676-.19c-.178.475-.59.712-1.138.712-.821 0-1.388-.53-1.42-1.506h3.305v-.297c0-1.696-1.008-2.277-1.956-2.277-1.234 0-2.052.973-2.052 2.372 0 1.4.806 2.336 2.123 2.336zm-1.42-2.74c.047-.709.548-1.34 1.349-1.34.759 0 1.245.569 1.245 1.34h-2.594zm8.746-1.91h-1.02v-.462c0-.45.189-.688.652-.688.202 0 .32.048.391.071l.202-.604a1.628 1.628 0 00-.664-.119c-.652 0-1.281.391-1.281 1.174v.629h-.735v.593h.735v3.96h.7v-3.96h1.02v-.593zm2.643 4.65c1.233 0 2.063-.938 2.063-2.349 0-1.423-.83-2.36-2.063-2.36-1.234 0-2.064.937-2.064 2.36 0 1.411.83 2.348 2.064 2.348zm0-.63c-.937 0-1.364-.806-1.364-1.719s.427-1.731 1.364-1.731 1.363.818 1.363 1.731c0 .913-.426 1.72-1.363 1.72zm3.131.534h.7v-2.881c0-.617.486-1.068 1.15-1.068.187 0 .38.036.427.048v-.712a6.758 6.758 0 00-.368-.012c-.545 0-1.019.309-1.185.76h-.048v-.688h-.676v4.553zm4.877.095c.925 0 1.601-.462 1.815-1.15l-.676-.19c-.178.475-.59.712-1.139.712-.821 0-1.387-.53-1.42-1.506h3.306v-.297c0-1.696-1.008-2.277-1.957-2.277-1.233 0-2.052.973-2.052 2.372 0 1.4.807 2.336 2.123 2.336zm-1.42-2.74c.047-.708.548-1.34 1.349-1.34.759 0 1.245.57 1.245 1.34h-2.594zm6.22 2.74c1.008 0 1.672-.616 1.791-1.423h-.7c-.13.498-.545.795-1.091.795-.83 0-1.364-.688-1.364-1.744 0-1.031.546-1.707 1.364-1.707.617 0 .984.38 1.091.794h.7c-.119-.853-.842-1.423-1.803-1.423-1.233 0-2.051.973-2.051 2.36 0 1.364.782 2.348 2.063 2.348zm4.154.012c.794 0 1.209-.427 1.352-.723h.035v.616h.7v-3c0-1.447-1.103-1.613-1.684-1.613-.688 0-1.471.238-1.826 1.068l.664.237c.154-.332.518-.688 1.186-.688.643 0 .96.34.96.925v.024c0 .338-.344.308-1.174.415-.845.11-1.767.296-1.767 1.34 0 .89.688 1.4 1.554 1.4zm.106-.628c-.557 0-.96-.25-.96-.736 0-.533.486-.7 1.031-.77.297-.036 1.091-.12 1.21-.261v.64c0 .57-.451 1.127-1.281 1.127zm6.483-3.013c-.219-.646-.711-1.079-1.612-1.079-.961 0-1.672.546-1.672 1.317 0 .628.373 1.05 1.209 1.245l.759.178c.46.106.676.326.676.64 0 .391-.415.712-1.067.712-.572 0-.931-.247-1.056-.736l-.664.166c.163.774.801 1.186 1.732 1.186 1.058 0 1.778-.578 1.778-1.364 0-.634-.397-1.034-1.209-1.233l-.676-.166c-.54-.133-.783-.314-.783-.664 0-.391.415-.676.973-.676.61 0 .862.338.984.652l.628-.178zm3.117-1.02h-.972v-1.09h-.7v1.09h-.688v.593h.688v2.847c0 .794.64 1.174 1.233 1.174.261 0 .427-.048.522-.083l-.142-.629c-.059.012-.154.036-.309.036-.308 0-.604-.095-.604-.688v-2.657h.972v-.592zm3.65 1.993c0 1.494.403 2.74 1.126 3.795h.617c-.569-.783-1.02-2.384-1.02-3.795s.451-3.012 1.02-3.795h-.617c-.723 1.055-1.126 2.3-1.126 3.795zm5.859 1.423c0 .664.415 1.221 1.186 1.221.759 0 1.174-.557 1.174-1.221v-.32c0-.664-.404-1.222-1.174-1.222-.759 0-1.186.558-1.186 1.222v.32zm-3.024-3.475c0 .664.415 1.222 1.186 1.222.759 0 1.174-.558 1.174-1.222v-.32c0-.664-.404-1.221-1.174-1.221-.759 0-1.186.557-1.186 1.221v.32zm.225 4.613h.676l4.174-6.071h-.676l-4.174 6.071zm3.404-1.458c0-.368.166-.712.581-.712.427 0 .569.344.569.712v.32c0 .368-.154.712-.569.712-.427 0-.581-.344-.581-.712v-.32zm-3.024-3.475c0-.368.166-.711.581-.711.427 0 .569.343.569.711v.32c0 .368-.154.712-.569.712-.427 0-.581-.344-.581-.712v-.32zm7.613 1.897c0-1.494-.403-2.739-1.127-3.794h-.616c.569.782 1.02 2.383 1.02 3.794 0 1.412-.451 3.013-1.02 3.795h.616c.724-1.055 1.127-2.3 1.127-3.794z" fill="#777"/><path d="M433.478 55.088h3.831v-.652h-2.823v-.047l1.364-1.46c1.043-1.117 1.352-1.639 1.352-2.312 0-.936-.759-1.683-1.826-1.683-1.065 0-1.874.723-1.874 1.79h.699c0-.69.448-1.15 1.151-1.15.658 0 1.162.403 1.162 1.044 0 .56-.329.975-1.032 1.743l-2.004 2.194v.533zm7.035.083c1.34 0 2.111-1.135 2.111-3.119 0-1.968-.782-3.118-2.111-3.118-1.328 0-2.11 1.15-2.11 3.118 0 1.984.77 3.12 2.11 3.12zm0-.652c-.883 0-1.399-.886-1.399-2.467 0-1.577.522-2.478 1.399-2.478.878 0 1.4.901 1.4 2.478 0 1.58-.516 2.467-1.4 2.467z" fill="#000"/><path d="M553.481 45.61c0-.72.584-1.304 1.305-1.304h75.138c.72 0 1.304.584 1.304 1.304v11.48c0 .72-.584 1.304-1.304 1.304h-75.138a1.305 1.305 0 01-1.305-1.305V45.61z" fill="#fff" stroke="#A0A0A0" stroke-width=".522"/><path d="M462.642 55.087h.735v-2.715h2.633v-.653h-2.633v-2.051h2.906v-.652h-3.641v6.071zm6.321.095c1.233 0 2.063-.937 2.063-2.348 0-1.423-.83-2.36-2.063-2.36-1.234 0-2.064.937-2.064 2.36 0 1.411.83 2.348 2.064 2.348zm0-.628c-.937 0-1.364-.807-1.364-1.72 0-.913.427-1.731 1.364-1.731s1.364.818 1.364 1.731c0 .913-.427 1.72-1.364 1.72zm3.131.533h.7v-2.881c0-.617.486-1.068 1.15-1.068.187 0 .38.036.427.048v-.712a6.753 6.753 0 00-.367-.012c-.546 0-1.02.309-1.186.76h-.048v-.688h-.676v4.553zm4.877.095c.925 0 1.601-.462 1.815-1.15l-.676-.19c-.178.475-.59.712-1.139.712-.821 0-1.387-.53-1.42-1.506h3.306v-.297c0-1.696-1.008-2.277-1.957-2.277-1.233 0-2.051.973-2.051 2.372 0 1.4.806 2.336 2.122 2.336zm-1.42-2.74c.048-.708.549-1.34 1.349-1.34.759 0 1.245.57 1.245 1.34h-2.594zm6.22 2.74c1.008 0 1.672-.616 1.791-1.423h-.7c-.13.498-.545.795-1.091.795-.83 0-1.364-.688-1.364-1.744 0-1.031.546-1.707 1.364-1.707.617 0 .984.38 1.091.794h.7c-.119-.853-.842-1.423-1.803-1.423-1.233 0-2.051.973-2.051 2.36 0 1.364.782 2.348 2.063 2.348zm4.154.012c.794 0 1.209-.427 1.352-.723h.035v.616h.7v-3c0-1.447-1.103-1.613-1.684-1.613-.688 0-1.471.238-1.826 1.068l.664.237c.154-.332.519-.688 1.186-.688.643 0 .96.34.96.925v.024c0 .338-.344.308-1.174.415-.845.11-1.767.296-1.767 1.34 0 .89.688 1.4 1.554 1.4zm.106-.628c-.557 0-.96-.25-.96-.736 0-.533.486-.7 1.032-.77.296-.036 1.091-.12 1.209-.261v.64c0 .57-.45 1.127-1.281 1.127zm6.484-3.013c-.22-.646-.712-1.079-1.613-1.079-.961 0-1.672.546-1.672 1.317 0 .628.373 1.05 1.209 1.245l.759.178c.46.106.676.326.676.64 0 .391-.415.712-1.067.712-.572 0-.931-.247-1.056-.736l-.664.166c.163.774.801 1.186 1.732 1.186 1.058 0 1.779-.578 1.779-1.364 0-.634-.398-1.034-1.21-1.233l-.676-.166c-.54-.133-.783-.314-.783-.664 0-.391.415-.676.973-.676.61 0 .862.338.984.652l.629-.178zm3.116-1.02h-.972v-1.09h-.7v1.09h-.688v.593h.688v2.847c0 .794.641 1.174 1.233 1.174.261 0 .427-.048.522-.083l-.142-.629c-.059.012-.154.036-.308.036-.309 0-.605-.095-.605-.688v-2.657h.972v-.592zm5.12 4.65c.878 0 1.174-.546 1.329-.795h.083v.7h.675v-6.072h-.699v2.241h-.059c-.155-.237-.427-.783-1.317-.783-1.15 0-1.945.913-1.945 2.348 0 1.447.795 2.36 1.933 2.36zm.095-.63c-.877 0-1.328-.77-1.328-1.742 0-.961.439-1.708 1.328-1.708.854 0 1.305.688 1.305 1.707 0 1.032-.463 1.744-1.305 1.744zm5.28.63c.925 0 1.601-.463 1.815-1.151l-.676-.19c-.178.475-.59.712-1.139.712-.821 0-1.387-.53-1.42-1.506h3.306v-.297c0-1.696-1.008-2.277-1.957-2.277-1.233 0-2.051.973-2.051 2.372 0 1.4.806 2.336 2.122 2.336zm-1.42-2.74c.048-.709.549-1.34 1.349-1.34.759 0 1.245.569 1.245 1.34h-2.594zm4.37 4.352h.7v-2.407h.059c.154.249.451.794 1.328.794 1.139 0 1.933-.913 1.933-2.36 0-1.435-.794-2.348-1.944-2.348-.89 0-1.163.546-1.317.783h-.083v-.723h-.676v6.261zm.688-3.985c0-1.02.451-1.707 1.305-1.707.889 0 1.328.747 1.328 1.707 0 .973-.451 1.744-1.328 1.744-.842 0-1.305-.712-1.305-1.744zm6.38-2.276h-.972v-1.091h-.7v1.09h-.688v.593h.688v2.847c0 .794.64 1.174 1.233 1.174.261 0 .427-.048.522-.083l-.142-.629c-.059.012-.154.036-.308.036-.309 0-.605-.095-.605-.688v-2.657h.972v-.592zm1.85 1.814c0-.795.507-1.245 1.198-1.245.658 0 1.055.415 1.055 1.138v2.846h.7v-2.893c0-1.171-.623-1.72-1.553-1.72-.718 0-1.127.3-1.341.771h-.059v-2.23h-.7v6.072h.7v-2.739zm6.83.178c0 1.494.403 2.74 1.127 3.795h.616c-.569-.783-1.019-2.384-1.019-3.795s.45-3.012 1.019-3.795h-.616c-.724 1.055-1.127 2.3-1.127 3.795zm4.398 2.656c.877 0 1.174-.545 1.328-.794h.083v.7h.676v-6.072h-.7v2.241h-.059c-.154-.237-.427-.783-1.317-.783-1.15 0-1.944.913-1.944 2.348 0 1.447.794 2.36 1.933 2.36zm.094-.628c-.877 0-1.328-.771-1.328-1.744 0-.96.439-1.707 1.328-1.707.854 0 1.305.688 1.305 1.707 0 1.032-.463 1.744-1.305 1.744zm4.711.64c.795 0 1.21-.427 1.352-.723h.036v.616h.7v-3c0-1.447-1.103-1.613-1.684-1.613-.688 0-1.471.238-1.827 1.068l.664.237c.155-.332.519-.688 1.186-.688.644 0 .961.34.961.925v.024c0 .338-.344.308-1.174.415-.845.11-1.767.296-1.767 1.34 0 .89.688 1.4 1.553 1.4zm.107-.628c-.557 0-.96-.25-.96-.736 0-.533.486-.7 1.031-.77.297-.036 1.091-.12 1.21-.261v.64c0 .57-.451 1.127-1.281 1.127zm3.545 2.23c.632 0 1.076-.336 1.34-1.044l1.939-5.207-.765-.011-1.257 3.628h-.047l-1.257-3.628h-.759l1.684 4.577-.131.356c-.255.694-.569.759-1.079.628l-.178.617c.071.036.273.083.51.083zm7.431-5.243c-.22-.646-.712-1.079-1.613-1.079-.961 0-1.672.546-1.672 1.317 0 .628.373 1.05 1.209 1.245l.759.178c.46.106.676.326.676.64 0 .391-.415.712-1.067.712-.572 0-.931-.247-1.056-.736l-.664.166c.163.774.801 1.186 1.732 1.186 1.058 0 1.779-.578 1.779-1.364 0-.634-.398-1.034-1.21-1.233l-.676-.166c-.54-.133-.783-.314-.783-.664 0-.391.415-.676.973-.676.61 0 .862.338.984.652l.629-.178zm2.63.973c0-1.494-.403-2.74-1.127-3.795h-.616c.569.783 1.02 2.384 1.02 3.795s-.451 3.012-1.02 3.795h.616c.724-1.056 1.127-2.3 1.127-3.795z" fill="#777"/><path d="M617.883 48.934c-1.233-.015-2.028.913-2.028 2.027 0 1.174.866 2.016 1.91 2.016.628 0 1.162-.308 1.494-.806h.047c0 1.494-.581 2.348-1.518 2.348-.64 0-1.031-.403-1.162-.96h-.723c.142.96.865 1.612 1.885 1.612 1.364 0 2.206-1.21 2.206-3.368 0-2.23-1.115-2.858-2.111-2.87zm0 .652c.759 0 1.316.652 1.316 1.364 0 .723-.592 1.375-1.34 1.375-.747 0-1.292-.605-1.292-1.364 0-.759.569-1.375 1.316-1.375zm5.257 5.585c1.34 0 2.111-1.135 2.111-3.119 0-1.968-.782-3.118-2.111-3.118-1.328 0-2.111 1.15-2.111 3.118 0 1.984.771 3.12 2.111 3.12zm0-.652c-.883 0-1.399-.886-1.399-2.467 0-1.577.522-2.478 1.399-2.478.878 0 1.4.901 1.4 2.478 0 1.58-.516 2.467-1.4 2.467z" fill="#000"/><path d="M121.687 183.623h3.113v-.53h-2.294v-.038l1.109-1.185c.847-.908 1.098-1.332 1.098-1.879 0-.761-.617-1.368-1.484-1.368-.865 0-1.522.587-1.522 1.454h.568c0-.561.364-.934.935-.934.535 0 .944.327.944.848 0 .455-.267.792-.838 1.416l-1.629 1.783v.433zm5.717.068c1.088 0 1.715-.923 1.715-2.534 0-1.6-.636-2.534-1.715-2.534-1.08 0-1.715.934-1.715 2.534 0 1.611.626 2.534 1.715 2.534zm0-.53c-.718 0-1.137-.72-1.137-2.004 0-1.282.424-2.014 1.137-2.014.713 0 1.137.732 1.137 2.014 0 1.284-.42 2.004-1.137 2.004zm2.882.501a.434.434 0 10-.434-.434c0 .239.195.434.434.434zm2.881.029c1.089 0 1.715-.923 1.715-2.534 0-1.6-.636-2.534-1.715-2.534-1.079 0-1.715.934-1.715 2.534 0 1.611.626 2.534 1.715 2.534zm0-.53c-.718 0-1.137-.72-1.137-2.004 0-1.282.424-2.014 1.137-2.014.713 0 1.137.732 1.137 2.014 0 1.284-.419 2.004-1.137 2.004zm4.297.53c.956 0 1.667-.6 1.667-1.407 0-.626-.371-1.082-.992-1.185v-.039c.498-.151.809-.561.809-1.117 0-.699-.552-1.32-1.465-1.32-.852 0-1.561.525-1.589 1.3h.578c.021-.491.489-.78 1.002-.78.544 0 .896.33.896.828 0 .521-.407.858-.993.858h-.395v.53h.395c.75 0 1.166.381 1.166.925 0 .523-.455.877-1.089.877-.57 0-1.023-.294-1.059-.771h-.607c.036.776.72 1.301 1.676 1.301zm2.924-.029a.434.434 0 10-.434-.434c0 .239.195.434.434.434zm1.444-.039h3.112v-.53h-2.293v-.038l1.108-1.185c.848-.908 1.098-1.332 1.098-1.879 0-.761-.616-1.368-1.483-1.368-.865 0-1.523.587-1.523 1.454h.569c0-.561.363-.934.934-.934.535 0 .945.327.945.848 0 .455-.268.792-.839 1.416l-1.628 1.783v.433zm5.716.068c1.089 0 1.715-.923 1.715-2.534 0-1.6-.636-2.534-1.715-2.534-1.079 0-1.715.934-1.715 2.534 0 1.611.626 2.534 1.715 2.534zm0-.53c-.718 0-1.137-.72-1.137-2.004 0-1.282.424-2.014 1.137-2.014.713 0 1.137.732 1.137 2.014 0 1.284-.419 2.004-1.137 2.004zm61.474.53c1.089 0 1.715-.923 1.715-2.534 0-1.6-.636-2.534-1.715-2.534-1.079 0-1.715.934-1.715 2.534 0 1.611.626 2.534 1.715 2.534zm0-.53c-.718 0-1.137-.72-1.137-2.004 0-1.282.424-2.014 1.137-2.014.713 0 1.137.732 1.137 2.014 0 1.284-.419 2.004-1.137 2.004zm4.365-4.471h-.598l-1.233.819v.607l1.204-.8h.029v4.307h.598v-4.933zm1.551 4.972a.434.434 0 10-.434-.434c0 .239.195.434.434.434zm2.881.029c1.089 0 1.715-.923 1.715-2.534 0-1.6-.636-2.534-1.715-2.534-1.079 0-1.715.934-1.715 2.534 0 1.611.626 2.534 1.715 2.534zm0-.53c-.718 0-1.137-.72-1.137-2.004 0-1.282.424-2.014 1.137-2.014.713 0 1.137.732 1.137 2.014 0 1.284-.419 2.004-1.137 2.004zm2.515-.549h2.322v1.011h.568v-1.011h.675v-.53h-.675v-3.392h-.722l-2.168 3.43v.492zm2.322-.53h-1.677v-.039l1.638-2.592h.039v2.631zm2.338 1.58a.434.434 0 10-.434-.434c0 .239.195.434.434.434zm1.444-.039h3.112v-.53h-2.293v-.038l1.108-1.185c.848-.908 1.098-1.332 1.098-1.879 0-.761-.617-1.368-1.484-1.368-.864 0-1.522.587-1.522 1.454h.568c0-.561.364-.934.935-.934.535 0 .944.327.944.848 0 .455-.267.792-.838 1.416l-1.628 1.783v.433zm5.716.068c1.089 0 1.715-.923 1.715-2.534 0-1.6-.636-2.534-1.715-2.534-1.079 0-1.715.934-1.715 2.534 0 1.611.626 2.534 1.715 2.534zm0-.53c-.718 0-1.137-.72-1.137-2.004 0-1.282.424-2.014 1.137-2.014.713 0 1.137.732 1.137 2.014 0 1.284-.419 2.004-1.137 2.004zm59.691-4.471h-.598l-1.233.819v.607l1.205-.8h.028v4.307h.598v-4.933zm3.086 5.001c.956 0 1.667-.6 1.667-1.407 0-.626-.371-1.082-.993-1.185v-.039c.499-.151.809-.561.809-1.117 0-.699-.551-1.32-1.464-1.32-.853 0-1.561.525-1.59 1.3h.578c.022-.491.489-.78 1.002-.78.545 0 .896.33.896.828 0 .521-.407.858-.992.858h-.395v.53h.395c.749 0 1.166.381 1.166.925 0 .523-.456.877-1.089.877-.571 0-1.024-.294-1.06-.771h-.607c.036.776.72 1.301 1.677 1.301zm2.923-.029a.435.435 0 00.434-.434.434.434 0 10-.434.434zm2.881.029c1.089 0 1.715-.923 1.715-2.534 0-1.6-.636-2.534-1.715-2.534-1.079 0-1.715.934-1.715 2.534 0 1.611.627 2.534 1.715 2.534zm0-.53c-.718 0-1.137-.72-1.137-2.004 0-1.282.424-2.014 1.137-2.014.713 0 1.137.732 1.137 2.014 0 1.284-.419 2.004-1.137 2.004zm2.515-.549h2.322v1.011h.569v-1.011h.674v-.53h-.674v-3.392h-.723l-2.168 3.43v.492zm2.322-.53h-1.676v-.039l1.638-2.592h.038v2.631zm2.338 1.58a.435.435 0 00.434-.434.435.435 0 00-.868 0c0 .239.196.434.434.434zm1.444-.039h3.112v-.53h-2.293v-.038l1.108-1.185c.848-.908 1.099-1.332 1.099-1.879 0-.761-.617-1.368-1.484-1.368-.865 0-1.523.587-1.523 1.454h.569c0-.561.364-.934.935-.934.534 0 .944.327.944.848 0 .455-.268.792-.838 1.416l-1.629 1.783v.433zm5.716.068c1.089 0 1.715-.923 1.715-2.534 0-1.6-.636-2.534-1.715-2.534-1.079 0-1.715.934-1.715 2.534 0 1.611.627 2.534 1.715 2.534zm0-.53c-.718 0-1.137-.72-1.137-2.004 0-1.282.424-2.014 1.137-2.014.713 0 1.137.732 1.137 2.014 0 1.284-.419 2.004-1.137 2.004zm57.957.462h3.112v-.53h-2.293v-.038l1.108-1.185c.848-.908 1.099-1.332 1.099-1.879 0-.761-.617-1.368-1.484-1.368-.865 0-1.523.587-1.523 1.454h.569c0-.561.363-.934.934-.934.535 0 .945.327.945.848 0 .455-.268.792-.839 1.416l-1.628 1.783v.433zm5.649.068c.939 0 1.628-.694 1.628-1.638 0-.957-.665-1.658-1.57-1.658-.333 0-.656.118-.858.28h-.029l.174-1.455h2.061v-.53h-2.563l-.298 2.428.559.068c.204-.147.554-.253.857-.251.629.005 1.089.482 1.089 1.127 0 .634-.443 1.099-1.05 1.099-.506 0-.908-.325-.954-.771h-.578c.036.752.684 1.301 1.532 1.301zm2.823-.029a.435.435 0 00.434-.434.434.434 0 10-.434.434zm2.881.029c1.089 0 1.716-.923 1.716-2.534 0-1.6-.636-2.534-1.716-2.534-1.079 0-1.715.934-1.715 2.534 0 1.611.627 2.534 1.715 2.534zm0-.53c-.717 0-1.137-.72-1.137-2.004 0-1.282.424-2.014 1.137-2.014.713 0 1.137.732 1.137 2.014 0 1.284-.419 2.004-1.137 2.004zm2.515-.549h2.322v1.011h.569v-1.011h.674v-.53h-.674v-3.392h-.723l-2.168 3.43v.492zm2.322-.53h-1.676v-.039l1.638-2.592h.038v2.631zm2.338 1.58a.435.435 0 00.434-.434.434.434 0 10-.434.434zm1.444-.039h3.113v-.53h-2.294v-.038l1.108-1.185c.848-.908 1.099-1.332 1.099-1.879 0-.761-.617-1.368-1.484-1.368-.865 0-1.522.587-1.522 1.454h.568c0-.561.364-.934.935-.934.534 0 .944.327.944.848 0 .455-.267.792-.838 1.416l-1.629 1.783v.433zm5.716.068c1.089 0 1.716-.923 1.716-2.534 0-1.6-.636-2.534-1.716-2.534-1.079 0-1.715.934-1.715 2.534 0 1.611.627 2.534 1.715 2.534zm0-.53c-.717 0-1.136-.72-1.136-2.004 0-1.282.423-2.014 1.136-2.014.713 0 1.137.732 1.137 2.014 0 1.284-.419 2.004-1.137 2.004zm59.566.53c1.089 0 1.715-.923 1.715-2.534 0-1.6-.636-2.534-1.715-2.534-1.079 0-1.715.934-1.715 2.534 0 1.611.626 2.534 1.715 2.534zm0-.53c-.718 0-1.137-.72-1.137-2.004 0-1.282.424-2.014 1.137-2.014.713 0 1.137.732 1.137 2.014 0 1.284-.419 2.004-1.137 2.004zm2.652.462h.627l2.197-4.374v-.559h-3.161v.53h2.544v.038l-2.207 4.365zm3.297.039a.435.435 0 00.434-.434.434.434 0 10-.434.434zm2.881.029c1.089 0 1.716-.923 1.716-2.534 0-1.6-.636-2.534-1.716-2.534-1.079 0-1.715.934-1.715 2.534 0 1.611.627 2.534 1.715 2.534zm0-.53c-.717 0-1.136-.72-1.136-2.004 0-1.282.423-2.014 1.136-2.014.713 0 1.137.732 1.137 2.014 0 1.284-.419 2.004-1.137 2.004zm4.173.53c.939 0 1.628-.694 1.628-1.638 0-.957-.665-1.658-1.571-1.658-.332 0-.655.118-.857.28h-.029l.173-1.455h2.062v-.53h-2.563l-.298 2.428.559.068c.204-.147.554-.253.857-.251.629.005 1.089.482 1.089 1.127 0 .634-.443 1.099-1.05 1.099-.506 0-.909-.325-.954-.771h-.578c.036.752.684 1.301 1.532 1.301zm2.823-.029a.435.435 0 00.434-.434.434.434 0 10-.434.434zm1.444-.039h3.113v-.53h-2.294v-.038l1.109-1.185c.847-.908 1.098-1.332 1.098-1.879 0-.761-.617-1.368-1.484-1.368-.865 0-1.522.587-1.522 1.454h.568c0-.561.364-.934.935-.934.535 0 .944.327.944.848 0 .455-.267.792-.838 1.416l-1.629 1.783v.433zm5.717.068c1.088 0 1.715-.923 1.715-2.534 0-1.6-.636-2.534-1.715-2.534-1.08 0-1.715.934-1.715 2.534 0 1.611.626 2.534 1.715 2.534zm0-.53c-.718 0-1.137-.72-1.137-2.004 0-1.282.424-2.014 1.137-2.014.713 0 1.137.732 1.137 2.014 0 1.284-.42 2.004-1.137 2.004zm59.691-4.471h-.598l-1.233.819v.607l1.204-.8h.029v4.307h.598v-4.933zm2.989-.067c-1.002-.013-1.648.741-1.648 1.647 0 .954.704 1.638 1.552 1.638.51 0 .944-.25 1.214-.655h.038c0 1.214-.472 1.908-1.233 1.908-.52 0-.838-.328-.944-.781h-.588c.116.781.703 1.311 1.532 1.311 1.108 0 1.792-.983 1.792-2.737 0-1.811-.906-2.322-1.715-2.331zm0 .529c.617 0 1.07.53 1.07 1.109 0 .587-.482 1.117-1.089 1.117s-1.05-.491-1.05-1.108c0-.616.462-1.118 1.069-1.118zm2.914 4.51a.435.435 0 00.434-.434.434.434 0 10-.434.434zm2.881.029c1.089 0 1.715-.923 1.715-2.534 0-1.6-.636-2.534-1.715-2.534-1.079 0-1.715.934-1.715 2.534 0 1.611.626 2.534 1.715 2.534zm0-.53c-.718 0-1.137-.72-1.137-2.004 0-1.282.424-2.014 1.137-2.014.713 0 1.137.732 1.137 2.014 0 1.284-.419 2.004-1.137 2.004zm4.172.53c.94 0 1.629-.694 1.629-1.638 0-.957-.665-1.658-1.571-1.658-.332 0-.655.118-.858.28h-.028l.173-1.455h2.062v-.53h-2.563l-.299 2.428.559.068c.205-.147.554-.253.858-.251.628.005 1.088.482 1.088 1.127 0 .634-.443 1.099-1.05 1.099-.506 0-.908-.325-.954-.771h-.578c.036.752.684 1.301 1.532 1.301zm2.824-.029a.436.436 0 00.434-.434.435.435 0 00-.434-.433.435.435 0 00-.434.433c0 .239.196.434.434.434zm1.444-.039h3.112v-.53h-2.293v-.038l1.108-1.185c.848-.908 1.099-1.332 1.099-1.879 0-.761-.617-1.368-1.484-1.368-.865 0-1.523.587-1.523 1.454h.569c0-.561.364-.934.934-.934.535 0 .945.327.945.848 0 .455-.268.792-.839 1.416l-1.628 1.783v.433zm5.716.068c1.089 0 1.715-.923 1.715-2.534 0-1.6-.636-2.534-1.715-2.534-1.079 0-1.715.934-1.715 2.534 0 1.611.626 2.534 1.715 2.534zm0-.53c-.718 0-1.137-.72-1.137-2.004 0-1.282.424-2.014 1.137-2.014.713 0 1.137.732 1.137 2.014 0 1.284-.419 2.004-1.137 2.004zM164.475 194.059h3.112v-.53h-2.293v-.038l1.108-1.185c.848-.908 1.098-1.332 1.098-1.879 0-.761-.617-1.368-1.484-1.368-.865 0-1.522.587-1.522 1.455h.568c0-.562.364-.935.935-.935.535 0 .944.327.944.848 0 .455-.267.792-.838 1.416l-1.628 1.783v.433zm5.745.068c.997.012 1.647-.74 1.647-1.658 0-.953-.706-1.638-1.551-1.638-.508 0-.944.249-1.214.656h-.039c.003-1.202.47-1.898 1.234-1.898.52 0 .833.327.944.77h.588c-.121-.766-.704-1.3-1.532-1.3-1.111 0-1.792.982-1.792 2.726 0 1.824.905 2.332 1.715 2.342zm0-.53c-.619 0-1.072-.528-1.07-1.118.003-.59.477-1.118 1.089-1.118.605 0 1.05.497 1.05 1.108 0 .627-.465 1.128-1.069 1.128zm2.787.501a.434.434 0 10-.434-.434c0 .239.195.434.434.434zm2.881.029c1.088 0 1.715-.923 1.715-2.534 0-1.6-.636-2.534-1.715-2.534-1.08 0-1.715.934-1.715 2.534 0 1.611.626 2.534 1.715 2.534zm0-.53c-.718 0-1.137-.72-1.137-2.004 0-1.282.424-2.014 1.137-2.014.713 0 1.137.732 1.137 2.014 0 1.284-.42 2.004-1.137 2.004zm4.297.53c.956 0 1.667-.6 1.667-1.407 0-.626-.371-1.082-.993-1.185v-.039c.499-.151.81-.561.81-1.117 0-.699-.552-1.32-1.465-1.32-.852 0-1.561.525-1.59 1.3h.579c.021-.491.489-.78 1.002-.78.544 0 .896.33.896.829 0 .52-.407.857-.993.857h-.395v.53h.395c.749 0 1.166.381 1.166.925 0 .523-.455.877-1.089.877-.571 0-1.023-.294-1.06-.771h-.607c.037.776.721 1.301 1.677 1.301zm2.924-.029a.434.434 0 10-.434-.434c0 .239.195.434.434.434zm1.444-.039h3.112v-.53h-2.293v-.038l1.108-1.185c.848-.908 1.098-1.332 1.098-1.879 0-.761-.616-1.368-1.484-1.368-.864 0-1.522.587-1.522 1.455h.569c0-.562.363-.935.934-.935.535 0 .944.327.944.848 0 .455-.267.792-.838 1.416l-1.628 1.783v.433zm5.716.068c1.089 0 1.715-.923 1.715-2.534 0-1.6-.636-2.534-1.715-2.534-1.079 0-1.715.934-1.715 2.534 0 1.611.626 2.534 1.715 2.534zm0-.53c-.718 0-1.137-.72-1.137-2.004 0-1.282.424-2.014 1.137-2.014.713 0 1.137.732 1.137 2.014 0 1.284-.419 2.004-1.137 2.004zm59.566.53c1.089 0 1.715-.923 1.715-2.534 0-1.6-.636-2.534-1.715-2.534-1.079 0-1.715.934-1.715 2.534 0 1.611.626 2.534 1.715 2.534zm0-.53c-.718 0-1.137-.72-1.137-2.004 0-1.282.424-2.014 1.137-2.014.713 0 1.137.732 1.137 2.014 0 1.284-.419 2.004-1.137 2.004zm2.652.462h.626l2.197-4.374v-.559h-3.16v.53h2.543v.039l-2.206 4.364zm3.297.039a.435.435 0 00.434-.434.435.435 0 00-.868 0c0 .239.196.434.434.434zm2.881.029c1.089 0 1.715-.923 1.715-2.534 0-1.6-.636-2.534-1.715-2.534-1.079 0-1.715.934-1.715 2.534 0 1.611.626 2.534 1.715 2.534zm0-.53c-.718 0-1.137-.72-1.137-2.004 0-1.282.424-2.014 1.137-2.014.713 0 1.137.732 1.137 2.014 0 1.284-.419 2.004-1.137 2.004zm2.515-.549h2.322v1.011h.568v-1.011h.675v-.53h-.675v-3.392h-.722l-2.168 3.43v.492zm2.322-.53h-1.677v-.039l1.638-2.592h.039v2.631zm2.338 1.58a.434.434 0 10-.434-.434c0 .239.195.434.434.434zm1.444-.039h3.112v-.53h-2.293v-.038l1.108-1.185c.848-.908 1.098-1.332 1.098-1.879 0-.761-.616-1.368-1.484-1.368-.864 0-1.522.587-1.522 1.455h.569c0-.562.363-.935.934-.935.535 0 .944.327.944.848 0 .455-.267.792-.838 1.416l-1.628 1.783v.433zm5.716.068c1.089 0 1.715-.923 1.715-2.534 0-1.6-.636-2.534-1.715-2.534-1.079 0-1.715.934-1.715 2.534 0 1.611.626 2.534 1.715 2.534zm0-.53c-.718 0-1.137-.72-1.137-2.004 0-1.282.424-2.014 1.137-2.014.713 0 1.137.732 1.137 2.014 0 1.284-.419 2.004-1.137 2.004zm59.691-4.471h-.597l-1.234.819v.607l1.205-.8h.029v4.307h.597v-4.933zm2.989-.067c-1.002-.012-1.647.741-1.647 1.647 0 .954.703 1.638 1.551 1.638.511 0 .944-.25 1.214-.655h.039c0 1.214-.472 1.908-1.234 1.908-.52 0-.838-.328-.944-.781h-.588c.116.781.704 1.311 1.532 1.311 1.108 0 1.793-.983 1.793-2.737 0-1.811-.906-2.322-1.716-2.331zm0 .53c.617 0 1.07.529 1.07 1.108 0 .587-.482 1.117-1.089 1.117s-1.05-.491-1.05-1.108c0-.616.462-1.117 1.069-1.117zm2.915 4.509a.434.434 0 10-.434-.434c0 .239.195.434.434.434zm2.88.029c1.089 0 1.716-.923 1.716-2.534 0-1.6-.636-2.534-1.716-2.534-1.079 0-1.715.934-1.715 2.534 0 1.611.627 2.534 1.715 2.534zm0-.53c-.717 0-1.136-.72-1.136-2.004 0-1.282.423-2.014 1.136-2.014.714 0 1.137.732 1.137 2.014 0 1.284-.419 2.004-1.137 2.004zm2.515-.549h2.322v1.011h.569v-1.011h.674v-.53h-.674v-3.392h-.723l-2.168 3.43v.492zm2.322-.53h-1.676v-.039l1.638-2.592h.038v2.631zm2.338 1.58a.435.435 0 00.434-.434.434.434 0 10-.434.434zm1.444-.039h3.113v-.53h-2.294v-.038l1.108-1.185c.848-.908 1.099-1.332 1.099-1.879 0-.761-.617-1.368-1.484-1.368-.865 0-1.522.587-1.522 1.455h.568c0-.562.364-.935.935-.935.534 0 .944.327.944.848 0 .455-.267.792-.838 1.416l-1.629 1.783v.433zm5.716.068c1.089 0 1.716-.923 1.716-2.534 0-1.6-.636-2.534-1.716-2.534-1.079 0-1.715.934-1.715 2.534 0 1.611.627 2.534 1.715 2.534zm0-.53c-.717 0-1.136-.72-1.136-2.004 0-1.282.423-2.014 1.136-2.014.714 0 1.137.732 1.137 2.014 0 1.284-.419 2.004-1.137 2.004zm59.566.53c1.089 0 1.715-.923 1.715-2.534 0-1.6-.636-2.534-1.715-2.534-1.079 0-1.715.934-1.715 2.534 0 1.611.626 2.534 1.715 2.534zm0-.53c-.718 0-1.137-.72-1.137-2.004 0-1.282.424-2.014 1.137-2.014.713 0 1.137.732 1.137 2.014 0 1.284-.419 2.004-1.137 2.004zm4.365-4.471h-.597l-1.234.819v.607l1.205-.8h.029v4.307h.597v-4.933zm1.551 4.972a.435.435 0 00.434-.434.434.434 0 10-.434.434zm2.881.029c1.089 0 1.715-.923 1.715-2.534 0-1.6-.635-2.534-1.715-2.534-1.079 0-1.715.934-1.715 2.534 0 1.611.627 2.534 1.715 2.534zm0-.53c-.717 0-1.137-.72-1.137-2.004 0-1.282.424-2.014 1.137-2.014.713 0 1.137.732 1.137 2.014 0 1.284-.419 2.004-1.137 2.004zm4.172.53c.94 0 1.629-.694 1.629-1.638 0-.957-.665-1.658-1.571-1.658-.332 0-.655.119-.857.28h-.029l.173-1.455h2.062v-.53h-2.563l-.298 2.428.558.068c.205-.147.554-.253.858-.251.629.005 1.089.482 1.089 1.127 0 .634-.443 1.099-1.051 1.099-.505 0-.908-.325-.953-.771h-.579c.037.752.685 1.301 1.532 1.301zm2.824-.029a.435.435 0 00.434-.434.434.434 0 10-.434.434zm1.444-.039h3.113v-.53h-2.294v-.038l1.108-1.185c.848-.908 1.099-1.332 1.099-1.879 0-.761-.617-1.368-1.484-1.368-.865 0-1.522.587-1.522 1.455h.568c0-.562.364-.935.935-.935.535 0 .944.327.944.848 0 .455-.267.792-.838 1.416l-1.629 1.783v.433zm5.717.068c1.088 0 1.715-.923 1.715-2.534 0-1.6-.636-2.534-1.715-2.534-1.08 0-1.716.934-1.716 2.534 0 1.611.627 2.534 1.716 2.534zm0-.53c-.718 0-1.137-.72-1.137-2.004 0-1.282.424-2.014 1.137-2.014.713 0 1.136.732 1.136 2.014 0 1.284-.419 2.004-1.136 2.004zm59.691-4.471h-.598l-1.233.819v.607l1.204-.8h.029v4.307h.598v-4.933zm3.085 5.001c.957 0 1.667-.6 1.667-1.407 0-.626-.371-1.082-.992-1.185v-.039c.498-.151.809-.561.809-1.117 0-.699-.551-1.32-1.464-1.32-.853 0-1.561.525-1.59 1.3h.578c.022-.491.489-.78 1.002-.78.544 0 .896.33.896.829 0 .52-.407.857-.992.857h-.395v.53h.395c.749 0 1.165.381 1.165.925 0 .523-.455.877-1.088.877-.571 0-1.024-.294-1.06-.771h-.607c.036.776.72 1.301 1.676 1.301zm2.924-.029a.435.435 0 00.434-.434.435.435 0 00-.868 0c0 .239.196.434.434.434zm2.881.029c1.089 0 1.715-.923 1.715-2.534 0-1.6-.636-2.534-1.715-2.534-1.079 0-1.715.934-1.715 2.534 0 1.611.626 2.534 1.715 2.534zm0-.53c-.718 0-1.137-.72-1.137-2.004 0-1.282.424-2.014 1.137-2.014.713 0 1.137.732 1.137 2.014 0 1.284-.419 2.004-1.137 2.004zm4.172.53c.94 0 1.628-.694 1.628-1.638 0-.957-.664-1.658-1.57-1.658-.332 0-.655.119-.858.28h-.029l.174-1.455h2.062v-.53h-2.563l-.299 2.428.559.068c.205-.147.554-.253.858-.251.628.005 1.088.482 1.088 1.127 0 .634-.443 1.099-1.05 1.099-.506 0-.908-.325-.954-.771h-.578c.036.752.684 1.301 1.532 1.301zm2.824-.029a.434.434 0 10-.434-.434c0 .239.195.434.434.434zm1.444-.039h3.112v-.53h-2.293v-.038l1.108-1.185c.848-.908 1.098-1.332 1.098-1.879 0-.761-.616-1.368-1.483-1.368-.865 0-1.523.587-1.523 1.455h.569c0-.562.363-.935.934-.935.535 0 .945.327.945.848 0 .455-.268.792-.839 1.416l-1.628 1.783v.433zm5.716.068c1.089 0 1.715-.923 1.715-2.534 0-1.6-.636-2.534-1.715-2.534-1.079 0-1.715.934-1.715 2.534 0 1.611.626 2.534 1.715 2.534zm0-.53c-.718 0-1.137-.72-1.137-2.004 0-1.282.424-2.014 1.137-2.014.713 0 1.137.732 1.137 2.014 0 1.284-.419 2.004-1.137 2.004zm61.772.462h3.113v-.53h-2.294v-.038l1.109-1.185c.847-.908 1.098-1.332 1.098-1.879 0-.761-.617-1.368-1.484-1.368-.865 0-1.522.587-1.522 1.455h.568c0-.562.364-.935.935-.935.535 0 .944.327.944.848 0 .455-.267.792-.838 1.416l-1.629 1.783v.433zm5.649.068c.94 0 1.629-.694 1.629-1.638 0-.957-.665-1.658-1.571-1.658-.332 0-.655.119-.858.28h-.028l.173-1.455h2.062v-.53h-2.563l-.299 2.428.559.068c.205-.147.554-.253.858-.251.628.005 1.088.482 1.088 1.127 0 .634-.443 1.099-1.05 1.099-.506 0-.908-.325-.954-.771h-.578c.036.752.684 1.301 1.532 1.301zm2.824-.029a.436.436 0 00.434-.434.435.435 0 00-.868 0c0 .239.195.434.434.434zm2.881.029c1.089 0 1.715-.923 1.715-2.534 0-1.6-.636-2.534-1.715-2.534-1.079 0-1.715.934-1.715 2.534 0 1.611.626 2.534 1.715 2.534zm0-.53c-.718 0-1.137-.72-1.137-2.004 0-1.282.424-2.014 1.137-2.014.713 0 1.137.732 1.137 2.014 0 1.284-.419 2.004-1.137 2.004zm4.172.53c.939 0 1.628-.694 1.628-1.638 0-.957-.664-1.658-1.57-1.658-.333 0-.655.119-.858.28h-.029l.174-1.455h2.062v-.53h-2.563l-.299 2.428.559.068c.205-.147.554-.253.858-.251.628.005 1.088.482 1.088 1.127 0 .634-.443 1.099-1.05 1.099-.506 0-.908-.325-.954-.771h-.578c.036.752.684 1.301 1.532 1.301zm2.824-.029a.434.434 0 10-.434-.434c0 .239.195.434.434.434zm1.444-.039h3.112v-.53h-2.293v-.038l1.108-1.185c.848-.908 1.098-1.332 1.098-1.879 0-.761-.616-1.368-1.483-1.368-.865 0-1.523.587-1.523 1.455h.569c0-.562.363-.935.934-.935.535 0 .945.327.945.848 0 .455-.268.792-.839 1.416l-1.628 1.783v.433zm5.716.068c1.089 0 1.715-.923 1.715-2.534 0-1.6-.636-2.534-1.715-2.534-1.079 0-1.715.934-1.715 2.534 0 1.611.626 2.534 1.715 2.534zm0-.53c-.718 0-1.137-.72-1.137-2.004 0-1.282.424-2.014 1.137-2.014.713 0 1.137.732 1.137 2.014 0 1.284-.419 2.004-1.137 2.004z" fill="#333"/><path d="M135.526 108.225l27.133 12.262 7.305-24.002 6.262 3.13 4.435-3.13 73.833 32.351 6.001-18.785 356.906 160.973" stroke="#FFBD2B" stroke-width="1.044"/><path d="M135.526 110.052l28.177 14.61 6.261-23.22 6.262 3.914 5.739-2.609 72.529 41.221 6.001-19.306 356.906 201.933" stroke="#2DB4FF" stroke-width="1.044"/><path d="M135.526 111.617l29.481 18.523 6.001-22.958 6.261 4.435 4.696-4.435 72.529 49.57 6.001-15.654L535.582 326.5" stroke="#FF6869" stroke-width="1.044"/></g></g><g filter="url(#filter1_d)"><rect x="36" y="248" width="253" height="182.798" rx="6" fill="#fff"/><path d="M45.8 274.668H279.2v136.301H45.801V274.668z" stroke="#A0A0A0" stroke-width=".456"/><path fill="#fff" stroke="#A0A0A0" stroke-width=".456" d="M224.496 410.968h13.676v11.396h-13.676zM238.172 410.969h13.676v11.396h-13.676zM251.848 410.969h13.676v11.396h-13.676z"/><path fill="#fff" stroke="#A0A0A0" stroke-width=".456" d="M265.523 410.969h13.676v11.396h-13.676z"/><path opacity=".5" d="M261.649 414.843l-2.963 3.191-2.963-3.191h5.926zM247.973 418.034l-2.963-3.191-2.963 3.191h5.926z" fill="#4D4D4D"/><g opacity=".5" fill="#4D4D4D"><path d="M234.297 418.034l-2.54-2.735-.423-.456-.423.456-2.54 2.735h5.926z"/><path d="M231.757 415.299l-.423-.456-.423.456h-2.54v-.912h5.926v.912h-2.54z"/></g><g opacity=".5" fill="#4D4D4D"><path d="M275.325 414.843l-2.54 2.735-.423.456-.424-.456-2.54-2.735h5.927z"/><path d="M272.785 417.578l-.423.456-.424-.456h-2.54v.912h5.927v-.912h-2.54z"/></g><path fill="#F2F2F2" d="M46.029 274.896h232.942v15.043H46.029z"/><path fill="#FEF2C7" d="M46.029 290.395h232.942v14.587H46.029z"/><path fill="#FDE68F" d="M46.029 290.395h138.124v14.587H46.029z"/><path fill="#FAFAFA" d="M46.029 320.481h232.942v15.499H46.029zM46.029 350.568h232.942v15.499H46.029zM46.029 380.654h232.942v15.499H46.029z"/><path fill="#E6E6E6" d="M46.029 305.438h232.942v.456H46.029z"/><path fill="#C4C4C4" d="M46.029 289.483h232.942v.456H46.029z"/><path fill="#E6E6E6" d="M46.029 320.481h232.942v.456H46.029zM46.029 335.524h232.942v.456H46.029zM46.029 350.568h232.942v.456H46.029zM46.029 365.611h232.942v.456H46.029zM46.029 380.654h232.942v.456H46.029zM46.029 395.697h232.942v.456H46.029z"/><path fill="#C4C4C4" d="M183.697 274.896h.456v15.043h-.456zM230.195 274.896h.456v15.043h-.456z"/><path fill="#fff" d="M183.697 290.395h.456v15.043h-.456zM230.195 290.395h.456v15.043h-.456z"/><path d="M51.686 284.896h.642v-1.938h1.16c1.236 0 1.793-.751 1.793-1.688 0-.938-.557-1.679-1.803-1.679h-1.792v5.305zm.642-2.507v-2.228h1.13c.862 0 1.19.472 1.19 1.109s-.328 1.119-1.18 1.119h-1.14zm3.905 2.507h.611v-2.518c0-.538.425-.932 1.005-.932.163 0 .332.031.373.041v-.621a6.018 6.018 0 00-.321-.011c-.477 0-.891.27-1.036.663h-.042v-.601h-.59v3.979zm4.209.083c1.077 0 1.802-.819 1.802-2.052 0-1.243-.725-2.061-1.802-2.061-1.078 0-1.803.818-1.803 2.061 0 1.233.725 2.052 1.803 2.052zm0-.549c-.819 0-1.192-.705-1.192-1.503 0-.797.373-1.512 1.192-1.512.818 0 1.191.715 1.191 1.512 0 .798-.373 1.503-1.191 1.503zm4.238.549c.766 0 1.025-.477 1.16-.694h.072v.611h.591v-5.305h-.611v1.958h-.052c-.135-.207-.373-.683-1.15-.683-1.005 0-1.7.797-1.7 2.051 0 1.264.695 2.062 1.69 2.062zm.082-.549c-.766 0-1.16-.674-1.16-1.523 0-.84.384-1.492 1.16-1.492.746 0 1.14.601 1.14 1.492 0 .901-.404 1.523-1.14 1.523zm5.453-1.161c0 .746-.57 1.088-1.026 1.088-.508 0-.87-.373-.87-.953v-2.487h-.612v2.528c0 1.016.54 1.503 1.285 1.503.601 0 .995-.321 1.181-.726h.042v.674h.61v-3.979h-.61v2.352zm3.347 1.71c.88 0 1.46-.539 1.564-1.243h-.611c-.114.435-.477.694-.953.694-.725 0-1.192-.601-1.192-1.523 0-.902.477-1.492 1.192-1.492.538 0 .86.331.953.694h.611c-.104-.746-.736-1.243-1.575-1.243-1.077 0-1.792.849-1.792 2.061 0 1.192.684 2.052 1.803 2.052zm4.188-4.062h-.85v-.953h-.61v.953h-.602v.519h.601v2.486c0 .694.56 1.026 1.078 1.026.227 0 .373-.042.455-.073l-.124-.549c-.052.01-.135.031-.27.031-.269 0-.528-.083-.528-.601v-2.32h.85v-.519zM191.447 284.896c1.616 0 2.528-1.005 2.528-2.663 0-1.647-.912-2.642-2.455-2.642h-1.71v5.305h1.637zm-.994-.57v-4.165h1.025c1.244 0 1.876.787 1.876 2.072 0 1.295-.632 2.093-1.948 2.093h-.953zm5.687.663c.695 0 1.057-.373 1.182-.632h.031v.539h.611v-2.622c0-1.264-.964-1.409-1.471-1.409-.601 0-1.285.208-1.596.933l.58.207c.135-.29.454-.601 1.036-.601.563 0 .84.298.84.808v.021c0 .295-.301.269-1.026.363-.738.095-1.544.259-1.544 1.17 0 .777.601 1.223 1.357 1.223zm.094-.549c-.487 0-.839-.218-.839-.643 0-.466.424-.611.901-.673.259-.031.953-.104 1.057-.228v.559c0 .498-.394.985-1.119.985zm4.576-3.523h-.85v-.953h-.611v.953h-.601v.518h.601v2.487c0 .694.559 1.025 1.077 1.025.228 0 .373-.041.456-.072l-.124-.549c-.052.01-.135.031-.269.031-.27 0-.529-.083-.529-.601v-2.321h.85v-.518zm2.545 4.061c.808 0 1.398-.404 1.585-1.005l-.591-.165c-.155.414-.515.621-.994.621-.718 0-1.213-.463-1.241-1.315h2.888v-.259c0-1.482-.881-1.99-1.71-1.99-1.077 0-1.792.85-1.792 2.072 0 1.223.705 2.041 1.855 2.041zm-1.241-2.393c.041-.619.479-1.171 1.178-1.171.663 0 1.088.498 1.088 1.171h-2.266zM236.525 284.896l.534-1.503h2.144l.534 1.503h.673l-1.948-5.305h-.663l-1.947 5.305h.673zm.736-2.073l.849-2.393h.042l.849 2.393h-1.74zm3.892 2.073h.612v-2.487c0-.583.424-.995.901-.995.464 0 .787.303.787.757v2.725h.622v-2.591c0-.512.321-.891.881-.891.435 0 .808.231.808.819v2.663h.611v-2.663c0-.935-.502-1.368-1.212-1.368-.57 0-.987.262-1.192.674h-.041c-.197-.425-.544-.674-1.067-.674-.518 0-.901.249-1.067.674h-.052v-.622h-.591v3.979zm7.956.082c1.077 0 1.803-.818 1.803-2.051 0-1.243-.726-2.062-1.803-2.062-1.078 0-1.803.819-1.803 2.062 0 1.233.725 2.051 1.803 2.051zm0-.549c-.819 0-1.192-.704-1.192-1.502s.373-1.513 1.192-1.513c.818 0 1.191.715 1.191 1.513 0 .798-.373 1.502-1.191 1.502zm5.243-1.16c0 .746-.57 1.088-1.026 1.088-.507 0-.87-.373-.87-.953v-2.487h-.611v2.528c0 1.015.538 1.502 1.284 1.502.601 0 .995-.321 1.181-.725h.042v.674h.611v-3.979h-.611v2.352zm2.342-.767c0-.694.43-1.088 1.015-1.088.568 0 .912.371.912.995v2.487h.611v-2.528c0-1.016-.541-1.503-1.347-1.503-.6 0-.973.27-1.16.674h-.052v-.622h-.59v3.979h.611v-2.394zm5.385-1.585h-.849v-.953h-.611v.953h-.601v.518h.601v2.487c0 .694.559 1.025 1.077 1.025.228 0 .373-.041.456-.072l-.124-.549c-.052.01-.135.031-.27.031-.269 0-.528-.083-.528-.601v-2.321h.849v-.518z" fill="#555"/><path d="M249.048 295.546h-.643l-1.326.881v.652l1.295-.859h.031v4.631h.643v-5.305zm3.256 5.377c1.17 0 1.844-.992 1.844-2.725 0-1.719-.684-2.724-1.844-2.724-1.161 0-1.845 1.005-1.845 2.724 0 1.733.674 2.725 1.845 2.725zm0-.57c-.772 0-1.223-.774-1.223-2.155 0-1.378.456-2.165 1.223-2.165.766 0 1.222.787 1.222 2.165 0 1.381-.451 2.155-1.222 2.155zm6.609.57c1.171 0 1.845-.992 1.845-2.725 0-1.719-.684-2.724-1.845-2.724-1.16 0-1.844 1.005-1.844 2.724 0 1.733.674 2.725 1.844 2.725zm0-.57c-.771 0-1.222-.774-1.222-2.155 0-1.378.456-2.165 1.222-2.165.767 0 1.223.787 1.223 2.165 0 1.381-.451 2.155-1.223 2.155zm4.559.57c1.171 0 1.844-.992 1.844-2.725 0-1.719-.684-2.724-1.844-2.724-1.16 0-1.844 1.005-1.844 2.724 0 1.733.673 2.725 1.844 2.725zm0-.57c-.772 0-1.222-.774-1.222-2.155 0-1.378.455-2.165 1.222-2.165.767 0 1.223.787 1.223 2.165 0 1.381-.451 2.155-1.223 2.155zm4.559.57c1.17 0 1.844-.992 1.844-2.725 0-1.719-.684-2.724-1.844-2.724-1.161 0-1.845 1.005-1.845 2.724 0 1.733.674 2.725 1.845 2.725zm0-.57c-.772 0-1.223-.774-1.223-2.155 0-1.378.456-2.165 1.223-2.165.766 0 1.222.787 1.222 2.165 0 1.381-.451 2.155-1.222 2.155zm-21.881 15.498h3.347v-.57h-2.466v-.042l1.191-1.274c.912-.976 1.181-1.432 1.181-2.02 0-.819-.663-1.471-1.595-1.471-.93 0-1.637.632-1.637 1.564h.611c0-.604.391-1.005 1.005-1.005.575 0 1.015.352 1.015.912 0 .489-.287.852-.901 1.523l-1.751 1.916v.467zm4.178-1.088h2.497v1.088h.611v-1.088h.725v-.57h-.725v-3.647h-.777l-2.331 3.688v.529zm2.497-.57h-1.803v-.042l1.761-2.786h.042v2.828zm6.088 1.73c1.171 0 1.845-.992 1.845-2.725 0-1.719-.684-2.724-1.845-2.724-1.16 0-1.844 1.005-1.844 2.724 0 1.733.674 2.725 1.844 2.725zm0-.57c-.771 0-1.222-.774-1.222-2.155 0-1.378.456-2.165 1.222-2.165.767 0 1.223.787 1.223 2.165 0 1.381-.451 2.155-1.223 2.155zm4.559.57c1.171 0 1.844-.992 1.844-2.725 0-1.719-.684-2.724-1.844-2.724-1.16 0-1.844 1.005-1.844 2.724 0 1.733.673 2.725 1.844 2.725zm0-.57c-.772 0-1.222-.774-1.222-2.155 0-1.378.455-2.165 1.222-2.165.767 0 1.223.787 1.223 2.165 0 1.381-.451 2.155-1.223 2.155zm4.559.57c1.17 0 1.844-.992 1.844-2.725 0-1.719-.684-2.724-1.844-2.724-1.161 0-1.845 1.005-1.845 2.724 0 1.733.674 2.725 1.845 2.725zm0-.57c-.772 0-1.223-.774-1.223-2.155 0-1.378.456-2.165 1.223-2.165.766 0 1.222.787 1.222 2.165 0 1.381-.451 2.155-1.222 2.155zm-14.361 15.57c1.01 0 1.751-.746 1.751-1.761 0-1.028-.715-1.782-1.689-1.782-.357 0-.705.127-.922.3h-.031l.186-1.564h2.217v-.57h-2.755l-.322 2.611.601.072c.22-.158.596-.272.922-.269.676.005 1.171.518 1.171 1.212 0 .681-.476 1.181-1.129 1.181-.544 0-.977-.349-1.026-.829h-.621c.038.809.735 1.399 1.647 1.399zm6.696-5.377h-.642l-1.327.881v.652l1.295-.859h.032v4.631h.642v-5.305zm3.214-.072c-1.077-.013-1.771.797-1.771 1.771 0 1.026.756 1.761 1.668 1.761.549 0 1.015-.269 1.305-.704h.041c0 1.305-.507 2.051-1.326 2.051-.559 0-.901-.352-1.015-.839h-.632c.124.839.756 1.409 1.647 1.409 1.192 0 1.927-1.057 1.927-2.942 0-1.948-.974-2.497-1.844-2.507zm0 .569c.663 0 1.15.57 1.15 1.192 0 .632-.518 1.202-1.171 1.202-.652 0-1.129-.529-1.129-1.192 0-.663.497-1.202 1.15-1.202zm2.863 4.808h3.346v-.57h-2.466v-.042l1.192-1.274c.912-.976 1.181-1.432 1.181-2.02 0-.819-.663-1.471-1.595-1.471-.93 0-1.637.632-1.637 1.564h.611c0-.604.391-1.005 1.005-1.005.575 0 1.015.352 1.015.912 0 .489-.287.852-.901 1.523l-1.751 1.916v.467zm-20.286 15h3.347v-.57h-2.466v-.042l1.191-1.274c.912-.976 1.181-1.432 1.181-2.02 0-.819-.663-1.471-1.595-1.471-.93 0-1.637.632-1.637 1.564h.611c0-.604.391-1.005 1.005-1.005.575 0 1.016.352 1.016.912 0 .489-.288.852-.902 1.523l-1.751 1.916v.467zm6.147.072c1.17 0 1.844-.992 1.844-2.725 0-1.719-.684-2.724-1.844-2.724-1.161 0-1.845 1.005-1.845 2.724 0 1.733.674 2.725 1.845 2.725zm0-.57c-.772 0-1.223-.774-1.223-2.155 0-1.378.456-2.165 1.223-2.165.766 0 1.222.787 1.222 2.165 0 1.381-.451 2.155-1.222 2.155zm6.609.57c1.171 0 1.845-.992 1.845-2.725 0-1.719-.684-2.724-1.845-2.724-1.16 0-1.844 1.005-1.844 2.724 0 1.733.674 2.725 1.844 2.725zm0-.57c-.771 0-1.222-.774-1.222-2.155 0-1.378.456-2.165 1.222-2.165.767 0 1.223.787 1.223 2.165 0 1.381-.451 2.155-1.223 2.155zm4.559.57c1.171 0 1.844-.992 1.844-2.725 0-1.719-.684-2.724-1.844-2.724-1.16 0-1.844 1.005-1.844 2.724 0 1.733.673 2.725 1.844 2.725zm0-.57c-.772 0-1.222-.774-1.222-2.155 0-1.378.455-2.165 1.222-2.165.767 0 1.223.787 1.223 2.165 0 1.381-.451 2.155-1.223 2.155zm4.559.57c1.17 0 1.844-.992 1.844-2.725 0-1.719-.684-2.724-1.844-2.724-1.161 0-1.845 1.005-1.845 2.724 0 1.733.674 2.725 1.845 2.725zm0-.57c-.772 0-1.223-.774-1.223-2.155 0-1.378.456-2.165 1.223-2.165.766 0 1.222.787 1.222 2.165 0 1.381-.451 2.155-1.222 2.155zM55.042 296.872h.622c-.029-.8-.767-1.398-1.793-1.398-1.015 0-1.813.59-1.813 1.481 0 .715.519 1.14 1.347 1.378l.653.187c.56.155 1.057.352 1.057.88 0 .58-.56.964-1.295.964-.632 0-1.192-.28-1.243-.881h-.664c.063.87.767 1.461 1.907 1.461 1.222 0 1.916-.673 1.916-1.533 0-.995-.942-1.316-1.491-1.461l-.54-.145c-.393-.104-1.025-.311-1.025-.881 0-.508.466-.88 1.17-.88.643 0 1.13.305 1.192.828zm1.668 5.471h.61v-2.104h.053c.134.218.393.695 1.16.695.995 0 1.689-.798 1.689-2.062 0-1.254-.694-2.051-1.7-2.051-.776 0-1.015.476-1.15.683H57.3v-.632h-.59v5.471zm.6-3.481c0-.891.394-1.492 1.14-1.492.777 0 1.16.652 1.16 1.492 0 .849-.393 1.522-1.16 1.522-.735 0-1.14-.621-1.14-1.522zm3.844 1.989h.611v-3.979h-.61v3.979zm.311-4.642a.427.427 0 00.435-.414.428.428 0 00-.435-.415.428.428 0 00-.435.415c0 .228.197.414.435.414zm2.031 2.248c0-.694.43-1.087 1.016-1.087.567 0 .911.37.911.994v2.487h.612v-2.528c0-1.016-.542-1.502-1.347-1.502-.601 0-.974.269-1.16.673h-.052v-.622h-.59v3.979h.61v-2.394zm5.324 2.477c.808 0 1.398-.404 1.585-1.005l-.59-.166c-.156.414-.516.621-.995.621-.718 0-1.213-.463-1.241-1.315h2.888v-.259c0-1.482-.88-1.989-1.71-1.989-1.077 0-1.792.849-1.792 2.072 0 1.222.705 2.041 1.855 2.041zm-1.241-2.394c.041-.619.48-1.17 1.178-1.17.663 0 1.088.497 1.088 1.17H67.58zm4.429-2.994h-.611v5.305h.611v-5.305zm2.736 5.388c1.077 0 1.802-.819 1.802-2.052 0-1.243-.725-2.061-1.802-2.061-1.078 0-1.803.818-1.803 2.061 0 1.233.725 2.052 1.803 2.052zm0-.55c-.819 0-1.192-.704-1.192-1.502s.373-1.512 1.192-1.512c.818 0 1.191.714 1.191 1.512s-.373 1.502-1.191 1.502zm3.347-1.927c0-.694.43-1.087 1.015-1.087.567 0 .912.37.912.994v2.487h.611v-2.528c0-1.016-.541-1.502-1.347-1.502-.6 0-.974.269-1.16.673h-.052v-.622h-.59v3.979h.61v-2.394zm5.261 3.968c.953 0 1.72-.435 1.72-1.46v-4.093h-.59v.632h-.063c-.135-.207-.383-.683-1.16-.683-1.005 0-1.7.797-1.7 2.02 0 1.243.726 1.948 1.69 1.948.776 0 1.025-.456 1.16-.674h.051v.808c0 .663-.466.964-1.108.964-.723 0-.977-.381-1.14-.601l-.487.342c.249.417.739.797 1.627.797zm-.02-2.186c-.767 0-1.161-.58-1.161-1.409 0-.808.383-1.46 1.16-1.46.746 0 1.14.601 1.14 1.46 0 .881-.404 1.409-1.14 1.409zm-28.29 11.633h.622c-.029-.8-.767-1.398-1.793-1.398-1.015 0-1.813.59-1.813 1.481 0 .715.519 1.14 1.347 1.378l.653.187c.56.155 1.057.352 1.057.88 0 .58-.56.964-1.295.964-.632 0-1.192-.28-1.243-.881h-.664c.063.87.767 1.461 1.907 1.461 1.222 0 1.916-.673 1.916-1.533 0-.995-.942-1.316-1.491-1.461l-.54-.145c-.393-.104-1.025-.311-1.025-.881 0-.508.466-.88 1.17-.88.643 0 1.13.305 1.192.828zm1.668 5.471h.61v-2.104h.053c.134.218.393.695 1.16.695.995 0 1.689-.798 1.689-2.062 0-1.254-.694-2.051-1.7-2.051-.776 0-1.015.476-1.15.683H57.3v-.632h-.59v5.471zm.6-3.481c0-.891.394-1.492 1.14-1.492.777 0 1.16.652 1.16 1.492 0 .849-.393 1.522-1.16 1.522-.735 0-1.14-.621-1.14-1.522zm3.844 1.989h.611v-3.979h-.61v3.979zm.311-4.642a.427.427 0 00.435-.414.428.428 0 00-.435-.415.428.428 0 00-.435.415c0 .228.197.414.435.414zm2.031 2.248c0-.694.43-1.087 1.016-1.087.567 0 .911.37.911.994v2.487h.612v-2.528c0-1.016-.542-1.502-1.347-1.502-.601 0-.974.269-1.16.673h-.052v-.622h-.59v3.979h.61v-2.394zm5.324 2.477c.808 0 1.398-.404 1.585-1.005l-.59-.166c-.156.414-.516.621-.995.621-.718 0-1.213-.463-1.241-1.315h2.888v-.259c0-1.482-.88-1.989-1.71-1.989-1.077 0-1.792.849-1.792 2.072 0 1.222.705 2.041 1.855 2.041zm-1.241-2.394c.041-.619.48-1.17 1.178-1.17.663 0 1.088.497 1.088 1.17H67.58zm4.429-2.994h-.611v5.305h.611v-5.305zm2.736 5.388c1.077 0 1.802-.819 1.802-2.052 0-1.243-.725-2.061-1.802-2.061-1.078 0-1.803.818-1.803 2.061 0 1.233.725 2.052 1.803 2.052zm0-.55c-.819 0-1.192-.704-1.192-1.502s.373-1.512 1.192-1.512c.818 0 1.191.714 1.191 1.512s-.373 1.502-1.191 1.502zm3.347-1.927c0-.694.43-1.087 1.015-1.087.567 0 .912.37.912.994v2.487h.611v-2.528c0-1.016-.541-1.502-1.347-1.502-.6 0-.974.269-1.16.673h-.052v-.622h-.59v3.979h.61v-2.394zm5.261 3.968c.953 0 1.72-.435 1.72-1.46v-4.093h-.59v.632h-.063c-.135-.207-.383-.683-1.16-.683-1.005 0-1.7.797-1.7 2.02 0 1.243.726 1.948 1.69 1.948.776 0 1.025-.456 1.16-.674h.051v.808c0 .663-.466.964-1.108.964-.723 0-.977-.381-1.14-.601l-.487.342c.249.417.739.797 1.627.797zm-.02-2.186c-.767 0-1.161-.58-1.161-1.409 0-.808.383-1.46 1.16-1.46.746 0 1.14.601 1.14 1.46 0 .881-.404 1.409-1.14 1.409zm-28.29 11.633h.622c-.029-.8-.767-1.398-1.793-1.398-1.015 0-1.813.59-1.813 1.481 0 .715.519 1.14 1.347 1.378l.653.187c.56.155 1.057.352 1.057.88 0 .58-.56.964-1.295.964-.632 0-1.192-.28-1.243-.881h-.664c.063.87.767 1.461 1.907 1.461 1.222 0 1.916-.673 1.916-1.533 0-.995-.942-1.316-1.491-1.461l-.54-.145c-.393-.104-1.025-.311-1.025-.881 0-.508.466-.88 1.17-.88.643 0 1.13.305 1.192.828zm1.668 5.471h.61v-2.104h.053c.134.218.393.695 1.16.695.995 0 1.689-.798 1.689-2.062 0-1.254-.694-2.051-1.7-2.051-.776 0-1.015.476-1.15.683H57.3v-.632h-.59v5.471zm.6-3.481c0-.891.394-1.492 1.14-1.492.777 0 1.16.652 1.16 1.492 0 .849-.393 1.522-1.16 1.522-.735 0-1.14-.621-1.14-1.522zm3.844 1.989h.611v-3.979h-.61v3.979zm.311-4.642a.427.427 0 00.435-.414.428.428 0 00-.435-.415.428.428 0 00-.435.415c0 .228.197.414.435.414zm2.031 2.248c0-.694.43-1.087 1.016-1.087.567 0 .911.37.911.994v2.487h.612v-2.528c0-1.016-.542-1.502-1.347-1.502-.601 0-.974.269-1.16.673h-.052v-.622h-.59v3.979h.61v-2.394zm5.324 2.477c.808 0 1.398-.404 1.585-1.005l-.59-.166c-.156.414-.516.621-.995.621-.718 0-1.213-.463-1.241-1.315h2.888v-.259c0-1.482-.88-1.989-1.71-1.989-1.077 0-1.792.849-1.792 2.072 0 1.222.705 2.041 1.855 2.041zm-1.241-2.394c.041-.619.48-1.17 1.178-1.17.663 0 1.088.497 1.088 1.17H67.58zm4.429-2.994h-.611v5.305h.611v-5.305zm2.736 5.388c1.077 0 1.802-.819 1.802-2.052 0-1.243-.725-2.061-1.802-2.061-1.078 0-1.803.818-1.803 2.061 0 1.233.725 2.052 1.803 2.052zm0-.55c-.819 0-1.192-.704-1.192-1.502s.373-1.512 1.192-1.512c.818 0 1.191.714 1.191 1.512s-.373 1.502-1.191 1.502zm3.347-1.927c0-.694.43-1.087 1.015-1.087.567 0 .912.37.912.994v2.487h.611v-2.528c0-1.016-.541-1.502-1.347-1.502-.6 0-.974.269-1.16.673h-.052v-.622h-.59v3.979h.61v-2.394zm5.261 3.968c.953 0 1.72-.435 1.72-1.46v-4.093h-.59v.632h-.063c-.135-.207-.383-.683-1.16-.683-1.005 0-1.7.797-1.7 2.02 0 1.243.726 1.948 1.69 1.948.776 0 1.025-.456 1.16-.674h.051v.808c0 .663-.466.964-1.108.964-.723 0-.977-.381-1.14-.601l-.487.342c.249.417.739.797 1.627.797zm-.02-2.186c-.767 0-1.161-.58-1.161-1.409 0-.808.383-1.46 1.16-1.46.746 0 1.14.601 1.14 1.46 0 .881-.404 1.409-1.14 1.409zm-28.29 11.633h.622c-.029-.8-.767-1.398-1.793-1.398-1.015 0-1.813.59-1.813 1.481 0 .715.519 1.14 1.347 1.378l.653.187c.56.155 1.057.352 1.057.88 0 .58-.56.964-1.295.964-.632 0-1.192-.28-1.243-.881h-.664c.063.87.767 1.461 1.907 1.461 1.222 0 1.916-.673 1.916-1.533 0-.995-.942-1.316-1.491-1.461l-.54-.145c-.393-.104-1.025-.311-1.025-.881 0-.508.466-.88 1.17-.88.643 0 1.13.305 1.192.828zm1.668 5.471h.61v-2.104h.053c.134.218.393.695 1.16.695.995 0 1.689-.798 1.689-2.062 0-1.254-.694-2.051-1.7-2.051-.776 0-1.015.476-1.15.683H57.3v-.632h-.59v5.471zm.6-3.481c0-.891.394-1.492 1.14-1.492.777 0 1.16.652 1.16 1.492 0 .849-.393 1.522-1.16 1.522-.735 0-1.14-.621-1.14-1.522zm3.844 1.989h.611v-3.979h-.61v3.979zm.311-4.642a.427.427 0 00.435-.414.428.428 0 00-.435-.415.428.428 0 00-.435.415c0 .228.197.414.435.414zm2.031 2.248c0-.694.43-1.087 1.016-1.087.567 0 .911.37.911.994v2.487h.612v-2.528c0-1.016-.542-1.502-1.347-1.502-.601 0-.974.269-1.16.673h-.052v-.622h-.59v3.979h.61v-2.394zm5.324 2.477c.808 0 1.398-.404 1.585-1.005l-.59-.166c-.156.414-.516.621-.995.621-.718 0-1.213-.463-1.241-1.315h2.888v-.259c0-1.482-.88-1.989-1.71-1.989-1.077 0-1.792.849-1.792 2.072 0 1.222.705 2.041 1.855 2.041zm-1.241-2.394c.041-.619.48-1.17 1.178-1.17.663 0 1.088.497 1.088 1.17H67.58zm4.429-2.994h-.611v5.305h.611v-5.305zm2.736 5.388c1.077 0 1.802-.819 1.802-2.052 0-1.243-.725-2.061-1.802-2.061-1.078 0-1.803.818-1.803 2.061 0 1.233.725 2.052 1.803 2.052zm0-.55c-.819 0-1.192-.704-1.192-1.502s.373-1.512 1.192-1.512c.818 0 1.191.714 1.191 1.512s-.373 1.502-1.191 1.502zm3.347-1.927c0-.694.43-1.087 1.015-1.087.567 0 .912.37.912.994v2.487h.611v-2.528c0-1.016-.541-1.502-1.347-1.502-.6 0-.974.269-1.16.673h-.052v-.622h-.59v3.979h.61v-2.394zm5.261 3.968c.953 0 1.72-.435 1.72-1.46v-4.093h-.59v.632h-.063c-.135-.207-.383-.683-1.16-.683-1.005 0-1.7.797-1.7 2.02 0 1.243.726 1.948 1.69 1.948.776 0 1.025-.456 1.16-.674h.051v.808c0 .663-.466.964-1.108.964-.723 0-.977-.381-1.14-.601l-.487.342c.249.417.739.797 1.627.797zm-.02-2.186c-.767 0-1.161-.58-1.161-1.409 0-.808.383-1.46 1.16-1.46.746 0 1.14.601 1.14 1.46 0 .881-.404 1.409-1.14 1.409zM189.015 298.276c0-.618.063-1.114.188-1.489.129-.377.317-.668.567-.872.251-.205.567-.307.947-.307.28 0 .526.057.737.171.211.112.386.274.524.488.137.211.245.47.324.776.078.304.117.715.117 1.233 0 .612-.063 1.107-.188 1.485-.126.375-.315.666-.567.872-.249.205-.565.307-.947.307-.503 0-.899-.181-1.186-.542-.344-.434-.516-1.142-.516-2.122zm.658 0c0 .857.1 1.428.3 1.713.201.282.45.424.744.424s.541-.143.741-.428c.202-.285.302-.855.302-1.709 0-.86-.1-1.431-.302-1.713-.2-.283-.449-.424-.748-.424a.82.82 0 00-.705.374c-.221.318-.332.906-.332 1.763zm6.771 1.958v.617h-3.451c-.005-.155.02-.303.074-.446.088-.235.228-.466.421-.694.194-.228.475-.492.84-.791.568-.465.951-.833 1.151-1.104.199-.273.299-.53.299-.773a.85.85 0 00-.275-.641c-.18-.175-.416-.263-.708-.263-.309 0-.556.092-.741.278-.185.185-.279.441-.281.769l-.659-.068c.045-.491.215-.865.509-1.122.294-.258.69-.388 1.186-.388.501 0 .897.139 1.189.417.293.278.439.622.439 1.033 0 .209-.043.414-.129.616a2.363 2.363 0 01-.427.637c-.197.224-.526.53-.987.919a10.79 10.79 0 00-.74.659c-.11.114-.2.229-.271.345h2.561zm1.05.617v-.73h.73v.73h-.73zm4.085 0h-.641v-4.085a3.27 3.27 0 01-.609.441 4.226 4.226 0 01-.673.332v-.62c.359-.169.672-.373.94-.613.269-.24.458-.472.57-.698h.413v5.243zm5.015-.617v.617h-3.451c-.005-.155.02-.303.074-.446.088-.235.228-.466.421-.694.194-.228.474-.492.84-.791.568-.465.951-.833 1.15-1.104.2-.273.3-.53.3-.773a.85.85 0 00-.275-.641c-.18-.175-.416-.263-.708-.263-.309 0-.556.092-.741.278-.185.185-.279.441-.281.769l-.659-.068c.045-.491.215-.865.509-1.122.294-.258.69-.388 1.186-.388.501 0 .897.139 1.189.417.292.278.438.622.438 1.033 0 .209-.042.414-.128.616a2.363 2.363 0 01-.427.637c-.197.224-.526.53-.987.919a10.79 10.79 0 00-.74.659c-.11.114-.2.229-.271.345h2.561zm1.05.617v-.73h.73v.73h-.73zm5.04-.617v.617h-3.451c-.005-.155.02-.303.074-.446.088-.235.228-.466.421-.694.194-.228.474-.492.84-.791.568-.465.951-.833 1.15-1.104.2-.273.3-.53.3-.773a.85.85 0 00-.275-.641c-.18-.175-.416-.263-.708-.263-.309 0-.556.092-.741.278-.185.185-.279.441-.282.769l-.658-.068c.045-.491.215-.865.509-1.122.294-.258.69-.388 1.186-.388.501 0 .897.139 1.189.417.292.278.438.622.438 1.033 0 .209-.042.414-.128.616a2.363 2.363 0 01-.427.637c-.197.224-.526.53-.987.919a10.79 10.79 0 00-.74.659c-.11.114-.2.229-.271.345h2.561zm.69-1.958c0-.618.063-1.114.189-1.489.128-.377.317-.668.566-.872.252-.205.568-.307.948-.307.28 0 .526.057.737.171.211.112.386.274.523.488.138.211.246.47.325.776.078.304.117.715.117 1.233 0 .612-.063 1.107-.189 1.485-.125.375-.314.666-.566.872-.249.205-.565.307-.947.307-.504 0-.899-.181-1.186-.542-.344-.434-.517-1.142-.517-2.122zm.659 0c0 .857.1 1.428.299 1.713.202.282.45.424.745.424.294 0 .541-.143.741-.428.201-.285.302-.855.302-1.709 0-.86-.101-1.431-.302-1.713-.2-.283-.449-.424-.748-.424a.823.823 0 00-.706.374c-.22.318-.331.906-.331 1.763zm6.77 1.958v.617h-3.451a1.163 1.163 0 01.075-.446c.088-.235.228-.466.421-.694.194-.228.474-.492.84-.791.567-.465.951-.833 1.15-1.104.2-.273.299-.53.299-.773a.849.849 0 00-.274-.641c-.18-.175-.416-.263-.708-.263-.309 0-.556.092-.741.278-.185.185-.279.441-.282.769l-.658-.068c.045-.491.214-.865.509-1.122.294-.258.69-.388 1.186-.388.501 0 .897.139 1.189.417.292.278.438.622.438 1.033 0 .209-.042.414-.128.616a2.363 2.363 0 01-.427.637c-.197.224-.526.53-.987.919-.384.323-.631.543-.741.659a2.056 2.056 0 00-.27.345h2.56zm.691-1.958c0-.618.063-1.114.189-1.489.128-.377.317-.668.566-.872.252-.205.568-.307.948-.307.28 0 .526.057.737.171.211.112.386.274.523.488.138.211.246.47.325.776.078.304.117.715.117 1.233 0 .612-.063 1.107-.189 1.485-.126.375-.314.666-.566.872-.249.205-.565.307-.947.307-.504 0-.899-.181-1.186-.542-.345-.434-.517-1.142-.517-2.122zm.659 0c0 .857.1 1.428.299 1.713.202.282.45.424.745.424.294 0 .541-.143.74-.428.202-.285.303-.855.303-1.709 0-.86-.101-1.431-.303-1.713-.199-.283-.448-.424-.747-.424a.823.823 0 00-.706.374c-.22.318-.331.906-.331 1.763zm-33.138 15c0-.618.063-1.114.188-1.489.129-.377.317-.668.567-.872.251-.205.567-.307.947-.307.28 0 .526.057.737.171.211.112.386.274.524.488.137.211.245.47.324.776.078.304.117.715.117 1.233 0 .612-.063 1.107-.188 1.485-.126.375-.315.666-.567.872-.249.205-.565.307-.947.307-.503 0-.899-.181-1.186-.542-.344-.434-.516-1.142-.516-2.122zm.658 0c0 .857.1 1.428.3 1.713.201.282.45.424.744.424s.541-.143.741-.428c.202-.285.302-.855.302-1.709 0-.86-.1-1.431-.302-1.713-.2-.283-.449-.424-.748-.424a.82.82 0 00-.705.374c-.221.318-.332.906-.332 1.763zm4.388-.257c-.266-.097-.463-.236-.591-.416a1.094 1.094 0 01-.192-.649c0-.379.136-.699.409-.958.273-.258.636-.388 1.09-.388.456 0 .823.133 1.1.399.278.264.417.585.417.965 0 .242-.064.454-.192.634-.126.178-.318.316-.577.413.32.105.564.273.73.506.168.233.253.51.253.833a1.5 1.5 0 01-.474 1.126c-.316.304-.731.456-1.246.456-.516 0-.931-.152-1.247-.456a1.53 1.53 0 01-.474-1.143c0-.34.086-.624.257-.852.173-.23.419-.387.737-.47zm-.128-1.086c0 .247.079.449.239.606a.846.846 0 00.619.235.83.83 0 00.606-.232.775.775 0 00.238-.573.79.79 0 00-.246-.591.819.819 0 00-.605-.243.844.844 0 00-.609.235.76.76 0 00-.242.563zm-.207 2.411c0 .183.043.36.129.531a.933.933 0 00.388.399c.171.092.355.139.552.139.306 0 .559-.099.758-.296.2-.197.299-.448.299-.752 0-.308-.103-.563-.309-.765a1.052 1.052 0 00-.77-.303c-.301 0-.552.1-.751.299-.197.2-.296.449-.296.748zm3.768 1.507v-.73h.73v.73h-.73zm4.085 0h-.641v-4.085a3.27 3.27 0 01-.609.441 4.226 4.226 0 01-.673.332v-.62c.359-.169.672-.373.94-.613.269-.24.458-.472.57-.698h.413v5.243zm5.015-.617v.617h-3.451c-.005-.155.02-.303.074-.446.088-.235.228-.466.421-.694.194-.228.474-.492.84-.791.568-.465.951-.833 1.15-1.104.2-.273.3-.53.3-.773a.85.85 0 00-.275-.641c-.18-.175-.416-.263-.708-.263-.309 0-.556.092-.741.278-.185.185-.279.441-.281.769l-.659-.068c.045-.491.215-.865.509-1.122.294-.258.69-.388 1.186-.388.501 0 .897.139 1.189.417.292.278.438.622.438 1.033 0 .209-.042.414-.128.616a2.363 2.363 0 01-.427.637c-.197.224-.526.53-.987.919a10.79 10.79 0 00-.74.659c-.11.114-.2.229-.271.345h2.561zm1.05.617v-.73h.73v.73h-.73zm5.04-.617v.617h-3.451c-.005-.155.02-.303.074-.446.088-.235.228-.466.421-.694.194-.228.474-.492.84-.791.568-.465.951-.833 1.15-1.104.2-.273.3-.53.3-.773a.85.85 0 00-.275-.641c-.18-.175-.416-.263-.708-.263-.309 0-.556.092-.741.278-.185.185-.279.441-.282.769l-.658-.068c.045-.491.215-.865.509-1.122.294-.258.69-.388 1.186-.388.501 0 .897.139 1.189.417.292.278.438.622.438 1.033 0 .209-.042.414-.128.616a2.363 2.363 0 01-.427.637c-.197.224-.526.53-.987.919a10.79 10.79 0 00-.74.659c-.11.114-.2.229-.271.345h2.561zm.69-1.958c0-.618.063-1.114.189-1.489.128-.377.317-.668.566-.872.252-.205.568-.307.948-.307.28 0 .526.057.737.171.211.112.386.274.523.488.138.211.246.47.325.776.078.304.117.715.117 1.233 0 .612-.063 1.107-.189 1.485-.125.375-.314.666-.566.872-.249.205-.565.307-.947.307-.504 0-.899-.181-1.186-.542-.344-.434-.517-1.142-.517-2.122zm.659 0c0 .857.1 1.428.299 1.713.202.282.45.424.745.424.294 0 .541-.143.741-.428.201-.285.302-.855.302-1.709 0-.86-.101-1.431-.302-1.713-.2-.283-.449-.424-.748-.424a.823.823 0 00-.706.374c-.22.318-.331.906-.331 1.763zm6.77 1.958v.617h-3.451a1.163 1.163 0 01.075-.446c.088-.235.228-.466.421-.694.194-.228.474-.492.84-.791.567-.465.951-.833 1.15-1.104.2-.273.299-.53.299-.773a.849.849 0 00-.274-.641c-.18-.175-.416-.263-.708-.263-.309 0-.556.092-.741.278-.185.185-.279.441-.282.769l-.658-.068c.045-.491.214-.865.509-1.122.294-.258.69-.388 1.186-.388.501 0 .897.139 1.189.417.292.278.438.622.438 1.033 0 .209-.042.414-.128.616a2.363 2.363 0 01-.427.637c-.197.224-.526.53-.987.919-.384.323-.631.543-.741.659a2.056 2.056 0 00-.27.345h2.56zm.691-1.958c0-.618.063-1.114.189-1.489.128-.377.317-.668.566-.872.252-.205.568-.307.948-.307.28 0 .526.057.737.171.211.112.386.274.523.488.138.211.246.47.325.776.078.304.117.715.117 1.233 0 .612-.063 1.107-.189 1.485-.126.375-.314.666-.566.872-.249.205-.565.307-.947.307-.504 0-.899-.181-1.186-.542-.345-.434-.517-1.142-.517-2.122zm.659 0c0 .857.1 1.428.299 1.713.202.282.45.424.745.424.294 0 .541-.143.74-.428.202-.285.303-.855.303-1.709 0-.86-.101-1.431-.303-1.713-.199-.283-.448-.424-.747-.424a.823.823 0 00-.706.374c-.22.318-.331.906-.331 1.763zm-30.724 17.575h-.641v-4.085a3.27 3.27 0 01-.609.441 4.185 4.185 0 01-.673.332v-.62c.359-.169.672-.373.94-.613.269-.24.459-.472.57-.698h.413v5.243zm3.519 0h-.641v-4.085a3.27 3.27 0 01-.609.441 4.226 4.226 0 01-.673.332v-.62c.358-.169.672-.373.94-.613.268-.24.458-.472.57-.698h.413v5.243zm2.005 0v-.73h.73v.73h-.73zm4.085 0h-.641v-4.085a3.338 3.338 0 01-.609.441c-.25.148-.474.258-.673.332v-.62c.358-.169.672-.373.94-.613.268-.24.458-.472.57-.698h.413v5.243zm5.014-.617v.617h-3.451c-.004-.155.02-.303.075-.446.088-.235.228-.466.42-.694.195-.228.475-.492.841-.791.567-.465.951-.833 1.15-1.104.2-.273.299-.53.299-.773a.849.849 0 00-.274-.641c-.18-.175-.417-.263-.709-.263-.308 0-.555.092-.74.278-.186.185-.279.441-.282.769l-.659-.068c.045-.491.215-.865.51-1.122.294-.258.689-.388 1.186-.388.501 0 .897.139 1.189.417.292.278.438.622.438 1.033 0 .209-.043.414-.128.616a2.387 2.387 0 01-.427.637c-.198.224-.526.53-.987.919-.385.323-.632.543-.741.659a2.056 2.056 0 00-.27.345h2.56zm1.051.617v-.73h.73v.73h-.73zm5.039-.617v.617h-3.451c-.005-.155.02-.303.075-.446.088-.235.228-.466.42-.694.195-.228.475-.492.841-.791.567-.465.951-.833 1.15-1.104.199-.273.299-.53.299-.773a.849.849 0 00-.274-.641c-.18-.175-.417-.263-.709-.263-.308 0-.555.092-.74.278-.186.185-.279.441-.282.769l-.659-.068c.045-.491.215-.865.51-1.122.294-.258.689-.388 1.186-.388.5 0 .897.139 1.189.417.292.278.438.622.438 1.033 0 .209-.043.414-.128.616a2.369 2.369 0 01-.428.637c-.197.224-.525.53-.986.919-.385.323-.632.543-.741.659a2.056 2.056 0 00-.27.345h2.56zm.691-1.958c0-.618.063-1.114.189-1.489.128-.377.317-.668.566-.872.252-.205.568-.307.947-.307.281 0 .526.057.738.171.211.112.385.274.523.488.138.211.246.47.324.776.079.304.118.715.118 1.233 0 .612-.063 1.107-.189 1.485-.126.375-.315.666-.566.872-.25.205-.565.307-.948.307-.503 0-.898-.181-1.186-.542-.344-.434-.516-1.142-.516-2.122zm.659 0c0 .857.1 1.428.299 1.713.202.282.45.424.744.424.295 0 .542-.143.741-.428.202-.285.303-.855.303-1.709 0-.86-.101-1.431-.303-1.713-.199-.283-.449-.424-.748-.424a.823.823 0 00-.705.374c-.221.318-.331.906-.331 1.763zm6.77 1.958v.617h-3.451c-.005-.155.02-.303.075-.446.088-.235.228-.466.42-.694.195-.228.475-.492.841-.791.567-.465.951-.833 1.15-1.104.199-.273.299-.53.299-.773a.849.849 0 00-.274-.641c-.181-.175-.417-.263-.709-.263-.308 0-.555.092-.741.278-.185.185-.279.441-.281.769l-.659-.068c.045-.491.215-.865.51-1.122.294-.258.689-.388 1.185-.388.501 0 .898.139 1.19.417.292.278.438.622.438 1.033 0 .209-.043.414-.128.616a2.369 2.369 0 01-.428.637c-.197.224-.525.53-.986.919-.385.323-.632.543-.741.659a2.118 2.118 0 00-.271.345h2.561zm.691-1.958c0-.618.063-1.114.189-1.489.128-.377.317-.668.566-.872.252-.205.567-.307.947-.307.281 0 .526.057.738.171.211.112.385.274.523.488.138.211.246.47.324.776.079.304.118.715.118 1.233 0 .612-.063 1.107-.189 1.485-.126.375-.315.666-.566.872-.25.205-.565.307-.948.307-.503 0-.898-.181-1.186-.542-.344-.434-.516-1.142-.516-2.122zm.659 0c0 .857.1 1.428.299 1.713.202.282.45.424.744.424.295 0 .542-.143.741-.428.202-.285.303-.855.303-1.709 0-.86-.101-1.431-.303-1.713-.199-.283-.449-.424-.748-.424a.823.823 0 00-.705.374c-.221.318-.331.906-.331 1.763zm-29.228 16.958v.617h-3.451c-.005-.155.02-.303.075-.446.087-.235.227-.466.42-.694.194-.228.475-.492.84-.791.568-.465.951-.833 1.151-1.104.199-.273.299-.53.299-.773a.85.85 0 00-.275-.641c-.18-.175-.416-.263-.708-.263-.309 0-.556.092-.741.278-.185.185-.279.441-.281.769l-.659-.068c.045-.491.215-.865.509-1.122.294-.258.69-.388 1.186-.388.501 0 .897.139 1.19.417.292.278.438.622.438 1.033 0 .209-.043.414-.129.616a2.363 2.363 0 01-.427.637c-.197.224-.526.53-.987.919a10.79 10.79 0 00-.74.659c-.109.114-.2.229-.271.345h2.561zm.691-.751l.673-.057c.05.328.165.575.345.741a.954.954 0 00.659.246c.309 0 .57-.117.784-.349.213-.233.32-.542.32-.926 0-.366-.103-.655-.31-.866-.204-.211-.472-.317-.805-.317-.206 0-.393.048-.559.143a1.065 1.065 0 00-.392.363l-.601-.078.505-2.682h2.597v.612h-2.084l-.281 1.404c.313-.219.642-.328.986-.328.456 0 .841.158 1.154.474.314.315.47.721.47 1.218a1.9 1.9 0 01-.413 1.225c-.335.422-.792.634-1.371.634-.475 0-.863-.133-1.165-.399-.299-.266-.47-.619-.512-1.058zm4.419 1.368v-.73h.73v.73h-.73zm4.085 0h-.641v-4.085a3.27 3.27 0 01-.609.441 4.226 4.226 0 01-.673.332v-.62c.359-.169.672-.373.94-.613.269-.24.458-.472.57-.698h.413v5.243zm5.015-.617v.617h-3.451c-.005-.155.02-.303.074-.446.088-.235.228-.466.421-.694.194-.228.474-.492.84-.791.568-.465.951-.833 1.15-1.104.2-.273.3-.53.3-.773a.85.85 0 00-.275-.641c-.18-.175-.416-.263-.708-.263-.309 0-.556.092-.741.278-.185.185-.279.441-.281.769l-.659-.068c.045-.491.215-.865.509-1.122.294-.258.69-.388 1.186-.388.501 0 .897.139 1.189.417.292.278.438.622.438 1.033 0 .209-.042.414-.128.616a2.363 2.363 0 01-.427.637c-.197.224-.526.53-.987.919a10.79 10.79 0 00-.74.659c-.11.114-.2.229-.271.345h2.561zm1.05.617v-.73h.73v.73h-.73zm5.04-.617v.617h-3.451c-.005-.155.02-.303.074-.446.088-.235.228-.466.421-.694.194-.228.474-.492.84-.791.568-.465.951-.833 1.15-1.104.2-.273.3-.53.3-.773a.85.85 0 00-.275-.641c-.18-.175-.416-.263-.708-.263-.309 0-.556.092-.741.278-.185.185-.279.441-.282.769l-.658-.068c.045-.491.215-.865.509-1.122.294-.258.69-.388 1.186-.388.501 0 .897.139 1.189.417.292.278.438.622.438 1.033 0 .209-.042.414-.128.616a2.363 2.363 0 01-.427.637c-.197.224-.526.53-.987.919a10.79 10.79 0 00-.74.659c-.11.114-.2.229-.271.345h2.561zm.69-1.958c0-.618.063-1.114.189-1.489.128-.377.317-.668.566-.872.252-.205.568-.307.948-.307.28 0 .526.057.737.171.211.112.386.274.523.488.138.211.246.47.325.776.078.304.117.715.117 1.233 0 .612-.063 1.107-.189 1.485-.125.375-.314.666-.566.872-.249.205-.565.307-.947.307-.504 0-.899-.181-1.186-.542-.344-.434-.517-1.142-.517-2.122zm.659 0c0 .857.1 1.428.299 1.713.202.282.45.424.745.424.294 0 .541-.143.741-.428.201-.285.302-.855.302-1.709 0-.86-.101-1.431-.302-1.713-.2-.283-.449-.424-.748-.424a.823.823 0 00-.706.374c-.22.318-.331.906-.331 1.763zm6.77 1.958v.617h-3.451a1.163 1.163 0 01.075-.446c.088-.235.228-.466.421-.694.194-.228.474-.492.84-.791.567-.465.951-.833 1.15-1.104.2-.273.299-.53.299-.773a.849.849 0 00-.274-.641c-.18-.175-.416-.263-.708-.263-.309 0-.556.092-.741.278-.185.185-.279.441-.282.769l-.658-.068c.045-.491.214-.865.509-1.122.294-.258.69-.388 1.186-.388.501 0 .897.139 1.189.417.292.278.438.622.438 1.033 0 .209-.042.414-.128.616a2.363 2.363 0 01-.427.637c-.197.224-.526.53-.987.919-.384.323-.631.543-.741.659a2.056 2.056 0 00-.27.345h2.56zm.691-1.958c0-.618.063-1.114.189-1.489.128-.377.317-.668.566-.872.252-.205.568-.307.948-.307.28 0 .526.057.737.171.211.112.386.274.523.488.138.211.246.47.325.776.078.304.117.715.117 1.233 0 .612-.063 1.107-.189 1.485-.126.375-.314.666-.566.872-.249.205-.565.307-.947.307-.504 0-.899-.181-1.186-.542-.345-.434-.517-1.142-.517-2.122zm.659 0c0 .857.1 1.428.299 1.713.202.282.45.424.745.424.294 0 .541-.143.74-.428.202-.285.303-.855.303-1.709 0-.86-.101-1.431-.303-1.713-.199-.283-.448-.424-.747-.424a.823.823 0 00-.706.374c-.22.318-.331.906-.331 1.763z" fill="#333"/><path d="M48.16 266.294c1.819 0 2.87-1.128 2.87-2.993 0-1.856-1.052-2.975-2.809-2.975h-1.993v5.968h1.932zm-1.031-.787v-4.394h1.037c1.306 0 1.979.781 1.979 2.188 0 1.413-.674 2.206-2.034 2.206h-.982zm6.88.877c.976 0 1.667-.481 1.865-1.209l-.825-.149c-.157.423-.536.638-1.031.638-.746 0-1.247-.483-1.27-1.346h3.181v-.309c0-1.617-.967-2.249-1.981-2.249-1.247 0-2.069.95-2.069 2.325 0 1.39.81 2.299 2.13 2.299zm-1.259-2.719c.035-.635.496-1.186 1.204-1.186.676 0 1.119.502 1.122 1.186H52.75zm5.017-3.339h-.871v5.968h.871v-5.968zm1.172 5.968h.872v-4.476h-.872v4.476zm.44-5.167c.3 0 .551-.233.551-.518 0-.286-.25-.522-.55-.522-.304 0-.551.236-.551.522 0 .285.247.518.55.518zm5.432.691h-.935l-1.13 3.444h-.047l-1.134-3.444h-.935l1.626 4.476h.932l1.623-4.476zm2.588 4.566c.976 0 1.667-.481 1.865-1.209l-.825-.149c-.157.423-.536.638-1.031.638-.746 0-1.247-.483-1.27-1.346h3.181v-.309c0-1.617-.967-2.249-1.981-2.249-1.247 0-2.07.95-2.07 2.325 0 1.39.811 2.299 2.131 2.299zm-1.259-2.719c.035-.635.495-1.186 1.204-1.186.676 0 1.119.502 1.121 1.186H66.14zm4.146 2.629h.871v-2.733c0-.586.452-1.009 1.07-1.009.18 0 .384.032.454.053v-.834a3.733 3.733 0 00-.37-.02c-.525 0-.973.297-1.136.778h-.047v-.711h-.842v4.476zm3.836 1.678c.72 0 1.174-.376 1.434-1.081l1.85-5.064-.941-.009-1.134 3.473h-.046l-1.134-3.473h-.932l1.637 4.534-.108.297c-.221.595-.533.644-1.01.513l-.21.714c.104.047.332.096.594.096zm8.406-6.154h-.964v-.402c0-.396.163-.612.589-.612.18 0 .308.041.39.067l.204-.705a2.077 2.077 0 00-.728-.12c-.709 0-1.33.414-1.33 1.253v.519H80v.699h.69v3.777h.875v-3.777h.964v-.699zm2.608 4.566c1.262 0 2.087-.924 2.087-2.308 0-1.393-.825-2.316-2.087-2.316-1.261 0-2.086.923-2.086 2.316 0 1.384.825 2.308 2.086 2.308zm.003-.731c-.824 0-1.209-.72-1.209-1.58 0-.856.385-1.585 1.21-1.585.818 0 1.203.729 1.203 1.585 0 .86-.385 1.58-1.204 1.58zm3.056.641h.871v-2.733c0-.586.452-1.009 1.07-1.009.18 0 .384.032.454.053v-.834a3.733 3.733 0 00-.37-.02c-.524 0-.973.297-1.136.778h-.047v-.711h-.842v4.476zm4.918.09c.976 0 1.667-.481 1.865-1.209l-.825-.149c-.157.423-.536.638-1.031.638-.746 0-1.247-.483-1.27-1.346h3.181v-.309c0-1.617-.967-2.249-1.981-2.249-1.247 0-2.07.95-2.07 2.325 0 1.39.811 2.299 2.131 2.299zm-1.259-2.719c.035-.635.496-1.186 1.204-1.186.676 0 1.118.502 1.121 1.186h-2.325zm6.031 2.719c1.058 0 1.743-.635 1.839-1.506h-.848c-.11.483-.487.769-.985.769-.737 0-1.212-.615-1.212-1.591 0-.959.483-1.562 1.212-1.562.554 0 .892.35.985.769h.848c-.094-.903-.83-1.503-1.848-1.503-1.261 0-2.077.95-2.077 2.316 0 1.349.786 2.308 2.086 2.308zm4.073.009c.74 0 1.157-.376 1.323-.711h.035v.612h.851v-2.972c0-1.303-1.026-1.562-1.737-1.562-.81 0-1.556.326-1.847 1.142l.818.186c.129-.317.455-.623 1.041-.623.562 0 .851.294.851.801v.021c0 .317-.327.311-1.131.405-.848.099-1.716.32-1.716 1.337 0 .88.661 1.364 1.512 1.364zm.189-.7c-.492 0-.848-.221-.848-.652 0-.466.414-.633.918-.7.283-.037.953-.113 1.078-.239v.577c0 .531-.422 1.014-1.148 1.014zm6.534-2.782c-.181-.697-.726-1.151-1.693-1.151-1.011 0-1.728.533-1.728 1.326 0 .635.385 1.057 1.224 1.244l.758.166c.431.096.632.288.632.568 0 .347-.37.618-.941.618-.522 0-.857-.225-.962-.665l-.842.129c.146.792.804 1.238 1.809 1.238 1.081 0 1.83-.574 1.83-1.384 0-.632-.402-1.023-1.223-1.212l-.711-.163c-.493-.117-.706-.283-.703-.586-.003-.344.37-.589.866-.589.542 0 .792.3.894.601l.79-.14zm3.135-1.093h-.918v-1.072h-.872v1.072h-.655v.699h.655v2.643c-.002.813.618 1.207 1.306 1.192.277-.003.463-.055.565-.093l-.157-.72c-.059.012-.166.038-.306.038-.283 0-.536-.093-.536-.597v-2.463h.918v-.699zm5.02 4.566c1.262 0 2.086-.924 2.086-2.308 0-1.393-.824-2.316-2.086-2.316s-2.086.923-2.086 2.316c0 1.384.824 2.308 2.086 2.308zm.003-.731c-.825 0-1.209-.72-1.209-1.58 0-.856.384-1.585 1.209-1.585.819 0 1.203.729 1.203 1.585 0 .86-.384 1.58-1.203 1.58zm5.186-3.835h-.965v-.402c0-.396.164-.612.589-.612.181 0 .309.041.39.067l.204-.705a2.07 2.07 0 00-.728-.12c-.708 0-1.329.414-1.329 1.253v.519h-.69v.699h.69v3.777h.874v-3.777h.965v-.699zm6.395.076h.868c-.026-.956-.871-1.649-2.083-1.649-1.198 0-2.115.684-2.115 1.713 0 .83.594 1.317 1.553 1.576l.705.193c.638.169 1.13.378 1.13.909 0 .582-.556.967-1.323.967-.693 0-1.27-.309-1.322-.959h-.904c.059 1.082.895 1.749 2.232 1.749 1.402 0 2.209-.737 2.209-1.749 0-1.075-.959-1.491-1.716-1.678l-.583-.151c-.466-.12-1.087-.338-1.084-.91 0-.507.463-.882 1.198-.882.684 0 1.171.32 1.235.871zm1.956 6.078h.871v-2.375h.053c.157.286.478.784 1.293.784 1.084 0 1.871-.868 1.871-2.316 0-1.451-.798-2.305-1.879-2.305-.831 0-1.131.507-1.285.784h-.073v-.726h-.851v6.154zm.854-3.916c0-.935.408-1.556 1.168-1.556.79 0 1.186.667 1.186 1.556 0 .897-.408 1.582-1.186 1.582-.749 0-1.168-.641-1.168-1.582zm4.21 2.238h.872v-4.476h-.872v4.476zm.44-5.167c.3 0 .551-.233.551-.518 0-.286-.251-.522-.551-.522-.303 0-.55.236-.55.522 0 .285.247.518.55.518zm2.475 2.509c0-.714.437-1.122 1.043-1.122.592 0 .95.388.95 1.038v2.742h.871v-2.847c0-1.107-.609-1.687-1.524-1.687-.673 0-1.113.312-1.32.786h-.055v-.728h-.836v4.476h.871v-2.658zm5.962 2.748c.976 0 1.666-.481 1.864-1.209l-.824-.149c-.157.423-.536.638-1.032.638-.746 0-1.247-.483-1.27-1.346h3.182v-.309c0-1.617-.968-2.249-1.982-2.249-1.247 0-2.068.95-2.068 2.325 0 1.39.81 2.299 2.13 2.299zm-1.259-2.719c.035-.635.495-1.186 1.203-1.186.676 0 1.119.502 1.122 1.186h-2.325zm5.017-3.339h-.871v5.968h.871v-5.968zm3.057 6.058c1.262 0 2.086-.924 2.086-2.308 0-1.393-.824-2.316-2.086-2.316s-2.086.923-2.086 2.316c0 1.384.824 2.308 2.086 2.308zm.003-.731c-.825 0-1.209-.72-1.209-1.58 0-.856.384-1.585 1.209-1.585.819 0 1.203.729 1.203 1.585 0 .86-.384 1.58-1.203 1.58zm3.927-2.017c0-.714.437-1.122 1.043-1.122.592 0 .95.388.95 1.038v2.742h.871v-2.847c0-1.107-.609-1.687-1.523-1.687-.674 0-1.114.312-1.32.786h-.056v-.728h-.836v4.476h.871v-2.658zm5.909 4.429c1.14 0 2.02-.521 2.02-1.672v-4.575h-.854v.726h-.064c-.155-.277-.463-.784-1.297-.784-1.081 0-1.876.854-1.876 2.278 0 1.428.813 2.189 1.87 2.189.822 0 1.14-.464 1.297-.749h.055v.88c0 .702-.48 1.005-1.142 1.005-.725 0-1.008-.364-1.162-.621l-.749.309c.236.548.833 1.014 1.902 1.014zm-.008-2.561c-.778 0-1.183-.597-1.183-1.477 0-.86.396-1.527 1.183-1.527.76 0 1.168.621 1.168 1.527 0 .923-.417 1.477-1.168 1.477z" fill="#13AC6C"/></g><defs><filter id="filter0_d" x="57.041" y=".041" width="651.918" height="431.918" filterUnits="userSpaceOnUse" color-interpolation-filters="sRGB"><feFlood flood-opacity="0" result="BackgroundImageFix"/><feColorMatrix in="SourceAlpha" values="0 0 0 0 0 0 0 0 0 0 0 0 0 0 0 0 0 0 127 0"/><feMorphology radius="9.041" in="SourceAlpha" result="effect1_dropShadow"/><feOffset dx="15" dy="20"/><feGaussianBlur stdDeviation="30"/><feColorMatrix values="0 0 0 0 0.0878724 0 0 0 0 0.0811458 0 0 0 0 0.170833 0 0 0 0.07 0"/><feBlend in2="BackgroundImageFix" result="effect1_dropShadow"/><feBlend in="SourceGraphic" in2="effect1_dropShadow" result="shape"/></filter><filter id="filter1_d" x=".041" y="217.041" width="354.918" height="284.716" filterUnits="userSpaceOnUse" color-interpolation-filters="sRGB"><feFlood flood-opacity="0" result="BackgroundImageFix"/><feColorMatrix in="SourceAlpha" values="0 0 0 0 0 0 0 0 0 0 0 0 0 0 0 0 0 0 127 0"/><feMorphology radius="9.041" in="SourceAlpha" result="effect1_dropShadow"/><feOffset dx="15" dy="20"/><feGaussianBlur stdDeviation="30"/><feColorMatrix values="0 0 0 0 0.0878724 0 0 0 0 0.0811458 0 0 0 0 0.170833 0 0 0 0.07 0"/><feBlend in2="BackgroundImageFix" result="effect1_dropShadow"/><feBlend in="SourceGraphic" in2="effect1_dropShadow" result="shape"/></filter><clipPath id="clip0"><rect x="93" y="31" width="550" height="330" rx="5" fill="#fff"/></clipPath></defs></svg>