<svg width="54" height="54" fill="none" xmlns="http://www.w3.org/2000/svg"><path d="M48.938 1.688a3.375 3.375 0 00-3.376 3.375v.151a2.514 2.514 0 00-3.374 2.38v.995a2.514 2.514 0 00-3.376 2.38v16.487l-1.965 3.4a4.227 4.227 0 00-.566 2.11v11.06a2.54 2.54 0 00-1.687 2.38v1.375a2.539 2.539 0 002.531 2.532H47.25a2.539 2.539 0 002.531-2.532v-1.375a2.54 2.54 0 00-1.687-2.38v-3.264a2.555 2.555 0 01.607-1.646l2.599-3.029a4.233 4.233 0 001.013-2.742V5.063a3.375 3.375 0 00-3.376-3.375zm-5.063 5.906a.844.844 0 011.688 0v12.96a3.361 3.361 0 00-1.637.017c-.017 0-.034.016-.051.016V7.594zM40.5 10.969a.844.844 0 011.688 0v10.74c-.114.137-.218.28-.313.431L40.5 24.528v-13.56zm7.594 36.812a.844.844 0 01-.844.844H37.125a.844.844 0 01-.844-.844v-1.375a.844.844 0 01.844-.843H47.25a.844.844 0 01.844.843v1.375zm2.531-14.436c0 .603-.216 1.187-.608 1.645l-2.598 3.03a4.25 4.25 0 00-1.013 2.742v3.113H37.97v-10.91c.002-.444.118-.88.337-1.265l5.037-8.716a1.688 1.688 0 012.304-.616 1.693 1.693 0 01.616 2.303l-5.485 9.5 1.46.845 5.484-9.501a3.369 3.369 0 00-.472-3.983V5.063a1.687 1.687 0 113.375 0v28.283zM17.719 44.027V32.966c0-.741-.196-1.468-.566-2.11l-1.965-3.4V10.969a2.515 2.515 0 00-3.376-2.38v-.995a2.515 2.515 0 00-3.374-2.38v-.151a3.375 3.375 0 00-6.75 0v28.282A4.233 4.233 0 002.7 36.087l2.599 3.03c.39.46.605 1.042.607 1.645v3.265a2.54 2.54 0 00-1.687 2.38v1.375a2.539 2.539 0 002.531 2.53h10.125a2.539 2.539 0 002.531-2.53v-1.375a2.54 2.54 0 00-1.687-2.38zM11.812 10.97a.844.844 0 111.688 0v13.56l-1.375-2.389a4.002 4.002 0 00-.313-.43V10.969zM8.438 7.594a.844.844 0 011.687 0v12.994c-.017 0-.034-.017-.05-.017a3.262 3.262 0 00-1.637-.017V7.594zM3.981 34.991a2.54 2.54 0 01-.607-1.646V5.063a1.687 1.687 0 013.375 0v16.47a3.369 3.369 0 00-.473 3.982l5.485 9.5 1.46-.843-5.485-9.5a1.693 1.693 0 01.616-2.304 1.687 1.687 0 012.304.616l5.037 8.716c.22.386.335.822.337 1.266v10.91H7.594v-3.114A4.25 4.25 0 006.58 38.02l-2.599-3.03zM17.72 47.78a.843.843 0 01-.844.844H6.75a.843.843 0 01-.844-.843v-1.375a.844.844 0 01.844-.844h10.125a.843.843 0 01.844.843v1.376z" fill="#028BFC"/><path d="M36.568 5.113l-9.281-3.375a.838.838 0 00-.574 0l-9.281 3.375a.837.837 0 00-.557.793v7.333a10.996 10.996 0 003.586 8.116l5.974 5.426a.838.838 0 001.13 0l5.974-5.426a10.995 10.995 0 003.586-8.117V5.907a.837.837 0 00-.557-.793zm-1.13 8.125a9.298 9.298 0 01-3.038 6.869l-5.4 4.91-5.4-4.91a9.299 9.299 0 01-3.038-6.868V6.497L27 3.426l8.438 3.07v6.742z" fill="#13ACAC"/><path d="M23.378 12.904l-1.193 1.193 3.375 3.375a.844.844 0 001.193 0l5.906-5.907-1.193-1.193-5.31 5.31-2.778-2.778z" fill="#13ACAC"/></svg>