<svg width="54" height="54" fill="none" xmlns="http://www.w3.org/2000/svg"><path d="M45.38 11.313a2.489 2.489 0 00-.232 0 1.266 1.266 0 110-2.529 1.328 1.328 0 011.252.843.672.672 0 00.848.385.625.625 0 00.404-.806 2.656 2.656 0 00-2.504-1.687 2.598 2.598 0 00-2.656 2.53 2.597 2.597 0 002.656 2.529 1.266 1.266 0 110 2.529 1.328 1.328 0 01-1.253-.843.671.671 0 00-.847-.385.625.625 0 00-.404.806 2.656 2.656 0 002.504 1.687 2.532 2.532 0 10.232-5.059z" fill="#028BFC"/><path d="M44.582 16.477V7.523a.523.523 0 011.047 0v8.954a.523.523 0 01-1.047 0z" fill="#028BFC"/><path fill-rule="evenodd" clip-rule="evenodd" d="M53.115 27.88h-1.77v-2.656h.885a.885.885 0 00.885-.885v-4.426a.885.885 0 00-.886-.886h-1.793a8.852 8.852 0 10-10.577 0h-1.793a.885.885 0 00-.886.886v3.54h-.885a.885.885 0 00-.885.886v4.426c0 .489.396.885.885.885h1.77v3.541c0 .49.397.886.886.886h1.85a5.312 5.312 0 002.075 3.376l-30.34 5.517-3.291.598-1.33.246c-1.065.112-.98 1.855.052 1.77 1.033-.084 1.195-.104 1.76-.306l16.2-2.944-4.6 9.962a.885.885 0 00.804 1.256h10.623a.885.885 0 00.804-1.256l-4.833-10.472 18.352-3.336a.859.859 0 00.384-.185 5.322 5.322 0 003.804-4.226h1.85A.885.885 0 0054 33.19v-4.426a.885.885 0 00-.885-.885zM23.514 51.78h7.857l-3.928-8.51-3.929 8.51zM45.148 4.863a7.082 7.082 0 000 14.164 7.09 7.09 0 007.081-7.082 7.082 7.082 0 00-7.081-7.082zM40.72 20.798h-1.77v2.655h12.393v-2.655h-1.77v.885h-1.77v-.885h-1.771v.885h-1.77v-.885h-1.771v.885h-1.77v-.885zm-3.54 4.426v2.656h12.393v-2.656h-1.77v.885h-1.771v-.885h-1.77v.885h-1.771v-.885h-1.77v.885H38.95v-.885h-1.77zm5.423 8.853a3.545 3.545 0 003.429 2.655 3.546 3.546 0 003.428-2.655h-6.857zm-2.768-1.771H52.23V29.65h-1.77v.886h-1.771v-.886h-1.77v.886h-1.771v-.886h-1.77v.886h-1.771v-.886h-1.77v2.656z" fill="#028BFC"/><g clip-path="url(#clip0)" fill="#13ACAC"><path d="M29.992 23.976a2.618 2.618 0 00-.912-1.8l-2.595-2.224v-6.32a.879.879 0 00-.88-.879H22.09a.869.869 0 00-.867.879v1.8l-4.448-3.79a2.623 2.623 0 00-3.429-.003L.922 22.176a2.635 2.635 0 00-.285 3.72 2.664 2.664 0 002.892.767v13.453c0 .485.381.879.867.879h21.21a.879.879 0 00.879-.88V26.665a2.635 2.635 0 003.508-2.688zm-7.023-9.465h1.77v3.935l-1.77-1.507V14.51zm-4.383 24.726h-7.16v-7.043h7.16v7.043zm6.153 0h-4.406v-7.91a.879.879 0 00-.88-.879h-8.905a.869.869 0 00-.867.879v7.91H5.275V25.399l9.781-8.297 9.683 8.29v13.845zM28.03 24.75a.88.88 0 01-1.24.096l-11.16-9.567a.879.879 0 00-1.14-.003l-11.28 9.57a.88.88 0 01-1.148-1.332l12.424-10.538a.875.875 0 011.144 0l12.305 10.535a.88.88 0 01.095 1.24z"/><path d="M17.695 21.543h-5.39a.869.869 0 00-.867.88v5.272c0 .486.382.88.867.88h5.39a.879.879 0 00.88-.88v-5.273a.879.879 0 00-.88-.879zm-.867 5.274h-3.644V23.3h3.644v3.516zM15.937 35.722a.879.879 0 100-1.757.879.879 0 000 1.757z"/></g><defs><clipPath id="clip0"><path fill="#fff" transform="translate(0 11)" d="M0 0h30v30H0z"/></clipPath></defs></svg>