<svg width="54" height="54" fill="none" xmlns="http://www.w3.org/2000/svg"><g clip-path="url(#clip0)"><path d="M25.172 35.553a.9.9 0 000 1.802 2.702 2.702 0 012.703 2.702.901.901 0 001.802 0 4.51 4.51 0 00-4.505-4.504z" fill="#028BFC"/><path fill-rule="evenodd" clip-rule="evenodd" d="M28.567 13.752l-1.55-1.55a9.538 9.538 0 00-6.789-2.811h-2.393l-1.01-1.01.637-.637a.901.901 0 000-1.274l-5.096-5.099a.9.9 0 00-1.274 0L.264 12.2a.9.9 0 000 1.273l5.095 5.096a.9.9 0 001.274 0l.637-.637.436.436a10.286 10.286 0 002.853 5.405l6.506 6.503v4.376a9.532 9.532 0 002.813 6.788l1.692 1.693v1.428h-.901a.9.9 0 00-.901.901v7.207a.9.9 0 00.9.9h15.315a.9.9 0 00.9-.9v-7.207a.9.9 0 00-.9-.9h-.9v-.617a10.287 10.287 0 001.8-5.837v-5.45c-.892.092-1.573-.23-1.8-.403v5.853a8.497 8.497 0 01-1.631 5.024.9.9 0 00-.172.528v.901h-9.909V42.76a.9.9 0 00-.264-.637l-1.956-1.957a7.747 7.747 0 01-2.284-5.514v-2.6a2.686 2.686 0 001.751.668h.015a2.716 2.716 0 002.702-2.703 2.656 2.656 0 00-.145-.836c-.648-.219-1.207-1.309-1.406-1.827l-2.767-2.766a.9.9 0 00-1.296 1.251l.023.023 3.526 3.526c.167.167.26.395.257.631a.91.91 0 01-.906.9.774.774 0 01-.625-.255l-8.163-8.168a8.496 8.496 0 01-2.399-4.705.901.901 0 00-.253-.495l-.637-.637 7.007-7.007 1.274 1.274a.9.9 0 00.637.264h2.766a7.747 7.747 0 015.515 2.283l1.55 1.551 1.274-1.271zm-26.393-.916l3.822 3.823 9.555-9.555-3.822-3.822-9.555 9.554zM21.57 51.768h13.512v-5.405H21.57v5.405z" fill="#028BFC"/><path d="M26.019 16.298l-1.55-1.55a.902.902 0 10-1.278 1.274l1.55 1.55 1.278-1.274z" fill="#028BFC"/><path fill-rule="evenodd" clip-rule="evenodd" d="M53.737 11.514L42.907.684a.927.927 0 00-1.274 0L36.537 5.78a.9.9 0 000 1.274l.637.637-.435.436a10.27 10.27 0 00-5.405 2.854l-2.767 2.772-1.273 1.272-1.275 1.273-1.277 1.274-3.507 3.506a2.664 2.664 0 00-.783 1.907 2.717 2.717 0 001.642 2.478 2.623 2.623 0 00-.31 1.891c.199.518.758 1.608 1.406 1.827.342.181.718.286 1.104.306a2.703 2.703 0 002.545 2.553 2.71 2.71 0 002.685 2.562h.01a2.66 2.66 0 001.897-.785l2.674-2.678c.216.455.554.842.977 1.116.229.173.909.495 1.802.403a2.644 2.644 0 001.554-.752l4.469-4.469a9.663 9.663 0 002.812-6.788v-2.392l1.01-1.011.637.638a.9.9 0 001.274 0l5.096-5.096a.9.9 0 000-1.274zm-9.82 6.369a.9.9 0 01.264-.637l1.283-1.275-7.007-7.007-.637.637a.9.9 0 01-.496.253 8.498 8.498 0 00-4.704 2.4L22.522 22.35a.873.873 0 00-.256.63.91.91 0 00.9.901.878.878 0 00.623-.256l4.468-4.468a.902.902 0 011.276 1.273l-5.743 5.744a.885.885 0 00-.256.625.91.91 0 00.9.901h.006a.87.87 0 00.621-.256l5.766-5.742a.901.901 0 111.274 1.273l-5.743 5.743a.874.874 0 00-.257.63.912.912 0 00.9.901.875.875 0 00.623-.256l5.743-5.743a.9.9 0 011.274 1.274l-5.743 5.743a.878.878 0 00-.258.63.91.91 0 00.901.901.876.876 0 00.624-.257l8.927-8.927a.9.9 0 011.274 1.274l-4.47 4.469a.877.877 0 00-.256.63.91.91 0 00.9.901.875.875 0 00.623-.256l4.47-4.47a7.853 7.853 0 002.284-5.514v-2.766zm-5.47-11.466l9.555 9.555 3.823-3.822-9.555-9.555-3.822 3.822z" fill="#13ACAC"/></g><defs><clipPath id="clip0"><path fill="#fff" d="M0 0h54v54H0z"/></clipPath></defs></svg>