<svg width="54" height="54" fill="none" xmlns="http://www.w3.org/2000/svg"><path fill-rule="evenodd" clip-rule="evenodd" d="M51.3 54H40.5a2.7 2.7 0 01-2.7-2.7v-5.4a4.505 4.505 0 014.5-4.5h.212l.19.09a7.175 7.175 0 006.396 0l.19-.09h.212a4.505 4.505 0 014.5 4.5v5.4a2.7 2.7 0 01-2.7 2.7zm.9-8.1a2.7 2.7 0 00-2.508-2.693 9.007 9.007 0 01-7.584 0A2.7 2.7 0 0039.6 45.9v5.4a.9.9 0 00.9.9h10.8a.9.9 0 00.9-.9v-5.4zm-6.3-5.4a5.4 5.4 0 110-10.8 5.4 5.4 0 010 10.8zm0-9a3.6 3.6 0 100 7.2 3.6 3.6 0 000-7.2zm-13.5-7.2H21.6a2.7 2.7 0 01-2.7-2.7v-5.4a4.505 4.505 0 014.5-4.5h.212l.19.095a7.175 7.175 0 006.396 0l.19-.095h.212a4.505 4.505 0 014.5 4.5v5.4a2.7 2.7 0 01-2.7 2.7zm.9-8.1a2.7 2.7 0 00-2.508-2.693 9.007 9.007 0 01-7.584 0A2.7 2.7 0 0020.7 16.2v5.4a.9.9 0 00.9.9h10.8a.9.9 0 00.9-.9v-5.4zM27 10.8A5.4 5.4 0 1127 0a5.4 5.4 0 010 10.8zm0-9A3.6 3.6 0 1027 9a3.6 3.6 0 000-7.2zM13.5 54H2.7A2.7 2.7 0 010 51.3v-5.4a4.505 4.505 0 014.5-4.5h.212l.19.09a7.175 7.175 0 006.396 0l.19-.09h.212a4.505 4.505 0 014.5 4.5v5.4a2.7 2.7 0 01-2.7 2.7zm.9-8.1a2.7 2.7 0 00-2.508-2.693 9.007 9.007 0 01-7.584 0A2.7 2.7 0 001.8 45.9v5.4a.9.9 0 00.9.9h10.8a.9.9 0 00.9-.9v-5.4zm-6.3-5.4a5.4 5.4 0 110-10.8 5.4 5.4 0 010 10.8zm0-9a3.6 3.6 0 100 7.2 3.6 3.6 0 000-7.2z" fill="#00C9C9"/><path fill-rule="evenodd" clip-rule="evenodd" d="M51.038 24.936l-2.7 2.7-.002.002a.9.9 0 01-1.272-.002l-2.7-2.7a.9.9 0 011.272-1.273l1.015 1.016A19.77 19.77 0 0034.747 8.773a.9.9 0 01.706-1.656 21.567 21.567 0 0113.037 17.82l1.274-1.274a.9.9 0 011.274 1.273zm-16.29 20.291a.9.9 0 011.18.476v.002a.9.9 0 01-.477 1.18 21.665 21.665 0 01-14.687.8l.732 1.4a.9.9 0 11-1.596.833l-1.8-3.444c-.01-.013-.005-.027-.01-.04a2.77 2.77 0 01-.09-.36.906.906 0 01.068-.371.877.877 0 01.22-.306.842.842 0 01.09-.057.889.889 0 01.233-.129c.013-.004.023-.02.036-.02l3.6-1.055a.9.9 0 01.506 1.728l-.843.247c4.26 1.13 8.774.82 12.837-.883zM19.717 8.306c-.008.009-.008.019-.008.028l-1.8 3.755a.9.9 0 01-1.2.42.9.9 0 01-.42-1.199l.65-1.36A19.77 19.77 0 007.2 27a.9.9 0 01-1.8 0A21.566 21.566 0 0116.79 7.97l-1.864-.852a.901.901 0 01.747-1.636l3.6 1.644c.035.022.07.046.101.073a.864.864 0 01.176.12.89.89 0 01.102.148c.032.039.06.08.085.124 0 .007-.004.014 0 .023s.013.014.013.022c.013.052.021.104.024.156a.871.871 0 01.026.174.934.934 0 01-.034.148.873.873 0 01-.049.19z" fill="#028BFC"/></svg>