<svg width="16" height="16" fill="none" xmlns="http://www.w3.org/2000/svg"><g clip-path="url(#clip0)"><rect width="16" height="16" rx="2.5" fill="#212A7A"/><path d="M-.627 11.716l15.732-3.591v1.584L-.627 13.3v-1.584z" fill="#00FFD1"/><path d="M7.824 13.206L17.488 11v1.663l-9.664 2.205v-1.662z" fill="#0084E4"/><path d="M12.424 3.625l6.067-1.385v1.574L12.424 5.2V3.625z" fill="#FF67D4"/><path d="M-10.5 4.503L1.921 1.75v1.584l-12.06 2.753-.361-1.584z" fill="#00B0F7"/><path fill-rule="evenodd" clip-rule="evenodd" d="M4.28 13.25H2.25L7.023 2.5h1.94l4.787 10.75h-2.06l-1.061-2.488-5.865 1.336-.484 1.152zm3.697-8.754l2 4.7-4.403.983 2.403-5.683z" fill="#fff"/></g><defs><clipPath id="clip0"><path fill="#fff" d="M0 0h16v16H0z"/></clipPath></defs></svg>