<svg width="54" height="54" fill="none" xmlns="http://www.w3.org/2000/svg"><path d="M27 47.7V32.4a.9.9 0 00-.9-.9h-3.6a.9.9 0 00-.9.9v15.3h-1.8v-5.4a.9.9 0 00-.9-.9h-3.6a.9.9 0 00-.9.9v5.4h-1.8V36a.9.9 0 00-.9-.9H8.1a.9.9 0 00-.9.9v11.7H3.6v1.8h27v-1.8H27zm-16.2 0H9V36.9h1.8v10.8zm7.2 0h-1.8v-4.5H18v4.5zm7.2 0h-1.8V33.3h1.8v14.4z" fill="#028BFC"/><path d="M23.318 12.291c-.012-.091-.028-.182-.043-.274a9.72 9.72 0 00-.201-.99l-.05-.196a9.849 9.849 0 00-.975-2.299c-.01-.015-.016-.032-.025-.048-.013-.023-.031-.044-.046-.067a9.744 9.744 0 00-.651-.954l-.058-.077a9.968 9.968 0 00-1.778-1.748l-.061-.046a9.856 9.856 0 00-3.309-1.628c-.058-.017-.118-.03-.177-.046a9.577 9.577 0 00-.985-.198c-.088-.014-.174-.03-.262-.04-.392-.048-.79-.08-1.197-.08-.38 0-.753.026-1.12.068-.087.01-.172.027-.258.04-.291.04-.578.092-.86.158-.084.02-.166.042-.25.063a9.855 9.855 0 00-.857.265l-.194.071a9.854 9.854 0 00-.924.41l-.079.038A9.907 9.907 0 007.08 5.98c-.04.034-.077.072-.118.107a10.015 10.015 0 00-.85.847c-.2.226-.39.46-.57.703-.028.04-.062.074-.091.113-.005.007-.006.016-.01.024A9.83 9.83 0 003.6 13.5c0 5.459 4.441 9.9 9.9 9.9a9.833 9.833 0 003.308-.58c.006-.002.013-.001.019-.004l.102-.041c.206-.077.41-.155.607-.244l.084-.04a9.688 9.688 0 001.164-.634c.04-.026.081-.048.121-.073.148-.097.289-.201.431-.305.09-.066.178-.13.266-.198a10.064 10.064 0 00.642-.554c.123-.114.244-.228.36-.347.07-.073.136-.15.204-.225.227-.25.442-.51.643-.782.051-.069.105-.135.155-.207.102-.144.195-.294.289-.444a10.783 10.783 0 00.414-.725c.048-.096.093-.192.14-.29.074-.157.149-.314.215-.476.05-.121.091-.246.136-.37a10.183 10.183 0 00.432-1.583c.034-.184.061-.37.085-.557.013-.106.028-.211.038-.318.027-.298.045-.599.045-.903 0-.41-.033-.812-.082-1.209zM7.548 8.024c.151-.164.308-.32.47-.47l.125-.113c.172-.152.35-.297.534-.433.036-.026.07-.054.107-.08.2-.143.406-.277.617-.402l.071-.043c.23-.132.465-.253.706-.362l.03-.014a8.108 8.108 0 011.598-.525c.26-.056.524-.097.79-.128l.053-.008a7.833 7.833 0 011.758.008c.06.006.118.019.178.027.247.034.492.076.733.132.05.012.097.026.145.038.258.065.512.14.76.23l.085.031a8.174 8.174 0 013.052 2.013l.01.01c.203.213.392.44.572.675l.03.04-6.425 3.777-6.064-4.331.066-.072zM13.5 21.6c-4.467 0-8.1-3.634-8.1-8.1 0-1.43.377-2.775 1.031-3.943l6.317 4.512 2.61 7.308a8.118 8.118 0 01-1.858.223zm8.025-7.058c-.01.081-.024.161-.037.242-.05.305-.113.606-.195.9-.01.034-.017.067-.026.1a8.06 8.06 0 01-.374 1.01l-.027.055a8.147 8.147 0 01-.48.895l-.05.083c-.383.6-.842 1.15-1.369 1.633l-.088.08a8.099 8.099 0 01-1.828 1.23l-2.454-6.871 1.083-.637 5.208-3.063A8.037 8.037 0 0121.6 13.5c0 .352-.03.7-.075 1.042zM42.3 13.5H27v1.8h15.3v-1.8zM42.3 18H27v1.8h15.3V18zM42.3 22.5H27v1.8h15.3v-1.8zM42.3 27H27v1.8h15.3V27z" fill="#00C9C9"/><path d="M44.1 36.9a3.604 3.604 0 00-3.6 3.6c0 1.985 1.615 3.6 3.6 3.6s3.6-1.615 3.6-3.6c0-1.986-1.615-3.6-3.6-3.6zm0 5.4c-.993 0-1.8-.807-1.8-1.8s.807-1.8 1.8-1.8 1.8.807 1.8 1.8-.807 1.8-1.8 1.8z" fill="#028BFC"/><path d="M53.1 37.8h-1.37a8.433 8.433 0 00-.325-.786l.969-.969a.9.9 0 000-1.273L50.4 32.8V9.9c0-.019-.01-.036-.01-.055a.907.907 0 00-.048-.235c-.01-.028-.017-.055-.028-.082a.89.89 0 00-.177-.264l-9-9a.897.897 0 00-.264-.177c-.027-.012-.055-.02-.084-.03a.873.873 0 00-.23-.045C40.538.01 40.519 0 40.5 0H.9a.9.9 0 00-.9.9v52.2a.9.9 0 00.9.9h48.6a.9.9 0 00.9-.9v-4.899l1.973-1.973a.9.9 0 000-1.273l-.969-.97c.122-.255.23-.518.325-.785H53.1a.9.9 0 00.9-.9v-3.6a.9.9 0 00-.9-.9zM41.4 3.073L47.327 9H41.4V3.073zM1.8 52.2V1.8h37.8v8.1a.9.9 0 00.9.9h8.1v21.385l-.045.042-.97.969a8.1 8.1 0 00-.785-.325V31.5a.9.9 0 00-.9-.9h-3.6a.9.9 0 00-.9.9v1.37a8.1 8.1 0 00-.786.325l-.969-.969a.899.899 0 00-1.273 0l-2.545 2.546a.9.9 0 000 1.273l.969.97c-.122.255-.23.518-.325.785H35.1a.9.9 0 00-.9.9v3.6a.9.9 0 00.9.9h1.37c.094.267.204.53.325.786l-.969.969a.9.9 0 000 1.273l2.545 2.546a.899.899 0 001.273 0l.97-.969a8.1 8.1 0 00.785.325v1.37a.9.9 0 00.9.9h3.6a.9.9 0 00.9-.9v-1.37a8.1 8.1 0 00.786-.325l.97.969.044.042V52.2H1.8zm50.4-10.8h-1.136a.9.9 0 00-.871.675 6.268 6.268 0 01-.671 1.62.901.901 0 00.138 1.093l.804.803-1.273 1.274-.803-.803a.9.9 0 00-1.095-.139 6.263 6.263 0 01-1.619.67.9.9 0 00-.674.871V48.6h-1.8v-1.136a.9.9 0 00-.675-.871 6.263 6.263 0 01-1.62-.67.899.899 0 00-1.093.139l-.804.803-1.273-1.274.804-.803a.9.9 0 00.139-1.093 6.268 6.268 0 01-.672-1.62.898.898 0 00-.87-.675H36v-1.8h1.136a.9.9 0 00.871-.675c.148-.57.373-1.116.671-1.62a.901.901 0 00-.138-1.093l-.804-.803 1.273-1.274.803.803a.898.898 0 001.095.139 6.263 6.263 0 011.619-.67.9.9 0 00.675-.871V32.4H45v1.136a.9.9 0 00.675.871 6.263 6.263 0 011.619.67.9.9 0 001.094-.139l.804-.803 1.273 1.274-.804.803a.9.9 0 00-.139 1.093c.298.504.524 1.05.672 1.62a.9.9 0 00.871.675H52.2v1.8z" fill="#028BFC"/></svg>