<svg width="54" height="54" fill="none" xmlns="http://www.w3.org/2000/svg"><path d="M1.755 36.794c.03.371.299.68.663.758l2.94.634c.104.502.236.996.396 1.478l-2.226 2.017a.843.843 0 00-.195.988c.406.856.86 1.646 1.346 2.35.211.305.598.437.953.323l2.858-.92c.342.383.705.746 1.088 1.088l-.92 2.858a.844.844 0 00.323.952c.704.487 1.494.94 2.35 1.347.337.16.738.08.988-.195l2.016-2.226c.484.159.978.291 1.48.395l.634 2.94a.845.845 0 00.757.664c.449.035.898.067 1.357.067.458 0 .907-.032 1.356-.067a.843.843 0 00.758-.663l.634-2.94a13.34 13.34 0 001.48-.396l2.016 2.226c.25.276.652.356.988.195.856-.407 1.646-.86 2.35-1.347a.844.844 0 00.323-.952l-.92-2.858c.383-.342.746-.705 1.088-1.087l2.858.92a.843.843 0 00.952-.323c.487-.704.94-1.495 1.347-2.35a.843.843 0 00-.195-.988l-2.226-2.017c.159-.483.291-.977.395-1.479l2.94-.634a.845.845 0 00.664-.757c.034-.45.066-.9.066-1.358 0-.458-.032-.907-.067-1.356a.843.843 0 00-.663-.758l-2.94-.635a13.345 13.345 0 00-.395-1.479l2.225-2.016a.844.844 0 00.195-.988 16.962 16.962 0 00-1.346-2.35.843.843 0 00-.953-.323l-2.858.92a13.502 13.502 0 00-1.088-1.088l.92-2.858a.844.844 0 00-.323-.953 16.871 16.871 0 00-2.35-1.346.842.842 0 00-.988.195l-2.016 2.226a13.594 13.594 0 00-1.48-.395l-.634-2.94a.845.845 0 00-.757-.664 17.154 17.154 0 00-2.714 0 .843.843 0 00-.758.663l-.634 2.94c-.502.105-.996.236-1.479.396l-2.016-2.226a.843.843 0 00-.988-.195c-.856.406-1.646.86-2.35 1.346a.844.844 0 00-.323.953l.92 2.858a13.51 13.51 0 00-1.088 1.088l-2.857-.92a.842.842 0 00-.953.323c-.486.704-.94 1.494-1.346 2.35a.844.844 0 00.195.988l2.226 2.016c-.16.484-.292.978-.395 1.48l-2.94.634a.845.845 0 00-.664.757c-.035.45-.067.9-.067 1.357 0 .459.032.908.067 1.357zm1.638-1.955l2.87-.62c.34-.073.6-.347.655-.69.126-.777.33-1.54.607-2.27a.843.843 0 00-.223-.924l-2.168-1.964c.19-.362.387-.709.59-1.037l2.782.896c.329.105.692 0 .912-.268.498-.61 1.06-1.17 1.669-1.67.268-.219.375-.58.268-.911L10.46 22.6c.328-.205.674-.403 1.037-.59l1.964 2.167a.845.845 0 00.925.223c.727-.276 1.491-.48 2.27-.606a.844.844 0 00.69-.655l.618-2.87a11.12 11.12 0 011.198 0l.62 2.87c.073.339.347.599.69.655.777.126 1.54.33 2.27.606.322.123.69.036.924-.223l1.964-2.167c.362.189.709.386 1.037.59l-.896 2.781c-.107.331 0 .692.268.913.61.497 1.17 1.06 1.67 1.669a.84.84 0 00.911.268l2.781-.896c.205.328.403.674.59 1.036l-2.168 1.964a.844.844 0 00-.222.925c.275.727.48 1.49.606 2.27a.844.844 0 00.655.689l2.87.62c.011.198.019.398.019.598 0 .201-.007.401-.018.599l-2.87.62a.844.844 0 00-.655.69c-.127.777-.33 1.54-.607 2.27a.843.843 0 00.223.923l2.168 1.965a15.93 15.93 0 01-.59 1.037l-2.782-.896a.84.84 0 00-.912.268 11.907 11.907 0 01-1.669 1.669.843.843 0 00-.268.911l.896 2.781c-.328.205-.674.403-1.036.59l-1.964-2.168a.847.847 0 00-.925-.222c-.728.276-1.491.48-2.27.606a.844.844 0 00-.69.655l-.619 2.87a11.12 11.12 0 01-1.197 0l-.62-2.87a.844.844 0 00-.69-.655 11.766 11.766 0 01-2.27-.606.842.842 0 00-.924.222l-1.964 2.168a15.885 15.885 0 01-1.037-.59l.896-2.782a.845.845 0 00-.268-.912c-.61-.498-1.17-1.06-1.67-1.669a.842.842 0 00-.911-.268l-2.781.896a14.963 14.963 0 01-.59-1.037l2.167-1.964a.844.844 0 00.223-.925c-.276-.727-.48-1.49-.606-2.27a.844.844 0 00-.655-.689l-2.872-.618a10.794 10.794 0 010-1.197zM45.747 13.698a.843.843 0 00.585-.707c.05-.426.074-.812.074-1.178 0-.367-.023-.752-.073-1.178a.843.843 0 00-.585-.708l-2.34-.735a7.277 7.277 0 00-.233-.564l1.135-2.172a.846.846 0 00-.087-.914 10.219 10.219 0 00-1.67-1.67.846.846 0 00-.913-.087L39.466 4.92a7.671 7.671 0 00-.564-.232l-.735-2.34a.843.843 0 00-.708-.584c-.854-.1-1.503-.1-2.357 0a.843.843 0 00-.707.585l-.735 2.34c-.192.07-.38.147-.564.232l-2.173-1.134a.847.847 0 00-.913.086c-.618.489-1.18 1.05-1.67 1.67a.844.844 0 00-.087.914l1.133 2.172a7.643 7.643 0 00-.232.564l-2.34.735a.843.843 0 00-.584.708c-.05.426-.074.812-.074 1.178 0 .366.024.752.074 1.178.038.33.267.608.584.707l2.34.735c.07.192.148.38.233.564l-1.134 2.173a.846.846 0 00.086.913c.489.618 1.05 1.18 1.67 1.67.26.207.62.24.914.087l2.172-1.133c.184.084.372.162.564.232l.735 2.34c.1.317.377.547.708.584.428.051.813.075 1.18.075.365 0 .751-.024 1.177-.074a.843.843 0 00.708-.584l.735-2.34c.191-.07.38-.148.564-.233l2.172 1.134c.295.153.652.12.914-.086.618-.489 1.18-1.05 1.67-1.67a.844.844 0 00.087-.914L43.175 15c.085-.184.163-.372.233-.564l2.34-.737zm-3.257-.745a.846.846 0 00-.555.562 5.94 5.94 0 01-.45 1.092.841.841 0 00-.005.79l1.07 2.052c-.2.222-.411.434-.633.633l-2.052-1.071a.844.844 0 00-.79.005c-.343.184-.71.336-1.091.45a.846.846 0 00-.563.556l-.695 2.214c-.308.018-.58.018-.89 0l-.695-2.214a.846.846 0 00-.562-.555 5.866 5.866 0 01-1.091-.45.843.843 0 00-.791-.006l-2.052 1.07a8.607 8.607 0 01-.633-.632l1.07-2.052a.844.844 0 00-.004-.79 5.94 5.94 0 01-.45-1.092.846.846 0 00-.556-.562l-2.214-.696a6.788 6.788 0 010-.889l2.214-.695a.846.846 0 00.555-.563c.115-.382.267-.75.45-1.091a.843.843 0 00.006-.79l-1.07-2.053c.2-.221.41-.433.632-.632l2.052 1.07c.247.13.544.127.79-.005.343-.184.71-.336 1.092-.45a.846.846 0 00.562-.555l.696-2.214c.308-.019.58-.019.889 0l.695 2.214a.846.846 0 00.563.555c.382.114.75.266 1.09.45a.843.843 0 00.791.005l2.052-1.07c.222.2.434.411.633.632l-1.07 2.052a.844.844 0 00.005.79c.184.344.336.71.45 1.092.08.268.289.478.555.563l2.214.695a6.793 6.793 0 010 .89l-2.214.695z" fill="#028BFC"/><path d="M51.69 29.501l-1.45-.515a6.808 6.808 0 00-.284-.689l.659-1.388a.84.84 0 00-.098-.88 8.494 8.494 0 00-1.45-1.452.844.844 0 00-.882-.098l-1.389.66a6.737 6.737 0 00-.688-.284l-.516-1.45a.846.846 0 00-.694-.555 7.774 7.774 0 00-2.047 0 .843.843 0 00-.694.555l-.515 1.45a6.855 6.855 0 00-.689.284l-1.388-.66a.845.845 0 00-.88.099c-.54.422-1.028.91-1.452 1.45a.845.845 0 00-.098.882l.66 1.389a6.726 6.726 0 00-.284.688l-1.45.516a.846.846 0 00-.555.693 8.268 8.268 0 00-.069 1.023c0 .314.022.648.068 1.023a.843.843 0 00.555.694l1.45.515c.082.235.177.465.284.689l-.659 1.388a.84.84 0 00.098.88c.422.54.91 1.029 1.45 1.452a.845.845 0 00.882.098l1.389-.659c.223.106.453.202.688.284l.516 1.45a.846.846 0 00.694.554c.375.047.71.07 1.023.07a8.47 8.47 0 001.023-.068.843.843 0 00.694-.555l.515-1.45c.235-.083.465-.177.69-.284l1.387.659c.288.137.63.1.88-.098a8.494 8.494 0 001.452-1.45.845.845 0 00.098-.882l-.659-1.389a6.75 6.75 0 00.284-.688l1.45-.516a.846.846 0 00.554-.694c.048-.375.07-.71.07-1.023a8.45 8.45 0 00-.068-1.024.844.844 0 00-.555-.694zm-1.073 2.026l-1.338.475a.844.844 0 00-.53.57c-.111.4-.269.782-.469 1.136a.846.846 0 00-.028.777l.606 1.277c-.14.153-.287.3-.44.44l-1.276-.606a.846.846 0 00-.777.027c-.355.201-.737.358-1.136.469a.847.847 0 00-.57.53l-.475 1.338c-.204.01-.412.01-.616 0l-.475-1.338a.844.844 0 00-.57-.53c-.4-.11-.783-.269-1.136-.469a.851.851 0 00-.777-.027l-1.277.605c-.154-.14-.3-.287-.44-.44l.606-1.276a.843.843 0 00-.028-.777 5.021 5.021 0 01-.468-1.136.847.847 0 00-.53-.57l-1.338-.475a4.689 4.689 0 01-.002-.616l1.338-.476a.84.84 0 00.53-.57 5.04 5.04 0 01.469-1.136.846.846 0 00.028-.777l-.606-1.277c.14-.153.287-.3.44-.44l1.276.607a.84.84 0 00.777-.028c.355-.201.737-.358 1.136-.468a.847.847 0 00.57-.531l.475-1.338c.204-.01.412-.01.616 0l.475 1.338a.844.844 0 00.57.53c.4.111.783.269 1.136.469a.84.84 0 00.777.028l1.277-.606c.154.14.3.287.44.44l-.606 1.276a.843.843 0 00.028.777c.2.354.357.737.468 1.136a.847.847 0 00.53.57l1.338.475a4.732 4.732 0 01.002.617z" fill="#00C9C9"/><path d="M18.563 44.719c5.117 0 9.28-4.164 9.28-9.282 0-5.117-4.163-9.28-9.28-9.28-5.118 0-9.282 4.163-9.282 9.28 0 5.118 4.164 9.282 9.281 9.282zm0-16.875c4.186 0 7.593 3.407 7.593 7.593 0 4.187-3.407 7.594-7.593 7.594-4.187 0-7.594-3.407-7.594-7.593 0-4.187 3.407-7.594 7.594-7.594z" fill="#028BFC"/><path d="M1.706 21.397l1.296 1.08a20.209 20.209 0 0115.56-7.29c.43 0 .859.025 1.287.052l-1.039 1.04 1.193 1.193 2.531-2.532a.843.843 0 000-1.193l-2.531-2.53-1.193 1.192 1.147 1.147c-.465-.03-.93-.056-1.394-.056a21.893 21.893 0 00-16.857 7.897z" fill="#00C9C9"/><path d="M36.281 7.594a4.224 4.224 0 00-4.218 4.218 4.223 4.223 0 004.218 4.22 4.223 4.223 0 004.219-4.22 4.224 4.224 0 00-4.219-4.218zm0 6.75a2.534 2.534 0 01-2.531-2.531 2.534 2.534 0 012.531-2.532 2.534 2.534 0 012.532 2.531 2.534 2.534 0 01-2.532 2.532z" fill="#028BFC"/><path d="M43.875 27.844a3.378 3.378 0 00-3.375 3.375 3.378 3.378 0 003.375 3.375 3.378 3.378 0 003.375-3.375 3.378 3.378 0 00-3.375-3.375zm0 5.062a1.69 1.69 0 01-1.688-1.687c0-.93.757-1.688 1.688-1.688.93 0 1.688.757 1.688 1.688a1.69 1.69 0 01-1.688 1.687zM51.634 4.236l-4.218-.844a.842.842 0 00-.994.662l-.843 4.218 1.654.332.455-2.271a12.66 12.66 0 011.25 5.48c0 2.909-.96 5.644-2.776 7.91l1.317 1.055a14.384 14.384 0 003.146-8.965c0-2.21-.51-4.389-1.481-6.355l2.16.432.33-1.654z" fill="#00C9C9"/></svg>