<svg width="54" height="54" fill="none" xmlns="http://www.w3.org/2000/svg"><path d="M31.219 45.563H29.53V34.13a.843.843 0 10-1.687 0v11.432H5.906V28.689h11.555a.844.844 0 100-1.688H5.063a.844.844 0 00-.844.844v17.718H2.53a.844.844 0 00-.844.844v1.688a4.219 4.219 0 004.22 4.218h21.937a4.22 4.22 0 004.218-4.218v-1.688a.844.844 0 00-.843-.843zm-.844 2.53a2.531 2.531 0 01-2.531 2.532H5.906a2.531 2.531 0 01-2.531-2.531v-.844h27v.844zM45.563 6.75h1.687a.844.844 0 100-1.688h-1.688a2.531 2.531 0 00-2.53 2.532v.843h-.844a.844.844 0 100 1.688h.843v2.531a.844.844 0 001.688 0v-2.531h.843a.844.844 0 100-1.688h-.843v-.843a.843.843 0 01.843-.844z" fill="#028BFC"/><path d="M49.781 1.688H39.656a2.531 2.531 0 00-2.531 2.53v5.907a.844.844 0 101.688 0V4.219a.844.844 0 01.843-.844h10.125a.844.844 0 01.844.844v10.125a.844.844 0 01-.844.844H39.656a.844.844 0 01-.843-.844V9.28a.844.844 0 00-1.688 0v5.063a2.531 2.531 0 002.531 2.531h10.125a2.531 2.531 0 002.532-2.531V4.219a2.531 2.531 0 00-2.532-2.532z" fill="#028BFC"/><path d="M41.344 35.438a3.376 3.376 0 106.751 0 3.376 3.376 0 00-6.751 0zm5.062 0a1.687 1.687 0 11-3.375 0 1.687 1.687 0 013.375 0z" fill="#FFC977"/><path d="M49.781 27.844H39.656a2.531 2.531 0 00-2.531 2.531V40.5a2.531 2.531 0 002.531 2.531h10.125a2.531 2.531 0 002.532-2.531v-1.688a.844.844 0 10-1.688 0V40.5a.844.844 0 01-.844.844H39.656a.844.844 0 01-.843-.844V30.375a.844.844 0 01.843-.844h10.125a.844.844 0 01.844.844v9.281a.844.844 0 001.688 0v-9.281a2.531 2.531 0 00-2.532-2.531zM20.647 11.686a.844.844 0 00.826.034l5.063-2.532a.844.844 0 000-1.502l-5.063-2.53a.844.844 0 00-1.223.75v5.063a.844.844 0 00.397.717zm1.29-4.413l2.33 1.164-2.33 1.165V7.273z" fill="#FFC977"/><path d="M22.781 16.031a7.594 7.594 0 100-15.187 7.594 7.594 0 000 15.187zm0-13.5a5.906 5.906 0 110 11.813 5.906 5.906 0 010-11.813z" fill="#FFC977"/><path d="M31.219 19.406a.844.844 0 00.675-.337l2.531-3.375a.844.844 0 00-1.35-1.013l-2.531 3.375a.843.843 0 00.675 1.35zM33.075 22.444a.845.845 0 001.181.169l3.375-2.532a.844.844 0 10-1.012-1.35l-3.375 2.531a.844.844 0 00-.169 1.182zM41.343 24.3a.845.845 0 00-1.012-.675l-4.219.844a.848.848 0 00.169 1.687h.169l4.218-.843a.844.844 0 00.675-1.013zM2.531 24.469h10.125a.844.844 0 00.844-.844v-13.5a.844.844 0 00-.844-.844H2.531a.844.844 0 00-.844.844v13.5a.844.844 0 00.844.844zm.844-13.5h8.438V22.78H3.374V10.97z" fill="#028BFC"/><path d="M9.281 12.656H7.594a.844.844 0 100 1.688H9.28a.844.844 0 100-1.688zM9.281 16.031H5.906a.844.844 0 100 1.688h3.375a.844.844 0 100-1.688zM9.281 19.406H5.906a.844.844 0 100 1.688h3.375a.844.844 0 100-1.688zM29 21.58a.846.846 0 10-1.469.843l5.198 9.074-13.5 5.063h-.127l-2.194 1.265-1.46.844a1.687 1.687 0 01-2.303-.616l-1.687-2.92a1.688 1.688 0 01.633-2.227l2.919-1.687 3.691 5.974a.843.843 0 00.734.422.844.844 0 00.735-1.266l-3.76-6.083L27 21.532l.346.599a.847.847 0 001.468-.844l-.844-1.46a.845.845 0 00-.582-.405.843.843 0 00-.692.178l-11.813 9.736-3.594 2.076a3.375 3.375 0 00-1.552 3.822l-.844.481a2.532 2.532 0 102.531 4.388l.844-.481a3.274 3.274 0 002.362.995 3.325 3.325 0 001.688-.455l.734-.422 1.687 2.928a2.53 2.53 0 004.632-.61 2.531 2.531 0 00-.253-1.922l-1.535-2.674 12.656-4.75a.844.844 0 00.439-1.207l-5.679-9.927zM10.546 38.635a.844.844 0 01-.642.084.844.844 0 01-.514-.388.844.844 0 01.312-1.156l.734-.422.844 1.46-.735.422zm11.103 2.362a.845.845 0 01.085.641.844.844 0 01-.397.506.844.844 0 01-1.147-.303l-1.688-2.928 1.4-.802h.068l1.68 2.886z" fill="#028BFC"/></svg>