<svg width="54" height="54" fill="none" xmlns="http://www.w3.org/2000/svg"><path d="M51.387 17.42h-.87V6.967H8.71V0H4.355A4.36 4.36 0 000 4.355v33.097a4.36 4.36 0 004.355 4.354H27.87v9.581A2.616 2.616 0 0030.484 54h20.903A2.616 2.616 0 0054 51.387V20.032a2.616 2.616 0 00-2.613-2.613zM1.742 4.354a2.616 2.616 0 012.613-2.613h2.613v31.355H4.355c-.98 0-1.885.325-2.613.872V4.355zm2.613 35.71a2.616 2.616 0 01-2.613-2.613 2.616 2.616 0 012.613-2.613H8.71V8.709h40.064v8.71h-18.02c-1.463-4.134-5.414-6.967-9.85-6.967-5.764 0-10.452 4.688-10.452 10.451 0 5.764 4.688 10.452 10.451 10.452 2.596 0 5.07-.975 6.968-2.673v11.383H4.355zM27.87 20.031h-6.097v-7.79a8.74 8.74 0 017.287 5.604 2.608 2.608 0 00-1.19 2.186zm-7.839 9.537c-4.395-.439-7.838-4.158-7.838-8.666s3.443-8.227 7.838-8.665v17.33zm1.742-7.795h6.097v4.336a8.715 8.715 0 01-6.097 3.45v-7.786zm30.484 29.613c0 .48-.391.871-.87.871H30.483a.873.873 0 01-.871-.87V20.031c0-.48.391-.87.87-.87h20.904c.48 0 .871.39.871.87v31.355z" fill="#028BFC"/><path d="M31.355 29.613h19.161v-8.71H31.355v8.71zm1.742-6.968h15.677v5.226H33.097v-5.226zM45.29 50.516h5.226V45.29h-5.225v5.226zm1.742-3.484h1.742v1.742h-1.742v-1.742zM38.323 50.516h5.226V45.29h-5.226v5.226zm1.742-3.484h1.742v1.742h-1.742v-1.742zM31.355 50.516h5.226V45.29h-5.226v5.226zm1.742-3.484h1.742v1.742h-1.742v-1.742zM45.29 43.549h5.226v-5.226h-5.225v5.226zm1.742-3.484h1.742v1.742h-1.742v-1.742zM38.323 43.549h5.226v-5.226h-5.226v5.226zm1.742-3.484h1.742v1.742h-1.742v-1.742zM31.355 43.549h5.226v-5.226h-5.226v5.226zm1.742-3.484h1.742v1.742h-1.742v-1.742zM45.29 36.58h5.226v-5.225h-5.225v5.226zm1.742-3.483h1.742v1.742h-1.742v-1.742zM38.323 36.58h5.226v-5.225h-5.226v5.226zm1.742-3.483h1.742v1.742h-1.742v-1.742zM31.355 36.58h5.226v-5.225h-5.226v5.226zm1.742-3.483h1.742v1.742h-1.742v-1.742zM34.839 10.452h12.193v1.742H34.84v-1.742zM33.097 13.936h13.935v1.742H33.097v-1.742z" fill="#00C9C9"/></svg>