<svg width="54" height="54" fill="none" xmlns="http://www.w3.org/2000/svg"><g clip-path="url(#clip0)"><path d="M45.45 33.75H11.7C5.238 33.75 0 28.512 0 22.05c0-6.462 5.238-11.7 11.7-11.7.077 0 .152 0 .228.002a13.499 13.499 0 0124.746 0 10.366 10.366 0 019.308 6.314 8.55 8.55 0 01-.532 17.084zM11.7 12.15c-5.468 0-9.9 4.432-9.9 9.9 0 5.467 4.432 9.9 9.9 9.9h33.75a6.75 6.75 0 100-13.5h-.09a.9.9 0 01-.849-.6 8.54 8.54 0 00-8.376-5.694.908.908 0 01-.904-.577 11.698 11.698 0 00-21.87.025.898.898 0 01-.932.578 7.24 7.24 0 00-.729-.032z" fill="#0485F4"/><path d="M6.093 27.45a.897.897 0 01-.7-.333A8.077 8.077 0 018.247 14.73a.9.9 0 01.77 1.627A6.327 6.327 0 005.4 22.051a6.186 6.186 0 001.392 3.933.9.9 0 01-.699 1.466z" fill="#0485F4"/><path d="M15.3 28.35a.9.9 0 01-.854-1.185l3.6-10.8a.9.9 0 111.708.57l-3.6 10.8a.9.9 0 01-.854.615z" fill="#00C9C9"/><path d="M22.5 28.35a.9.9 0 01-.854-.615l-3.6-10.8a.9.9 0 011.708-.57l3.6 10.8a.901.901 0 01-.854 1.185z" fill="#00C9C9"/><path d="M20.997 23.85h-4.194a.9.9 0 010-1.8h4.194a.9.9 0 010 1.8zM25.2 28.35a.9.9 0 01-.9-.9v-10.8a.9.9 0 011.8 0v10.8a.9.9 0 01-.9.9z" fill="#00C9C9"/><path d="M28.8 22.95h-3.6a.9.9 0 01-.9-.9v-5.4a.9.9 0 01.9-.9h3.6a3.6 3.6 0 110 7.2zm-2.7-1.8h2.7a1.8 1.8 0 000-3.6h-2.7v3.6zM36 28.35a.9.9 0 01-.9-.9v-10.8a.9.9 0 011.8 0v10.8a.9.9 0 01-.9.9z" fill="#00C9C9"/><path d="M38.7 17.55h-5.4a.9.9 0 010-1.8h5.4a.9.9 0 010 1.8zM38.7 28.35h-5.4a.9.9 0 010-1.8h5.4a.9.9 0 010 1.8z" fill="#00C9C9"/><path d="M21.642 51.75c-.227 0-.452-.046-.66-.137l-5.63-2.334a1.677 1.677 0 01-.914-.918c-.167-.41-.16-.871.02-1.276l1.341-3.242a18.348 18.348 0 01-3.5-3.502l-3.27 1.351c-.408.17-.867.17-1.274-.002a1.663 1.663 0 01-.9-.896l-2.332-5.657a1.657 1.657 0 01.873-2.165l3.19-1.314a.9.9 0 11.685 1.665l-3.034 1.25 2.229 5.404 3.799-1.569a.9.9 0 011.08.315 16.57 16.57 0 004.073 4.072.9.9 0 01.315 1.082l-1.568 3.79 5.401 2.24 1.57-3.793a.9.9 0 01.988-.543c1.902.34 3.849.336 5.75-.008a.902.902 0 01.99.54l1.578 3.8 5.393-2.236-1.569-3.8a.9.9 0 01.32-1.083 16.39 16.39 0 004.07-4.062.898.898 0 011.08-.314l3.797 1.572 2.241-5.404-2.166-.902a.9.9 0 11.665-1.673l2.313.963c.411.168.737.496.904.908.166.408.165.865-.003 1.272l-2.342 5.647a1.661 1.661 0 01-2.196.896L41.7 40.342a18.15 18.15 0 01-3.499 3.495l1.35 3.268c.173.4.177.853.01 1.256-.169.417-.499.748-.915.92l-5.64 2.337a1.658 1.658 0 01-2.177-.905l-1.354-3.263c-1.641.229-3.306.231-4.947.007l-1.349 3.26a1.665 1.665 0 01-1.537 1.034zm-.127-1.719v.001zm.168-.076zm16.209-2.15l.002.007-.002-.007zm-21.778-.015v.002-.002zm21.845-.174zm-21.922-.001zm29.445-7.51zM8.338 40.03h-.001.001zm37.311-.002h.001zm2.249-5.4h.001-.001zm-41.713-.182v.001-.001z" fill="#0485F4"/><path d="M27 41.85a13.57 13.57 0 01-12.603-8.68.9.9 0 111.681-.642 11.691 11.691 0 0021.844 0 .9.9 0 111.682.643A13.57 13.57 0 0127 41.849zM17.1 13.05a.9.9 0 01-.854-1.185C18.23 5.92 23.19 5.85 23.4 5.85a.9.9 0 11.004 1.8c-.174.003-3.894.115-5.45 4.785a.9.9 0 01-.854.616z" fill="#0485F4"/></g><defs><clipPath id="clip0"><path fill="#fff" d="M0 0h54v54H0z"/></clipPath></defs></svg>