<svg width="54" height="54" fill="none" xmlns="http://www.w3.org/2000/svg"><path fill-rule="evenodd" clip-rule="evenodd" d="M54 20.903v-7.838a4.36 4.36 0 00-4.355-4.355H24.94c-.15-.315-.31-.627-.486-.929l1.011-2.023-3.35-3.351-2.024 1.011a12.05 12.05 0 00-3.07-1.276L16.306 0h-4.74l-.714 2.142a12.02 12.02 0 00-3.07 1.276L5.757 2.407l-3.35 3.35L3.418 7.78a12.05 12.05 0 00-1.276 3.07L0 11.566v4.74l2.142.714a12.02 12.02 0 001.276 3.07l-1.011 2.025 3.35 3.351 2.024-1.012c1.016.598 2.101 1.04 3.237 1.32l1.175 1.579V45.29H1.742v4.355A4.36 4.36 0 006.097 54h36.58a4.36 4.36 0 004.355-4.355v-6.097H45.29v6.097a2.616 2.616 0 01-2.613 2.613 2.616 2.616 0 01-2.612-2.613V45.29h-26.13V13.065a2.616 2.616 0 012.613-2.613h29.636a4.311 4.311 0 00-.894 2.613v9.58h1.742v-1.742H54zm-1.742-1.742v-6.097a2.616 2.616 0 00-2.613-2.612 2.616 2.616 0 00-2.613 2.613v6.096h5.226zm-40.547 4.983l.318.07.165.222V22.47a8.696 8.696 0 01-6.968-8.534c0-4.803 3.907-8.71 8.71-8.71a8.695 8.695 0 016.949 3.485h2.083l-.076-.135-.03-.053a4.712 4.712 0 00-.135-.227l-.269-.417.89-1.778-1.576-1.576-1.778.89-.417-.27a10.375 10.375 0 00-3.415-1.418l-.485-.105-.627-1.88h-2.228l-.627 1.88-.484.105c-1.211.263-2.36.741-3.415 1.419l-.417.269-1.778-.89-1.576 1.576.89 1.776-.27.417a10.375 10.375 0 00-1.418 3.415l-.105.485-1.88.627v2.228l1.88.627.105.484c.263 1.211.741 2.36 1.419 3.415l.269.417-.89 1.778 1.576 1.576 1.778-.89.417.27a10.376 10.376 0 003.415 1.418zm.482-7.198v-3.882c0-.91.284-1.755.764-2.456-1.443.426-2.505 1.748-2.505 3.327 0 1.266.692 2.4 1.742 3.011zm1.742-8.236c.47 0 .93.077 1.38.2.393-.117.801-.2 1.233-.2h1.992a6.962 6.962 0 00-4.604-1.742 6.976 6.976 0 00-6.968 6.967 6.952 6.952 0 005.226 6.742V18.85c-2.053-.73-3.484-2.686-3.484-4.915a5.231 5.231 0 015.225-5.225zM3.484 49.645a2.616 2.616 0 002.613 2.613h33.098a4.332 4.332 0 01-.872-2.613v-2.613H3.483v2.613z" fill="#028BFC"/><path fill-rule="evenodd" clip-rule="evenodd" d="M47.032 43.548H54V22.645H26.129v20.903H47.032zM27.871 27.871v13.936h24.387V27.87H27.87zm0-1.742h24.387v-1.742H27.87v1.742z" fill="#00C9C9"/><path d="M36.836 30.739l-4.1 4.1 4.1 4.1 1.232-1.232-2.868-2.868 2.868-2.868-1.232-1.232zM42.062 31.97l2.868 2.869-2.868 2.868 1.231 1.231 4.1-4.1-4.1-4.099-1.231 1.232zM38.335 39.924l1.739-10.452 1.718.286-1.739 10.452-1.718-.286z" fill="#00C9C9"/><path d="M15.678 12.194h1.742v1.741h-1.742v-1.741zM19.161 12.194h24.387v1.741H19.161v-1.741zM15.678 15.678h27.87v1.741h-27.87v-1.742zM15.678 19.161h10.451v1.742H15.678v-1.742zM27.871 19.161h15.677v1.742H27.871v-1.742zM15.678 22.645h8.71v1.742h-8.71v-1.742zM15.678 26.13h8.71v1.741h-8.71V26.13zM15.678 29.613h8.71v1.742h-8.71v-1.742z" fill="#028BFC"/></svg>