<svg width="54" height="54" fill="none" xmlns="http://www.w3.org/2000/svg"><path d="M30.375 22.781H54m-30.375 0H0m43.875 11.813H54m-16.875 0H0m27 11.812h27m-33.75 0H0M13.5 10.97H54m-47.25 0H0" stroke="#028BFC" stroke-width="2"/><path d="M30.375 22.781a3.375 3.375 0 11-6.75 0 3.375 3.375 0 016.75 0zM43.875 34.594a3.375 3.375 0 11-6.75 0 3.375 3.375 0 016.75 0zM27 46.406a3.375 3.375 0 11-6.75 0 3.375 3.375 0 016.75 0zM13.5 10.969a3.375 3.375 0 11-6.75 0 3.375 3.375 0 016.75 0z" stroke="#FFC977" stroke-width="2"/></svg>