<svg width="52" height="52" fill="none" xmlns="http://www.w3.org/2000/svg"><path d="M32.581 15.369a.844.844 0 00-.675-.338H20.094a.844.844 0 00-.675.338l-2.532 3.375a.844.844 0 00-.168.506v14.344a1.687 1.687 0 001.687 1.687h15.188a1.687 1.687 0 001.687-1.687V19.25c0-.183-.059-.36-.169-.506l-2.53-3.375zm-12.065 1.35h10.968l1.266 1.687h-13.5l1.266-1.687zm2.109 5.062h-4.219v-1.687h4.219v1.687zm1.688-1.687h3.375v4.33l-1.22-.814a.844.844 0 00-.936 0l-1.22.814v-4.33zm5.062 0h4.219v1.687h-4.219v-1.687zm-10.969 13.5V23.469h4.219V26a.844.844 0 001.312.702L26 25.325l2.063 1.375a.844.844 0 001.312-.7v-2.531h4.219v10.125H18.406z" fill="#00C9C9"/><path d="M48.781 23.469a2.53 2.53 0 00-2.376 1.687h-4.417a15.921 15.921 0 00-3.332-8.96v-5.384h5.218a2.532 2.532 0 100-1.687h-6.062a.844.844 0 00-.843.844v4.372a16 16 0 00-6.75-3.79V5.75h5.217a2.531 2.531 0 100-1.687h-6.061a.844.844 0 00-.844.843v5.283a14.656 14.656 0 00-5.063 0v-6.97a.844.844 0 00-.843-.844h-6.062a2.53 2.53 0 100 1.688h5.218v6.488a16 16 0 00-6.75 3.79V9.97a.844.844 0 00-.844-.844H8.126a2.531 2.531 0 100 1.688h5.218v5.383a15.921 15.921 0 00-3.332 8.96H5.593a2.531 2.531 0 100 1.688h4.417a15.921 15.921 0 003.333 8.96v5.383H8.126a2.531 2.531 0 100 1.688h6.061a.844.844 0 00.844-.844V37.66a16 16 0 006.75 3.79v6.489h-5.218a2.531 2.531 0 100 1.687h6.062a.844.844 0 00.843-.844v-6.97c1.675.294 3.388.294 5.063 0v5.283a.844.844 0 00.844.843h6.061a2.532 2.532 0 100-1.687h-5.218v-4.8a16 16 0 006.75-3.791v4.372a.844.844 0 00.844.844h6.062a2.532 2.532 0 100-1.688h-5.218v-5.383a15.921 15.921 0 003.332-8.96h4.417a2.527 2.527 0 102.376-3.375zM46.25 9.125a.844.844 0 110 1.687.844.844 0 010-1.687zm-8.438-5.062a.844.844 0 110 1.687.844.844 0 010-1.687zm-23.625 0a.844.844 0 110-1.688.844.844 0 010 1.688zm-8.437 6.75a.844.844 0 110-1.688.844.844 0 010 1.688zm0 32.062a.844.844 0 110-1.688.844.844 0 010 1.688zm8.437 6.75a.844.844 0 110-1.687.844.844 0 010 1.687zm23.625-3.375a.844.844 0 110 1.688.844.844 0 010-1.688zm8.438-5.063a.844.844 0 110 1.688.844.844 0 010-1.688zM3.218 26.845a.844.844 0 110-1.688.844.844 0 010 1.688zM26 40.344A14.344 14.344 0 1140.343 26 14.36 14.36 0 0126 40.344zm22.781-13.5a.844.844 0 110-1.688.844.844 0 010 1.688z" fill="#028BFC"/></svg>