<svg width="54" height="54" fill="none" xmlns="http://www.w3.org/2000/svg"><path d="M52.068 11.213l-9.281-9.28a.872.872 0 00-.6-.246H21.095a2.539 2.539 0 00-2.531 2.532v5.104a17.696 17.696 0 000 35.354v5.104a2.539 2.539 0 002.531 2.532h28.688a2.539 2.539 0 002.53-2.532V11.813a.872.872 0 00-.244-.6zm-9.036-6.648l6.404 6.404h-5.56a.844.844 0 01-.844-.844v-5.56zM3.375 27a16.05 16.05 0 0115.188-16.006v15.66L7.51 37.707A15.93 15.93 0 013.375 27zM8.7 38.897l11.053-11.053h15.66A15.999 15.999 0 018.7 38.897zM50.625 49.78a.844.844 0 01-.843.844H21.094a.844.844 0 01-.844-.844v-5.104A17.73 17.73 0 0037.125 27a.843.843 0 00-.843-.844H20.25V4.22a.844.844 0 01.844-.844h20.25v6.75a2.539 2.539 0 002.531 2.531h6.75v37.125z" fill="#028BFC"/><path d="M22.782 5.906a.844.844 0 00-.844.844v16.875a.844.844 0 00.844.844h16.875a.844.844 0 00.844-.844A17.738 17.738 0 0022.78 5.906zm.843 16.875V7.62a16.046 16.046 0 0115.163 15.162H23.626zM41.344 33.75a7.594 7.594 0 107.594 7.594 7.606 7.606 0 00-7.594-7.594zm0 13.5a5.906 5.906 0 115.907-5.906 5.913 5.913 0 01-5.907 5.906z" fill="#C9BEA4"/><path d="M39.657 42.682l-1.935-1.934-1.193 1.193 2.531 2.53a.844.844 0 001.193 0l5.063-5.062-1.193-1.193-4.466 4.466z" fill="#C9BEA4"/><path d="M42.188 16.031h6.75v1.688h-6.75V16.03zM42.188 21.094h6.75v1.687h-6.75v-1.687zM42.188 26.156h6.75v1.688h-6.75v-1.688z" fill="#028BFC"/></svg>