<svg width="50" height="50" fill="none" xmlns="http://www.w3.org/2000/svg"><path fill-rule="evenodd" clip-rule="evenodd" d="M47.5 50h-10a2.5 2.5 0 01-2.5-2.5v-5a4.171 4.171 0 014.167-4.167h.196l.176.084a6.644 6.644 0 005.922 0l.176-.084h.196A4.171 4.171 0 0150 42.5v5a2.5 2.5 0 01-2.5 2.5zm.833-7.5a2.5 2.5 0 00-2.322-2.493 8.34 8.34 0 01-7.022 0 2.5 2.5 0 00-2.322 2.493v5c0 .46.373.833.833.833h10c.46 0 .833-.373.833-.833v-5zm-5.833-5a5 5 0 110-10 5 5 0 010 10zm0-8.333a3.333 3.333 0 100 6.667 3.333 3.333 0 000-6.667zM30 22.5H20a2.5 2.5 0 01-2.5-2.5v-5a4.171 4.171 0 014.167-4.167h.196l.176.088a6.643 6.643 0 005.922 0l.176-.088h.196A4.171 4.171 0 0132.5 15v5a2.5 2.5 0 01-2.5 2.5zm.833-7.5a2.5 2.5 0 00-2.322-2.493 8.34 8.34 0 01-7.022 0A2.5 2.5 0 0019.167 15v5c0 .46.373.833.833.833h10c.46 0 .833-.373.833-.833v-5zM25 10a5 5 0 110-10 5 5 0 010 10zm0-8.333a3.333 3.333 0 100 6.667 3.333 3.333 0 000-6.667zM12.5 50h-10A2.5 2.5 0 010 47.5v-5a4.171 4.171 0 014.167-4.167h.196l.176.084a6.644 6.644 0 005.922 0l.176-.084h.196A4.171 4.171 0 0115 42.5v5a2.5 2.5 0 01-2.5 2.5zm.833-7.5a2.5 2.5 0 00-2.322-2.493 8.34 8.34 0 01-7.022 0A2.5 2.5 0 001.667 42.5v5c0 .46.373.833.833.833h10c.46 0 .833-.373.833-.833v-5zm-5.833-5a5 5 0 110-10 5 5 0 010 10zm0-8.333a3.333 3.333 0 100 6.667 3.333 3.333 0 000-6.667z" fill="#00C9C9"/><path fill-rule="evenodd" clip-rule="evenodd" d="M47.258 23.089l-2.5 2.5-.002.002a.833.833 0 01-1.178-.002l-2.5-2.5a.833.833 0 011.178-1.178l.94.94A18.306 18.306 0 0032.173 8.123a.834.834 0 01.654-1.533 19.97 19.97 0 0112.071 16.5l1.18-1.18a.834.834 0 011.18 1.179zM32.172 41.877a.834.834 0 011.094.44v.003a.833.833 0 01-.442 1.092 20.06 20.06 0 01-13.6.74l.68 1.297a.834.834 0 11-1.48.772l-1.666-3.19c-.009-.011-.004-.024-.009-.036a2.561 2.561 0 01-.083-.334.838.838 0 01.063-.344.812.812 0 01.204-.283.759.759 0 01.083-.053.825.825 0 01.216-.119c.011-.004.02-.018.033-.018l3.333-.977a.834.834 0 01.468 1.6l-.78.229a18.486 18.486 0 0011.886-.819zM18.257 7.691c-.007.008-.007.017-.007.026l-1.667 3.477a.834.834 0 01-1.11.39.834.834 0 01-.39-1.112l.603-1.259A18.305 18.305 0 006.666 25 .834.834 0 015 25 19.969 19.969 0 0115.547 7.38l-1.726-.788a.834.834 0 01.691-1.515l3.334 1.522a.74.74 0 01.093.068c.058.03.113.067.163.11a.828.828 0 01.095.138c.029.036.056.074.078.115 0 .007-.003.012 0 .02.003.009.013.014.013.022a.77.77 0 01.021.144.809.809 0 01.024.16.865.865 0 01-.031.138.816.816 0 01-.045.177z" fill="#028BFC"/></svg>