<svg width="54" height="54" fill="none" xmlns="http://www.w3.org/2000/svg"><g clip-path="url(#clip0)"><path fill-rule="evenodd" clip-rule="evenodd" d="M49.5 7.2h-5.29L42.89 9h6.61a2.7 2.7 0 012.7 2.7v27.9H1.8V11.7A2.7 2.7 0 014.5 9h13.81l-1.32-1.8H4.5A4.505 4.505 0 000 11.7v30.6a4.505 4.505 0 004.5 4.5h17.747l-1.52 6.082A.9.9 0 0021.6 54h10.8a.9.9 0 00.873-1.118l-1.52-6.082H49.5a4.505 4.505 0 004.5-4.5V11.7a4.505 4.505 0 00-4.5-4.5zM24.103 46.8l-1.35 5.4h8.494l-1.35-5.4h-5.794zM49.5 45a2.7 2.7 0 002.7-2.7v-.9H1.8v.9A2.7 2.7 0 004.5 45h45z" fill="#028BFC"/><path fill-rule="evenodd" clip-rule="evenodd" d="M44.21 7.2c-.087-.394-.103-.397-.245-.545l-3.82-3.82a.926.926 0 00-1.272 0l-1.62 1.625A13.412 13.412 0 0034.2 3.193V.9a.9.9 0 00-.9-.9h-5.4a.9.9 0 00-.9.9v2.293a13.41 13.41 0 00-3.048 1.267l-1.62-1.625a.926.926 0 00-1.273 0l-3.823 3.82a.89.89 0 00-.245.545c0 .235.88 1.298 1.319 1.8l.55.55a13.38 13.38 0 00-1.266 3.05H15.3a.9.9 0 00-.9.9V18h-.9a.9.9 0 00-.9.9v1.748a8.065 8.065 0 00-.878.51l-1.516-.876a.9.9 0 00-1.229.33l-2.7 4.68a.9.9 0 00.33 1.23l1.512.873a7.177 7.177 0 000 1.017l-1.513.874a.9.9 0 00-.329 1.224l2.7 4.68a.9.9 0 001.23.33l1.515-.875c.282.188.575.358.878.509V36.9a.9.9 0 00.9.9h5.4a.9.9 0 00.9-.9v-1.748c.304-.151.597-.321.879-.51l1.515.876a.9.9 0 001.23-.33l2.7-4.68a.9.9 0 00-.33-1.23l-1.512-.873c.007-.1.007-.19.01-.286.86.46 1.768.825 2.708 1.088V31.5a.9.9 0 00.9.9h5.4a.9.9 0 00.9-.9v-2.293a13.413 13.413 0 003.049-1.267l1.62 1.625a.926.926 0 001.272 0l3.819-3.82a.9.9 0 000-1.272l-1.62-1.62a13.39 13.39 0 001.267-3.053H45.9a.9.9 0 00.9-.9v-5.4a.9.9 0 00-.9-.9h-2.293a13.39 13.39 0 00-1.267-3.05l.55-.55s1.407-1.406 1.32-1.8zm-25.065.09l1.487 1.487c.3.299.35.767.121 1.123a11.579 11.579 0 00-1.576 3.793.9.9 0 01-.88.707H16.2V18h2.7a.9.9 0 01.9.9v1.748c.304.15.597.32.879.508l1.515-.874a.9.9 0 011.23.329l2.7 4.68a.9.9 0 01-.33 1.23l-.316.18c.831.411 1.71.721 2.615.923a.9.9 0 01.707.879V30.6h3.6v-2.097a.9.9 0 01.708-.88 11.611 11.611 0 003.792-1.576.9.9 0 011.125.121l1.485 1.488 2.546-2.546-1.487-1.488a.9.9 0 01-.122-1.122 11.583 11.583 0 001.577-3.793.9.9 0 01.88-.707H45v-3.6h-2.097a.9.9 0 01-.879-.707A11.581 11.581 0 0040.447 9.9a.9.9 0 01.123-1.123l1.486-1.486-2.546-2.547-1.486 1.488a.9.9 0 01-1.124.121 11.611 11.611 0 00-3.792-1.577.9.9 0 01-.708-.879V1.8h-3.6v2.097a.9.9 0 01-.707.88A11.61 11.61 0 0024.3 6.352a.9.9 0 01-1.124-.121L21.69 4.744 19.145 7.29zm3.287 21.484a5.605 5.605 0 000-1.746.9.9 0 01.442-.9l1.241-.72-1.8-3.116-1.24.715a.9.9 0 01-1.004-.07 6.342 6.342 0 00-1.509-.874.9.9 0 01-.562-.835V19.8h-3.6v1.428a.9.9 0 01-.561.833 6.34 6.34 0 00-1.51.874.9.9 0 01-1.003.07l-1.24-.715-1.8 3.116 1.24.72a.9.9 0 01.443.9 5.603 5.603 0 000 1.746.9.9 0 01-.442.9l-1.241.72 1.8 3.116 1.24-.715a.9.9 0 011.003.07c.46.36.969.654 1.51.874a.9.9 0 01.561.835V36H18v-1.426a.9.9 0 01.562-.835 6.342 6.342 0 001.51-.874.9.9 0 011.003-.07l1.24.715 1.8-3.116-1.241-.72a.9.9 0 01-.442-.9z" fill="#FFC977"/><path d="M30.6 9a7.2 7.2 0 00-7.2 7.2 7.208 7.208 0 007.2 7.2 7.2 7.2 0 000-14.4zm0 12.6a5.4 5.4 0 110-10.8 5.4 5.4 0 010 10.8zM16.2 23.4a4.5 4.5 0 100 9 4.5 4.5 0 000-9zm0 7.2a2.7 2.7 0 110-5.4 2.7 2.7 0 010 5.4z" fill="#FFC977"/></g><defs><clipPath id="clip0"><path fill="#fff" d="M0 0h54v54H0z"/></clipPath></defs></svg>