<svg width="54" height="54" fill="none" xmlns="http://www.w3.org/2000/svg"><path fill-rule="evenodd" clip-rule="evenodd" d="M53.656 13.98L34.944.393a.833.833 0 00-1.165.185l-8.16 11.239-1.123-7.08a.834.834 0 00-.954-.693L.703 7.668a.834.834 0 00-.693.954l4.46 28.109a.834.834 0 00.955.693l5.248-.833v-1.688l-4.686.743L1.788 9.184 22.98 5.822l1.254 7.903-1.829 2.518h2.06l1.32-1.817L34.64 2.233l17.362 12.606-11.655 16.052a10.58 10.58 0 00-4.881-6.125l-1.668-.776a10.517 10.517 0 00-3.613-.631c-.117.021-.376.057-.698.102-.497.069-1.143.158-1.642.248-.606.109-1.647.566-2.522.95-.315.139-.608.267-.852.367a10.646 10.646 0 00-4.31 5.448l-.434 1.667a10.653 10.653 0 00.471 5.448l.776 1.668a10.575 10.575 0 009.21 5.336c1.252 0 2.462-.212 3.614-.63l1.668-.777a10.615 10.615 0 001.614-1.137l2.077 2.078-.668.668a.834.834 0 000 1.18l7.547 7.546a.83.83 0 001.18 0l2.515-2.515a.834.834 0 000-1.18l-7.547-7.546a.834.834 0 00-1.18 0l-.667.668-2.078-2.078a10.538 10.538 0 002.51-7.722l13.073-18.004a.833.833 0 00-.185-1.164zm-21.103 2.263h-2.789a.833.833 0 011.137-1.2l1.652 1.2zm2.912 4.175v-2.061l5.512 4.003a.834.834 0 01-.98 1.349l-4.532-3.291zm6.128 23.63l6.368 6.368-1.337 1.337-6.367-6.368 1.336-1.336zm-5.08-3.744a8.963 8.963 0 01-2.262 1.645 8.852 8.852 0 01-4.067.976 8.92 8.92 0 01-7.974-4.882 8.855 8.855 0 01-.976-4.068c0-.826.114-1.647.339-2.44a8.873 8.873 0 011.75-3.306 8.934 8.934 0 016.86-3.203c1.432 0 2.8.329 4.068.977a8.92 8.92 0 014.83 6.999v.001c.035.325.052.652.052.972 0 2.391-.93 4.638-2.62 6.329zm-25.84-10.917l-1.093.173a.834.834 0 01-.261-1.647l1.354-.215v1.689zm0-7.204l-2.208.35a.834.834 0 01-.261-1.647l2.469-.392v1.689z" fill="#028BFC"/><path d="M29.488 23.382a.841.841 0 00-.194-.024H16.843a.834.834 0 000 1.668h7.627c.858-.377 2.818-1.17 3.795-1.317.978-.148 1.223-.28 1.223-.327zM20.16 30.474h-3.317a.834.834 0 000 1.667h2.883l.434-1.667zM20.197 37.589h-3.354a.834.834 0 000 1.668h4.13l-.776-1.668z" fill="#00C9C9"/><path d="M10.673 36.59v8.947c0 .46.373.834.834.834H34.63c.46 0 .834-.373.834-.834v-2.35l-1.668.775v.742H12.341V17.91H33.796V23.99l1.668.776v-7.689a.834.834 0 00-.834-.834H11.506a.834.834 0 00-.833.834V36.59z" fill="#00C9C9"/></svg>