<svg width="54" height="54" fill="none" xmlns="http://www.w3.org/2000/svg"><path d="M50.78 48.052l-2.685-2.685a.739.739 0 00-1.044 1.044l1.424 1.424H5.165V4.525L6.59 5.948a.738.738 0 101.044-1.044L4.948 2.22a.738.738 0 00-1.044 0L1.22 4.905a.738.738 0 001.044 1.043l1.425-1.424v44.049a.738.738 0 00.738.738h44.048l-1.425 1.425a.739.739 0 101.045 1.044l2.684-2.685a.739.739 0 000-1.044z" fill="#028BFC"/><path d="M9.205 33.222a.78.78 0 00.131-.011C17.203 31.8 37.337 19.633 44.984 6.787l.444 1.859a.738.738 0 101.434-.343l-.88-3.693a.74.74 0 00-.89-.548l-3.694.88a.738.738 0 10.343 1.437l2.054-.49c-7.49 12.766-27.855 24.637-34.72 25.867a.738.738 0 00.13 1.465v.001z" fill="#028BFC"/><path d="M13.484 35.543a.738.738 0 00-.738.738v7.94a.738.738 0 00.738.739h3.797a.739.739 0 00.738-.739v-7.94a.738.738 0 00-.738-.738h-3.797zm3.059 7.94h-2.32V37.02h2.32v6.463zM22.241 30.48a.738.738 0 00-.738.739V44.22a.738.738 0 00.738.739h3.797a.738.738 0 00.738-.739V31.22a.738.738 0 00-.738-.738h-3.797zM25.3 43.484h-2.32V31.957h2.32v11.526zM30.999 25.418a.739.739 0 00-.738.738v18.066a.738.738 0 00.738.738h3.797a.739.739 0 00.738-.739V26.156a.738.738 0 00-.738-.738h-3.797zm3.058 18.065h-2.32V26.895h2.32v16.588zM39.755 20.356a.739.739 0 00-.738.738V44.22a.74.74 0 00.738.739h3.797a.738.738 0 00.738-.739V21.095a.738.738 0 00-.738-.738h-3.797zm3.059 23.127h-2.32v-21.65h2.32v21.65z" fill="#00C9C9"/></svg>