<svg width="54" height="54" fill="none" xmlns="http://www.w3.org/2000/svg"><g clip-path="url(#clip0)"><path d="M26.074 16.408h.077a47.446 47.446 0 007.371-1.133.9.9 0 00-.444-1.744 45.535 45.535 0 01-7.08 1.08.9.9 0 10.076 1.8v-.003zM4.5 10.8a.9.9 0 100-1.8.9.9 0 000 1.8zM4.5 12.6a.9.9 0 00-.9.9v1.8a.9.9 0 001.8 0v-1.8a.9.9 0 00-.9-.9zM4.5 22.5a.9.9 0 100-1.8.9.9 0 000 1.8zM4.5 24.3a.9.9 0 00-.9.9V27a.9.9 0 101.8 0v-1.8a.9.9 0 00-.9-.9zM4.5 34.2a.9.9 0 100-1.8.9.9 0 000 1.8zM4.5 36a.9.9 0 00-.9.9v1.8a.9.9 0 101.8 0v-1.8a.9.9 0 00-.9-.9z" fill="#028BFC"/><path fill-rule="evenodd" clip-rule="evenodd" d="M54 37.8c0-2.622-.64-5.204-1.865-7.522-.01-.024-.021-.046-.033-.07A16.21 16.21 0 0037.8 21.6l-1.8.106c-5.314.601-9.99 3.782-12.502 8.503-.012.023-.023.045-.033.068-.034.067-.063.136-.097.203l-.792 1.835a15.902 15.902 0 00-.06 10.8l.74 1.773c.07.145.134.293.209.435.01.024.021.045.033.068a16.184 16.184 0 0028.604 0c.012-.024.023-.045.033-.07A16.092 16.092 0 0054 37.801zm-26.97.9h-3.584c.115 1.876.6 3.712 1.425 5.4h2.98a23.026 23.026 0 01-.82-5.4zm21.54-1.8h3.584a14.267 14.267 0 00-1.426-5.4H47.75c.487 1.761.762 3.574.82 5.4zm-5.383 0h3.584a21.333 21.333 0 00-.89-5.4h-3.078c.228 1.792.356 3.594.384 5.4zM29.72 31.5a21.325 21.325 0 00-.891 5.4h3.584c.028-1.806.156-3.608.384-5.4H29.72zm3.355-1.8a20.909 20.909 0 011.61-5.392 11.277 11.277 0 00-4.32 5.392h2.71zm1.52 1.8a46.22 46.22 0 00-.38 5.4h7.17a46.242 46.242 0 00-.38-5.4h-6.41zm6.41 12.6c.232-1.79.36-3.594.38-5.4h-7.17a46.22 46.22 0 00.38 5.4h6.41zm-.09-19.792a20.917 20.917 0 011.61 5.392h2.71a11.277 11.277 0 00-4.32-5.392zM34.892 29.7h5.818c-.791-4.15-2.084-6.3-2.909-6.3-.825 0-2.118 2.15-2.909 6.3zm-8.987 0h2.558a16.122 16.122 0 012.721-4.675 14.49 14.49 0 00-5.28 4.675zm1.947 1.8h-2.98a14.264 14.264 0 00-1.425 5.4h3.585c.058-1.826.333-3.639.82-5.4zm4.564 7.2H28.83c.064 1.83.363 3.646.89 5.4h3.08a48.931 48.931 0 01-.384-5.4zm2.272 12.592a20.909 20.909 0 01-1.61-5.392h-2.712a11.277 11.277 0 004.322 5.392zm6.025-5.392H34.89c.791 4.15 2.086 6.3 2.912 6.3.825 0 2.117-2.15 2.909-6.3zm.208 5.39l-.002.002h-.002l.004-.003a20.916 20.916 0 001.605-5.389h2.71a11.277 11.277 0 01-4.315 5.39zm2.267-12.59a48.956 48.956 0 01-.384 5.4h3.077c.528-1.754.827-3.57.891-5.4h-3.584zm8.967 0H48.57a23.036 23.036 0 01-.82 5.4h2.98a14.267 14.267 0 001.425-5.4zm-5.016-9h2.558a14.483 14.483 0 00-5.28-4.675 16.107 16.107 0 012.722 4.675zM28.462 45.9h-2.558a14.49 14.49 0 005.28 4.68 16.125 16.125 0 01-2.722-4.68zm18.676 0a16.128 16.128 0 01-2.721 4.68 14.49 14.49 0 005.28-4.68h-2.559z" fill="#C9BEA4"/><path fill-rule="evenodd" clip-rule="evenodd" d="M40.919 51.292v-.003l-.003.003h.003z" fill="#C9BEA4"/><path fill-rule="evenodd" clip-rule="evenodd" d="M37.8 21.6V4.5C37.8.051 19.671 0 18.9 0 18.129 0 0 .051 0 4.5v36C0 44.949 18.129 45 18.9 45c1.508 0 2.962-.041 4.356-.112l-.74-1.773a79.34 79.34 0 01-3.616.085c-10.602 0-16.65-1.74-17.1-2.728V30.026C6.398 32.365 18.278 32.4 18.9 32.4c1.202 0 2.435-.034 3.677-.085l.79-1.836a88.79 88.79 0 01-4.467.121c-10.602 0-16.65-1.74-17.1-2.728v-9.546C6.398 20.665 18.278 20.7 18.9 20.7c.622 0 12.502-.035 17.1-2.374v3.38l1.8-.106zm-18.9-2.7c10.625 0 16.673-1.749 17.1-2.734v-9.54C31.402 8.965 19.522 9 18.9 9c-.622 0-12.502-.035-17.1-2.374V16.2c.391.941 6.447 2.7 17.1 2.7zM35.986 4.5c-.553-.99-6.587-2.7-17.086-2.7C8.28 1.8 2.227 3.549 1.8 4.534v.017c.427.9 6.48 2.649 17.1 2.649 10.498 0 16.533-1.71 17.086-2.7z" fill="#028BFC"/></g><defs><clipPath id="clip0"><path fill="#fff" d="M0 0h54v54H0z"/></clipPath></defs></svg>