<svg width="54" height="54" fill="none" xmlns="http://www.w3.org/2000/svg"><path d="M8.438 5.063v10.12h1.687V5.063c0-.933.755-1.688 1.688-1.688h33.75c.914 0 1.658.726 1.686 1.634v1.748h1.688V5.009a3.375 3.375 0 00-3.374-3.322h-33.75a3.375 3.375 0 00-3.376 3.375zM6.75 52.312h38.813a3.375 3.375 0 003.374-3.375V43.87H47.25v5.068a1.687 1.687 0 11-3.375 0v-2.53a.844.844 0 00-.844-.845H10.125V27H8.437v18.562H4.22a.844.844 0 00-.844.844v2.531a3.375 3.375 0 003.375 3.375zM5.062 47.25h37.126v1.687c0 .593.155 1.175.453 1.688H6.75a1.687 1.687 0 01-1.688-1.688V47.25zM.844 27h16.875a.844.844 0 00.843-.844V16.031a.844.844 0 00-.843-.843H.844A.844.844 0 000 16.03v10.125c0 .466.378.844.844.844zm.844-10.125h15.187v8.438H1.687v-8.438z" fill="#028BFC"/><path d="M5.31 18.81l-1.688 1.687a.844.844 0 000 1.193l1.687 1.688 1.194-1.193-1.091-1.091 1.09-1.091L5.31 18.81zM13.253 18.81l-1.193 1.193 1.09 1.09-1.09 1.092 1.193 1.193 1.687-1.688a.844.844 0 000-1.193l-1.687-1.687zM7.637 23.358l1.688-5.063 1.602.534-1.69 5.063-1.6-.534z" fill="#028BFC"/><path d="M53.156 6.75H24.47a.844.844 0 00-.844.844v16.875c0 .466.378.843.844.843h28.687A.844.844 0 0054 24.47V7.594a.844.844 0 00-.844-.844zm-.843 16.875h-27v-2.054l7.576-4.546 7.387 4.777c.254.164.576.18.844.041l6.108-3.164 5.084 2.904v2.042zm0-3.985l-4.641-2.654a.844.844 0 00-.807-.017l-6.08 3.15-7.417-4.796a.844.844 0 00-.893-.015l-7.163 4.296V8.438h27V19.64z" fill="#FFC977"/><path d="M43.453 16.031a2.953 2.953 0 100-5.906 2.953 2.953 0 000 5.906zm0-4.218a1.265 1.265 0 110 2.53 1.265 1.265 0 010-2.53zM20.25 30.375V40.5c0 .466.378.844.844.844H40.5a.843.843 0 00.844-.844V30.375a.844.844 0 00-.844-.844H21.094a.844.844 0 00-.844.844zm1.688.844h17.718v8.437H21.938V31.22z" fill="#FFC977"/><path d="M23.625 32.906h10.969v1.688H23.625v-1.688zM36.281 32.906h1.688v1.688H36.28v-1.688zM23.625 36.281h8.438v1.688h-8.438V36.28zM33.75 36.281h4.219v1.688H33.75V36.28z" fill="#FFC977"/><path d="M47.25 25.313h1.688v18.562H47.25V25.312z" fill="#028BFC"/></svg>