<svg width="54" height="54" fill="none" xmlns="http://www.w3.org/2000/svg"><path d="M15.188 25.313H13.5a2.534 2.534 0 00-2.531 2.531v1.688a2.534 2.534 0 002.531 2.531h1.688a2.534 2.534 0 002.53-2.531v-1.688a2.534 2.534 0 00-2.53-2.531zm.843 4.219a.845.845 0 01-.843.843H13.5a.844.844 0 01-.844-.843v-1.688c0-.466.378-.843.844-.844h1.688c.465.001.843.378.843.844v1.688zM28.688 25.313H27a2.534 2.534 0 00-2.531 2.531v1.688A2.534 2.534 0 0027 32.063h1.688a2.534 2.534 0 002.53-2.531v-1.688a2.534 2.534 0 00-2.53-2.531zm.843 4.219a.845.845 0 01-.843.843H27a.844.844 0 01-.844-.843v-1.688c0-.466.378-.843.844-.844h1.688c.465.001.843.378.843.844v1.688z" fill="#028BFC"/><path d="M36.281 27.077v-1.764a3.379 3.379 0 00-3.375-3.375h-7.901l.964-.701a.844.844 0 00.1-1.28l-4.998-4.998a3.367 3.367 0 10-3.58 3.58l1.914 1.91-2.075 1.489H9.281a3.379 3.379 0 00-3.375 3.375v1.764a5.056 5.056 0 000 9.972v1.764a3.378 3.378 0 003.375 3.375h6.062a2.452 2.452 0 00.503 2.531 2.451 2.451 0 00-.503 2.531H9.281a3.379 3.379 0 00-3.375 3.375v.844a.843.843 0 00.844.844h28.617c.013 0 .023-.007.035-.007.013 0 .023.007.036.007a.843.843 0 00.843-.844v-.844a3.379 3.379 0 00-3.375-3.375h-6.061a2.452 2.452 0 00-.503-2.531c.634-.68.829-1.66.503-2.531h6.061a3.378 3.378 0 003.375-3.375v-1.764a5.056 5.056 0 000-9.972zM5.906 35.318a3.359 3.359 0 010-6.51v6.51zm14.71-18.427l3.562 3.562-2.042 1.485h-1.911l.973-.698a.844.844 0 00.103-1.283l-1.878-1.873c.493-.29.903-.701 1.193-1.193zm-2.897-.016a1.687 1.687 0 110-3.375 1.687 1.687 0 010 3.375zm15.187 32.063a1.69 1.69 0 011.688 1.687h-27a1.69 1.69 0 011.687-1.687h23.625zM17.72 43.875a.844.844 0 110-1.687h6.75a.844.844 0 110 1.687.844.844 0 100 1.688.844.844 0 010 1.687h-6.75a.844.844 0 010-1.687.844.844 0 100-1.688zM29.53 40.5H12.656v-1.687h16.875V40.5zm0-3.375H12.656v-.843c0-.466.378-.844.844-.844h15.187c.466 0 .844.378.844.844v.843zm5.063 1.688a1.69 1.69 0 01-1.688 1.687H31.22v-4.218a2.534 2.534 0 00-2.532-2.532H13.5a2.534 2.534 0 00-2.531 2.532V40.5H9.28a1.69 1.69 0 01-1.687-1.687v-13.5a1.69 1.69 0 011.687-1.688h23.625a1.69 1.69 0 011.688 1.688v13.5zm1.687-3.495v-6.51a3.359 3.359 0 010 6.51z" fill="#028BFC"/><path d="M50.625 1.688h-17.72a1.69 1.69 0 00-1.687 1.687v15.186a1.69 1.69 0 001.688 1.687h9.281v4.22a1.664 1.664 0 001.155 1.6 1.672 1.672 0 001.92-.642l3.294-5.178h2.069a1.69 1.69 0 001.687-1.687V3.375a1.69 1.69 0 00-1.687-1.688zm0 16.873h-2.532a.845.845 0 00-.712.39l-3.507 5.516v-5.062a.844.844 0 00-.843-.844H32.906V3.375h17.718V18.56z" fill="#C9BEA4"/><path d="M36.282 11.813a.84.84 0 00.596-.248l2.858-2.857 2.79 2.092a.842.842 0 001.102-.078l2.779-2.779v.495a.844.844 0 001.687 0V5.906a.833.833 0 00-.098-.375.83.83 0 00-.4-.39c-.007-.004-.013-.01-.02-.013l-.003-.001a.83.83 0 00-.294-.059c-.01 0-.018-.005-.029-.005H44.72a.844.844 0 100 1.687h.494l-2.26 2.26-2.79-2.091a.841.841 0 00-1.103.078l-3.375 3.375a.844.844 0 00.597 1.44zM36.282 16.875a.843.843 0 00.843-.844v-1.687a.844.844 0 10-1.687 0v1.688a.843.843 0 00.844.843z" fill="#C9BEA4"/><path d="M39.656 10.969a.843.843 0 00-.843.844v4.218a.844.844 0 101.687 0v-4.218a.844.844 0 00-.844-.844zM43.031 12.657a.843.843 0 00-.843.844v2.53a.844.844 0 101.687 0v-2.53a.844.844 0 00-.844-.844zM46.406 10.969a.843.843 0 00-.843.844v4.218a.844.844 0 101.687 0v-4.218a.844.844 0 00-.844-.844z" fill="#C9BEA4"/></svg>