<svg width="54" height="54" fill="none" xmlns="http://www.w3.org/2000/svg"><path fill-rule="evenodd" clip-rule="evenodd" d="M51.469 3.375H2.53a.843.843 0 00-.844.842v37.894c0 .466.379.92.844.92l14.89-.078-3.038 8.17a.844.844 0 001.613.495l1.632-4.456h18.743l1.635 4.456a.844.844 0 001.613-.495l-3.04-8.17 14.89.078c.465 0 .843-.454.843-.92V4.217a.843.843 0 00-.843-.842zM18.147 45.478l1.039-2.525h15.628l1.039 2.525H18.147zm32.478-4.134H3.375V5.059h47.25v36.285z" fill="#028BFC"/><path fill-rule="evenodd" clip-rule="evenodd" d="M45.83 14.281a.845.845 0 01-1.067-.533l-1.05-3.138c-7.692 14.803-22.97 19.719-36.12 19.707v-1.684c13.864 0 27.097-5.055 34.353-18.3L39.19 11.71a.841.841 0 11-.754-1.507l5.062-2.526a.844.844 0 011.181.488l1.688 5.052a.842.842 0 01-.535 1.065zM8.439 32.845h3.374c.466 0 .844.377.844.842v3.368a.843.843 0 01-.844.842H8.438a.843.843 0 01-.844-.842v-3.368c0-.465.378-.842.843-.842zm.843 3.368h1.688v-1.684H9.28v1.684zm5.906-5.053h3.376c.465 0 .843.378.843.843v5.052a.843.843 0 01-.843.842h-3.375a.843.843 0 01-.844-.842v-5.052c0-.465.378-.843.844-.843zm.844 5.053h1.688v-3.368H16.03v3.368zm5.907-6.733h3.375c.465 0 .843.377.843.842v6.733a.843.843 0 01-.843.842h-3.375a.843.843 0 01-.844-.842v-6.733c0-.465.378-.842.843-.842zm.843 6.733h1.688v-5.05H22.78v5.05zm5.907-8.41h3.375c.465 0 .843.377.843.841v8.411a.843.843 0 01-.843.842h-3.376a.843.843 0 01-.843-.842v-8.41c0-.465.378-.843.843-.843zm.843 8.41h1.688v-6.727H29.53v6.727zm5.907-10.924h3.374c.466 0 .844.377.844.842v10.924a.843.843 0 01-.843.842h-3.376a.843.843 0 01-.843-.842V26.131c0-.465.378-.842.843-.842zm.843 10.924h1.688v-9.24H36.28v9.24zm5.907-13.473h3.374c.466 0 .844.377.844.842v13.473a.843.843 0 01-.843.842h-3.376a.843.843 0 01-.843-.842V23.582c0-.465.378-.842.843-.842zm.843 13.473h1.688V24.424H43.03v11.789z" fill="#FFC977"/></svg>