<svg width="54" height="54" fill="none" xmlns="http://www.w3.org/2000/svg"><path fill-rule="evenodd" clip-rule="evenodd" d="M50.029 16.841h-.034c-.006-2.168-1.224-2.513-3.066-3.036l-.037-.01a21.721 21.721 0 00-1.79-.43l-.264 1.573c.551.11 1.086.238 1.617.39l.039.01c.81.23 1.397.397 1.662.607.092.072.245.193.245.91V45.55c-4.146-1.555-8.983-1.658-11.633-1.566-3.512.122-6.84.694-8.973 1.512V15.983c.5-.235 1.258-.511 2.394-.771l-.328-1.56c-1.162.264-2.121.58-2.863.945-1.878-.923-6.17-1.533-10.471-1.767a.796.796 0 00-.375.072.8.8 0 01.013 1.455c.085.037.177.06.275.065 5.113.278 8.627 1.028 9.762 1.56v29.513c-2.133-.818-5.46-1.39-8.972-1.512-2.65-.092-7.487.011-11.63 1.566V16.856c0-.718.152-.84.244-.912.264-.209.848-.375 1.657-.604h.002l.04-.012c1.755-.498 5.742-.76 8.332-.9.103-.006.201-.03.29-.072a.797.797 0 01-.013-1.454.783.783 0 00-.364-.066c-2.716.148-6.804.425-8.68.958l-.04.012c-1.84.522-3.057.868-3.063 3.035h-.037A3.974 3.974 0 000 20.811v27.744c0 2.533 1.823 5.099 5.306 5.102l21.691.027H27l8.731-.009a.797.797 0 000-1.594l-1.48.002-6.454.006v-2.43h19.758c1.346 0 2.44-1.113 2.44-2.482V18.435h.034a2.38 2.38 0 012.378 2.376v27.744c0 1.687-1.163 3.505-3.715 3.508l-14.33.012a.797.797 0 00.001 1.594l1.477-.001 12.854-.011c3.484-.003 5.307-2.57 5.307-5.102V20.81a3.975 3.975 0 00-3.971-3.97zM26.202 48.065v-.84c-3.542-1.673-14.002-2.722-20.599.036.04.45.402.804.84.804h19.759zM1.594 20.811v27.744c0 1.687 1.163 3.505 3.714 3.508l20.894.026v-2.43H6.443c-1.344 0-2.438-1.113-2.438-2.481V18.435h-.037a2.378 2.378 0 00-2.374 2.376zm26.201 27.254h19.759c.432 0 .8-.36.843-.804-6.596-2.757-17.06-1.708-20.601-.036v.84z" fill="#028BFC"/><path d="M35.839 53.668a.797.797 0 00-.11-1.587l-1.479.002a.797.797 0 00.111 1.586l1.478-.001zM16.627 13.589a.8.8 0 00-.475-.687.797.797 0 00.013 1.455.797.797 0 00.462-.768z" fill="#028BFC"/><path fill-rule="evenodd" clip-rule="evenodd" d="M45.101 13.365c.008-.15.013-.303.013-.46-.003-2.09-.714-3.893-2.055-5.213-1.4-1.377-3.431-2.147-5.59-2.12-2.151-.032-4.188.743-5.587 2.12-1.341 1.32-2.052 3.122-2.055 5.213 0 .26.012.508.034.747l.328 1.56c.447 1.318 1.236 2.27 1.961 3.144.876 1.055 1.644 1.983 1.81 3.448a2.758 2.758 0 00-1.733 2.556 2.756 2.756 0 002.755 2.751h4.977a2.756 2.756 0 002.755-2.75c0-1.158-.719-2.15-1.733-2.557.166-1.465.934-2.394 1.81-3.448.774-.933 1.622-1.955 2.047-3.418l.263-1.573zm-7.644-6.2c-1.73-.028-3.357.58-4.457 1.663-1.03 1.014-1.576 2.424-1.579 4.079-.002 2.072.905 3.165 1.956 4.431.916 1.104 1.94 2.338 2.166 4.269h1.129v-5.523H35.34a.797.797 0 110-1.594h4.176a.797.797 0 010 1.594h-1.251v5.523h1.132c.226-1.93 1.25-3.165 2.166-4.269 1.05-1.266 1.958-2.36 1.956-4.431-.003-1.654-.548-3.065-1.579-4.079-1.1-1.082-2.73-1.692-4.46-1.662h-.024zm2.502 16.036h-4.977c-.64 0-1.16.52-1.16 1.16 0 .637.52 1.156 1.16 1.156h4.977c.64 0 1.16-.519 1.16-1.157 0-.639-.52-1.16-1.16-1.16z" fill="#C9BEA4"/><path d="M23.121 32.368c-1.251-.726-3.733-1.237-6.477-1.332-1.83-.063-5.314.021-8.089 1.297a.797.797 0 10.666 1.448c4.168-1.916 11.18-1.149 13.1-.035a.797.797 0 10.8-1.378zM23.121 38.218c-1.251-.726-3.733-1.236-6.477-1.332-1.83-.063-5.314.021-8.089 1.298a.797.797 0 10.666 1.448c4.168-1.917 11.18-1.15 13.1-.035a.797.797 0 00.8-1.379zM23.121 26.518c-1.252-.727-3.734-1.237-6.477-1.333-1.83-.063-5.315.02-8.09 1.299a.797.797 0 10.668 1.448c4.165-1.92 11.177-1.15 13.099-.035a.798.798 0 00.8-1.379z" fill="#028BFC"/><path d="M31.68 33.747c1.918-1.116 8.927-1.884 13.096.035a.797.797 0 00.667-1.448c-2.774-1.277-6.259-1.361-8.088-1.297-2.745.095-5.227.605-6.477 1.332a.797.797 0 10.801 1.378zM45.442 38.184c-2.773-1.277-6.258-1.361-8.088-1.298-2.745.096-5.226.606-6.476 1.333a.797.797 0 10.801 1.378c1.919-1.116 8.928-1.884 13.097.035a.797.797 0 00.666-1.448zM37.474 4.002c.44 0 .798-.357.798-.797V1.114a.797.797 0 10-1.594 0v2.09c0 .44.357.798.797.798zM30.13 5.633a.796.796 0 101.126-1.128l-1.482-1.482a.797.797 0 00-1.127 1.128l1.482 1.482zM44.257 5.867a.793.793 0 00.564-.234l1.48-1.482a.797.797 0 10-1.129-1.126l-1.479 1.481a.797.797 0 00.564 1.36z" fill="#C9BEA4"/><path d="M8.164 21.688a.797.797 0 001.057.391c4.164-1.915 11.178-1.148 13.1-.034a.797.797 0 00.8-1.38c-1.252-.725-3.734-1.235-6.477-1.33-1.83-.064-5.315.02-8.089 1.296a.797.797 0 00-.391 1.057z" fill="#028BFC"/></svg>