<svg width="54" height="54" fill="none" xmlns="http://www.w3.org/2000/svg"><path d="M49.068 28.988l-2.953-5.8a.824.824 0 00-.735-.45H7.152a.824.824 0 00-.734.45l-2.953 5.8a.825.825 0 00.734 1.198h1.03v22.146c0 .455.368.824.824.824h40.424c.455 0 .824-.369.824-.824V30.186h1.032a.824.824 0 00.735-1.198zm-4.193-4.601l2.113 4.15H29.724l-2.113-4.15h17.264zm-37.217 0H24.92l-2.113 4.15H5.544l2.114-4.15zm37.995 27.12H27.09V46.94a.824.824 0 00-1.65 0v4.569H6.878V30.186h16.436c.31 0 .594-.173.735-.45l1.394-2.738v20.777a.824.824 0 001.649 0V27l1.393 2.737c.141.277.425.45.735.45h16.434v21.322z" fill="#028BFC"/><path d="M16.597 41.344h-4.694a.824.824 0 100 1.648h4.694a.824.824 0 000-1.648zM26.266 17.782c4.665 0 8.46-3.8 8.46-8.47 0-4.67-3.795-8.468-8.46-8.468-4.666 0-8.462 3.799-8.462 8.468 0 4.67 3.796 8.47 8.462 8.47zm0-15.29c3.756 0 6.81 3.06 6.81 6.82 0 3.761-3.055 6.822-6.81 6.822-3.757 0-6.813-3.06-6.813-6.822 0-3.76 3.056-6.82 6.813-6.82z" fill="#C9BEA4"/><path d="M22.57 10.549l2.194 1.86a.824.824 0 001.166-.1l4.13-4.936a.824.824 0 00-1.265-1.058l-3.597 4.3-1.562-1.324a.824.824 0 10-1.066 1.258z" fill="#C9BEA4"/><path d="M26.266 34.819a.824.824 0 00-.824.824v.005c0 .455.369.822.824.822a.826.826 0 000-1.651z" fill="#028BFC"/></svg>