<svg width="54" height="54" fill="none" xmlns="http://www.w3.org/2000/svg"><path d="M48.306 2.624H13.387c-3.03 0-5.496 2.442-5.496 5.434l-.225 30.748H.852c-.483 0-.852.427-.852.91v4.231c0 3.961 3.17 7.201 6.996 7.379v.05h29.405v-.057c.218.01.35.058.501.058h.021a7.392 7.392 0 007.348-7.43V17.052h8.877c.483 0 .852-.438.852-.92V8.369a5.735 5.735 0 00-5.694-5.745zM7.379 49.628h-.006c-3.111 0-5.624-2.571-5.624-5.682v-3.391h27.765v3.377a7.4 7.4 0 002.16 5.252c.149.149.303.225.461.444H7.38zm35.143-5.682c0 3.11-2.488 5.682-5.6 5.682h-.018a5.682 5.682 0 01-5.64-5.696v-4.216a.906.906 0 00-.875-.91H9.415L9.64 8.064c0-2.033 1.681-3.691 3.747-3.691h30.79c-.997 1.093-1.655 2.476-1.655 4.02v35.553zm9.729-35.562v6.92h-7.98V8.39c0-2.19 1.821-4.018 4.009-4.018h.024a3.986 3.986 0 013.947 4.005v.006z" fill="#028BFC"/><path d="M20.535 24.148l4.508 3.083a.861.861 0 00.978 0l4.495-3.082c1.561-1.065 2.715-3.292 2.715-5.18V12.73a.855.855 0 00-.467-.785L25.9 8.57a.86.86 0 00-.765 0l-6.852 3.368a.853.853 0 00-.465.785v6.246c0 1.889 1.156 4.116 2.717 5.18zm-.968-10.88l5.957-2.94 5.958 2.948v5.692c0 1.317-.864 2.993-1.953 3.735l-4.015 2.747-4-2.746c-1.089-.744-1.947-2.419-1.947-3.736v-5.7z" fill="#FFC977"/><path d="M24.045 20.288c.163.167.386.26.619.262h.002a.875.875 0 00.618-.259l3.479-3.48a.875.875 0 10-1.237-1.238l-2.857 2.858-1.142-1.154a.875.875 0 10-1.243 1.232l1.76 1.779zM36.4 29.733H15.413a.875.875 0 000 1.749H36.4a.875.875 0 000-1.75zM36.4 33.777H15.413a.875.875 0 000 1.75H36.4a.874.874 0 100-1.75z" fill="#FFC977"/></svg>