<svg width="54" height="54" fill="none" xmlns="http://www.w3.org/2000/svg"><g clip-path="url(#clip0)"><path fill-rule="evenodd" clip-rule="evenodd" d="M16.172 27a10.087 10.087 0 014.533-6.846l-.91-1.421A11.814 11.814 0 0026.156 40.5h10.837a16.044 16.044 0 01-10.837 4.219c-8.84 0-16.031-7.192-16.031-16.032H8.437c0 1.422.17 2.838.51 4.22H2.53v-8.438h6.75a.844.844 0 00.78-.521l1.363-3.29a.843.843 0 00-.183-.92l-4.773-4.773L12.434 9l4.773 4.773a.844.844 0 00.92.183l3.29-1.363a.844.844 0 00.52-.78v-6.75h8.438v5.063h1.688V4.219a.844.844 0 00-.844-.844H21.094a.844.844 0 00-.844.844v7.03l-2.248.931-4.971-4.97a.844.844 0 00-1.194 0l-7.16 7.159a.844.844 0 000 1.193l4.972 4.97-.932 2.25h-7.03a.844.844 0 00-.843.843V33.75a.844.844 0 00.844.844h7.03l.93 2.248-4.97 4.971a.844.844 0 000 1.193l7.16 7.16a.844.844 0 001.193 0L18 45.195l2.249.931v7.03a.844.844 0 00.844.844h10.125a.844.844 0 00.843-.844v-7.03l2.249-.931 4.97 4.97a.843.843 0 001.194 0l7.16-7.159a.844.844 0 000-1.193L46.322 40.5h4.303a.844.844 0 00.844-.844V10.97a.845.845 0 00-.844-.844h-6.75a.844.844 0 00-.844.844v5.906h-5.906a.844.844 0 00-.844.844v4.218h-5.906a.844.844 0 00-.844.844v5.063h-5.906a.844.844 0 00-.844.843v3.375h-6.17a10.08 10.08 0 01-.58-3.374L16.172 27zM6.468 42.41l5.966 5.966 4.54-4.54a17.856 17.856 0 01-5.966-5.966l-4.54 4.54zm15.47 3.487v6.416h8.437v-6.417c-2.771.68-5.666.68-8.438.001zm17.94 2.48l5.967-5.967-1.91-1.91h-4.573a17.725 17.725 0 01-4.022 3.337l4.538 4.54zm9.903-36.565H44.72v27h5.062v-27zm-6.75 6.75H37.97v20.25h5.062v-20.25zm-6.75 5.063H31.22v15.188h5.062V23.624zm-6.75 5.906H24.47v9.14a10.14 10.14 0 001.687.142h3.375V29.53zm-6.75 8.702V33.75h-5.39a10.18 10.18 0 005.39 4.483z" fill="#028BFC"/><path d="M21.094 25.734L49.78.844m0 0h-6.75m6.75 0V6.75" stroke="#C9BEA4" stroke-width="2"/></g><defs><clipPath id="clip0"><path fill="#fff" d="M0 0h54v54H0z"/></clipPath></defs></svg>