<svg width="54" height="54" fill="none" xmlns="http://www.w3.org/2000/svg"><path d="M51.207.175H2.793a2.793 2.793 0 100 5.586v38.172c0 .514.417.931.931.931h11.097l-6.238 7.798 1.454 1.163 7.17-8.96h8.862v2.033a2.793 2.793 0 101.862 0v-2.034h8.863l7.169 8.961 1.454-1.163-6.238-7.798h11.097a.931.931 0 00.93-.93V5.76a2.793 2.793 0 100-5.586zM27 50.45a.931.931 0 110-1.862.931.931 0 010 1.862zm22.345-7.448H4.655V5.761h44.69v37.241zM51.207 3.9H2.793a.931.931 0 010-1.862h48.414a.931.931 0 010 1.862z" fill="#028BFC"/><path d="M23.276 29.968H8.379v1.862h14.897v-1.862zM23.276 33.692H8.379v1.862h14.897v-1.862zM19.551 37.416H8.38v1.862H19.55v-1.862zM23.275 26.244h-7.448v1.862h7.448v-1.862z" fill="#00C9C9"/><path d="M45.621 13.209H30.725v1.862H45.62V13.21zM45.621 16.933H30.725v1.862H45.62v-1.862zM41.897 20.657H30.725v1.862h11.172v-1.862zM45.621 9.485h-7.448v1.862h7.448V9.485z" fill="#028BFC"/><path d="M15.827 8.554a7.448 7.448 0 00-7.448 7.448 7.457 7.457 0 007.448 7.449 7.448 7.448 0 000-14.897zm.96 1.951a5.58 5.58 0 013.543 2.205l-3.572 1.784.028-3.989zm-4.18.941a5.572 5.572 0 012.323-.946l-.034 5.13-3.63 3.582a5.572 5.572 0 011.342-7.766zm4.849 9.9a5.546 5.546 0 01-4.887-.815l3.824-3.77 4.776-2.389a5.586 5.586 0 01-3.713 6.973zM30.724 34.623h-1.862v4.655h1.862v-4.655zM45.62 32.76H43.76v6.518h1.862v-6.517zM34.448 31.83h-1.862v7.448h1.862V31.83zM38.173 28.106H36.31v11.172h1.863V28.106zM41.896 30.899h-1.862v8.379h1.862v-8.38zM13.966 26.244h-1.862v1.862h1.862v-1.862z" fill="#00C9C9"/><path d="M36.31 9.485h-1.862v1.862h1.862V9.485z" fill="#028BFC"/></svg>