<svg width="52" height="52" fill="none" xmlns="http://www.w3.org/2000/svg"><path d="M41.188 49.625H10.813a2.531 2.531 0 01-1.55-.53c-.445-.343-.841-1.036-.982-1.58l-1.687.422c.234.906.895 1.92 1.635 2.492.74.573 1.648.884 2.584.883h30.375c.935 0 1.844-.31 2.584-.883s1.4-1.586 1.634-2.492l-1.687-.421c-.14.543-.537 1.235-.98 1.579a2.53 2.53 0 01-1.551.53z" fill="#028BFC"/><path d="M6.594 46.25H8.28v1.688H6.594V46.25zM43.719 46.25h1.687v1.688H43.72V46.25zM45.162 7.682l-6.75-6.75a.872.872 0 00-.6-.245h-27a4.219 4.219 0 00-4.218 4.22v18.14H8.28V4.907a2.539 2.539 0 012.531-2.532H36.97v4.219A2.539 2.539 0 0039.5 9.125h4.219v21.516h1.687V8.28a.871.871 0 00-.244-.599zM39.5 7.437a.844.844 0 01-.844-.843v-3.03l3.873 3.873H39.5z" fill="#028BFC"/><path d="M27.688 31.906v-2.531h13.71v-1.688h-3.586v-.843a5.906 5.906 0 10-11.812 0v.843h-2.531a.844.844 0 00-.844.844V43.72a2.539 2.539 0 002.531 2.531h14.555v-1.688H25.156a.844.844 0 01-.843-.843v-.844H39.71v-1.688H24.313V29.376H26v2.531h1.688zm0-5.062a4.22 4.22 0 018.437 0v.843h-8.438v-.843z" fill="#00C9C9"/><path d="M50.469 30.219h-13.5a.844.844 0 00-.844.843V43.72a2.539 2.539 0 002.531 2.531h10.125a2.539 2.539 0 002.532-2.531V31.062a.844.844 0 00-.844-.843zm-.844 13.5a.844.844 0 01-.844.843H38.656a.844.844 0 01-.843-.843v-.844h11.812v.844zm0-2.532H37.812v-9.28h11.813v9.28z" fill="#028BFC"/><path d="M43.719 39.5a4.224 4.224 0 004.218-4.219v-1.687H46.25v1.687a2.531 2.531 0 11-5.063 0v-1.687H39.5v1.687a4.224 4.224 0 004.219 4.219zM15.031 22.625H3.22a2.539 2.539 0 00-2.531 2.531V43.72a2.539 2.539 0 002.53 2.531h11.813a2.539 2.539 0 002.531-2.531V25.156a2.539 2.539 0 00-2.53-2.531zm.844 21.094a.844.844 0 01-.844.843H3.22a.844.844 0 01-.844-.843V25.156a.844.844 0 01.844-.843H15.03a.844.844 0 01.844.843V43.72z" fill="#028BFC"/><path d="M13.344 32.75H4.906a.844.844 0 00-.843.844v8.437a.844.844 0 00.843.844h8.438a.844.844 0 00.844-.844v-8.437a.844.844 0 00-.844-.844zm-.844 4.219H9.969v-2.532H12.5v2.532zm-4.219-2.532v2.532H5.75v-2.532h2.531zm-2.531 4.22h2.531v2.53H5.75v-2.53zm4.219 2.53v-2.53H12.5v2.53H9.969zM13.344 26H4.906a.844.844 0 00-.843.844v3.375a.844.844 0 00.843.843h8.438a.844.844 0 00.844-.843v-3.375a.844.844 0 00-.844-.844zm-.844 3.375H5.75v-1.688h6.75v1.688z" fill="#028BFC"/><path d="M17.563 9.969h1.687a.843.843 0 01.844.844h1.687A2.531 2.531 0 0019.25 8.28v-.844h-1.688v.844a2.531 2.531 0 000 5.063h1.688a.843.843 0 110 1.687h-1.688a.843.843 0 01-.843-.844H15.03a2.532 2.532 0 002.531 2.532v.843h1.688v-.843a2.531 2.531 0 000-5.063h-1.688a.843.843 0 110-1.687z" fill="#00C9C9"/><path d="M26.844 12.5a8.438 8.438 0 10-8.438 8.438 8.447 8.447 0 008.438-8.438zm-8.438 6.75a6.75 6.75 0 116.75-6.75 6.758 6.758 0 01-6.75 6.75z" fill="#00C9C9"/><path d="M28.531 17.563h8.438v1.687H28.53v-1.688zM28.531 14.188h8.438v1.687H28.53v-1.688zM28.531 10.813h8.438V12.5H28.53v-1.688z" fill="#028BFC"/></svg>