<svg width="613" height="391" fill="none" xmlns="http://www.w3.org/2000/svg"><g clip-path="url(#clip0)"><path d="M111.081 44.553c-.361-22.401 17.499-40.927 39.798-41.288 22.299-.36 40.742 17.573 41.093 39.983.361 22.401-17.499 40.927-39.798 41.288-22.3.36-40.742-17.582-41.093-39.983zm59.785-.962c-.167-10.71-8.99-19.285-19.645-19.118-10.664.176-19.201 9.027-19.025 19.737.176 10.71 8.99 19.284 19.645 19.118 10.655-.176 19.191-9.027 19.025-19.737z" fill="#F5F5F5"/><path d="M111.081 44.553c-.361-22.401 17.489-40.927 39.798-41.288l.342 21.208c-10.664.176-19.201 9.027-19.025 19.737.176 10.71 8.99 19.284 19.645 19.118l.342 21.208c-22.309.351-40.751-17.582-41.102-39.983z" fill="#E0E0E0"/><path d="M147.244.01c26.091-.426 46.902 19.83 47.327 46.04l-24.695.399c-.203-12.533-9.739-20.422-22.216-20.219L147.244.01z" fill="#EBEBEB"/><path d="M10.48 151.174H.001v41.843h10.48v-41.843zM25.89 160.303H15.411v32.714h10.48v-32.714zM41.53 167.776H31.05v25.241h10.48v-25.241zM56.005 178.024H45.526v14.993h10.48v-14.993z" fill="#E0E0E0"/><path d="M254.025 173.77H126.62v78.856h127.405V173.77z" fill="#FAFAFA"/><path d="M223.273 230.78c-8.833-3.348-18.998 5.91-27.655 2.137-5.04-2.202-7.325-7.899-9.794-12.81-2.47-4.912-6.724-10.091-12.19-9.527-5.513.574-9.98 6.965-15.307 5.42-3.358-.971-5.032-4.698-5.873-8.083-.842-3.395-1.425-7.141-3.987-9.518-2.562-2.377-7.898-1.738-8.296 1.73v41.805h99.63s-13.467-9.989-16.528-11.154z" fill="#EBEBEB"/><path d="M242.463 241.935c0 .092-24.149.166-53.93.166-29.791 0-53.94-.074-53.94-.166 0-.093 24.149-.167 53.94-.167 29.781 0 53.93.074 53.93.167zM242.463 223.668c0 .092-24.149.166-53.93.166-29.791 0-53.94-.074-53.94-.166 0-.093 24.149-.167 53.94-.167 29.781.01 53.93.084 53.93.167zM242.463 205.41c0 .093-24.149.167-53.93.167-29.791 0-53.94-.074-53.94-.167 0-.092 24.149-.166 53.94-.166 29.781.009 53.93.083 53.93.166zM242.463 188.059c0 .093-24.149.167-53.93.167-29.791 0-53.94-.074-53.94-.167 0-.092 24.149-.166 53.94-.166 29.781 0 53.93.074 53.93.166z" fill="#E0E0E0"/><path d="M592.165 25.555H395.042v74.704h197.123V25.555z" fill="#FAFAFA"/><path d="M575.545 43.23c0 .129-33.499.24-74.815.24-41.324 0-74.824-.111-74.824-.24 0-.13 33.491-.241 74.824-.241 41.316-.01 74.815.102 74.815.24zM575.545 52.062c0 .13-33.499.24-74.815.24-41.324 0-74.824-.11-74.824-.24s33.491-.24 74.824-.24c41.316 0 74.815.11 74.815.24zM575.545 60.904c0 .13-33.499.24-74.815.24-41.324 0-74.824-.11-74.824-.24s33.491-.24 74.824-.24c41.316 0 74.815.11 74.815.24zM575.545 69.746c0 .13-33.499.24-74.815.24-41.324 0-74.824-.11-74.824-.24s33.491-.24 74.824-.24c41.316 0 74.815.102 74.815.24zM575.545 78.579c0 .13-33.499.24-74.815.24-41.324 0-74.824-.11-74.824-.24s33.491-.24 74.824-.24c41.316 0 74.815.11 74.815.24z" fill="#EBEBEB"/><path d="M562.514 68.285s-.102.139-.323.388c-.25.222-.639.565-1.258.796-1.203.472-3.404.5-5.467-1-.998-.776-1.859-1.904-2.571-3.236-.721-1.341-1.285-2.886-1.961-4.505-.684-1.6-1.526-3.32-2.931-4.698a6.523 6.523 0 00-2.544-1.554 6.705 6.705 0 00-3.126-.175c-2.155.36-4.218 1.544-5.966 3.163-1.785 1.609-3.348 3.588-5.262 5.383-1.887 1.794-4.357 3.33-7.224 3.551-1.424.093-2.913-.268-4.134-1.1-1.221-.833-2.146-2.044-2.886-3.32-1.489-2.572-2.238-5.56-4.171-7.9-.934-1.156-2.155-2.173-3.626-2.506-1.461-.36-3.052.065-4.254 1.017-1.221.944-2.146 2.276-2.793 3.718-.648 1.453-.981 3.053-1.323 4.653-.342 1.61-.675 3.255-1.313 4.828a10.848 10.848 0 01-1.212 2.257c-.518.684-1.091 1.34-1.766 1.877-1.323 1.12-2.914 1.878-4.56 2.275a10.89 10.89 0 01-5.032.074c-1.664-.342-3.144-1.22-4.448-2.192-1.314-.98-2.507-2.062-3.755-3.033-1.249-.953-2.562-1.85-4.042-2.202-1.462-.397-3.034-.157-4.329.565-1.304.72-2.367 1.812-3.228 3.005-.86 1.194-1.516 2.525-2.182 3.83-.657 1.304-1.323 2.608-2.165 3.792-.823 1.193-1.877 2.22-3.107 2.94-1.212.722-2.655 1.148-4.051.953-1.406-.185-2.636-.97-3.515-1.96-.897-1-1.517-2.174-1.942-3.376-.416-1.203-.657-2.433-.888-3.617-.435-2.367-.851-4.68-2.081-6.51-1.147-1.832-2.867-3.284-4.81-3.58a5.349 5.349 0 00-2.765.342c-.851.342-1.591.879-2.229 1.461-2.525 2.424-3.746 5.346-5.614 7.03-1.776 1.757-3.691 2.57-5.022 2.525-.657-.01-1.156-.14-1.462-.26a6.623 6.623 0 01-.462-.212c.009-.065.62.379 1.924.37 1.304.009 3.163-.805 4.892-2.562 1.822-1.683 2.997-4.597 5.559-7.094.647-.61 1.406-1.165 2.303-1.535a5.559 5.559 0 012.923-.38c2.062.296 3.866 1.813 5.05 3.7.61.943 1.082 2.007 1.396 3.144.324 1.129.537 2.303.759 3.487.231 1.184.471 2.387.887 3.561.417 1.166 1.018 2.294 1.869 3.228.841.934 1.988 1.665 3.274 1.822 1.286.176 2.627-.213 3.783-.906 1.165-.694 2.173-1.683 2.969-2.83.814-1.156 1.461-2.433 2.118-3.746.666-1.304 1.322-2.655 2.21-3.894.888-1.23 1.989-2.377 3.376-3.145 1.378-.767 3.089-1.036 4.662-.61 1.59.38 2.95 1.313 4.217 2.284 1.267.99 2.46 2.072 3.746 3.025 1.285.952 2.682 1.794 4.264 2.109 1.563.351 3.228.332 4.818-.074 1.582-.389 3.108-1.12 4.375-2.183.648-.509 1.184-1.147 1.683-1.794.454-.676.861-1.397 1.157-2.155.61-1.527.943-3.145 1.285-4.754.352-1.61.675-3.228 1.36-4.754.675-1.499 1.637-2.895 2.941-3.904 1.286-1.026 3.043-1.498 4.643-1.1 1.618.37 2.904 1.47 3.875 2.673 2.007 2.45 2.756 5.475 4.199 7.963.712 1.249 1.6 2.396 2.738 3.182 1.147.786 2.525 1.119 3.866 1.036 2.719-.204 5.124-1.674 6.983-3.422 1.896-1.758 3.468-3.737 5.29-5.374 1.795-1.646 3.922-2.858 6.16-3.228a7.016 7.016 0 013.284.203 6.737 6.737 0 012.654 1.638c1.443 1.442 2.285 3.2 2.96 4.818.666 1.637 1.221 3.173 1.914 4.505.685 1.322 1.526 2.441 2.479 3.2 1.979 1.48 4.134 1.498 5.318 1.063 1.239-.425 1.6-1.1 1.637-1.054z" fill="#E0E0E0"/><path d="M571.976 66.222s-.176.019-.518.037c-.176-.01-.38-.055-.639-.083-.24-.083-.536-.139-.832-.305-1.249-.537-2.793-1.832-4.458-3.755a40.753 40.753 0 01-1.276-1.554c-.444-.546-.842-1.184-1.378-1.702-1.083-1.054-2.636-1.84-4.403-2.007a6.166 6.166 0 00-2.691.342c-.879.324-1.684.916-2.396 1.619-1.443 1.415-2.525 3.31-3.94 5.096-.712.888-1.517 1.767-2.525 2.45a7.85 7.85 0 01-3.45 1.296c-2.525.296-5.133-.398-7.593-1.425-2.479-1.035-4.856-2.45-7.529-3.366-1.322-.463-2.719-.786-4.153-.833-1.424-.027-2.876.26-4.189.916-2.673 1.276-4.764 3.616-7.279 5.522a14.967 14.967 0 01-4.218 2.312c-1.535.536-3.181.795-4.828.832-3.311.056-6.678-.87-9.582-2.654-2.913-1.785-5.383-4.32-7.269-7.242-1.952-2.923-3.016-6.234-4.431-9.258-.712-1.508-1.517-2.97-2.571-4.218-1.064-1.23-2.349-2.266-3.792-2.932-1.443-.666-3.071-.888-4.569-.48-1.498.388-2.802 1.34-3.792 2.497-1.008 1.165-1.748 2.525-2.275 3.94-.527 1.424-.86 2.895-1.175 4.356-.314 1.461-.592 2.923-.99 4.338a19.047 19.047 0 01-1.627 4.041 18.28 18.28 0 01-5.494 6.197 16.041 16.041 0 01-7.168 2.895c-2.497.324-4.939-.037-7.085-.823-4.338-1.563-7.399-4.93-8.546-8.38-.592-1.72-.888-3.375-1.313-4.846-.426-1.47-.934-2.802-1.702-3.792-1.572-1.98-3.644-2.664-4.939-2.534-1.341.13-1.85.749-1.878.684 0 .046.5-.61 1.869-.777 1.332-.157 3.459.5 5.096 2.516.814 1.008 1.332 2.358 1.776 3.838.444 1.49.758 3.136 1.35 4.828 1.147 3.367 4.153 6.641 8.407 8.149 2.109.758 4.495 1.09 6.919.767a15.806 15.806 0 006.983-2.858 18.048 18.048 0 005.355-6.076c1.387-2.46 1.97-5.337 2.562-8.269.305-1.47.647-2.96 1.183-4.42.537-1.462 1.295-2.868 2.35-4.089 1.036-1.212 2.414-2.229 4.023-2.645 1.609-.435 3.367-.194 4.883.5 1.527.693 2.858 1.775 3.959 3.052 1.101 1.294 1.924 2.783 2.645 4.319 1.434 3.07 2.479 6.345 4.394 9.203 1.859 2.876 4.282 5.355 7.121 7.093 2.83 1.748 6.114 2.646 9.332 2.59 1.61-.037 3.201-.287 4.68-.804a14.4 14.4 0 004.088-2.239c2.479-1.859 4.579-4.217 7.363-5.558 1.368-.685 2.904-.98 4.393-.953 1.489.056 2.932.388 4.282.87 2.719.934 5.106 2.376 7.538 3.394 2.423 1.017 4.976 1.702 7.399 1.424a7.287 7.287 0 003.293-1.22c.962-.648 1.748-1.5 2.46-2.368 1.406-1.758 2.507-3.654 3.996-5.106.74-.721 1.581-1.332 2.506-1.665a6.434 6.434 0 012.812-.333c1.831.185 3.431 1.008 4.541 2.109.564.555.953 1.193 1.387 1.739.426.555.842 1.082 1.249 1.563 1.628 1.924 3.145 3.237 4.356 3.792 1.203.629 1.961.388 1.943.453zM415.631 43.664c0 .13-.888.24-1.979.24-1.091 0-1.979-.11-1.979-.24s.888-.24 1.979-.24c1.101 0 1.979.11 1.979.24zM415.631 52.062c0 .13-.888.24-1.979.24-1.091 0-1.979-.11-1.979-.24s.888-.24 1.979-.24c1.101 0 1.979.11 1.979.24zM415.631 60.46c0 .13-.888.24-1.979.24-1.091 0-1.979-.11-1.979-.24s.888-.24 1.979-.24c1.101 0 1.979.11 1.979.24zM415.631 68.867c0 .13-.888.24-1.979.24-1.091 0-1.979-.11-1.979-.24s.888-.24 1.979-.24c1.101 0 1.979.102 1.979.24zM415.631 77.266c0 .13-.888.24-1.979.24-1.091 0-1.979-.11-1.979-.24s.888-.24 1.979-.24c1.101 0 1.979.101 1.979.24zM433.823 88.06c0 .129-1.775.24-3.958.24-2.183 0-3.959-.111-3.959-.24 0-.13 1.776-.241 3.959-.241s3.958.11 3.958.24zM468.711 88.06c0 .129-1.776.24-3.958.24-2.183 0-3.959-.111-3.959-.24 0-.13 1.776-.241 3.959-.241 2.182 0 3.958.11 3.958.24zM503.599 88.06c0 .129-1.776.24-3.959.24s-3.958-.111-3.958-.24c0-.13 1.775-.241 3.958-.241 2.192 0 3.959.11 3.959.24zM538.493 88.06c0 .129-1.775.24-3.958.24-2.183 0-3.959-.111-3.959-.24 0-.13 1.776-.241 3.959-.241s3.958.11 3.958.24zM573.381 88.06c0 .129-1.776.24-3.959.24-2.182 0-3.958-.111-3.958-.24 0-.13 1.776-.241 3.958-.241 2.183 0 3.959.11 3.959.24z" fill="#E0E0E0"/><path d="M612.515 382.537c0 .13-134.98.241-301.442.241-166.519 0-301.47-.111-301.47-.241 0-.129 134.951-.24 301.47-.24 166.462 0 301.442.111 301.442.24z" fill="#263238"/><path d="M418.943 2.59H172.855v161.413h246.088V2.59z" fill="#FAFAFA"/><path d="M418.943 164.003c0-1.554-.074-62.967-.194-161.413l.194.194c-67.536.01-153.172.028-246.069.046h-.018l.24-.24c-.009 57.408-.009 112.032-.018 161.413l-.222-.222c144.792.138 244.117.222 246.087.222-1.97 0-101.295.092-246.087.222h-.222v-.222c-.01-49.381-.01-104.014-.019-161.413v-.24h.259c92.897.018 178.542.036 246.069.055h.194v.194c-.12 98.446-.194 159.85-.194 161.404z" fill="#263238"/><path d="M248.059 91.731l24.204.333c-.185 12.903-11.052 23.41-24.204 23.41h-.139l.139-23.743z" fill="#455A64"/><path d="M288.089 124.501c0 .018-.176.027-.518.046-.38.009-.87.018-1.48.037-1.332.018-3.173.037-5.411.065h-.065l-.046-.056c-2.155-2.719-4.948-6.234-7.982-10.063-2.358-3.006-4.569-5.827-6.437-8.204l.12.065c-2.913-.028-5.355-.046-7.122-.065-.823-.018-1.489-.037-1.988-.046-.462-.018-.703-.028-.703-.046 0-.019.241-.037.703-.046.509-.01 1.175-.028 1.988-.047 1.767-.018 4.209-.037 7.122-.064h.074l.046.064c1.878 2.377 4.107 5.18 6.475 8.176 3.015 3.848 5.78 7.381 7.917 10.11l-.111-.056c2.238.028 4.069.046 5.41.065.611.018 1.101.028 1.48.037.343 0 .528.018.528.028zM296.774 127.294c0 .102-3.505.185-7.834.185-4.328 0-7.834-.083-7.834-.185s3.506-.185 7.834-.185c4.32 0 7.834.083 7.834.185zM296.774 130.198c0 .102-3.505.185-7.834.185-4.328 0-7.834-.083-7.834-.185s3.506-.185 7.834-.185c4.32 0 7.834.074 7.834.185z" fill="#263238"/><path d="M244.239 88.281l-.342 23.742c-13.152-.185-23.872-10.84-23.872-23.742 0-13.022 10.923-23.742 24.205-23.742 13.281 0 24.204 10.72 24.204 23.742h-24.195z" fill="#FFAC42"/><path d="M234.785 80.521c0 .019-.148.047-.416.102-.333.056-.73.12-1.202.194-1.11.158-2.59.361-4.347.61l-.074.01-.056-.055c-1.655-1.61-3.644-3.552-5.799-5.642a819.644 819.644 0 01-7.094-7.039c-.86-.878-1.572-1.6-2.118-2.164-.49-.518-.758-.814-.74-.833.019-.018.315.241.842.722.564.536 1.313 1.24 2.201 2.081a822.984 822.984 0 017.168 6.955c2.137 2.109 4.116 4.07 5.753 5.688l-.129-.046c1.766-.194 3.246-.36 4.365-.48.481-.047.879-.084 1.212-.112.277-.01.425-.01.434.01zM206.799 64.66c0 .101-3.506.185-7.834.185-4.329 0-7.834-.084-7.834-.185 0-.102 3.505-.185 7.834-.185 4.328 0 7.834.083 7.834.185zM206.799 67.564c0 .102-3.506.185-7.834.185-4.329 0-7.834-.083-7.834-.185s3.505-.185 7.834-.185c4.328 0 7.834.083 7.834.185z" fill="#263238"/><path d="M328.915 41.37l-.093-14.751c-4.347.027-8.777 1.748-12.171 4.744-4.005 3.534-6.567 8.852-5.864 15.28.074.703.185 1.415.342 2.145 0 .019.009.037.009.056l17.777-4.005v-3.468z" fill="#FFAC42"/><path opacity=".3" d="M328.915 41.37l-.093-14.751c-4.347.027-8.777 1.748-12.171 4.744-4.005 3.534-6.567 8.852-5.864 15.28.074.703.185 1.415.342 2.145 0 .019.009.037.009.056l17.777-4.005v-3.468z" fill="#fff"/><path d="M347.247 36.83c-2.488-5.189-7.381-9.351-14.345-10.045-.185-.018-.37-.037-.564-.046l-.361-.028a20.51 20.51 0 00-1.073-.027h-.092l.092 14.752.019 3.468 17.785 3.885.019.009c.268-1.249.397-2.534.397-3.83a19.156 19.156 0 00-1.877-8.138z" fill="#FFAC42"/><path opacity=".3" d="M347.247 36.83c-2.488-5.189-7.381-9.351-14.345-10.045-.185-.018-.37-.037-.564-.046l-.361-.028a20.51 20.51 0 00-1.073-.027h-.092l.092 14.752.019 3.468 17.785 3.885.019.009c.268-1.249.397-2.534.397-3.83a19.156 19.156 0 00-1.877-8.138z" fill="#000"/><path d="M329.877 46.68l-17.776 4.005c1.822 8.139 9.091 14.224 17.776 14.224 8.731 0 16.029-6.14 17.804-14.345l-17.785-3.884" fill="#FFAC42"/><path d="M399.078 44.025c0 .13-9.193.24-20.533.24-11.339 0-20.532-.11-20.532-.24s9.193-.24 20.532-.24c11.34 0 20.533.11 20.533.24zM399.078 39.346c0 .129-9.193.24-20.533.24-11.339 0-20.532-.111-20.532-.24 0-.13 9.193-.241 20.532-.241 11.34 0 20.533.111 20.533.24zM399.078 34.665c0 .13-9.193.24-20.533.24-11.339 0-20.532-.11-20.532-.24s9.193-.24 20.532-.24c11.34 0 20.533.11 20.533.24zM399.078 48.382c0 .13-9.193.24-20.533.24-11.339 0-20.532-.11-20.532-.24s9.193-.24 20.532-.24c11.34 0 20.533.11 20.533.24zM386.37 53.117c0 .13-6.317.24-14.095.24-7.788 0-14.105-.11-14.105-.24s6.308-.24 14.105-.24c7.778 0 14.095.11 14.095.24z" fill="#263238"/><path d="M319.184 86.996h-4.227v47.234h4.227V86.996zM327.351 103.042h-4.227v31.188h4.227v-31.188zM335.518 92.869h-4.227v41.601h4.227V92.869zM343.675 88.817h-4.227v45.413h4.227V88.817zM351.842 104.004h-4.227v30.235h4.227v-30.235zM360.009 109.933h-4.227v24.297h4.227v-24.297zM368.176 91.842h-4.227v42.388h4.227V91.842zM376.343 99.491h-4.227v34.739h4.227V99.491zM384.5 93.377h-4.227v40.853h4.227V93.377zM392.666 106.4h-4.227v27.83h4.227V106.4zM400.833 101.1h-4.227v33.13h4.227V101.1z" fill="#FFAC42"/><path d="M402.563 137.523c0 .092-20.061.176-44.802.176-24.75 0-44.802-.074-44.802-.176 0-.093 20.061-.176 44.802-.176s44.802.074 44.802.176zM320.988 141.241c0 .092-1.406.175-3.136.175-1.729 0-3.135-.074-3.135-.175 0-.093 1.406-.176 3.135-.176 1.73 0 3.136.074 3.136.176zM331.403 141.426c0 .092-1.684.175-3.755.175-2.072 0-3.755-.074-3.755-.175 0-.093 1.683-.176 3.755-.176 2.071 0 3.755.083 3.755.176zM340.281 141.426c0 .092-1.684.175-3.755.175-2.072 0-3.755-.074-3.755-.175 0-.093 1.683-.176 3.755-.176 2.071 0 3.755.083 3.755.176zM349.159 141.426c0 .092-1.684.175-3.755.175-2.072 0-3.756-.074-3.756-.175 0-.093 1.684-.176 3.756-.176 2.081 0 3.755.083 3.755.176zM358.037 141.426c0 .092-1.683.175-3.755.175-2.071 0-3.755-.074-3.755-.175 0-.093 1.684-.176 3.755-.176 2.081 0 3.755.083 3.755.176zM366.918 141.426c0 .092-1.683.175-3.755.175-2.071 0-3.755-.074-3.755-.175 0-.093 1.684-.176 3.755-.176 2.081 0 3.755.083 3.755.176zM375.796 141.426c0 .092-1.683.175-3.755.175s-3.755-.074-3.755-.175c0-.093 1.683-.176 3.755-.176 2.081 0 3.755.083 3.755.176zM384.675 141.426c0 .092-1.683.175-3.755.175s-3.755-.074-3.755-.175c0-.093 1.683-.176 3.755-.176 2.081 0 3.755.083 3.755.176zM393.563 141.426c0 .092-1.683.175-3.755.175s-3.755-.074-3.755-.175c0-.093 1.683-.176 3.755-.176s3.755.083 3.755.176zM402.444 141.426c0 .092-1.684.175-3.755.175-2.072 0-3.755-.074-3.755-.175 0-.093 1.683-.176 3.755-.176 2.071 0 3.755.083 3.755.176z" fill="#263238"/><path opacity=".3" d="M327.351 103.042h-4.227v31.188h4.227v-31.188zM343.675 88.817h-4.227v45.413h4.227V88.817zM360.009 109.933h-4.227v24.297h4.227v-24.297zM376.343 99.491h-4.227v34.739h4.227V99.491zM392.666 106.4h-4.227v27.83h4.227V106.4z" fill="#fff"/><path d="M198.678 37.005a4.07 4.07 0 100-8.139 4.07 4.07 0 000 8.14zM272.745 29.717c0 .13-13.725.24-30.651.24-16.935 0-30.66-.11-30.66-.24s13.725-.24 30.66-.24c16.926 0 30.651.11 30.651.24zM236.044 34.647c0 .037-.342.065-.953.092-.61.028-1.498.056-2.589.074-2.183.046-5.208.074-8.546.074-3.339 0-6.354-.028-8.546-.074a95.156 95.156 0 01-2.59-.074c-.611-.027-.953-.064-.953-.092 0-.037.342-.065.953-.093a95.57 95.57 0 012.59-.074c2.182-.046 5.207-.074 8.546-.074 3.338 0 6.354.028 8.546.074a95.6 95.6 0 012.589.074c.611.028.953.056.953.093z" fill="#FFAC42"/><path d="M392.954 193.081c-.121.028-.435-2.118.203-4.661.611-2.553 1.887-4.301 1.979-4.227.13.074-.915 1.878-1.507 4.347-.62 2.451-.527 4.532-.675 4.541z" fill="#EB996E"/><path d="M395.183 183.98l-25.666-28.94c-.934-.749-1.97-1.794-2.081-2.858a8.272 8.272 0 01.194-2.737c.268-1.092.675-2.525 1.138-3.247.573-.897-.213-1.998-1.101-1.646-.888.361-3.08 2.701-3.588 6.067 0 0-.407 1.369-1.924.842-2.211-.768-9.712-3.838-11.053-4.171-1.193-.296-2.626-.259-1.84.638.573.647 3.672 2.617 5.299 3.625-1.979-1.202-6.289-3.681-6.751-2.858-.278.481.259 1.379 2.025 2.636-1.276-.693-2.46-1.257-2.858-1.211-2.303.222 4.773 4.745 4.773 4.745-4.985-3.127-4.745-3.321-5.3-2.747-.416.434.444 1.452 2.895 3.523 1.989 1.675 11.765 10.295 11.765 10.295l19.7 32.408a18.513 18.513 0 0013.901 7.797l40.279-.86 4.505-22.605-44.312 1.304z" fill="#FFBE9D"/><path d="M354.692 156.825c-.074.13-1.646-.767-3.506-1.997-1.859-1.231-3.292-2.322-3.209-2.442.083-.12 1.656.777 3.505 1.998 1.85 1.211 3.284 2.312 3.21 2.441zM356.088 155.031c-.074.129-1.795-.731-3.848-1.924-2.053-1.184-3.653-2.257-3.579-2.386.074-.13 1.794.731 3.847 1.924 2.054 1.193 3.654 2.266 3.58 2.386zM357.539 153.172c-.074.13-1.72-.657-3.671-1.757-1.961-1.101-3.487-2.09-3.413-2.22.074-.129 1.72.657 3.672 1.757 1.951 1.092 3.477 2.091 3.412 2.22z" fill="#EB996E"/><path d="M332.484 353.495l-5.171 15.871s-17.869.074-19.108 2.914l30.411 11.135 9.073-24.398-15.205-5.522z" fill="#FFAC42"/><path d="M337.191 371.494c.527.379.694 1.184.342 1.729-.351.546-1.174.722-1.711.352-.536-.37-.768-1.332-.351-1.832.416-.499 1.387-.656 1.822-.166M338.616 383.416l.906-2.424-29.55-9.813s-1.573.093-1.767 1.101l30.411 11.136z" fill="#E0E0E0"/><path d="M326.869 369.033c-.046.148.666.491 1.221 1.23.574.731.712 1.508.879 1.499.148.018.25-.944-.435-1.841-.684-.888-1.646-1.036-1.665-.888zM323.198 369.181c-.083.13.462.62.74 1.434.296.805.176 1.526.324 1.582.129.074.555-.759.194-1.758-.352-1.017-1.203-1.396-1.258-1.258zM319.989 372.335c.12.084.601-.582.518-1.535-.074-.953-.657-1.535-.768-1.434-.129.093.167.694.222 1.48.074.786-.111 1.425.028 1.489zM328.451 365.547c.009.157.768.203 1.591.564.823.351 1.378.869 1.498.767.129-.074-.314-.86-1.286-1.276-.961-.416-1.831-.203-1.803-.055zM329.55 362.365c-.028.065.527.37 1.526.546a7.167 7.167 0 001.776.092 6.151 6.151 0 001.045-.148c.176-.037.37-.065.592-.194.222-.093.462-.453.36-.768a.862.862 0 00-.527-.573c-.222-.093-.416-.111-.601-.13a5.155 5.155 0 00-1.064-.018 5.779 5.779 0 00-1.738.407c-.944.397-1.388.86-1.351.906.047.074.565-.268 1.48-.546a6.358 6.358 0 011.637-.268c.315-.009.638.009.971.046.352.037.629.13.657.306.009.064.009.092-.092.157-.102.065-.259.102-.435.139a9.725 9.725 0 01-.971.166 9.477 9.477 0 01-1.684.028c-.962-.065-1.553-.231-1.581-.148z" fill="#263238"/><path d="M329.671 362.652c.047.046.537-.38.944-1.323a5.255 5.255 0 00.361-2.812c-.065-.37-.139-.851-.694-1.128-.296-.12-.629.018-.796.194-.175.167-.259.342-.36.5a3.737 3.737 0 00-.379 1.026 3.765 3.765 0 00.074 1.813c.305 1.008.86 1.406.887 1.369.074-.056-.333-.537-.508-1.452a3.678 3.678 0 01.046-1.61c.074-.296.185-.591.351-.869.167-.305.38-.518.491-.444.148.056.323.389.351.694.056.333.074.656.074.962a5.86 5.86 0 01-.259 1.627c-.296.898-.657 1.397-.583 1.453zM415.91 246.947c-6.355-2.072-31.493-9.795-49.778-14.308-6.993-1.72-14.799-.028-20.764 4.005a23.299 23.299 0 00-9.795 23.825l7.501 46.365 25.86-2.109-4.014-44.635 44.192 13.485 39.382-11.395-.121-1.905-32.463-13.328z" fill="#263238"/><path d="M425.556 255.104l-55.641 12.061a24.854 24.854 0 00-17.98 15.501l-27.322 75.398 22.651 6.974 30.771-69.035 44.812-5.503a48.792 48.792 0 0030.308-15.778l7.834-8.694-35.433-10.924z" fill="#263238"/><path d="M415.447 257.112c0 .009-.074.037-.231.074-.185.046-.407.102-.694.176-.647.148-1.544.36-2.673.619-2.368.527-5.716 1.267-9.841 2.192-4.171.907-9.119 1.989-14.613 3.191-2.756.592-5.642 1.221-8.629 1.868-2.988.666-6.114 1.258-9.24 2.081-3.126.824-6.114 1.934-8.639 3.626-2.525 1.683-4.504 3.912-6.067 6.225-3.117 4.67-4.671 9.563-6.012 13.577-1.304 4.051-2.404 7.325-3.357 9.517a45.018 45.018 0 01-1.147 2.498c-.139.258-.25.462-.333.628-.074.139-.12.213-.129.204-.01 0 .018-.083.083-.231.074-.176.176-.389.296-.648.259-.573.629-1.415 1.063-2.525.888-2.201 1.943-5.484 3.21-9.554 1.304-4.032 2.821-8.971 5.965-13.725 1.573-2.359 3.589-4.634 6.169-6.364 2.581-1.738 5.624-2.867 8.778-3.699 3.154-.823 6.271-1.415 9.267-2.072 2.997-.638 5.883-1.249 8.639-1.841 5.503-1.156 10.46-2.201 14.641-3.089 4.143-.851 7.51-1.553 9.878-2.044 1.137-.222 2.034-.397 2.691-.527.287-.055.518-.092.703-.129.139-.028.222-.037.222-.028z" fill="#455A64"/><path d="M461.137 238.216c.046.12-1.859.943-4.264 1.841-2.404.888-4.384 1.507-4.43 1.387-.046-.12 1.859-.943 4.264-1.841 2.395-.887 4.384-1.507 4.43-1.387z" fill="#EB996E"/><path d="M441.243 179.494l-12.718 50.925-13.827 16.14 47.919 19.82 17.231-37.846 13.772-41.982c-3.82-7.057-11.164-8.758-13.615-9.054l-19.765-1.388-18.997 3.385z" fill="#FFAC42"/><path d="M441.243 179.495l-33.87 3.274 2.331 26.572 25.73-2.136 4.458-21.495 1.351-6.215z" fill="#FFAC42"/><path d="M438.45 190.103c.037.009-.074.583-.296 1.609-.25 1.101-.583 2.562-.99 4.338-.86 3.663-2.071 8.703-3.44 14.271-1.369 5.568-2.636 10.6-3.579 14.244-.463 1.757-.851 3.209-1.138 4.3-.278 1.018-.453 1.573-.481 1.564-.028-.01.074-.583.296-1.61.25-1.1.583-2.562.99-4.338.86-3.662 2.071-8.703 3.44-14.271a1198.11 1198.11 0 013.58-14.234c.462-1.757.85-3.209 1.137-4.301.287-1.017.453-1.572.481-1.572z" fill="#263238"/><path d="M444.228 233.693c-.055.065-.758-.545-2.062-1.221-1.295-.693-3.237-1.378-5.457-1.701-2.229-.343-4.283-.324-5.772-.306-1.489.028-2.414.028-2.414-.037 0-.064.916-.185 2.405-.296 1.489-.11 3.58-.184 5.855.167 2.275.333 4.264 1.101 5.558 1.887 1.286.767 1.924 1.47 1.887 1.507zM450.177 181.871c.037 0 .074.343.287.916.213.564.611 1.406 1.36 2.164.777.703 2.136 1.082 3.514.777.685-.139 1.369-.49 2.109-.814.731-.323 1.48-.684 2.248-1.054 3.006-1.461 5.715-2.793 7.833-3.82.935-.444 1.73-.823 2.387-1.138.564-.258.888-.388.906-.36.019.028-.277.213-.814.527-.545.314-1.332.749-2.312 1.276a197.482 197.482 0 01-7.778 3.95c-.768.37-1.526.721-2.257 1.045-.731.314-1.443.675-2.211.814-1.516.305-2.987-.139-3.838-.962a5.753 5.753 0 01-1.304-2.349c-.185-.611-.167-.972-.13-.972z" fill="#263238"/><path opacity=".3" d="M428.523 230.419c4.884-1.156 10.258-1.434 15.224-.74 1.156.157 2.368.398 3.237 1.175.87.777 1.203 2.266.389 3.107-.574.592-1.526.676-2.322.444-.795-.231-1.757-1.452-2.46-1.886-3.921-2.47-8.833-2.59-13.762-2.091M469.794 189.687c-4.024 11.432 4.088 24.242 11.709 33.666l1.951-5.827s-9.637-39.271-13.66-27.839z" fill="#000"/><path d="M480.514 223.973c-.046.028-.342-.731-1.341-1.721-.99-.971-2.812-2.09-5.309-2.395-2.497-.314-5.494.342-8.593 1.563-3.107 1.165-6.465 2.932-10.395 3.394a19.081 19.081 0 01-10.729-1.896c-3.052-1.526-5.281-3.745-6.752-5.826a18.256 18.256 0 01-2.645-5.42 11.84 11.84 0 01-.379-1.6c-.065-.37-.093-.565-.074-.565.046-.009.185.768.629 2.109a19.342 19.342 0 002.737 5.272c1.48 2.026 3.691 4.171 6.678 5.633a18.922 18.922 0 0010.479 1.822c3.82-.444 7.15-2.174 10.294-3.33 3.136-1.211 6.225-1.85 8.796-1.48 2.571.352 4.421 1.563 5.392 2.599.5.518.796.999.981 1.323.175.333.249.509.231.518zM436.896 196.623c-.018 0 .009-.148.093-.406a3.44 3.44 0 01.619-1.036c.666-.796 2.1-1.674 4.014-1.619 1.915.056 3.977 1.119 5.984 2.488 2.035 1.341 4.153 2.987 6.475 4.532 2.321 1.535 4.689 2.802 7.02 3.385 2.321.601 4.541.583 6.307.213 1.785-.37 3.09-1.11 3.885-1.73.194-.157.37-.296.527-.425.13-.13.25-.241.361-.342.194-.185.305-.278.314-.269.01.01-.074.13-.249.333-.102.121-.213.241-.333.38-.158.138-.324.296-.509.462-.777.675-2.109 1.498-3.931 1.915-1.813.425-4.088.481-6.493-.111-2.414-.574-4.828-1.859-7.177-3.413-2.349-1.554-4.449-3.21-6.456-4.56-1.979-1.378-3.94-2.423-5.752-2.516-1.795-.101-3.191.685-3.857 1.397-.685.749-.786 1.35-.842 1.322zM421.302 207.99c-.018.019-.342-.231-.804-.795a8.092 8.092 0 01-1.406-2.756c-.37-1.258-.527-2.886-.056-4.588.453-1.711 1.591-3.283 2.405-5.031.832-1.748 1.036-3.635.879-5.29a11.451 11.451 0 00-1.286-4.237c-1.23-2.247-2.654-3.144-2.562-3.227.009-.01.093.037.25.148.148.12.397.259.656.518.555.471 1.277 1.267 1.943 2.395.666 1.128 1.23 2.627 1.433 4.356.185 1.721-.009 3.709-.878 5.54-.851 1.813-1.97 3.339-2.414 4.958-.472 1.6-.361 3.154-.047 4.375.676 2.469 1.989 3.57 1.887 3.634zM439.235 180.059c.055.027-.435 1.128-1.443 2.784-.971 1.664-2.525 3.866-3.533 6.585-.49 1.359-.768 2.728-.749 3.977a8.382 8.382 0 00.657 3.219c.758 1.748 1.822 2.441 1.748 2.506-.01.019-.287-.12-.694-.49s-.934-.99-1.369-1.878a8.247 8.247 0 01-.786-3.357c-.037-1.313.231-2.738.74-4.144 1.045-2.821 2.663-4.994 3.699-6.603 1.073-1.6 1.674-2.627 1.73-2.599zM443.389 247.419c-.083.055-.805-1.091-2.331-2.636-.758-.777-1.748-1.609-2.913-2.432a23.501 23.501 0 00-4.079-2.202 23.23 23.23 0 00-4.458-1.267c-1.415-.222-2.701-.324-3.783-.296-2.164.037-3.496.352-3.514.259-.01-.037.314-.12.915-.259a8.006 8.006 0 011.101-.194c.435-.046.925-.139 1.48-.139 1.1-.074 2.423-.009 3.866.194 1.443.241 3.006.639 4.569 1.258a22.033 22.033 0 014.153 2.285c1.184.86 2.164 1.739 2.904 2.553.388.388.684.795.962 1.128.277.333.49.647.656.906.324.537.5.823.472.842z" fill="#FAFAFA"/><path d="M427.054 300.286l-.916 71.355-29.384 11.219 67.379-.323-29.736-11.321-.268-70.93h-7.075z" fill="#455A64"/><path d="M405.661 294.625c8.435 3.293 17.166 6.28 26.212 6.586 9.045.305 18.571-2.396 24.74-9.027 4.939-5.309 7.242-12.468 9.416-19.386l4.689-14.965c1.295-4.134 3.237-8.981.888-11.201-3.32-3.126-12.199-4.328-15.538-1.22-4.985 4.633-5.207 6.548-7.464 10.516-5.198 9.128-9.702 17.443-19.478 21.282-4.717 1.849-9.952 1.997-14.688 3.782-4.745 1.776-9.563 8.639-8.777 13.633z" fill="#455A64"/><path d="M470.811 178.542l-14.678 7.233c-2.821 1.276-5.975-.953-5.716-4.042l1.018-11.903s-7.954-1.175-8.112-9.12c-.157-7.945 1.082-26.193 1.082-26.193a27.596 27.596 0 0127.766 3.283l1.184.898-2.544 39.844z" fill="#FFBE9D"/><path d="M451.425 169.719s5.022.37 10.331-3.025c0 0-2.404 5.735-10.34 5.078l.009-2.053z" fill="#EB996E"/><path d="M472.447 146.929c.139-.056 5.448-1.656 5.309 3.774-.129 5.429-5.558 4.18-5.568 4.023 0-.148.259-7.797.259-7.797z" fill="#FFBE9D"/><path d="M473.899 152.719c.027-.019.092.065.249.148a.94.94 0 00.703.028c.583-.195 1.082-1.092 1.138-2.072a3.082 3.082 0 00-.231-1.36c-.158-.397-.407-.684-.694-.74a.477.477 0 00-.564.25c-.074.148-.047.259-.074.268-.019.01-.111-.092-.065-.314a.606.606 0 01.222-.333c.129-.102.324-.148.527-.13.416.037.786.435.971.87.204.435.324.971.287 1.526-.065 1.091-.647 2.109-1.434 2.312a1.004 1.004 0 01-.86-.166c-.166-.158-.194-.278-.175-.287z" fill="#EB996E"/><path d="M446.254 146.614c-.018.601.481 1.11 1.101 1.138.629.027 1.147-.435 1.165-1.036.019-.601-.481-1.11-1.1-1.138-.629-.018-1.147.444-1.166 1.036z" fill="#263238"/><path d="M445.996 145.68c.139.148.999-.499 2.22-.499 1.221-.028 2.118.601 2.247.444.065-.065-.083-.333-.471-.611-.389-.277-1.045-.545-1.804-.536-.758.009-1.396.296-1.766.582-.37.287-.491.555-.426.62zM458.213 146.753c-.018.602.481 1.11 1.101 1.138.62.028 1.147-.435 1.165-1.036.019-.601-.481-1.11-1.1-1.138-.629-.027-1.147.435-1.166 1.036z" fill="#263238"/><path d="M458 145.819c.139.148.999-.499 2.22-.499 1.221-.028 2.118.601 2.248.444.064-.065-.084-.333-.472-.611-.388-.277-1.045-.546-1.804-.546-.758.01-1.396.296-1.766.583-.37.296-.5.564-.426.629zM453.636 154.911c.009-.074-.759-.194-1.989-.342-.314-.028-.61-.093-.666-.306-.074-.222.056-.564.204-.925.286-.758.592-1.553.906-2.377 1.258-3.385 2.164-6.178 2.026-6.224-.139-.046-1.267 2.654-2.516 6.049-.305.832-.592 1.628-.869 2.395-.111.352-.315.759-.148 1.221.083.231.314.398.517.453.204.056.38.065.528.074 1.239.047 2.007.047 2.007-.018zM457.232 155.724c-.194-.009-.194 1.314-1.323 2.266-1.128.953-2.534.814-2.543.999-.019.083.314.259.916.268a3.278 3.278 0 002.127-.758c.684-.583.98-1.35 1.017-1.896.047-.555-.101-.888-.194-.879zM457.649 141.037c.12.333 1.341.167 2.775.324 1.433.13 2.599.546 2.784.241.083-.139-.121-.454-.592-.768-.463-.315-1.203-.62-2.063-.703-.86-.083-1.646.055-2.164.268-.537.222-.796.481-.74.638zM446.421 142.147c.212.278 1.054-.018 2.062-.037 1.008-.055 1.868.176 2.063-.12.083-.139-.056-.416-.426-.675-.37-.259-.989-.472-1.683-.444-.694.028-1.295.287-1.646.574-.352.286-.472.573-.37.702z" fill="#263238"/><path d="M440.502 129.532c-.092-.981.269-2.044 1.064-2.627.796-.583 2.044-.555 2.701.185-.379-1.323.693-2.858 2.062-2.96 1.295-.092 2.405.879 3.663 1.212 1.221.324 2.534.028 3.709-.453 1.174-.481 2.266-1.147 3.45-1.591a10.28 10.28 0 017.722.25 10.22 10.22 0 015.309 5.614c1.73-.555 3.718.314 4.801 1.775 1.082 1.462 1.368 3.395 1.174 5.208-.139 1.22-.481 2.404-.878 3.57 0 .101.009.203.009.305-.046 4.365-.509 9.499-2.368 9.545-3.246.074-2.516-6.049-2.516-6.049-3.995-1.508-2.562-7.492-3.56-8.389-.999-.897-3.108-2.987-11.423 1.341-3.228 1.684-7.538 1.665-9.896 1.147-.065-.018-.139-.028-.204-.037-.018 0-.037-.009-.046-.009-.028-.009-.046-.019-.065-.028-.749-.194-1.48-.471-2.146-.888-.758-.471-1.452-1.119-1.775-1.951-.324-.833-.213-1.878.434-2.488-.638-.786-1.128-1.693-1.221-2.682z" fill="#263238"/><path d="M474.473 200.203l13.309 28.218-21.152 9.092-4.19-1.295a10.259 10.259 0 00-9.813 2.118l-6.576 5.818h61.061a37.597 37.597 0 00.111-24.593l-10.479-26.498c-2.969-7.196-10.691-13.06-17.795-9.878-6.899 3.089-7.491 10.081-4.476 17.018z" fill="#FFBE9D"/><path d="M473.354 201.72c3.94 6.687 10.09 17.045 10.09 17.045l22.799-9.424s-9.85-18.609-13.013-23.354c-1.286-1.924-4.116-5.873-12.477-6.872-.194-.028-1.258.268-2.59.666a11.055 11.055 0 00-7.686 8.444l-.194.999c-.453 4.097.981 8.944 3.071 12.496z" fill="#FFAC42"/><path d="M483.453 218.765c-.028.019-.361-.462-.943-1.35-.611-.953-1.425-2.229-2.414-3.764-1.018-1.619-2.211-3.515-3.524-5.614-1.304-2.128-2.812-4.412-4.162-6.983-.666-1.286-1.239-2.599-1.628-3.913-.407-1.322-.583-2.645-.675-3.893-.204-2.507-.056-4.801.444-6.65.462-1.859 1.332-3.21 2.062-3.978.185-.175.352-.342.509-.499.157-.111.296-.213.426-.305.231-.157.351-.241.36-.222.009.009-.092.12-.305.296-.12.102-.24.213-.388.333-.139.157-.296.324-.463.518-.675.786-1.47 2.108-1.877 3.94-.444 1.813-.546 4.06-.324 6.53.111 1.239.296 2.515.694 3.801.388 1.285.943 2.562 1.609 3.829 1.332 2.534 2.83 4.837 4.116 6.974 1.285 2.118 2.441 4.032 3.431 5.669.934 1.573 1.702 2.867 2.285 3.839.508.915.795 1.424.767 1.442z" fill="#263238"/><path d="M498.187 194.459c-.037.037-.333-.259-.971-.638-.638-.379-1.656-.777-2.969-.897s-2.913.055-4.578.601c-1.665.546-3.385 1.489-5.198 2.442-1.822.952-3.616 1.822-5.402 2.21-1.775.379-3.459.296-4.781-.092-1.323-.379-2.275-1.045-2.793-1.61-.259-.286-.444-.518-.537-.693-.111-.167-.157-.259-.139-.268.047-.028.269.332.814.832.537.499 1.471 1.091 2.747 1.415 1.277.333 2.886.37 4.597-.009 1.702-.389 3.468-1.249 5.272-2.202 1.813-.952 3.551-1.896 5.29-2.441 1.73-.537 3.385-.685 4.745-.509 1.369.167 2.414.638 3.034 1.082.314.222.536.407.675.564.139.121.213.204.194.213zM494.089 214.27c-.064.056-.638-.638-1.785-1.507-.564-.444-1.295-.888-2.136-1.304a14.22 14.22 0 00-2.886-1.008 14.35 14.35 0 00-3.043-.324c-.943.018-1.794.111-2.488.268-1.396.296-2.22.675-2.257.601-.018-.028.176-.148.546-.333.361-.194.925-.407 1.628-.601.712-.203 1.581-.333 2.553-.379.971-.019 2.053.055 3.154.296 1.1.259 2.108.647 2.978 1.082.86.462 1.59.953 2.145 1.443.555.481.972.906 1.212 1.239.287.315.407.509.379.527z" fill="#FAFAFA"/><path d="M502.303 234.942c-.074.037-.49-.87-1.489-2.109-.98-1.23-2.636-2.747-4.856-3.69-2.219-.944-4.458-1.082-6.03-.944-1.582.139-2.525.463-2.553.389-.009-.028.213-.139.638-.287a9.889 9.889 0 011.869-.435c1.6-.231 3.94-.148 6.252.833 2.312.989 3.996 2.608 4.939 3.931.481.656.795 1.239.99 1.646.194.416.268.657.24.666z" fill="#EB996E"/><path d="M35.72 350.092l-5.448 21.605-9.23 15.844a2.28 2.28 0 00.962 3.191 2.258 2.258 0 002.09-.037c4.144-2.238 19.358-10.544 19.673-12.144.36-1.859 7.26-22.41 7.26-22.41l-15.307-6.049z" fill="#FFAC42"/><path opacity=".6" d="M22.002 390.741l22.16-13.624-.25.907a3.48 3.48 0 01-1.377 1.933c-1.804 1.22-6.872 4.504-18.378 10.775a2.31 2.31 0 01-2.155.009zM41.666 368.96c-.638.222-1.045.989-.842 1.637.195.647.971 1.063 1.619.851.647-.213 1.156-1.119.888-1.739-.269-.62-1.203-1.064-1.776-.703" fill="#fff"/><path d="M29.505 382.713c-.14.028-.315-1.23-1.425-2.192-1.082-.99-2.349-1.018-2.34-1.156 0-.056.315-.148.833-.084.518.065 1.22.333 1.831.87.601.536.953 1.211 1.082 1.72.13.509.074.842.019.842zM27.183 385.164c-.13.065-.62-.823-1.646-1.452-1.008-.647-2.026-.703-2.026-.851-.027-.129 1.129-.296 2.285.435 1.165.721 1.517 1.84 1.387 1.868zM33.37 379.809c-.13.074-.888-1.295-2.386-2.405-1.49-1.138-3.016-1.48-2.979-1.628 0-.12 1.675.019 3.275 1.23 1.609 1.203 2.21 2.775 2.09 2.803zM35.58 373.381c-.093.111-1.147-.713-2.673-1.194-1.526-.499-2.858-.453-2.867-.592-.028-.12 1.378-.406 3.015.13 1.646.518 2.617 1.582 2.525 1.656zM37.339 367.082c-.102.102-1.092-.943-2.747-1.313-1.647-.416-3.006.065-3.043-.074-.019-.056.286-.259.86-.407.573-.148 1.415-.204 2.303.009.888.213 1.61.648 2.053 1.036.435.389.62.712.574.749zM34.961 364.575c-.027-.009 0-.305.195-.823a5.983 5.983 0 011.23-1.951c.342-.333.721-.777 1.405-.897a.913.913 0 01.944.471c.176.343.157.722.074 1.064-.398 1.36-1.933 2.349-3.524 2.127-1.59-.259-2.738-1.517-3.024-2.867-.047-.342-.037-.74.23-1.054.269-.324.74-.343 1.037-.213.61.268.915.749 1.211 1.128.574.796.86 1.554 1.008 2.072.148.527.158.832.13.832-.093.037-.25-1.202-1.406-2.7-.296-.352-.629-.786-1.082-.953-.222-.083-.435-.046-.564.111-.13.148-.158.435-.111.703.25 1.11 1.304 2.257 2.645 2.451 1.332.204 2.682-.675 3.015-1.757.074-.259.083-.546-.018-.74a.49.49 0 00-.518-.268c-.463.055-.87.425-1.203.74-1.34 1.322-1.59 2.571-1.674 2.524z" fill="#263238"/><path d="M103.608 355.891l-1.156 16.648s16.537 6.761 16.621 9.859l-32.372-1.073.73-26.017 16.177.583z" fill="#FFAC42"/><path d="M92.492 370.809c-.63.148-1.092.842-.962 1.48.12.638.823 1.11 1.461.971.638-.139 1.212-.952 1.017-1.572-.194-.62-1.045-1.128-1.627-.842M86.71 381.325l.176-2.617 30.965 2.016s1.425.675 1.221 1.684l-32.362-1.083z" fill="#E0E0E0"/><path d="M102.98 372.4c-.009.157-.805.204-1.6.684-.805.463-1.23 1.129-1.378 1.064-.148-.037.12-.971 1.091-1.535.981-.583 1.933-.361 1.887-.213zM106.326 373.917c.028.157-.666.398-1.221 1.054-.582.638-.74 1.351-.897 1.341-.148.019-.231-.906.481-1.701.712-.814 1.646-.851 1.637-.694zM108.122 378.042c-.148.028-.342-.768.093-1.619.425-.851 1.183-1.174 1.248-1.036.083.13-.407.583-.758 1.286-.352.694-.426 1.36-.583 1.369zM102.823 368.571c-.074.139-.787-.101-1.684-.074-.897.01-1.6.287-1.683.148-.083-.12.61-.684 1.665-.703 1.063-.018 1.785.509 1.702.629zM102.999 365.204c0 .065-.629.139-1.619-.064a7.495 7.495 0 01-1.674-.574 7.672 7.672 0 01-.916-.527c-.148-.102-.323-.203-.48-.398-.167-.166-.26-.592-.047-.841a.888.888 0 01.703-.342c.24 0 .435.055.601.101.361.102.694.231.999.379a5.895 5.895 0 011.462 1.027c.73.721.962 1.323.906 1.35-.074.047-.425-.453-1.165-1.054a6.525 6.525 0 00-1.415-.86 6.517 6.517 0 00-.925-.315c-.343-.101-.63-.111-.722.037-.037.056-.037.084.028.185.074.093.204.195.352.287.277.194.564.37.841.518a9.727 9.727 0 001.545.657c.925.286 1.526.351 1.526.434z" fill="#263238"/><path d="M102.784 365.426c-.055.019-.351-.555-.379-1.581a5.404 5.404 0 01.278-1.767 5.65 5.65 0 01.443-.971c.204-.314.444-.731 1.064-.786.324 0 .583.259.666.472.102.221.111.406.148.601a3.56 3.56 0 01-.037 1.091 3.704 3.704 0 01-.749 1.656c-.657.814-1.323.98-1.341.934-.046-.083.508-.37 1.017-1.156.25-.389.481-.907.564-1.508a3.11 3.11 0 000-.934c-.037-.342-.157-.629-.286-.592-.158-.009-.444.24-.583.509a5.78 5.78 0 00-.435.869 5.857 5.857 0 00-.37 1.609c-.064.935.084 1.536 0 1.554zM69.804 55.124c-.796-2.007-1.804-3.875-2.266-5.984-.342-1.563-.87-3.912-.278-5.401.592-1.49 2.09-2.932 4.033-2.581.407-3.126 1.998-5.697 5.105-7.297 2.803-1.443 5.568-2.183 8.704-2.498.943-.092 2.432-.064 3.292.333.86.398 1.684 1.221 2.026 2.081 1.618-1.35 3.986-1.785 6.41-1.193 2.423.592 5.207 1.831 6.326 4.06.693 1.388.971 3.108.323 5.337-.434 1.48-1.933 3.83-3.394 3.33" fill="#263238"/><path d="M72.19 96.199l21.735-1c.12-2.302-1.054-16.573-1.054-16.573s8.213-1.277 8.314-9.49c.102-8.213-1.322-27.071-1.322-27.071a28.525 28.525 0 00-28.681 3.607l-1.221.934 2.229 49.593z" fill="#B78876"/><path d="M92.88 78.505s-5.19.426-10.711-3.043c0 0 2.534 5.91 10.729 5.17l-.019-2.127z" fill="#AA6550"/><path d="M70.978 55.115c-.139-.065-5.642-1.674-5.466 3.949.176 5.614 5.78 4.273 5.78 4.116.01-.167-.314-8.065-.314-8.065z" fill="#B78876"/><path d="M69.517 61.099c-.028-.019-.093.074-.26.157a.951.951 0 01-.73.037c-.601-.194-1.128-1.129-1.193-2.137a3.284 3.284 0 01.231-1.405c.157-.417.416-.713.712-.777a.497.497 0 01.583.25c.083.157.046.268.074.277.019.009.12-.102.065-.324a.599.599 0 00-.231-.342.77.77 0 00-.546-.13c-.435.047-.805.454-.99.907a3.233 3.233 0 00-.287 1.572c.075 1.129.685 2.174 1.508 2.377.398.093.721-.037.888-.176.166-.148.194-.277.176-.286z" fill="#AA6550"/><path d="M98.05 54.94c.019.62-.48 1.147-1.128 1.184-.647.037-1.184-.435-1.212-1.055-.018-.62.481-1.147 1.129-1.184.647-.046 1.193.435 1.211 1.055zM98.31 53.617c-.147.157-1.035-.509-2.293-.5-1.258-.018-2.183.639-2.322.481-.064-.064.084-.342.481-.638.398-.296 1.073-.573 1.86-.573.785 0 1.451.296 1.83.592.389.296.519.573.445.638zM85.695 55.236c.019.62-.481 1.147-1.128 1.184-.648.036-1.184-.435-1.212-1.055-.019-.62.48-1.147 1.128-1.184.648-.037 1.194.435 1.212 1.055zM85.906 53.858c-.148.157-1.036-.51-2.294-.5-1.257-.018-2.182.638-2.321.481-.065-.065.083-.342.481-.638.398-.296 1.073-.574 1.859-.574s1.452.296 1.831.592c.38.287.509.565.444.639zM90.486 63.217c-.009-.074.777-.203 2.054-.37.323-.037.629-.102.684-.314.074-.232-.055-.583-.213-.953-.305-.777-.62-1.6-.952-2.45-1.323-3.497-2.285-6.364-2.137-6.42.139-.055 1.332 2.738 2.655 6.234.314.86.62 1.683.915 2.47.12.37.333.776.167 1.267-.083.24-.324.416-.527.471-.204.065-.389.065-.546.074-1.304.056-2.1.056-2.1-.009zM86.768 64.087c.204-.01.204 1.36 1.379 2.33 1.174.98 2.635.823 2.645 1.018.018.083-.324.268-.944.287a3.427 3.427 0 01-2.201-.768c-.712-.592-1.027-1.397-1.073-1.952-.046-.582.102-.925.194-.915zM86.23 48.909c-.12.342-1.387.185-2.867.36-1.489.149-2.682.583-2.876.278-.083-.148.12-.472.601-.804.481-.334 1.24-.648 2.127-.75.888-.101 1.702.047 2.239.26.555.221.832.49.777.656zM97.849 49.963c-.223.287-1.092-.009-2.137-.027-1.045-.056-1.933.194-2.136-.111-.093-.148.046-.435.434-.703.38-.269 1.017-.49 1.739-.472.721.019 1.341.287 1.702.573.37.306.5.602.398.74z" fill="#263238"/><path d="M69.517 46.227c.111 2.395-.425 5.059 0 7.408.065.351.98 1.304 1.064 1.656.48 2.08 1.35 2.968 2.58.823.472-.823.787-3.127.971-4.051l1.499-7.585c1.96.916 4.088 1.61 6.243 1.48 2.155-.13 4.347-1.22 5.337-3.144 1.026 1.701 2.848 2.895 4.809 3.154 1.97.258 4.033-.426 5.466-1.804.73 1.175 2.479 1.498 3.663.777 1.184-.722 1.711-2.294 1.332-3.626-.565-2.007-2.71-3.089-4.708-3.68-7.816-2.304-16.454-.5-23.474 3.625-1.027.601-2.035 1.258-2.83 2.136-.805.879-1.915 1.906-1.952 3.099" fill="#263238"/><path d="M75.427 46.458c-.018.083-.536-.093-1.267.231-.36.157-.758.425-1.156.786-.388.36-.777.823-1.249 1.286-.462.462-.998.86-1.572 1.045a2.913 2.913 0 01-1.554.065c-.878-.222-1.23-.694-1.193-.722.046-.065.463.278 1.258.389.388.055.87.037 1.341-.148.481-.176.944-.527 1.378-.971.444-.435.842-.897 1.286-1.277.444-.37.906-.638 1.323-.767.897-.278 1.452.046 1.405.083zM74.529 48.937c-.01.064-.425.018-.879.416-.23.185-.444.48-.693.832-.25.351-.602.74-1.045 1.017a3.9 3.9 0 01-2.544.61c-.675-.082-1.036-.323-1.008-.378.028-.074.407.046 1.036.037.61 0 1.48-.158 2.257-.666.786-.472 1.165-1.332 1.803-1.72.61-.407 1.12-.204 1.073-.148zM95.783 32.427c0-.028.259-.074.721.046.454.12 1.092.463 1.61 1.147 1.045 1.387 1.332 3.875.62 6.317-.731 2.479-2.48 4.218-3.894 5.05a8.144 8.144 0 01-1.776.814c-.444.139-.694.166-.703.139-.028-.084.971-.333 2.294-1.23 1.322-.88 2.932-2.553 3.616-4.902.684-2.313.444-4.69-.435-5.984a3.198 3.198 0 00-1.396-1.166c-.398-.176-.657-.185-.657-.231zM102.665 35.664c.056 0 .121.61-.027 1.582-.148.971-.565 2.294-1.369 3.58-.805 1.276-1.822 2.228-2.636 2.783-.814.555-1.388.759-1.415.712-.093-.13 2.108-1.258 3.644-3.745 1.581-2.47 1.655-4.94 1.803-4.912z" fill="#455A64"/><path d="M112.034 172.974l-5.208 193.784L81.29 366l1.96-166.324-32.528 170.948-23.067-6.021 29.773-191.259 54.606-.37z" fill="#263238"/><path d="M190.669 89.956l1.23-.444s10.479 1.572 9.924-.315c-.731-2.497-10.155-3.32-11.025-3.219-1.452.167-9.887 2.387-11.006 3.22-1.11.832-7.325 9.045-7.325 9.045l10.562 8.166s2.507-.111 5.355-3.394c1.443-1.665 3.533-4.541 3.533-4.541s-.222-.694-.046-.999c.537-.906-.009-1.341-.009-1.341.629-.278 1.101-.971 1.045-1.49-.037-.314-.111-.711-.379-.887-.648-.444-.888-.324-.888-.324s1.286-.61 1.359-1.831c.074-1.184-1.674-1.47-1.674-1.47" fill="#B78876"/><path d="M201.684 89.678c.018.065-.786.389-2.183.564-.694.083-1.526.13-2.451.065-.906-.12-1.896-.278-2.941-.435-.768-.13-1.517-.25-2.22-.36l.139-.01c-2.951 1-5.115 1.647-5.161 1.526-.046-.12 2.053-.962 4.985-2.034l.056-.019.074.01c.693.101 1.433.221 2.201.332 1.017.167 1.988.324 2.913.472a15.09 15.09 0 002.377.055c1.36-.064 2.192-.25 2.211-.166z" fill="#AA6550"/><path d="M190.077 90.575c-1.008 1.092-1.831 1.98-2.83 3.07-.324.352-.657.722-.823 1.175-.167.454-.111 1.018.249 1.332.287.25.722.296 1.092.195.37-.102.703-.324 1.008-.555 1.119-.833 2.497-1.86 3.496-2.83" fill="#B78876"/><path d="M192.472 92.776c.037.047-.536.648-1.498 1.582-.491.462-1.092 1.008-1.85 1.508-.389.24-.786.5-1.286.666a1.976 1.976 0 01-.823.11c-.296-.027-.62-.175-.814-.443-.388-.546-.259-1.221 0-1.674.268-.463.592-.796.888-1.138a40.502 40.502 0 011.619-1.72c.943-.953 1.609-1.48 1.655-1.425.047.046-.527.648-1.406 1.656-.471.555-.989 1.147-1.526 1.785-.277.342-.601.693-.804 1.073-.213.37-.259.841-.028 1.156.222.314.694.314 1.11.176.416-.13.823-.37 1.193-.592.74-.453 1.35-.962 1.859-1.388 1.008-.878 1.665-1.387 1.711-1.332z" fill="#AA6550"/><path d="M191.428 93.84s.851-1.119 1.276-1.119c.435 0 1.064-.046 1.434.73.314.648.074.935-.934 2.443" fill="#B78876"/><path d="M191.426 93.84c-.823.934-1.489 1.702-2.312 2.636-.268.305-.536.62-.675 1.008-.129.388-.093.879.203 1.147.241.222.592.25.898.166.305-.083.573-.277.823-.471.915-.713 2.035-1.6 2.848-2.433" fill="#B78876"/><path d="M194.23 94.182c.046.01-.157.823-.962 1.86a10.51 10.51 0 01-1.6 1.636 10.17 10.17 0 01-1.091.805c-.398.24-.824.536-1.406.601-.287.028-.638-.056-.86-.296-.222-.231-.296-.546-.296-.814.009-.573.333-.999.592-1.322a32.667 32.667 0 011.489-1.702c.878-.944 1.498-1.452 1.544-1.406.046.046-.481.638-1.285 1.628a55.38 55.38 0 00-1.397 1.748c-.25.323-.481.684-.472 1.054 0 .389.241.675.639.63.406-.038.813-.288 1.193-.519.379-.24.74-.5 1.063-.749a12.414 12.414 0 001.61-1.508c.851-.943 1.165-1.683 1.239-1.646z" fill="#AA6550"/><path d="M176.14 99.639c.712.684 1.905.536 2.765.046.86-.5 1.517-1.267 2.34-1.822 2.451-1.665 5.929-1.202 8.296-2.987.333-.25.657-.657.491-1.036-.158-.352-.629-.398-1.009-.389-3.274.028-6.539.047-9.813.074" fill="#B78876"/><path d="M179.211 93.525c0-.037.379-.074 1.063-.12a133.88 133.88 0 012.895-.11c1.268-.029 2.72-.056 4.292-.093.407-.01.823-.01 1.239-.019.398.028.916-.12 1.434.324.25.231.277.657.148.916-.12.268-.305.462-.5.629a6.44 6.44 0 01-1.239.74c-1.785.786-3.589.906-5.105 1.368-.759.222-1.452.5-2.026.879-.573.38-1.064.842-1.554 1.22-.952.815-2.071 1.092-2.774.926-.722-.148-.953-.546-.935-.555.028-.046.306.268.962.333.657.074 1.61-.204 2.488-1.018.463-.388.925-.87 1.545-1.304.61-.434 1.35-.749 2.136-.99 1.573-.499 3.376-.647 5.023-1.387a5.928 5.928 0 001.128-.666c.324-.25.481-.592.314-.73-.166-.176-.619-.176-1.035-.167h-1.24c-1.572-.01-3.024-.018-4.291-.028a129.324 129.324 0 01-2.895-.064c-.694-.01-1.073-.047-1.073-.084z" fill="#AA6550"/><path d="M192.593 96.726s.629-.833.952-.833c.324 0 .787-.028 1.064.546.231.48.056.694-.694 1.813" fill="#B78876"/><path d="M192.593 96.726c-.611.693-1.11 1.257-1.711 1.951-.194.222-.398.463-.5.75-.101.286-.064.647.148.85.176.167.435.185.666.12.222-.064.426-.203.611-.351.675-.527 1.507-1.184 2.108-1.804" fill="#B78876"/><path d="M194.673 96.975c.056.019-.092.63-.684 1.406a8.089 8.089 0 01-1.998 1.83c-.296.177-.61.408-1.073.455-.222.027-.509-.047-.684-.232a.915.915 0 01-.241-.647c.009-.453.259-.768.453-1.017.426-.472.824-.888 1.156-1.23.666-.685 1.101-1.083 1.147-1.036.047.046-.305.527-.897 1.267-.342.416-.693.841-1.054 1.276-.185.24-.342.5-.333.75.009.267.139.425.407.397.277-.019.573-.204.86-.37a8.47 8.47 0 00.786-.555 9.5 9.5 0 001.193-1.1c.638-.685.888-1.221.962-1.194zM185.591 101.415c-.139-.019-.046-1.064-.61-2.155-.546-1.11-1.443-1.656-1.369-1.776.027-.13 1.174.296 1.803 1.563.638 1.249.296 2.423.176 2.368z" fill="#AA6550"/><path d="M112.764 180.271s-1.795-52.386-2.322-60.118c12.912 7.205 32.954 16.426 35.119 16.88 3.875.813 38.364-29.847 38.364-29.847l-12.356-9.674-28.524 16.056-37.366-22.309v.01a19.511 19.511 0 00-9.129-3.635c-.083-.01-.175-.019-.259-.028-1.322-.157-1.979-.351-2.774-.444-5.91 4.44-16.01 4.726-21.81.148 0 0-4.402.999-7.029 1.498-8.277 1.582-14.225 7.612-15.88 13.18l10.359 23.881 1.988 22.688-5.235 29.171 56.854 2.543z" fill="#FFAC42"/><path opacity=".3" d="M59.13 158.61c2.2 2.091 5.456 3.025 8.434 2.424 2.128-.426 4.144-1.582 6.308-1.443 2.368.157 4.329 1.813 6.484 2.793 4.032 1.831 8.74 1.239 13.022.102 1.97-.528 4.023-1.24 5.29-2.831.99-1.239 1.36-2.839 1.628-4.393.49-2.876.703-5.799.638-8.712-.046-1.832-.249-3.783-1.405-5.198-.944-1.156-2.424-1.776-3.903-1.97-1.48-.194-2.979.009-4.458.249-11.663 1.924-22.845 6.715-32.28 13.846" fill="#000"/><path d="M79.93 148.973s-27.146 12.144-29.911 12.745c-9.166 2.007-19.645-6.65-16.732-16.509 1.082-3.672 15.687-44.266 15.687-44.266l13.9 19.21-5.882 19.664 15.4-1.027 7.538 10.183z" fill="#FFAC42"/><path d="M71.144 138.947c0 .028-.38.084-1.073.148-.777.065-1.776.148-2.97.25-2.524.194-6.057.444-10.09.694l-.342.018.092-.324c.296-.98.592-1.997.907-3.042a961.726 961.726 0 013.58-11.728c.462-1.424.84-2.618 1.137-3.542.277-.833.453-1.286.48-1.277.029.009-.073.481-.305 1.332l-.99 3.579a898.773 898.773 0 01-3.449 11.774l-.916 3.043-.24-.305c4.023-.231 7.566-.416 10.1-.536 1.202-.047 2.192-.084 2.978-.111.712 0 1.1 0 1.1.027z" fill="#263238"/><path d="M51.295 146.235c-.055-.009 0-.536.297-1.332a8.627 8.627 0 011.757-2.774c.888-.944 1.887-1.591 2.654-1.933.768-.352 1.286-.435 1.304-.379.065.138-1.924.813-3.607 2.645-1.72 1.803-2.266 3.829-2.405 3.773zM76.897 150.564c.047.12-5.91 2.692-13.309 5.744-7.399 3.052-13.438 5.42-13.494 5.299-.046-.12 5.91-2.691 13.31-5.743 7.408-3.052 13.447-5.429 13.493-5.3zM111.896 154.522c-.018 0-.037-.148-.055-.425-.019-.342-.037-.749-.065-1.23-.046-1.147-.102-2.682-.176-4.532-.148-3.829-.361-9.12-.703-14.946-.342-5.837-.758-11.108-1.174-14.91-.204-1.905-.417-3.431-.565-4.495-.175-1.054-.259-1.646-.222-1.646.019 0 .065.139.13.416.074.333.166.731.277 1.202.204 1.055.472 2.581.722 4.486.508 3.802.98 9.083 1.313 14.928.342 5.836.5 11.136.564 14.965a211.9 211.9 0 01.028 4.541c-.009.49-.018.897-.028 1.23-.018.268-.027.416-.046.416z" fill="#263238"/><path d="M64.634 101.859c.037.074-.759.416-1.795 1.304-1.026.869-2.275 2.386-2.858 4.393l-.13.463-.295-.389c-.055-.074-.12-.166-.185-.249-1.323-1.702-3.302-2.424-4.68-2.562-1.415-.158-2.285.138-2.303.046-.01-.028.194-.12.601-.231a5.64 5.64 0 011.739-.148c1.461.055 3.598.758 5.031 2.608.065.092.14.185.204.268l-.426.074c.62-2.127 1.989-3.681 3.108-4.513 1.128-.87 1.98-1.11 1.989-1.064zM82.216 113.032c.037.074-.759.416-1.795 1.304-1.026.869-2.275 2.386-2.858 4.393l-.13.462-.295-.388c-.056-.074-.12-.167-.185-.25-1.323-1.702-3.302-2.423-4.68-2.562-1.415-.157-2.284.139-2.303.046-.01-.027.194-.12.601-.231a5.672 5.672 0 011.739-.148c1.461.056 3.598.759 5.031 2.608.065.093.14.185.204.269l-.425.074c.62-2.128 1.988-3.681 3.107-4.514 1.12-.869 1.98-1.1 1.989-1.063zM58.51 122.614c.01.083-.851.138-2.127.629a9.294 9.294 0 00-4.172 3.172l-.277.389-.148-.463c-.028-.092-.065-.194-.093-.296-.675-2.053-2.293-3.394-3.542-3.986-1.276-.62-2.201-.648-2.192-.731 0-.028.231-.046.638-.018.407.037 1 .157 1.693.444 1.35.545 3.135 1.933 3.866 4.143.037.111.065.222.102.324l-.426-.074c1.304-1.794 3.108-2.803 4.449-3.21 1.35-.434 2.229-.37 2.229-.323zM52.675 136.58c.01.083-.851.138-2.127.628-1.267.472-2.942 1.48-4.172 3.173l-.277.388-.148-.462c-.028-.093-.065-.194-.093-.296-.675-2.053-2.293-3.394-3.542-3.986-1.276-.62-2.201-.648-2.192-.731 0-.028.231-.046.638-.019.407.037 1 .158 1.693.444 1.35.546 3.135 1.933 3.866 4.144.037.111.065.222.102.324l-.426-.074c1.304-1.795 3.108-2.803 4.449-3.21 1.341-.434 2.229-.37 2.229-.323zM51.582 150.86c.01.083-.85.139-2.127.629a9.301 9.301 0 00-4.171 3.172l-.278.389-.148-.463c-.028-.092-.065-.194-.092-.296-.675-2.053-2.294-3.394-3.543-3.986-1.276-.62-2.2-.648-2.192-.731 0-.028.232-.046.639-.018.407.037.998.157 1.692.444 1.35.545 3.136 1.933 3.866 4.143.037.111.065.222.102.324l-.426-.074c1.304-1.794 3.108-2.803 4.45-3.209 1.35-.435 2.237-.37 2.228-.324zM90.919 99.038c.037.074-.759.416-1.794 1.304-1.027.87-2.276 2.386-2.858 4.394l-.13.462-.296-.389c-.055-.073-.12-.166-.185-.249-1.323-1.702-3.302-2.423-4.68-2.562-1.415-.157-2.284.139-2.303.046-.01-.028.194-.12.601-.231a5.672 5.672 0 011.74-.148c1.46.055 3.597.758 5.03 2.608.065.093.14.185.204.268l-.425.074c.62-2.127 1.988-3.681 3.107-4.513 1.12-.87 1.97-1.11 1.989-1.064zM104.718 94.275c.01.083-.86.083-2.164.49a9.296 9.296 0 00-4.365 2.904l-.306.37-.12-.472c-.028-.092-.046-.194-.074-.296-.536-2.09-2.072-3.524-3.292-4.199-1.24-.703-2.156-.777-2.137-.87 0-.027.231-.036.638.029.407.064.99.222 1.656.545 1.313.63 3.006 2.118 3.598 4.384.027.111.055.222.083.324l-.426-.102c1.416-1.71 3.284-2.599 4.643-2.922 1.397-.352 2.276-.232 2.266-.185zM76.092 91.278c.037.074-.759.416-1.795 1.304-1.026.87-2.275 2.387-2.858 4.394l-.13.462-.295-.389c-.055-.074-.12-.166-.185-.25-1.323-1.701-3.302-2.423-4.68-2.561-1.415-.157-2.285.138-2.303.046-.01-.028.194-.12.601-.231a5.675 5.675 0 011.739-.148c1.461.055 3.598.758 5.031 2.608.065.093.14.185.204.268l-.425.074c.62-2.127 1.988-3.68 3.107-4.513 1.12-.87 1.97-1.1 1.989-1.064zM105.134 115.853c.037.074-.759.416-1.795 1.304-1.026.869-2.275 2.386-2.858 4.393l-.129.462-.296-.388c-.056-.074-.12-.167-.185-.25-1.323-1.702-3.302-2.423-4.68-2.562-1.415-.157-2.285.139-2.303.047-.01-.028.194-.121.592-.232a5.703 5.703 0 011.739-.148c1.461.056 3.598.759 5.031 2.609.065.092.139.184.204.268l-.426.074c.62-2.128 1.989-3.681 3.108-4.514 1.128-.869 1.988-1.11 1.998-1.063zM79.246 153.579c.037.074-.758.416-1.794 1.304-1.027.87-2.276 2.386-2.858 4.394l-.13.462-.296-.388c-.055-.074-.12-.167-.185-.25-1.322-1.702-3.302-2.423-4.68-2.562-1.415-.157-2.284.139-2.303.046-.009-.028.195-.12.602-.231a5.672 5.672 0 011.738-.148c1.462.055 3.598.758 5.032 2.608.064.093.138.185.203.268l-.425.074c.62-2.127 1.988-3.681 3.107-4.513 1.129-.87 1.98-1.11 1.989-1.064zM69.138 144.561c.036.074-.759.416-1.795 1.304-1.026.87-2.275 2.386-2.858 4.393l-.13.463-.295-.389c-.056-.074-.12-.166-.185-.249-1.323-1.702-3.302-2.424-4.68-2.562-1.415-.157-2.285.138-2.303.046-.01-.028.194-.12.601-.231a5.672 5.672 0 011.739-.148c1.461.055 3.598.758 5.031 2.608.065.092.14.185.204.268l-.426.074c.62-2.127 1.989-3.681 3.108-4.513 1.12-.87 1.98-1.11 1.989-1.064zM110.405 148.548c0 .083-.86.037-2.183.379-1.313.324-3.098 1.128-4.513 2.664l-.324.351-.093-.481c-.018-.092-.037-.203-.055-.305-.426-2.109-1.878-3.635-3.062-4.375-1.193-.768-2.108-.897-2.09-.99.01-.027.232-.027.638.056.407.083.98.268 1.628.638 1.277.703 2.886 2.285 3.358 4.569.018.111.046.222.064.333l-.416-.129c1.508-1.628 3.413-2.414 4.791-2.664 1.397-.259 2.266-.093 2.257-.046zM91.159 166.953c.018.083-.833.241-2.035.879-1.203.619-2.747 1.813-3.764 3.644l-.232.416-.203-.444a3.74 3.74 0 00-.13-.277c-.906-1.952-2.673-3.099-3.995-3.543-1.341-.471-2.257-.379-2.257-.471 0-.028.222-.074.629-.093a5.931 5.931 0 011.73.241c1.405.379 3.338 1.544 4.328 3.662.046.102.093.213.139.305l-.435-.027c1.082-1.933 2.756-3.145 4.042-3.709 1.295-.592 2.183-.629 2.183-.583zM103.506 159.73c0 .083-.86.037-2.182.379-1.314.324-3.099 1.128-4.514 2.664l-.323.351-.093-.481c-.019-.092-.037-.203-.056-.305-.425-2.109-1.877-3.635-3.06-4.375-1.194-.767-2.11-.897-2.091-.989.009-.028.231-.028.638.055a5.6 5.6 0 011.628.638c1.276.703 2.885 2.285 3.357 4.569.019.111.046.222.065.333l-.416-.129c1.507-1.628 3.413-2.414 4.791-2.664 1.387-.259 2.266-.092 2.256-.046zM72.365 171.207c0 .084-.86.037-2.183.38-1.313.323-3.098 1.128-4.513 2.663l-.324.352-.093-.481c-.018-.093-.037-.204-.055-.305-.426-2.109-1.878-3.635-3.062-4.375-1.193-.768-2.108-.897-2.09-.99.01-.028.231-.028.638.056a5.6 5.6 0 011.628.638c1.277.703 2.886 2.284 3.358 4.569.018.111.046.222.064.333l-.416-.13c1.508-1.628 3.413-2.414 4.791-2.663 1.387-.259 2.257-.093 2.257-.047zM109.741 169.635c.037.074-.777.38-1.859 1.212-1.073.814-2.396 2.266-3.08 4.236l-.158.453-.277-.407c-.056-.083-.111-.166-.176-.259-1.23-1.766-3.172-2.589-4.541-2.802-1.406-.231-2.294.018-2.303-.074-.01-.028.203-.111.61-.204a5.947 5.947 0 011.749-.064c1.452.129 3.56.943 4.892 2.857.065.093.13.185.185.278l-.435.046c.731-2.09 2.174-3.579 3.339-4.356 1.175-.768 2.044-.962 2.054-.916zM105.707 131.326c.037.074-.759.416-1.794 1.304-1.027.87-2.276 2.387-2.858 4.394l-.13.462-.296-.388c-.055-.074-.12-.167-.185-.25-1.322-1.702-3.302-2.423-4.68-2.562-1.415-.157-2.284.139-2.303.046-.009-.028.195-.12.601-.231a5.672 5.672 0 011.74-.148c1.46.055 3.597.758 5.031 2.608.064.093.138.185.203.268l-.425.074c.619-2.127 1.988-3.681 3.107-4.513 1.119-.87 1.98-1.11 1.989-1.064zM117.194 100.98c.037.074-.758.416-1.794 1.304-1.027.87-2.275 2.386-2.858 4.393l-.13.463-.296-.389c-.055-.074-.12-.166-.184-.249-1.323-1.702-3.302-2.424-4.68-2.562-1.416-.158-2.285.138-2.303.046-.01-.028.194-.12.601-.231a5.639 5.639 0 011.739-.148c1.461.055 3.597.758 5.031 2.608.065.092.139.185.203.268l-.425.074c.62-2.127 1.989-3.681 3.108-4.513 1.128-.87 1.979-1.11 1.988-1.064zM144.757 116.213c.037.074-.759.416-1.795 1.304-1.026.87-2.275 2.387-2.858 4.394l-.129.462-.296-.388c-.056-.074-.12-.167-.185-.25-1.323-1.702-3.302-2.423-4.68-2.562-1.415-.157-2.284.139-2.303.046-.009-.028.194-.12.601-.231a5.674 5.674 0 011.739-.148c1.461.055 3.598.758 5.031 2.608.065.093.139.185.204.268l-.426.074c.62-2.127 1.989-3.681 3.108-4.513 1.129-.87 1.979-1.101 1.989-1.064zM165.64 113.485c.037.074-.758.416-1.794 1.304-1.026.869-2.275 2.386-2.858 4.393l-.129.463-.296-.389c-.056-.074-.12-.166-.185-.249-1.323-1.702-3.302-2.424-4.68-2.562-1.415-.158-2.285.138-2.303.046-.009-.028.194-.12.601-.231a5.642 5.642 0 011.739-.148c1.461.055 3.598.758 5.031 2.608.065.092.139.185.204.268l-.426.074c.62-2.127 1.989-3.681 3.108-4.513 1.119-.87 1.97-1.11 1.988-1.064zM175.204 101.859c.037.074-.758.416-1.794 1.304-1.027.869-2.276 2.386-2.858 4.393l-.13.463-.296-.389c-.055-.074-.12-.166-.185-.249-1.322-1.702-3.302-2.424-4.68-2.562-1.415-.158-2.284.138-2.303.046-.009-.028.195-.12.592-.231a5.642 5.642 0 011.739-.148c1.461.055 3.598.758 5.031 2.608.065.092.139.185.204.268l-.425.074c.619-2.127 1.988-3.681 3.107-4.513 1.129-.87 1.979-1.11 1.998-1.064zM126.813 116.111c.028.084-.805.306-1.961 1.045-1.147.722-2.589 2.044-3.45 3.95l-.194.434-.24-.425c-.047-.083-.102-.176-.148-.268-1.073-1.869-2.923-2.858-4.273-3.191-1.378-.352-2.285-.185-2.294-.278 0-.027.213-.092.62-.148a6.005 6.005 0 011.748.093c1.433.259 3.459 1.258 4.615 3.283.055.102.111.204.166.296l-.434.01c.915-2.017 2.488-3.367 3.718-4.033 1.239-.694 2.118-.814 2.127-.768zM151.916 127.978c.027.083-.805.305-1.961 1.045-1.147.722-2.59 2.044-3.45 3.949l-.194.435-.241-.425c-.046-.084-.102-.176-.148-.269-1.073-1.868-2.922-2.857-4.273-3.19-1.378-.352-2.284-.185-2.294-.278 0-.028.213-.092.62-.148a5.935 5.935 0 011.739.093c1.434.259 3.459 1.257 4.615 3.283.056.102.111.203.167.296l-.435.009c.916-2.016 2.488-3.366 3.718-4.032 1.249-.694 2.127-.814 2.137-.768z" fill="#FAFAFA"/><path d="M143.572 122.734c-.102.055-1.073-1.924-1.258-4.606-.203-2.673.472-4.782.583-4.736.148.028-.305 2.118-.102 4.699.167 2.599.916 4.597.777 4.643z" fill="#263238"/><path opacity=".3" d="M60.813 139.854a14.634 14.634 0 003.589-8.519c.231-3.126-.342-6.354-2.053-8.99.055.342-2.692 9.425-2.692 9.425l.703 7.769" fill="#000"/><path d="M73.621 138.05l-2.146-10.424c-.175-.832.472-1.609 1.323-1.609l26.98.13a1.34 1.34 0 011.322 1.498l-2.784 23.881a1.862 1.862 0 01-1.86 1.646l-17.59-.139a1.876 1.876 0 01-1.795-1.406l-3.45-13.577z" fill="#455A64"/><path d="M71.235 132.565c1.175 0 2.23.713 2.646 1.813.444 1.147 1.09 2.497 1.803 2.886 1.323.721 3.617 1.295 4.819.712 1.202-.592 6.02-4.93 6.862-4.439.842.481 1.564 1.563.722 2.525-.842.961-5.3 3.856-4.458 4.818.842.962 10.239-3.274 11.681-2.904 1.443.37 2.285 1.258 1.443 1.841-.841.582-7.223 2.987-7.584 3.829 0 0 9.638-2.525 9.998-1.924.36.601.962 1.563 0 1.924-.962.36-9.276 2.525-9.998 2.895-.721.36-3.21 1.082-3.718 1.082-.259 0-2.146.629-3.884 1.23a8.522 8.522 0 01-5.994-.157l-.971-.398a3.84 3.84 0 01-2.377-3.774l.194-3.283-1.054-2.71-.13-5.966z" fill="#B78876"/><path d="M87.43 130.031a.975.975 0 01-.98.981.975.975 0 01-.98-.981.98.98 0 011.96 0z" fill="#FAFAFA"/><path d="M246.172 312.291c7.741 2.701 17.841.287 24.473-4.55 6.622-4.838 11.394-11.765 15.612-18.803 1.803-2.997 3.561-6.133 4.134-9.582.574-3.45-.268-7.335-2.95-9.592-4.162-3.505-10.544-1.729-15.27.962-14.789 8.435-24.889 24.575-25.999 41.565zM254.485 330.826c4.653 6.132 12.644 8.87 20.33 9.221 7.685.352 15.288-1.766 22.475-4.532 2.608-.998 5.466-2.377 6.354-5.022.675-2.007-.019-4.282-1.36-5.919-1.341-1.637-3.246-2.71-5.189-3.533-7.075-3.015-15.177-3.154-22.623-1.221-7.445 1.933-13.947 6.252-19.987 11.006zM246.06 279.115c6.409.13 11.265-5.484 14.169-11.2 4.024-7.917 5.383-17.157 3.82-25.897-.583-3.275-1.822-6.808-4.754-8.38-2.978-1.6-6.853-.546-9.351 1.73-2.497 2.284-3.866 5.53-4.865 8.768-3.449 11.135-2.709 23.927.981 34.979zM224.999 314.576c10.933-18.6 12.755-41.362 6.299-61.95-1.045-3.339-3.025-7.159-6.521-7.381-3.866-.24-6.289 4.07-7.362 7.797-3.746 13.069-2.95 26.961-2.118 40.529.509 8.361 3.385 15.511 9.702 21.005zM213.634 322.225c-3.958-12.736-14.04-23.428-26.526-28.126-2.904-1.092-6.594-1.721-8.759.508-2.127 2.183-1.47 5.818-.111 8.537 2.202 4.393 5.772 7.926 9.333 11.312 3.237 3.079 6.603 6.178 10.691 7.963 4.116 1.794 11.636 2.247 15.372-.194z" fill="#FFAC42"/><path d="M281.4 274.435c.009.009-.056.065-.194.167-.158.12-.352.268-.592.453-.555.416-1.323.99-2.294 1.711-.499.37-1.054.777-1.665 1.23-.601.463-1.221.999-1.905 1.554-1.35 1.128-2.951 2.349-4.56 3.875-.823.749-1.683 1.526-2.58 2.34-.888.823-1.748 1.739-2.673 2.664-1.878 1.813-3.7 3.922-5.661 6.104-3.792 4.468-7.685 9.628-11.274 15.363-3.533 5.78-6.4 11.561-8.703 16.953-1.073 2.729-2.146 5.3-2.923 7.797-.407 1.239-.851 2.423-1.184 3.579a418.297 418.297 0 01-.943 3.348c-.648 2.128-1.027 4.098-1.434 5.818-.194.86-.388 1.656-.536 2.396-.13.739-.25 1.415-.352 2.034-.213 1.193-.388 2.128-.508 2.812-.056.296-.102.536-.148.731-.037.166-.056.249-.065.249-.009 0 0-.083.018-.249.028-.195.056-.435.093-.74.102-.685.24-1.637.416-2.83.092-.62.194-1.305.314-2.044.13-.75.315-1.545.5-2.414.379-1.73.731-3.709 1.359-5.846.296-1.073.592-2.201.916-3.376.324-1.174.759-2.358 1.156-3.607.759-2.506 1.822-5.096 2.895-7.843 2.285-5.42 5.161-11.247 8.703-17.046 3.598-5.762 7.52-10.932 11.349-15.399 1.979-2.183 3.82-4.292 5.716-6.095.934-.916 1.803-1.832 2.71-2.645.906-.805 1.776-1.582 2.608-2.322 1.628-1.517 3.246-2.719 4.624-3.829.694-.546 1.332-1.073 1.933-1.526.62-.435 1.184-.833 1.693-1.193.999-.694 1.776-1.24 2.349-1.637.25-.167.453-.306.62-.417.139-.083.213-.129.222-.12z" fill="#263238"/><path d="M295.876 325.998c0 .019-.259-.028-.749-.129-.49-.093-1.202-.278-2.127-.435-1.85-.361-4.551-.768-7.917-.971-6.687-.426-16.186.361-25.703 4.319-9.517 3.959-16.778 10.137-21.18 15.187-2.229 2.525-3.848 4.726-4.893 6.298-.546.768-.916 1.406-1.193 1.813-.278.416-.426.629-.444.62-.019-.009.102-.241.351-.675.259-.426.592-1.082 1.119-1.869.999-1.609 2.581-3.856 4.782-6.428 4.366-5.133 11.654-11.431 21.264-15.418 9.6-3.995 19.2-4.735 25.915-4.208 3.376.25 6.086.712 7.926 1.138.925.185 1.628.407 2.109.527.49.139.74.213.74.231zM255.512 241.065c.009 0-.009.102-.046.287-.046.213-.102.49-.176.832-.176.768-.416 1.841-.721 3.2-.629 2.784-1.591 6.789-2.794 11.737-2.404 9.906-5.91 23.539-9.554 38.652a932.037 932.037 0 00-4.865 21.365c-1.387 6.594-2.571 12.541-3.45 17.554-.471 2.507-.823 4.782-1.165 6.771a204.38 204.38 0 00-.814 5.124c-.213 1.378-.379 2.46-.508 3.237-.056.342-.111.619-.148.841-.037.185-.056.287-.065.287-.009 0 0-.102.018-.296.028-.222.056-.499.093-.851.102-.777.231-1.868.407-3.255.175-1.416.407-3.145.73-5.143.306-1.998.639-4.282 1.092-6.789.832-5.031 1.979-10.987 3.348-17.591a793.543 793.543 0 014.828-21.393c3.644-15.113 7.205-28.737 9.702-38.614 1.239-4.912 2.248-8.898 2.95-11.7.343-1.351.62-2.414.814-3.182.093-.342.167-.61.222-.823.056-.167.093-.259.102-.25zM230.41 349.463c-.009 0-.027-.074-.064-.222-.037-.185-.093-.398-.158-.675-.129-.638-.314-1.499-.536-2.59-.463-2.247-1.073-5.512-1.776-9.563-1.397-8.093-3.061-19.331-4.088-31.835a308.254 308.254 0 01-.888-17.657c-.092-5.429-.046-10.331.13-14.428.046-2.053.185-3.912.277-5.54.083-1.628.194-3.034.305-4.171.102-1.11.185-1.989.241-2.636.027-.278.055-.5.074-.685.018-.157.037-.231.046-.231.009 0 .009.083.009.24-.009.185-.018.407-.028.685-.037.647-.083 1.526-.147 2.636a132.658 132.658 0 00-.213 4.171c-.065 1.628-.176 3.478-.194 5.531-.121 4.097-.13 8.99-.019 14.41.148 5.42.435 11.385.934 17.619 1.018 12.477 2.627 23.715 3.931 31.817a611.232 611.232 0 001.619 9.591c.185 1.1.333 1.97.444 2.608.037.277.074.499.101.684 0 .167.01.241 0 .241z" fill="#263238"/><path d="M231.216 351.831c-.018.009-.111-.213-.287-.639-.185-.471-.425-1.1-.721-1.868l-.509-1.35a212.36 212.36 0 01-.703-1.572c-.249-.565-.518-1.166-.804-1.804-.287-.638-.648-1.286-.999-1.979-.361-.694-.731-1.415-1.119-2.165-.426-.73-.87-1.498-1.332-2.284-.879-1.6-2.016-3.2-3.108-4.93a116.114 116.114 0 00-8.231-10.525 130.296 130.296 0 00-9.444-9.453c-1.572-1.322-3.006-2.654-4.467-3.764-.712-.573-1.406-1.119-2.072-1.646-.684-.5-1.341-.99-1.96-1.452a64.92 64.92 0 00-3.432-2.414c-1.017-.703-1.905-1.295-2.654-1.739-.703-.444-1.267-.805-1.693-1.073-.388-.25-.583-.388-.573-.407.009-.018.222.093.629.315.444.249 1.026.582 1.748.989.767.426 1.674.99 2.7 1.665a61.532 61.532 0 013.487 2.359c.638.453 1.304.934 1.989 1.424.675.527 1.369 1.073 2.099 1.628 1.471 1.1 2.923 2.414 4.514 3.736 3.08 2.756 6.335 5.92 9.517 9.471 3.154 3.58 5.91 7.187 8.241 10.6 1.091 1.757 2.22 3.366 3.08 4.985.453.795.888 1.572 1.313 2.312.379.758.74 1.498 1.091 2.192.333.703.694 1.36.962 2.007.269.647.528 1.258.768 1.831.24.574.462 1.101.666 1.591.176.5.333.953.472 1.378l.629 1.905c.157.435.222.666.203.676zM277.348 296.013c0 .083-1.322.083-3.45.204a65.22 65.22 0 00-8.25.998 64.093 64.093 0 00-8.046 2.1c-2.026.666-3.256 1.156-3.284 1.082-.018-.037.278-.185.823-.444a31.046 31.046 0 012.34-.98c2.007-.768 4.847-1.647 8.065-2.257a49.494 49.494 0 018.334-.86 38.347 38.347 0 012.534.046c.601.037.934.074.934.111zM285.59 336.283c-.157.083-1.387-3.478-4.495-6.789-3.07-3.348-6.529-4.837-6.437-4.985.019-.056.906.24 2.22.98 1.313.731 3.015 1.97 4.587 3.654 1.563 1.692 2.673 3.487 3.302 4.846.648 1.369.879 2.275.823 2.294zM257.473 256.159c.102.111-1.905 2.109-4.107 4.81-2.21 2.691-3.755 5.068-3.884 4.985-.111-.065 1.249-2.581 3.487-5.309 2.229-2.738 4.421-4.578 4.504-4.486zM250.869 244.755c.139-.028.583 1.905.999 4.31.407 2.405.629 4.375.491 4.403-.139.027-.583-1.906-.999-4.31-.407-2.405-.629-4.375-.491-4.403zM230.43 280.549c.129.064-1.304 3.08-3.2 6.733-1.896 3.653-3.533 6.558-3.654 6.493-.129-.065 1.305-3.08 3.201-6.733 1.886-3.654 3.523-6.567 3.653-6.493zM218.259 268.395c.13-.064 1.341 2.118 2.71 4.875 1.369 2.756 2.377 5.04 2.248 5.096-.13.065-1.341-2.118-2.71-4.874-1.369-2.747-2.377-5.032-2.248-5.097z" fill="#263238"/><path d="M200.369 309.942c-.037.148-2.201-.278-4.911-.463-2.71-.194-4.911-.083-4.93-.24-.018-.13 2.211-.481 4.958-.278 2.765.204 4.92.861 4.883.981zM212.59 346.679l6.086 32.001a4.478 4.478 0 004.402 3.644h17.98a4.48 4.48 0 004.421-3.755l5.291-31.9h-38.18v.01z" fill="#263238"/><path d="M214.559 357.084h34.378l1.832-10.405h-38.18l1.97 10.405z" fill="#455A64"/><path d="M214.56 357.083l.721 3.793h33.13l.527-3.793H214.56z" fill="#FAFAFA"/><path d="M591.028 231.881h-58.231c-5.438 0-9.841-4.412-9.841-9.841v-40.094c0-5.439 4.412-9.841 9.841-9.841h58.231c5.439 0 9.841 4.412 9.841 9.841v40.094c.01 5.429-4.402 9.841-9.841 9.841z" fill="#EBEBEB"/><path d="M595.719 231.881h-58.232c-5.438 0-9.841-4.412-9.841-9.841v-40.094c0-5.439 4.412-9.841 9.841-9.841h58.232c5.438 0 9.841 4.412 9.841 9.841v40.094c0 5.429-4.403 9.841-9.841 9.841z" fill="#E0E0E0"/><path d="M556.179 220.477l-.842 23.4h19.321v-23.15l-18.479-.25z" fill="#E0E0E0"/><path d="M570.025 200.74a3.426 3.426 0 01-3.422 3.422 3.426 3.426 0 01-3.422-3.422 3.426 3.426 0 013.422-3.422 3.42 3.42 0 013.422 3.422z" fill="#FAFAFA"/><path d="M605.799 244.154h-69.913v138.383h69.913V244.154z" fill="#263238"/><path d="M605.797 244.154H445.3v11.774h160.497v-11.774z" fill="#455A64"/><path d="M514.021 244.154h-69.913v138.383h69.913V244.154z" fill="#263238"/></g><defs><clipPath id="clip0"><path fill="#fff" d="M0 0h612.513v391H0z"/></clipPath></defs></svg>