<svg width="528" height="504" fill="none" xmlns="http://www.w3.org/2000/svg"><g clip-path="url(#clip0)"><path d="M409.322 3.302a3.298 3.298 0 01-3.302 3.303 3.298 3.298 0 01-3.302-3.303A3.298 3.298 0 01406.02 0a3.298 3.298 0 013.302 3.302z" fill="#D0E4E9"/><path d="M426.684 226.041s-.022-.159-.022-.454c-.012-.329-.012-.772-.023-1.351-.011-1.214-.023-2.973-.045-5.231-.023-4.573-.046-11.189-.091-19.439-.023-16.557-.057-39.673-.102-66.023l.068.182c-4.562-5.527-9.306-11.258-14.151-17.124-2.179-2.633-4.324-5.243-6.344-7.683l-.068-.08v-.102c.034-29.38.068-55.56.091-74.42.034-9.407.068-16.977.091-22.23.023-2.6.045-4.62.057-6.015.011-.67.022-1.18.022-1.555.012-.352.034-.533.034-.533s.023.181.034.533c.012.375.012.897.023 1.555.011 1.396.034 3.416.057 6.014.022 5.255.057 12.835.091 22.231.022 18.86.056 45.04.09 74.42l-.068-.193c2.02 2.452 4.176 5.05 6.344 7.683 4.845 5.867 9.578 11.598 14.139 17.124l.069.08v.102c-.046 26.35-.08 49.466-.103 66.022-.034 8.25-.068 14.866-.09 19.44-.023 2.258-.034 4.005-.046 5.231-.011.579-.023 1.021-.023 1.35-.011.307-.034.466-.034.466zM464.61 206.669s-.159.715-.874 1.793c-.703 1.067-2.099 2.508-4.357 3.189-1.112.329-2.429.477-3.779.227-1.351-.261-2.758-.84-3.927-1.872a7.906 7.906 0 01-1.554-1.793 7.855 7.855 0 01-1.01-2.27c-.466-1.634-.386-3.472.249-5.152.659-1.668 1.827-3.098 3.269-3.983a7.956 7.956 0 012.269-1.01 7.68 7.68 0 012.361-.284c1.566.012 2.995.534 4.164 1.249 1.18.726 2.054 1.713 2.656 2.7 1.214 2.02 1.282 4.029 1.089 5.289-.193 1.282-.556 1.917-.556 1.917-.057-.011.238-.681.386-1.94a8.015 8.015 0 00-1.192-5.095c-.601-.942-1.452-1.873-2.576-2.554-1.123-.669-2.496-1.146-3.971-1.146a7.562 7.562 0 00-2.236.284 7.436 7.436 0 00-2.145.964c-1.362.851-2.462 2.191-3.086 3.768-.591 1.589-.681 3.325-.25 4.868.204.772.522 1.498.942 2.145a7.341 7.341 0 001.464 1.714c1.1.987 2.44 1.554 3.722 1.815 1.294.261 2.542.136 3.62-.159a7.984 7.984 0 004.301-2.984c.749-1.01.964-1.702 1.021-1.68z" fill="#D0E4E9"/><path d="M472.191 214.33c0-.011.091 0 .284.023.204.023.488.057.851.102.783.102 1.907.261 3.371.454l-.08.046a3667.71 3667.71 0 002.656-7.025l.045.136c-1.146-.76-2.417-1.611-3.779-2.508l-.068-.045.011-.079a18.547 18.547 0 00-.136-4.857l-.011-.091.079-.057 3.632-2.723-.057.204c-.965-2.156-1.986-4.449-3.064-6.854l.204.102c-1.373.272-2.894.579-4.448.885l-.114.023-.068-.091a18 18 0 00-3.518-3.336l-.102-.069.023-.124c.204-1.396.42-2.928.647-4.494l.124.227c-2.201-.84-4.573-1.759-7.013-2.69l.261-.079c-.783 1.169-1.645 2.462-2.519 3.767l-.079.114-.136-.011a18.807 18.807 0 00-4.835.124l-.136.023-.079-.113a654.704 654.704 0 01-2.713-3.643l.273.068c-2.168.965-4.505 1.997-6.866 3.053l.136-.25c.273 1.407.579 2.928.874 4.448l.023.137-.114.09a18.501 18.501 0 00-3.336 3.496c-.102.045.216-.091-.227.09h-.068l-.068-.011-.136-.023-.284-.045-.567-.08-1.124-.17c-.749-.113-1.498-.215-2.235-.329l.249-.147c-.907 2.371-1.815 4.709-2.7 7.001l-.091-.272c1.271.851 2.519 1.691 3.767 2.531l.114.079-.012.136a18.122 18.122 0 00.114 4.834l.023.137-.114.079c-1.237.919-2.44 1.816-3.643 2.712l.069-.261c1.032 2.349 2.054 4.63 3.041 6.866l-.238-.125c1.509-.295 2.995-.59 4.459-.874l.125-.023.08.103a18.338 18.338 0 003.495 3.347l.102.068-.023.125c-.227 1.543-.442 3.03-.658 4.483l-.125-.205c2.463.954 4.789 1.861 7.002 2.712l-.216.069c.897-1.328 1.725-2.565 2.531-3.768l.057-.079.102.011c1.725.193 3.336.125 4.857-.114l.09-.011.057.068c.976 1.328 1.861 2.519 2.701 3.654l-.17-.045c2.667-1.169 4.936-2.168 6.877-3.019l-.057.114c-.34-1.782-.613-3.246-.851-4.46l-.011-.045.034-.023a18.82 18.82 0 002.644-2.553c.249-.307.442-.534.578-.704.159-.147.227-.227.227-.216 0 0-.056.091-.159.25-.113.159-.295.409-.556.726a17.658 17.658 0 01-2.61 2.622l.023-.068c.25 1.214.545 2.666.908 4.448l.011.08-.079.034c-1.941.873-4.199 1.883-6.854 3.075l-.103.045-.068-.091c-.839-1.123-1.736-2.314-2.723-3.631l.147.057c-1.532.25-3.177.329-4.936.136l.159-.068c-.806 1.203-1.634 2.451-2.519 3.779l-.08.113-.136-.045c-2.213-.851-4.55-1.736-7.013-2.69l-.148-.056.023-.148c.216-1.452.431-2.95.647-4.494l.079.193a18.506 18.506 0 01-3.586-3.404l.205.068a655.88 655.88 0 00-4.449.885l-.17.034-.068-.159c-.987-2.235-2.009-4.516-3.053-6.865l-.068-.159.136-.102c1.192-.897 2.406-1.793 3.643-2.712l-.091.215a18.544 18.544 0 01-.124-4.959l.102.216c-1.249-.829-2.497-1.68-3.768-2.52l-.147-.102.068-.17c.885-2.304 1.781-4.641 2.701-7.013l.068-.17.181.023c.738.113 1.487.215 2.236.329l1.123.158.568.08.283.045.136.023.069.011h.068c-.443.182-.125.046-.216.091a18.734 18.734 0 013.416-3.586l-.08.227c-.306-1.532-.601-3.052-.873-4.448l-.034-.182.17-.079c2.36-1.044 4.686-2.077 6.865-3.042l.171-.068.113.148c.931 1.26 1.861 2.496 2.712 3.643l-.215-.091a18.67 18.67 0 014.947-.125l-.204.091c.874-1.305 1.748-2.588 2.531-3.768l.09-.147.159.056c2.429.942 4.8 1.862 7.002 2.713l.159.056-.023.159c-.227 1.566-.454 3.098-.658 4.483l-.079-.193a18.365 18.365 0 013.574 3.416l-.181-.069c1.554-.306 3.075-.601 4.459-.873l.148-.023.057.136c1.066 2.406 2.076 4.71 3.03 6.866l.056.124-.102.08c-1.282.953-2.508 1.861-3.643 2.701l.057-.148c.273 1.725.284 3.393.114 4.937l-.057-.125c1.35.919 2.621 1.77 3.756 2.542l.08.056-.034.091c-1.113 2.849-2.043 5.198-2.747 6.991l-.022.056-.057-.011c-1.441-.227-2.553-.397-3.325-.522-.363-.057-.647-.113-.863-.148-.226-.011-.329-.034-.329-.034z" fill="#D0E4E9"/><path fill-rule="evenodd" clip-rule="evenodd" d="M507.619 149.885a28.958 28.958 0 01-5.322 5.595l1.385 7.024-10.826 4.801-4.279-5.742a28.753 28.753 0 01-7.716.192l-3.983 5.947-11.053-4.267 1.032-7.081a29.012 29.012 0 01-5.594-5.322l-7.025 1.384-4.8-10.826 5.742-4.278a28.8 28.8 0 01-.193-7.717l-5.946-3.983 4.256-11.053 7.081 1.033a28.987 28.987 0 015.322-5.595l-1.385-7.024 10.826-4.8 4.279 5.742a28.712 28.712 0 017.716-.193l3.983-5.947 11.053 4.256-1.032 7.081a28.982 28.982 0 015.594 5.322l7.025-1.384 4.8 10.826-5.742 4.278a28.8 28.8 0 01.193 7.717l5.946 3.983-4.255 11.053-7.082-1.022zm-11.96-12.074c2.519-6.548-.738-13.901-7.286-16.432-6.548-2.519-13.901.738-16.432 7.286-2.519 6.547.738 13.901 7.286 16.432 6.559 2.53 13.912-.738 16.432-7.286z" fill="#E9F1F5"/><path d="M79.016 193.745a3.404 3.404 0 100-6.808 3.404 3.404 0 000 6.808z" fill="#D0E4E9"/><path d="M79.017 298.362c-.16 0-.295-23.626-.295-52.779 0-29.153.136-52.78.295-52.78.159 0 .295 23.627.295 52.78 0 29.153-.136 52.779-.295 52.779zM206.295 26.51a3.4 3.4 0 01-3.404 3.404 3.4 3.4 0 01-3.405-3.405 3.4 3.4 0 013.405-3.404 3.4 3.4 0 013.404 3.404z" fill="#D0E4E9"/><path d="M202.892 243.381c-.159 0-.295-48.002-.295-107.205 0-59.214.136-107.204.295-107.204.159 0 .295 47.99.295 107.204 0 59.214-.136 107.205-.295 107.205zM24.467 153.63a3.647 3.647 0 01-3.643 3.643 3.647 3.647 0 01-3.642-3.643 3.647 3.647 0 013.642-3.643 3.647 3.647 0 013.643 3.643z" fill="#D0E4E9"/><path d="M21.04 153.63s.011.193.022.567c0 .397.012.954.023 1.68.011 1.498.023 3.677.046 6.502.022 5.697.045 13.981.079 24.41.023 20.891.068 50.328.102 84.645v.09l-.057.068A64903.27 64903.27 0 015.13 293.948l.057-.17v29.505c-.012 25.839-.023 50.373-.023 72.286l-.057-.17c6.968 8.454 13.504 16.387 19.541 23.706l.057.068v.091c-.045 21.856-.08 39.82-.102 52.348-.023 6.242-.045 11.121-.068 14.469a673.324 673.324 0 01-.034 3.79c-.012.851-.034 1.294-.034 1.294s-.023-.443-.034-1.294a663.41 663.41 0 01-.034-3.79c-.012-3.336-.034-8.227-.068-14.469-.023-12.528-.057-30.492-.102-52.348l.056.147c-6.048-7.308-12.596-15.217-19.586-23.66l-.057-.079v-.103c-.012-21.913-.012-46.447-.023-72.286v-29.596l.057-.079c5.56-7.694 10.973-15.184 16.137-22.345l-.057.159c.045-34.316.08-63.753.102-84.645.034-10.428.057-18.712.08-24.409.022-2.826.034-5.016.045-6.503.011-.726.023-1.282.023-1.679.011-.363.034-.556.034-.556zM280.466 107.352a4.096 4.096 0 100-8.193 4.096 4.096 0 000 8.193zM257.963 341.927a4.096 4.096 0 100-8.193 4.096 4.096 0 000 8.193z" fill="#D0E4E9"/><path d="M281.068 103.256c.011 0 .011.125.022.363 0 .261.012.613.023 1.055.012.965.023 2.338.046 4.12.022 3.62.045 8.885.079 15.512.023 13.323.068 32.161.102 54.335v.113l-.079.08a41778.346 41778.346 0 00-23.093 23.115l.09-.204v12.846c-.034 33.386-.068 63.606-.09 85.507-.035 10.929-.069 19.769-.091 25.919-.023 3.041-.046 5.413-.057 7.047-.011.783-.023 1.396-.034 1.827-.011.409-.034.625-.034.625s-.023-.216-.034-.625c-.011-.431-.011-1.044-.034-1.827-.012-1.634-.034-4.006-.057-7.047-.023-6.139-.057-14.99-.091-25.919-.022-21.901-.056-52.121-.09-85.507V201.62l.09-.09c8.16-8.148 15.978-15.956 23.116-23.094l-.079.193c.045-22.174.079-41.011.102-54.334.034-6.627.057-11.893.079-15.513.023-1.781.034-3.166.046-4.119.011-.454.011-.806.022-1.055.034-.239.034-.352.046-.352z" fill="#D0E4E9"/><path d="M157.908 335.594c-4.437-7.615-9.192-15.263-16.182-21.561-17.726-15.978-48.161-20.722-74.023-14.991-19.961 4.426-38.81 15.66-44.042 31.536-2.36 7.161-1.838 14.707-1.09 22.083 4.858 48.275 29.029 135.858 29.97 137.89l162.89-.67c-9.589-53.267-29.028-105.423-57.523-154.287z" fill="#455A64"/><path d="M215.419 489.893s-.102-.42-.272-1.237c-.171-.828-.409-2.054-.727-3.642-.329-1.601-.692-3.586-1.18-5.924-.51-2.338-1.101-5.027-1.759-8.057-2.735-12.109-7.262-29.516-14.537-50.487-7.353-20.926-17.612-45.37-31.626-71.152-.874-1.612-1.759-3.235-2.644-4.857-.92-1.612-1.839-3.235-2.769-4.869-1.85-3.268-3.734-6.57-5.777-9.816-4.062-6.479-8.828-12.823-15.138-17.703-.749-.658-1.577-1.214-2.394-1.781-.829-.556-1.623-1.158-2.474-1.691-1.748-.987-3.427-2.111-5.266-2.951l-2.723-1.339-2.826-1.168-1.418-.591-1.453-.499-2.905-.999c-7.853-2.428-16.171-3.722-24.602-4.062a104.563 104.563 0 00-24.853 2.201c-8.022 1.782-15.728 4.528-22.684 8.398-3.484 1.906-6.775 4.119-9.737 6.65-2.962 2.519-5.628 5.356-7.785 8.499-.499.806-1.044 1.589-1.509 2.418l-1.293 2.519-1.022 2.621a28.036 28.036 0 00-.794 2.69c-.874 3.631-1.1 7.342-1.01 10.996.102 3.654.431 7.263.874 10.803.431 3.541.783 7.059 1.339 10.486.964 6.877 2.122 13.527 3.28 19.95 2.337 12.834 4.913 24.727 7.319 35.553 4.857 21.663 9.294 39.071 12.426 51.077a1162.224 1162.224 0 003.7 13.811c.442 1.566.782 2.757 1.01 3.574.249.795.363 1.215.363 1.215s-.148-.398-.42-1.192c-.239-.817-.602-2.008-1.067-3.563a838.185 838.185 0 01-3.802-13.777 1380.954 1380.954 0 01-12.619-51.043c-2.428-10.826-5.038-22.719-7.387-35.565-1.17-6.423-2.338-13.073-3.314-19.961-.556-3.438-.908-6.945-1.35-10.497-.443-3.552-.772-7.172-.885-10.848-.091-3.677.124-7.445 1.01-11.133.226-.919.476-1.838.805-2.735.34-.885.692-1.781 1.044-2.678.431-.851.874-1.713 1.317-2.564.465-.84 1.021-1.635 1.532-2.452 2.178-3.2 4.88-6.071 7.886-8.624 2.996-2.565 6.31-4.789 9.828-6.718 7.013-3.904 14.775-6.673 22.843-8.466a104.663 104.663 0 0125-2.224c8.477.341 16.84 1.646 24.75 4.097l2.928.998 1.464.5 1.43.59 2.837 1.18 2.746 1.35c1.861.84 3.552 1.986 5.311 2.974.851.544 1.668 1.146 2.496 1.713.829.568 1.668 1.135 2.417 1.804 6.378 4.937 11.189 11.348 15.263 17.851 2.043 3.257 3.938 6.559 5.788 9.839.93 1.634 1.85 3.256 2.769 4.879.885 1.634 1.77 3.257 2.644 4.869 14.003 25.828 24.228 50.317 31.536 71.276 7.24 21.006 11.7 38.447 14.367 50.578.646 3.042 1.214 5.731 1.713 8.069.477 2.338.829 4.335 1.135 5.946.295 1.6.522 2.826.669 3.654.125.806.182 1.237.182 1.237z" fill="#263238"/><path d="M30.231 319.241c.011 0 0 .159-.045.454-.046.329-.102.772-.182 1.328a69.94 69.94 0 00-.488 5.129c-.25 4.46.045 10.951 1.373 18.849 2.746 15.774 6.105 37.653 11.02 61.574 2.473 11.961 5.174 23.287 8.034 33.477a370.645 370.645 0 008.59 26.759c2.814 7.489 5.322 13.47 7.15 17.544.918 2.02 1.633 3.586 2.133 4.698.227.522.408.93.544 1.225.114.273.17.42.17.432 0 0-4.675-8.761-10.383-23.752A351.745 351.745 0 0149.42 440.2c-2.893-10.191-5.617-21.528-8.09-33.5-4.926-23.955-8.217-45.834-10.85-61.631-1.27-7.921-1.509-14.446-1.18-18.928.33-4.483.931-6.9.931-6.9z" fill="#263238"/><path d="M51.328 357.756c.022.103-1.124.352-2.894.988a27.156 27.156 0 00-6.468 3.393c-4.721 3.325-7.014 7.58-7.172 7.444-.057-.034.42-1.112 1.532-2.678 1.1-1.555 2.905-3.541 5.288-5.254 2.383-1.702 4.845-2.769 6.684-3.303 1.838-.556 3.018-.658 3.03-.59zM44.916 368.628c-.012.182-2.156.102-4.698.704-2.542.567-4.449 1.566-4.528 1.407-.091-.125 1.747-1.396 4.403-1.986 2.644-.624 4.857-.272 4.823-.125zM40.274 423.586c-.068-.022-.045-.317.205-.692.238-.386.726-.817 1.384-1.055.658-.239 1.316-.205 1.736-.057.432.136.636.34.602.409-.068.147-1.033-.216-2.145.204-1.112.374-1.623 1.259-1.782 1.191zM42.475 428.228c-.158 0-.068-1.169.988-1.997 1.044-.84 2.201-.681 2.167-.522 0 .17-.942.283-1.793.987-.885.67-1.191 1.566-1.362 1.532z" fill="#263238"/><path d="M252.755 445.897s-3.632-89.059-6.991-104.493c-4.267-19.632-20.789-31.49-20.789-31.49l-6.332 153.164 6.581 3.937 3.881 2.043c1.748 6.514-1.849 8.102 15.956 12.687 1.43.363 29.879 4.857 29.879 4.857l2.792-28.903-24.977-11.802z" fill="#FFBE9D"/><path d="M301.313 485.581s-10.282.704-14.481 2.406c-4.561 1.838-10.179.772-13.992-1.702-3.824-2.474-6.059-4.732-6.059-4.732l-14.027.068s-6.876-6.832-3.098-17.306c.659-1.827 1.385-3.28 3.098-5.538 1.623-1.838 2.372-2.928 6.9-3.801l18.588 2.825s25.76-2.383 30.39-.317c0 0 5.833 3.302 7.649 4.698.68.522 2.859 7.047-1.26 10.553 0 0 3.711 2.826 1.793 5.481l-.919 1.181s2.519 3.132 1.293 4.539c-1.237 1.407-12.131 8.114-16.114 6.65-3.983-1.464-1.203-4.744.522-5.447" fill="#FFBE9D"/><path d="M312.126 467.107c-.011-.034-.488.17-1.35.51-.863.352-2.111.851-3.688 1.385-.783.272-1.657.545-2.599.817-.93.272-1.963.499-3.019.874-1.044.374-2.178.896-2.984 1.883-.772.965-1.282 2.384-.726 3.7.261.647.805 1.135 1.395 1.441.591.295 1.226.42 1.85.477 1.237.091 2.395-.091 3.495-.261 2.191-.386 4.097-1.01 5.663-1.6a58.717 58.717 0 003.654-1.532c.851-.386 1.305-.624 1.294-.647-.012-.034-.5.147-1.373.488-.874.329-2.122.84-3.688 1.384-1.566.545-3.462 1.135-5.618 1.487-1.078.159-2.235.318-3.393.227a4.797 4.797 0 01-1.679-.431c-.511-.261-.953-.67-1.18-1.215-.466-1.089-.034-2.371.658-3.234.715-.885 1.77-1.407 2.78-1.77 1.021-.363 2.043-.613 2.985-.908a43.66 43.66 0 002.598-.874 46.051 46.051 0 003.654-1.52c.829-.398 1.283-.647 1.271-.681z" fill="#EB996E"/><path d="M310.97 459.185c-.011-.034-.488.171-1.351.522-.862.352-2.099.863-3.665 1.419a67.906 67.906 0 01-5.549 1.725c-1.044.295-2.247.533-3.234 1.384-.477.42-.84 1.033-.919 1.702-.091.67.045 1.351.329 1.952.578 1.237 1.759 2.02 2.927 2.383 1.181.375 2.406.375 3.507.205 2.213-.375 4.029-1.215 5.595-1.748 1.497-.556 2.734-1.021 3.688-1.373.862-.341 1.339-.533 1.327-.568-.011-.034-.51.114-1.384.398-.953.317-2.213.737-3.734 1.237-1.577.499-3.415 1.293-5.549 1.634-1.066.159-2.213.147-3.313-.216-1.09-.34-2.145-1.067-2.644-2.156-.534-1.067-.386-2.406.487-3.132.84-.749 1.998-1.021 3.042-1.305a57.369 57.369 0 005.56-1.827 53.838 53.838 0 003.62-1.555c.829-.397 1.271-.658 1.26-.681z" fill="#EB996E"/><path d="M305.727 461.569c.136 0 .182-1.022.454-2.213.261-1.203.635-2.145.511-2.202-.103-.056-.693.84-.965 2.111-.284 1.26-.125 2.315 0 2.304z" fill="#EB996E"/><path d="M266.962 462.715l9.714-3.984s26.929-13.265 27.405-12.585c.477.681 1.952.568 1.691 3.893-.25 3.325-15.967 10.338-16.443 11.495-.477 1.158.476 6.945-5.288 11.235-5.765 4.278-9.987 4.46-9.987 4.46" fill="#FFBE9D"/><path d="M274.065 477.229c0 .012.08.012.238 0a9.06 9.06 0 00.681-.079c.59-.091 1.453-.295 2.531-.67 1.078-.374 2.36-.93 3.756-1.736 1.385-.817 2.973-1.793 4.449-3.223 1.475-1.418 2.666-3.438 3.222-5.799.295-1.168.375-2.439.5-3.665.011-.159.045-.295.09-.42.035-.091.125-.17.25-.272.238-.193.511-.363.783-.534.545-.34 1.124-.669 1.702-.998 2.338-1.305 4.812-2.633 7.32-4.142 1.248-.749 2.508-1.555 3.722-2.463.601-.465 1.203-.942 1.736-1.52.273-.284.522-.602.727-.965.09-.193.181-.386.215-.613.046-.227.034-.397.045-.601.012-.783-.034-1.623-.465-2.361-.215-.363-.567-.635-.885-.851a1.612 1.612 0 01-.386-.317c-.034-.023.023.011-.091-.091-.124-.08-.147-.046-.192-.057-.091 0-.125.011-.193.023a2.117 2.117 0 00-.295.079c-1.464.488-2.803 1.101-4.142 1.691a316.392 316.392 0 00-7.626 3.541 1004.7 1004.7 0 00-12.801 6.218c-.908.443-1.77.897-2.587 1.271-.84.352-1.634.681-2.372.988-1.475.624-2.746 1.157-3.801 1.6-1.01.431-1.816.783-2.395 1.032-.25.114-.454.205-.624.284-.136.068-.204.102-.204.113 0 .012.079-.011.227-.068.17-.068.374-.136.635-.238.59-.227 1.396-.545 2.429-.953 1.066-.42 2.349-.942 3.835-1.532.749-.307 1.544-.624 2.395-.965.851-.363 1.69-.805 2.61-1.237 3.665-1.747 8.011-3.824 12.834-6.128 2.429-1.134 4.971-2.326 7.626-3.506 1.328-.579 2.69-1.203 4.085-1.668.091-.023.171-.046.25-.068.023 0 .091-.012.091-.012 0-.011 0 .034.011-.034.034-.091-.011-.068.012-.113a.545.545 0 01.034-.034c-.307.215-.08.068-.137.125l.023.034c.148.193.329.306.477.408.317.216.578.42.749.715.351.59.42 1.362.397 2.099-.011.398-.023.715-.204 1.022a4.373 4.373 0 01-.659.862c-.51.534-1.089 1.01-1.679 1.464-1.192.897-2.44 1.691-3.688 2.44-2.485 1.509-4.959 2.837-7.297 4.153a41.86 41.86 0 00-1.713 1.01c-.284.182-.557.352-.818.568-.124.102-.295.227-.374.442a2.232 2.232 0 00-.102.511c-.125 1.282-.193 2.485-.477 3.643-.522 2.292-1.657 4.255-3.075 5.651-1.419 1.407-2.985 2.394-4.346 3.223-1.385.817-2.633 1.396-3.688 1.781a17.395 17.395 0 01-2.486.738c-.295.068-.51.102-.669.125-.148.068-.216.079-.216.079zM304.08 477.887c-.011-.022-.386.057-1.032.33-.647.272-1.555.737-2.531 1.532-.477.408-.987.862-1.453 1.463-.442.591-.885 1.385-.737 2.304.136.931.953 1.657 1.849 1.918.931.295 1.93.125 2.849-.148 3.62-1.18 6.763-2.587 8.942-3.813a30.865 30.865 0 002.508-1.554c.567-.397.862-.647.851-.67-.023-.034-.352.17-.942.522s-1.464.851-2.564 1.419c-2.191 1.135-5.345 2.485-8.92 3.654-.874.261-1.793.408-2.587.159-.795-.239-1.453-.829-1.566-1.566-.125-.727.227-1.453.635-2.009.409-.567.908-1.044 1.351-1.453 1.861-1.588 3.393-2.008 3.347-2.088z" fill="#EB996E"/><path d="M103.186 216.599c-2.508-.533-3.439-4.38-1.453-6.015-1.838-1.01-1.316-3.915.125-5.435 1.441-1.521 3.495-2.463 4.619-4.233-2.338.601-4.982-1.305-5.141-3.722-1.543.136-3.12-.885-3.631-2.349-.51-1.464.102-3.246 1.407-4.086-1.963-.17-1.793-3.415-.159-4.505 1.646-1.089 3.802-1.01 5.595-1.849a23.237 23.237 0 0112.324-7.229c-2.678-1.997-5.357-3.995-8.046-5.992-.636-.476-1.305-.976-1.623-1.713-.703-1.6.556-3.359 1.873-4.494a18.9 18.9 0 019.997-4.369c1.18-.136 2.678.045 3.053 1.169 2.496-1.181 5.39-1.056 8.148-.908 1.543.079 3.245.227 4.346 1.316-.59-1.43-1.816-2.462-2.871-3.597-1.055-1.124-2.02-2.542-1.861-4.074.159-1.532 2.008-2.86 3.279-1.997-1.429-.67-1.237-2.962-.022-3.972 1.214-1.01 2.928-1.09 4.505-1.124 1.101-.022 2.496.159 2.803 1.215.499-2.463 4.709-2.803 5.606-.454 1.486-1.453 4.255-1.237 5.492.431 2.417-1.498 6.083-.136 6.934 2.576-1.43-2.394-2.849-4.778-4.278-7.172-.806-1.35-.942-3.892.624-3.722-2.247.011-3.541-3.064-2.44-5.027s3.643-2.712 5.878-2.429c.647.942 1.305 1.884 1.952 2.826 1.509-1.055 3.688-1.033 5.175.045 1.486 1.078 2.179 3.155 1.634 4.903.908-.965 2.667-.443 3.382.669.714 1.112.692 2.531.646 3.858 2.179-1.838 6.208.307 5.901 3.144a12.352 12.352 0 016.457-1.339c-.998-1.612-.794-3.87.488-5.266 1.283-1.395 3.518-1.804 5.209-.942.204-2.53 3.2-4.414 5.572-3.506.692-2.61 4.119-4.539 6.207-2.826 2.156 1.782.999 5.232-.329 7.694-1.43 2.667-2.859 5.345-4.289 8.012 4.664-2.497 9.316-4.993 13.98-7.49.432-.238.908-.476 1.396-.42.67.08 1.146.693 1.759.999.84.42 1.873.216 2.769.488 2.463.76 2.429 4.516.738 6.468-1.691 1.952-4.279 2.883-6.185 4.608 2.065.385 4.142.783 6.207 1.168.772-3.415 4.937-5.594 8.194-4.3.839-2.293 3.915-2.588 6.355-2.486 2.19.091 4.595.273 6.139 1.816 1.986 1.975 1.611 5.447-.057 7.705-1.668 2.247-4.278 3.564-6.786 4.801.42 1.861 2.826 2.428 4.709 2.156 1.884-.273 3.847-1.01 5.629-.341 2.417.908 3.45 4.04 5.878 4.925.738.273 1.566.307 2.224.738.931.613 1.249 1.804 1.498 2.894.307 1.35.602 2.689.908 4.039.148.67.295 1.351.17 2.02-.442 2.191-3.506 2.667-5.571 1.827-2.066-.839-3.847-2.485-6.06-2.803 2.916 1.453 5.992 3.064 7.626 5.879 1.634 2.825.964 7.206-2.111 8.307-3.109 1.112-6.162-1.578-8.42-3.972-2.259-2.406-5.504-4.959-8.511-3.586" fill="#263238"/><path d="M107.669 214.681c-2.349-1.759-6.355.556-6.014 3.472-2.894.817-5.243 3.314-5.879 6.253-.635 2.939.466 6.185 2.77 8.125 1.838 1.544 5.48 1.6 5.866-.76.738 1.986 2.531 3.541 4.596 3.983-1.986 2.894-.692 7.467 2.531 8.886-3.734 2.564-3.03 9.339 1.157 11.075-1.1 2.451.137 5.674 2.588 6.775 2.451 1.089 5.674-.147 6.763-2.599.806 1.918 1.691 3.95 3.405 5.107 1.724 1.169 4.527.965 5.401-.931.953 4.12 6.4 6.412 10.009 4.222-.25 2.27 1.475 4.596 3.734 4.982 2.258.397 4.675-1.192 5.208-3.416 3.904.295 7.808.601 11.711.896 2.588.193 5.198.398 7.785.114a21.095 21.095 0 009.272-3.359c.885-.59 1.781-1.271 2.848-1.407 1.214-.159 2.394.408 3.529.862 6.026 2.372 13.266 1.305 18.35-2.701.806-.635 1.577-1.339 2.53-1.69 1.101-.398 2.327-.261 3.496-.182a34.27 34.27 0 008.613-.488c2.428-.454 5.027-1.316 6.343-3.416 1.305-2.099.284-5.606-2.179-5.776-.056-1.611.443-3.314 1.691-4.335 1.249-1.01 3.314-1.055 4.335.193 1.022 1.248.227 3.575-1.373 3.643 2.485 2.054 6.82-.159 7.161-3.359.34-3.212-2.622-6.151-5.833-6.446a14.64 14.64 0 00.794-7.058c1.453 2.224 4.823 2.905 7.013 1.418 1.169 2.168 3.053 4.074 5.447 4.676 2.395.59 5.254-.454 6.208-2.724.953-2.27-.783-5.379-3.246-5.299 1.963-2.599-.272-7.059-3.529-7.048.783-3.098-.862-6.627-3.734-8.011 1.793 1.339 4.767.476 5.561-1.612 1.294 2.474 4.97 2.213 7.49 1.01 1.974-.942 3.915-2.36 3.608-5.231-.147-1.339-.817-2.588-1.793-3.507-2.315-2.19-5.537-2.587-8.601-2.927a37.688 37.688 0 01-2.599-11.973c3.416.409 7.115-1.838 7.83-5.197l-16.965-10.542s-39.264-6.06-40.672-6.06c-1.407 0-83.464 42.26-83.464 42.26-1.895 1.986-5.606 1.089-7.002-1.283-1.396-2.371-.84-5.492.658-7.796 1.498-2.303 3.779-3.96 6.003-5.571-2.621-.182-5.424-.42-7.376-2.338-1.214-1.192-1.781-2.973-1.123-4.539.942-2.259 3.563-2.111 5.243-3.393.987-.749 1.543-1.918 2.156-2.996" fill="#263238"/><path d="M217.336 205.75c-.976-14.015-10.383-31.162-24.353-29.584l-43.554 11.325a8.214 8.214 0 00-7.296 8.386l4.823 94.109-10.497 5.016c-.102.023 10.86 6.105 10.758 6.128 0 0 10.077 29.63 38.867 20.426 5.708-1.827 8.295-8.091 9.396-14.525l.295.034c.011-.76 9.521-8.057 9.532-8.783-.011.726-9.385-5.323-9.385-5.323l-.022-2.553c.045-8.499.011-11.983.022-11.904 0 0 17.896-3.098 21.448-26.497 1.77-11.621 1.055-30.685-.034-46.255z" fill="#FFBE9D"/><path d="M211.459 222.636c.068 1.578-1.215 2.939-2.871 3.041-1.646.103-3.042-1.1-3.11-2.678-.068-1.577 1.214-2.95 2.871-3.041 1.646-.113 3.041 1.09 3.11 2.678zM213.275 215.691c-.375.397-2.656-1.271-5.879-1.237-3.222-.011-5.583 1.657-5.935 1.271-.17-.17.205-.885 1.226-1.634 1.01-.749 2.735-1.498 4.743-1.498 2.009 0 3.7.727 4.687 1.476.999.737 1.339 1.452 1.158 1.622zM180.649 222.762c.068 1.578-1.214 2.939-2.871 3.042-1.645.102-3.041-1.101-3.109-2.679-.068-1.577 1.214-2.95 2.871-3.041 1.645-.102 3.041 1.09 3.109 2.678zM181.568 216.509c-.374.397-2.655-1.271-5.878-1.237-3.223-.011-5.583 1.657-5.935 1.271-.17-.17.193-.885 1.226-1.634 1.01-.76 2.735-1.498 4.743-1.498 2.009 0 3.7.726 4.687 1.475.987.749 1.339 1.453 1.157 1.623zM193.438 240.352c-.011-.182 1.986-.545 5.231-.976.829-.091 1.6-.261 1.737-.829.192-.601-.159-1.486-.568-2.44-.783-1.986-1.611-4.074-2.474-6.252-3.438-8.909-5.946-16.239-5.583-16.376.363-.136 3.45 6.979 6.888 15.888.829 2.201 1.623 4.289 2.372 6.298.318.93.862 1.997.454 3.234-.216.613-.817 1.067-1.35 1.214-.522.17-.988.182-1.396.205-3.269.192-5.3.226-5.311.034z" fill="#263238"/><path d="M195.924 278.514s-15.717 1.123-31.366-8.137c0 0 7.705 16.012 31.082 13.663l.284-5.526zM193.812 247.626c-1.623-2.27-4.233-3.654-6.707-3.552-1.713.068-3.381.863-4.289 2.372-.919 1.509-.942 3.756.147 5.356 1.226 1.804 3.507 2.383 5.357 1.929 1.849-.454 3.37-1.736 4.8-3.018.397-.352.806-.727 1.021-1.237.227-.511.216-1.214-.147-1.68" fill="#EB996E"/><path d="M183.952 242.655c.522-.034.556 3.473 3.574 5.935 3.008 2.474 6.741 2.054 6.775 2.542.045.216-.828.681-2.406.738-1.543.068-3.801-.42-5.651-1.929-1.838-1.51-2.644-3.541-2.769-4.971-.147-1.464.238-2.337.477-2.315zM182.976 209.064c-.306.874-3.541.488-7.319.964-3.791.409-6.832 1.532-7.343.749-.227-.374.295-1.203 1.532-2.065 1.215-.851 3.166-1.679 5.436-1.94 2.27-.262 4.358.079 5.731.635 1.396.556 2.099 1.237 1.963 1.657zM212.025 206.363c-.567.738-2.791-.011-5.458-.022-2.667-.114-4.937.522-5.459-.239-.227-.374.125-1.112 1.101-1.804.965-.692 2.599-1.271 4.437-1.226 1.839.046 3.427.704 4.369 1.442.942.737 1.248 1.486 1.01 1.849z" fill="#263238"/><path d="M142.031 219.844c-.658 1.532-.136 3.62 1.112 4.483 1.249.862 3.03.374 3.836-1.056 1.021 1.374 3.359-.022 3.041-1.815 1.26.715 2.928-.988 2.52-2.576 1.464.567 2.349-1.805 3.12-3.393.42-.863.999-1.612 1.51-2.417 1.588-2.52 2.462-5.674 2.428-8.818 1.918-2.167 2.406-5.526 2.792-8.636.238-1.94.488-3.881.726-5.821.363-.454.726-.897 1.089-1.351-.079 1.408.954 2.622 2.088 3.03 1.135.397 2.361.182 3.53-.045 1.157-.227 2.315-.443 3.483-.67.727.216 1.442.432 2.168.636-.647 1.804-.011 3.858.624 5.674.431 1.248.965 2.61 1.997 3.166 1.044.556 2.599-.443 2.304-1.748.76.886 2.133.534 2.826-.431.692-.964.828-2.315.794-3.586-.079-3.075-1.067-6.105-2.758-8.443 2.009 1.895 4.018 3.791 6.015 5.686.442.42.919.851 1.475.907-.17 1.022.829 1.873 1.691 1.771.874-.102 1.589-.817 2.247-1.51 1.475-1.543 3.052-4.164 1.747-5.912.693-.125 1.044-1.294.591-1.918 2.281 1.748 4.561 3.496 6.831 5.254-.681-.397-1.441.659-1.294 1.544.148.885.806 1.509 1.419 2.042-.59.92-.885 2.1-.806 3.246-1.225-1.112-3.086.931-2.701 2.712.386 1.77 2.077 2.724 3.609 2.848 1.271.103 2.837-.499 3.064-1.985 1.509.329 2.962-1.737 2.428-3.439 1.09.738 2.054-1.214 2.123-2.701.124-2.712-.273-5.469-1.158-7.977-.045.374.375.703.647.499.272-.204.204-.794-.102-.908 1.282 3.155 2.553 6.298 3.835 9.453 1.01 2.497 2.043 5.084 2.088 7.853.012 1.123.137 2.667 1.078 2.78.25.023.511-.079.749-.193 2.724-1.328 4.846-4.074 6.219-7.172.465-1.044.851-2.145.965-3.313.227-2.417-.772-4.744-.942-7.172-.068-1.067.023-2.156-.193-3.2-.352-1.68-1.43-2.974-2.463-4.177-3.676-4.289-7.569-8.726-12.516-10.474-3.019-1.066-6.253-1.044-9.283-2.076-1.873-.636-3.631-1.669-5.447-2.52-7.467-3.529-15.728-4.005-23.74-3.336-4.483.375-8.999 1.101-13.175 3.053-4.585 2.144-8.602 5.708-12.381 9.464-5.64 5.606-10.962 11.881-14.571 19.507-2.769 5.856-4.482 12.687-3.518 19.303.965 6.616 5.05 12.823 10.588 14.208.726-.829 1.453-1.668 2.19-2.497" fill="#263238"/><path d="M148.42 224.327c-.318-.148-13.016-4.176-12.903 8.874.114 13.05 13.198 10.236 13.209 9.873.023-.386-.306-18.747-.306-18.747z" fill="#FFBE9D"/><path d="M144.698 238.162c-.057-.046-.227.158-.613.34a2.303 2.303 0 01-1.702.045c-1.385-.499-2.565-2.666-2.644-5.027a7.363 7.363 0 01.612-3.257c.386-.953.999-1.634 1.691-1.759.692-.17 1.18.25 1.351.613.181.363.102.624.17.647.034.034.284-.216.17-.76a1.477 1.477 0 00-.522-.817c-.318-.25-.772-.375-1.26-.318-1.01.079-1.906 1.01-2.36 2.043-.511 1.032-.806 2.315-.76 3.642.102 2.633 1.475 5.073 3.37 5.606.919.227 1.68-.056 2.077-.363.397-.329.465-.613.42-.635z" fill="#EB996E"/><path d="M191.088 220.344c-.09.012.012-1.384-.59-3.744a15.377 15.377 0 00-5.64-8.375c-1.724-1.294-3.915-2.383-6.423-2.826-2.496-.42-5.31-.34-7.989.681-1.35.465-2.644 1.18-3.835 2.077a14.424 14.424 0 00-3.212 3.223c-1.872 2.485-2.916 5.674-2.95 8.964.034 3.291 1.078 6.492 2.95 8.977a14.218 14.218 0 003.212 3.223c1.191.896 2.496 1.6 3.835 2.076 2.679 1.022 5.493 1.101 7.989.681 2.508-.442 4.687-1.532 6.423-2.825a15.459 15.459 0 005.64-8.375c.602-2.383.511-3.768.59-3.757.023 0 .023.341.012.988 0 .329-.012.726-.091 1.203-.057.476-.125 1.021-.284 1.611-.533 2.372-2.054 5.901-5.606 8.659-1.759 1.35-3.994 2.496-6.581 2.973-2.576.454-5.482.397-8.262-.647a14.647 14.647 0 01-3.994-2.133 14.777 14.777 0 01-3.337-3.337c-1.94-2.576-3.041-5.901-3.075-9.317.034-3.415 1.135-6.74 3.075-9.305a14.773 14.773 0 013.337-3.336 14.936 14.936 0 013.994-2.134c2.78-1.044 5.686-1.112 8.262-.646 2.587.476 4.822 1.622 6.581 2.973 3.552 2.757 5.073 6.287 5.606 8.658.171.602.227 1.146.284 1.612.079.465.091.873.091 1.203.023.635.011.975-.012.975zM227.913 220.344c-.091.012.011-1.384-.59-3.744a15.388 15.388 0 00-5.64-8.375c-1.737-1.294-3.915-2.383-6.423-2.826-2.497-.42-5.311-.34-7.989.681-1.351.465-2.644 1.18-3.836 2.077a14.4 14.4 0 00-3.211 3.223c-1.873 2.485-2.917 5.674-2.951 8.964.034 3.291 1.078 6.492 2.951 8.977a14.194 14.194 0 003.211 3.223c1.192.896 2.497 1.6 3.836 2.076 2.678 1.022 5.492 1.101 7.989.681 2.508-.442 4.686-1.532 6.423-2.825a15.47 15.47 0 005.64-8.375c.59-2.383.499-3.768.59-3.757.022 0 .022.341.011.988 0 .329-.011.726-.091 1.203a11.022 11.022 0 01-.283 1.611c-.534 2.372-2.054 5.901-5.606 8.659-1.759 1.35-3.995 2.496-6.582 2.973-2.576.454-5.481.397-8.262-.647a14.661 14.661 0 01-3.994-2.133 14.773 14.773 0 01-3.336-3.337c-1.941-2.576-3.042-5.901-3.076-9.317.034-3.415 1.135-6.74 3.076-9.305a14.768 14.768 0 013.336-3.336 14.936 14.936 0 013.994-2.134c2.781-1.044 5.686-1.112 8.262-.646 2.587.476 4.823 1.622 6.582 2.973 3.552 2.757 5.072 6.287 5.606 8.658.17.602.227 1.146.283 1.612.08.465.091.873.091 1.203.011.635 0 .975-.011.975z" fill="#455A64"/><path d="M197.648 216.714c-.068.159-1.566-.454-3.495-.5-1.93-.079-3.461.432-3.518.261-.08-.136 1.464-.93 3.54-.851 2.077.057 3.564.965 3.473 1.09zM160.052 221.876c.045.148-2.837 1.067-6.514 1.657-3.677.602-6.696.636-6.707.477-.011-.17 2.973-.465 6.616-1.056 3.631-.59 6.559-1.248 6.605-1.078z" fill="#455A64"/><path d="M189.466 217.905c.068 0 .147 1.123-.159 2.916-.306 1.782-1.067 4.222-2.565 6.571-1.498 2.337-3.336 4.13-4.925 5.061-1.634.953-2.893.692-2.848.624-.011-.102 1.157 0 2.633-.987 1.452-.965 3.2-2.758 4.641-5.016 1.453-2.281 2.247-4.619 2.655-6.344.398-1.713.466-2.825.568-2.825zM223.135 227.834c-.08-.046.476-.942 1.248-2.44.374-.749.783-1.657 1.033-2.712.249-1.056.238-2.259.056-3.518-.34-2.542-1.032-4.766-1.838-6.219-.794-1.464-1.589-2.179-1.509-2.247.022-.022.249.114.601.454.352.329.817.851 1.271 1.589.942 1.464 1.714 3.756 2.065 6.355.193 1.293.193 2.598-.113 3.722-.284 1.123-.76 2.054-1.192 2.791-.896 1.464-1.566 2.27-1.622 2.225z" fill="#fff"/><path d="M139.205 242.62c.023.057-.341.159-.851.545-.511.374-1.169 1.101-1.487 2.19-.34 1.067-.25 2.553.783 3.631.965 1.079 2.724 1.748 4.346 1.271 1.623-.487 2.747-1.963 3.087-3.381.375-1.453-.091-2.826-.726-3.756a5.573 5.573 0 00-1.986-1.816c-.567-.318-.919-.42-.908-.465.011-.034.386 0 1.01.261a5.511 5.511 0 012.224 1.781c.727.965 1.305 2.485.919 4.12-.351 1.588-1.566 3.245-3.449 3.824-1.895.545-3.836-.238-4.914-1.475a4.068 4.068 0 01-.987-2.111 4.288 4.288 0 01.215-2.009c.409-1.18 1.18-1.906 1.759-2.247.579-.351.965-.385.965-.363zM193.336 182.907c-.068-.046.669-.454.874-1.68.09-.579-.012-1.373-.59-1.963-.545-.59-1.555-.953-2.497-.647l-.545.182.239-.522c.397-.874.181-2.157-.681-2.894-.84-.726-2.349-.726-3.246.113l-.431-.408c.068-.091.136-.204.181-.329.125-.397.035-.874-.204-1.226-.227-.363-.635-.579-1.055-.669a2.822 2.822 0 00-1.305.056c-.409.102-.863.398-1.464.329-.624-.113-.897-.578-1.226-.783-.306-.261-.669-.453-1.01-.624a5.553 5.553 0 00-2.099-.476 5.726 5.726 0 00-3.041.726c-.658.374-.953.692-.988.647-.022-.012.227-.386.874-.84.636-.443 1.737-.953 3.166-.953.715 0 1.498.125 2.281.454.386.181.783.374 1.135.669.375.273.658.624.976.658.329.046.738-.17 1.226-.329a3.209 3.209 0 011.577-.079c.533.113 1.089.397 1.43.908.329.488.476 1.123.284 1.747a1.952 1.952 0 01-.284.522l-.431-.408c1.146-1.067 2.95-1.044 4.017-.114 1.067.942 1.282 2.452.771 3.53l-.306-.341c1.18-.363 2.338.136 2.962.84.658.738.715 1.657.567 2.292a2.608 2.608 0 01-.726 1.328c-.25.238-.42.306-.431.284zM207.907 186.698c-.068-.046.692-.409 1.112-1.634.193-.59.261-1.419-.136-2.213-.375-.783-1.215-1.532-2.293-1.668l-.42-.057.284-.318c.704-.783 1.305-1.986.999-3.189-.137-.578-.579-1.066-1.169-1.316-.579-.25-1.305-.216-1.725.227l-1.668 1.77 1.214-2.111c.42-.726.488-1.702.159-2.541-.307-.863-1.078-1.521-2.02-1.725-.658-.159-1.373-.091-1.952.193l-.681.329.284-.704c.397-.999-.624-2.167-1.634-2.304-1.09-.181-2.168.273-3.098.772l-.568.306.182-.612c.216-.749-.159-1.578-.704-2.088-.567-.511-1.305-.761-1.997-.897a10.12 10.12 0 00-3.745.091c-2.076.454-3.109 1.214-3.143 1.123-.011-.022.227-.215.738-.51a9.772 9.772 0 012.337-.931 10.135 10.135 0 013.893-.215c.749.113 1.577.363 2.258.964.658.59 1.157 1.566.885 2.599l-.386-.307c.953-.522 2.122-1.066 3.45-.862a2.766 2.766 0 011.713 1.021c.42.534.681 1.328.375 2.066l-.397-.375a3.48 3.48 0 012.349-.238c1.101.238 2.065 1.067 2.428 2.099.386 1.01.295 2.156-.215 3.042l-.454-.341c.647-.669 1.657-.658 2.349-.34.726.306 1.305.953 1.464 1.69.329 1.476-.397 2.781-1.169 3.621l-.136-.375a3.39 3.39 0 012.553 1.963c.408.908.295 1.827.045 2.451a3.248 3.248 0 01-.885 1.271c-.295.216-.465.284-.476.273zM239.33 189.421c-.069.034.147-.783-.761-1.6a2.84 2.84 0 00-1.94-.703c-.84-.012-1.771.283-2.792.658l-.329.113.045-.34c.137-1.044-.817-2.156-2.054-2.463-1.271-.317-2.712.125-4.153.67l-1.827.681 1.566-1.158c.851-.635.692-2.19-.159-2.984-.885-.829-2.303-.988-3.643-.863l-.181.012-1.158.102.965-.647c1.18-.795.896-2.86-.25-3.529-1.169-.738-2.757-.42-3.756.363l-1.203.953.806-1.305c1.033-1.68.817-3.768-.011-5.141-.84-1.418-2.293-2.054-3.462-2.213a5.344 5.344 0 00-2.757.352c-.602.261-.897.488-.919.454-.012-.011.056-.079.193-.193.136-.113.351-.261.658-.42a5.195 5.195 0 012.871-.522c1.237.114 2.848.749 3.813 2.293.942 1.486 1.225 3.745.091 5.662l-.398-.351c1.135-.908 2.928-1.328 4.403-.42.727.454 1.181 1.282 1.271 2.133.091.84-.204 1.838-1.01 2.36l-.193-.544.182-.012c1.407-.124 2.996 0 4.097 1.033a3.05 3.05 0 01.885 1.929c.057.704-.204 1.475-.795 1.918l-.261-.488c1.453-.522 3.008-1.01 4.472-.624 1.418.386 2.53 1.668 2.349 2.996l-.284-.227c1.033-.352 2.031-.636 2.939-.59.908.011 1.668.42 2.099.862.454.454.625.953.647 1.283.023.34-.045.51-.056.51zM222.863 159.507c.011.023-.25.17-.772.272-.522.114-1.316.148-2.281.114-.953-.012-2.167-.08-3.279.488-.556.284-1.01.76-1.146 1.43-.159.635.011 1.418.601 1.725l-.397.283c-.125-.749-1.056-1.237-1.895-1.736-.863-.499-1.771-.965-2.746-1.18-.999-.239-2.009-.102-2.792.431-.794.499-1.316 1.35-1.214 2.168l.09.726-.544-.477a6.47 6.47 0 00-3.836-1.577 7.313 7.313 0 00-3.291.476c-1.77.704-2.451 1.691-2.519 1.612-.023-.012.136-.261.499-.647a6.351 6.351 0 011.895-1.282 7.465 7.465 0 013.45-.624 6.952 6.952 0 014.176 1.634l-.454.238c-.147-1.078.522-2.145 1.442-2.724.907-.624 2.144-.783 3.234-.522 1.089.239 2.042.749 2.916 1.26.431.261.863.499 1.271.817.397.306.794.76.874 1.328l.079.556-.488-.272c-.896-.5-1.044-1.578-.839-2.327.17-.806.794-1.43 1.429-1.725 1.306-.613 2.565-.465 3.518-.42.965.08 1.725.103 2.236.046.499-.046.772-.136.783-.091zM193.721 148.204c-.011.08-.602-.102-1.543.216a3.836 3.836 0 00-1.476.93c-.476.477-.873 1.169-.942 1.975l-.022.318-.307-.102c-.76-.261-1.747.317-2.144 1.203-.42.907-.295 2.076-.114 3.245l.182 1.158-.715-.942c-.034-.046-.068-.102-.114-.148-.476-.59-1.282-.862-2.02-.84a2.803 2.803 0 00-1.929.84c-.998.999-1.271 2.395-1.18 3.473.079 1.1.42 1.963.658 2.542.238.578.397.896.363.919-.034.022-.261-.261-.567-.817-.307-.568-.715-1.43-.863-2.599-.147-1.146.08-2.701 1.215-3.892 1.066-1.215 3.449-1.532 4.789.011.045.068.102.136.147.193l-.533.204c-.171-1.18-.329-2.451.193-3.574.51-1.079 1.736-1.816 2.825-1.442l-.329.216a3.584 3.584 0 011.158-2.224 3.787 3.787 0 011.668-.919 3.118 3.118 0 011.214-.069c.25.046.386.103.386.125zM168.006 166.066c-.011.034-.295.011-.772-.171a4.945 4.945 0 01-1.77-1.259c-.624-.681-1.214-1.691-1.339-2.951-.057-.612-.034-1.214-.386-1.6-.34-.408-1.055-.669-1.498-1.362-.874-1.384-.42-3.222.76-3.971l-.022.431c-1.351-1.18-2.122-2.519-2.508-3.495-.397-.976-.465-1.6-.409-1.612.068-.022.239.568.704 1.476.465.907 1.26 2.133 2.565 3.222l.283.227-.306.205c-.897.578-1.26 2.122-.568 3.2.296.51.942.737 1.442 1.305.533.624.442 1.396.488 1.929.09 1.112.578 2.065 1.112 2.723 1.112 1.34 2.281 1.601 2.224 1.703zM160.438 171.23c0 .023-.171.057-.488.068a6.454 6.454 0 01-1.396-.125 7.79 7.79 0 01-4.347-2.474l.386-.011c-.76.976-2.031 1.679-3.461 1.827a5.264 5.264 0 01-2.201-.261c-.693-.284-1.464-.636-1.873-1.464-.136-.318-.159-.624-.238-.851a1.189 1.189 0 00-.363-.545c-.352-.306-.863-.465-1.362-.601-.499-.125-1.067-.307-1.521-.624-.454-.295-.885-.84-.839-1.453l.374.261c-1.26.511-2.576.431-3.597.08a5.642 5.642 0 01-2.361-1.476 4.72 4.72 0 01-.976-1.509c-.136-.397-.17-.613-.147-.624.091-.046.272.885 1.339 1.906.533.5 1.294 1.01 2.27 1.283.953.295 2.144.317 3.245-.148l.397-.17-.022.431c-.023.363.227.715.612.965.386.261.829.397 1.362.533.511.148 1.078.295 1.589.715.25.204.454.499.556.817.091.318.113.59.216.783.249.545.919.919 1.532 1.158a4.788 4.788 0 001.951.249c1.283-.113 2.429-.726 3.121-1.577l.193-.227.193.227c1.305 1.532 2.916 2.224 4.04 2.519 1.123.284 1.816.25 1.816.318zM113.945 189.329c-.011 0-.034-.068-.068-.204a3.66 3.66 0 01-.102-.613c-.046-.544-.023-1.361.283-2.337.284-.988.84-2.1 1.589-3.303.386-.59.749-1.248 1.305-1.861.284-.295.602-.59 1.022-.794.408-.216.987-.261 1.441 0l-.375.238c-.136-1.362.522-2.882 1.85-3.722 1.316-.828 3.211-.76 4.539.306l-.476.227a2.688 2.688 0 011.089-2.201c.692-.545 1.702-.636 2.519-.306.454.181.863.476 1.158.873l-.534.193c-.045-.556.25-1.066.625-1.384a2.242 2.242 0 011.327-.556c.953-.068 1.782.317 2.519.647l-.363.113c.59-.953 1.578-1.532 2.554-1.782a5.903 5.903 0 012.882 0c1.816.454 3.212 1.43 4.437 2.213l-.306.261a1.05 1.05 0 01.113-1.021c.204-.272.465-.431.726-.556.534-.227 1.067-.306 1.566-.238a8.71 8.71 0 012.35.715 7.736 7.736 0 011.327.783c.284.215.409.34.397.363-.034.045-.612-.42-1.827-.92a8.863 8.863 0 00-2.292-.59c-.431-.045-.919.046-1.373.25-.454.204-.828.624-.613 1.055l.318.647-.636-.386c-1.248-.76-2.632-1.668-4.323-2.076-.84-.193-1.748-.216-2.633.022-.874.239-1.713.749-2.201 1.555l-.125.216-.227-.102c-.738-.318-1.487-.647-2.247-.591-.704.035-1.464.636-1.407 1.317l.091 1.033-.625-.84a2.074 2.074 0 00-.896-.681c-.658-.261-1.407-.182-1.941.227-.544.397-.885 1.078-.862 1.713l.023.636-.488-.409c-1.112-.907-2.769-.987-3.881-.295-1.135.693-1.737 2.032-1.634 3.2l.045.488-.409-.249c-.624-.375-1.395.136-1.895.669-.522.534-.896 1.192-1.293 1.771-.761 1.168-1.339 2.235-1.657 3.177-.658 1.941-.295 3.121-.386 3.109zM117.224 206.59c-.012.011-.125-.114-.295-.375-.171-.261-.432-.646-.693-1.18-.249-.544-.544-1.259-.465-2.156.034-.442.17-.908.443-1.35.272-.432.703-.84 1.293-.988l-.125.318a2.791 2.791 0 01-.113-2.916c.545-.976 1.816-1.589 3.053-1.294l-.273.42c-.579-.76-.476-1.861.091-2.621.59-.783 1.566-1.135 2.508-1.169.488-.023.942.068 1.316 0 .375-.057.613-.307.817-.704.205-.374.363-.874.761-1.271a2.512 2.512 0 011.384-.76c1.112-.227 2.156-.08 3.143-.08.976.023 1.941-.124 2.542-.737.295-.307.5-.726.806-1.124a2.953 2.953 0 011.192-.919c.908-.386 1.952-.318 2.757.148l-.352.363c-.59-.942-.238-2.043.318-2.712.59-.715 1.453-.999 2.202-1.09 1.543-.147 2.825.205 3.858.477a12.89 12.89 0 012.304.919c.51.272.76.443.749.465-.034.068-1.09-.567-3.132-1.1-1.01-.227-2.304-.522-3.723-.352-.692.102-1.429.374-1.895.976-.465.578-.692 1.486-.261 2.133l.624.919-.975-.556c-.647-.374-1.532-.42-2.281-.091-.375.171-.715.42-.965.749-.261.341-.465.783-.84 1.181a3.13 3.13 0 01-1.396.783c-.522.124-1.044.147-1.554.147-1.022 0-2.054-.136-3.007.068-.443.08-.817.295-1.09.59-.295.273-.442.715-.681 1.147-.204.431-.658.93-1.237.998-.533.091-.987-.023-1.395 0-.829.023-1.646.341-2.088.931-.454.578-.511 1.452-.114 1.963l.465.601-.737-.193c-.988-.249-2.066.239-2.508 1.033-.465.794-.386 1.793.045 2.451l.159.25-.284.068c-.942.238-1.418 1.203-1.509 1.975-.102.794.136 1.497.352 2.031.499 1.055.862 1.611.806 1.634zM118.224 242.461c-.012.023-.216-.022-.568-.181a4.207 4.207 0 01-1.35-1.056 4.153 4.153 0 01-.987-2.496 4.463 4.463 0 011.214-3.291l-.023.318c-.567-.817-1.26-1.725-1.532-2.928a3.264 3.264 0 01.136-1.884c.227-.613.704-1.214 1.396-1.464l-.057.522c-1.01-.635-1.532-1.884-1.475-3.075a3.827 3.827 0 01.613-1.918c.352-.567.976-1.01 1.532-1.214.567-.25.817-.511.84-1.078.022-.568.147-1.203.397-1.725.476-1.101 1.418-1.793 2.201-2.349.795-.568 1.521-1.112 2.225-1.589 1.373-.953 2.655-1.532 3.597-1.691.465-.091.84-.091 1.089-.091.25.023.375.046.375.057 0 .057-.522.012-1.407.25-.886.227-2.088.828-3.416 1.804-.67.511-1.396 1.056-2.168 1.634-.783.59-1.588 1.215-1.986 2.179-.215.477-.306.976-.329 1.555-.022.295-.079.669-.329.976-.238.295-.556.442-.828.579-1.101.385-1.736 1.452-1.793 2.644-.057 1.032.397 2.065 1.191 2.564l.5.318-.556.204c-1.022.375-1.419 1.702-1.192 2.69.216 1.055.84 1.94 1.396 2.757l.113.171-.136.147a4.114 4.114 0 00-1.157 2.928c.011.976.397 1.781.817 2.337.828 1.101 1.702 1.328 1.657 1.396zM136.664 227.131c0 .022-.295-.012-.806-.171a7.37 7.37 0 01-2.065-1.078 7.763 7.763 0 01-2.349-2.746c-.307-.613-.636-1.396-.397-2.27.113-.431.465-.828.907-1.01.409-.192 1.044-.192 1.43.239l-.442.272c-.25-.647-.579-1.396-.409-2.269.102-.42.329-.829.704-1.113.386-.306.976-.306 1.35-.193.397.091.806.227 1.021.137.216-.068.261-.341.239-.783-.023-.92.374-1.827.998-2.497 1.01-1.089 2.61-1.623 4.006-1.146l-.374.352c-.273-1.078-.261-2.395.613-3.246.453-.42 1.044-.556 1.6-.499.544.045 1.134.397 1.316.964l-.499.103a8.071 8.071 0 011.01-4.301 8.393 8.393 0 012.201-2.588 7.005 7.005 0 011.907-1.066c.476-.159.737-.216.749-.193.034.079-1.056.317-2.463 1.498-.681.59-1.452 1.418-2.02 2.553a7.652 7.652 0 00-.862 4.063l.136 2.144-.647-2.031c-.216-.704-1.453-.806-2.043-.227-.635.613-.692 1.725-.431 2.701l.136.522-.522-.182c-1.123-.386-2.508.057-3.381.999-.545.579-.863 1.328-.84 2.088 0 .204.023.431-.046.692a.931.931 0 01-.567.636c-.59.159-.976-.068-1.339-.125-.375-.091-.647-.091-.897.091-.238.17-.419.465-.499.771-.136.624.114 1.317.352 1.952l.545 1.43-.988-1.169c-.385-.465-1.361-.045-1.475.556-.193.636.046 1.351.329 1.941a7.866 7.866 0 002.156 2.701c1.51 1.214 2.69 1.418 2.656 1.498zM166.191 190.793c-.034.057-.715-.136-1.748-.703-.51-.295-1.1-.704-1.588-1.373-.454-.659-.795-1.578-.579-2.565.045-.216.148-.431.238-.613l.125.409c-.817-.42-1.305-1.203-1.452-1.952-.159-.76.079-1.453.374-1.918.647-.942 1.407-1.033 1.396-.976.045.08-.59.318-1.056 1.18-.215.42-.363.999-.204 1.6.148.602.568 1.215 1.203 1.532l.261.137-.136.272c-.068.147-.148.295-.182.465-.181.749.08 1.532.454 2.111.386.579.908 1.01 1.362 1.328.942.635 1.577.976 1.532 1.066zM179.911 184.438c-.091-.034.624-.737.42-2.156-.114-.669-.534-1.475-1.385-1.849-.817-.375-2.031-.307-2.814.442l-.363.352-.102-.499c-.114-.591-.318-1.203-.67-1.737-.34-.522-.874-.976-1.475-1.055-.942-.125-1.997.749-1.736 1.521l-.556.113c-.137-1.226-.806-2.281-1.612-2.939-.805-.67-1.747-.919-2.53-.965-1.589-.068-2.44.545-2.474.443-.012-.023.17-.193.579-.386a4.6 4.6 0 011.895-.42c.828 0 1.895.227 2.814.942.919.704 1.702 1.85 1.872 3.257l-.556.113c-.193-.624.102-1.327.59-1.713a2.35 2.35 0 011.771-.556c.862.125 1.486.703 1.883 1.316.398.624.613 1.305.738 1.952l-.465-.147c1.021-.92 2.44-.931 3.404-.466 1.01.488 1.453 1.476 1.532 2.225.08.771-.136 1.373-.34 1.724-.227.375-.409.511-.42.488z" fill="#455A64"/><path d="M237.65 386.423l17.192-7.104s-2.894-21.913-10.293-42.362c-6.184-17.09-16.341-24.773-19.518-26.838l-.057-.205-5.129-3.098-22.095-14.219c3.881 17.658-27.723 35.781-54.618-2.144l-44.439 17.975 11.632 125.861-11.019 55.673 111.188-.329.011 1.067 23.661-.227-5.061-24.705c2.201-23.763 9.271-52.609 8.454-71.674.113-2.406.136-4.97.091-7.671z" fill="#13ACAC"/><path d="M232.668 435.911c.023 0 .113-.306.261-.896.159-.647.374-1.51.647-2.599.283-1.123.613-2.508.93-4.131.329-1.622.738-3.449 1.067-5.503.363-2.043.738-4.29 1.055-6.718.364-2.418.625-5.016.908-7.751.5-5.47.829-11.518.829-17.862a205.025 205.025 0 00-.897-17.862c-.306-2.735-.567-5.333-.942-7.75a129.588 129.588 0 00-1.078-6.707c-.329-2.054-.749-3.881-1.089-5.504a91.536 91.536 0 00-.942-4.13c-.272-1.079-.499-1.952-.658-2.588-.159-.59-.25-.896-.273-.896-.022 0 .034.317.148.919l.545 2.61c.249 1.135.556 2.519.839 4.142.295 1.623.693 3.45.999 5.504.34 2.042.704 4.289.999 6.706.351 2.417.601 5.005.885 7.728.488 5.459.817 11.485.851 17.805a215.248 215.248 0 01-.783 17.805c-.272 2.724-.511 5.323-.851 7.74-.284 2.417-.647 4.664-.976 6.706-.295 2.054-.681 3.893-.976 5.516a94.874 94.874 0 01-.829 4.142l-.544 2.621c-.091.635-.136.953-.125.953z" fill="#263238"/><path d="M232.941 435.014c.022 0 0 .204-.068.568-.08.431-.171.964-.295 1.611a274.858 274.858 0 00-1.078 5.935c-.818 5.016-1.816 12.006-1.816 19.768 0 3.881.261 7.569.669 10.906.454 3.325.999 6.309 1.612 8.783.261 1.248.601 2.349.862 3.325a41.4 41.4 0 00.727 2.485c.181.624.34 1.146.465 1.578.102.363.147.556.125.567-.023.011-.103-.17-.239-.522-.159-.42-.34-.919-.578-1.543-.25-.67-.545-1.498-.829-2.474-.284-.976-.658-2.066-.942-3.314-.669-2.474-1.259-5.458-1.747-8.806a86.39 86.39 0 01-.715-10.973c0-7.819 1.066-14.832 1.997-19.848.488-2.508.919-4.528 1.26-5.912.158-.636.295-1.169.397-1.589.113-.363.17-.545.193-.545z" fill="#263238"/><path d="M54.426 396.647l22.798-65.228s6.026-19.212 24.092-23.967l12.925 65.24-5.992 35.678-53.823-11.723z" fill="#13ACAC"/><path d="M118.678 355.601c.023 0 .012.193-.011.544-.045.432-.091.942-.159 1.566a118.899 118.899 0 01-.794 5.72c-.749 4.823-2.1 11.416-3.734 18.667-1.634 7.252-3.098 13.811-4.085 18.577-.477 2.315-.874 4.221-1.169 5.651-.136.613-.25 1.112-.34 1.532-.08.352-.137.534-.159.522-.023 0-.012-.193.045-.545.057-.419.136-.93.227-1.554.204-1.351.545-3.291.987-5.686.886-4.788 2.281-11.382 3.915-18.633 1.635-7.251 3.053-13.822 3.904-18.611.443-2.394.761-4.335.976-5.685.102-.613.193-1.124.261-1.543.068-.341.114-.534.136-.522z" fill="#263238"/><path d="M202.597 296.546c.022 0 .011.295-.023.863-.023.283-.023.635-.091 1.044-.068.42-.159.896-.249 1.418-.125.522-.295 1.101-.477 1.737-.25.601-.454 1.305-.828 1.985-.647 1.396-1.634 2.883-2.939 4.313-2.599 2.893-6.571 5.469-11.314 7.353-4.744 1.963-10.531 2.667-16.387 1.895-5.856-.817-11.234-2.859-15.558-5.606-4.335-2.746-7.705-5.912-10.372-8.681a84.926 84.926 0 01-5.947-6.911 61.126 61.126 0 01-1.486-1.986c-.329-.465-.499-.703-.477-.726.012-.011.216.216.568.647.397.477.919 1.112 1.566 1.918 1.373 1.645 3.37 4.028 6.071 6.763 2.689 2.724 6.071 5.833 10.361 8.511 4.266 2.678 9.577 4.675 15.342 5.481 5.776.761 11.439.091 16.114-1.815 4.71-1.828 8.625-4.324 11.212-7.127 1.305-1.384 2.281-2.826 2.951-4.176.385-.658.59-1.339.851-1.929.193-.613.374-1.18.522-1.702.113-.511.204-.976.295-1.385.079-.408.102-.749.147-1.033.08-.556.136-.851.148-.851z" fill="#FBFDFF"/><path opacity=".3" d="M107.671 443.378c6.741-8.001 7.388-19.315 7.705-29.777.409-13.232.125-28.507.534-41.727-2.451 11.723-6.151 29.732-7.978 36.518 0 0 .885 6.911.942 9.623.045 2.474-.17 5.175.057 7.637.601 6.366 1.6 13.391-2.088 18.611" fill="#000"/><path d="M234.711 358.494c0 .012-.091.046-.284.114-.227.079-.51.17-.851.283-.794.25-1.906.59-3.313 1.022-1.442.442-3.201.976-5.266 1.509-2.065.545-4.403 1.214-7.036 1.793-2.621.624-5.492 1.294-8.601 1.872-3.098.659-6.435 1.192-9.941 1.782-7.036 1.067-14.821 1.963-23.014 2.44-8.205.442-16.035.42-23.15.136-3.552-.193-6.934-.352-10.077-.67-3.155-.238-6.083-.601-8.749-.93-2.678-.284-5.073-.715-7.184-1.033-2.11-.306-3.926-.647-5.401-.942-1.441-.283-2.576-.51-3.393-.669-.363-.08-.647-.136-.885-.193-.193-.045-.295-.08-.295-.08 0-.011.102 0 .306.023.238.034.533.08.896.136.829.137 1.964.318 3.416.556 1.475.261 3.291.568 5.413.84 2.111.284 4.517.681 7.183.942 2.667.306 5.595.636 8.738.862 3.144.296 6.514.443 10.066.625 7.093.249 14.911.249 23.093-.182 8.182-.477 15.944-1.362 22.969-2.394 3.506-.568 6.842-1.078 9.929-1.725 3.109-.568 5.981-1.215 8.602-1.805 2.633-.556 4.97-1.202 7.047-1.713 2.077-.499 3.847-.999 5.288-1.407 1.419-.386 2.531-.693 3.337-.919.351-.091.646-.171.873-.227.171-.034.273-.057.284-.046zM247.046 344.389c.091.136-2.621 1.974-6.059 4.085-3.427 2.122-6.287 3.722-6.367 3.586-.09-.136 2.622-1.963 6.06-4.085 3.427-2.111 6.276-3.722 6.366-3.586zM117.475 361.832c0 .046-.681 0-1.895-.102a105.47 105.47 0 01-5.141-.59c-4.335-.59-10.281-1.657-16.738-3.348-6.457-1.702-12.165-3.699-16.228-5.31a102.657 102.657 0 01-4.766-2.009c-1.112-.511-1.713-.806-1.702-.84.011-.034.658.193 1.793.624 1.135.443 2.78 1.078 4.834 1.827a178.57 178.57 0 0016.228 5.13 180.944 180.944 0 0016.659 3.506c2.156.352 3.892.613 5.106.783 1.192.182 1.861.295 1.85.329z" fill="#FBFDFF"/><path d="M149.794 451.095l17.283.363s25.919-9.362 31.252-8.466c4.8.806 22.378 12.483 25.817 14.798.386.261.669.624.828 1.067a3.77 3.77 0 01-2.099 4.789l-.363.147.159.522c.193.647.306 1.385.261 2.099-.125 2.474-3.45 3.223-4.71 1.09l.658 1.18c.273.477.398 1.021.364 1.577l-.057 1.067a2.89 2.89 0 01-1.986 2.587 2.865 2.865 0 01-3.019-.794c-2.224-2.451-7.047-7.365-10.304-7.909-2.893-.488-7.728-.545-10.644-.534a3.619 3.619 0 00-3.348 2.304c1.929.136 15.399 7.16 20.166 9.68 1.475.771 2.576 2.179 2.769 3.835.17 1.487-.579 3.053-3.53 2.361-6.332-1.476-17.725-6.718-17.725-6.718s-5.879-1.68-9.691 1.01c-5.357 3.779-7.808 5.163-12.415 3.642-4.596-1.52-7.989-3.71-7.989-3.71l-16.625.964c.045-.023-8.602-15.081 4.948-26.951z" fill="#FFBE9D"/><path d="M189.83 455.827c.023.102 1.839-.488 4.869-.681 3.007-.205 7.285.147 11.541 1.963 4.255 1.816 7.478 4.664 9.407 6.979 1.963 2.315 2.792 4.04 2.882 3.983.023-.011-.158-.454-.578-1.203-.409-.749-1.078-1.804-2.043-3.007-1.895-2.406-5.129-5.356-9.476-7.206-4.346-1.85-8.726-2.156-11.767-1.861-1.532.136-2.747.386-3.575.613-.828.227-1.271.397-1.26.42zM192.576 449.528c.034.125 1.872-.783 5.073-.885 3.166-.136 7.625.817 11.79 3.337 4.165 2.53 7.286 5.742 9.498 8.034 1.056 1.123 1.93 2.043 2.599 2.769.613.658.965 1.01.999.987.022-.023-.284-.42-.851-1.112a97.81 97.81 0 00-2.497-2.871c-2.156-2.36-5.265-5.64-9.498-8.216-4.244-2.576-8.829-3.495-12.052-3.268-1.623.102-2.905.397-3.767.692-.432.125-.749.284-.965.374-.227.091-.34.148-.329.159z" fill="#EB996E"/><path d="M61.041 398.088c0-.113-8.999 40.433-10.167 47.56-1.374 8.34-3.643 28.608 14.934 32.557 18.576 3.949 95.709-1.157 95.709-1.157l5.571-25.602-70.664-10.031 7.717-33.931-43.1-9.396z" fill="#FFBE9D"/><path d="M63.312 64.742c0-3.45 1.815-5.515 4.323-5.515 2.508 0 4.335 2.065 4.335 5.515 0 3.45-1.827 5.515-4.335 5.515s-4.324-2.054-4.324-5.515zm7.512 0c0-2.894-1.305-4.494-3.189-4.494-1.895 0-3.189 1.6-3.189 4.494 0 2.893 1.305 4.493 3.19 4.493 1.883 0 3.188-1.588 3.188-4.493zM73.56 64.742c0-3.45 1.815-5.515 4.323-5.515 2.508 0 4.335 2.065 4.335 5.515 0 3.45-1.827 5.515-4.335 5.515s-4.323-2.054-4.323-5.515zm7.512 0c0-2.894-1.305-4.494-3.189-4.494-1.895 0-3.189 1.6-3.189 4.494 0 2.894 1.305 4.494 3.19 4.494 1.894 0 3.188-1.589 3.188-4.494zM86.78 59.33v10.837h-1.112v-9.85h-2.554v-.988h3.666zM89.366 64.742c0-3.45 1.816-5.515 4.324-5.515s4.335 2.065 4.335 5.515c0 3.45-1.827 5.515-4.335 5.515s-4.324-2.054-4.324-5.515zm7.513 0c0-2.894-1.305-4.494-3.19-4.494-1.894 0-3.188 1.6-3.188 4.494 0 2.894 1.305 4.494 3.189 4.494 1.884 0 3.189-1.589 3.189-4.494zM102.587 59.33v10.837h-1.112v-9.85h-2.553v-.988h3.665zM52.645 80.128c0-3.45 1.815-5.515 4.323-5.515 2.508 0 4.335 2.066 4.335 5.515 0 3.45-1.827 5.516-4.335 5.516s-4.324-2.066-4.324-5.516zm7.512 0c0-2.893-1.305-4.493-3.189-4.493-1.895 0-3.189 1.6-3.189 4.493 0 2.894 1.305 4.494 3.19 4.494 1.883 0 3.188-1.6 3.188-4.494zM62.892 80.13c0-3.45 1.815-5.516 4.323-5.516 2.508 0 4.335 2.066 4.335 5.515 0 3.45-1.827 5.515-4.335 5.515s-4.323-2.065-4.323-5.515zm7.512 0c0-2.894-1.305-4.494-3.189-4.494-1.895 0-3.189 1.6-3.189 4.493 0 2.894 1.305 4.494 3.19 4.494 1.883 0 3.188-1.6 3.188-4.494zM76.112 74.705v10.837H75v-9.85h-2.554v-.987h3.666zM78.698 80.13c0-3.45 1.816-5.516 4.324-5.516s4.335 2.066 4.335 5.515c0 3.45-1.827 5.515-4.335 5.515s-4.324-2.065-4.324-5.515zm7.513 0c0-2.894-1.305-4.494-3.19-4.494-1.894 0-3.188 1.6-3.188 4.493 0 2.894 1.305 4.494 3.189 4.494 1.884 0 3.189-1.6 3.189-4.494zM91.92 74.705v10.837h-1.113v-9.85h-2.553v-.987h3.665zM97.513 74.705v10.837h-1.112v-9.85h-2.553v-.987h3.665zM100.089 80.13c0-3.45 1.816-5.516 4.323-5.516 2.508 0 4.335 2.066 4.335 5.515 0 3.45-1.827 5.515-4.335 5.515-2.507 0-4.323-2.065-4.323-5.515zm7.512 0c0-2.894-1.305-4.494-3.189-4.494-1.883 0-3.188 1.6-3.188 4.493 0 2.894 1.305 4.494 3.188 4.494 1.884 0 3.189-1.6 3.189-4.494zM113.322 74.705v10.837h-1.112v-9.85h-2.554v-.987h3.666zM63.312 94.996c0-3.45 1.815-5.515 4.323-5.515 2.508 0 4.335 2.065 4.335 5.515 0 3.45-1.827 5.515-4.335 5.515s-4.324-2.054-4.324-5.515zm7.512 0c0-2.894-1.305-4.494-3.189-4.494-1.895 0-3.189 1.6-3.189 4.494 0 2.893 1.305 4.493 3.19 4.493 1.894 0 3.188-1.588 3.188-4.493zM76.532 89.582v10.838H75.42v-9.85h-2.554v-.987h3.666zM82.126 89.582v10.838h-1.112v-9.85h-2.553v-.987h3.665zM87.721 89.582v10.838H86.61v-9.85h-2.553v-.987h3.665zM90.298 94.996c0-3.45 1.816-5.515 4.323-5.515 2.508 0 4.335 2.065 4.335 5.515 0 3.45-1.827 5.515-4.335 5.515-2.507 0-4.323-2.054-4.323-5.515zm7.512 0c0-2.894-1.305-4.494-3.189-4.494-1.883 0-3.188 1.6-3.188 4.494 0 2.894 1.305 4.494 3.188 4.494 1.884 0 3.19-1.589 3.19-4.494zM103.518 89.582v10.838h-1.112v-9.85h-2.553v-.987h3.665zM125.351 119.223c0 .045-.522-.011-1.43.182-.885.192-2.179.737-3.28 1.951a5.984 5.984 0 00-1.305 2.281 5.246 5.246 0 00.011 2.985c.568 2.031 2.452 4.028 4.914 4.335 2.474.261 4.755-1.26 5.776-3.11.534-.93.738-1.951.681-2.905a5.872 5.872 0 00-.76-2.519c-.806-1.43-1.929-2.258-2.758-2.644-.828-.397-1.361-.454-1.35-.499 0-.012.136 0 .374.034.125.011.273.045.443.102.181.045.374.113.59.204.874.352 2.077 1.158 2.962 2.644.431.738.771 1.634.851 2.656.068 1.01-.125 2.133-.692 3.132a6.537 6.537 0 01-2.486 2.519 6.094 6.094 0 01-3.71.828 6.095 6.095 0 01-3.416-1.645c-.908-.851-1.543-1.918-1.838-3.019-.33-1.1-.261-2.235.034-3.2.306-.976.851-1.77 1.429-2.394 1.192-1.249 2.554-1.759 3.484-1.907.239-.045.443-.056.624-.068.182-.011.341-.011.466 0 .249.023.386.034.386.057z" fill="#263238"/><path d="M131.671 93.678s.034-.26.136-.771l.443-2.259c.102-.499.204-1.044.329-1.656.09-.613.136-1.294.215-2.032.068-.737.148-1.52.227-2.371.057-.42.068-.863.057-1.317v-1.396c.113-3.824-.477-8.522-1.975-13.742a47.807 47.807 0 00-8.443-16.262c-.533-.67-1.078-1.339-1.622-2.02-.59-.647-1.226-1.26-1.839-1.906a84.397 84.397 0 01-.942-.965c-.317-.329-.624-.658-.987-.93-.703-.59-1.407-1.18-2.122-1.782-.363-.295-.715-.601-1.078-.896a71.583 71.583 0 01-1.169-.806 234.299 234.299 0 01-2.372-1.634c-.817-.522-1.69-.953-2.553-1.441-.431-.239-.862-.477-1.305-.715-.215-.114-.431-.25-.658-.352l-.692-.295c-1.85-.772-3.7-1.668-5.708-2.202-.999-.295-1.986-.647-3.007-.896-1.033-.204-2.077-.42-3.121-.636-.522-.102-1.044-.238-1.578-.295-.533-.056-1.078-.102-1.611-.159-1.078-.09-2.168-.25-3.257-.295-2.201.034-4.437-.102-6.672.227l-1.691.17c-.284.035-.568.046-.852.091l-.84.17c-1.123.227-2.246.454-3.38.681-1.124.284-2.225.659-3.349.988-.556.181-1.134.306-1.668.533l-1.634.67c-2.224.805-4.3 2.008-6.434 3.12-1.01.658-2.02 1.328-3.03 1.998l-.76.499c-.239.181-.477.374-.715.567l-1.43 1.146-1.441 1.158-1.328 1.294-1.328 1.304-.67.647c-.204.227-.408.477-.6.715-.806.953-1.612 1.918-2.43 2.871-.714 1.033-1.43 2.077-2.144 3.121-2.724 4.278-4.812 9.022-6.173 14.06a51.45 51.45 0 00-1.385 15.297l.375 3.768c.25 1.237.488 2.462.737 3.688l.193.92.273.896.544 1.781.51 1.77.705 1.703.703 1.702.352.84.431.805c.567 1.078 1.135 2.145 1.69 3.212 1.329 2.008 2.566 4.062 4.12 5.844l1.101 1.373c.363.465.806.851 1.203 1.283.828.828 1.611 1.69 2.451 2.473l2.633 2.225.658.556c.227.17.465.329.704.488.465.317.93.646 1.395.964 1.805 1.362 3.825 2.327 5.742 3.416.988.488 2.01.874 2.996 1.316.5.216.999.432 1.487.636.5.204 1.021.329 1.532.499 1.021.318 2.031.636 3.041.953 1.01.273 2.054.443 3.064.659 2.02.51 4.063.612 6.06.828l.749.079c.25.012.5 0 .749.012h1.486c.988-.012 1.964.034 2.928-.034.965-.091 1.918-.193 2.871-.284.477-.045.942-.091 1.407-.136l1.385-.273c.92-.181 1.816-.363 2.712-.533.454-.068.885-.204 1.316-.34.432-.125.863-.261 1.294-.386.851-.261 1.714-.499 2.531-.783.805-.329 1.611-.658 2.394-.987a47.952 47.952 0 0015.241-10.18c.488-.476.975-.93 1.429-1.395.42-.5.84-.988 1.249-1.476.408-.476.805-.953 1.203-1.418.192-.238.397-.454.578-.692.171-.25.341-.488.5-.727.658-.953 1.293-1.872 1.906-2.746.579-.885 1.021-1.804 1.498-2.633.227-.419.454-.828.681-1.214.227-.386.431-.783.59-1.169.34-.783.647-1.509.942-2.179.284-.68.579-1.293.794-1.872.193-.59.363-1.123.511-1.611.306-.954.545-1.68.703-2.18.148-.487.239-.737.239-.737s-.068.261-.216.75c-.147.51-.374 1.236-.658 2.2-.148.489-.318 1.022-.499 1.623-.205.59-.5 1.203-.772 1.896-.284.68-.601 1.418-.931 2.201a7.518 7.518 0 01-.578 1.18c-.216.397-.443.806-.67 1.226-.476.828-.919 1.747-1.486 2.644-.602.885-1.237 1.804-1.895 2.769-.171.238-.33.488-.5.726-.17.238-.386.465-.579.704-.397.465-.794.942-1.202 1.43-.409.488-.829.976-1.249 1.486-.454.477-.942.931-1.43 1.419a48.04 48.04 0 01-15.297 10.292c-.794.329-1.6.658-2.417.999-.828.284-1.69.522-2.553.794-.431.136-.863.261-1.294.397-.431.137-.874.273-1.327.352-.897.182-1.816.363-2.735.545-.466.091-.92.193-1.385.272-.476.046-.942.091-1.418.148-.954.091-1.918.193-2.883.295-.976.068-1.963.023-2.95.034h-1.498c-.25 0-.5.011-.75-.011l-.748-.08c-2.009-.215-4.074-.318-6.105-.828-1.022-.227-2.066-.386-3.087-.658-1.01-.318-2.031-.636-3.064-.954-.51-.17-1.044-.306-1.543-.499-.5-.216-.999-.431-1.51-.635-.998-.443-2.03-.84-3.03-1.317-1.929-1.089-3.971-2.065-5.787-3.438l-1.407-.965a15.792 15.792 0 01-.704-.488l-.658-.556c-.885-.738-1.77-1.486-2.655-2.235-.851-.795-1.646-1.657-2.474-2.497-.397-.431-.851-.828-1.214-1.294l-1.112-1.384c-1.578-1.804-2.826-3.87-4.165-5.89-.568-1.078-1.135-2.156-1.714-3.245l-.431-.817-.352-.851-.703-1.714-.704-1.725-.545-1.793-.544-1.793-.273-.896-.193-.92c-.25-1.236-.499-2.473-.749-3.722-.124-1.26-.25-2.53-.385-3.801a51.613 51.613 0 011.395-15.434 51.823 51.823 0 016.23-14.185c.727-1.055 1.453-2.099 2.168-3.143.817-.976 1.634-1.94 2.451-2.905.204-.238.397-.488.613-.715l.67-.658 1.338-1.317 1.34-1.305 1.452-1.168 1.441-1.158c.239-.193.477-.386.727-.579l.771-.51 3.064-2.009c2.156-1.123 4.244-2.338 6.491-3.143l1.646-.681c.544-.227 1.123-.363 1.69-.545 1.135-.329 2.248-.703 3.37-.987 1.147-.227 2.282-.454 3.405-.681l.851-.17c.284-.046.568-.057.852-.091l1.702-.17c2.258-.318 4.516-.193 6.73-.216 1.1.057 2.2.204 3.29.306l1.623.17c.533.069 1.066.205 1.588.307 1.056.216 2.1.431 3.144.647 1.033.25 2.02.613 3.03.908 2.031.533 3.881 1.441 5.753 2.224l.692.295c.227.114.443.238.659.363.442.239.873.488 1.316.727.862.487 1.748.93 2.565 1.452.805.556 1.6 1.1 2.383 1.645.397.273.783.545 1.18.818.374.295.726.612 1.089.907.715.602 1.43 1.203 2.134 1.805.363.283.681.613.998.942.318.329.636.646.942.976.624.646 1.26 1.27 1.85 1.929.545.692 1.089 1.361 1.634 2.031a47.984 47.984 0 018.432 16.387c1.486 5.242 2.042 9.974 1.906 13.81v1.396c.012.454 0 .896-.068 1.316-.091.851-.17 1.634-.25 2.372-.09.738-.136 1.418-.227 2.031-.124.613-.249 1.158-.351 1.657-.205.976-.375 1.725-.477 2.247-.136.465-.204.726-.204.726z" fill="#263238"/><path d="M489.689 213.841H273.316v133.998h216.373V213.841z" fill="#FBFDFF"/><path d="M489.689 347.839s-.011-.828-.023-2.417c-.011-1.6-.011-3.949-.022-7.036-.012-6.173-.034-15.24-.057-26.86-.034-23.241-.068-56.706-.125-97.684l.227.227c-58.737.023-134.247.034-216.35.068h-.011l.295-.295c-.011 47.503-.011 92.793-.023 133.997l-.272-.272c63.492.057 117.554.102 155.751.136 19.11.034 34.249.057 44.621.079 5.186.012 9.18.023 11.881.034 1.35.012 2.372.012 3.064.012.681 0 1.044.011 1.044.011s-.34.012-1.021.012c-.693 0-1.703.011-3.042.011-2.689.011-6.661.023-11.824.034-10.361.023-25.477.045-44.564.079-38.243.034-92.361.08-155.921.137h-.273v-.273c-.011-41.204-.011-86.494-.023-133.997v-.295h.307c82.103.023 157.612.045 216.35.068h.227v.227c-.057 41.034-.091 74.556-.125 97.831-.023 11.609-.046 20.653-.057 26.815-.011 3.064-.023 5.402-.023 6.991 0 1.566-.011 2.36-.011 2.36z" fill="#263238"/><path d="M489.575 226.926c0 .158-48.343.295-107.954.295-59.634 0-107.965-.137-107.965-.295 0-.159 48.331-.295 107.965-.295 59.611-.012 107.954.124 107.954.295zM284.811 221.002c0 .976-.794 1.771-1.77 1.771s-1.77-.795-1.77-1.771c0-.976.794-1.77 1.77-1.77s1.77.794 1.77 1.77zM291.235 221.003c0 .976-.794 1.77-1.77 1.77a1.773 1.773 0 01-1.771-1.77c0-.976.795-1.771 1.771-1.771.976 0 1.77.795 1.77 1.771zM295.876 222.773a1.77 1.77 0 10-.001-3.541 1.77 1.77 0 00.001 3.541zM296.92 250.893l-5.141 1.986 5.141 1.986v1.203l-6.48-2.565v-1.248l6.48-2.565v1.203zM302.265 245.752h1.259l-4.777 13.641h-1.26l4.778-13.641zM310.447 252.255v1.248l-6.48 2.565v-1.203l5.152-1.986-5.152-1.986v-1.203l6.48 2.565zM312.081 257.033c0-.579.454-.988.987-.988.522 0 .954.409.954.988 0 .578-.432.998-.954.998a.983.983 0 01-.987-.998zM315.372 257.033c0-.579.454-.988.987-.988.522 0 .954.409.954.988 0 .578-.432.998-.954.998a.977.977 0 01-.987-.998zM318.652 257.033c0-.579.454-.988.988-.988.522 0 .953.409.953.988 0 .578-.431.998-.953.998a.983.983 0 01-.988-.998z" fill="#263238"/><path d="M433.55 270.026c0 .158-31.99.295-71.436.295-39.457 0-71.435-.137-71.435-.295 0-.159 31.978-.296 71.435-.296 39.446 0 71.436.125 71.436.296z" fill="#13ACAC"/><path d="M456.881 270.445c0 .159-3.075.295-6.865.295s-6.866-.136-6.866-.295c0-.158 3.076-.295 6.866-.295 3.79 0 6.865.137 6.865.295zM476.945 270.445c0 .159-3.359.295-7.501.295s-7.501-.136-7.501-.295c0-.158 3.359-.295 7.501-.295s7.501.137 7.501.295z" fill="#263238"/><path d="M381.645 282.066c0 .159-20.325.295-45.404.295-25.079 0-45.403-.136-45.403-.295 0-.159 20.324-.295 45.403-.295 25.079 0 45.404.125 45.404.295zM380.997 326.982c0 .158-20.324.295-45.403.295-25.079 0-45.404-.137-45.404-.295 0-.159 20.325-.295 45.404-.295 25.079 0 45.403.124 45.403.295z" fill="#13ACAC"/><path d="M414.644 282.066c0 .159-5.527.295-12.358.295-6.82 0-12.358-.136-12.358-.295 0-.159 5.526-.295 12.358-.295 6.82 0 12.358.125 12.358.295zM414.384 326.982c0 .158-5.527.295-12.358.295-6.82 0-12.358-.137-12.358-.295 0-.159 5.526-.295 12.358-.295 6.82 0 12.358.124 12.358.295z" fill="#263238"/><path d="M296.795 288.182c0 .159-1.373.295-3.064.295s-3.064-.136-3.064-.295c0-.159 1.373-.295 3.064-.295 1.702 0 3.064.136 3.064.295z" fill="#13ACAC"/><path d="M317.914 288.307c0 .159-2.973.295-6.65.295-3.677 0-6.65-.136-6.65-.295 0-.159 2.973-.295 6.65-.295 3.677 0 6.65.136 6.65.295zM331.43 288.307c0 .159-2.554.295-5.697.295-3.155 0-5.697-.136-5.697-.295 0-.159 2.553-.295 5.697-.295 3.143 0 5.697.136 5.697.295zM348.542 288.307c0 .159-2.598.295-5.81.295-3.211 0-5.81-.136-5.81-.295 0-.159 2.599-.295 5.81-.295 3.212 0 5.81.136 5.81.295zM363.533 288.307c0 .159-2.36.295-5.277.295-2.916 0-5.277-.136-5.277-.295 0-.159 2.361-.295 5.277-.295 2.917 0 5.277.136 5.277.295zM413.158 288.307c0 .159-10.406.295-23.229.295-12.835 0-23.23-.136-23.23-.295 0-.159 10.395-.295 23.23-.295 12.834 0 23.229.136 23.229.295z" fill="#263238"/><path d="M295.955 296.002c0 .158-1.18.295-2.644.295-1.464 0-2.644-.137-2.644-.295 0-.159 1.18-.295 2.644-.295 1.464 0 2.644.136 2.644.295zM296.171 304.024c0 .159-1.225.295-2.746.295s-2.746-.136-2.746-.295c0-.159 1.225-.295 2.746-.295 1.509 0 2.746.136 2.746.295zM296.171 313.102c0 .159-1.225.295-2.746.295s-2.746-.136-2.746-.295c0-.159 1.225-.295 2.746-.295 1.509 0 2.746.136 2.746.295z" fill="#13ACAC"/><path d="M346.216 312.682c0 .159-9.169.295-20.483.295s-20.483-.136-20.483-.295c0-.159 9.169-.295 20.483-.295s20.483.136 20.483.295zM342.63 304.024c0 .159-8.749.295-19.53.295-10.792 0-19.53-.136-19.53-.295 0-.159 8.75-.295 19.53-.295 10.781 0 19.53.136 19.53.295zM437.023 295.582c0 .159-29.788.295-66.522.295-36.744 0-66.522-.136-66.522-.295 0-.159 29.778-.295 66.522-.295 36.745 0 66.522.124 66.522.295z" fill="#263238"/><path d="M390.53 32.728h-91.17v156.603h91.17V32.728z" fill="#FBFDFF"/><path d="M390.53 189.331s-.011-.261-.011-.772-.011-1.26-.011-2.224c-.012-1.975-.023-4.869-.034-8.625-.023-7.523-.046-18.497-.08-32.342-.034-27.666-.079-66.771-.136-112.64l.272.273c-28.063.01-58.884.01-91.158.022h-.012l.296-.295c-.023 59.747-.046 114.547-.069 156.603l-.227-.227c27.939.045 50.703.09 66.5.125 7.898.022 14.06.045 18.247.056 2.088.012 3.688.023 4.778.023 1.078.011 1.645.023 1.645.023s-.533.011-1.6.022c-1.078.012-2.667.012-4.732.023-4.176.011-10.315.034-18.202.057-15.831.034-38.64.068-66.636.125h-.226v-.227c-.023-42.056-.046-96.856-.069-156.603v-.295h.307c32.262.011 63.083.011 91.158.023h.273v.272c-.057 45.937-.102 85.122-.136 112.822-.035 13.811-.057 24.773-.08 32.285-.011 3.734-.023 6.605-.034 8.568-.011.964-.011 1.691-.011 2.201 0 .488-.012.727-.012.727z" fill="#263238"/><path d="M305.794 41.478a1.85 1.85 0 100-3.7 1.85 1.85 0 000 3.7zM312.478 41.478a1.85 1.85 0 10-.001-3.699 1.85 1.85 0 00.001 3.7zM321.013 39.629a1.85 1.85 0 11-3.7 0 1.85 1.85 0 013.7 0z" fill="#263238"/><path d="M365.474 82.341c0 .16-11.552.296-25.816.296-14.265 0-25.817-.137-25.817-.296 0-.158 11.552-.295 25.817-.295 14.253 0 25.816.125 25.816.295zM376.232 94.881c0 .159-14.06.295-31.412.295-17.351 0-31.411-.136-31.411-.295 0-.159 14.06-.295 31.411-.295 17.352 0 31.412.125 31.412.295zM378.797 141.669c0 .159-15.002.295-33.488.295-18.497 0-33.499-.136-33.499-.295 0-.159 14.99-.295 33.499-.295 18.486 0 33.488.125 33.488.295zM318.686 101.258c0 .159-1.43.295-3.189.295-1.759 0-3.188-.136-3.188-.295 0-.158 1.429-.295 3.188-.295 1.759 0 3.189.125 3.189.295zM340.69 101.384c0 .159-3.098.295-6.934.295-3.824 0-6.934-.136-6.934-.295 0-.159 3.098-.295 6.934-.295 3.824 0 6.934.136 6.934.295zM354.762 101.384c0 .159-2.656.295-5.935.295-3.28 0-5.935-.136-5.935-.295 0-.159 2.655-.295 5.935-.295 3.279 0 5.935.136 5.935.295zM317.812 109.395c0 .159-1.226.295-2.746.295-1.521 0-2.747-.136-2.747-.295 0-.159 1.226-.295 2.747-.295 1.509 0 2.746.136 2.746.295zM318.028 117.759c0 .159-1.282.295-2.86.295-1.577 0-2.859-.136-2.859-.295 0-.159 1.282-.295 2.859-.295 1.578 0 2.86.125 2.86.295zM318.028 127.212c0 .158-1.282.295-2.86.295-1.577 0-2.859-.137-2.859-.295 0-.159 1.282-.295 2.859-.295 1.578 0 2.86.136 2.86.295zM370.161 126.77c0 .159-9.555.295-21.335.295-11.79 0-21.334-.136-21.334-.295 0-.159 9.555-.295 21.334-.295 11.78 0 21.335.136 21.335.295zM366.427 117.759c0 .159-9.112.295-20.347.295-11.234 0-20.347-.136-20.347-.295 0-.159 9.113-.295 20.347-.295 11.235 0 20.347.125 20.347.295zM322.192 154.152c0 .159-1.282.295-2.86.295-1.577 0-2.859-.136-2.859-.295 0-.159 1.282-.295 2.859-.295 1.578 0 2.86.136 2.86.295zM322.192 163.616c0 .159-1.282.295-2.86.295-1.577 0-2.859-.136-2.859-.295 0-.159 1.282-.295 2.859-.295 1.578 0 2.86.125 2.86.295zM374.325 163.174c0 .159-9.555.295-21.335.295-11.79 0-21.334-.136-21.334-.295 0-.159 9.555-.295 21.334-.295 11.78 0 21.335.136 21.335.295zM370.591 154.152c0 .159-9.112.295-20.347.295-11.234 0-20.347-.136-20.347-.295 0-.159 9.113-.295 20.347-.295 11.235 0 20.347.136 20.347.295zM381.554 108.953c0 .159-12.403.295-27.689.295-15.297 0-27.689-.136-27.689-.295 0-.159 12.392-.295 27.689-.295 15.286 0 27.689.136 27.689.295z" fill="#13ACAC"/><path d="M389.668 46.868c0 .159-20.017.295-44.711.295-24.693 0-44.711-.136-44.711-.295 0-.16 20.018-.295 44.711-.295 24.694 0 44.711.125 44.711.295z" fill="#263238"/><path d="M332.7 74.773c0 .159-4.232.295-9.441.295-5.22 0-9.442-.136-9.442-.295 0-.16 4.222-.295 9.442-.295s9.441.136 9.441.295zM322.011 57.671c0 .159-1.998.295-4.449.295-2.462 0-4.459-.136-4.459-.295 0-.159 1.997-.295 4.459-.295 2.463 0 4.449.136 4.449.295z" fill="#13ACAC"/><path d="M370.989 490.564H212.741l20.415-111.063a8.298 8.298 0 018.159-6.798h142.191c5.209 0 9.135 4.744 8.148 9.862l-20.665 107.999z" fill="#455A64"/><path d="M212.741 490.563h-60.019l.238-.181a32.476 32.476 0 0118.509-6.48l42.918-1.259-1.646 7.92z" fill="#455A64"/><path d="M250.758 372.851c-.012.045-.443-.08-1.283-.091-.828-.012-2.088.17-3.518.874-1.418.692-2.995 1.951-4.221 3.835-1.226 1.895-2.054 4.381-2.587 7.184-.522 2.802-.976 5.923-1.532 9.259a629.769 629.769 0 01-1.884 10.611c-1.373 7.467-3.007 15.649-4.789 24.228-3.575 17.147-6.877 32.659-9.044 43.928a1031.825 1031.825 0 00-2.497 13.357c-.284 1.543-.499 2.757-.658 3.631-.079.386-.136.704-.182.942-.045.215-.068.318-.079.318-.011 0 0-.114.023-.329.034-.25.079-.557.124-.954.137-.874.318-2.099.557-3.654.499-3.166 1.271-7.75 2.315-13.402 2.054-11.291 5.299-26.826 8.874-43.973 1.77-8.568 3.427-16.75 4.834-24.206.715-3.722 1.339-7.274 1.929-10.599.579-3.325 1.055-6.423 1.6-9.26.568-2.825 1.43-5.345 2.712-7.274 1.294-1.929 2.928-3.177 4.392-3.869 1.475-.693 2.769-.829 3.62-.783.862.068 1.294.227 1.294.227z" fill="#263238"/><path d="M317.585 429.125a7.652 7.652 0 01-7.648 7.649 7.652 7.652 0 01-7.649-7.649 7.652 7.652 0 017.649-7.648 7.652 7.652 0 017.648 7.648z" fill="#fff"/><path d="M515.926 490.563c0 .159-115.5.295-257.952.295-142.497 0-257.974-.136-257.974-.295 0-.159 115.477-.295 257.974-.295 142.452-.012 257.952.125 257.952.295z" fill="#263238"/><path d="M503.726 408.857c.012 0-.023-.091-.113-.249-.102-.193-.227-.42-.375-.693a28.713 28.713 0 00-1.645-2.564c-1.544-2.122-4.017-5.186-8.103-7.66-2.042-1.214-4.482-2.259-7.274-2.667-2.78-.397-5.867-.193-8.84.931-2.95 1.089-5.833 3.154-7.558 6.196-1.736 3.029-2.292 6.593-3.313 9.997-.511 1.702-1.169 3.336-2.111 4.766-.942 1.419-2.236 2.542-3.586 3.541-1.35.998-2.769 1.895-4.051 2.939a17.359 17.359 0 00-3.291 3.563c-1.804 2.61-2.826 5.493-3.37 8.228-.557 2.746-.613 5.367-.454 7.728.329 4.732 1.327 8.454 1.974 10.996.341 1.271.613 2.258.817 2.928.193.669.307 1.01.329 1.01.023 0-.056-.364-.215-1.044-.171-.727-.409-1.714-.704-2.951-.579-2.565-1.498-6.287-1.782-10.962-.124-2.338-.045-4.914.511-7.603.556-2.678 1.577-5.493 3.336-8.012a16.832 16.832 0 013.189-3.427c1.248-1.01 2.656-1.907 4.029-2.917 1.373-.998 2.735-2.178 3.745-3.676.998-1.498 1.668-3.2 2.19-4.937 1.032-3.461 1.589-6.967 3.245-9.872 1.646-2.894 4.381-4.891 7.24-5.958 2.871-1.09 5.867-1.317 8.568-.953 2.712.374 5.118 1.373 7.127 2.542 4.04 2.383 6.547 5.367 8.136 7.433a46.136 46.136 0 011.725 2.485c.409.567.613.874.624.862z" fill="#D0E4E9"/><path d="M459.232 421.341c.942-.874 1.396-.261 2.656-.034 1.259.227 2.405.896 3.404 1.702 4.358 3.472 6.287 9.714 4.641 15.036-4.005.216-8.057-1.906-10.156-5.333-2.088-3.428-2.145-8.001-.114-11.462M497.724 403.82c.476-1.192 1.146-.84 2.383-1.169 1.237-.341 2.553-.216 3.801.068 5.425 1.259 9.85 6.06 10.667 11.575-3.517 1.918-8.091 1.747-11.461-.443-3.359-2.19-5.379-6.298-5.039-10.304M450.743 445.058c2.554-2.951 6.492-4.63 10.384-4.448 3.892.192 7.648 2.246 9.907 5.435-2.849 2.61-6.673 4.108-10.52 4.154-3.858.034-7.705-1.737-10.599-4.29M453.909 427.343c-3.915.114-7.83-1.634-10.36-4.63-2.531-2.984-3.609-7.149-2.849-10.985 4.097-.942 8.647.534 11.428 3.677 2.78 3.155 3.665 7.853 2.213 11.802M467.46 406.52c-3.654 1.407-7.933 1.055-11.314-.919-3.382-1.975-5.776-5.538-6.333-9.419 3.552-2.247 8.33-2.372 12.007-.329 3.665 2.054 6.06 6.196 6.014 10.395M471.997 399.722c3.654-1.407 7.932-1.055 11.314.92 3.382 1.974 5.776 5.537 6.332 9.418-3.552 2.247-8.329 2.372-12.006.33-3.665-2.054-6.06-6.197-6.014-10.395M477.411 396.068c-3.711-1.248-6.775-4.255-8.114-7.943-1.328-3.677-.897-7.955 1.146-11.292 4.165.545 7.932 3.507 9.442 7.422 1.509 3.915.703 8.636-2.02 11.836M491.29 396.727c-1.339-3.677-.896-7.955 1.146-11.292 2.043-3.336 5.652-5.662 9.533-6.15 2.178 3.597 2.212 8.374.09 12.006-2.122 3.631-6.309 5.935-10.508 5.81" fill="#D0E4E9"/><path d="M435.355 490.518l-7.399-46.402 56.661.692-5.595 45.109" fill="#263238"/><path d="M459.798 435.639c3.042 1.895 6.616 2.202 9.397.794 2.791-1.407 4.743-4.493 5.14-8.125-3.121-1.498-6.536-1.668-9.385-.476-2.848 1.191-5.118 3.722-6.241 6.979M485.695 445.636c3.041 1.895 6.616 2.202 9.396.795 2.792-1.408 4.743-4.494 5.141-8.126-3.121-1.498-6.537-1.668-9.385-.476-2.848 1.191-5.118 3.722-6.242 6.979M471.158 423.326c1.498 3.257 4.312 5.47 7.41 5.833 3.109.363 6.434-1.146 8.761-3.96-1.782-2.962-4.54-4.982-7.581-5.561-3.041-.579-6.321.295-9.056 2.406M480.611 434.879c-3.586-.057-6.797 1.532-8.454 4.187-1.657 2.644-1.736 6.298-.193 9.612 3.45-.34 6.457-1.952 8.284-4.448 1.827-2.497 2.451-5.833 1.725-9.204M489.734 453.149c-1.566 3.234-1.475 6.808.227 9.43 1.702 2.621 4.982 4.233 8.636 4.233 1.146-3.269.953-6.673-.533-9.385-1.487-2.712-4.176-4.051-7.535-4.812" fill="#13ACAC"/><path d="M504.793 455.294c-.056.068-.612-.817-2.235-1.43-.806-.306-1.85-.499-3.075-.533-1.226-.057-2.622.113-4.177.249-1.554.102-3.336.216-5.152-.442-1.827-.636-3.324-2.225-4.244-4.108-.964-1.884-1.407-4.074-1.827-6.264-.442-2.179-.908-4.483-2.179-6.435-1.248-1.963-3.086-3.427-4.788-4.868-1.725-1.43-3.405-2.882-4.585-4.653-2.349-3.552-2.746-7.569-2.281-10.667.477-3.143 1.714-5.47 2.78-6.854.556-.681.999-1.203 1.362-1.498.341-.318.522-.477.533-.454.012.011-.136.204-.442.545-.329.318-.738.851-1.248 1.554-.999 1.408-2.145 3.711-2.542 6.775-.409 3.019.045 6.911 2.315 10.281 1.134 1.68 2.78 3.087 4.505 4.506 1.713 1.441 3.597 2.927 4.925 4.993 1.35 2.076 1.816 4.46 2.258 6.65.42 2.201.84 4.323 1.748 6.128.873 1.804 2.247 3.279 3.926 3.881 1.668.624 3.404.567 4.936.488 1.544-.103 2.974-.239 4.222-.159 1.248.079 2.326.306 3.143.658.817.34 1.373.772 1.703 1.101.17.159.272.306.351.397.046.102.08.159.068.159z" fill="#13ACAC"/><path d="M504.793 455.294c-.056.068-.612-.817-2.235-1.43-.806-.306-1.85-.499-3.075-.533-1.226-.057-2.622.113-4.177.249-1.554.102-3.336.216-5.152-.442-1.827-.636-3.324-2.225-4.244-4.108-.964-1.884-1.407-4.074-1.827-6.264-.442-2.179-.908-4.483-2.179-6.435-1.248-1.963-3.086-3.427-4.788-4.868-1.725-1.43-3.405-2.882-4.585-4.653-2.349-3.552-2.746-7.569-2.281-10.667.477-3.143 1.714-5.47 2.78-6.854.556-.681.999-1.203 1.362-1.498.341-.318.522-.477.533-.454.012.011-.136.204-.442.545-.329.318-.738.851-1.248 1.554-.999 1.408-2.145 3.711-2.542 6.775-.409 3.019.045 6.911 2.315 10.281 1.134 1.68 2.78 3.087 4.505 4.506 1.713 1.441 3.597 2.927 4.925 4.993 1.35 2.076 1.816 4.46 2.258 6.65.42 2.201.84 4.323 1.748 6.128.873 1.804 2.247 3.279 3.926 3.881 1.668.624 3.404.567 4.936.488 1.544-.103 2.974-.239 4.222-.159 1.248.079 2.326.306 3.143.658.817.34 1.373.772 1.703 1.101.17.159.272.306.351.397.046.102.08.159.068.159zM396.647 460.048c.238-4.732-2.054-9.521-5.879-12.301-3.835-2.792-9.089-3.495-13.515-1.816 3.268 7.513 10.746 13.039 18.883 13.936M392.913 462.024c-2.769 3.041-2.587 7.932-.613 11.541 1.986 3.608 5.391 6.173 8.806 8.465 1.147-3.881.999-8.125-.442-11.904a18.773 18.773 0 00-7.569-9.203M406.326 447.759c.443 4.425 2.758 8.636 6.253 11.382 3.495 2.746 8.136 3.983 12.539 3.359-1.078-4.449-2.859-8.942-6.298-11.961-3.438-3.019-8.863-4.142-12.675-1.6M406.236 443.22c-.692-4.052-4.698-6.991-8.783-7.377-4.085-.385-8.148 1.362-11.428 3.847a15.075 15.075 0 009.726 5.016 15.072 15.072 0 0010.519-3.007M385.14 477.695c-3.893 3.325-4.869 9.237-3.246 14.094 1.612 4.857 5.402 8.727 9.657 11.564 1.634-4.812 2.656-9.964 1.793-14.979-.862-5.005-3.881-9.839-8.533-11.882M405.612 431.837c2.054-3.018 5.549-5.004 9.192-5.22 3.643-.215 7.354 1.351 9.737 4.108-1.578 3.541-5.3 6.026-9.169 6.117-3.87.102-7.717-2.19-9.476-5.64M410.378 420.149c-4.187 1.271-8.908.669-12.642-1.623-3.733-2.292-6.411-6.219-7.172-10.531 3.121-.272 6.276-.42 9.363.136 3.086.556 6.105 1.839 8.284 4.085 2.178 2.247 2.803 4.869 2.167 7.933zM419.365 417.131c-2.894-2.361-4.652-6.049-4.664-9.782-.011-3.734 1.714-7.433 4.585-9.816a26.556 26.556 0 015.56 11.847c.307 1.623.466 3.325-.045 4.902-.499 1.578-1.793 2.985-3.427 3.212" fill="#13ACAC"/><path opacity=".4" d="M396.647 460.048c.238-4.732-2.054-9.521-5.879-12.301-3.835-2.792-9.089-3.495-13.515-1.816 3.268 7.513 10.746 13.039 18.883 13.936M392.913 462.024c-2.769 3.041-2.587 7.932-.613 11.541 1.986 3.608 5.391 6.173 8.806 8.465 1.147-3.881.999-8.125-.442-11.904a18.773 18.773 0 00-7.569-9.203M406.327 447.759c.443 4.425 2.758 8.636 6.253 11.382 3.495 2.746 8.136 3.983 12.539 3.359-1.078-4.449-2.859-8.942-6.298-11.961-3.438-3.019-8.863-4.142-12.675-1.6M406.236 443.22c-.692-4.052-4.698-6.991-8.783-7.377-4.085-.385-8.148 1.362-11.428 3.847a15.075 15.075 0 009.726 5.016 15.072 15.072 0 0010.519-3.007M385.14 477.695c-3.893 3.325-4.869 9.237-3.246 14.094 1.612 4.857 5.402 8.727 9.657 11.564 1.634-4.812 2.656-9.964 1.793-14.979-.862-5.005-3.881-9.839-8.533-11.882M405.612 431.838c2.054-3.018 5.549-5.004 9.192-5.22 3.643-.215 7.354 1.351 9.737 4.108-1.578 3.541-5.3 6.026-9.169 6.117-3.87.102-7.717-2.19-9.476-5.64M410.378 420.149c-4.187 1.271-8.908.669-12.642-1.623-3.733-2.292-6.411-6.219-7.172-10.531 3.121-.272 6.276-.42 9.363.136 3.086.556 6.105 1.839 8.284 4.085 2.178 2.247 2.803 4.869 2.167 7.933zM419.365 417.131c-2.894-2.361-4.652-6.049-4.664-9.782-.011-3.734 1.714-7.433 4.585-9.816a26.556 26.556 0 015.56 11.847c.307 1.623.466 3.325-.045 4.902-.499 1.578-1.793 2.985-3.427 3.212" fill="#000"/><path d="M434.9 445.614c-.011 0-.011-.113 0-.318.012-.249.034-.556.057-.93.057-.817.125-2.031.159-3.586.011-3.075 0-7.728-2.111-12.869-1.078-2.53-2.712-5.174-5.174-7.285-2.418-2.134-5.788-3.563-9.419-3.461-1.805.034-3.654.442-5.311 1.327-1.68.852-3.076 2.259-4.108 3.927-2.054 3.382-2.565 7.637-2.383 11.836.147 4.221.749 8.397.283 12.46-.238 2.02-.726 3.983-1.554 5.776-.817 1.793-1.986 3.405-3.484 4.562-1.487 1.192-3.223 1.861-4.857 2.485-1.634.613-3.212 1.214-4.573 2.077-2.758 1.702-4.755 4.097-6.003 6.548a15.885 15.885 0 00-1.737 7.16 16.852 16.852 0 00.908 5.538c1.022 2.939 2.236 4.256 2.145 4.312-.011.012-.079-.079-.204-.238-.125-.17-.329-.408-.545-.76a14.91 14.91 0 01-1.611-3.223 16.667 16.667 0 01-1.022-5.617 16.07 16.07 0 011.691-7.354c1.26-2.519 3.291-5.004 6.128-6.786 2.803-1.861 6.502-2.326 9.351-4.573 2.859-2.247 4.346-6.071 4.789-9.964.454-3.949-.148-8.091-.295-12.369-.182-4.244.329-8.625 2.485-12.177 1.078-1.736 2.564-3.222 4.346-4.119 1.759-.93 3.7-1.35 5.572-1.373 3.779-.091 7.297 1.43 9.771 3.643 2.519 2.19 4.164 4.913 5.242 7.501 1.067 2.61 1.544 5.14 1.782 7.342.227 2.213.216 4.142.159 5.697a53.549 53.549 0 01-.272 3.586c-.046.374-.091.681-.114.93-.057.193-.079.295-.091.295z" fill="#13ACAC"/><path opacity=".4" d="M434.9 445.614c-.011 0-.011-.113 0-.318.012-.249.034-.556.057-.93.057-.817.125-2.031.159-3.586.011-3.075 0-7.728-2.111-12.869-1.078-2.53-2.712-5.174-5.174-7.285-2.418-2.134-5.788-3.563-9.419-3.461-1.805.034-3.654.442-5.311 1.327-1.68.852-3.076 2.259-4.108 3.927-2.054 3.382-2.565 7.637-2.383 11.836.147 4.221.749 8.397.283 12.46-.238 2.02-.726 3.983-1.554 5.776-.817 1.793-1.986 3.405-3.484 4.562-1.487 1.192-3.223 1.861-4.857 2.485-1.634.613-3.212 1.214-4.573 2.077-2.758 1.702-4.755 4.097-6.003 6.548a15.885 15.885 0 00-1.737 7.16 16.852 16.852 0 00.908 5.538c1.022 2.939 2.236 4.256 2.145 4.312-.011.012-.079-.079-.204-.238-.125-.17-.329-.408-.545-.76a14.91 14.91 0 01-1.611-3.223 16.667 16.667 0 01-1.022-5.617 16.07 16.07 0 011.691-7.354c1.26-2.519 3.291-5.004 6.128-6.786 2.803-1.861 6.502-2.326 9.351-4.573 2.859-2.247 4.346-6.071 4.789-9.964.454-3.949-.148-8.091-.295-12.369-.182-4.244.329-8.625 2.485-12.177 1.078-1.736 2.564-3.222 4.346-4.119 1.759-.93 3.7-1.35 5.572-1.373 3.779-.091 7.297 1.43 9.771 3.643 2.519 2.19 4.164 4.913 5.242 7.501 1.067 2.61 1.544 5.14 1.782 7.342.227 2.213.216 4.142.159 5.697a53.549 53.549 0 01-.272 3.586c-.046.374-.091.681-.114.93-.057.193-.079.295-.091.295z" fill="#000"/><path d="M517.39 435.492c-.102-.023.783-1.396.851-4.154a10.378 10.378 0 00-1.101-4.788c-.862-1.714-2.428-3.416-4.618-4.46a10.306 10.306 0 00-3.643-.987c-1.316-.103-2.69.09-4.074.476-2.78.726-5.527 2.304-8.806 2.962-1.623.318-3.393.409-5.107-.125-1.725-.51-3.188-1.781-4.164-3.325-1.975-3.064-2.531-6.922-4.925-9.748-1.169-1.407-2.781-2.371-4.472-2.927-1.702-.579-3.506-.693-5.231-.534-3.507.284-6.548 2.156-8.693 4.528-2.156 2.394-3.506 5.231-4.312 7.989a24.022 24.022 0 00-.964 7.91c.204 4.913 1.021 8.851 1.475 11.575.227 1.316.408 2.371.545 3.132.045.329.09.601.124.817.023.181.034.283.023.283-.011 0-.034-.09-.079-.272-.046-.216-.114-.488-.182-.806-.159-.76-.374-1.804-.658-3.109-.511-2.712-1.407-6.639-1.668-11.598a24.302 24.302 0 01.908-8.068c.805-2.814 2.167-5.742 4.38-8.227 1.112-1.226 2.44-2.338 3.972-3.178a13.182 13.182 0 015.084-1.566c1.804-.181 3.688-.057 5.481.545 1.781.579 3.495 1.6 4.755 3.109 2.53 3.03 3.063 6.911 4.959 9.816.919 1.464 2.247 2.61 3.835 3.087 1.566.499 3.257.431 4.823.125 3.166-.602 5.924-2.156 8.783-2.894 1.419-.386 2.86-.579 4.245-.454a10.55 10.55 0 013.79 1.067c2.269 1.112 3.881 2.905 4.732 4.698a10.534 10.534 0 011.033 4.947 10.039 10.039 0 01-.613 3.144c-.272.681-.488 1.01-.488 1.01z" fill="#13ACAC"/><path d="M484.265 414.929c3.041 1.896 7.308 2.077 10.099.67 2.792-1.407 4.744-4.494 5.141-8.125-3.121-1.498-6.536-1.668-9.385-.477-2.848 1.192-5.118 3.722-6.241 6.979M495 424.678c-.034 3.586 2.032 7.319 4.687 8.976 2.656 1.645 6.31 1.713 9.623.159-.352-3.439-1.974-6.446-4.471-8.262-2.496-1.815-5.844-2.439-9.214-1.691M513.633 422.509c3.223 1.566 7.49 1.283 10.112-.42 2.621-1.69 4.232-4.97 4.244-8.624-3.269-1.158-6.673-.965-9.385.522-2.712 1.487-4.698 4.255-5.458 7.614M468.616 408.484c-2.712-2.349-4.539-6.457-4.017-9.533.522-3.086 2.894-5.855 6.241-7.319 2.349 2.542 3.53 5.753 3.234 8.829-.295 3.075-2.042 5.991-4.822 8.023M395.865 395.138c-.011 0 .023-.091.114-.25.102-.193.227-.42.374-.692a30.62 30.62 0 011.646-2.565c1.543-2.122 4.017-5.186 8.102-7.66 2.043-1.214 4.483-2.258 7.274-2.666 2.781-.397 5.867-.193 8.84.93 2.951 1.09 5.833 3.155 7.558 6.196 1.736 3.03 2.293 6.593 3.314 9.998.511 1.702 1.169 3.336 2.111 4.766.941 1.419 2.235 2.542 3.586 3.541 1.35.998 2.768 1.895 4.051 2.939a17.415 17.415 0 013.291 3.563c1.804 2.61 2.825 5.492 3.37 8.227.556 2.747.613 5.368.454 7.728-.329 4.732-1.328 8.455-1.975 10.997a95.33 95.33 0 01-.817 2.927c-.193.67-.306 1.01-.329 1.01-.022 0 .057-.363.216-1.044.17-.726.408-1.713.703-2.95.579-2.565 1.498-6.287 1.782-10.962.125-2.338.045-4.914-.511-7.604-.556-2.678-1.577-5.492-3.336-8.011a16.832 16.832 0 00-3.189-3.427c-1.248-1.01-2.655-1.907-4.028-2.917-1.373-.998-2.735-2.179-3.745-3.677-.999-1.497-1.668-3.2-2.19-4.936-1.033-3.461-1.589-6.968-3.246-9.873-1.645-2.893-4.38-4.891-7.24-5.957-2.871-1.09-5.867-1.317-8.568-.954-2.712.375-5.117 1.373-7.126 2.542-4.04 2.383-6.548 5.368-8.137 7.433a46.815 46.815 0 00-1.724 2.485c-.398.568-.602.874-.625.863z" fill="#13ACAC"/><path d="M440.37 407.622c-.942-.874-1.396-.261-2.655-.034-1.26.227-2.406.896-3.405 1.702-4.357 3.472-6.287 9.714-4.641 15.036 4.006.215 8.057-1.907 10.156-5.334 2.1-3.427 2.145-8 .114-11.461M401.866 390.1c-.476-1.191-1.146-.839-2.383-1.168-1.237-.341-2.553-.216-3.801.068-5.425 1.259-9.85 6.059-10.667 11.575 3.518 1.917 8.091 1.747 11.461-.443 3.359-2.19 5.379-6.298 5.039-10.304M448.847 431.338c-2.553-2.95-6.491-4.641-10.384-4.448-3.892.193-7.648 2.247-9.906 5.436 2.848 2.61 6.672 4.108 10.519 4.153 3.859.034 7.706-1.736 10.599-4.29M445.682 413.625c3.915.113 7.83-1.634 10.36-4.619 2.531-2.984 3.609-7.149 2.849-10.985-4.097-.942-8.647.534-11.428 3.677-2.78 3.155-3.665 7.853-2.213 11.802M432.132 392.801c3.654 1.407 7.932 1.055 11.314-.919 3.382-1.975 5.776-5.538 6.332-9.419-3.552-2.247-8.329-2.372-12.006-.329-3.666 2.054-6.06 6.196-6.015 10.394M427.592 386.003c-3.654-1.407-7.932-1.055-11.314.919-3.381 1.975-5.776 5.538-6.332 9.419 3.552 2.247 8.33 2.372 12.006.329 3.666-2.054 6.06-6.196 6.015-10.395M422.179 382.349c3.711-1.248 6.775-4.255 8.114-7.943 1.328-3.677.897-7.955-1.146-11.292-4.165.545-7.932 3.507-9.442 7.422-1.509 3.915-.703 8.636 2.02 11.836M408.301 383.007c1.339-3.676.896-7.955-1.146-11.291-2.043-3.336-5.652-5.663-9.533-6.151-2.178 3.598-2.212 8.375-.09 12.007 2.122 3.631 6.309 5.935 10.508 5.81" fill="#13ACAC"/><path d="M427.241 485.14l4.335 5.379h53.313l3.631-5.379h-61.279z" fill="#263238"/><path d="M487.352 485.093c0 .171-13.096.307-29.255.307-16.16 0-29.267-.136-29.267-.307 0-.17 13.096-.306 29.267-.306 16.148 0 29.255.136 29.255.306zM481.359 464.849c.012.011-.102.159-.329.443-.227.272-.578.681-1.089 1.146-.987.942-2.565 2.201-4.755 3.302-2.201 1.078-5.05 2.009-8.318 2.134a19.754 19.754 0 01-5.095-.432c-1.736-.374-3.473-.998-5.186-1.725-3.439-1.463-6.559-3.132-9.601-4.096-3.018-.999-5.946-1.283-8.295-.806-2.36.443-4.085 1.487-5.084 2.36-1.01.886-1.396 1.555-1.453 1.51-.022-.012.08-.182.273-.477a7.684 7.684 0 011.021-1.203c.976-.953 2.724-2.099 5.164-2.61 2.428-.556 5.458-.306 8.556.692 3.109.965 6.275 2.633 9.668 4.074 1.703.715 3.393 1.317 5.084 1.703 1.68.363 3.359.51 4.937.453 3.177-.102 5.98-.953 8.159-1.963 4.358-2.11 6.241-4.641 6.343-4.505z" fill="#455A64"/><path d="M481.893 460.684c.012.012-.113.159-.363.409-.25.261-.635.635-1.169 1.067a22.062 22.062 0 01-4.936 3.064c-2.247.998-5.107 1.861-8.386 1.997a23.19 23.19 0 01-5.107-.341c-1.747-.329-3.506-.862-5.265-1.486-3.518-1.283-6.752-2.746-9.839-3.609-3.075-.885-5.98-1.157-8.364-.76-2.394.352-4.176 1.259-5.276 2.02-1.101.783-1.589 1.373-1.634 1.328-.012-.012.102-.171.329-.443a9.618 9.618 0 011.157-1.078c1.09-.84 2.894-1.838 5.345-2.258 2.44-.466 5.458-.227 8.59.646 3.144.852 6.412 2.315 9.896 3.575 1.747.624 3.472 1.158 5.175 1.475 1.702.307 3.381.432 4.97.363 3.189-.102 6.003-.907 8.227-1.838 4.471-1.929 6.559-4.255 6.65-4.131z" fill="#455A64"/><ellipse rx="13" ry="19" transform="scale(-1 1) rotate(3.922 -3352.911 -1906.944)" fill="#13ACAC"/><path fill-rule="evenodd" clip-rule="evenodd" d="M142.394 180.289c-5.454 10.988-6.037 24.26-4.928 33.121l2.593-.324c-1.069-8.547-.476-21.257 4.676-31.637 2.566-5.17 11.392-12.946 11.392-12.946s-5.096 1.997-13.733 11.786zm10.625 71.248c-3.885-4.55-6.558-9.517-7.817-12.661l-2.426.97c1.355 3.384 4.169 8.601 8.255 13.386 4.079 4.777 9.523 9.239 16.161 10.897 12.644 3.159 21.199 3.108 24.051 2.633l-.429-2.576c-2.375.395-10.545.518-22.988-2.59-5.907-1.476-10.915-5.501-14.807-10.059z" fill="#13ACAC"/><circle r="5" transform="matrix(-1 0 0 1 187 266)" fill="#13ACAC"/></g><defs><clipPath id="clip0"><path fill="#fff" d="M0 0h528v503.341H0z"/></clipPath></defs></svg>