<svg width="644" height="413" fill="none" xmlns="http://www.w3.org/2000/svg"><g clip-path="url(#clip0)"><path d="M548.891 6.999h-17.579v70.225h17.579V7zM574.748 22.311h-17.579v54.903h17.579V22.311zM600.998 34.857h-17.579v42.367h17.579V34.857zM625.302 52.062h-17.579v25.153h17.579V52.061zM19.553 329.554a25.594 25.594 0 00-10.974-3.773c-1.79-.183-3.755-.128-5.19.95-.3.228-.602.576-.53.95.046.274.284.475.512.649 4.46 3.399 11.211 3.828 16.182 1.224zM19.27 329.244c-2.485-1.937-4.98-3.893-7.09-6.232-2.102-2.348-3.81-5.125-4.44-8.213-.193-.932-.248-2.011.346-2.751 5.656 4.404 10.087 10.106 11.184 17.196z" fill="#E0E0E0"/><path d="M19.488 329.508c-.43-3.088-.576-6.267.128-9.301.712-3.033 2.366-5.948 4.952-7.675.978 2.284.557 4.907-.128 7.291a35.415 35.415 0 01-4.916 10.343M25.025 339.43c-3.362.411-6.286 2.184-8.798 4.45a16.644 16.644 0 00-5.035 8.643c3.299-.201 6.095-2.531 8.123-5.135 2.028-2.604 3.435-5.463 5.665-7.903M26.232 341.021c-2.705-6.67-1.727-14.702 2.503-20.531 1.919 6.807 1.215 14.509-2.503 20.531zM33.55 349.728a15.762 15.762 0 00-8.798 2.065 15.781 15.781 0 00-6.204 6.579c-.183.374-.347.84-.1 1.178.218.293.63.32.995.293 2.96-.192 5.573-1.974 7.739-3.993 2.165-2.028 4.048-4.367 6.432-6.122M33.313 349.253a28.015 28.015 0 01-.283-15.615c.548-2.01 1.47-4.12 3.335-5.071.155-.082.347-.155.511-.091.156.064.247.219.32.375.658 1.379.85 2.951.786 4.477-.064 1.525-.384 3.033-.704 4.531-.584 2.769-.895 5.747-2.412 8.141a17.82 17.82 0 00-.968 1.791c-.283.603-.293.822-.558 1.307M52.683 352.14c-1.435-5.454.091-12.078 3.527-16.546.255-.329.584-.686 1.005-.649.63.055.795.905.767 1.535a29.884 29.884 0 01-5.3 15.66zM54.428 353.338c6.633 1.726 14.235.045 19.753-4.021a16.03 16.03 0 00-10.69-1.315c-3.572.822-6.843 2.421-9.063 5.336zM55.898 349.701c3.71-6.058 10.837-10.005 17.927-10.37-.813 2.887-3.189 5.125-5.866 6.487-2.677 1.352-5.665 1.946-8.607 2.512-1.142.229-2.713.466-3.454 1.371zM53.048 332.067c1.005-3.445 2.02-6.917 2.294-10.498.274-3.582-.238-7.319-2.093-10.389-3.472 6.716-3.819 14.555-.301 21.243M64.733 326.164c4.057-7.373 12.335-13.266 20.713-14.089-3.234 8.041-12.05 14.263-20.713 14.089zM62.176 327.608c6.048.923 11.201 4.787 16.857 7.126 1.206.503 2.513.905 3.81.731 1.298-.173 2.577-1.041 2.87-2.32.237-1.06-.238-2.184-1.006-2.961-.758-.776-1.763-1.26-2.768-1.681-6.159-2.567-12.764-2.631-19.252-1.069" fill="#E0E0E0"/><path d="M58.676 331.848c1.37.393 1.836 1.105 2.923 2.028a31.608 31.608 0 0012.783 6.569c.484.119 1.133.174 1.37-.274.21-.383-.054-.849-.328-1.197-1.965-2.457-4.77-4.138-7.721-5.244-2.951-1.096-5.51-2.421-9.027-2.138M54.73 306.219c4.915 4.596 11.85 6.953 18.547 6.313.302-.027.64-.073.84-.301.467-.512-.09-1.288-.639-1.718-5.445-4.248-12.051-6.012-18.748-4.294z" fill="#E0E0E0"/><path d="M59.407 304.51c6.506-4.879 15.423-6.35 23.144-3.819-2.915 2.869-6.963 4.422-11.028 4.843-4.066.42-8.141-.028-12.116-1.024zM57.552 292.733c-.54-5.445-.192-9.74-.566-15.213-.028-.438-.128-.959-.53-1.123-.567-.22-1.042.484-1.234 1.059-1.617 5.044-.73 10.827 2.32 15.149" fill="#E0E0E0"/><path d="M57.16 293.336c3.69-2.284 6.459-5.263 9.017-8.762 1.782-2.44 3.28-5.354 2.878-8.351-2.503-.046-4.879 1.334-6.505 3.234-1.627 1.901-2.595 4.276-3.317 6.67s-1.233 4.852-2.074 7.209zM66.013 290.869a72.786 72.786 0 0022.193-13.084c-2.65-1.069-5.683-.429-8.333.64-6.057 2.439-11 6.569-13.97 12.38M59.645 296.306c4.094.448 8.26.74 12.326.064 3.993-.667 7.766-2.248 11.503-3.819.31-.128.649-.283.786-.594.146-.329-.01-.74-.283-.987-.274-.246-.63-.365-.978-.457-4.057-1.133-8.442-.603-12.435.74-3.993 1.344-7.264 2.942-10.918 5.053zM36.255 306.41c-2.796-5.637-2.613-12.225-.201-18.036 1.7 2.586 1.91 5.884 1.599 8.972-.311 3.079-1.252 6.25-1.307 9.347M25.09 300.773c-6.981-.137-13.962 2.842-18.694 7.967 3.48.549 7.071-.347 10.233-1.9 3.17-1.544 5.984-3.719 8.771-5.875M17.588 298.27c-3.417-.274-6.697-.704-9.977.31-3.28 1.005-6.268 3.29-7.611 6.451 3.189.356 6.432-.439 9.356-1.763 2.924-1.334 5.592-3.171 8.232-4.998zM28.698 298.38c-3.07-2.01-6.222-4.057-9.803-4.898-3.573-.831-7.721-.219-10.215 2.476 2.896 1.7 6.405 1.901 9.758 1.901 3.353 0 7.474-.037 10.635 1.078" fill="#E0E0E0"/><path d="M28.716 298.544c-5.253-5.153-7.236-14.418-5.125-21.462 4.13 6.267 5.975 14.006 5.125 21.462zM43.153 283.934c.987-2.302 1.69-4.714 2.577-7.063.886-2.339 1.992-4.65 3.673-6.505 1.681-1.864 4.002-3.243 6.505-3.371-1.562 7.09-6.277 13.431-12.618 16.976M40.54 286.978c-1.636-2.257-3.536-5.318-5.757-6.999-2.22-1.681-5.116-2.705-7.83-2.056 2.769 4.934 7.976 8.406 13.586 9.055zM41.06 284.127c-1.078-2.732-2.156-5.492-2.585-8.388-.439-2.896-.174-6.003 1.315-8.525 2.879 5.446 3.81 11.293 1.426 16.976M43.18 267.205c1.635-5.4 6.578-9.374 11.914-11.201.676-.229 1.389-.421 2.092-.311.704.109 1.39.594 1.544 1.288.192.923-.566 1.745-1.279 2.348a40.448 40.448 0 01-14.271 7.876zM43.245 262.792c.21-3.481.42-7.017 1.553-10.315 1.133-3.299 3.317-6.396 6.487-7.84.54 3.518-1.014 7.017-2.878 10.042-1.873 3.024-4.13 5.884-5.254 9.255M43.154 265.185c-1.353-3.938-1.49-8.935-3.847-12.362-1.645-2.394-4.285-4.029-5.701-6.569-.941 2.366-.658 5.098.329 7.456.986 2.357 2.613 4.376 4.358 6.24 1.745 1.864 3.243 3.271 4.86 5.235z" fill="#E0E0E0"/><path d="M43.18 381.086c-.1 0-.192-26.25-.2-58.631-.01-32.39.072-58.64.173-58.64.1 0 .192 26.25.2 58.64.01 32.381-.063 58.631-.173 58.631z" fill="#E0E0E0"/><path d="M66.123 302.446c.01.028-.347.155-.987.375-.712.237-1.626.548-2.713.913-2.294.777-5.437 1.91-8.854 3.308-3.38 1.453-6.57 2.631-8.388 4.203-.904.776-1.425 1.617-1.68 2.229-.266.612-.311.996-.339.987-.009 0-.009-.101.01-.274.027-.174.073-.439.191-.768.22-.648.731-1.544 1.645-2.375.914-.832 2.184-1.581 3.636-2.257a109.773 109.773 0 0113.696-5.308 60.405 60.405 0 012.76-.804c.648-.174 1.014-.256 1.023-.229z" fill="#E0E0E0"/><path d="M73.642 283.97c.01.01-.091.11-.274.293-.219.21-.502.475-.84.795-.786.712-1.846 1.681-3.143 2.86a5925.944 5925.944 0 01-10.471 9.319c-4.084 3.636-7.62 7.108-10.069 9.731a127.497 127.497 0 00-2.85 3.143c-.311.347-.558.639-.759.868-.173.201-.274.292-.283.292-.01-.009.064-.128.228-.338.156-.21.393-.53.704-.914.621-.785 1.562-1.9 2.768-3.234 2.403-2.668 5.912-6.186 10.014-9.831 4.103-3.628 7.83-6.889 10.544-9.238a1140.38 1140.38 0 003.225-2.768c.357-.301.658-.539.887-.74.2-.164.31-.247.32-.238z" fill="#E0E0E0"/><path d="M54.5 300.938c-.109-.046.75-2.019 1.6-4.514.858-2.494 1.26-4.595 1.37-4.577.1.009-.146 2.174-1.014 4.696a30.026 30.026 0 01-1.27 3.152c-.375.795-.64 1.261-.685 1.243zM43.208 316.827c-.018.018-.247-.247-.63-.731-.43-.548-.969-1.243-1.618-2.065a639.953 639.953 0 00-5.326-6.816c-2.102-2.65-4.03-5.016-5.428-6.734-.657-.813-1.215-1.498-1.644-2.037-.384-.485-.585-.759-.567-.777.019-.018.265.228.685.685.42.457 1.015 1.124 1.746 1.965a200.993 200.993 0 015.518 6.669 207.055 207.055 0 015.245 6.89c.648.895 1.17 1.626 1.517 2.138.337.511.52.794.502.813z" fill="#E0E0E0"/><path d="M38.173 310.367c-.064.064-1.407-1.526-2.11-3.947-.521-1.709-.54-3.262-.475-3.974l.164.009c-.073.301-.128.466-.155.456-.028-.009-.028-.173-.01-.484l.165.009c.064.704.164 2.211.676 3.874.685 2.349 1.846 3.993 1.745 4.057zM31.677 302.199c-.046.055-.485-.493-1.471-.859-.987-.384-2.458-.466-4.084-.329-1.627.119-3.08.411-4.112.667-1.042.256-1.672.457-1.69.402-.018-.045.584-.338 1.617-.667 1.032-.329 2.503-.658 4.157-.786 1.645-.146 3.198-.018 4.212.457 1.033.466 1.407 1.106 1.37 1.115zM30.142 300.216c-.027.055-.859-.347-2.256-.822a22.978 22.978 0 00-5.629-1.16 23.27 23.27 0 00-5.738.292c-1.452.256-2.33.53-2.348.466-.009-.028.201-.11.594-.256.393-.146.978-.311 1.7-.475 1.452-.338 3.535-.576 5.82-.411 2.284.173 4.303.731 5.683 1.288.694.274 1.242.53 1.608.731.383.21.575.329.566.347zM43.153 291.847c-.1.027-.84-2.531-1.645-5.711-.804-3.18-1.38-5.774-1.279-5.802.1-.027.84 2.531 1.645 5.711.813 3.179 1.38 5.774 1.279 5.802z" fill="#E0E0E0"/><path d="M43.262 291.847c-.11.037-.585-1.672-1.819-3.417-1.206-1.782-2.74-2.677-2.686-2.769.019-.036.448.119 1.033.53.594.412 1.325 1.115 1.955 2.02 1.288 1.818 1.608 3.627 1.517 3.636zM43.18 367.097c-.037.009-.119-.63-.411-1.745-.293-1.115-.84-2.695-1.755-4.541-1.818-3.709-5.116-8.406-9.31-13.111-2.074-2.376-4.093-4.614-5.802-6.761-1.718-2.138-3.125-4.185-4.148-5.985-1.032-1.8-1.7-3.353-2.092-4.44-.192-.549-.338-.978-.411-1.27-.083-.293-.12-.448-.11-.457.037-.009.228.603.658 1.672.43 1.069 1.133 2.585 2.193 4.358 1.05 1.773 2.476 3.783 4.194 5.902 1.717 2.12 3.736 4.349 5.82 6.725 4.203 4.724 7.5 9.484 9.264 13.248.886 1.882 1.407 3.491 1.654 4.623.119.567.201 1.015.228 1.316.028.302.046.466.028.466z" fill="#E0E0E0"/><path d="M63.912 343.679c.01.028-.384.229-1.087.613a24.08 24.08 0 00-2.814 1.863c-1.133.868-2.403 2.011-3.7 3.372-1.298 1.37-2.641 2.969-4.003 4.678-2.731 3.426-5.28 6.46-6.816 8.881a33.877 33.877 0 00-1.708 2.924c-.375.712-.567 1.105-.594 1.096-.01-.009.027-.11.1-.311.083-.191.192-.493.366-.849.329-.731.859-1.773 1.617-2.997 1.49-2.476 4.02-5.555 6.743-8.972 1.37-1.709 2.723-3.308 4.048-4.679 1.324-1.37 2.622-2.503 3.791-3.353 1.17-.849 2.184-1.425 2.915-1.781.356-.183.658-.293.85-.375.182-.091.292-.128.292-.11z" fill="#E0E0E0"/><path d="M64.323 351.273c.009.055-.878.164-2.294.338-1.416.183-3.38.42-5.445 1.069-2.056.667-3.765 1.69-4.88 2.558-1.123.868-1.653 1.59-1.708 1.544-.018-.009.091-.21.338-.53.247-.319.649-.749 1.197-1.224 1.096-.941 2.823-2.028 4.934-2.713 2.11-.667 4.111-.859 5.537-.978 1.425-.101 2.311-.11 2.32-.064z" fill="#E0E0E0"/><path d="M50.663 355.95c-.12-.064.913-1.645 1.717-3.773.75-2.148.932-4.03 1.07-4.002.045.009.045.475-.037 1.233-.091.749-.274 1.8-.667 2.906-.402 1.105-.932 2.019-1.334 2.658-.42.631-.704 1.005-.75.978zM70.627 323.286c.01.009-.119.082-.365.192-.284.128-.64.292-1.078.493-.475.201-1.051.457-1.69.804-.65.339-1.408.677-2.194 1.152-.401.228-.822.466-1.251.712-.439.247-.868.549-1.325.832-.923.557-1.846 1.252-2.832 1.955a53.72 53.72 0 00-5.921 5.208 54.538 54.538 0 00-5.007 6.094c-.667 1.014-1.325 1.956-1.855 2.906-.274.466-.548.904-.786 1.352-.228.439-.456.868-.667 1.279-.447.804-.767 1.572-1.078 2.23-.32.657-.557 1.242-.74 1.717-.182.448-.338.804-.457 1.097-.11.246-.173.374-.182.374-.01 0 .027-.137.11-.402l.383-1.124c.164-.493.384-1.078.685-1.754.293-.667.603-1.453 1.033-2.266.21-.411.43-.849.648-1.297.229-.448.503-.896.777-1.371.52-.959 1.17-1.918 1.837-2.942a51.633 51.633 0 015.016-6.158 51.654 51.654 0 015.984-5.226c1.005-.704 1.937-1.389 2.878-1.937.466-.283.905-.576 1.343-.822.439-.238.868-.476 1.27-.695.805-.457 1.572-.795 2.23-1.105a20.77 20.77 0 011.727-.75c.447-.173.813-.31 1.105-.429.265-.091.402-.137.402-.119z" fill="#E0E0E0"/><path d="M54.217 334.278c-.036-.009.147-.64.905-1.343.73-.704 2.074-1.352 3.636-1.398 1.553-.046 2.906.393 3.828.749.923.366 1.462.658 1.444.704-.018.055-.594-.156-1.535-.448-.932-.283-2.247-.658-3.728-.621-1.47.045-2.74.612-3.472 1.215-.749.603-1.014 1.179-1.078 1.142zM51.768 336.809c-.1-.055.823-1.416 1.033-3.362.246-1.937-.347-3.472-.229-3.509.046-.018.247.338.43.978.183.639.301 1.562.183 2.567a6.843 6.843 0 01-.768 2.458c-.329.594-.612.895-.649.868zM25.054 370.851c.566 10.032 3.59 20.238 8.241 30.553h20.22c4.431-10.215 7.245-20.402 7.748-30.553h-36.21z" fill="#E0E0E0"/><path d="M57.983 387.089c0 .1-6.661.192-14.875.192s-14.875-.083-14.875-.192c0-.101 6.661-.192 14.875-.192 8.214.009 14.875.091 14.875.192zM57.535 390.725c0 .1-6.24.191-13.943.191-7.702 0-13.943-.082-13.943-.191 0-.101 6.24-.192 13.943-.192 7.702 0 13.943.091 13.943.192zM33.614 377.44c.1 0 .192 2.083.192 4.66 0 2.576-.083 4.659-.192 4.659-.1 0-.192-2.083-.192-4.659 0-2.568.091-4.66.192-4.66z" fill="#FAFAFA"/><path d="M44.45 377.44c.101 0 .192 2.156.192 4.824 0 2.668-.082 4.824-.191 4.824-.1 0-.192-2.156-.192-4.824 0-2.659.082-4.824.192-4.824zM54.62 377.357c.1 0 .192 2.202.192 4.916 0 2.713-.083 4.924-.192 4.924-.1 0-.192-2.202-.192-4.924 0-2.705.091-4.916.192-4.916z" fill="#FAFAFA"/><path d="M60.622 377.44c0 .1-7.812.192-17.442.192-9.639 0-17.442-.082-17.442-.192 0-.101 7.812-.192 17.442-.192 9.63.009 17.442.091 17.442.192zM210.456 7.73H42.796v103.766h167.66V7.729z" fill="#FAFAFA"/><path d="M169.972 82.752c-11.622-4.413-24.998 7.784-36.392 2.814-6.633-2.897-9.639-10.398-12.892-16.858-3.252-6.468-8.844-13.284-16.044-12.535-7.254.758-13.13 9.164-20.137 7.136-4.422-1.28-6.624-6.177-7.73-10.645-1.105-4.468-1.873-9.401-5.244-12.526-3.372-3.134-10.389-2.294-10.919 2.275v55.012h131.113s-17.726-13.147-21.755-14.673z" fill="#EBEBEB"/><path d="M195.225 97.426c0 .118-31.778.21-70.974.21-39.206 0-70.975-.092-70.975-.21 0-.12 31.769-.21 70.975-.21 39.196-.01 70.974.09 70.974.21zM195.225 73.395c0 .119-31.778.21-70.974.21-39.206 0-70.975-.091-70.975-.21s31.769-.21 70.975-.21c39.196 0 70.974.091 70.974.21zM195.225 49.366c0 .119-31.778.21-70.974.21-39.206 0-70.975-.091-70.975-.21s31.769-.21 70.975-.21c39.196 0 70.974.091 70.974.21zM195.225 26.533c0 .119-31.778.21-70.974.21-39.206 0-70.975-.091-70.975-.21s31.769-.21 70.975-.21c39.196 0 70.974.091 70.974.21z" fill="#E0E0E0"/><path d="M636.449 401.406c0 .127-140.03.237-312.733.237-172.758 0-312.76-.11-312.76-.237 0-.128 140.002-.238 312.76-.238 172.694 0 312.733.11 312.733.238z" fill="#263238"/><path d="M536.638 46.844H143.666c-6.779 0-12.27 5.49-12.27 12.27V336.68c0 6.78 5.491 12.271 12.27 12.271h150.821s9.593 37.113-20.147 52.463h141.026s-33.577-18.959-24.943-52.463h146.215c6.771 0 12.262-5.491 12.262-12.271V59.114c.009-6.78-5.491-12.27-12.262-12.27z" fill="#263238"/><path d="M345.397 319.75c5.345 7.638-3.024 16.007-10.663 10.662a2.496 2.496 0 01-.658-.658c-5.326-7.638 3.025-15.998 10.663-10.662.256.183.484.411.658.658z" fill="#455A64"/><path d="M543.537 51.952H138.166V298.17h405.371V51.952z" fill="#FAFAFA"/><path d="M496.108 241.54h-11.905v16.391h11.905V241.54z" fill="#FEAC42"/><path opacity=".79" d="M496.108 241.54h-11.905v16.391h11.905V241.54z" fill="#fff"/><path d="M470.973 231.882h-11.906v26.04h11.906v-26.04z" fill="#FEAC42"/><path opacity=".79" d="M470.973 231.882h-11.906v26.04h11.906v-26.04z" fill="#fff"/><path d="M443.854 224.043h-11.905v33.45h11.905v-33.45z" fill="#FEAC42"/><path opacity=".79" d="M443.854 224.043h-11.905v33.45h11.905v-33.45z" fill="#fff"/><path d="M192.374 234.888h-11.905v22.605h11.905v-22.605z" fill="#FEAC42"/><path opacity=".79" d="M192.374 234.888h-11.905v22.605h11.905v-22.605z" fill="#fff"/><path d="M218.214 244.135h-11.905v13.358h11.905v-13.358z" fill="#FEAC42"/><path opacity=".79" d="M218.214 244.135h-11.905v13.358h11.905v-13.358z" fill="#fff"/><path d="M242.226 227.269H230.32v30.653h11.906v-30.653z" fill="#FEAC42"/><path opacity=".79" d="M242.226 227.269H230.32v30.653h11.906v-30.653z" fill="#fff"/><path d="M267.36 241.54h-11.905v15.962h11.905V241.54z" fill="#FEAC42"/><path opacity=".79" d="M267.36 241.54h-11.905v15.962h11.905V241.54z" fill="#fff"/><path d="M292.075 227.269H280.17v30.224h11.905v-30.224zM316.553 188.62h-11.906v68.882h11.906V188.62zM342.071 160.351h-11.905v97.142h11.905v-97.142zM367.472 200.205h-11.906v57.288h11.906v-57.288z" fill="#FEAC42"/><path opacity=".79" d="M316.553 188.62h-11.906v68.882h11.906V188.62zM367.472 200.205h-11.906v57.288h11.906v-57.288z" fill="#fff"/><path d="M417.276 190.767h-11.905v66.725h11.905v-66.725z" fill="#455A64"/><path d="M392.835 170.465H380.93v87.028h11.905v-87.028z" fill="#FEAC42"/><path d="M172.402 148.556h-1.855v-.877h4.742v.877h-1.855v4.714h-1.042v-4.714h.01zM175.197 151.131c0-1.279.96-2.184 2.266-2.184 1.325 0 2.275.905 2.275 2.184 0 1.279-.95 2.193-2.275 2.193-1.306 0-2.266-.914-2.266-2.193zm3.536 0c0-.813-.539-1.334-1.27-1.334-.722 0-1.261.521-1.261 1.334 0 .813.539 1.334 1.261 1.334.731 0 1.27-.512 1.27-1.334zM184.882 147.34v5.929h-.959v-.548c-.338.411-.831.603-1.416.603-1.243 0-2.156-.859-2.156-2.193s.922-2.183 2.156-2.183c.548 0 1.041.183 1.37.575v-2.192h1.005v.009zm-.986 3.791c0-.813-.549-1.334-1.27-1.334-.722 0-1.27.521-1.27 1.334 0 .814.548 1.334 1.27 1.334.721 0 1.27-.511 1.27-1.334zM189.762 150.765v2.504h-.941v-.521c-.238.366-.704.576-1.344.576-.977 0-1.589-.539-1.589-1.279 0-.713.475-1.27 1.772-1.27h1.106v-.064c0-.585-.347-.923-1.06-.923-.475 0-.978.155-1.298.42l-.392-.731c.456-.347 1.114-.53 1.809-.53 1.233.009 1.937.594 1.937 1.818zm-.996 1.17v-.493h-1.033c-.676 0-.859.255-.859.566 0 .356.302.594.814.594.484-.009.913-.228 1.078-.667zM194.961 149.003l-2.001 4.605c-.393.968-.932 1.261-1.645 1.261-.42 0-.868-.147-1.142-.393l.402-.731c.192.183.466.292.731.292.347 0 .557-.164.749-.594l.073-.164-1.864-4.285h1.042l1.343 3.152 1.352-3.152h.96v.009z" fill="#263238"/><path d="M171.524 276.753v2.851h-.292v-2.586h-.676v-.265h.968zM186.92 279.347v.265h-2.001v-.21l1.188-1.16c.32-.32.384-.512.384-.704 0-.329-.229-.53-.667-.53-.338 0-.594.101-.777.32l-.21-.182c.219-.265.576-.412 1.005-.412.576 0 .941.293.941.768 0 .274-.082.521-.466.895l-.968.95h1.571zM201.53 278.79c0 .476-.347.841-1.032.841-.411 0-.804-.146-1.023-.365l.146-.229c.183.192.511.329.886.329.475 0 .731-.219.731-.576 0-.338-.238-.566-.767-.566h-.201v-.219l.785-.987h-1.462v-.265h1.828v.21l-.804 1.014c.603.028.913.357.913.813zM216.413 278.854h-.521v.75h-.265v-.75h-1.462v-.21l1.38-1.891h.292l-1.325 1.836h1.124v-.657h.256v.657h.521v.265zM230.896 278.763c0 .484-.338.859-1.033.859-.411 0-.804-.146-1.023-.366l.146-.228c.183.192.512.329.877.329.484 0 .74-.238.74-.585 0-.365-.228-.594-.95-.594h-.603l.146-1.425h1.563v.265h-1.307l-.1.904h.365c.85 0 1.179.339 1.179.841zM245.678 278.754c0 .53-.42.877-.968.877-.759 0-1.17-.521-1.17-1.426 0-.968.53-1.471 1.307-1.471.255 0 .493.046.676.156l-.119.237c-.146-.1-.338-.137-.557-.137-.613 0-1.015.393-1.015 1.17 0 .064 0 .146.01.228.146-.311.475-.493.868-.493.575 0 .968.338.968.859zm-.292.009c0-.375-.274-.612-.713-.612-.439 0-.731.265-.731.621 0 .311.265.612.749.612.411 0 .695-.247.695-.621zM260.252 276.753v.21l-1.197 2.641h-.32l1.17-2.586h-1.462v.53h-.293v-.795h2.102z" fill="#E0E0E0"/><path d="M171.524 164.992v2.85h-.292v-2.585h-.676v-.265h.968zM172.2 166.417c0-.905.475-1.453 1.133-1.453s1.142.539 1.142 1.453c0 .904-.484 1.452-1.142 1.452-.658 0-1.133-.548-1.133-1.452zm1.974 0c0-.759-.338-1.179-.841-1.179-.493 0-.84.42-.84 1.179 0 .758.338 1.178.84 1.178.503 0 .841-.42.841-1.178zM174.851 167.641c0-.128.1-.219.219-.219s.219.091.219.219-.1.229-.219.229a.231.231 0 01-.219-.229zM175.672 166.417c0-.905.475-1.453 1.133-1.453s1.142.539 1.142 1.453c0 .904-.484 1.452-1.142 1.452-.658 0-1.133-.548-1.133-1.452zm1.973 0c0-.759-.338-1.179-.84-1.179-.494 0-.841.42-.841 1.179 0 .758.338 1.178.841 1.178.493 0 .84-.42.84-1.178zM178.367 166.417c0-.905.475-1.453 1.133-1.453s1.142.539 1.142 1.453c0 .904-.484 1.452-1.142 1.452-.658 0-1.133-.548-1.133-1.452zm1.974 0c0-.759-.338-1.179-.841-1.179-.493 0-.84.42-.84 1.179 0 .758.338 1.178.84 1.178.494 0 .841-.42.841-1.178zM181.054 166.417c0-.905.475-1.453 1.133-1.453s1.142.539 1.142 1.453c0 .904-.484 1.452-1.142 1.452-.649 0-1.133-.548-1.133-1.452zm1.982 0c0-.759-.338-1.179-.84-1.179-.494 0-.841.42-.841 1.179 0 .758.338 1.178.841 1.178.493 0 .84-.42.84-1.178z" fill="#263238"/><path d="M274.989 278.809c0 .502-.429.822-1.105.822-.686 0-1.097-.311-1.097-.822 0-.338.192-.585.548-.704-.292-.109-.447-.329-.447-.63 0-.466.393-.749.996-.749s1.005.292 1.005.749c0 .301-.165.511-.457.63.356.128.557.366.557.704zm-.301 0c0-.347-.302-.567-.804-.567-.503 0-.805.22-.805.567 0 .356.302.575.805.575.502 0 .804-.219.804-.575zm-.804-.804c.447 0 .703-.201.703-.512 0-.32-.283-.521-.703-.521-.43 0-.704.192-.704.512s.256.521.704.521zM289.58 278.16c0 .968-.53 1.471-1.306 1.471-.256 0-.494-.046-.676-.156l.118-.237c.147.1.339.137.558.137.612 0 1.005-.393 1.005-1.17 0-.064 0-.146-.009-.228-.146.311-.475.493-.868.493-.567 0-.96-.338-.96-.859 0-.529.421-.877.969-.877.758 0 1.169.521 1.169 1.426zm-.402-.567c0-.31-.265-.612-.749-.612-.411 0-.694.238-.694.621 0 .375.274.613.712.613.43 0 .731-.275.731-.622zM302.893 276.753v2.851h-.292v-2.586h-.676v-.265h.968zM303.569 278.178c0-.905.475-1.453 1.133-1.453s1.142.539 1.142 1.453c0 .904-.484 1.453-1.142 1.453-.658 0-1.133-.539-1.133-1.453zm1.974 0c0-.759-.338-1.179-.841-1.179-.493 0-.84.42-.84 1.179 0 .758.338 1.178.84 1.178.503 0 .841-.411.841-1.178zM317.129 276.753v2.851h-.293v-2.586h-.676v-.265h.969zM318.599 276.753v2.851h-.292v-2.586h-.676v-.265h.968zM331.802 276.754v2.851h-.293v-2.586h-.676v-.265h.969zM334.424 279.348v.265h-2.001v-.21l1.188-1.161c.32-.319.384-.511.384-.703 0-.329-.229-.53-.667-.53-.338 0-.594.1-.777.32l-.21-.183c.219-.265.575-.411 1.014-.411.576 0 .941.292.941.767 0 .274-.082.521-.466.896l-.968.95h1.562zM346.292 276.753v2.851h-.265v-2.586h-.612v-.265h.877zM348.631 278.79c0 .476-.311.841-.941.841-.375 0-.731-.146-.932-.365l.128-.229c.164.192.466.329.804.329.429 0 .667-.219.667-.576 0-.338-.22-.566-.704-.566h-.183v-.219l.722-.987h-1.325v-.265h1.672v.21l-.73 1.014c.548.028.822.357.822.813zM361.122 276.753v2.851h-.293v-2.586h-.676v-.265h.969zM364.219 278.854h-.567v.75h-.292v-.75h-1.608v-.21l1.508-1.891h.328l-1.452 1.836h1.233v-.657h.283v.657h.567v.265zM375.695 276.753v2.851h-.292v-2.586h-.676v-.265h.968zM378.309 278.763c0 .484-.338.859-1.033.859-.411 0-.804-.146-1.023-.366l.146-.228c.183.192.512.329.877.329.485 0 .74-.238.74-.585 0-.365-.228-.594-.95-.594h-.603l.146-1.425h1.563v.265h-1.307l-.1.904h.365c.85 0 1.179.339 1.179.841zM390.395 276.754v2.851h-.292v-2.586h-.676v-.265h.968zM393.218 278.754c0 .53-.42.877-.968.877-.759 0-1.17-.521-1.17-1.425 0-.969.53-1.471 1.307-1.471.255 0 .493.046.676.155l-.119.238c-.146-.101-.338-.137-.557-.137-.613 0-1.015.393-1.015 1.169 0 .064 0 .146.01.229.146-.311.475-.494.868-.494.575 0 .968.338.968.859zm-.292.009c0-.374-.274-.612-.713-.612-.439 0-.731.265-.731.621 0 .311.265.613.749.613.411 0 .695-.247.695-.622zM404.96 276.753v2.851h-.293v-2.586h-.676v-.265h.969zM407.645 276.753v.21l-1.196 2.641h-.32l1.169-2.586h-1.462v.53h-.292v-.795h2.101zM419.678 276.753v2.851h-.292v-2.586h-.676v-.265h.968zM422.548 278.808c0 .503-.43.823-1.106.823-.685 0-1.096-.311-1.096-.823 0-.338.192-.584.548-.703-.292-.11-.448-.329-.448-.631 0-.466.393-.749.996-.749s1.005.292 1.005.749c0 .302-.164.512-.457.631.357.128.558.365.558.703zm-.302 0c0-.347-.301-.566-.804-.566-.502 0-.804.219-.804.566 0 .357.302.576.804.576.503 0 .804-.219.804-.576zm-.804-.804c.448 0 .713-.201.713-.511 0-.32-.283-.521-.713-.521-.429 0-.703.192-.703.511 0 .32.255.521.703.521zM433.421 276.754v2.851h-.293v-2.586h-.676v-.265h.969zM436.153 278.16c0 .969-.53 1.471-1.307 1.471-.256 0-.493-.045-.676-.155l.119-.238c.146.101.347.137.557.137.612 0 1.005-.393 1.005-1.169 0-.064 0-.146-.009-.229-.146.311-.475.494-.868.494-.566 0-.959-.338-.959-.859 0-.53.42-.877.977-.877.75 0 1.161.521 1.161 1.425zm-.402-.566c0-.311-.265-.612-.75-.612-.411 0-.694.237-.694.621 0 .374.274.612.713.612.438 0 .731-.274.731-.621zM448.322 279.348v.265h-2.001v-.21l1.188-1.161c.32-.319.384-.511.384-.703 0-.329-.228-.53-.667-.53-.338 0-.594.1-.777.32l-.21-.183c.22-.265.576-.411 1.014-.411.576 0 .942.292.942.767 0 .274-.083.521-.466.896l-.969.95h1.562zM448.67 278.178c0-.905.475-1.453 1.133-1.453s1.142.539 1.142 1.453c0 .904-.484 1.453-1.142 1.453-.658 0-1.133-.539-1.133-1.453zm1.973 0c0-.759-.338-1.179-.84-1.179-.494 0-.841.42-.841 1.179 0 .758.347 1.178.841 1.178.502 0 .84-.411.84-1.178zM462.065 279.347v.265h-2.001v-.21l1.187-1.16c.32-.32.384-.512.384-.704 0-.329-.228-.53-.667-.53-.338 0-.594.101-.776.32l-.211-.182c.22-.265.576-.412 1.015-.412.575 0 .941.293.941.768 0 .274-.083.521-.466.895l-.969.95h1.563zM463.217 276.752v2.851h-.293v-2.586h-.676v-.265h.969zM475.806 279.348v.265h-2.001v-.21l1.188-1.161c.319-.319.383-.511.383-.703 0-.329-.228-.53-.667-.53-.338 0-.593.1-.776.32l-.21-.183c.219-.265.575-.411 1.014-.411.575 0 .941.292.941.767 0 .274-.082.521-.466.896l-.969.95h1.563zM478.117 279.348v.265h-2.001v-.21l1.188-1.161c.32-.319.384-.511.384-.703 0-.329-.228-.53-.667-.53-.338 0-.594.1-.777.32l-.21-.183c.219-.265.576-.411 1.014-.411.576 0 .941.292.941.767 0 .274-.082.521-.466.896l-.968.95h1.562zM489.548 279.347v.265h-2.001v-.21l1.188-1.16c.32-.32.384-.512.384-.704 0-.329-.229-.53-.667-.53-.338 0-.594.101-.777.32l-.21-.182c.219-.265.575-.412 1.014-.412.576 0 .941.293.941.768 0 .274-.082.521-.466.895l-.968.95h1.562zM491.796 278.79c0 .475-.347.841-1.032.841-.412 0-.804-.147-1.024-.366l.146-.228c.183.192.512.329.887.329.475 0 .731-.22.731-.576 0-.338-.238-.567-.768-.567h-.201v-.219l.786-.987h-1.462v-.265h1.827v.211l-.804 1.014c.612.027.914.356.914.813zM497.296 272.203c0 .128-73.158.237-163.384.237-90.253 0-163.392-.109-163.392-.237s73.139-.238 163.392-.238c90.226 0 163.384.101 163.384.238z" fill="#E0E0E0"/><path opacity=".3" d="M392.835 170.465H380.93v87.028h11.905v-87.028z" fill="#fff"/><path opacity=".79" d="M292.075 227.269H280.17v30.224h11.905v-30.224z" fill="#fff"/><path d="M194.12 167.038c0 .128-1.225.238-2.741.238-1.517 0-2.741-.11-2.741-.238s1.224-.237 2.741-.237c1.516 0 2.741.1 2.741.237zM215.947 167.039c0 .128-2.439.237-5.454.237-3.015 0-5.455-.109-5.455-.237s2.44-.238 5.455-.238 5.454.101 5.454.238zM237.784 167.039c0 .128-2.439.237-5.454.237-3.015 0-5.455-.109-5.455-.237s2.44-.238 5.455-.238c3.006 0 5.454.101 5.454.238zM259.622 167.039c0 .128-2.449.237-5.455.237-3.015 0-5.464-.109-5.464-.237s2.44-.238 5.464-.238c3.006 0 5.455.101 5.455.238zM281.448 167.039c0 .128-2.448.237-5.454.237-3.015 0-5.455-.109-5.455-.237s2.44-.238 5.455-.238 5.454.101 5.454.238zM303.286 167.039c0 .128-2.449.237-5.455.237-3.015 0-5.464-.109-5.464-.237s2.44-.238 5.464-.238c3.015 0 5.455.101 5.455.238zM325.123 167.039c0 .128-2.449.237-5.455.237-3.015 0-5.464-.109-5.464-.237s2.44-.238 5.464-.238c3.015 0 5.455.101 5.455.238zM346.959 167.039c0 .128-2.448.237-5.454.237-3.015 0-5.464-.109-5.464-.237s2.44-.238 5.464-.238c3.006 0 5.454.101 5.454.238zM368.788 167.039c0 .128-2.439.237-5.454.237-3.016 0-5.455-.109-5.455-.237s2.439-.238 5.455-.238c3.015 0 5.454.101 5.454.238zM390.624 167.039c0 .128-2.439.237-5.455.237-3.015 0-5.454-.109-5.454-.237s2.439-.238 5.454-.238c3.006 0 5.455.101 5.455.238zM412.461 167.039c0 .128-2.439.237-5.455.237-3.015 0-5.454-.109-5.454-.237s2.439-.238 5.454-.238c3.006 0 5.455.101 5.455.238zM434.289 167.039c0 .128-2.449.237-5.455.237-3.015 0-5.464-.109-5.464-.237s2.44-.238 5.464-.238c3.015 0 5.455.101 5.455.238zM456.135 167.039c0 .128-2.449.237-5.464.237-3.015 0-5.464-.109-5.464-.237s2.449-.238 5.464-.238c3.015 0 5.464.101 5.464.238zM477.972 167.039c0 .128-2.449.237-5.464.237-3.015 0-5.464-.109-5.464-.237s2.449-.238 5.464-.238c3.024 0 5.464.101 5.464.238zM494.353 167.039c0 .128-1.224.237-2.741.237-1.517 0-2.741-.109-2.741-.237s1.224-.238 2.741-.238c1.517 0 2.741.101 2.741.238z" fill="#263238"/><path d="M192.374 245.651c.092.092-2.485 2.824-5.756 6.095-3.271 3.27-6.003 5.847-6.094 5.756-.092-.092 2.485-2.824 5.756-6.095 3.271-3.271 6.003-5.847 6.094-5.756zM218.131 245.852c.091.091-2.485 2.823-5.756 6.094-3.271 3.271-6.003 5.848-6.094 5.756-.092-.091 2.485-2.823 5.756-6.094 3.271-3.271 6.003-5.847 6.094-5.756zM267.332 245.642c.092.092-2.485 2.824-5.756 6.095-3.271 3.271-6.003 5.847-6.094 5.756-.092-.091 2.485-2.823 5.756-6.094 3.271-3.271 6.003-5.848 6.094-5.757zM192.21 235.126c.092.091-2.485 2.823-5.756 6.094-3.271 3.271-6.003 5.848-6.094 5.756-.092-.091 2.485-2.823 5.756-6.094 3.271-3.271 6.003-5.857 6.094-5.756zM242.407 245.825c.092.091-2.485 2.823-5.756 6.094-3.271 3.271-6.003 5.848-6.094 5.756-.091-.091 2.485-2.823 5.756-6.094 3.271-3.271 6.003-5.847 6.094-5.756zM242.243 235.29c.092.092-2.485 2.824-5.756 6.095-3.271 3.271-6.003 5.847-6.094 5.756-.091-.092 2.485-2.823 5.756-6.094 3.271-3.271 6.003-5.848 6.094-5.757zM238.534 227.268c.091.091-1.654 1.992-3.901 4.24-2.248 2.247-4.149 3.992-4.24 3.901-.091-.091 1.654-1.992 3.901-4.24 2.248-2.247 4.149-3.992 4.24-3.901z" fill="#FEAC42"/><path opacity=".6" d="M342.126 245.642c.092.092-2.485 2.824-5.756 6.095-3.271 3.271-6.003 5.847-6.094 5.756-.092-.091 2.485-2.823 5.756-6.094 3.271-3.271 5.994-5.848 6.094-5.757zM341.961 235.117c.092.091-2.485 2.823-5.756 6.094-3.271 3.271-6.003 5.847-6.094 5.756-.092-.091 2.485-2.823 5.756-6.094 3.271-3.271 6.003-5.857 6.094-5.756zM341.961 223.376c.092.091-2.485 2.823-5.756 6.094-3.271 3.271-6.003 5.848-6.094 5.756-.092-.091 2.485-2.823 5.756-6.094 3.271-3.271 6.003-5.847 6.094-5.756zM342.126 212.028c.092.092-2.485 2.823-5.756 6.094-3.271 3.271-6.003 5.848-6.094 5.757-.092-.092 2.485-2.824 5.756-6.095 3.271-3.271 5.994-5.847 6.094-5.756zM341.961 201.502c.092.091-2.485 2.823-5.756 6.094-3.271 3.271-6.003 5.848-6.094 5.756-.092-.091 2.485-2.823 5.756-6.094 3.271-3.271 6.003-5.847 6.094-5.756zM341.961 189.771c.092.091-2.485 2.823-5.756 6.094-3.271 3.271-6.003 5.848-6.094 5.756-.092-.091 2.485-2.823 5.756-6.094 3.271-3.271 6.003-5.847 6.094-5.756z" fill="#fff"/><path d="M367.262 245.642c.091.092-2.485 2.824-5.756 6.095-3.271 3.271-6.003 5.847-6.094 5.756-.092-.091 2.485-2.823 5.756-6.094 3.271-3.271 6.003-5.848 6.094-5.757zM367.107 235.117c.091.091-2.486 2.823-5.757 6.094-3.27 3.271-6.002 5.847-6.094 5.756-.091-.091 2.485-2.823 5.756-6.094 3.271-3.271 5.994-5.857 6.095-5.756zM367.107 223.376c.091.091-2.486 2.823-5.757 6.094-3.27 3.271-6.002 5.848-6.094 5.756-.091-.091 2.485-2.823 5.756-6.094 3.271-3.271 5.994-5.847 6.095-5.756zM367.262 212.028c.091.092-2.485 2.823-5.756 6.094-3.271 3.271-6.003 5.848-6.094 5.757-.092-.092 2.485-2.824 5.756-6.095 3.271-3.271 6.003-5.847 6.094-5.756zM367.107 201.502c.091.091-2.486 2.823-5.757 6.094-3.27 3.271-6.002 5.848-6.094 5.756-.091-.091 2.485-2.823 5.756-6.094 3.271-3.271 5.994-5.847 6.095-5.756z" fill="#FEAC42"/><path d="M417.176 245.642c.091.092-2.485 2.824-5.756 6.095-3.271 3.271-6.003 5.847-6.094 5.756-.092-.091 2.485-2.823 5.756-6.094 3.271-3.271 6.003-5.848 6.094-5.757zM417.011 235.117c.091.091-2.485 2.823-5.756 6.094-3.271 3.271-6.003 5.847-6.094 5.756-.092-.091 2.485-2.823 5.756-6.094 3.271-3.271 6.003-5.857 6.094-5.756zM417.011 223.376c.091.091-2.485 2.823-5.756 6.094-3.271 3.271-6.003 5.848-6.094 5.756-.092-.091 2.485-2.823 5.756-6.094 3.271-3.271 6.003-5.847 6.094-5.756zM417.176 212.028c.091.092-2.485 2.823-5.756 6.094-3.271 3.271-6.003 5.848-6.094 5.757-.092-.092 2.485-2.824 5.756-6.095 3.271-3.271 6.003-5.847 6.094-5.756zM417.011 201.502c.091.091-2.485 2.823-5.756 6.094-3.271 3.271-6.003 5.848-6.094 5.756-.092-.091 2.485-2.823 5.756-6.094 3.271-3.271 6.003-5.847 6.094-5.756zM417.011 191.461c.091.091-2.485 2.823-5.756 6.094-3.271 3.271-6.003 5.848-6.094 5.756-.092-.091 2.485-2.823 5.756-6.094 3.271-3.271 6.003-5.857 6.094-5.756z" fill="#263238"/><path d="M316.488 245.642c.092.092-2.485 2.824-5.756 6.095-3.271 3.271-6.003 5.847-6.094 5.756-.091-.091 2.485-2.823 5.756-6.094 3.271-3.271 6.003-5.848 6.094-5.757zM316.324 235.117c.092.091-2.485 2.823-5.756 6.094-3.271 3.271-6.003 5.847-6.094 5.756-.091-.091 2.485-2.823 5.756-6.094 3.271-3.271 6.003-5.857 6.094-5.756zM316.324 223.376c.092.091-2.485 2.823-5.756 6.094-3.271 3.271-6.003 5.848-6.094 5.756-.091-.091 2.485-2.823 5.756-6.094 3.271-3.271 6.003-5.847 6.094-5.756zM292.358 245.642c.091.092-2.486 2.824-5.757 6.095-3.271 3.271-6.002 5.847-6.094 5.756-.091-.091 2.485-2.823 5.756-6.094 3.271-3.271 6.003-5.848 6.095-5.757zM292.202 235.117c.092.091-2.485 2.823-5.756 6.094-3.271 3.271-6.003 5.847-6.094 5.756-.091-.091 2.485-2.823 5.756-6.094 3.271-3.271 6.003-5.857 6.094-5.756zM288.411 227.168c.091.091-1.635 1.973-3.865 4.202-2.229 2.23-4.111 3.957-4.203 3.865-.091-.091 1.636-1.973 3.865-4.203 2.23-2.229 4.112-3.956 4.203-3.864zM316.488 212.028c.092.092-2.485 2.823-5.756 6.094-3.271 3.271-6.003 5.848-6.094 5.757-.091-.092 2.485-2.824 5.756-6.095 3.271-3.271 6.003-5.847 6.094-5.756zM316.488 190.932c.092.091-2.485 2.823-5.756 6.094-3.271 3.271-6.003 5.847-6.094 5.756-.091-.091 2.485-2.823 5.756-6.094 3.271-3.271 6.003-5.848 6.094-5.756zM316.324 201.502c.092.091-2.485 2.823-5.756 6.094-3.271 3.271-6.003 5.848-6.094 5.756-.091-.091 2.485-2.823 5.756-6.094 3.271-3.271 6.003-5.847 6.094-5.756zM392.972 245.642c.091.092-2.485 2.824-5.756 6.095-3.271 3.271-6.003 5.847-6.095 5.756-.091-.091 2.486-2.823 5.757-6.094 3.271-3.271 6.003-5.848 6.094-5.757zM392.808 235.117c.091.091-2.485 2.823-5.756 6.094-3.271 3.271-6.003 5.847-6.095 5.756-.091-.091 2.486-2.823 5.757-6.094 3.28-3.271 6.002-5.857 6.094-5.756zM392.808 223.376c.091.091-2.485 2.823-5.756 6.094-3.271 3.271-6.003 5.848-6.095 5.756-.091-.091 2.486-2.823 5.757-6.094 3.28-3.271 6.002-5.847 6.094-5.756zM392.972 212.028c.091.092-2.485 2.823-5.756 6.094-3.271 3.271-6.003 5.848-6.095 5.757-.091-.092 2.486-2.824 5.757-6.095 3.271-3.271 6.003-5.847 6.094-5.756zM392.808 201.502c.091.091-2.485 2.823-5.756 6.094-3.271 3.271-6.003 5.848-6.095 5.756-.091-.091 2.486-2.823 5.757-6.094 3.28-3.271 6.002-5.847 6.094-5.756zM392.808 189.771c.091.091-2.485 2.823-5.756 6.094-3.271 3.271-6.003 5.848-6.095 5.756-.091-.091 2.486-2.823 5.757-6.094 3.28-3.271 6.002-5.847 6.094-5.756zM392.808 179.109c.091.091-2.485 2.823-5.756 6.094-3.271 3.271-6.003 5.848-6.095 5.756-.091-.091 2.486-2.823 5.757-6.094 3.28-3.271 6.002-5.857 6.094-5.756zM390.789 170.465c.091.092-2.029 2.367-4.742 5.08-2.714 2.714-4.989 4.843-5.08 4.742-.092-.091 2.028-2.366 4.742-5.08 2.704-2.704 4.979-4.833 5.08-4.742z" fill="#FEAC42"/><path opacity=".6" d="M342.126 177.848c.092.091-2.485 2.823-5.756 6.094-3.271 3.271-6.003 5.847-6.094 5.756-.092-.091 2.485-2.823 5.756-6.094 3.271-3.271 5.994-5.848 6.094-5.756zM341.961 167.321c.092.092-2.485 2.823-5.756 6.094-3.271 3.271-6.003 5.848-6.094 5.757-.092-.092 2.485-2.824 5.756-6.095 3.271-3.271 6.003-5.847 6.094-5.756zM337.201 160.351c.092.091-1.416 1.754-3.371 3.709-1.956 1.955-3.618 3.472-3.71 3.381-.091-.092 1.416-1.755 3.381-3.71 1.937-1.964 3.6-3.472 3.7-3.38z" fill="#fff"/><path d="M443.901 246.072c.091.091-2.486 2.823-5.757 6.094-3.271 3.271-6.002 5.847-6.094 5.756-.091-.091 2.485-2.823 5.756-6.094 3.271-3.271 6.003-5.848 6.095-5.756zM443.745 235.546c.092.092-2.485 2.824-5.756 6.095-3.271 3.27-6.003 5.847-6.094 5.756-.091-.092 2.485-2.824 5.756-6.095 3.271-3.27 6.003-5.847 6.094-5.756zM443.673 223.878c.091.092-2.467 2.805-5.729 6.058-3.253 3.253-5.966 5.82-6.058 5.729-.091-.092 2.467-2.805 5.729-6.058 3.253-3.262 5.966-5.82 6.058-5.729zM470.991 246.072c.092.091-2.485 2.823-5.756 6.094-3.271 3.271-6.003 5.847-6.094 5.756-.091-.091 2.485-2.823 5.756-6.094 3.271-3.271 6.003-5.848 6.094-5.756zM470.826 235.546c.092.092-2.485 2.824-5.756 6.095-3.271 3.27-6.003 5.847-6.094 5.756-.091-.092 2.485-2.824 5.756-6.095 3.28-3.27 6.003-5.847 6.094-5.756zM462.732 231.909c.045.046-.119.302-.439.676-.155.183-.347.403-.566.64-.119.128-.238.247-.348.366l-.182.191-.092.101-.045.046-.028.027-.009.009-.009.009-.338-.338.338.338-.009.009-.009.01-.028.027-.046.046-.1.091-.192.183c-.119.109-.237.228-.365.347a13.87 13.87 0 01-.64.566c-.375.311-.63.485-.676.439-.046-.046.119-.302.439-.676.155-.183.347-.402.566-.64.119-.128.238-.246.347-.365l.183-.192.091-.101.046-.045.027-.028.009-.009.01-.009.338.338-.338-.338.009-.009.009-.009.027-.028.046-.045.101-.092.191-.182c.119-.11.238-.229.366-.348.237-.219.448-.411.639-.566.375-.32.631-.484.677-.439zM496.081 246.072c.092.091-2.485 2.823-5.756 6.094-3.271 3.271-6.003 5.847-6.094 5.756-.091-.091 2.485-2.823 5.756-6.094 3.271-3.271 5.994-5.848 6.094-5.756zM489.785 241.668c.092.091-1.114 1.453-2.695 3.033-1.581 1.581-2.942 2.787-3.033 2.696-.092-.092 1.114-1.453 2.695-3.034 1.59-1.58 2.942-2.786 3.033-2.695z" fill="#FEAC42"/><path d="M543.537 74.42c0 .127-90.756.237-202.672.237-111.962 0-202.699-.11-202.699-.238s90.737-.237 202.699-.237c111.916 0 202.672.11 202.672.237z" fill="#263238"/><path d="M278.305 130.501h-76.557a4.242 4.242 0 01-4.239-4.239v-19.964c0-2.339 1.9-4.239 4.239-4.239h76.557c2.339 0 4.24 1.9 4.24 4.239v19.964a4.237 4.237 0 01-4.24 4.239z" fill="#FEAC42"/><path d="M215.765 122.003l-2.385-4.039-.959 1.097a.934.934 0 01-.987.274.912.912 0 01-.63-.804l-.585-7.401a.912.912 0 01.438-.859.928.928 0 01.969 0l6.176 3.792a.902.902 0 01.43.905.914.914 0 01-.649.767l-1.307.402 2.833 3.819-3.344 2.047zm-2.239-5.601l2.559 4.34 1.708-1.042-3.006-4.056 2.54-.777-6.176-3.81-.475.046.456-.037.585 7.401 1.809-2.065z" fill="#fff"/><path opacity=".4" d="M229.24 128.427c-.127 0-.237-5.573-.237-12.444s.11-12.444.237-12.444c.128 0 .238 5.573.238 12.444s-.11 12.444-.238 12.444z" fill="#fff"/><path d="M233.965 110.609c0-.923.703-1.599 1.654-1.599.456 0 .877.156 1.151.457l-.21.21c-.256-.265-.576-.374-.932-.374-.759 0-1.334.557-1.334 1.306s.575 1.307 1.334 1.307c.356 0 .676-.11.932-.375l.21.21c-.283.302-.695.466-1.161.466-.941 0-1.644-.685-1.644-1.608zM237.419 108.846h.32v3.344h-.32v-3.344zM238.561 109.074c0-.119.1-.228.237-.228.128 0 .238.1.238.219a.237.237 0 01-.238.238.234.234 0 01-.237-.229zm.073.74h.319v2.367h-.319v-2.367zM239.603 111.002c0-.704.511-1.206 1.224-1.206.402 0 .74.155.932.466l-.238.164a.802.802 0 00-.685-.347c-.521 0-.895.366-.895.923s.374.923.895.923c.274 0 .53-.11.685-.347l.238.164c-.192.302-.53.466-.932.466-.713 0-1.224-.503-1.224-1.206zM243.22 111.002l-.557.512v.676h-.32v-3.344h.32v2.266l1.416-1.289h.393l-1.015.969 1.106 1.398h-.393l-.95-1.188zM244.655 111.916l.146-.256c.192.146.512.265.841.265.448 0 .63-.156.63-.384 0-.621-1.534-.128-1.534-1.069 0-.384.328-.676.941-.676.301 0 .639.082.84.219l-.137.256a1.205 1.205 0 00-.694-.201c-.43 0-.622.164-.622.393 0 .639 1.535.155 1.535 1.069 0 .411-.356.676-.977.676-.402 0-.777-.128-.969-.292zM236.551 116.548v6.898h-1.28v-5.829h-1.461v-1.078h2.741v.009zM237.921 120.002c0-2.266 1.242-3.545 2.878-3.545 1.645 0 2.887 1.279 2.887 3.545s-1.242 3.545-2.887 3.545c-1.636 0-2.878-1.279-2.878-3.545zm4.468 0c0-1.663-.649-2.43-1.599-2.43-.932 0-1.59.767-1.59 2.43 0 1.663.649 2.43 1.59 2.43.95 0 1.599-.767 1.599-2.43zM244.39 122.707c0-.493.365-.822.804-.822.447 0 .804.329.804.822a.804.804 0 01-.804.822.814.814 0 01-.804-.822zM251.845 121.336c0 1.215-.877 2.22-2.732 2.22-.977 0-1.964-.292-2.594-.795l.539-.995c.502.411 1.251.676 2.028.676.914 0 1.462-.402 1.462-1.051 0-.658-.42-1.078-1.855-1.078h-1.663l.357-3.755h4.047v1.078h-2.969l-.147 1.599h.658c2.056-.009 2.869.877 2.869 2.101zM252.585 120.002c0-2.266 1.243-3.545 2.878-3.545 1.645 0 2.887 1.279 2.887 3.545s-1.242 3.545-2.887 3.545c-1.635 0-2.878-1.279-2.878-3.545zm4.477 0c0-1.663-.649-2.43-1.599-2.43-.932 0-1.59.767-1.59 2.43 0 1.663.649 2.43 1.59 2.43.941 0 1.599-.767 1.599-2.43zM259.21 120.002c0-2.266 1.243-3.545 2.878-3.545 1.645 0 2.887 1.279 2.887 3.545s-1.242 3.545-2.887 3.545c-1.635 0-2.878-1.279-2.878-3.545zm4.477 0c0-1.663-.649-2.43-1.599-2.43-.932 0-1.59.767-1.59 2.43 0 1.663.649 2.43 1.59 2.43.95 0 1.599-.767 1.599-2.43z" fill="#fff"/><path d="M380.518 130.501h-79.956a2.541 2.541 0 01-2.54-2.54v-23.372a2.54 2.54 0 012.54-2.54h79.956a2.54 2.54 0 012.54 2.54v23.372a2.535 2.535 0 01-2.54 2.54z" fill="#FEAC42"/><path opacity=".3" d="M379.942 130.5h-78.795a3.114 3.114 0 01-3.116-3.116v-22.202a3.114 3.114 0 013.116-3.116h78.795a3.122 3.122 0 013.125 3.116v22.202a3.133 3.133 0 01-3.125 3.116z" fill="#fff"/><path d="M337.229 110.117c0 .667-.484 1.078-1.288 1.078h-.85v.996h-.338v-3.152h1.179c.804 0 1.297.402 1.297 1.078zm-.338 0c0-.502-.338-.795-.959-.795h-.841v1.581h.841c.63 0 .959-.292.959-.786zM339.934 111.103h-1.982c.036.493.411.822.932.822.292 0 .548-.1.721-.31l.183.21c-.21.256-.539.383-.914.383-.74 0-1.242-.502-1.242-1.206 0-.703.493-1.206 1.16-1.206.667 0 1.151.494 1.151 1.206-.009.028-.009.064-.009.101zm-1.982-.238h1.681c-.037-.466-.375-.785-.841-.785-.466 0-.804.319-.84.785zM341.788 109.796v.311h-.073c-.493 0-.795.311-.795.877v1.206h-.319v-2.366h.301v.466c.146-.32.448-.494.886-.494zM342.766 109.541v.283h.731v.274h-.722v2.102h-.32v-2.102h-.42v-.274h.42v-.292c0-.421.256-.704.713-.704.174 0 .356.046.475.146l-.109.238a.573.573 0 00-.348-.119c-.283 0-.42.155-.42.448zM343.643 111.002c0-.703.511-1.206 1.206-1.206.694 0 1.206.503 1.206 1.206 0 .704-.512 1.206-1.206 1.206-.686 0-1.206-.502-1.206-1.206zm2.092 0c0-.557-.375-.922-.877-.922-.503 0-.886.365-.886.922 0 .558.374.923.886.923.502 0 .877-.365.877-.923zM347.909 109.796v.311h-.073c-.493 0-.795.311-.795.877v1.206h-.319v-2.366h.301v.466c.146-.32.448-.494.886-.494zM352.396 110.811v1.37h-.32v-1.343c0-.503-.256-.758-.676-.758-.484 0-.795.319-.795.858v1.243h-.32v-1.343c0-.503-.256-.758-.685-.758-.484 0-.795.319-.795.858v1.243h-.32v-2.366h.311v.429c.164-.283.475-.448.868-.448s.694.165.841.503c.173-.311.511-.503.932-.503.575 0 .959.338.959 1.015zM355.055 110.719v1.471h-.302v-.365c-.146.247-.42.393-.813.393-.539 0-.868-.284-.868-.686 0-.365.238-.667.914-.667h.749v-.146c0-.402-.228-.63-.667-.63-.301 0-.594.109-.786.283l-.146-.237c.238-.201.594-.32.96-.32.612-.019.959.292.959.904zm-.32.759v-.384h-.74c-.457 0-.612.183-.612.42 0 .274.219.448.603.448.356 0 .621-.174.749-.484zM358.107 110.811v1.37h-.32v-1.343c0-.503-.265-.758-.713-.758-.512 0-.831.319-.831.858v1.243h-.32v-2.366h.301v.438c.174-.292.494-.457.905-.457.585 0 .978.338.978 1.015zM358.746 111.002c0-.703.512-1.206 1.224-1.206.402 0 .74.156.932.466l-.237.165a.8.8 0 00-.685-.347c-.521 0-.896.365-.896.922 0 .558.375.923.896.923.274 0 .529-.109.685-.347l.237.165c-.192.301-.53.465-.932.465-.712 0-1.224-.502-1.224-1.206zM363.543 111.103h-1.983c.037.493.411.822.932.822.292 0 .548-.1.722-.31l.183.21c-.211.256-.54.383-.914.383-.74 0-1.243-.502-1.243-1.206 0-.703.494-1.206 1.161-1.206s1.151.494 1.151 1.206c0 .028-.009.064-.009.101zm-1.974-.238h1.681c-.036-.466-.374-.785-.84-.785-.466 0-.804.319-.841.785zM340.28 121.473c0 1.279-1.115 2.083-2.832 2.083-1.718 0-2.805-.795-2.805-2.083 0-.758.392-1.325 1.105-1.645-.548-.301-.859-.794-.859-1.452 0-1.179 1.033-1.919 2.559-1.919 1.535 0 2.585.74 2.585 1.919 0 .648-.32 1.142-.877 1.452.713.32 1.124.887 1.124 1.645zm-1.297-.046c0-.676-.594-1.105-1.535-1.105-.951 0-1.517.42-1.517 1.105 0 .704.575 1.115 1.517 1.115.95 0 1.535-.411 1.535-1.115zm-2.833-2.996c0 .593.494.968 1.298.968.822 0 1.324-.375 1.324-.968 0-.622-.53-.978-1.324-.978-.786.009-1.298.356-1.298.978zM341.156 122.707c0-.493.366-.822.804-.822.448 0 .804.329.804.822a.803.803 0 01-.804.822.815.815 0 01-.804-.822zM348.622 121.337c0 1.215-.877 2.22-2.732 2.22-.978 0-1.965-.293-2.595-.795l.539-.996c.503.411 1.252.676 2.028.676.914 0 1.462-.402 1.462-1.051 0-.657-.42-1.078-1.855-1.078h-1.662l.356-3.755h4.047v1.078h-2.969l-.146 1.599h.658c2.046-.009 2.869.877 2.869 2.102zM349.353 120.002c0-2.266 1.242-3.545 2.878-3.545 1.644 0 2.887 1.279 2.887 3.545s-1.243 3.545-2.887 3.545c-1.636 0-2.878-1.279-2.878-3.545zm4.477 0c0-1.663-.649-2.43-1.599-2.43-.941 0-1.59.767-1.59 2.43 0 1.663.649 2.43 1.59 2.43.95 0 1.599-.767 1.599-2.43zM355.986 120.002c0-2.266 1.243-3.545 2.878-3.545 1.645 0 2.888 1.279 2.888 3.545s-1.243 3.545-2.888 3.545c-1.635 0-2.878-1.279-2.878-3.545zm4.468 0c0-1.663-.648-2.43-1.599-2.43-.941 0-1.59.767-1.59 2.43 0 1.663.649 2.43 1.59 2.43.951 0 1.599-.767 1.599-2.43zM311.709 122.122c-.21 0-.42-.064-.603-.183a1.066 1.066 0 01-.466-1.041l.448-3.253a.151.151 0 00-.055-.146l-2.43-2.211c-.311-.283-.429-.704-.311-1.096.119-.403.439-.695.85-.768l3.234-.585a.174.174 0 00.128-.1l1.353-2.997a1.09 1.09 0 01.95-.64c.411-.009.795.201.987.567l1.553 2.896a.19.19 0 00.128.092l3.271.356c.411.046.758.32.895.703.146.393.055.823-.237 1.115l-2.275 2.376a.175.175 0 00-.046.146l.667 3.216c.082.402-.064.813-.393 1.069a1.067 1.067 0 01-1.133.119l-2.96-1.426a.157.157 0 00-.156.01l-2.85 1.626c-.183.1-.366.155-.549.155zm3.116-12.115a.164.164 0 00-.155.1l-1.352 2.997a1.085 1.085 0 01-.795.622l-3.235.584a.157.157 0 00-.128.119.176.176 0 00.046.174l2.43 2.211c.265.237.393.594.348.95l-.448 3.253a.167.167 0 00.073.164c.037.018.1.055.174.009l2.85-1.626a1.086 1.086 0 011.005-.037l2.961 1.426c.082.036.146.009.173-.019.028-.027.082-.082.064-.164l-.667-3.216a1.081 1.081 0 01.274-.969l2.275-2.375c.064-.064.046-.137.037-.174a.15.15 0 00-.137-.109l-3.271-.357a1.05 1.05 0 01-.832-.566l-1.553-2.897a.136.136 0 00-.137-.1z" fill="#fff"/><path d="M480.254 130.501h-78.393a3.327 3.327 0 01-3.326-3.326v-21.8a3.326 3.326 0 013.326-3.326h78.393a3.326 3.326 0 013.326 3.326v21.8c-.009 1.836-1.498 3.326-3.326 3.326z" fill="#455A64"/><path opacity=".4" d="M430.267 128.426c-.128 0-.238-5.573-.238-12.444s.11-12.444.238-12.444.237 5.573.237 12.444-.109 12.444-.237 12.444z" fill="#fff"/><path d="M435.266 109.04h1.288c1.005 0 1.69.648 1.69 1.58s-.676 1.581-1.69 1.581h-1.288v-3.161zm1.27 2.859c.84 0 1.379-.53 1.379-1.288s-.539-1.288-1.379-1.288h-.932v2.576h.932zM438.683 111.003c0-.703.511-1.206 1.206-1.206.694 0 1.206.503 1.206 1.206 0 .704-.512 1.206-1.206 1.206-.686 0-1.206-.502-1.206-1.206zm2.092 0c0-.557-.375-.922-.877-.922-.503 0-.886.365-.886.922 0 .558.374.923.886.923.502 0 .877-.365.877-.923zM445.161 109.815l-.896 2.367h-.301l-.749-1.937-.75 1.937h-.301l-.895-2.367h.31l.74 2.011.759-2.011h.274l.758 2.011.749-2.011h.302zM447.829 110.812v1.37h-.32v-1.343c0-.503-.265-.758-.712-.758-.512 0-.832.319-.832.858v1.243h-.319v-2.366h.31v.438c.174-.292.494-.457.905-.457.566 0 .968.338.968 1.015zM448.697 108.847h.32v3.344h-.32v-3.344zM449.674 111.003c0-.703.511-1.206 1.206-1.206.694 0 1.206.503 1.206 1.206 0 .704-.512 1.206-1.206 1.206-.695 0-1.206-.502-1.206-1.206zm2.083 0c0-.557-.375-.922-.877-.922-.503 0-.886.365-.886.922 0 .558.374.923.886.923.502 0 .877-.365.877-.923zM454.507 110.721v1.471h-.301v-.366c-.147.247-.421.393-.814.393-.539 0-.868-.283-.868-.685 0-.366.238-.667.914-.667h.749v-.146c0-.402-.228-.631-.667-.631-.301 0-.594.11-.785.284l-.147-.238c.238-.201.594-.32.96-.32.621-.018.959.293.959.905zm-.311.758v-.384h-.74c-.456 0-.612.183-.612.421 0 .274.219.447.603.447.357 0 .622-.173.749-.484zM457.56 108.847v3.344h-.302v-.466c-.192.32-.52.494-.913.494-.676 0-1.179-.494-1.179-1.206 0-.713.503-1.206 1.179-1.206.374 0 .703.164.904.466v-1.426h.311zm-.32 2.156c0-.557-.375-.922-.877-.922-.503 0-.886.365-.886.922 0 .558.374.923.886.923.502 0 .877-.365.877-.923zM440.702 121.309c0 1.37-1.115 2.238-2.522 2.238-1.882 0-2.988-1.215-2.988-3.426 0-2.367 1.38-3.664 3.381-3.664.685 0 1.352.146 1.818.448l-.475.968c-.375-.246-.831-.338-1.316-.338-1.297 0-2.119.804-2.119 2.376v.009c.411-.484 1.078-.722 1.845-.722 1.362-.009 2.376.822 2.376 2.111zm-1.243.064c0-.722-.539-1.17-1.379-1.17-.832 0-1.398.503-1.398 1.179 0 .648.511 1.16 1.425 1.16.804 0 1.352-.448 1.352-1.169zM441.424 122.707c0-.493.365-.822.804-.822.448 0 .804.329.804.822a.804.804 0 01-.804.822.814.814 0 01-.804-.822zM448.888 121.337c0 1.215-.877 2.22-2.732 2.22-.977 0-1.964-.293-2.594-.795l.539-.996c.502.411 1.251.676 2.028.676.914 0 1.462-.402 1.462-1.051 0-.657-.42-1.078-1.855-1.078h-1.663l.357-3.755h4.047v1.078h-2.969l-.147 1.599h.658c2.047-.009 2.869.877 2.869 2.102zM449.619 120.002c0-2.266 1.243-3.545 2.878-3.545 1.645 0 2.887 1.279 2.887 3.545s-1.242 3.545-2.887 3.545c-1.635 0-2.878-1.279-2.878-3.545zm4.477 0c0-1.663-.649-2.43-1.599-2.43-.941 0-1.59.767-1.59 2.43 0 1.663.649 2.43 1.59 2.43.95 0 1.599-.767 1.599-2.43zM456.253 120.002c0-2.266 1.243-3.545 2.878-3.545 1.645 0 2.887 1.279 2.887 3.545s-1.242 3.545-2.887 3.545c-1.635 0-2.878-1.279-2.878-3.545zm4.477 0c0-1.663-.649-2.43-1.599-2.43-.941 0-1.59.767-1.59 2.43 0 1.663.649 2.43 1.59 2.43.941 0 1.599-.767 1.599-2.43zM415.512 123.913a6.524 6.524 0 01-6.515-6.515c0-3.59 2.924-6.514 6.515-6.514a6.524 6.524 0 016.514 6.514c-.009 3.591-2.924 6.515-6.514 6.515zm0-12.116a5.607 5.607 0 00-5.601 5.601 5.607 5.607 0 005.601 5.601c3.088 0 5.6-2.512 5.6-5.601-.009-3.088-2.521-5.601-5.6-5.601z" fill="#fff"/><path d="M415.475 121.373a.45.45 0 01-.347-.165l-2.759-3.344a.443.443 0 01.064-.639.442.442 0 01.639.064l2.385 2.887 2.184-3.043a.445.445 0 01.639-.1.463.463 0 01.11.639l-2.522 3.518a.453.453 0 01-.356.192c-.027-.009-.037-.009-.037-.009z" fill="#fff"/><path d="M415.429 121.245a.452.452 0 01-.456-.457v-6.423c0-.256.201-.457.456-.457.256 0 .457.201.457.457v6.423a.452.452 0 01-.457.457z" fill="#fff"/><path d="M160.478 65.29a2.45 2.45 0 100-4.897 2.45 2.45 0 000 4.898zM169.003 65.29a2.449 2.449 0 100-4.896 2.449 2.449 0 000 4.897zM177.527 65.29a2.448 2.448 0 100-4.896 2.448 2.448 0 000 4.896zM485.254 1.818l-.046-.009L485.72 0l.045.01-.511 1.808z" fill="#263238"/><path d="M521.618 349.033c0 .128-80.742.238-180.314.238-99.609 0-180.332-.11-180.332-.238 0-.127 80.723-.237 180.332-.237 99.572 0 180.314.1 180.314.237z" fill="#455A64"/><path d="M580.011 354.04c-.128 0-.293-21.408-.366-47.822-.073-26.415-.027-47.822.101-47.822s.292 21.407.365 47.822c.064 26.414.028 47.822-.1 47.822zM594.51 300.462c.019.009-.045.183-.173.503-.156.365-.347.822-.585 1.389-.128.301-.274.639-.42.996-.137.374-.283.785-.43 1.215-.155.438-.329.904-.502 1.398-.174.493-.311 1.032-.484 1.589-.713 2.221-1.28 4.943-1.819 7.968a95.305 95.305 0 00-1.005 9.968c-.319 7.108.083 13.559.512 18.2.21 2.321.42 4.203.576 5.501.064.612.118 1.105.164 1.498.037.347.046.521.027.53-.018 0-.054-.174-.118-.512-.064-.393-.147-.877-.247-1.48-.21-1.288-.475-3.161-.722-5.491-.511-4.641-.968-11.11-.649-18.255a91.12 91.12 0 011.051-10.014c.567-3.043 1.17-5.775 1.928-7.995.183-.557.329-1.096.512-1.59.192-.493.365-.95.539-1.388.164-.43.329-.832.475-1.206.164-.366.329-.695.466-.987.265-.548.484-.996.658-1.352.137-.339.228-.494.246-.485z" fill="#263238"/><path d="M592.839 283.139c.018.009-.055.246-.21.703-.164.494-.393 1.161-.676 1.992-.155.439-.32.914-.493 1.434-.165.53-.338 1.115-.521 1.727-.384 1.243-.823 2.65-1.215 4.231-.211.785-.43 1.617-.649 2.476-.192.868-.402 1.772-.612 2.704-.457 1.864-.786 3.892-1.206 6.003a176.123 176.123 0 00-1.782 13.915c-.411 4.962-.594 9.704-.658 14.016-.009 4.313.046 8.205.219 11.458.055 1.635.165 3.106.247 4.394.073 1.298.155 2.413.238 3.317.064.877.118 1.572.155 2.102.027.484.037.73.027.73-.018 0-.054-.246-.118-.721a243.94 243.94 0 01-.247-2.093 78.6 78.6 0 01-.32-3.316c-.11-1.298-.237-2.769-.31-4.404-.22-3.262-.311-7.154-.32-11.485.036-4.322.21-9.082.621-14.052a169.153 169.153 0 011.827-13.952c.43-2.12.777-4.148 1.252-6.012.219-.932.43-1.837.64-2.714l.685-2.476c.411-1.581.877-2.988 1.279-4.221.201-.612.384-1.188.557-1.718.192-.521.375-.996.54-1.425.319-.823.575-1.471.758-1.965.183-.42.283-.648.292-.648zM575.89 357.832c-.009 0-.018-.082-.036-.247-.019-.192-.037-.438-.064-.74l-.192-2.832c-.156-2.495-.375-6.049-.649-10.425-.566-8.808-1.38-20.969-2.86-34.346a430.336 430.336 0 00-2.549-18.803c-.484-2.878-.923-5.61-1.425-8.15a225.65 225.65 0 00-1.407-7.072c-.43-2.165-.905-4.102-1.289-5.811a112.48 112.48 0 00-1.05-4.367c-.284-1.17-.512-2.092-.676-2.759a36.51 36.51 0 00-.165-.722c-.036-.165-.046-.247-.036-.247.009 0 .036.082.082.238.055.182.128.42.21.712.183.658.439 1.572.758 2.741.329 1.188.722 2.65 1.124 4.359.411 1.708.905 3.636 1.352 5.801.476 2.157.987 4.523 1.462 7.072.521 2.549.969 5.281 1.471 8.159a391.314 391.314 0 012.586 18.813c1.48 13.394 2.248 25.565 2.732 34.382.237 4.404.402 7.976.502 10.443.046 1.206.083 2.156.101 2.841.009.302.009.549.018.741.009.127.009.219 0 .219z" fill="#263238"/><path d="M579.481 268.694c-.284-3.034-3.345-5.318-6.396-5.354-3.043-.028-5.884 1.8-7.748 4.203-1.864 2.412-2.887 5.354-3.728 8.277-2.056 7.145-3.17 14.656-2.293 22.038.877 7.383 3.874 14.656 9.173 19.873.859.85 1.974 1.699 3.161 1.443.649-.137 1.179-.584 1.663-1.032 10.407-9.402 16.419-23.482 16.008-37.506-.082-2.805-.448-5.729-2.01-8.068-1.563-2.33-5.19-4.815-7.83-3.874zM556.73 244.4c-1.434 2.585-2.859 5.18-4.294 7.766-.1.182-.228.383-.438.402-.229.018-.393-.192-.521-.384l-11.348-17.406 2.613-1.48L556.73 244.4z" fill="#FEAC42"/><path opacity=".2" d="M556.73 244.4c-1.434 2.585-2.859 5.18-4.294 7.766-.1.182-.228.383-.438.402-.229.018-.393-.192-.521-.384l-11.348-17.406 2.613-1.48L556.73 244.4z" fill="#000"/><path d="M579.736 258.396c-12.901-7.611-25.793-15.222-38.694-22.832-.393-.229-.822-.512-.941-.951-.155-.575.274-1.123.685-1.553 5.327-5.491 13.057-8.671 20.677-8.122 7.629.548 14.956 4.952 18.693 11.631 3.737 6.669 3.865 15.496-.42 21.827z" fill="#FEAC42"/><path d="M546.616 228.282c0-.018.174-.037.503-.064.338-.018.822-.073 1.462-.073 1.27-.027 3.115.055 5.372.429 2.248.366 4.888 1.097 7.647 2.321a31.503 31.503 0 018.205 5.327 31.845 31.845 0 016.122 7.638c1.498 2.622 2.485 5.181 3.07 7.374.594 2.202.868 4.029.959 5.299.073.63.046.795.055 1.124.009.338-.283.84-.301.84-.046 0 .21-.694.064-1.955-.147-1.252-.466-3.061-1.097-5.226-1.224-4.313-4.066-10.124-9.191-14.765-5.126-4.633-11.193-6.88-15.597-7.666-2.22-.411-4.048-.548-5.308-.566-1.252-.019-1.956 0-1.965-.037z" fill="#263238"/><path d="M574.501 242.635c.018.055-.722.402-1.955.887a80.772 80.772 0 01-4.879 1.717 82.84 82.84 0 01-4.98 1.416c-1.288.311-2.092.466-2.111.402-.018-.063.759-.319 2.02-.721 1.425-.448 3.088-.969 4.924-1.535 1.837-.594 3.491-1.124 4.916-1.59 1.261-.393 2.038-.631 2.065-.576zM568.407 226.272c.128-.009.402 1.919.456 4.313.064 2.403-.109 4.34-.237 4.33-.128-.009-.165-1.937-.229-4.321-.054-2.376-.118-4.313.01-4.322zM540.704 235.134c-.018-.054 1.051-.447 2.814-.986a119.987 119.987 0 016.935-1.882 121.125 121.125 0 017.036-1.481c1.809-.319 2.942-.456 2.951-.402.009.064-1.097.32-2.887.722-1.791.402-4.267.95-6.99 1.608a373.014 373.014 0 00-6.953 1.754c-1.782.457-2.887.731-2.906.667z" fill="#263238"/><path d="M563.418 262.115c-3.326-2.522-6.843-3.025-11.019-2.86-4.175.164-8.232 1.434-12.06 3.115-6.524 2.86-12.655 7.072-16.556 13.029-3.902 5.958-5.254 13.852-2.339 20.357.292.649.667 1.325 1.325 1.599.685.293 1.471.064 2.183-.164 7.419-2.422 14.893-4.861 21.718-8.653 6.826-3.792 13.039-9.064 16.693-15.953.877-1.653 1.618-3.426 1.755-5.29.146-1.882-.375-3.865-1.7-5.18z" fill="#FEAC42"/><path d="M563.482 261.329c0 .018-.182.091-.53.219-.402.137-.913.32-1.553.539-.347.119-.722.238-1.124.375-.411.146-.84.329-1.315.511-.942.384-2.029.759-3.18 1.316-.585.265-1.188.539-1.818.831-.631.293-1.261.649-1.928.987-1.343.658-2.705 1.508-4.157 2.357a72.886 72.886 0 00-8.79 6.515 72.203 72.203 0 00-7.583 7.885c-1.033 1.325-2.047 2.567-2.869 3.819-.421.621-.859 1.197-1.225 1.791-.365.594-.721 1.16-1.05 1.699-.695 1.069-1.216 2.102-1.709 2.979-.238.448-.475.85-.676 1.243-.183.383-.356.74-.512 1.069-.301.603-.539 1.096-.731 1.471-.173.338-.265.511-.283.502-.018-.009.055-.192.201-.539.165-.393.384-.895.649-1.517l.484-1.087c.183-.393.411-.813.64-1.261.475-.895.977-1.946 1.662-3.033.329-.548.677-1.124 1.033-1.727.365-.594.795-1.188 1.215-1.809.822-1.27 1.827-2.531 2.851-3.874a69.696 69.696 0 017.611-7.967 69.496 69.496 0 018.871-6.533c1.462-.85 2.842-1.69 4.203-2.339.677-.338 1.316-.685 1.956-.969.639-.283 1.251-.548 1.845-.804 1.161-.539 2.266-.904 3.216-1.261.476-.173.923-.347 1.334-.475.412-.118.795-.237 1.143-.338.648-.182 1.178-.338 1.58-.457.338-.091.539-.137.539-.118zM537.48 275.409c.036.119-3.591 1.288-8.096 2.604-4.504 1.315-8.186 2.284-8.223 2.165-.036-.119 3.591-1.288 8.096-2.604 4.504-1.325 8.186-2.293 8.223-2.165z" fill="#263238"/><path d="M537.15 293.272c-.064 0-.137-.96-.173-2.522-.046-1.562-.046-3.719.018-6.094.064-2.385.192-4.532.32-6.085.128-1.554.255-2.513.319-2.513s.055.969.01 2.531c-.055 1.709-.119 3.783-.192 6.085-.055 2.293-.11 4.377-.156 6.085-.036 1.544-.082 2.513-.146 2.513zM552.454 285.478c-.128.009-.539-4.367-.904-9.785-.375-5.409-.576-9.804-.448-9.813.128-.009.539 4.367.905 9.785.374 5.409.575 9.804.447 9.813z" fill="#263238"/><path d="M533.405 265.45c0-.064.996-.092 2.595-.083 1.599.01 3.81.055 6.25.137a280 280 0 016.24.275c1.599.091 2.586.182 2.586.246s-.987.092-2.595.083c-1.599-.01-3.81-.055-6.25-.138-2.439-.082-4.65-.182-6.249-.274-1.59-.091-2.577-.182-2.577-.246zM570.134 318.753c-.018 0-.037-.173-.055-.52-.018-.393-.036-.887-.064-1.49-.055-1.288-.073-3.17-.018-5.482.046-2.311.201-5.071.475-8.113.302-3.043.74-6.387 1.361-9.868.64-3.481 1.408-6.761 2.202-9.721.814-2.961 1.636-5.592 2.413-7.776.767-2.183 1.443-3.938 1.955-5.135.237-.557.438-1.014.585-1.37.137-.311.219-.475.237-.466.018.009-.036.183-.146.502-.137.366-.302.832-.512 1.407a135.557 135.557 0 00-1.809 5.172 133.433 133.433 0 00-2.311 7.784 140.413 140.413 0 00-2.157 9.695 144.288 144.288 0 00-1.398 9.831c-.301 3.033-.493 5.783-.575 8.086a143.075 143.075 0 00-.128 5.463c-.009.604-.018 1.097-.018 1.49-.01.329-.019.511-.037.511z" fill="#263238"/><path d="M572.18 293.417c.046.046-.539.694-1.544 1.69a93.213 93.213 0 01-4.047 3.765 86.14 86.14 0 01-4.258 3.517c-1.124.859-1.846 1.362-1.882 1.307-.037-.055.612-.64 1.672-1.562 1.188-1.033 2.604-2.257 4.157-3.609 1.544-1.371 2.942-2.604 4.13-3.655 1.06-.932 1.727-1.499 1.772-1.453zM584.424 303.285c-.055.037-.667-.849-1.644-2.275-1.06-1.544-2.376-3.463-3.82-5.582-1.48-2.102-2.823-4.002-3.901-5.528-1.005-1.407-1.617-2.293-1.562-2.33.045-.037.749.777 1.827 2.138a116.28 116.28 0 014.02 5.455 123.036 123.036 0 013.719 5.664c.904 1.481 1.416 2.422 1.361 2.458zM578.01 272.257c.073.11-4.002 2.851-9.082 6.122-5.09 3.271-9.265 5.838-9.338 5.729-.073-.11 4.002-2.851 9.091-6.122 5.08-3.271 9.255-5.838 9.329-5.729zM589.485 284.637c-.091.091-2.842-2.458-6.158-5.683-3.308-3.235-5.921-5.93-5.83-6.021.092-.092 2.842 2.457 6.159 5.683 3.307 3.234 5.911 5.929 5.829 6.021z" fill="#263238"/><path d="M592.363 284.39l3.491-.292a17.294 17.294 0 007.053-2.156c1.069-.603 2.147-1.197 3.289-1.654 4.322-1.736 9.137-1.425 13.788-1.654a57.142 57.142 0 0021.928-5.61 2.2 2.2 0 00.959-.868c.722-1.306-.612-2.467-1.763-3.179-5.884-3.628-11.878-7.301-18.548-9.101-6.67-1.8-14.244-1.498-19.945 2.422-6.679 4.604-9.119 14.052-10.252 22.092z" fill="#FEAC42"/><path d="M642.945 271.728c-.009.018-.21-.082-.594-.274-.42-.219-.969-.512-1.654-.868-1.434-.759-3.499-1.873-6.112-3.125-2.614-1.243-5.784-2.641-9.466-3.646-3.673-1.023-7.903-1.553-12.271-.995-4.349.575-8.351 2.265-11.183 4.805-2.851 2.531-4.596 5.583-5.82 8.178-1.225 2.622-1.983 4.842-2.531 6.368-.256.731-.466 1.316-.621 1.764-.147.402-.229.612-.247.603-.018-.009.036-.22.155-.631.137-.457.32-1.051.539-1.791.503-1.544 1.206-3.791 2.403-6.45 1.206-2.632 2.933-5.756 5.839-8.36 2.887-2.623 6.98-4.359 11.402-4.943 4.441-.567 8.744-.009 12.445 1.041 3.718 1.042 6.889 2.486 9.493 3.765a115.984 115.984 0 016.057 3.261c.667.393 1.206.704 1.618.942.365.219.557.347.548.356z" fill="#263238"/><path d="M634.557 276.233c-.073.109-4.642-2.851-10.206-6.597-5.564-3.755-10.014-6.88-9.941-6.981.073-.109 4.642 2.851 10.206 6.597 5.564 3.755 10.014 6.88 9.941 6.981zM629.687 262.408c.018.101-1.453.448-3.326.594-1.873.156-3.389.064-3.389-.045 0-.11 1.507-.192 3.353-.339 1.836-.146 3.335-.31 3.362-.21zM609.687 259.804c.11.055-.557 1.097-1.498 2.339-.941 1.243-1.791 2.211-1.901 2.157-.109-.055.558-1.097 1.499-2.339.941-1.243 1.79-2.202 1.9-2.157zM613.781 278.927c-.028.054-.878-.393-2.202-1.188a78.441 78.441 0 01-5.007-3.353 168.572 168.572 0 01-4.797-3.646c-1.206-.959-1.937-1.571-1.901-1.626.037-.055.841.475 2.093 1.361 1.37.996 3.033 2.202 4.87 3.536a210.09 210.09 0 004.915 3.454c1.279.859 2.065 1.407 2.029 1.462z" fill="#263238"/><path d="M597.507 299.228c-3.335-.877-7.3 2.357-7.985 5.738-.686 3.381.575 6.834 2.065 9.941 3.28 6.889 7.812 13.276 13.778 18.027 5.966 4.751 13.44 7.793 21.06 7.757-1.407-6.542.375-13.376-.411-20.019-.685-5.802-3.39-11.339-7.538-15.45-4.148-4.112-9.721-6.761-15.523-7.383-2.138-.246-4.596-.575-5.446 1.389z" fill="#FEAC42"/><path d="M626.424 340.682c-.009.018-.173-.064-.475-.22a8.425 8.425 0 01-1.242-.84c-1.042-.795-2.248-2.321-3.29-4.395-.529-1.032-1.123-2.147-1.708-3.39-.567-1.242-1.16-2.567-1.791-3.965-.64-1.389-1.334-2.832-2.202-4.23a33.106 33.106 0 00-3.033-4.121c-2.284-2.677-4.724-4.998-6.853-7.209-2.129-2.202-3.929-4.331-5.226-6.268-1.307-1.928-2.102-3.654-2.549-4.87a19.505 19.505 0 01-.448-1.425c-.082-.329-.119-.512-.1-.512.045-.009.228.677.721 1.873.494 1.188 1.325 2.869 2.65 4.752 1.316 1.891 3.116 3.974 5.263 6.158 2.129 2.193 4.596 4.504 6.898 7.209 1.151 1.352 2.193 2.75 3.061 4.184.877 1.435 1.58 2.897 2.202 4.295.612 1.397 1.206 2.731 1.754 3.974.557 1.233 1.133 2.366 1.645 3.399 1.005 2.083 2.119 3.591 3.115 4.413.978.831 1.636 1.142 1.608 1.188z" fill="#263238"/><path d="M609.193 335.245c-.064-.009.045-.868.301-2.238a64.763 64.763 0 011.27-5.309 64.274 64.274 0 011.69-5.19c.494-1.306.85-2.092.914-2.074.064.028-.183.85-.603 2.175a202.14 202.14 0 00-1.553 5.208 184.853 184.853 0 00-1.389 5.254c-.347 1.352-.566 2.192-.63 2.174zM625.794 319.192c-.018.064-.914-.165-2.348-.539a181.922 181.922 0 00-5.619-1.389 169.271 169.271 0 00-5.674-1.161c-1.462-.274-2.357-.456-2.348-.52.009-.064.932 0 2.403.191 1.471.192 3.508.53 5.728 1.033a66.454 66.454 0 015.61 1.526c1.408.457 2.266.795 2.248.859zM596.833 323.852c-.064-.009.063-1.005.356-2.595a89.978 89.978 0 013.189-12.225c.52-1.535.895-2.458.95-2.439.064.018-.201.986-.64 2.54-.438 1.553-1.05 3.691-1.672 6.076-.621 2.375-1.133 4.55-1.507 6.112-.366 1.581-.613 2.549-.676 2.531zM618.149 305.195c-.01.128-4.176-.211-9.293-.75-5.116-.539-9.255-1.087-9.237-1.215.009-.128 4.176.21 9.292.749 5.117.549 9.256 1.088 9.238 1.216z" fill="#263238"/><path d="M614.986 346.731h-65.081v8.945h65.081v-8.945z" fill="#455A64"/><path d="M615.104 355.785h-65.309v-9.164h65.309v9.164zm-65.081-.228h64.862v-8.717h-64.862v8.717z" fill="#455A64"/><path d="M555.944 352.697l9.366 46.214h34.664l9.055-43.245-53.085-2.969z" fill="#455A64"/><path d="M555.944 394.544l4.998 6.862h42.13l5.957-6.862h-53.085z" fill="#455A64"/><path d="M615.104 355.629c0 .128-14.619.229-32.646.229-18.035 0-32.654-.101-32.654-.229s14.619-.228 32.654-.228c18.027 0 32.646.1 32.646.228z" fill="#263238"/><path d="M604.936 374.443c0 .128-9.849.228-22.001.228-12.152 0-22.001-.1-22.001-.228s9.849-.229 22.001-.229c12.143 0 22.001.101 22.001.229zM604.553 377.138c0 .128-9.676.229-21.618.229-11.942 0-21.618-.101-21.618-.229s9.676-.228 21.618-.228c11.933-.009 21.618.1 21.618.228zM605.319 372.231c0 .128-10.188.229-22.751.229-12.572 0-22.759-.101-22.759-.229s10.187-.228 22.759-.228c12.554-.009 22.751.1 22.751.228zM629.003 126.599H461.179v77.58h167.824v-77.58z" fill="#FAFAFA"/><path d="M629.002 204.179s-.009-.475-.018-1.389c0-.914-.009-2.266-.018-4.029-.01-3.545-.028-8.753-.046-15.46-.018-13.403-.055-32.773-.092-56.702l.174.173c-43.537.018-102.715.037-167.815.064h-.009l.238-.237c0 27.291-.01 53.532-.01 77.58l-.228-.229c48.836.046 90.765.083 120.496.11 14.874.027 26.697.046 34.802.064 4.056.009 7.181.018 9.301.027 1.051.01 1.855.01 2.403.019.539 0 .822.009.822.009s-.265.009-.795.018c-.539 0-1.334.009-2.375.018-2.111.009-5.217.019-9.256.028-8.095.018-19.9.036-34.756.064l-120.642.109h-.228v-.228c0-24.048-.01-50.298-.01-77.58v-.238h.247c65.1.028 124.278.046 167.815.064h.174v.174c-.037 23.975-.073 43.381-.092 56.812-.018 6.688-.036 11.887-.045 15.423-.01 1.754-.019 3.088-.019 4.002 0 .886-.018 1.334-.018 1.334z" fill="#263238"/><path d="M472.983 180.186v2.449h-.256v-2.23h-.576v-.228h.832v.009zM473.577 181.409c0-.777.411-1.242.978-1.242.566 0 .977.465.977 1.242 0 .777-.411 1.243-.977 1.243-.576.009-.978-.457-.978-1.243zm1.69 0c0-.658-.292-1.014-.721-1.014-.43 0-.722.356-.722 1.014s.292 1.014.722 1.014c.429 0 .721-.356.721-1.014zM473.979 167.184v.228h-1.718v-.182l1.014-.996c.274-.275.329-.439.329-.603 0-.284-.201-.457-.576-.457-.283 0-.511.091-.667.274l-.182-.155c.192-.229.493-.348.868-.348.493 0 .813.256.813.658 0 .238-.073.448-.402.768l-.832.822h1.353v-.009zM474.28 166.179c0-.777.411-1.242.978-1.242.566 0 .977.465.977 1.242 0 .777-.411 1.243-.977 1.243-.567 0-.978-.457-.978-1.243zm1.7 0c0-.658-.293-1.014-.722-1.014-.43 0-.722.356-.722 1.014s.292 1.014.722 1.014c.429 0 .722-.356.722-1.014zM473.924 151.469c0 .411-.302.722-.886.722-.357 0-.695-.119-.887-.311l.119-.201c.155.165.439.284.758.284.402 0 .631-.192.631-.494 0-.292-.21-.484-.658-.484h-.174v-.183l.677-.849h-1.252v-.229h1.571v.183l-.694.868c.539.027.795.311.795.694zM474.28 150.948c0-.777.411-1.243.978-1.243.566 0 .977.466.977 1.243 0 .776-.411 1.242-.977 1.242-.567 0-.978-.457-.978-1.242zm1.7 0c0-.658-.293-1.015-.722-1.015-.43 0-.722.357-.722 1.015 0 .658.292 1.014.722 1.014.429 0 .722-.356.722-1.014zM483.801 189.45c0-.777.411-1.243.977-1.243.567 0 .978.466.978 1.243 0 .776-.411 1.242-.978 1.242-.566 0-.977-.466-.977-1.242zm1.699 0c0-.658-.292-1.015-.722-1.015-.429 0-.721.357-.721 1.015 0 .657.292 1.014.721 1.014.421 0 .722-.366.722-1.014zM501.928 188.225v2.449h-.256v-2.23h-.575v-.228h.831v.009zM521.042 190.445v.228h-1.718v-.182l1.015-.996c.274-.274.329-.439.329-.603 0-.283-.201-.457-.576-.457-.283 0-.512.091-.667.274l-.183-.155c.192-.229.494-.347.868-.347.494 0 .813.255.813.657 0 .238-.073.448-.402.768l-.831.822h1.352v-.009zM539.106 189.971c0 .411-.302.722-.887.722-.356 0-.694-.119-.886-.311l.119-.201c.155.164.438.283.758.283.402 0 .631-.192.631-.493 0-.293-.211-.485-.658-.485h-.174v-.182l.676-.85h-1.251v-.228h1.571v.182l-.694.868c.53.028.795.302.795.695zM557.681 190.025h-.494v.639h-.256v-.639h-1.379v-.183l1.297-1.626h.283l-1.251 1.58h1.06v-.566h.246v.566h.494v.229zM575.379 189.952c0 .421-.293.741-.887.741-.356 0-.685-.119-.877-.311l.119-.201c.155.164.439.283.749.283.421 0 .64-.201.64-.502 0-.311-.192-.512-.823-.512h-.52l.128-1.224h1.343v.228h-1.124l-.082.777h.31c.74 0 1.024.292 1.024.721zM593.671 189.943c0 .457-.356.749-.841.749-.648 0-1.005-.448-1.005-1.224 0-.832.457-1.27 1.124-1.27.219 0 .429.036.585.137l-.101.201a.876.876 0 00-.475-.119c-.53 0-.868.338-.868 1.005 0 .055 0 .128.009.201.119-.274.411-.42.75-.42.484 0 .822.292.822.74zm-.247.009c0-.32-.237-.53-.612-.53s-.63.229-.63.539c0 .274.228.521.648.521.347 0 .594-.21.594-.53zM611.679 188.226v.182l-1.023 2.275h-.275l1.005-2.229h-1.26v.457h-.247v-.685h1.8zM611.807 181.53c0 .127-28.352.237-63.318.237-34.976 0-63.327-.11-63.327-.237 0-.128 28.342-.238 63.327-.238 34.966 0 63.318.11 63.318.238zM611.806 166.224c0 .128-28.352.238-63.318.238-34.975 0-63.327-.11-63.327-.238s28.342-.237 63.327-.237c34.966 0 63.318.1 63.318.237zM611.806 150.911c0 .128-28.352.238-63.318.238-34.975 0-63.327-.11-63.327-.238s28.342-.237 63.327-.237c34.966 0 63.318.109 63.318.237z" fill="#263238"/><path d="M485.162 181.311a.816.816 0 01-.814.813.816.816 0 01-.813-.813c0-.448.366-.813.813-.813.448 0 .814.365.814.813zM503.37 181.31a.814.814 0 01-.813.813.815.815 0 01-.813-.813c0-.447.366-.813.813-.813.448 0 .813.366.813.813zM521.581 181.31a.814.814 0 01-.813.813.815.815 0 01-.813-.813c0-.447.366-.813.813-.813.448 0 .813.366.813.813zM539.79 181.31a.814.814 0 01-.813.813.815.815 0 01-.813-.813c0-.447.366-.813.813-.813.448 0 .813.366.813.813zM557.999 181.31a.814.814 0 01-.813.813.815.815 0 01-.813-.813c0-.447.366-.813.813-.813.448 0 .813.366.813.813zM594.411 181.31a.815.815 0 01-.814.813.815.815 0 01-.813-.813c0-.447.366-.813.813-.813.448 0 .814.366.814.813zM576.209 181.31a.814.814 0 01-.813.813.814.814 0 01-.813-.813c0-.447.365-.813.813-.813.448 0 .813.366.813.813zM612.62 181.31a.815.815 0 01-.814.813.815.815 0 01-.813-.813c0-.447.366-.813.813-.813.448 0 .814.366.814.813z" fill="#FEAC42"/><path d="M493.467 181.53a.53.53 0 11-1.06 0 .53.53 0 011.06 0zM511.741 181.53a.53.53 0 11-1.062-.002.53.53 0 011.062.002zM529.484 182.06a.53.53 0 100-1.06.53.53 0 000 1.06zM547.757 182.06a.53.53 0 100-1.06.53.53 0 000 1.06zM566.031 182.06a.53.53 0 100-1.06.53.53 0 000 1.06zM584.844 181.53a.53.53 0 11-1.06 0 .53.53 0 011.06 0zM603.126 181.53a.53.53 0 11-.53-.53c.284 0 .53.238.53.53z" fill="#E0E0E0"/><path d="M504.559 174.767a1.992 1.992 0 11-1.992-1.992 1.985 1.985 0 011.992 1.992zM520.439 165.394a1.992 1.992 0 11-1.992-1.992 1.985 1.985 0 011.992 1.992zM540.156 166.225a1.99 1.99 0 01-1.991 1.992 1.99 1.99 0 01-1.992-1.992 1.99 1.99 0 011.992-1.992 1.985 1.985 0 011.991 1.992zM559.406 149.184a1.99 1.99 0 11-3.983 0 1.99 1.99 0 011.992-1.992 1.984 1.984 0 011.991 1.992zM577.388 160.02a1.99 1.99 0 01-1.992 1.992 1.99 1.99 0 110-3.984 1.985 1.985 0 011.992 1.992zM595.597 162.907a1.99 1.99 0 01-1.992 1.992 1.99 1.99 0 110-3.983 1.99 1.99 0 011.992 1.991z" fill="#FEAC42"/><path d="M612.619 174.766s-.155.019-.466 0a9.794 9.794 0 01-1.361-.182c-1.17-.238-2.961-.74-4.733-2.248-.877-.749-1.69-1.782-2.33-3.024-.64-1.224-1.416-2.522-2.44-3.774-1.023-1.215-2.357-2.448-4.111-2.869a5.221 5.221 0 00-2.723.101c-.913.283-1.763.786-2.531 1.434-1.553 1.298-2.695 3.134-4.203 4.806-.749.832-1.626 1.636-2.731 2.129-1.097.475-2.376.621-3.591.293-1.243-.338-2.193-1.38-2.732-2.513-.567-1.142-.877-2.394-1.179-3.636-.31-1.243-.557-2.531-1.087-3.692-.265-.575-.63-1.114-1.16-1.398-.549-.292-1.197-.365-1.837-.356-1.316.064-2.631.448-4.002.704-.685.118-1.389.246-2.11.237-.713 0-1.471-.082-2.148-.42-.703-.283-1.242-.85-1.708-1.426a10.676 10.676 0 01-1.042-1.937c-.575-1.352-.959-2.759-1.48-4.12-.274-.667-.557-1.343-.959-1.928-.402-.585-.932-1.069-1.581-1.316-.164-.045-.329-.109-.493-.146l-.53-.046a1.914 1.914 0 00-.978.201c-.612.311-1.069.905-1.462 1.526-.758 1.27-1.251 2.723-1.69 4.185-.439 1.471-.804 2.969-1.151 4.486-.585 2.513-1.106 5.016-1.745 7.465-.329 1.224-.676 2.439-1.124 3.618-.457 1.169-.978 2.348-1.891 3.289-.466.448-1.106.804-1.8.795-.667 0-1.298-.238-1.837-.557-1.096-.658-1.9-1.627-2.586-2.613-1.379-1.992-2.266-4.212-3.124-6.341-.868-2.102-1.855-4.185-3.491-5.61-1.599-1.416-3.892-1.946-5.856-1.426-.996.247-1.928.695-2.787 1.225a19.523 19.523 0 00-2.43 1.754 32.294 32.294 0 00-4.057 4.084l-.009.009a44.466 44.466 0 01-6.012 4.998c-2.038 1.407-4.103 2.558-6.158 3.335-2.056.758-4.121 1.215-6.031 1.005-1.891-.183-3.554-.704-5.025-1.215-2.924-1.06-5.071-2.211-6.524-2.979a43.179 43.179 0 01-1.626-.932c-.365-.219-.539-.347-.539-.347s.192.101.566.302c.393.21.942.502 1.654.886 1.462.74 3.618 1.855 6.542 2.878 1.462.493 3.116.996 4.971 1.16 1.854.192 3.883-.265 5.902-1.032 2.028-.786 4.057-1.937 6.076-3.335a43.916 43.916 0 005.939-4.98l-.009.01a32.597 32.597 0 014.102-4.158c.768-.648 1.581-1.27 2.476-1.8.877-.548 1.846-1.014 2.896-1.279 2.111-.557 4.523 0 6.241 1.508 1.727 1.507 2.732 3.654 3.618 5.765.868 2.138 1.736 4.313 3.088 6.25.667.959 1.453 1.882 2.44 2.476.493.292 1.041.493 1.608.493.548 0 1.051-.274 1.462-.667.813-.831 1.334-1.973 1.772-3.116.439-1.151.786-2.357 1.106-3.572.639-2.43 1.16-4.934 1.745-7.456.356-1.516.722-3.033 1.16-4.513.448-1.48.95-2.951 1.745-4.294.412-.658.905-1.316 1.654-1.7a2.32 2.32 0 011.206-.247l.594.055c.192.046.384.119.576.174.758.292 1.361.859 1.8 1.489.438.64.731 1.334 1.014 2.028.53 1.389.914 2.796 1.471 4.103.548 1.288 1.261 2.595 2.512 3.134 1.216.585 2.659.384 3.984.155 1.343-.247 2.677-.63 4.075-.703.694 0 1.425.064 2.065.411.649.356 1.06.987 1.343 1.599.557 1.242.795 2.531 1.106 3.773.292 1.243.603 2.458 1.142 3.554.521 1.088 1.361 2.01 2.485 2.312 1.105.301 2.312.174 3.326-.265 1.032-.448 1.873-1.215 2.613-2.028 1.489-1.627 2.64-3.481 4.258-4.825.794-.667 1.699-1.187 2.649-1.48a5.55 5.55 0 012.887-.082c1.864.466 3.217 1.754 4.249 2.997 1.023 1.279 1.8 2.595 2.43 3.837.622 1.234 1.389 2.248 2.248 2.988 1.718 1.498 3.481 2.028 4.632 2.293.585.137 1.042.192 1.344.229.283.027.438.027.438.045z" fill="#FEAC42"/><path d="M504.75 140.422c0 .128-7.071.238-15.788.238-8.716 0-15.788-.11-15.788-.238s7.063-.237 15.788-.237c8.717 0 15.788.109 15.788.237z" fill="#263238"/><path d="M132.109 376.983l.959 16.209s16.602 3.124 17.068 6.103l-31.166 4.331-2.522-25.19 15.661-1.453z" fill="#FEAC42"/><path d="M123.237 392.753c-.594.229-.941.95-.749 1.544.201.603.932.969 1.525.75.594-.211 1.051-1.069.786-1.645-.265-.576-1.151-.959-1.672-.612M118.97 403.617l-.256-2.513 29.585-3.526s1.818.795 1.9 1.772l-31.229 4.267z" fill="#EBEBEB"/><path d="M133.561 392.981c.01.155-.749.292-1.452.859-.722.548-1.051 1.242-1.197 1.197-.146-.019 0-.951.868-1.618.859-.676 1.8-.584 1.781-.438zM136.978 394.023c.046.146-.594.466-1.05 1.17-.476.685-.54 1.398-.695 1.407-.137.036-.329-.85.256-1.709.576-.859 1.471-1.014 1.489-.868zM139.217 397.788c-.137.046-.421-.704-.11-1.572.311-.877.996-1.279 1.078-1.16.101.119-.32.612-.566 1.334-.265.713-.247 1.371-.402 1.398zM132.931 389.309c-.055.146-.777 0-1.636.146-.858.128-1.507.475-1.599.357-.1-.101.503-.731 1.517-.887 1.014-.164 1.782.256 1.718.384zM132.675 386.047c.01.064-.584.219-1.571.137a6.888 6.888 0 01-1.69-.347 7.6 7.6 0 01-.951-.393c-.155-.082-.338-.156-.511-.32-.183-.146-.32-.539-.146-.804.137-.256.411-.384.639-.411.228-.028.42 0 .594.027a5.62 5.62 0 012.54 1.06c.795.603 1.096 1.151 1.042 1.188-.064.055-.466-.393-1.261-.877a6.38 6.38 0 00-1.48-.658 5.886 5.886 0 00-.932-.192c-.338-.055-.622-.027-.695.128-.027.064-.027.082.055.174.082.082.219.155.375.237.292.155.584.283.877.393a8.915 8.915 0 001.571.439c.941.146 1.544.137 1.544.219z" fill="#263238"/><path d="M132.501 386.284c-.055.027-.411-.494-.557-1.481a4.92 4.92 0 01.055-1.736c.064-.319.164-.657.31-.995.156-.329.338-.768.923-.887.311-.036.594.174.695.375.128.201.164.384.219.557.091.357.119.722.1 1.06a3.612 3.612 0 01-.52 1.69c-.539.868-1.161 1.115-1.179 1.06-.055-.073.448-.42.841-1.242.191-.411.347-.932.356-1.526 0-.293-.028-.603-.119-.905-.082-.329-.228-.584-.356-.539-.156.009-.393.293-.503.567a4.872 4.872 0 00-.31.886 5.642 5.642 0 00-.156 1.599c.064.923.284 1.48.201 1.517z" fill="#263238"/><path d="M61.608 374.891l-3.618 20.046-7.437 15.03a2.074 2.074 0 001.078 2.85 2.062 2.062 0 001.9-.164c3.646-2.303 17.004-10.827 17.187-12.307.21-1.718 5.217-20.896 5.217-20.896l-14.327-4.559z" fill="#FEAC42"/><path d="M51.632 412.827l19.36-13.815-.173.85a3.12 3.12 0 01-1.133 1.846c-1.571 1.233-5.985 4.531-16.09 10.973a2.09 2.09 0 01-1.964.146zM68.205 393.164c-.566.247-.886.969-.667 1.544.22.585.95.914 1.526.676.576-.237.987-1.087.704-1.644-.284-.549-1.16-.896-1.663-.53" fill="#EBEBEB"/><path d="M57.972 405.033c-.128.036-.356-1.106-1.434-1.91-1.051-.841-2.212-.777-2.212-.904-.009-.055.274-.156.759-.128.475.027 1.142.228 1.727.685.584.457.95 1.041 1.087 1.498.155.457.128.759.073.759zM55.999 407.418c-.11.064-.621-.713-1.59-1.215-.96-.53-1.891-.521-1.9-.649-.037-.11 1.014-.338 2.11.256 1.106.575 1.499 1.58 1.38 1.608zM61.315 402.155c-.11.073-.886-1.124-2.33-2.047-1.425-.941-2.841-1.16-2.823-1.297-.009-.11 1.526-.091 3.061.923 1.553.987 2.202 2.384 2.092 2.421zM62.925 396.152c-.082.109-1.087-.576-2.513-.923-1.416-.366-2.631-.229-2.65-.366-.036-.109 1.234-.456 2.76-.073 1.535.375 2.485 1.279 2.403 1.362zM64.14 390.295c-.082.101-1.06-.785-2.586-1.032-1.526-.274-2.732.247-2.787.128-.027-.046.247-.256.759-.43.511-.173 1.279-.274 2.101-.137.823.137 1.508.484 1.937.823.42.319.613.603.576.648zM61.81 388.158c-.028-.009-.019-.283.127-.759.147-.475.43-1.16 1.006-1.854.292-.329.612-.759 1.224-.905a.846.846 0 01.886.375c.183.301.192.648.128.968-.283 1.261-1.617 2.266-3.08 2.157a3.415 3.415 0 01-2.932-2.431c-.064-.311-.082-.676.146-.978.22-.31.658-.365.932-.255.576.21.877.63 1.179.95a5.959 5.959 0 011.041 1.827c.165.466.192.749.165.749-.082.037-.302-1.087-1.453-2.375-.292-.302-.63-.676-1.041-.804-.201-.064-.402-.018-.512.137-.11.146-.119.402-.055.649.292.996 1.334 1.982 2.568 2.074 1.233.1 2.402-.777 2.64-1.791.055-.247.037-.503-.064-.676a.447.447 0 00-.484-.21c-.42.073-.768.447-1.05.749-1.143 1.288-1.29 2.439-1.371 2.403z" fill="#263238"/><path d="M62.86 239.492C62.65 239.474 56 391.281 56 391.281h20.293l9.867-82.24 5.108-62.842 10.535 58.831 12.745 83.739 20.421-4.386-13.815-149.56-28.954-16.044-29.338 20.713z" fill="#263238"/><path d="M80.112 131.898l19.187-1.535c.119-2.239-.037-10.909-.037-10.909s7.986-1.243 8.077-9.219c.101-7.986-1.288-26.305-1.288-26.305a27.746 27.746 0 00-27.876 3.5l-1.179.913 3.116 43.555z" fill="#FFBE9D"/><path d="M99.272 119.344s-5.044.411-10.407-2.961c0 0 2.458 5.747 10.425 5.026l-.018-2.065z" fill="#EB996E"/><path d="M77.983 96.603c-.138-.055-5.483-1.627-5.309 3.837.174 5.455 5.62 4.157 5.62 4.002 0-.155-.311-7.84-.311-7.84z" fill="#FFBE9D"/><path d="M76.556 102.423c-.028-.019-.091.073-.256.146a.957.957 0 01-.713.036c-.584-.192-1.096-1.096-1.15-2.074a3.184 3.184 0 01.218-1.37c.156-.402.402-.695.695-.75a.484.484 0 01.566.247c.083.146.046.256.073.265.019.01.12-.091.064-.32a.591.591 0 00-.228-.338.733.733 0 00-.53-.118c-.42.045-.786.438-.969.877a3.34 3.34 0 00-.283 1.535c.073 1.096.667 2.11 1.462 2.311.384.092.704-.036.868-.173.174-.137.201-.265.183-.274z" fill="#EB996E"/><path d="M104.441 96.986c.018.603-.476 1.114-1.097 1.151-.63.037-1.151-.43-1.178-1.023-.019-.603.475-1.115 1.096-1.151.63-.037 1.16.42 1.179 1.023zM104.543 95.148c-.137.146-1.005-.493-2.23-.484-1.224-.018-2.129.612-2.257.466-.063-.064.083-.338.466-.621.384-.284 1.042-.558 1.81-.558.767 0 1.407.283 1.772.576.375.292.503.557.439.621zM92.51 96.986c.018.603-.475 1.114-1.097 1.151-.63.037-1.15-.43-1.178-1.023-.018-.603.475-1.115 1.096-1.151.64-.037 1.16.42 1.179 1.023zM92.483 95.377c-.137.146-1.005-.493-2.23-.484-1.224-.018-2.129.612-2.257.466-.063-.064.074-.338.476-.621.383-.284 1.041-.558 1.809-.558.767 0 1.407.283 1.772.576.375.292.503.557.43.621zM96.931 104.478c-.009-.073.759-.201 1.992-.357.31-.036.612-.091.658-.31.073-.229-.055-.567-.21-.932-.292-.759-.603-1.553-.923-2.385-1.288-3.399-2.22-6.185-2.083-6.24.137-.055 1.288 2.658 2.577 6.057l.886 2.403c.118.357.32.759.164 1.234-.082.237-.31.402-.511.457-.201.064-.375.064-.53.073-1.243.064-2.01.073-2.02 0zM93.323 105.327c.202-.009.202 1.316 1.344 2.266 1.142.95 2.558.795 2.567.987.018.082-.32.255-.914.274a3.32 3.32 0 01-2.147-.75c-.694-.575-.996-1.352-1.041-1.9-.046-.557.1-.886.191-.877zM92.802 90.571c-.12.338-1.343.174-2.787.347-1.444.147-2.604.567-2.796.265-.082-.146.119-.456.585-.776.466-.32 1.206-.63 2.074-.722.868-.091 1.654.046 2.174.256.53.21.795.475.75.63zM104.086 91.604c-.22.274-1.06-.01-2.074-.028-1.015-.045-1.873.183-2.075-.1-.09-.137.046-.42.421-.686.374-.265.987-.475 1.69-.456.694.018 1.307.274 1.654.557.365.292.484.576.384.713z" fill="#263238"/><path d="M109.934 78.886c.082-.986-.283-2.046-1.087-2.631s-2.056-.548-2.705.201c.375-1.334-.712-2.869-2.092-2.96-1.297-.082-2.412.904-3.673 1.242-1.224.338-2.55.046-3.728-.43-1.178-.474-2.284-1.132-3.48-1.57a10.32 10.32 0 00-7.758.31 10.31 10.31 0 00-5.29 5.683c-1.745-.548-3.728.338-4.806 1.818-1.078 1.48-1.352 3.417-1.142 5.236.146 1.224.502 2.412.913 3.581 0 .1-.009.201-.009.311.083 4.386.576 9.539 2.45 9.575 3.26.046 2.484-6.094 2.484-6.094 4.002-1.544 2.513-7.547 3.518-8.46 1.005-.914 3.097-3.025 11.485 1.26 3.252 1.663 7.583 1.608 9.95 1.078.073-.018.137-.027.21-.045.018 0 .036-.01.046-.01.027-.008.045-.018.073-.027a7.287 7.287 0 002.147-.913c.758-.485 1.453-1.133 1.772-1.974.32-.84.201-1.882-.456-2.494.612-.777 1.096-1.7 1.178-2.687z" fill="#263238"/><path d="M153.497 195.152s.082.073.201.229c.347.457.95 1.626.32 3.673-.841 2.732-2.632 6.633-2.632 6.633s.631 2.732 0 3.371c-.63.631-11.046 0-11.046 0s-1.791-.995-.42-1.863h7.309" fill="#FFBE9D"/><path d="M59.937 135.681s-9 2.859-13.203 20.621c-3.079 13.048-11.813 39.005-9.602 43.144 2.74 5.135 34.564 13.34 34.564 13.34l2.705-12.161-15.944-10.791L67 160.98c.009.01.978-23.956-7.063-25.299z" fill="#FEAC42"/><path d="M62.458 168.829c0 1.352 4.048 28.442 4.048 28.442l-8.059 44.012 31.211 1.654 3.472-18.986 4.304 18.986 28.077-6.834-7.2-30.033 2.732-38.612-3.015-32.079-11.53-3.938-5.958-6.971-9.639 6.003-11.887-7.118-3.764 5.135-15.313 7.19c-1.526 2.796 2.521 33.149 2.521 33.149z" fill="#FEAC42"/><path d="M79.015 123.364l-.393 8.534 16.41 43.664 6.633-42.906-2.156-8.232c.009-.01 0 0-.01 0l-8.606 6.057-11.878-7.117z" fill="#fff"/><path d="M118.037 135.388s7.858 6.35 10.526 13.869c2.668 7.529 7.062 17.433 7.062 17.433H120.97l-2.933-31.302z" fill="#FEAC42"/><path d="M94.665 177.216c-.009.009-.146-.155-.392-.475-.274-.366-.622-.832-1.06-1.407-.932-1.279-2.23-3.052-3.81-5.227-3.216-4.486-7.593-10.598-12.435-17.35-.695-.978-1.38-1.946-2.056-2.887l-.1-.137.09-.138c1.124-1.626 2.212-3.197 3.263-4.705l.054.311c-2.65-1.983-5.089-3.801-7.236-5.4l-.119-.082.055-.128c1.288-3.353 2.348-6.113 3.107-8.095.365-.923.657-1.663.886-2.221.21-.502.329-.767.347-.767.018.009-.064.283-.237.804-.202.566-.457 1.316-.786 2.257-.722 1.991-1.736 4.778-2.96 8.15l-.064-.22c2.156 1.581 4.614 3.381 7.281 5.345l.174.128-.128.183c-1.041 1.508-2.12 3.088-3.243 4.724v-.274c.676.95 1.361 1.909 2.055 2.887 4.797 6.788 9.137 12.928 12.326 17.433 1.535 2.211 2.787 4.011 3.691 5.317.402.603.731 1.088.987 1.462.22.32.329.503.31.512z" fill="#263238"/><path d="M93.25 222.744c-.018 0-.027-.164-.027-.475 0-.365.009-.813.018-1.361.037-1.252.082-2.942.137-4.998.146-4.276.338-10.069.557-16.474.201-6.404.375-12.188.503-16.473.055-2.056.1-3.746.128-4.989.018-.548.036-.996.055-1.361.018-.311.036-.475.054-.475.019 0 .028.164.046.475.01.365.018.813.037 1.361.027 1.179.027 2.887.018 4.998-.027 4.221-.155 10.05-.366 16.483a956.7 956.7 0 01-.694 16.464c-.119 2.056-.22 3.737-.292 4.989-.046.539-.073.987-.11 1.352-.027.329-.046.493-.064.484zM95.351 175.937c-.018-.009.037-.174.155-.503.147-.365.32-.831.54-1.388.511-1.261 1.215-2.988 2.073-5.09 1.819-4.33 4.286-10.214 7.018-16.711.575-1.343 1.133-2.668 1.681-3.947l.036.238c-1.334-1.599-2.613-3.125-3.819-4.569l-.128-.155.137-.137 5.537-5.729-.036.174c-.731-2.129-1.334-3.865-1.773-5.144-.183-.567-.338-1.033-.457-1.407-.1-.32-.146-.494-.128-.503.019-.009.092.156.22.466.146.366.319.813.539 1.371.475 1.261 1.123 2.987 1.909 5.098l.037.091-.073.074c-1.563 1.662-3.408 3.627-5.464 5.801l.009-.292c1.215 1.434 2.504 2.96 3.847 4.541l.091.11-.055.128c-.539 1.279-1.105 2.604-1.672 3.947-2.777 6.478-5.29 12.343-7.145 16.665-.914 2.074-1.663 3.783-2.22 5.025-.256.549-.457.996-.621 1.362-.137.338-.22.493-.238.484z" fill="#263238"/><path opacity=".3" d="M71.093 139.637l4.842 5.409-3.344 5.994 20.658 24.523-18.145-25.839 3.252-4.714-7.263-5.373zM95.835 174.786l11.503-22.568-.301-3.828-11.202 26.396z" fill="#000"/><path d="M40.695 202.243c.028-.046.75.402 2.193.977 1.435.603 3.554 1.398 6.259 2.33 5.39 1.873 13.065 4.322 22.02 7.017l-.284.156c1.07-3.984 2.23-8.306 3.436-12.783l.1.265c-.164-.1-.338-.21-.512-.329-5.536-3.508-10.8-6.843-15.541-9.849l-.137-.091.045-.156c2.276-7.793 4.203-14.418 5.574-19.141.685-2.312 1.233-4.148 1.626-5.455.192-.603.338-1.078.448-1.444.11-.328.164-.493.174-.493.009 0-.028.174-.11.512-.092.365-.22.849-.384 1.462-.356 1.306-.868 3.161-1.507 5.482l-5.41 19.187-.09-.247 15.568 9.822c.174.11.357.219.512.329l.146.091-.046.174c-1.215 4.477-2.375 8.799-3.453 12.782l-.064.229-.22-.064c-8.953-2.723-16.61-5.235-21.983-7.182-2.686-.968-4.796-1.818-6.222-2.457-1.443-.631-2.138-1.124-2.138-1.124zM59.635 140.139c.019-.027.247.119.63.402.394.274.924.731 1.527 1.343 1.224 1.206 2.695 3.134 3.755 5.546 1.06 2.421 1.48 4.806 1.544 6.524.037.859.018 1.553-.046 2.037-.055.475-.1.74-.128.74-.082-.009-.009-1.059-.164-2.75-.146-1.681-.612-3.993-1.645-6.359a20.868 20.868 0 00-3.572-5.509c-1.124-1.252-1.955-1.91-1.9-1.974zM119.929 162.168c-.128.009-.576-4.971-.996-11.11-.42-6.15-.649-11.138-.521-11.147.128-.009.576 4.97.996 11.11.421 6.149.649 11.138.521 11.147zM101.619 132.812c.019.018-.155.201-.484.548-.329.338-.831.832-1.47 1.453-1.29 1.224-3.171 2.97-5.73 4.669l-.301.201-.018-.365c-.064-1.535-.12-3.217-.74-4.861a13.19 13.19 0 00-1.18-2.431 18.994 18.994 0 00-.794-1.16l-.11-.137-.054-.073-.01-.018c-.264-.055.357.073.293.064.009 0 0 0 0 0l-.019.009c-.063.055-.136.137-.21.219a3.712 3.712 0 00-.356.585c-.64 1.315-.868 2.786-1.142 4.166a103.739 103.739 0 00-.658 4.002l-.055.375-.292-.238-6.962-5.555c-.795-.658-1.453-1.188-1.965-1.608-.447-.384-.685-.594-.667-.612.019-.019.284.155.759.502.53.393 1.206.896 2.037 1.517 1.791 1.37 4.221 3.234 7.072 5.418l-.347.146c.173-1.279.384-2.622.63-4.02.274-1.389.484-2.878 1.179-4.294.11-.229.247-.448.402-.658.082-.11.164-.21.292-.302l.055-.036.028-.018c-.064-.019.566.118.301.063v.01l.018.018.055.073.11.146c.292.393.566.786.813 1.197a13.03 13.03 0 011.215 2.522c.64 1.727.676 3.481.713 4.998l-.32-.165c2.558-1.644 4.459-3.335 5.793-4.504.63-.548 1.142-1.005 1.544-1.362.365-.338.566-.502.575-.484z" fill="#263238"/><path d="M94.638 175.161c-.127.009-1.078-9.923-2.11-22.175-1.032-12.262-1.764-22.203-1.636-22.221.128-.018 1.079 9.914 2.111 22.175 1.042 12.262 1.773 22.212 1.635 22.221z" fill="#263238"/><path opacity=".3" d="M65.775 165.393s-.804 21.499-.794 21.554l-1.9-12.7 2.694-8.854z" fill="#000"/><path d="M81.627 198.067l8.196 9.118h57.406l19.06-36.602c.923-1.772-.366-3.892-2.358-3.892H107.74a2.656 2.656 0 00-2.457 1.645l-11.558 27.903-11.11-.283c-1.125-.027-1.728 1.288-.988 2.111z" fill="#455A64"/><path d="M81.682 196.33c.018-.018.228.183.621.567l1.672 1.672c1.471 1.507 3.49 3.591 5.912 6.076l-.33.055a987.835 987.835 0 005.766-12.901 932.05 932.05 0 007.145-16.794c.877-2.11 1.599-3.837 2.129-5.107.237-.558.438-1.014.594-1.38.137-.311.219-.475.237-.466.019.009-.036.183-.146.503-.137.374-.301.84-.511 1.416a381.655 381.655 0 01-1.983 5.162 494.759 494.759 0 01-7.026 16.857 558.454 558.454 0 01-5.839 12.883l-.128.265-.2-.21c-2.367-2.54-4.35-4.66-5.784-6.195-.658-.721-1.188-1.306-1.59-1.745-.375-.42-.557-.648-.54-.658z" fill="#263238"/><path d="M130.756 189.642c-1.809.868-3.884.293-4.651-1.288-.758-1.581.082-3.572 1.891-4.44 1.809-.868 3.883-.293 4.651 1.288.758 1.59-.082 3.572-1.891 4.44z" fill="#fff"/><path d="M74.538 200.616l5.199-.484s9.347-3.116 10.909-2.842c0 0 .457 1.562-1.188 2.567-1.653 1.006-4.12 2.202-4.12 2.202l3.727 4.267a2.554 2.554 0 001.92.868h12.224s-.457 1.563-1.745 1.928c-1.279.366-10.197 3.024-10.197 3.024l-19.342-2.037 2.613-9.493z" fill="#FFBE9D"/></g><defs><clipPath id="clip0"><path fill="#fff" d="M0 0h643.073v413H0z"/></clipPath></defs></svg>