<svg width="714" height="445" fill="none" xmlns="http://www.w3.org/2000/svg"><g clip-path="url(#clip0)"><path d="M127.48 56.99H2.9v36.8h124.58v-36.8z" fill="#fff"/><path d="M127.98 94.29H2.4v-37.8h125.58v37.8zm-124.58-1h123.58v-35.8H3.4v35.8z" fill="#E0E0E0"/><path d="M33.483 78.016c1.006-6.199-3.203-12.039-9.401-13.045-6.199-1.006-12.04 3.203-13.045 9.402-1.006 6.198 3.203 12.039 9.402 13.045 6.198 1.006 12.038-3.204 13.044-9.402z" fill="#EBEBEB"/><path d="M23.17 76.36c.9-.38 1.55-1.31 1.55-2.41.01-1.44-1.08-2.61-2.43-2.61-1.35-.01-2.45 1.15-2.45 2.59 0 1.11.64 2.05 1.56 2.43-3.76.57-3.59 4.65-3.59 4.65l8.88.04c.01 0 .21-4.12-3.52-4.69z" fill="#fff"/><path d="M113.16 75.73c0 .14-16.04.26-35.83.26s-35.84-.12-35.84-.26 16.04-.26 35.84-.26c19.78 0 35.83.12 35.83.26z" fill="#E0E0E0"/><path d="M216.32.5H91.74v36.8h124.58V.5z" fill="#fff"/><path d="M216.82 37.8H91.24V0h125.58v37.8zm-124.58-1h123.58V1H92.24v35.8z" fill="#E0E0E0"/><path d="M111.1 31.08c6.28 0 11.37-5.09 11.37-11.37 0-6.28-5.09-11.37-11.37-11.37-6.279 0-11.37 5.09-11.37 11.37 0 6.28 5.091 11.37 11.37 11.37z" fill="#EBEBEB"/><path d="M112.02 19.88c.9-.38 1.55-1.31 1.55-2.41.01-1.44-1.08-2.61-2.43-2.61-1.35-.01-2.45 1.15-2.45 2.59 0 1.11.64 2.05 1.56 2.43-3.76.57-3.59 4.65-3.59 4.65l8.88.04c0-.01.2-4.13-3.52-4.69z" fill="#fff"/><path d="M202 19.24c0 .14-16.04.26-35.83.26s-35.84-.12-35.84-.26 16.04-.26 35.84-.26c19.78 0 35.83.12 35.83.26z" fill="#E0E0E0"/><path d="M597.54 204.72c-22.51-18.26-25.67-49.37-22.75-76.92.49-4.6.33-9.5 2.81-13.38 2.48-3.89 7.8-6.28 11.79-4.04 3.31 1.86 4.51 5.95 6.19 9.38 2.23 4.57 5.77 8.46 10.07 11.1 2.83 1.73 6.39 2.93 9.4 1.54 4.13-1.91 5-7.37 5.3-11.96l1.68-25.65c.3-4.59.62-9.27 2.36-13.52 1.74-4.25 5.18-8.07 9.63-8.97 4.45-.91 9.66 1.99 10.26 6.55.25 1.9-.27 3.81-.28 5.72-.01 1.91.73 4.08 2.5 4.74 1.79.67 3.72-.5 5.19-1.74 5.07-4.29 8.71-10.02 12.13-15.74 3.43-5.72 6.78-11.58 11.43-16.32 4.66-4.74 10.88-8.32 17.48-8.22 6.59.1 13.3 4.66 14.5 11.22 1.2 6.58-3.04 12.87-7.52 17.81a102.32 102.32 0 01-22.77 18.78c-1.52.92-3.17 1.92-3.84 3.58-1.22 2.99 1.46 6.23 4.41 7.45 3.34 1.38 7.07 1.3 10.62 1.97 3.55.68 7.31 2.53 8.42 6.01 1.54 4.82-2.73 9.45-6.82 12.39a87.902 87.902 0 01-27.03 13.12c-3.46.99-7.09 1.82-9.98 3.99-2.89 2.18-4.83 6.18-3.42 9.53 1.41 3.35 5.56 4.69 9.14 4.29 3.58-.4 6.88-2.09 10.34-3.12 6.47-1.93 14.58-.91 18.22 4.83 2.4 3.77 2.27 8.77.62 12.94s-4.63 7.65-7.77 10.83c-10.95 11.12-24.56 19.74-39.55 23.75-14.97 4.02-28.61 4.42-42.76-1.94z" fill="#F5F5F5"/><path d="M605.92 187.92c5.07-13.65 11.86-28.15 19.49-43.07 1.92-3.72 3.82-7.4 5.69-11.03 1.88-3.61 3.73-7.2 5.77-10.59 4.04-6.81 8.45-13.04 12.81-18.83 4.36-5.79 8.72-11.13 12.82-16.09 4.12-4.95 8.05-9.5 11.8-13.49 7.49-8.01 14.28-13.75 19.1-17.49 2.41-1.88 4.32-3.28 5.64-4.21l1.5-1.05c.34-.23.52-.34.53-.33.01.01-.15.15-.48.4-.36.28-.84.65-1.45 1.12-1.28.97-3.16 2.41-5.54 4.33-4.75 3.82-11.46 9.61-18.87 17.65-3.72 4-7.61 8.56-11.7 13.53-4.08 4.98-8.41 10.32-12.75 16.11-4.34 5.79-8.71 12.01-12.72 18.79-2.02 3.38-3.86 6.93-5.74 10.56-1.87 3.62-3.76 7.3-5.68 11.02-7.62 14.91-14.42 29.36-19.51 42.95" fill="#E0E0E0"/><path d="M637.1 123.22c-.06 0-.16-.7-.31-1.99-.15-1.28-.31-3.15-.46-5.46-.32-4.61-.55-11-.77-18.04-.22-7.04-.54-13.41-.93-18-.19-2.3-.36-4.16-.49-5.44-.13-1.28-.17-2-.11-2.01.06-.01.21.69.44 1.96.24 1.27.5 3.13.76 5.42.54 4.6.96 10.98 1.18 18.03.2 6.95.38 13.23.52 18.03.08 2.17.14 4 .19 5.46.05 1.32.04 2.03-.02 2.04z" fill="#E0E0E0"/><path d="M696.85 116.43c0 .06-.85.1-2.37.11-1.52.03-3.73.05-6.45.17-5.44.19-12.95.73-21.21 1.68-8.26.97-15.69 2.16-21.05 3.17-2.68.49-4.84.94-6.33 1.25-1.49.31-2.33.46-2.34.4-.01-.06.79-.31 2.27-.72 1.47-.4 3.62-.95 6.29-1.52 5.34-1.17 12.79-2.46 21.07-3.43 8.28-.95 15.82-1.39 21.29-1.43 2.73-.04 4.94.02 6.47.1 1.52.09 2.36.16 2.36.22zM606.72 186.89c-.03.01-.15-.25-.35-.75-.23-.6-.51-1.32-.85-2.21-.73-1.92-1.72-4.72-2.9-8.2-2.36-6.96-5.32-16.67-8.43-27.43-3.12-10.77-5.98-20.5-8.19-27.49-1.09-3.4-1.98-6.2-2.64-8.28-.28-.9-.52-1.65-.71-2.26-.15-.52-.22-.8-.19-.81.03-.01.15.25.35.75.23.6.51 1.32.85 2.2.73 1.92 1.72 4.72 2.9 8.2 2.36 6.96 5.32 16.67 8.43 27.44 3.12 10.76 5.98 20.49 8.19 27.49 1.09 3.4 1.98 6.2 2.64 8.28.28.9.52 1.65.71 2.26.15.52.22.8.19.81z" fill="#E0E0E0"/><path d="M686.87 167.26c.01.03-.27.12-.8.26-.63.16-1.4.36-2.33.6-2.15.53-5.05 1.25-8.58 2.12-7.25 1.79-17.23 4.37-28.26 7.25-11.03 2.87-21.05 5.37-28.33 7.01-3.64.82-6.6 1.45-8.65 1.85-.95.18-1.73.32-2.36.44-.54.09-.83.13-.84.1-.01-.03.27-.12.8-.27.63-.16 1.4-.36 2.33-.6 2.15-.53 5.05-1.25 8.58-2.12 7.25-1.79 17.23-4.37 28.26-7.25 11.03-2.87 21.04-5.37 28.33-7.01 3.64-.82 6.6-1.46 8.65-1.85.95-.18 1.73-.32 2.36-.44.55-.08.84-.12.84-.09z" fill="#E0E0E0"/><path d="M24.24 353.65c-4.62-2.38-10.06-2.69-15.18-1.85-2.75.46-5.63 1.28-7.5 3.35-1.87 2.07-2.23 5.71-.08 7.49 1.28 1.06 3.07 1.22 4.73 1.2 4.01-.05 8.47-.75 11.67 1.66 1.83 1.38 3.05 3.67 5.23 4.35 2.14.66 4.55-.6 5.69-2.53 1.13-1.93 1.17-4.35.64-6.52.01 0-.55-4.75-5.2-7.15zM34.82 333.23c-2.82 4.03-8.31 2.7-10.86.24-2.54-2.46-3.62-6.03-4.6-9.43-2.24-7.77-4.49-15.93-2.83-23.85.5-2.37 1.38-4.73 3.05-6.48 1.66-1.76 4.22-2.8 6.56-2.18 2.77.73 4.49 3.44 5.73 6.02a56.932 56.932 0 015.62 24.4c.01 3.91-.45 8.03-2.67 11.28zM42.57 339.02c-3.07-3.64-3.65-8.95-2.28-13.51 1.36-4.56 4.45-8.44 8-11.6a43.15 43.15 0 0114.32-8.45c2.07-.73 4.26-1.3 6.44-1.09 2.19.21 4.39 1.33 5.41 3.27 1.51 2.88.06 6.36-1.5 9.21-2.75 5.01-5.9 9.81-9.41 14.33-2.82 3.64-6.05 7.22-10.35 8.86-4.3 1.64-8.76 1.45-11.04-1.53" fill="#EBEBEB"/><path d="M35.01 394.07c-.05 0-.14-.65-.26-1.83-.13-1.33-.29-3.01-.49-5-.23-2.1-.54-4.61-1.13-7.34-.58-2.72-1.49-5.67-2.67-8.66-1.21-2.97-2.69-5.67-4.42-7.84-1.72-2.17-3.71-3.74-5.59-4.65-1.87-.92-3.55-1.3-4.71-1.47-1.17-.12-1.82-.21-1.82-.26 0-.05.66-.06 1.86-.03 1.19.08 2.94.38 4.91 1.28 1.98.88 4.1 2.47 5.9 4.69 1.82 2.21 3.35 4.97 4.58 7.99 1.19 3.04 2.09 6.02 2.65 8.8.56 2.77.81 5.31.98 7.43.16 2.12.22 3.84.25 5.03.02 1.2.01 1.86-.04 1.86z" fill="#E0E0E0"/><path d="M34.67 390.22c-.03 0-.04-.29-.05-.85 0-.64 0-1.44.01-2.43.01-2.11 0-5.16-.11-8.94-.19-7.54-.84-15.66-2.09-27.11-1.19-10.76-2.78-23.29-4.46-31.43-.36-1.85-.72-3.52-1.07-4.98-.33-1.46-.6-2.72-.87-3.74-.23-.96-.42-1.74-.57-2.36-.12-.54-.17-.83-.15-.84.02-.01.13.27.3.8.19.61.42 1.38.71 2.33.31 1.01.63 2.26 1 3.72.38 1.45.78 3.12 1.18 4.96 1.66 7.38 3.43 17.69 4.69 29.16 1.26 11.47 1.82 21.91 1.87 29.47.04 3.78-.04 6.84-.13 8.95-.06.99-.11 1.79-.15 2.43-.05.57-.09.86-.11.86z" fill="#E0E0E0"/><path d="M34.61 370.08c-.05 0-.04-.9.02-2.54.09-1.63.32-3.99.78-6.88.49-2.88 1.17-6.31 2.24-10.03.46-1.7 1.55-5.78 4.19-11.87 3.48-8.25 8.2-15 12.31-19.18.96-1.11 2.04-1.91 2.9-2.69.44-.38.84-.75 1.24-1.05.4-.28.78-.54 1.12-.77 1.35-.93 2.11-1.41 2.14-1.37.12.17-3.03 2.02-7.01 6.25-3.96 4.23-8.56 10.92-12.01 19.11-1.92 4.44-3.27 8.4-4.22 11.76-1.1 3.68-1.83 7.07-2.38 9.93-.52 2.86-.83 5.2-1.01 6.82-.14 1.62-.25 2.51-.31 2.51zM54.08 405.61l-2.02 27.65H16.54l-2.01-27.65h39.55zM57.52 394.71H10.29v10.9h47.23v-10.9z" fill="#E0E0E0"/><path d="M57.51 432.2v3.02H11.07v-3.02h46.44z" fill="#EBEBEB"/><path d="M53.12 440.54l2.17-5.32H12.76l2.54 5.32h37.82z" fill="#E0E0E0"/><path d="M15.18 414.65c-.01.01.05.09.17.25.14.19.32.42.53.7.5.65 1.2 1.53 2.07 2.65l.09.12.09-.12c1.3-1.8 3.04-4.2 5.08-7.03h-.29c1.51 2.14 3.2 4.53 5 7.09l.16.22.18-.21c1.85-2.2 3.85-4.58 5.94-7.06h-.34c.1.13.21.27.33.41 1.84 2.31 3.62 4.54 5.31 6.65l.18.22.16-.23c1.8-2.55 3.49-4.93 5.01-7.09l-.29.01c2.47 2.81 4.56 5.2 6.17 7.03l.11.12.08-.14c.81-1.37 1.46-2.45 1.93-3.24.2-.35.37-.64.5-.86.11-.2.16-.3.15-.31-.01-.01-.08.09-.21.27-.14.22-.32.49-.55.83-.49.77-1.17 1.84-2.03 3.18l.19-.02c-1.58-1.85-3.64-4.27-6.07-7.11l-.15-.18-.14.19c-1.54 2.14-3.23 4.52-5.05 7.05l.34-.01c-1.68-2.12-3.46-4.35-5.3-6.66-.11-.14-.22-.28-.33-.41l-.17-.21-.17.21c-2.08 2.48-4.08 4.87-5.92 7.08l.33.01c-1.83-2.55-3.53-4.92-5.06-7.05l-.15-.21-.14.21c-2 2.86-3.7 5.29-4.98 7.11l.18-.01c-.91-1.09-1.63-1.95-2.15-2.58-.23-.27-.42-.49-.58-.67-.12-.14-.2-.21-.21-.2zM14.03 405.43c0 .12 8.9.22 19.88.22 10.98 0 19.88-.1 19.88-.22s-8.9-.22-19.88-.22c-10.98 0-19.88.1-19.88.22zM12.24 435.52c0 .12 9.67.22 21.6.22 11.93 0 21.6-.1 21.6-.22s-9.67-.22-21.6-.22c-11.93 0-21.6.1-21.6.22z" fill="#F5F5F5"/><path d="M320.39 350.77H195.81v36.8h124.58v-36.8z" fill="#fff"/><path d="M320.89 388.07H195.31v-37.8h125.58v37.8zm-124.58-1h123.58v-35.8H196.31v35.8z" fill="#E0E0E0"/><path d="M215.17 381.35c6.28 0 11.37-5.091 11.37-11.37 0-6.28-5.09-11.37-11.37-11.37-6.279 0-11.37 5.09-11.37 11.37 0 6.279 5.091 11.37 11.37 11.37z" fill="#EBEBEB"/><path d="M211 368.385l2.824 4.615 5.176-6" stroke="#fff"/><path d="M306.07 369.51c0 .14-16.04.26-35.83.26s-35.84-.12-35.84-.26 16.04-.26 35.84-.26c19.78 0 35.83.12 35.83.26z" fill="#E0E0E0"/><path d="M416.71 313.58H292.13v36.8h124.58v-36.8z" fill="#fff"/><path d="M417.2 350.88H291.63v-37.8H417.2v37.8zm-124.57-1H416.2v-35.8H292.63v35.8z" fill="#E0E0E0"/><path d="M311.48 344.16c6.279 0 11.37-5.091 11.37-11.37 0-6.28-5.091-11.37-11.37-11.37-6.28 0-11.37 5.09-11.37 11.37 0 6.279 5.09 11.37 11.37 11.37z" fill="#EBEBEB"/><path d="M307 331.385l2.824 4.615 5.176-6" stroke="#fff"/><path d="M402.38 332.32c0 .14-16.04.26-35.83.26s-35.84-.12-35.84-.26 16.04-.26 35.84-.26c19.78 0 35.83.12 35.83.26z" fill="#E0E0E0"/><path d="M457.08 377.42l-1.7 31.18a2.104 2.104 0 01-2.09 1.99l-56.11.41c-1.16.01-2.11-.93-2.12-2.09l-.18-24.27c-.01-1.17.94-2.12 2.1-2.12l34.51-.03c.56 0 1.09-.22 1.49-.62l5.95-5.95c.39-.39.92-.61 1.47-.62l14.55-.11c1.23 0 2.2 1.02 2.13 2.23z" fill="#D5AC50"/><path opacity=".3" d="M457.08 377.42l-1.7 31.18a2.104 2.104 0 01-2.09 1.99l-56.11.41c-1.16.01-2.11-.93-2.12-2.09l-.18-24.27c-.01-1.17.94-2.12 2.1-2.12l34.51-.03c.56 0 1.09-.22 1.49-.62l5.95-5.95c.39-.39.92-.61 1.47-.62l14.55-.11c1.23 0 2.2 1.02 2.13 2.23z" fill="#000"/><path d="M395.104 415.482l61.31-.449-.269-36.64-61.31.449.269 36.64z" fill="#F5F5F5"/><path d="M461.06 381.66l-4.4 38.24c-.08.68-.65 1.19-1.33 1.2l-59.75.44c-.71.01-1.3-.53-1.36-1.24l-3.29-38.18c-.07-.79.55-1.46 1.34-1.47l67.44-.49c.8-.02 1.44.69 1.35 1.5z" fill="#FAFAFA"/><path d="M473.59 371.54l-1.7 31.18a2.104 2.104 0 01-2.09 1.99l-56.11.41c-1.16.01-2.11-.93-2.12-2.09l-.18-24.27c-.01-1.17.94-2.12 2.1-2.12l34.51-.03c.56 0 1.09-.22 1.49-.62l5.95-5.95c.39-.39.92-.61 1.47-.62l14.55-.11c1.23 0 2.2 1.02 2.13 2.23z" fill="#E0E0E0"/><path d="M411.61 409.597l61.31-.449-.269-36.64-61.31.449.269 36.64z" fill="#F5F5F5"/><path d="M477.57 375.78l-4.4 38.24a1.36 1.36 0 01-1.34 1.2l-59.75.44c-.71 0-1.3-.53-1.36-1.24l-3.29-38.18c-.07-.79.55-1.46 1.34-1.47l67.44-.49c.81-.02 1.45.69 1.36 1.5z" fill="#E0E0E0"/><path d="M492.19 378.84l-1.7 31.18a2.104 2.104 0 01-2.09 1.99l-56.11.41c-1.16.01-2.11-.93-2.12-2.09l-.17-24.27c-.01-1.17.94-2.12 2.1-2.12l34.51-.03c.56 0 1.09-.22 1.49-.62l5.95-5.95c.39-.39.92-.61 1.47-.62l14.55-.11c1.22 0 2.19 1.02 2.12 2.23z" fill="#F5F5F5"/><path d="M430.219 416.9l61.31-.449-.269-36.64-61.31.449.269 36.64z" fill="#F5F5F5"/><path d="M496.17 383.08l-4.4 38.24a1.36 1.36 0 01-1.34 1.2l-59.75.44c-.71.01-1.3-.53-1.36-1.24l-3.29-38.18c-.07-.79.55-1.46 1.34-1.47l67.44-.49c.82-.02 1.45.69 1.36 1.5z" fill="#F5F5F5"/><path d="M426.03 388.28v53.04h76.52v-53.04h-76.52zm24.98 9.54a3.92 3.92 0 013.92-3.92h18.73a3.92 3.92 0 110 7.84h-18.73a3.92 3.92 0 01-3.92-3.92z" fill="#EBEBEB"/><path d="M384.78 388.28v53.04h41.25v-53.04h-41.25z" fill="#E0E0E0"/><path d="M622.66 283.439H143.35l.96-271.65h479.32l-.97 271.65z" fill="#fff"/><path d="M152.63 21.2c1.237 0 2.24-.99 2.24-2.21 0-1.221-1.003-2.21-2.24-2.21-1.237 0-2.24.989-2.24 2.21 0 1.22 1.003 2.21 2.24 2.21zM161.84 21.2c1.237 0 2.24-.99 2.24-2.21 0-1.221-1.003-2.21-2.24-2.21-1.237 0-2.24.989-2.24 2.21 0 1.22 1.003 2.21 2.24 2.21z" fill="#263238"/><path d="M246 30.07h-34.06V53.9H246V30.07z" fill="#D5AC50"/><path d="M171.05 21.2c1.237 0 2.24-.99 2.24-2.21 0-1.221-1.003-2.21-2.24-2.21-1.237 0-2.24.989-2.24 2.21 0 1.22 1.003 2.21 2.24 2.21zM622.66 30.069c0 .14-107.1.26-239.19.26-132.14 0-239.22-.12-239.22-.26s107.08-.26 239.22-.26c132.09 0 239.19.12 239.19.26z" fill="#263238"/><path d="M177.58 50.95h-34.23v232.819h34.23V50.949z" fill="#F5F5F5"/><path d="M211.94 50.61h-35.05v232.819h35.05V50.609z" fill="#EBEBEB"/><path d="M246.17 50.61h-34.23v232.819h34.23V50.609z" fill="#F5F5F5"/><path d="M280.53 50.61h-35.05v232.819h35.05V50.609z" fill="#EBEBEB"/><path d="M314.76 50.61h-34.23v232.819h34.23V50.609z" fill="#F5F5F5"/><path d="M349.12 50.61h-35.05v232.819h35.05V50.609z" fill="#EBEBEB"/><path d="M383.35 50.61h-34.23v232.819h34.23V50.609z" fill="#F5F5F5"/><path d="M417.71 50.61h-35.05v232.819h35.05V50.609z" fill="#EBEBEB"/><path d="M451.94 50.61h-34.23v232.819h34.23V50.609z" fill="#F5F5F5"/><path d="M486.3 50.61h-35.05v232.819h35.05V50.609z" fill="#EBEBEB"/><path d="M520.53 50.61H486.3v232.819h34.23V50.609z" fill="#F5F5F5"/><path d="M554.9 50.61h-35.05v232.819h35.05V50.609z" fill="#EBEBEB"/><path d="M589.12 50.61h-34.23v232.819h34.23V50.609z" fill="#F5F5F5"/><path d="M622.67 50.61h-34.23v232.819h34.23V50.609z" fill="#EBEBEB"/><path d="M217.32 282.719c-.14 0-.26-51.97-.26-116.06 0-64.11.12-116.07.26-116.07s.26 51.96.26 116.07c0 64.09-.12 116.06-.26 116.06z" fill="#D5AC50"/><path d="M261.6 84.179h-99.32v29.11h99.32v-29.11z" fill="#D5AC50"/><path d="M177.85 108.359c5.054 0 9.15-4.025 9.15-8.99s-4.096-8.99-9.15-8.99c-5.053 0-9.15 4.025-9.15 8.99s4.097 8.99 9.15 8.99z" fill="#fff"/><path d="M174.001 97.385l2.824 4.615 5.176-6" stroke="#D5AC50"/><path d="M249.94 98.998c0 .14-12.67.26-28.3.26s-28.3-.12-28.3-.26 12.67-.26 28.3-.26c15.62 0 28.3.12 28.3.26z" fill="#fff"/><path d="M463.47 204.189H443.6c-20.27 0-36.76-16.21-36.76-36.14v-36.55c0-19.37-16.04-35.14-35.75-35.14l-109.49.55v-1l109.5-.54c20.27 0 36.76 16.21 36.76 36.14v36.54c0 19.37 16.04 35.14 35.76 35.14h19.87v1h-.02z" fill="#D5AC50"/><path d="M527.16 190.929h-76.48v29.11h76.48v-29.11z" fill="#fff"/><path d="M527.66 220.539h-77.48v-30.11h77.48v30.11zm-76.48-1h75.48v-28.11h-75.48v28.11z" fill="#D5AC50"/><path d="M466.26 215.109c5.054 0 9.15-4.025 9.15-8.99s-4.096-8.99-9.15-8.99c-5.053 0-9.15 4.025-9.15 8.99s4.097 8.99 9.15 8.99z" fill="#D5AC50"/><path d="M462.001 204.385l2.824 4.615 5.176-6" stroke="#fff"/><path d="M507.96 205.759c0 .04-.37.07-1.03.1s-1.62.06-2.81.08c-2.37.05-5.65.08-9.27.08-3.62 0-6.9-.03-9.27-.08-1.19-.02-2.15-.05-2.81-.08-.66-.03-1.03-.07-1.03-.1 0-.04.37-.07 1.03-.1s1.62-.06 2.81-.08c2.37-.05 5.65-.08 9.27-.08 3.62 0 6.9.03 9.27.08 1.19.02 2.15.05 2.81.08.66.03 1.03.06 1.03.1z" fill="#D5AC50"/><path d="M592.551 161.317l-64.94-.215-.096 29.11 64.94.215.096-29.11z" fill="#fff"/><path d="M592.95 190.929l-65.94-.22.1-30.11 65.94.22-.1 30.11zm-64.94-1.22l63.94.21.1-28.11-63.94-.21-.1 28.11z" fill="#263238"/><path d="M551.72 176.378c-.02 4.97-4.03 8.98-8.97 8.96-4.94-.02-8.93-4.06-8.91-9.02.02-4.97 4.03-8.98 8.97-8.96 4.94.01 8.93 4.05 8.91 9.02z" fill="#263238"/><path d="M539 174.385l2.824 4.615 5.176-6" stroke="#fff"/><path d="M585.29 176.139c0 .04-.38.07-1.08.1-.69.03-1.7.05-2.93.07-2.48.04-5.9.05-9.68.04-3.78-.02-7.2-.06-9.68-.12-1.24-.03-2.24-.06-2.93-.09s-1.08-.07-1.08-.11c0-.04.38-.07 1.08-.1.69-.03 1.7-.05 2.93-.07 2.48-.04 5.9-.05 9.68-.04 3.78.02 7.2.06 9.68.12 1.24.03 2.24.06 2.93.09.7.04 1.08.08 1.08.11z" fill="#263238"/><path d="M373.99 133.439H261.7v29.11h112.29v-29.11z" fill="#fff"/><path d="M374.49 163.049H261.2v-30.11h113.29v30.11zm-112.29-1h111.29v-28.11H262.2v28.11z" fill="#455A64"/><path d="M361.43 148.269c0 .14-13.76.26-30.72.26-16.97 0-30.73-.12-30.73-.26s13.75-.26 30.73-.26c16.96 0 30.72.11 30.72.26zM278.94 157.259c5.053 0 9.15-4.025 9.15-8.99s-4.097-8.99-9.15-8.99-9.15 4.025-9.15 8.99 4.097 8.99 9.15 8.99z" fill="#455A64"/><path d="M275.001 146.385l2.824 4.615 5.176-6" stroke="#fff"/><path d="M449.85 163.169h-99.32v29.11h99.32v-29.11z" fill="#fff"/><path d="M450.35 192.779H350.03v-30.11h100.32v30.11zm-99.32-1h98.32v-28.11h-98.32v28.11z" fill="#263238"/><path d="M366.1 187.359c5.054 0 9.15-4.025 9.15-8.99s-4.096-8.99-9.15-8.99c-5.053 0-9.15 4.025-9.15 8.99s4.097 8.99 9.15 8.99z" fill="#263238"/><path d="M362.001 176.385l2.824 4.615 5.176-6" stroke="#fff"/><path d="M438.19 177.999c0 .14-12.67.26-28.3.26s-28.3-.12-28.3-.26 12.67-.26 28.3-.26c15.62 0 28.3.12 28.3.26z" fill="#263238"/><path d="M622.66 283.77c0-1.61.3-104.92.77-271.99l.2.2c-128.15.02-296.06.04-479.28.07h-.04l.26-.26c-.35 96.22-.68 188.2-.99 271.99l-.24-.24c280.85.13 477.11.23 479.32.23-2.21 0-198.48.1-479.32.24h-.24v-.24c.29-83.78.62-175.77.95-271.99v-.26h.3c183.22.02 351.13.04 479.28.06h.2v.2c-.71 167.07-1.16 270.39-1.17 271.99z" fill="#263238"/><path d="M570.74 350.57c-13.38-6.43-28.8-18.18-35.57-31.6 14.43 6.63 27.08 17.87 35.57 31.6zM576.9 351.94c-11.65 9.19-28.99 17.88-44.02 18.06 12.3-10.05 27.96-16.48 44.02-18.06zM592.16 358.68c-9.68 11.25-25.03 23.09-39.75 26.15 10.14-12.23 24.28-21.53 39.75-26.15zM608 372.69c-9.19 7.25-22.86 14.1-34.71 14.25 9.69-7.93 22.04-12.99 34.71-14.25zM585.48 355.62c-10.45-10.54-21.05-26.78-22.93-41.69 11.37 11.08 19.53 25.9 22.93 41.69zM621.08 372.57c-15.53-8.4-32.99-23.67-39.78-41.03 16.79 8.66 30.94 23.26 39.78 41.03zM620.07 346.54c-15.53-8.4-32.99-23.67-39.78-41.03 16.79 8.66 30.94 23.25 39.78 41.03zM617.75 321.09c-15.53-8.4-32.99-23.67-39.78-41.03 16.79 8.66 30.94 23.26 39.78 41.03zM614.35 294.36c-14.41-10.5-29.91-28.09-34.59-46.25 15.62 10.93 27.93 27.39 34.59 46.25zM609.97 273.74c-9.75-15.6-18.07-38.22-16.17-56.97 10.73 16.5 16.48 36.76 16.17 56.97zM612.18 283.55c4.1-19.46 14.09-43.47 28.47-56.99-4.05 20.88-14.17 41.16-28.47 56.99zM615.38 305.57c5.87-19.91 18.25-44.05 34.35-56.88-5.94 21.39-18.16 41.62-34.35 56.88zM618.91 332.37c5.87-19.91 18.25-44.05 34.35-56.88-5.94 21.4-18.16 41.63-34.35 56.88zM620.69 365.04c5.87-19.91 18.25-44.05 34.35-56.88-5.94 21.4-18.16 41.63-34.35 56.88z" fill="#D5AC50"/><path d="M609.58 269.81c.01 0 .04.1.1.31.06.25.13.55.22.94.19.87.46 2.08.79 3.61.68 3.14 1.58 7.7 2.6 13.36 1.03 5.65 2.11 12.41 3.18 19.93 1.03 7.53 2.02 15.82 2.84 24.56.79 8.74 1.33 17.08 1.68 24.67.33 7.59.49 14.43.51 20.18.03 5.75-.02 10.4-.12 13.61l-.12 3.7c-.02.39-.03.71-.05.96-.01.22-.03.33-.04.33-.01 0-.02-.11-.03-.33 0-.25-.01-.57-.02-.96v-3.7c.02-3.21 0-7.86-.08-13.6-.08-5.74-.29-12.58-.65-20.16-.39-7.58-.94-15.91-1.73-24.64-.81-8.72-1.79-17.01-2.78-24.53-1.03-7.52-2.06-14.28-3.04-19.94-.96-5.66-1.79-10.23-2.4-13.39-.29-1.54-.51-2.76-.67-3.64-.07-.39-.12-.7-.16-.95-.03-.2-.04-.32-.03-.32z" fill="#263238"/><g opacity=".5"><path opacity=".5" d="M621.08 372.57c-15.53-8.4-32.99-23.67-39.78-41.03 16.79 8.66 30.94 23.26 39.78 41.03zM620.07 346.54c-15.53-8.4-32.99-23.67-39.78-41.03 16.79 8.66 30.94 23.25 39.78 41.03zM617.75 321.09c-15.53-8.4-32.99-23.67-39.78-41.03 16.79 8.66 30.94 23.26 39.78 41.03zM614.35 294.36c-14.41-10.5-29.91-28.09-34.59-46.25 15.62 10.93 27.93 27.39 34.59 46.25zM609.97 273.74c-9.75-15.6-18.07-38.22-16.17-56.97 10.73 16.5 16.48 36.76 16.17 56.97zM612.18 283.55c4.1-19.46 14.09-43.47 28.47-56.99-4.05 20.88-14.17 41.16-28.47 56.99zM615.38 305.57c5.87-19.91 18.25-44.05 34.35-56.88-5.94 21.39-18.16 41.62-34.35 56.88zM618.91 332.37c5.87-19.91 18.25-44.05 34.35-56.88-5.94 21.4-18.16 41.63-34.35 56.88zM620.69 365.04c5.87-19.91 18.25-44.05 34.35-56.88-5.94 21.4-18.16 41.63-34.35 56.88z" fill="#000"/></g><path d="M627.9 379.29c-7.23-15.14-12.49-36.42-8.94-53.04 8.02 16.07 11.2 34.93 8.94 53.04zM639.93 359.69c-7.23-15.14-12.49-36.42-8.94-53.04 8.02 16.06 11.2 34.93 8.94 53.04zM650.71 339.76c-7.23-15.14-12.49-36.42-8.94-53.04 8.02 16.06 11.2 34.93 8.94 53.04zM661.34 318.26c-5.38-16.02-8.07-37.87-2.59-53.85 6.05 17.06 6.97 36.21 2.59 53.85zM668.25 300.66c.53-17.05 5.54-38.4 16.13-50.99-.26 18.27-5.99 36.41-16.13 50.99zM665.05 309.11c12.54-11.83 31.61-23.58 48.75-25.12-13.2 12.91-30.54 21.84-48.75 25.12zM656.59 327.04c14.05-11.13 34.93-21.59 52.98-21.63-14.83 12.19-33.67 19.88-52.98 21.63zM646.03 348.67c14.05-11.13 34.93-21.59 52.98-21.63-14.83 12.19-33.68 19.88-52.98 21.63zM631.31 373.57c14.05-11.13 34.93-21.59 52.98-21.63-14.83 12.18-33.68 19.87-52.98 21.63z" fill="#D5AC50"/><path d="M669.89 297.57c.01 0-.02.1-.08.28-.08.22-.17.48-.29.8-.29.75-.68 1.77-1.18 3.06-1.02 2.66-2.59 6.48-4.6 11.16-4.01 9.37-9.95 22.16-17.34 35.86-3.7 6.85-7.41 13.27-10.88 19.05-3.5 5.76-6.75 10.89-9.58 15.13-2.82 4.25-5.16 7.65-6.82 9.96-.81 1.12-1.45 2.01-1.92 2.66-.21.27-.37.5-.51.68-.12.15-.18.23-.19.22-.01-.01.04-.09.14-.26.12-.19.28-.43.46-.72.45-.67 1.05-1.58 1.82-2.73 1.6-2.35 3.88-5.79 6.65-10.06 2.78-4.27 5.98-9.42 9.45-15.19 3.44-5.79 7.12-12.21 10.82-19.05a515.801 515.801 0 0017.48-35.74c2.06-4.66 3.68-8.45 4.78-11.08.54-1.27.97-2.28 1.29-3.02.14-.31.26-.57.35-.78.09-.15.14-.24.15-.23z" fill="#263238"/><path d="M540.44 348.75c0-.01.08-.03.24-.06.19-.03.43-.07.72-.12.64-.09 1.57-.28 2.79-.39 2.43-.3 5.97-.55 10.35-.44 4.38.11 9.59.67 15.23 2 5.64 1.32 11.68 3.48 17.61 6.58 5.91 3.14 11.1 6.92 15.38 10.82 4.29 3.9 7.7 7.88 10.26 11.43 2.57 3.55 4.36 6.61 5.48 8.78.59 1.07.96 1.95 1.25 2.52.12.27.22.49.31.67.07.15.1.23.09.23-.01 0-.05-.07-.14-.21-.09-.17-.21-.38-.35-.64-.32-.56-.72-1.42-1.33-2.47-1.17-2.14-3.01-5.16-5.6-8.66-2.58-3.51-6-7.44-10.28-11.3-4.27-3.86-9.43-7.59-15.3-10.72-5.89-3.08-11.88-5.23-17.48-6.57-5.6-1.35-10.78-1.95-15.13-2.1-4.35-.16-7.89.03-10.31.27-1.22.09-2.15.24-2.79.3-.29.03-.53.05-.73.07-.18.02-.27.02-.27.01z" fill="#263238"/><path d="M648.72 441.51h-44.83l-7.85-58.09 60.97-.57-8.29 58.66z" fill="#263238"/><path d="M556.73 348.17c-15.57 6.25-37.14 10.15-53.5 5.55 16.54-6.98 35.57-8.96 53.5-5.55z" fill="#D5AC50"/><path d="M660.19 382.85h-67.34v8.81h67.34v-8.81z" fill="#263238"/><path d="M660.24 391.77c0 .14-15.14.26-33.81.26-18.68 0-33.82-.12-33.82-.26s15.14-.26 33.82-.26c18.67 0 33.81.12 33.81.26z" fill="#455A64"/><path d="M652.56 405.9c-.04.04-.54-.59-1.68-1.44-1.12-.85-2.97-1.85-5.47-2.32-2.48-.49-5.57-.36-8.76.7-3.2 1.01-6.45 2.83-9.73 4.92-3.28 2.09-6.39 4.18-9.46 5.66-3.05 1.51-6.07 2.34-8.65 2.51-2.58.2-4.68-.21-6.03-.68-.68-.23-1.19-.46-1.53-.64-.33-.18-.5-.28-.5-.29.02-.05.72.34 2.08.74 1.35.41 3.42.75 5.94.51 2.53-.22 5.47-1.06 8.47-2.58 3.02-1.48 6.1-3.56 9.39-5.67 3.29-2.1 6.59-3.93 9.87-4.94 3.26-1.05 6.44-1.15 8.97-.6 2.54.52 4.41 1.6 5.52 2.52.29.22.52.44.72.64.2.19.36.36.48.51.26.28.39.44.37.45zM651.04 412.03c-.03.05-.67-.35-1.96-.74-.64-.2-1.45-.35-2.4-.43-.95-.06-2.04-.03-3.22.16-2.37.38-5.1 1.37-7.8 3.04-2.74 1.62-5.51 3.81-8.68 5.76-3.15 1.98-6.57 3.23-9.76 3.73-3.2.51-6.14.38-8.54-.04-2.41-.4-4.28-1.08-5.53-1.62-.63-.25-1.09-.51-1.41-.67-.32-.17-.48-.26-.47-.28.02-.05.69.29 1.96.77 1.26.48 3.13 1.09 5.51 1.44 2.38.37 5.27.46 8.41-.07 3.14-.52 6.46-1.74 9.57-3.7 3.13-1.92 5.92-4.11 8.71-5.73 2.76-1.67 5.57-2.66 8-2.99 1.21-.17 2.33-.18 3.3-.09.97.11 1.79.3 2.43.53.64.23 1.13.45 1.43.64.3.18.46.28.45.29z" fill="#fff"/><path d="M695.85 441.51c0 .14-154.73.26-345.56.26-190.89 0-345.59-.12-345.59-.26s154.7-.26 345.59-.26c190.83 0 345.56.11 345.56.26z" fill="#263238"/><path d="M66.8 408.73l-1.42 21.46s21.36 7.09 21.48 11.08l-41.73.3.84-33.52 20.83.68z" fill="#D5AC50"/><path opacity=".6" d="M52.54 427.99c-.81.2-1.4 1.09-1.24 1.91.16.82 1.06 1.42 1.88 1.24.82-.18 1.55-1.23 1.3-2.03-.25-.8-1.35-1.45-2.1-1.08M45.13 441.56l.08-3.38 40.3 1.11s1.34.58 1.55 2.27H45.13z" fill="#fff"/><path d="M66.06 429.99c-.01.2-1.03.27-2.06.89-1.04.6-1.58 1.46-1.77 1.38-.19-.05.15-1.25 1.4-1.99 1.26-.74 2.48-.46 2.43-.28zM70.38 431.93c.04.2-.85.52-1.57 1.36-.74.82-.95 1.75-1.15 1.73-.19.03-.3-1.17.61-2.2.91-1.03 2.11-1.08 2.11-.89zM72.7 437.24c-.19.04-.44-.99.12-2.09.55-1.1 1.52-1.51 1.6-1.34.11.17-.53.75-.97 1.66-.46.9-.54 1.76-.75 1.77zM65.84 425.07c-.09.18-1.02-.13-2.17-.08-1.15.02-2.06.38-2.16.2-.11-.15.78-.88 2.14-.91 1.36-.05 2.3.63 2.19.79z" fill="#263238"/><path opacity=".3" d="M65.78 424.13l-.26 3.96-20.04-.79.08-3.45 20.22.28z" fill="#000"/><path d="M66.05 420.73c0 .08-.81.19-2.09-.07-.64-.13-1.38-.36-2.16-.74-.39-.19-.79-.41-1.18-.67-.19-.13-.41-.26-.62-.51-.22-.22-.33-.76-.06-1.09.22-.31.61-.44.91-.44.31 0 .55.07.78.13.46.13.89.29 1.28.48.79.39 1.42.86 1.89 1.32.94.93 1.25 1.7 1.18 1.73-.09.06-.55-.59-1.51-1.36-.48-.38-1.1-.78-1.83-1.11-.37-.16-.77-.3-1.19-.41-.44-.13-.81-.14-.93.05-.04.07-.05.1.04.24.09.12.27.24.45.37.36.25.73.47 1.08.66.72.38 1.4.65 2 .84 1.18.39 1.96.47 1.96.58z" fill="#263238"/><path d="M65.77 421.02c-.07.03-.46-.71-.49-2.03-.02-.66.08-1.45.35-2.28.14-.41.33-.84.57-1.25.26-.4.57-.95 1.36-1.01.41 0 .75.33.85.61.13.29.15.53.19.77a4.775 4.775 0 01-1 3.54c-.85 1.06-1.7 1.27-1.72 1.2-.06-.1.66-.48 1.31-1.5.32-.5.62-1.17.72-1.94.05-.38.06-.79 0-1.21-.05-.45-.21-.81-.37-.77-.21-.01-.57.31-.75.66-.23.37-.41.74-.55 1.12-.28.75-.42 1.46-.47 2.07-.08 1.22.12 1.99 0 2.02z" fill="#263238"/><path d="M111.02 409.94l-3.74 21.18s20.46 9.36 20.15 13.34l-41.51-4.23L90.4 407l20.62 2.94z" fill="#D5AC50"/><path opacity=".6" d="M94.75 427.53c-.83.11-1.51.93-1.44 1.76.07.83.9 1.53 1.73 1.44.83-.09 1.68-1.05 1.51-1.87-.17-.82-1.18-1.59-1.97-1.3M85.92 440.23l.45-3.35 39.94 5.48s1.27.72 1.3 2.42l-41.69-4.55z" fill="#fff"/><path d="M107.98 430.99c-.03.2-1.06.15-2.14.66-1.1.48-1.73 1.28-1.91 1.18-.18-.07.29-1.23 1.61-1.82 1.32-.61 2.51-.19 2.44-.02zM112.06 433.39c.02.2-.9.42-1.71 1.18-.83.73-1.13 1.63-1.33 1.6-.19.01-.17-1.2.85-2.12 1.02-.93 2.21-.85 2.19-.66zM113.8 438.92c-.19.02-.33-1.03.34-2.06.67-1.04 1.68-1.34 1.74-1.16.09.18-.6.69-1.14 1.55-.56.84-.74 1.68-.94 1.67zM108.3 426.07c-.11.17-1-.24-2.15-.32-1.15-.11-2.09.15-2.17-.03-.1-.16.87-.79 2.23-.67 1.35.1 2.21.88 2.09 1.02z" fill="#263238"/><path opacity=".3" d="M108.88 421.93l-1 5.86-19.92-3.04.45-3.42 20.47.6z" fill="#000"/><path d="M108.97 421.79c-.01.08-.82.1-2.07-.3a9.22 9.22 0 01-2.07-.97c-.37-.23-.74-.49-1.1-.8-.17-.15-.38-.3-.56-.57-.19-.24-.25-.79.06-1.09.26-.29.65-.37.95-.34.31.03.54.13.76.22.44.18.85.39 1.22.62.74.47 1.32 1.01 1.73 1.52.83 1.02 1.06 1.82.98 1.85-.1.05-.48-.64-1.35-1.51-.44-.43-1-.9-1.7-1.3-.35-.2-.73-.38-1.14-.53-.42-.18-.79-.23-.93-.05-.05.07-.06.1.01.24.08.13.24.27.41.42.33.29.67.55 1.01.78.67.46 1.33.8 1.89 1.05 1.15.48 1.92.65 1.9.76z" fill="#263238"/><path d="M108.67 422.04c-.08.02-.38-.76-.27-2.08.06-.65.23-1.43.6-2.23.19-.4.42-.8.7-1.18.3-.37.67-.88 1.47-.86.41.04.71.41.78.7.1.3.09.54.11.79a4.767 4.767 0 01-1.37 3.4c-.96.96-1.83 1.08-1.84 1.01-.05-.11.7-.4 1.47-1.34.38-.46.74-1.1.93-1.85.09-.38.14-.78.13-1.2 0-.45-.12-.83-.29-.8-.21-.03-.6.25-.82.58-.26.34-.49.7-.67 1.05-.36.71-.58 1.41-.69 2.01-.24 1.2-.13 1.98-.24 2z" fill="#263238"/><path d="M112.04 422.69l15.26-94.97-34.25-2.09-6 97.03 24.99.03zM79.74 227.12l-41.36 5.32.39 10.19 3.78 181.14 26.24.36 12.66-154.26-1.71-42.75z" fill="#263238"/><path d="M100.71 222.97l26.59 104.75-32.9 6.01-14.29-49.65-11.92-55.24 32.52-5.87z" fill="#263238"/><path d="M69.81 234.14s.01.17 0 .49c-.01.34-.03.82-.05 1.44-.05 1.28-.13 3.14-.23 5.53-.22 4.8-.57 11.75-1.07 20.34-.97 17.17-2.63 40.88-4.36 67.06-.86 13.1-1.61 25.58-2.2 36.93-.16 2.84-.25 5.61-.46 8.3-.22 2.68-.43 5.29-.64 7.81-.4 5.04-.78 9.74-1.12 14.02-.67 8.57-1.19 15.51-1.51 20.31-.16 2.4-.27 4.26-.33 5.53-.03.63-.04 1.11-.04 1.44 0 .16.01.28.02.36.02.1.06-.01.06.01 0 0 0 .01-.01.03-.01.04-.07.01-.07-.03-.03-.08-.04-.2-.05-.37-.02-.32-.02-.81-.01-1.44.02-1.27.11-3.13.24-5.53.26-4.8.73-11.75 1.36-20.33.32-4.29.68-8.99 1.06-14.03.2-2.52.4-5.13.61-7.81.2-2.68.28-5.45.43-8.29.57-11.36 1.31-23.84 2.16-36.94 1.73-26.19 3.44-49.89 4.5-67.05.51-8.57.93-15.51 1.21-20.33.14-2.39.24-4.25.32-5.53.04-.62.07-1.1.09-1.44.06-.31.09-.48.09-.48zM84.28 239.75c.14.01-1.04 14.44-2.64 32.21-1.6 17.78-3.02 32.18-3.16 32.17-.14-.01 1.04-14.43 2.64-32.22 1.6-17.77 3.02-32.18 3.16-32.16z" fill="#455A64"/><path d="M97.61 346.87c-.14.04-4.17-13.99-9-31.32-4.83-17.34-8.64-31.43-8.5-31.47.14-.04 4.17 13.98 9 31.33 4.83 17.33 8.64 31.42 8.5 31.46zM57.72 233.46c.03-.01.14.33.24.96.1.63.14 1.56-.02 2.69s-.57 2.46-1.32 3.78c-.75 1.32-1.89 2.61-3.38 3.56-1.51.93-3.16 1.4-4.68 1.5-1.52.11-2.89-.1-3.98-.45-1.09-.35-1.92-.79-2.44-1.15-.52-.36-.78-.61-.76-.63.06-.1 1.15.84 3.3 1.43 2.09.59 5.4.65 8.28-1.14 2.86-1.82 4.25-4.82 4.62-6.96.4-2.19.02-3.59.14-3.59zM103.31 236.36c0 .05-.72.12-1.85-.12-1.13-.24-2.65-.86-4.02-2-1.37-1.14-2.27-2.52-2.71-3.58-.45-1.07-.52-1.79-.46-1.8.09-.02.28.65.8 1.64.51.99 1.41 2.25 2.71 3.34a11.17 11.17 0 003.78 2.04c1.06.32 1.76.39 1.75.48zM104.19 423.78s.01-.17.06-.48c.06-.34.13-.81.23-1.41.22-1.26.53-3.08.94-5.4l3.54-19.85a2901212.65 2901212.65 0 0011.98-66.12v.09c-4.56-25.43-10.44-48.07-15.28-64.25-2.41-8.1-4.51-14.6-6-19.08l-1.72-5.16c-.19-.57-.33-1.02-.44-1.34-.1-.3-.13-.46-.13-.46s.07.15.18.45c.12.32.28.76.49 1.33.42 1.17 1.05 2.89 1.81 5.13 1.55 4.46 3.7 10.95 6.16 19.04 4.93 16.17 10.88 38.81 15.44 64.27l.01.05-.01.05c-.04.2-.08.43-.12.65-4.69 25.54-8.93 48.67-12.01 65.44-1.56 8.35-2.82 15.12-3.7 19.82-.44 2.32-.79 4.13-1.03 5.39-.12.6-.21 1.06-.28 1.4-.07.28-.12.44-.12.44z" fill="#455A64"/><path d="M93.08 128.44s7.03 3.77 7.41 12.13c.2 4.49 1.25 20.46 1.25 20.46l11.53-10.78 11.69 18.97s-16.99 23.45-18.74 24.61c-1.75 1.17-8.84 4.19-11.95 2.68-3.11-1.51-1.19-68.07-1.19-68.07z" fill="#D5AC50"/><path d="M55.64 112.68l-3.47 8.97-20.81 13.1 10.5 66.01s-8.5 14.38-8.28 24.94c.05 2.49 4.8 6.74 4.8 6.74s22.86 1.64 40.08-.11c16.62-1.68 22.63-7.68 22.63-7.68l3.1-6.51-2.82-8.45-4.18-66.85s-1.54-11.32-4.12-14.41l-7.4-5.6-4.01-7.06-26.02-3.09z" fill="#D5AC50"/><path d="M85.69 122.83c.02 0 .04.3.04.86 0 .62 0 1.43.01 2.44-.02 2.18-.06 5.19-.1 8.82l-.01.51-.36-.37c-1.66-1.74-3.51-3.68-5.49-5.76l.42-.14c-.33 2.52-.68 5.25-1.05 8.08l-.05.39-.34-.2c-.37-.22-.77-.46-1.17-.7-6.96-4.22-13.27-8.04-17.9-10.85-2.23-1.38-4.06-2.51-5.39-3.34-.59-.38-1.07-.69-1.45-.93-.33-.22-.5-.34-.49-.35.01-.02.2.08.54.26.39.22.89.5 1.5.85 1.35.79 3.21 1.87 5.48 3.2 4.65 2.77 10.98 6.55 17.98 10.72.4.24.8.48 1.17.7l-.39.19c.38-2.84.74-5.56 1.08-8.08l.07-.52.35.38c1.97 2.1 3.8 4.05 5.44 5.81l-.36.14c.11-3.63.21-6.64.28-8.82.04-1.01.08-1.82.11-2.44.03-.55.05-.85.08-.85z" fill="#263238"/><path opacity=".3" d="M35.62 214.6c3.69.83 7.88 1.72 11.67 1.87 3.78.14 7.68-.44 10.98-2.3 2.38-1.34 4.36-3.28 6.43-5.08 5.5-4.79 11.75-8.63 17.96-12.45 3.34-2.06 6.68-4.11 10.02-6.17.85-.52 1.72-1.06 2.29-1.88.57-.82.76-1.98.18-2.79-.52-.73-1.53-.97-2.42-.83-.89.15-1.68.61-2.45 1.07-3.64 2.15-7.29 4.3-10.93 6.46-13.41 7.92-27.22 15.98-42.6 18.43l-1.13 3.67z" fill="#000"/><path d="M49.87 182.19c.08-.24.23-.44.43-.59l2.06-1.49c.33-.24.52-.63.49-1.04l-.6-9.61v-.09c.02-1.08.37-22.18-2.05-29.07-2.35-6.68-7.87-9.69-18.35-5.85-.26.09-2.66 1.9-2.8 2.14a22.463 22.463 0 00-3.24 10.99l-.63 22.64s-1.98 20.92-2.26 23.76c-.71 7.06 1.9 18.47 7.9 19.27 2.71.36 20.23-3.37 23.7-4.35.51-.14 2.42-2.32 2.42-2.85l2.09-21.59c.1-1.08-.73-2.03-1.81-2.06l-7.35-.21z" fill="#D5AC50"/><path d="M51.7 149.34c-.08.04-.71-1.08-1.94-2.76-1.22-1.67-3.1-3.85-5.54-5.86a32.964 32.964 0 00-6.82-4.32c-1.88-.88-3.1-1.29-3.07-1.38.01-.03.33.04.89.2.57.15 1.37.44 2.34.84 1.94.8 4.51 2.21 7 4.25 2.48 2.05 4.35 4.31 5.51 6.05.58.87 1.01 1.6 1.27 2.13.26.54.39.84.36.85zM52.79 151.63c.04 0 .08.46.13 1.29l.15 3.52c.11 2.97.21 7.08.3 11.61.04 2.26.07 4.42.1 6.4.05 1.95-.12 3.86-.98 5.17-.82 1.3-1.84 2.05-2.54 2.49-.72.43-1.18.56-1.19.54-.02-.04.4-.23 1.07-.71.66-.48 1.61-1.25 2.34-2.51.76-1.25.89-3.02.82-4.97-.05-1.98-.09-4.13-.15-6.39-.09-4.54-.14-8.64-.15-11.62.01-1.41.01-2.59.01-3.52.02-.84.05-1.3.09-1.3zM30.63 213.37c0-.02.21-.06.62-.11.46-.06 1.05-.14 1.78-.23 1.55-.2 3.78-.49 6.53-.95 2.75-.46 6-1.08 9.59-1.93l2.74-.68c.93-.25 1.91-.45 2.78-.85.89-.38 1.58-1.08 1.86-2.03.31-.94.34-1.99.46-3.05.41-4.23.81-8.26 1.17-11.94.18-1.83.36-3.57.52-5.21.08-.82.21-1.6.08-2.31-.1-.71-.57-1.25-1.22-1.37-.63-.14-1.31-.04-1.93-.02-.62.04-1.22.07-1.77.1-1.09.06-2.04.11-2.84.15-.73.03-1.33.05-1.79.07-.41.01-.63.01-.63-.01s.21-.05.62-.09c.46-.04 1.06-.1 1.79-.17.8-.07 1.75-.15 2.83-.24.56-.04 1.15-.09 1.77-.14.62-.03 1.29-.15 2.03-.01.36.07.75.25 1.03.56.28.3.44.7.51 1.1.15.8.01 1.61-.05 2.42-.15 1.64-.31 3.38-.48 5.21-.35 3.68-.73 7.71-1.13 11.94-.12 1.05-.14 2.12-.48 3.16-.17.52-.43 1.02-.81 1.42-.38.41-.85.7-1.32.91-.96.43-1.94.61-2.87.86-.94.23-1.86.45-2.76.66-3.6.82-6.88 1.41-9.64 1.82-2.76.41-5.01.65-6.56.79-.78.07-1.38.11-1.79.13-.42.05-.64.06-.64.04z" fill="#263238"/><path d="M41.2 192.5c-.06-.01-.02-.72.3-1.83.31-1.1.94-2.59 2.01-4 1.07-1.41 2.34-2.42 3.35-2.98 1.01-.56 1.7-.74 1.72-.69.09.14-2.62 1.2-4.66 3.98-2.07 2.73-2.55 5.58-2.72 5.52zM37.09 187.48c-.05-.03.33-.7 1.19-1.58.85-.88 2.24-1.93 3.99-2.64 1.75-.71 3.48-.93 4.7-.89 1.23.03 1.97.24 1.96.3-.01.09-.76 0-1.95.07-1.19.06-2.83.33-4.51 1.01a14.17 14.17 0 00-3.93 2.43c-.9.78-1.38 1.36-1.45 1.3zM85.45 215.51c0-.02.27-.03.79-.05.52-.02 1.29-.03 2.27-.1.98-.06 2.19-.17 3.55-.45 1.35-.29 2.9-.76 4.34-1.73a7.59 7.59 0 003.1-4.55c.48-1.99.37-4.22.33-6.55-.08-4.68-.18-9.82-.27-15.21-.15-10.77-.29-20.52-.39-27.64-.02-3.5-.04-6.34-.06-8.38 0-.95.01-1.71.01-2.28.01-.52.02-.79.04-.79s.04.27.07.79c.02.57.05 1.33.09 2.28.05 2.03.13 4.88.22 8.37l.54 27.64c.08 5.39.16 10.53.23 15.21.03 2.33.13 4.59-.39 6.67-.49 2.08-1.8 3.77-3.31 4.75-1.51 1-3.11 1.44-4.49 1.71-1.39.26-2.61.34-3.6.37-.99.03-1.76.02-2.28 0-.52-.02-.79-.04-.79-.06zM96.75 218.42c.01.03-.57.23-1.63.56-1.06.34-2.61.76-4.54 1.22-3.86.92-9.28 1.87-15.33 2.22-6.06.34-11.55.02-15.49-.45-1.97-.24-3.56-.48-4.65-.69-1.09-.21-1.69-.34-1.68-.37.01-.04.62.03 1.71.17 1.1.15 2.69.34 4.65.53 3.93.38 9.4.64 15.42.3 6.02-.35 11.42-1.23 15.28-2.06 1.93-.41 3.49-.78 4.56-1.06 1.09-.27 1.69-.4 1.7-.37zM83.41 213.66c-.02 0-.02-.3 0-.86.03-.61.06-1.42.1-2.45.1-2.18.24-5.24.41-9.01.32-7.6.65-18.12.33-29.72-.3-11.61-1.31-22.08-2.28-29.63-.5-3.77-.93-6.82-1.27-8.92-.15-1.02-.27-1.82-.36-2.42-.08-.56-.11-.85-.09-.85.02 0 .08.28.19.83.11.6.27 1.4.46 2.41.4 2.09.89 5.14 1.43 8.91 1.06 7.54 2.13 18.03 2.43 29.66.32 11.62-.07 22.15-.48 29.75-.21 3.8-.41 6.88-.58 9-.08 1.02-.15 1.84-.2 2.44-.03.57-.07.86-.09.86z" fill="#263238"/><path d="M52.31 162.13c-.03.04-.37-.22-1.06-.52-.7-.29-1.78-.56-3.13-.51-1.35.02-2.93.4-4.67.93-.87.25-1.79.53-2.77.74-.98.22-2.03.31-3.1.31-4.33-.08-7.88-2.19-9.83-4.13-1-.98-1.64-1.91-2.04-2.57-.38-.68-.55-1.07-.52-1.08.09-.06.82 1.53 2.82 3.38 1.97 1.82 5.43 3.8 9.59 3.87 2.06.04 3.98-.49 5.73-.99 1.75-.5 3.39-.86 4.8-.83 1.4 0 2.52.34 3.22.7.67.37.97.69.96.7zM44.07 183.2c.02.05-.43.15-1.02.67-.59.51-1.21 1.5-1.49 2.88-.16.69-.25 1.46-.41 2.3-.16.84-.4 1.72-.71 2.62-.64 1.81-1.63 3.7-3.02 5.42-2.77 3.5-6.53 5.4-9.29 6.14-1.39.38-2.56.53-3.36.59-.8.06-1.25.02-1.25-.01-.01-.1 1.79-.1 4.5-.93 2.69-.82 6.3-2.71 8.99-6.12 1.35-1.68 2.33-3.51 2.98-5.26.32-.88.57-1.73.74-2.54.17-.81.29-1.59.48-2.3.34-1.42 1.05-2.47 1.72-2.95.33-.25.62-.39.83-.45.19-.07.31-.07.31-.06zM56.11 204.26c-.02.02-.3-.12-.77-.46-.47-.34-1.1-.91-1.72-1.75-1.27-1.65-2.36-4.47-2.31-7.66.06-3.19.98-5.94 1.71-7.85.37-.96.71-1.72.95-2.24.25-.52.4-.8.43-.78.07.03-.38 1.21-1.04 3.14-.64 1.93-1.49 4.65-1.54 7.73-.05 3.08.94 5.8 2.09 7.44 1.14 1.68 2.27 2.35 2.2 2.43zM58.96 126.43c.03 0 .07.3.07.86 0 .55-.06 1.36-.25 2.33-.36 1.94-1.4 4.6-3.46 6.87-2.07 2.27-4.62 3.54-6.52 4.09-.95.28-1.75.41-2.3.46-.55.05-.86.04-.86.01-.01-.09 1.21-.19 3.04-.82 1.82-.62 4.26-1.9 6.25-4.09 1.99-2.18 3.04-4.73 3.49-6.6.47-1.89.45-3.12.54-3.11zM60.97 117.63c.04.15-1.68.56-3.28 1.94-1.63 1.35-2.32 2.98-2.46 2.91-.13-.02.39-1.86 2.13-3.31 1.71-1.47 3.61-1.67 3.61-1.54zM74.86 126.04c.12-.05.63 1.7-.02 3.76-.62 2.07-2.02 3.24-2.09 3.13-.12-.1 1.02-1.35 1.59-3.28.61-1.92.36-3.59.52-3.61zM85.03 128.21c-.14.05-.69-1.33-1.58-2.89-.89-1.57-1.79-2.73-1.68-2.83.1-.09 1.21.95 2.13 2.58.93 1.61 1.27 3.1 1.13 3.14zM82.71 153.37c0 .05-.49.08-1.32.34-.82.28-1.96.85-3.11 1.9-1.17 1.03-2.26 2.55-3.41 4.28-1.14 1.72-2.49 3.68-4.45 5.17a16.551 16.551 0 01-6.14 3.01c-2.05.54-3.97.64-5.56.51-1.59-.13-2.84-.48-3.68-.75-.83-.32-1.27-.53-1.26-.56.03-.11 1.84.76 4.97.94 1.56.08 3.43-.06 5.41-.61a16.69 16.69 0 005.94-2.95c1.9-1.44 3.2-3.31 4.38-5.03 1.17-1.72 2.32-3.26 3.56-4.29 1.21-1.05 2.43-1.6 3.29-1.82.44-.11.78-.15 1.01-.16.24-.01.37 0 .37.02zM99.07 159.24c.04.03-.49.74-1.61 1.59-1.11.85-2.88 1.78-5 2.22-2.12.43-4.11.26-5.47-.09-1.37-.35-2.13-.79-2.1-.84.03-.08.83.23 2.18.48 1.34.25 3.25.35 5.29-.06 2.04-.42 3.75-1.26 4.89-2.01 1.14-.75 1.75-1.36 1.82-1.29zM100.24 138.03c-.13.12-2.09-3.01-5.93-5.14-3.81-2.19-7.51-2.25-7.47-2.43 0-.06.91-.13 2.35.09 1.44.21 3.42.78 5.37 1.88 1.95 1.11 3.46 2.5 4.38 3.63.94 1.13 1.34 1.94 1.3 1.97zM82.49 204.71c0 .02-.17.1-.5.24-.33.15-.83.29-1.41.65-1.2.61-2.79 1.79-4.42 3.58-1.67 1.76-3.37 4.1-5.58 6.48-1.12 1.17-2.39 2.34-3.93 3.26-.4.2-.78.45-1.2.63-.43.16-.85.33-1.29.49-.89.26-1.82.42-2.77.47-3.83.15-7.24-1.23-10.24-2.34-2.99-1.19-5.74-2.09-8.14-2.38-2.39-.33-4.36-.02-5.63.42-1.27.44-1.89.9-1.92.84-.01-.01.14-.13.44-.32.3-.21.77-.46 1.41-.71 1.27-.51 3.29-.89 5.74-.6 2.45.25 5.27 1.13 8.26 2.29 3 1.09 6.37 2.41 10.04 2.26.91-.05 1.8-.2 2.64-.45.41-.16.82-.31 1.23-.47.4-.16.77-.4 1.15-.6 1.48-.87 2.73-2 3.84-3.15 2.19-2.33 3.94-4.66 5.66-6.41 1.69-1.78 3.34-2.94 4.6-3.51.6-.33 1.13-.45 1.47-.57.36-.07.55-.11.55-.1zM99.47 209.37c-.07.04-.67-.9-1.69-2.39-1.02-1.48-2.46-3.53-4.52-5.32-2.05-1.79-4.38-2.79-6.12-3.11-1.75-.34-2.88-.15-2.88-.24 0-.03.27-.11.78-.17.51-.06 1.26-.08 2.17.05 1.82.24 4.27 1.23 6.4 3.08 2.12 1.85 3.54 3.97 4.49 5.51.93 1.55 1.43 2.55 1.37 2.59zM81.19 220.97c.04.01.02.26-.03.73s-.19 1.13-.45 1.93c-.25.8-.66 1.72-1.21 2.68-.57.95-1.3 1.94-2.19 2.86-.91.91-1.88 1.66-2.82 2.25-.95.57-1.86 1-2.66 1.26-.79.27-1.45.43-1.92.48-.46.07-.72.08-.72.05-.02-.09 1-.26 2.51-.88.76-.3 1.62-.75 2.53-1.32.9-.59 1.83-1.33 2.71-2.21.86-.89 1.58-1.84 2.16-2.75.56-.92.99-1.79 1.27-2.56.58-1.52.73-2.53.82-2.52zM117.04 180.62c-.08.04-.53-1.01-1.6-2.47-1.06-1.45-2.83-3.29-5.25-4.58-2.42-1.3-4.93-1.76-6.72-1.84-1.81-.08-2.93.12-2.94.03-.01-.03.27-.12.77-.21.51-.1 1.25-.18 2.18-.18 1.84-.02 4.45.4 6.96 1.75s4.3 3.29 5.3 4.83c.51.77.85 1.44 1.05 1.91.2.47.28.75.25.76z" fill="#fff"/><path d="M160.31 126.96c-.25-.77-1.65-1.01-1.65-1.01l.31-.41c.44-.59.54-1.36.25-2.03-.04-.1-.09-.21-.15-.31-.42-.81-1.57-1.27-1.57-1.27s1.11-1.36.9-2.07c-.29-.94-1.77-2.2-3.1-2.05-1.44.17-4.58.95-6.78 1.63-.87.27-1.77-.3-1.9-1.19-.26-1.71-.79-4.35-1.81-6.29-1.11-2.11-2.54-2.27-3.42-2.12-.42.07-.68.5-.54.9.4 1.15 1.19 3.46 1.33 4.39.17 1.12-1.06 9.03-1.06 9.03l-1.89 4.04-5.99 6.75-19.1 16.7 10 16.23 17.51-22.04 1.18-1.5 4.13-4.47 2.63-2.51 8.86-3.35s1.75-1.97 1.61-2.69c-.14-.72-.79-1.19-.79-1.19l1.15-1.45c.01.01.14-.95-.11-1.72z" fill="#FFBE9D"/><path d="M158.27 122.141c0 .01-.06.04-.19.11-.15.07-.33.17-.55.28-.51.25-1.19.58-2.03.99-.87.41-1.89.9-3.03 1.44-.58.26-1.15.58-1.82.81-.65.23-1.48.3-2.13-.17-.32-.23-.52-.59-.6-.95-.08-.37-.05-.74.04-1.08.19-.7.7-1.22 1.2-1.6.52-.38 1.06-.65 1.55-.92.49-.26.96-.5 1.38-.73.83-.43 1.51-.78 2.01-1.04.22-.11.4-.2.55-.27.13-.06.2-.09.2-.08 0 .01-.06.05-.18.12-.14.08-.32.18-.53.31-.49.27-1.16.64-1.98 1.1-.42.23-.88.48-1.37.75-.49.27-1.02.54-1.52.92-.49.37-.96.86-1.12 1.51-.18.62-.07 1.41.49 1.82.28.2.62.29.96.3.34.01.67-.06.99-.16.63-.22 1.23-.54 1.8-.79 1.14-.52 2.17-1 3.04-1.4.85-.38 1.55-.7 2.06-.93.23-.1.41-.18.56-.24.14-.08.21-.1.22-.1z" fill="#EB996E"/><path d="M158.77 126.33c-.33.13-.73.28-1.22.47-1.03.4-2.45.93-4.05 1.47-.4.13-.79.27-1.16.35-.38.08-.75.09-1.08-.01-.67-.21-1.07-.81-1.13-1.33-.07-.53.13-.96.29-1.2.17-.25.32-.35.3-.36 0-.01-.04.02-.11.06-.06.05-.16.13-.26.25-.19.24-.43.68-.37 1.26.05.57.48 1.24 1.22 1.49.37.12.78.11 1.18.03.4-.08.79-.22 1.19-.36 1.6-.54 3.02-1.09 4.03-1.52.51-.22.92-.4 1.2-.53.28-.13.43-.21.42-.22 0-.01-.17.05-.45.15z" fill="#EB996E"/><path d="M159.03 130.04c-.32.07-.72.15-1.18.25-1 .22-2.37.53-3.89.88-.38.09-.75.19-1.1.23-.35.04-.7.02-.99-.11-.29-.13-.51-.35-.59-.62-.08-.26-.05-.54.03-.77.17-.46.52-.72.75-.87.24-.15.38-.22.37-.23 0-.01-.16.03-.41.17-.24.14-.63.39-.84.89-.1.25-.15.55-.06.87.09.32.35.59.67.74.33.15.71.18 1.09.14.38-.04.75-.14 1.12-.23 1.52-.36 2.89-.69 3.87-.94.46-.12.85-.22 1.17-.31.27-.08.43-.13.42-.14.01-.02-.15 0-.43.05z" fill="#EB996E"/><path d="M158.02 133.35c-.81-.03-1.93-.05-3.16-.06-.31 0-.61 0-.9-.01-.29 0-.57 0-.81-.06-.24-.06-.46-.18-.6-.34-.14-.17-.18-.37-.14-.55.09-.37.36-.58.55-.69.19-.11.32-.13.31-.14 0-.01-.13-.02-.35.07-.2.09-.53.3-.65.73-.05.21-.02.48.15.69.16.21.41.35.68.42.27.07.57.07.86.08.29 0 .59.01.9.01 1.23.01 2.35.01 3.16 0s1.31-.03 1.31-.06c0-.04-.5-.07-1.31-.09zM149.03 129.36c1.25.2 2.14.75 2.17.69.04-.03-.84-.69-2.14-.89-1.3-.22-2.34.12-2.31.17.01.06 1.03-.18 2.28.03z" fill="#EB996E"/><path d="M54.91 77.87l1.39 35.79 23.55 15.28 1.92-12.76-.01-4.25s10.17-1.09 10.77-11.18c.29-4.9.07-15.07-.23-24.23-.34-10.17-8.73-18.2-18.9-18.08-10.54.12-18.9 8.9-18.49 19.43z" fill="#FFBE9D"/><path d="M81.77 111.96s-6.41.22-12.99-4.36c0 0 2.77 7.41 12.89 6.98l.1-2.62z" fill="#EB996E"/><path d="M88.99 83.76c-.01.76-.66 1.38-1.46 1.39-.79 0-1.43-.61-1.42-1.37.01-.76.66-1.38 1.46-1.39.79-.01 1.43.6 1.42 1.37zM89.89 81.68c-.19.18-1.24-.68-2.79-.75-1.55-.09-2.73.65-2.88.45-.08-.09.12-.42.63-.76.5-.34 1.35-.65 2.32-.6.97.05 1.76.45 2.21.83.46.4.6.75.51.83zM74.29 83.71c-.01.76-.66 1.38-1.46 1.39-.8.01-1.43-.61-1.42-1.37.01-.76.66-1.38 1.46-1.39.79-.01 1.43.6 1.42 1.37zM74.63 81.25c-.19.18-1.24-.68-2.79-.75-1.55-.09-2.73.65-2.88.45-.08-.09.12-.42.63-.76.5-.34 1.35-.65 2.32-.6.97.05 1.76.45 2.21.83.45.4.6.75.51.83zM79.71 93.02c0-.09.97-.21 2.54-.34.4-.02.78-.08.86-.35.11-.28-.04-.72-.21-1.19-.33-.98-.67-2-1.03-3.07-1.42-4.37-2.43-7.96-2.26-8.02.18-.06 1.47 3.44 2.9 7.82.34 1.08.67 2.11.98 3.09.13.46.36.98.13 1.56-.12.29-.42.49-.68.55-.26.07-.48.06-.68.06-1.57.02-2.55-.02-2.55-.11zM75.1 93.88c.25 0 .18 1.68 1.56 2.94 1.38 1.27 3.19 1.16 3.19 1.4.02.11-.42.31-1.17.29-.74-.01-1.82-.3-2.67-1.07-.84-.77-1.18-1.77-1.2-2.46-.04-.71.17-1.12.29-1.1zM75.31 75.18c-.17.41-1.71.14-3.54.27-1.83.1-3.33.56-3.55.17-.1-.19.18-.57.79-.95.61-.38 1.56-.72 2.66-.79 1.1-.07 2.09.15 2.74.45.66.31.98.66.9.85zM89.53 77.16c-.29.34-1.34-.08-2.63-.15-1.28-.12-2.38.12-2.62-.26-.1-.18.09-.53.58-.84.48-.31 1.28-.54 2.16-.48.88.07 1.63.43 2.06.81.45.38.58.75.45.92z" fill="#263238"/><path d="M93.44 65.41c2.12-1.54 3.06-4.46 2.39-6.99-.67-2.53-2.83-4.56-5.36-5.24-2.53-.68-5.33-.06-7.45 1.49.03-1.2-.98-2.26-2.14-2.59-1.16-.33-2.41-.04-3.51.46a9.235 9.235 0 00-4.45 4.4c-1.09-1.74-3.18-2.79-5.23-2.64-2.05.15-3.96 1.49-4.79 3.37-.33.74-.5 1.55-.92 2.24-.42.69-1.4 1.14-2.33 1.14v.01c-1.28.01-2.62.76-3.77 1.51-1.66 1.08-3.91 4.11-3.87 7.39.07 7.28 2.34 11.01 2.55 17.99.01.46.04.95.3 1.34.67.99 2.25.5 3.16-.27 2.22-1.88 3.36-4.76 3.91-7.62.56-2.86.63-5.79 1.16-8.65.01-.06.02-.13.04-.2.22-1.2.73-2.31 1.44-3.27.86.56 1.7 1.15 2.63 1.58 3.32 1.52 7.6.53 9.92-2.29 2.28 1.8 5.2 2.76 8.09 2.67 2.9-.09 5.75-.72 7.92-2.64.41-.36.97-1 1.21-1.85.16-.56-.37-1.2-.9-1.34z" fill="#263238"/><path d="M58.09 82.77c-.17-.08-6.84-2.38-6.95 4.53-.11 6.91 6.86 5.59 6.87 5.4.02-.2.08-9.93.08-9.93z" fill="#FFBE9D"/><path d="M55.94 90.04c-.03-.02-.12.08-.33.17-.2.09-.54.15-.9 0-.73-.28-1.32-1.45-1.34-2.69-.01-.63.13-1.23.36-1.72.22-.5.55-.85.92-.91.37-.08.62.15.71.34.09.19.04.33.08.34.02.02.15-.11.1-.4-.03-.14-.1-.3-.27-.44-.16-.14-.41-.21-.66-.19-.53.03-1.02.51-1.27 1.05-.28.54-.46 1.21-.45 1.92.02 1.39.72 2.71 1.71 3.01.48.13.89-.01 1.1-.17.23-.14.26-.29.24-.31z" fill="#EB996E"/><path d="M52.59 76.31c-.02-.08.74-.32 1.86-.9 1.12-.58 2.58-1.57 3.87-2.99 1.29-1.43 2.13-2.98 2.59-4.15.47-1.17.63-1.95.71-1.94.05.01.02.82-.37 2.06-.39 1.24-1.21 2.89-2.55 4.37-1.34 1.48-2.9 2.46-4.1 2.97-1.2.53-2 .64-2.01.58zM63.84 68.71c.05.01-.01.9-.52 2.24-.49 1.33-1.52 3.08-3.11 4.59-1.6 1.5-3.41 2.4-4.78 2.81-1.37.41-2.26.42-2.26.37-.01-.09.85-.23 2.14-.72 1.29-.48 3-1.4 4.54-2.84 1.54-1.45 2.56-3.09 3.13-4.35.58-1.27.77-2.12.86-2.1zM87.82 65.05c-.07.06-.47-.44-1.3-.98-.82-.54-2.14-1.08-3.64-1-1.5.09-2.75.77-3.5 1.4-.77.63-1.11 1.17-1.19 1.12-.05-.02.19-.65.94-1.4.74-.74 2.07-1.55 3.72-1.64 1.65-.09 3.07.57 3.88 1.22.83.65 1.13 1.25 1.09 1.28zM92.28 54.25c-.01.09-1-.34-2.71-.07-.84.14-1.85.5-2.76 1.25-.91.74-1.71 1.88-2.04 3.28l-.1.45-.3-.35a5.785 5.785 0 00-3.29-1.91 5.444 5.444 0 00-4.09.75c-1.45.93-2.4 2.48-2.62 4l-.08.54-.36-.41c-1.23-1.4-2.99-2.08-4.54-2.14-1.57-.07-2.92.5-3.86 1.16-.95.67-1.52 1.43-1.86 1.97-.34.54-.47.87-.5.86-.02-.01.05-.36.35-.94s.85-1.4 1.82-2.14c.95-.73 2.37-1.38 4.06-1.33 1.66.03 3.54.73 4.9 2.24l-.44.13c.22-1.67 1.25-3.35 2.83-4.37a5.9 5.9 0 014.48-.8c1.46.29 2.71 1.1 3.54 2.11l-.4.09a6.3 6.3 0 012.25-3.47 6.08 6.08 0 012.96-1.22c.89-.11 1.6-.01 2.06.1.47.08.7.2.7.22z" fill="#455A64"/><path d="M120.88 155.38l-6.89 3.19-3.24 3.29s7.53-.89 7.73.37c.2 1.26.23 2.7-.27 3.1-.5.4-1.23 1.58-1.23 1.58s1.81 2.02 1.11 3.05c-.69 1.03-1.1 2.09-1.1 2.09l-1.08-.09s.12 3.92-.7 4.45c-.82.53-.67.54-1.77.76-1.11.21-3.44.32-3.44.32l-1.23-.11s-6.46 8.13-8.77 7.92c-2.31-.2-6.57-.27-6.57-.27l-36.2 21.04 1.65-18.82.22-3.44L94.66 171l12.64-14.1 5.92-2.9 8.62-1.89s.73 1.92-.96 3.27z" fill="#FFBE9D"/><path d="M93.43 185.02c0-.01.11-.02.33-.02.25 0 .57.01.97.01.89.02 2.14.06 3.72.1.4.01.83.03 1.28.04.46.05.84-.04 1.28-.28.84-.45 1.64-1.15 2.47-1.92 1.64-1.56 3.36-3.5 5.14-5.71l.07-.08.11.01c.38.03.8.07 1.23.1H110c.75-.04 1.52-.09 2.31-.18.39-.04.79-.09 1.18-.17.41-.09.78-.14 1.09-.36l.53-.35c.09-.07.19-.23.25-.42.13-.37.2-.79.24-1.21.09-.85.11-1.74.09-2.62l-.01-.27.26.02c.33.03.7.06 1.08.09l-.25.15c.18-.45.38-.87.61-1.29.19-.42.6-.86.62-1.17.03-.39-.15-.84-.38-1.24a7.3 7.3 0 00-.83-1.17l-.12-.14.1-.15c.28-.45.58-.88.94-1.3.09-.1.19-.21.3-.31.09-.09.12-.12.17-.23.09-.19.13-.44.16-.69.04-.5.01-1.03-.05-1.56l-.06-.4c-.02-.07-.02-.08-.11-.15-.17-.11-.43-.17-.68-.22-2.11-.28-4.4-.04-6.65.18l-.72.07.5-.51.12-.12c1.05-1.07 2.09-2.12 3.12-3.16l.03-.03.04-.02c2.36-1.09 4.66-2.15 6.9-3.18l-.05.03c.93-.69 1.24-1.96.89-2.99l.28.15c-3.02.66-5.91 1.28-8.62 1.87l.05-.02c-2.1 1.02-4.08 1.98-5.93 2.87l.06-.05c-3.88 4.27-7.06 7.77-9.29 10.23-1.09 1.18-1.95 2.12-2.57 2.79-.28.29-.51.53-.68.72-.16.16-.24.24-.25.23-.01-.01.06-.1.2-.27.17-.2.38-.45.64-.76.6-.69 1.43-1.65 2.49-2.86 2.21-2.49 5.34-6.03 9.16-10.35l.03-.03.04-.02c1.85-.91 3.82-1.89 5.91-2.92l.02-.01.03-.01c2.71-.6 5.59-1.24 8.61-1.91l.22-.05.07.2c.21.64.24 1.29.06 1.93-.16.64-.58 1.21-1.09 1.63l-.02.02-.03.01c-2.23 1.04-4.54 2.1-6.89 3.19l.08-.05c-1.03 1.04-2.07 2.1-3.12 3.17l-.12.12-.22-.44c1.15-.13 2.28-.22 3.42-.27 1.13-.04 2.25-.08 3.39.1.28.06.57.11.87.29.15.08.32.3.34.5l.06.41c.06.55.1 1.1.05 1.67-.03.28-.07.57-.21.86-.05.14-.2.31-.31.39-.08.07-.17.16-.25.25-.33.38-.62.81-.89 1.23l-.03-.3c.34.4.64.81.89 1.26.24.45.47.94.43 1.53-.02.3-.21.6-.33.76-.13.2-.24.4-.36.6-.22.4-.42.82-.59 1.23l-.07.17-.18-.02c-.37-.03-.75-.07-1.08-.1l.26-.24c.01.92-.01 1.81-.11 2.69-.06.44-.12.88-.28 1.32-.08.21-.18.45-.43.64l-.53.35c-.39.28-.86.34-1.25.42-.41.08-.82.13-1.22.17-.8.08-1.58.12-2.34.16h-.02c-.43-.04-.86-.08-1.23-.11l.18-.08c-1.81 2.22-3.56 4.14-5.24 5.7-.85.77-1.67 1.46-2.56 1.93-.23.11-.46.21-.7.26-.25.07-.51.03-.72.02-.44-.02-.87-.04-1.27-.06-1.57-.09-2.81-.16-3.7-.2-.4-.03-.72-.05-.97-.07-.22 0-.33-.01-.33-.02z" fill="#EB996E"/><path d="M117.03 166.75c-.05.06-.44-.22-1.13-.45-.69-.24-1.72-.4-2.84-.27-1.12.13-2.12.44-2.85.65-.73.22-1.19.34-1.22.27-.03-.07.39-.3 1.09-.61.71-.3 1.72-.69 2.92-.83s2.32.09 3.03.45c.73.34 1.04.74 1 .79zM115.95 172.14c-.06 0 .04-.52-.52-.88-.54-.32-1.6-.33-2.65-.26-2.17.18-3.72 1.2-3.79 1.06-.11-.09 1.4-1.38 3.74-1.58.57-.05 1.12-.03 1.62.03.49.06.97.18 1.3.45.33.27.44.62.44.85-.02.24-.11.34-.14.33zM112.48 174.95c.02.07-.31.21-.85.27-.54.07-1.29.03-1.98.26-.7.24-1.11.81-1.07 1.27 0 .47.27.7.22.76-.01.07-.46-.08-.59-.72-.06-.3 0-.71.23-1.04.23-.34.6-.61 1.03-.76.86-.28 1.63-.16 2.15-.14.52.04.85.03.86.1z" fill="#EB996E"/><path opacity=".3" d="M90.23 215.16c-12.86 2.07-26.26 1.45-39.09-.79-1.17-.2-2.67-.28-3.23.77-.37.71-.06 1.62.52 2.17.58.55 1.37.8 2.14 1.01 5.57 1.52 11.44 1.42 17.22 1.16 10.65-.47 21.41-2.49 31.38-6.14l-8.94 1.82zM48.56 182.38c-5.02-1.67-10.9-.4-14.78 3.18-.49.45-.99 1.08-.8 1.73.14.47.63.77 1.12.82.49.05.97-.1 1.43-.27 2.28-.86 4.28-2.31 6.41-3.49 2.13-1.18 4.54-2.12 6.95-1.79" fill="#000"/><path d="M191.641 45.066a2.794 2.794 0 01-1.595-.473c-.462-.315-.825-.766-1.089-1.353-.257-.594-.385-1.29-.385-2.09 0-.8.128-1.492.385-2.08.264-.593.627-1.048 1.089-1.363a2.794 2.794 0 011.595-.473c.594 0 1.122.158 1.584.473.469.315.836.77 1.1 1.364.264.587.396 1.28.396 2.079 0 .8-.132 1.496-.396 2.09-.264.587-.631 1.038-1.1 1.353-.462.315-.99.473-1.584.473zm0-.726c.447 0 .839-.125 1.177-.374.344-.25.612-.612.803-1.09.19-.476.286-1.051.286-1.726s-.096-1.25-.286-1.727c-.191-.477-.459-.84-.803-1.09a1.929 1.929 0 00-1.177-.373c-.448 0-.844.125-1.188.374-.338.25-.602.612-.792 1.089-.191.477-.286 1.052-.286 1.727s.095 1.25.286 1.727c.19.477.454.84.792 1.089.344.25.74.374 1.188.374zM197.967 37.3V45h-.792v-6.996h-1.815V37.3h2.607zM262.453 45.066a2.796 2.796 0 01-1.595-.473c-.462-.315-.825-.766-1.089-1.353-.256-.594-.385-1.29-.385-2.09 0-.8.129-1.492.385-2.08.264-.593.627-1.048 1.089-1.363a2.796 2.796 0 011.595-.473c.594 0 1.122.158 1.584.473.47.315.836.77 1.1 1.364.264.587.396 1.28.396 2.079 0 .8-.132 1.496-.396 2.09-.264.587-.63 1.038-1.1 1.353-.462.315-.99.473-1.584.473zm0-.726c.448 0 .84-.125 1.177-.374.345-.25.613-.612.803-1.09.191-.476.286-1.051.286-1.726s-.095-1.25-.286-1.727c-.19-.477-.458-.84-.803-1.09a1.925 1.925 0 00-1.177-.373c-.447 0-.843.125-1.188.374-.337.25-.601.612-.792 1.089-.19.477-.286 1.052-.286 1.727s.096 1.25.286 1.727c.191.477.455.84.792 1.089.345.25.741.374 1.188.374zM269.178 40.6c.807.044 1.419.264 1.837.66.425.389.638.898.638 1.529 0 .44-.106.832-.319 1.177-.213.337-.528.605-.946.803-.418.198-.928.297-1.529.297a4.727 4.727 0 01-1.584-.264c-.491-.183-.887-.425-1.188-.726l.385-.627c.257.264.598.48 1.023.649.425.161.88.242 1.364.242.631 0 1.118-.136 1.463-.407.345-.279.517-.66.517-1.144 0-.477-.172-.85-.517-1.122-.345-.271-.865-.407-1.562-.407h-.55v-.583l2.134-2.673h-3.938V37.3h4.95v.56l-2.178 2.74zM293.111 45.066a2.796 2.796 0 01-1.595-.473c-.462-.315-.825-.766-1.089-1.353-.256-.594-.385-1.29-.385-2.09 0-.8.129-1.492.385-2.08.264-.593.627-1.048 1.089-1.363a2.796 2.796 0 011.595-.473c.594 0 1.122.158 1.584.473.47.315.836.77 1.1 1.364.264.587.396 1.28.396 2.079 0 .8-.132 1.496-.396 2.09-.264.587-.63 1.038-1.1 1.353-.462.315-.99.473-1.584.473zm0-.726c.448 0 .84-.125 1.177-.374.345-.25.613-.612.803-1.09.191-.476.286-1.051.286-1.726s-.095-1.25-.286-1.727c-.19-.477-.458-.84-.803-1.09a1.925 1.925 0 00-1.177-.373c-.447 0-.843.125-1.188.374-.337.25-.601.612-.792 1.089-.19.477-.286 1.052-.286 1.727s.096 1.25.286 1.727c.191.477.455.84.792 1.089.345.25.741.374 1.188.374zM303.871 42.976h-1.54V45h-.792v-2.024h-4.345v-.572l4.081-5.104h.88l-3.938 4.972h3.344V40.49h.77v1.782h1.54v.704zM327.819 45.066a2.796 2.796 0 01-1.595-.473c-.462-.315-.825-.766-1.089-1.353-.256-.594-.385-1.29-.385-2.09 0-.8.129-1.492.385-2.08.264-.593.627-1.048 1.089-1.363a2.796 2.796 0 011.595-.473c.594 0 1.122.158 1.584.473.47.315.836.77 1.1 1.364.264.587.396 1.28.396 2.079 0 .8-.132 1.496-.396 2.09-.264.587-.63 1.038-1.1 1.353-.462.315-.99.473-1.584.473zm0-.726c.448 0 .84-.125 1.177-.374.345-.25.613-.612.803-1.09.191-.476.286-1.051.286-1.726s-.095-1.25-.286-1.727c-.19-.477-.458-.84-.803-1.09a1.925 1.925 0 00-1.177-.373c-.447 0-.843.125-1.188.374-.337.25-.601.612-.792 1.089-.19.477-.286 1.052-.286 1.727s.096 1.25.286 1.727c.191.477.455.84.792 1.089.345.25.741.374 1.188.374zM334.058 40.457c1.114 0 1.925.202 2.431.605.513.396.77.953.77 1.672 0 .447-.107.847-.319 1.199-.206.352-.517.63-.935.836-.418.198-.932.297-1.54.297-.55 0-1.075-.088-1.573-.264-.492-.183-.888-.425-1.188-.726l.385-.627c.256.264.594.48 1.012.649.418.161.869.242 1.353.242.638 0 1.129-.143 1.474-.43.352-.285.528-.666.528-1.143 0-.528-.198-.928-.594-1.2-.389-.27-1.049-.406-1.98-.406h-1.639l.396-3.861h4.213v.704h-3.52l-.264 2.453h.99zM361.486 45.066a2.794 2.794 0 01-1.595-.473c-.463-.315-.825-.766-1.09-1.353-.256-.594-.384-1.29-.384-2.09 0-.8.128-1.492.384-2.08.265-.593.627-1.048 1.09-1.363a2.794 2.794 0 011.595-.473c.593 0 1.121.158 1.584.473.469.315.835.77 1.099 1.364.264.587.396 1.28.396 2.079 0 .8-.132 1.496-.396 2.09-.264.587-.63 1.038-1.099 1.353a2.748 2.748 0 01-1.584.473zm0-.726c.447 0 .839-.125 1.176-.374.345-.25.613-.612.803-1.09.191-.476.286-1.051.286-1.726s-.095-1.25-.286-1.727c-.19-.477-.458-.84-.803-1.09a1.924 1.924 0 00-1.176-.373c-.448 0-.844.125-1.188.374-.338.25-.602.612-.793 1.089-.19.477-.286 1.052-.286 1.727s.096 1.25.286 1.727c.191.477.455.84.793 1.089.344.25.74.374 1.188.374zM368.89 40.39c.506 0 .953.096 1.342.287.396.19.704.462.924.814.22.345.33.748.33 1.21 0 .47-.114.884-.341 1.243-.228.36-.543.638-.946.836-.396.19-.844.286-1.342.286-1.02 0-1.801-.334-2.343-1.001-.543-.675-.814-1.624-.814-2.85 0-.857.146-1.583.44-2.177.293-.594.704-1.041 1.232-1.342.528-.308 1.144-.462 1.848-.462.762 0 1.371.14 1.826.418l-.319.638c-.367-.242-.866-.363-1.496-.363-.851 0-1.518.271-2.002.814-.484.535-.726 1.316-.726 2.343 0 .183.011.392.033.627.19-.418.495-.74.913-.968.418-.235.898-.352 1.441-.352zm-.066 4.005c.557 0 1.008-.15 1.353-.451.352-.308.528-.715.528-1.221 0-.506-.176-.91-.528-1.21-.345-.3-.814-.451-1.408-.451-.389 0-.734.073-1.034.22a1.733 1.733 0 00-.693.605 1.526 1.526 0 00-.253.858c0 .293.077.565.231.814.161.25.396.45.704.605.308.154.674.23 1.1.23zM395.624 45.066a2.796 2.796 0 01-1.595-.473c-.462-.315-.825-.766-1.089-1.353-.256-.594-.385-1.29-.385-2.09 0-.8.129-1.492.385-2.08.264-.593.627-1.048 1.089-1.363a2.796 2.796 0 011.595-.473c.594 0 1.122.158 1.584.473.47.315.836.77 1.1 1.364.264.587.396 1.28.396 2.079 0 .8-.132 1.496-.396 2.09-.264.587-.63 1.038-1.1 1.353-.462.315-.99.473-1.584.473zm0-.726c.448 0 .84-.125 1.177-.374.345-.25.612-.612.803-1.09.191-.476.286-1.051.286-1.726s-.095-1.25-.286-1.727c-.191-.477-.458-.84-.803-1.09a1.925 1.925 0 00-1.177-.373c-.447 0-.843.125-1.188.374-.337.25-.601.612-.792 1.089-.191.477-.286 1.052-.286 1.727s.095 1.25.286 1.727c.191.477.455.84.792 1.089.345.25.741.374 1.188.374zM405.186 37.3v.56L401.963 45h-.858l3.168-6.996h-3.96v1.44h-.781V37.3h5.654zM432.33 45.066a2.796 2.796 0 01-1.595-.473c-.462-.315-.825-.766-1.089-1.353-.256-.594-.385-1.29-.385-2.09 0-.8.129-1.492.385-2.08.264-.593.627-1.048 1.089-1.363a2.796 2.796 0 011.595-.473c.594 0 1.122.158 1.584.473.47.315.836.77 1.1 1.364.264.587.396 1.28.396 2.079 0 .8-.132 1.496-.396 2.09-.264.587-.63 1.038-1.1 1.353-.462.315-.99.473-1.584.473zm0-.726c.448 0 .84-.125 1.177-.374.345-.25.613-.612.803-1.09.191-.476.286-1.051.286-1.726s-.095-1.25-.286-1.727c-.19-.477-.458-.84-.803-1.09a1.925 1.925 0 00-1.177-.373c-.447 0-.843.125-1.188.374-.337.25-.601.612-.792 1.089-.19.477-.286 1.052-.286 1.727s.096 1.25.286 1.727c.191.477.455.84.792 1.089.345.25.741.374 1.188.374zM440.955 40.963c.484.161.855.403 1.111.726.264.323.396.711.396 1.166 0 .447-.121.84-.363 1.177-.242.33-.59.587-1.045.77-.447.176-.975.264-1.584.264-.924 0-1.65-.198-2.178-.594-.528-.396-.792-.935-.792-1.617 0-.462.125-.85.374-1.166.257-.323.627-.565 1.111-.726-.396-.154-.696-.374-.902-.66a1.76 1.76 0 01-.308-1.034c0-.623.242-1.118.726-1.485.492-.367 1.148-.55 1.969-.55.543 0 1.016.084 1.419.253.411.161.73.396.957.704.228.308.341.667.341 1.078 0 .396-.106.74-.319 1.034-.212.286-.517.506-.913.66zm-3.388-1.672c0 .425.169.763.506 1.012.338.25.803.374 1.397.374s1.06-.125 1.397-.374c.345-.25.517-.583.517-1.001 0-.433-.176-.774-.528-1.023-.344-.25-.806-.374-1.386-.374-.586 0-1.052.125-1.397.374-.337.25-.506.587-.506 1.012zm1.903 5.104c.682 0 1.214-.14 1.595-.418.389-.279.583-.656.583-1.133s-.194-.85-.583-1.122c-.381-.279-.913-.418-1.595-.418-.674 0-1.206.14-1.595.418-.381.271-.572.645-.572 1.122 0 .484.191.865.572 1.144.382.271.913.407 1.595.407zM466.78 45.066a2.796 2.796 0 01-1.595-.473c-.462-.315-.825-.766-1.089-1.353-.256-.594-.385-1.29-.385-2.09 0-.8.129-1.492.385-2.08.264-.593.627-1.048 1.089-1.363a2.796 2.796 0 011.595-.473c.594 0 1.122.158 1.584.473.47.315.836.77 1.1 1.364.264.587.396 1.28.396 2.079 0 .8-.132 1.496-.396 2.09-.264.587-.63 1.038-1.1 1.353-.462.315-.99.473-1.584.473zm0-.726c.448 0 .84-.125 1.177-.374.345-.25.613-.612.803-1.09.191-.476.286-1.051.286-1.726s-.095-1.25-.286-1.727c-.19-.477-.458-.84-.803-1.09a1.925 1.925 0 00-1.177-.373c-.447 0-.843.125-1.188.374-.337.25-.601.612-.792 1.089-.19.477-.286 1.052-.286 1.727s.096 1.25.286 1.727c.191.477.455.84.792 1.089.345.25.741.374 1.188.374zM473.393 37.234c1.019 0 1.8.337 2.343 1.012.542.667.814 1.613.814 2.838 0 .858-.147 1.584-.44 2.178-.294.594-.704 1.045-1.232 1.353-.528.3-1.144.45-1.848.45-.763 0-1.372-.138-1.826-.417l.319-.638c.366.242.865.363 1.496.363.85 0 1.518-.268 2.002-.803.484-.543.726-1.327.726-2.354 0-.19-.011-.4-.033-.627a2.107 2.107 0 01-.913.979c-.418.227-.899.34-1.441.34a3.08 3.08 0 01-1.353-.285 2.21 2.21 0 01-.913-.803 2.255 2.255 0 01-.33-1.221c0-.47.113-.884.341-1.243a2.22 2.22 0 01.935-.825 3.027 3.027 0 011.353-.297zm.088 4.004c.388 0 .729-.073 1.023-.22.3-.147.535-.348.704-.605.168-.257.253-.543.253-.858 0-.293-.081-.565-.242-.814a1.66 1.66 0 00-.693-.605c-.308-.154-.675-.231-1.1-.231-.558 0-1.012.154-1.364.462-.345.3-.517.704-.517 1.21s.172.91.517 1.21c.352.3.825.45 1.419.45zM499.984 37.3V45h-.792v-6.996h-1.815V37.3h2.607zM504.894 45.066a2.794 2.794 0 01-1.595-.473c-.462-.315-.825-.766-1.089-1.353-.257-.594-.385-1.29-.385-2.09 0-.8.128-1.492.385-2.08.264-.593.627-1.048 1.089-1.363a2.794 2.794 0 011.595-.473c.594 0 1.122.158 1.584.473.469.315.836.77 1.1 1.364.264.587.396 1.28.396 2.079 0 .8-.132 1.496-.396 2.09-.264.587-.631 1.038-1.1 1.353-.462.315-.99.473-1.584.473zm0-.726c.447 0 .839-.125 1.177-.374.344-.25.612-.612.803-1.09.19-.476.286-1.051.286-1.726s-.096-1.25-.286-1.727c-.191-.477-.459-.84-.803-1.09a1.929 1.929 0 00-1.177-.373c-.448 0-.844.125-1.188.374-.338.25-.602.612-.792 1.089-.191.477-.286 1.052-.286 1.727s.095 1.25.286 1.727c.19.477.454.84.792 1.089.344.25.74.374 1.188.374zM537.152 37.3V45h-.792v-6.996h-1.815V37.3h2.607zM541.127 37.3V45h-.792v-6.996h-1.815V37.3h2.607zM571.011 37.3V45h-.792v-6.996h-1.815V37.3h2.607zM578.11 44.296V45h-5.401v-.561l3.201-3.135c.403-.396.675-.737.814-1.023.147-.293.22-.587.22-.88 0-.455-.158-.807-.473-1.056-.308-.257-.752-.385-1.331-.385-.902 0-1.602.286-2.101.858l-.561-.484a2.965 2.965 0 011.144-.814c.469-.19.997-.286 1.584-.286.785 0 1.404.187 1.859.56.462.368.693.874.693 1.519 0 .396-.088.777-.264 1.144-.176.367-.51.788-1.001 1.265l-2.618 2.574h4.235z" fill="#000"/><path d="M225.909 45.066a2.794 2.794 0 01-1.595-.473c-.462-.315-.825-.766-1.089-1.353-.257-.594-.385-1.29-.385-2.09 0-.799.128-1.492.385-2.079.264-.594.627-1.048 1.089-1.364a2.793 2.793 0 011.595-.473c.594 0 1.122.158 1.584.473.469.316.836.77 1.1 1.364.264.587.396 1.28.396 2.08 0 .799-.132 1.495-.396 2.09-.264.586-.631 1.037-1.1 1.352-.462.316-.99.473-1.584.473zm0-.726c.447 0 .84-.124 1.177-.374.345-.249.612-.612.803-1.089.191-.476.286-1.052.286-1.727 0-.674-.095-1.25-.286-1.727-.191-.476-.458-.84-.803-1.089a1.926 1.926 0 00-1.177-.374c-.447 0-.843.125-1.188.374-.337.25-.601.613-.792 1.09-.191.476-.286 1.052-.286 1.726 0 .675.095 1.25.286 1.727.191.477.455.84.792 1.09.345.249.741.373 1.188.373zM235.36 44.296V45h-5.401v-.56l3.201-3.136c.403-.396.674-.737.814-1.023.146-.293.22-.586.22-.88 0-.454-.158-.806-.473-1.056-.308-.256-.752-.385-1.331-.385-.902 0-1.603.286-2.101.858l-.561-.484c.3-.352.682-.623 1.144-.814.469-.19.997-.286 1.584-.286.784 0 1.404.187 1.859.561.462.367.693.873.693 1.518 0 .396-.088.778-.264 1.144-.176.367-.51.789-1.001 1.265l-2.618 2.574h4.235z" fill="#fff"/></g><defs><clipPath id="clip0"><path fill="#fff" d="M0 0h713.8v444.78H0z"/></clipPath></defs></svg>