<svg width="547" height="505" fill="none" xmlns="http://www.w3.org/2000/svg"><g clip-path="url(#clip0)"><path d="M26.79 402.549a35.057 35.057 0 00-15.035-5.17c-2.453-.25-5.145-.175-7.11 1.302-.414.313-.827.789-.727 1.302.063.375.389.651.702.889 6.109 4.657 15.36 5.245 22.17 1.677zM26.402 402.124c-3.405-2.654-6.823-5.333-9.715-8.538-2.879-3.217-5.22-7.023-6.084-11.254-.263-1.277-.338-2.754.476-3.768 7.75 6.034 13.82 13.846 15.323 23.56z" fill="#E0E0E0"/><path d="M26.702 402.486c-.589-4.231-.79-8.587.175-12.744.976-4.156 3.242-8.149 6.785-10.515 1.34 3.129.764 6.722-.175 9.99a48.523 48.523 0 01-6.735 14.171M34.29 416.082c-4.608.563-8.614 2.992-12.056 6.096a22.803 22.803 0 00-6.898 11.843c4.52-.276 8.35-3.468 11.13-7.036 2.778-3.567 4.706-7.486 7.76-10.828M35.941 418.259c-3.705-9.138-2.366-20.142 3.43-28.129 2.63 9.326 1.666 19.88-3.43 28.129zM45.97 430.191a21.595 21.595 0 00-12.056 2.829 21.618 21.618 0 00-8.5 9.013c-.251.514-.476 1.152-.138 1.615.3.401.863.438 1.364.401 4.056-.263 7.637-2.704 10.603-5.471 2.968-2.779 5.546-5.984 8.814-8.387M45.643 429.539a38.381 38.381 0 01-.388-21.394c.751-2.755 2.016-5.646 4.57-6.948.212-.113.475-.213.7-.126.214.088.339.301.439.514.901 1.89 1.164 4.043 1.076 6.134-.087 2.091-.525 4.156-.963 6.209-.802 3.793-1.227 7.874-3.305 11.154a24.37 24.37 0 00-1.328 2.454c-.388.826-.4 1.127-.763 1.79M72.183 433.495c-1.965-7.474.126-16.55 4.833-22.671.35-.451.8-.939 1.377-.889.864.075 1.089 1.239 1.051 2.103a40.952 40.952 0 01-7.26 21.457zM74.574 435.136c9.089 2.366 19.504.062 27.066-5.509-4.482-2.265-9.752-2.916-14.647-1.802-4.895 1.126-9.377 3.317-12.419 7.311zM76.589 430.152c5.082-8.3 14.847-13.708 24.562-14.209-1.115 3.956-4.37 7.023-8.037 8.889-3.668 1.852-7.762 2.666-11.793 3.442-1.565.313-3.718.639-4.732 1.878zM72.683 405.991c1.378-4.719 2.767-9.476 3.143-14.384.375-4.907-.326-10.027-2.867-14.233-4.757 9.201-5.233 19.942-.413 29.106M88.694 397.904c5.559-10.103 16.901-18.178 28.38-19.304-4.431 11.016-16.512 19.541-28.38 19.304zM85.19 399.883c8.288 1.264 15.348 6.559 23.097 9.764 1.653.689 3.443 1.24 5.221 1.002 1.777-.238 3.53-1.427 3.931-3.18.325-1.452-.326-2.992-1.377-4.056-1.039-1.064-2.416-1.728-3.794-2.304-8.437-3.517-17.488-3.605-26.377-1.464" fill="#E0E0E0"/><path d="M80.394 405.692c1.878.538 2.517 1.515 4.006 2.779a43.325 43.325 0 0017.514 9.001c.664.163 1.553.238 1.878-.376.288-.526-.075-1.164-.451-1.64-2.691-3.367-6.534-5.671-10.578-7.185-4.044-1.503-7.549-3.318-12.369-2.93M74.987 370.575c6.735 6.297 16.237 9.527 25.413 8.65.413-.037.877-.1 1.152-.413.639-.701-.125-1.765-.876-2.353-7.461-5.822-16.513-8.238-25.689-5.884z" fill="#E0E0E0"/><path d="M81.397 368.235c8.913-6.685 21.131-8.7 31.709-5.232-3.993 3.93-9.539 6.059-15.11 6.634-5.57.576-11.154-.037-16.6-1.402zM78.855 352.098c-.738-7.461-.263-13.345-.776-20.843-.037-.601-.175-1.315-.726-1.54-.776-.301-1.427.663-1.69 1.452-2.216 6.91-1.002 14.835 3.18 20.756" fill="#E0E0E0"/><path d="M78.316 352.924c5.058-3.13 8.851-7.211 12.356-12.006 2.442-3.342 4.495-7.336 3.944-11.442-3.43-.062-6.685 1.828-8.913 4.432-2.229 2.604-3.556 5.859-4.545 9.138-.989 3.28-1.69 6.648-2.842 9.878zM90.448 349.544a99.748 99.748 0 0030.408-17.927c-3.63-1.465-7.787-.589-11.417.876-8.3 3.343-15.073 9.001-19.141 16.963M81.723 356.994c5.608.613 11.317 1.014 16.887.088 5.471-.914 10.641-3.08 15.762-5.233.425-.176.888-.388 1.076-.814.2-.451-.012-1.014-.388-1.352-.376-.338-.864-.501-1.339-.626-5.559-1.552-11.568-.826-17.038 1.014-5.471 1.84-9.953 4.031-14.96 6.923zM49.674 370.839c-3.83-7.724-3.58-16.75-.276-24.712 2.329 3.543 2.617 8.063 2.191 12.294-.425 4.219-1.715 8.563-1.79 12.807M34.376 363.114c-9.564-.188-19.129 3.893-25.613 10.916 4.77.751 9.69-.476 14.02-2.604 4.345-2.116 8.2-5.095 12.019-8.049M24.099 359.684c-4.683-.375-9.177-.964-13.67.426-4.495 1.377-8.589 4.507-10.429 8.838 4.369.488 8.813-.601 12.82-2.416 4.005-1.828 7.66-4.344 11.279-6.848zM39.322 359.835c-4.206-2.754-8.525-5.558-13.433-6.71-4.894-1.139-10.578-.301-13.995 3.392 3.968 2.329 8.775 2.604 13.37 2.604 4.594 0 10.24-.05 14.571 1.477" fill="#E0E0E0"/><path d="M39.346 360.059c-7.198-7.06-9.915-19.754-7.023-29.406 5.658 8.588 8.187 19.191 7.023 29.406zM59.126 340.043c1.352-3.155 2.316-6.46 3.53-9.677 1.215-3.205 2.73-6.372 5.033-8.914 2.303-2.553 5.483-4.444 8.913-4.619-2.14 9.715-8.6 18.403-17.288 23.26M55.545 344.212c-2.24-3.092-4.845-7.285-7.887-9.589-3.042-2.303-7.01-3.705-10.728-2.817 3.793 6.761 10.928 11.518 18.615 12.406zM56.26 340.305c-1.478-3.743-2.955-7.523-3.543-11.492-.601-3.968-.238-8.225 1.802-11.68 3.944 7.461 5.22 15.473 1.953 23.26M59.163 317.121c2.24-7.398 9.014-12.844 16.325-15.348.926-.313 1.902-.576 2.866-.425.964.15 1.903.813 2.116 1.765.263 1.264-.776 2.391-1.753 3.217a55.419 55.419 0 01-19.554 10.791zM59.251 311.074c.288-4.769.576-9.614 2.128-14.133 1.553-4.519 4.545-8.763 8.889-10.741.738 4.819-1.39 9.614-3.944 13.758-2.566 4.143-5.658 8.062-7.198 12.681M59.127 314.353c-1.853-5.395-2.04-12.243-5.27-16.937-2.254-3.28-5.872-5.521-7.812-9.001-1.29 3.242-.902 6.985.45 10.215 1.352 3.23 3.58 5.996 5.972 8.55 2.39 2.554 4.444 4.482 6.66 7.173z" fill="#E0E0E0"/><path d="M59.163 473.154c-.138 0-.263-35.966-.275-80.333-.013-44.379.1-80.345.238-80.345.137 0 .262 35.966.275 80.345.012 44.367-.088 80.333-.238 80.333z" fill="#E0E0E0"/><path d="M90.598 365.406c.012.038-.476.213-1.352.513-.977.326-2.229.751-3.718 1.252a214.26 214.26 0 00-12.131 4.532c-4.632 1.99-9.001 3.605-11.492 5.759-1.24 1.064-1.953 2.215-2.304 3.054-.363.839-.425 1.365-.463 1.352-.012 0-.012-.138.013-.375.037-.238.1-.601.262-1.052.301-.889 1.002-2.116 2.254-3.255 1.252-1.139 2.992-2.166 4.982-3.092a150.743 150.743 0 0118.766-7.273c1.59-.501 2.88-.864 3.78-1.102.89-.238 1.39-.351 1.403-.313z" fill="#E0E0E0"/><path d="M100.902 340.093c.012.012-.126.15-.376.4-.3.288-.688.651-1.152 1.089-1.076.977-2.528 2.304-4.306 3.919a8068.64 8068.64 0 01-14.346 12.769c-5.596 4.982-10.441 9.74-13.796 13.332a178.892 178.892 0 00-3.906 4.307c-.426.476-.764.876-1.04 1.189-.237.276-.375.401-.387.401-.013-.013.087-.176.313-.463.213-.288.538-.727.964-1.252.851-1.077 2.14-2.604 3.793-4.432 3.292-3.655 8.1-8.475 13.72-13.47a1905.73 1905.73 0 0114.447-12.657c1.828-1.564 3.317-2.841 4.42-3.793.487-.413.901-.738 1.214-1.014.275-.225.425-.338.438-.325z" fill="#E0E0E0"/><path d="M74.674 363.34c-.15-.063 1.027-2.767 2.19-6.185 1.178-3.417 1.728-6.297 1.879-6.272.137.013-.2 2.98-1.39 6.435a41.206 41.206 0 01-1.74 4.319c-.513 1.089-.876 1.728-.939 1.703zM59.202 385.111c-.025.025-.338-.339-.864-1.002-.589-.751-1.327-1.703-2.216-2.829a860.199 860.199 0 00-7.298-9.339c-2.88-3.631-5.521-6.873-7.436-9.227-.902-1.114-1.665-2.053-2.254-2.791-.526-.664-.801-1.039-.776-1.064.025-.025.363.313.939.939.576.626 1.39 1.539 2.391 2.691a274.042 274.042 0 017.561 9.139c2.88 3.63 5.408 6.985 7.186 9.439a129.524 129.524 0 012.078 2.929c.463.701.714 1.089.689 1.115z" fill="#E0E0E0"/><path d="M52.304 376.26c-.088.088-1.928-2.091-2.892-5.408-.713-2.341-.738-4.469-.65-5.446l.225.013c-.1.413-.176.638-.213.626-.038-.013-.038-.238-.013-.664l.226.013c.087.964.225 3.029.926 5.308.939 3.217 2.529 5.47 2.391 5.558zM43.403 365.068c-.063.076-.663-.676-2.015-1.176-1.352-.526-3.368-.639-5.596-.451a34.075 34.075 0 00-5.634.914c-1.427.35-2.29.626-2.316.551-.025-.063.802-.463 2.216-.914 1.415-.451 3.43-.902 5.696-1.077 2.254-.2 4.382-.025 5.771.626 1.415.639 1.928 1.515 1.878 1.527zM41.3 362.352c-.037.075-1.177-.476-3.092-1.127a31.49 31.49 0 00-7.711-1.589c-3.08-.226-5.872.037-7.862.4-1.99.351-3.193.726-3.218.639-.012-.038.276-.151.814-.351.538-.2 1.34-.426 2.329-.651 1.99-.463 4.844-.789 7.974-.563 3.13.238 5.896 1.001 7.787 1.765.951.375 1.702.726 2.203 1.001.526.288.789.451.776.476zM59.126 350.884c-.138.038-1.152-3.467-2.253-7.824-1.102-4.356-1.89-7.912-1.753-7.949.138-.038 1.152 3.467 2.254 7.824 1.114 4.356 1.89 7.912 1.752 7.949z" fill="#E0E0E0"/><path d="M59.275 350.884c-.15.05-.8-2.291-2.491-4.682-1.652-2.442-3.756-3.668-3.68-3.794.025-.05.613.163 1.414.727.814.563 1.815 1.527 2.68 2.766 1.764 2.491 2.202 4.97 2.077 4.983zM59.163 453.988c-.05.013-.162-.864-.563-2.391-.4-1.527-1.152-3.693-2.404-6.222-2.49-5.082-7.01-11.517-12.756-17.964-2.842-3.255-5.609-6.322-7.95-9.264-2.353-2.929-4.281-5.733-5.683-8.2-1.415-2.466-2.329-4.594-2.867-6.084-.263-.751-.463-1.339-.563-1.74-.113-.4-.163-.613-.15-.626.05-.012.313.826.9 2.291.59 1.465 1.553 3.543 3.005 5.972 1.44 2.428 3.393 5.182 5.746 8.087 2.354 2.904 5.12 5.959 7.975 9.213 5.758 6.473 10.278 12.995 12.694 18.153 1.214 2.578 1.928 4.782 2.266 6.334.162.776.275 1.39.313 1.803.037.413.062.638.037.638z" fill="#E0E0E0"/><path d="M87.57 421.902c.012.037-.527.313-1.49.839a33.149 33.149 0 00-3.856 2.553c-1.553 1.19-3.293 2.754-5.07 4.62-1.778 1.878-3.618 4.068-5.484 6.409-3.743 4.695-7.235 8.851-9.339 12.169a46.386 46.386 0 00-2.34 4.006c-.514.976-.777 1.514-.814 1.502-.013-.013.037-.15.137-.426.113-.263.263-.676.501-1.164.45-1.002 1.177-2.429 2.216-4.106 2.04-3.393 5.508-7.612 9.239-12.294 1.878-2.341 3.73-4.531 5.546-6.409 1.815-1.878 3.593-3.43 5.195-4.595 1.602-1.164 2.992-1.953 3.993-2.441.489-.25.902-.4 1.165-.513.25-.125.4-.175.4-.15z" fill="#E0E0E0"/><path d="M88.131 432.306c.013.075-1.202.225-3.142.463-1.94.251-4.632.576-7.461 1.465-2.817.914-5.158 2.316-6.685 3.505-1.54 1.19-2.266 2.178-2.341 2.116-.025-.013.125-.288.463-.726s.889-1.027 1.64-1.678c1.502-1.289 3.868-2.779 6.76-3.718 2.892-.914 5.633-1.177 7.586-1.339 1.953-.138 3.168-.15 3.18-.088z" fill="#E0E0E0"/><path d="M69.415 438.715c-.163-.087 1.252-2.253 2.354-5.17 1.026-2.942 1.277-5.521 1.464-5.483.063.012.063.651-.05 1.69-.125 1.027-.375 2.466-.914 3.981-.55 1.515-1.276 2.767-1.827 3.643-.576.864-.964 1.377-1.027 1.339zM96.77 393.961c.012.013-.163.113-.501.263-.388.175-.876.4-1.477.676a25.72 25.72 0 00-2.316 1.102c-.89.463-1.928.926-3.005 1.577-.55.313-1.127.638-1.715.976-.6.338-1.19.752-1.815 1.14-1.264.763-2.529 1.715-3.88 2.679a73.616 73.616 0 00-8.113 7.135 74.718 74.718 0 00-6.86 8.35c-.914 1.39-1.816 2.679-2.542 3.981-.375.639-.75 1.24-1.076 1.853-.313.601-.626 1.189-.914 1.753-.613 1.101-1.052 2.153-1.477 3.054a29.737 29.737 0 00-1.014 2.354c-.25.613-.463 1.101-.626 1.502-.15.338-.238.513-.25.513-.013 0 .037-.188.15-.551.137-.4.313-.913.525-1.539a26.28 26.28 0 01.94-2.404c.4-.914.826-1.99 1.414-3.105.288-.563.588-1.164.889-1.777.313-.614.688-1.227 1.064-1.878.713-1.315 1.602-2.629 2.516-4.031a70.723 70.723 0 016.873-8.438 70.776 70.776 0 018.2-7.16c1.377-.964 2.654-1.903 3.943-2.654.638-.389 1.24-.789 1.84-1.127.601-.326 1.19-.651 1.74-.952 1.102-.625 2.154-1.089 3.055-1.514a28.69 28.69 0 012.366-1.027c.614-.238 1.114-.426 1.515-.588.363-.125.55-.188.55-.163z" fill="#E0E0E0"/><path d="M74.285 409.021c-.05-.013.2-.876 1.24-1.84 1.001-.964 2.841-1.853 4.982-1.916 2.128-.062 3.981.539 5.245 1.027 1.265.501 2.004.901 1.978.964-.025.075-.813-.213-2.103-.614-1.277-.388-3.08-.901-5.107-.851-2.016.063-3.756.839-4.757 1.665-1.027.826-1.39 1.615-1.478 1.565zM70.931 412.488c-.137-.075 1.127-1.94 1.415-4.607.338-2.654-.476-4.757-.313-4.807.063-.025.338.463.588 1.34.25.876.413 2.14.25 3.517-.162 1.39-.613 2.579-1.05 3.368-.451.814-.84 1.227-.89 1.189zM34.326 459.132c.776 13.746 4.92 27.729 11.292 41.863h27.704c6.072-13.996 9.927-27.954 10.616-41.863H34.326z" fill="#E0E0E0"/><path d="M79.445 481.38c0 .138-9.127.263-20.38.263-11.255 0-20.381-.113-20.381-.263 0-.138 9.126-.263 20.38-.263 11.254.013 20.38.125 20.38.263zM78.831 486.362c0 .138-8.55.263-19.103.263-10.554 0-19.104-.113-19.104-.263 0-.138 8.55-.263 19.104-.263 10.553 0 19.103.125 19.103.263zM46.057 468.159c.137 0 .263 2.854.263 6.384 0 3.531-.113 6.385-.263 6.385-.138 0-.263-2.854-.263-6.385 0-3.518.125-6.384.263-6.384z" fill="#FAFAFA"/><path d="M60.904 468.159c.137 0 .262 2.954.262 6.61 0 3.655-.112 6.609-.262 6.609-.138 0-.263-2.954-.263-6.609 0-3.643.112-6.61.263-6.61zM74.837 468.047c.138 0 .263 3.017.263 6.735 0 3.718-.113 6.748-.263 6.748-.138 0-.263-3.017-.263-6.748 0-3.706.125-6.735.263-6.735z" fill="#FAFAFA"/><path d="M83.061 468.159c0 .138-10.703.263-23.898.263-13.207 0-23.898-.113-23.898-.263 0-.138 10.703-.263 23.898-.263 13.195.013 23.898.125 23.898.263z" fill="#FAFAFA"/><ellipse cx="346.955" cy="223.686" rx="4.168" ry="6.251" fill="#13ACAC"/><path d="M208.53 78.404h-70.828a3.427 3.427 0 01-3.429-3.429V4.147a3.427 3.427 0 013.429-3.429h70.841a3.426 3.426 0 013.428 3.429v70.84a3.442 3.442 0 01-3.441 3.417z" fill="#F0F0F0"/><path d="M195.812 19.894h-.099c-2.631 0-4.763.162-4.763.374 0 .2 1.87.35 4.264.374-.237.25-.586.623-1.022 1.11-.96 1.084-2.232 2.506-3.778 4.239-3.192 3.678-7.518 8.652-12.43 14.313-1.696-1.135-3.454-2.307-5.249-3.504-.935-.623-1.845-1.234-2.718-1.808l-.274-.187-.212.25a2215.245 2215.245 0 00-13.964 16.482c-1.683 2.032-3.067 3.703-4.102 4.962-.947 1.172-1.458 1.845-1.421 1.87.037.037.611-.574 1.633-1.696 1.085-1.221 2.531-2.842 4.277-4.812 3.553-4.052 8.453-9.7 13.926-16.07.785.523 1.608 1.071 2.443 1.633 1.896 1.259 3.741 2.493 5.524 3.677l.274.187.212-.249c4.925-5.822 9.263-10.947 12.455-14.724 1.484-1.796 2.693-3.267 3.603-4.376.461-.574.786-.998.997-1.272h.05c.025 2.406.175 4.301.374 4.301.2 0 .374-2.082.374-4.675v-.374h-.374v-.025z" fill="#E0E0E0"/><path d="M392.638 52.571h38.001c0 20.846-17.155 38.001-38.001 38.001-20.846 0-38.001-17.155-38.001-38 0-20.522 16.619-37.516 37.128-37.99l.873 37.99z" fill="#F0F0F0"/><path d="M402.874 43.307l-.86-38c9.899 0 20.272 3.864 27.366 10.771 7.094 6.907 11.221 16.757 11.483 26.643l-37.989.586zM408.112 209.002c-.225 6.97.187 28.277.187 28.277l6.284-6.284h35.046a2.23 2.23 0 002.232-2.232v-19.698a2.23 2.23 0 00-2.232-2.232h-39.285c-1.21 0-2.195.96-2.232 2.169z" fill="#EBEBEB"/><path d="M426.04 218.952a1.645 1.645 0 11-3.291 0 1.645 1.645 0 113.291 0zM431.601 218.952a1.645 1.645 0 11-3.291 0c0-.91.735-1.645 1.645-1.645.898 0 1.646.735 1.646 1.645zM437.149 218.952c0 .91-.736 1.646-1.646 1.646a1.645 1.645 0 110-3.291c.91 0 1.646.735 1.646 1.645z" fill="#E0E0E0"/><path d="M516.556 319.813c-.935-12.143-9.862-30.919-20.821-36.218-10.959-5.299-24.711-4.314-34.797 2.506-6.882 4.638-12.081 11.707-19.612 15.198-14.874 6.907-32.515-2.88-42.901-15.559-10.385-12.692-16.893-28.439-28.65-39.872-11.296-10.996-27.13-17.205-42.889-16.806-15.771.399-31.268 7.381-42.003 18.938-7.992 8.603-13.228 19.325-19.649 29.162-6.408 9.837-14.662 19.275-25.82 22.953-15.323 5.049-32.628-2.369-43.475-14.326-10.846-11.956-16.469-27.653-21.17-43.088-4.7-15.447-8.839-31.343-17.467-44.983-8.627-13.639-22.84-24.922-38.973-25.359v146.993l398.227.461z" fill="#F0F0F0"/><path d="M547 504.396c0 .175-116.397.325-259.949.325-143.589 0-259.961-.15-259.961-.325 0-.174 116.372-.324 259.974-.324 143.551 0 259.936.137 259.936.324zM448.318 190.849c0-.025.262 0 .748-.15a2.443 2.443 0 001.521-1.496c.187-.449.137-1.01.137-1.621s-.012-1.284-.012-2.007c-.013-1.459-.025-3.13-.025-5.012-.025-7.568-.062-18.477-.1-31.955-.012-6.745-.025-14.138-.037-22.067 0-3.965-.013-8.067-.013-12.293 0-2.107 0-4.252-.012-6.433-.013-1.06.037-2.232-.037-3.23-.15-.96-1.035-1.77-2.02-1.807-17.841 0-37.44.012-58.012.012-1.147-.025-2.169.973-2.169 2.107v26.207c-.013 9.712-.013 19.075-.025 27.99-.013 8.914-.025 17.392-.025 25.334v2.955c.012.473-.025.997.037 1.408a2.224 2.224 0 001.671 1.771c.399.1.873.05 1.346.062h2.793c3.678.013 7.219.013 10.585.025 13.478.038 24.387.075 31.955.1 3.752.025 6.682.05 8.689.062.973.013 1.721.025 2.257.038.486-.025.748 0 .748 0s-.262.025-.773.037c-.536.012-1.284.012-2.256.037-2.008.013-4.938.038-8.69.063-7.568.025-18.477.062-31.955.099-3.379.013-6.907.013-10.585.025h-2.792c-.462-.012-.936.05-1.472-.074a2.724 2.724 0 01-1.346-.773 2.837 2.837 0 01-.723-1.397c-.088-.548-.038-1.01-.05-1.496v-2.955c-.013-7.929-.025-16.407-.025-25.334s-.013-18.29-.025-27.99V116.28v-7.58-3.84c0-1.471 1.346-2.781 2.818-2.731 20.596.013 40.208.025 58.061.038 1.259.062 2.381 1.084 2.568 2.306.088 1.197.025 2.219.038 3.329 0 2.169 0 4.314-.013 6.433 0 4.227-.012 8.329-.012 12.293l-.037 22.068c-.038 13.477-.075 24.387-.1 31.954-.013 1.883-.025 3.554-.025 5.012 0 .723-.013 1.397-.013 2.008-.012.598.038 1.184-.174 1.67-.387.973-1.147 1.384-1.633 1.521-.524.137-.786.088-.786.088z" fill="#263238"/><path d="M423.484 119.895c-8.478-1.882-17.792 2.731-20.173 11.458-2.294 8.391 3.254 18.19 11.67 20.472 8.241 2.231 17.641-2.831 20.359-10.91 3.03-8.964-2.73-18.626-11.395-21.481-1.01-.337-1.409 1.209-.436 1.571 7.393 2.705 12.704 10.684 10.497 18.676-2.094 7.605-11.009 12.692-18.626 10.672-7.319-1.945-12.044-9.799-11.109-17.118 1.135-8.964 10.622-14.325 19.075-12.866.312.062.449-.399.138-.474z" fill="#263238"/><path d="M415.043 151.577c8.665 2.668 18.639-2.319 21.233-11.259 2.643-9.113-3.242-18.95-12.119-21.668-2.044-.624-2.78 2.393-.873 3.141 7.518 2.943 12.493 11.084 9.526 19.076-2.643 7.106-10.436 10.535-17.642 9.725-.561-.063-.636.822-.125.985zM436.712 166.487c0 .175-7.717.324-17.23.324-9.525 0-17.23-.149-17.23-.324 0-.174 7.717-.324 17.23-.324 9.513 0 17.23.137 17.23.324zM436.712 171.711c0 .175-7.717.325-17.23.325-9.525 0-17.23-.15-17.23-.325 0-.174 7.717-.324 17.23-.324 9.513 0 17.23.15 17.23.324z" fill="#13ACAC"/><path d="M201.773 48.206v115.275a4.646 4.646 0 004.638 4.638h153.551a4.645 4.645 0 004.638-4.638V44.191c0-2.605-2.144-4.7-4.763-4.637l-153.55 4.002a4.647 4.647 0 00-4.514 4.65z" fill="#E0E0E0"/><path d="M350.886 68.38c-.063.124-1.958-.986-5.685-2.158a36.46 36.46 0 00-16.296-1.209c-3.416.549-7.131 1.584-10.747 3.454-3.64 1.82-7.119 4.538-10.56 7.592-3.466 3.055-6.907 6.533-10.871 9.737-3.965 3.155-8.516 6.147-13.877 7.506-2.655.686-5.436.86-8.104.486-2.668-.361-5.186-1.234-7.505-2.319-4.651-2.194-8.628-5.074-12.568-7.48-3.914-2.456-7.842-4.389-11.831-5.299a35.003 35.003 0 00-11.246-.86 36.19 36.19 0 00-15.535 5.062c-3.328 2.032-4.899 3.565-4.987 3.466-.025-.025.362-.412 1.122-1.11.761-.71 1.958-1.67 3.616-2.755 3.279-2.132 8.59-4.775 15.697-5.511a35.335 35.335 0 0111.557.736c4.114.885 8.216 2.88 12.169 5.323 3.989 2.406 7.979 5.249 12.492 7.356 4.476 2.157 9.725 3.117 14.812 1.733 5.086-1.297 9.525-4.177 13.427-7.256 3.902-3.142 7.356-6.583 10.872-9.65 3.503-3.067 7.069-5.81 10.847-7.655 3.752-1.883 7.567-2.905 11.071-3.404 7.081-.96 12.866.312 16.557 1.609a29.86 29.86 0 014.176 1.795c.948.499 1.422.773 1.397.81zM253.053 95.46h-15.024v40.619h15.024v-40.62zM316.787 95.46h-15.023v40.619h15.023v-40.62z" fill="#455A64"/><path d="M338.032 71.596h-15.023v64.47h15.023v-64.47zM233.628 123.288h-15.024v13.664h15.024v-13.664zM274.298 113.798h-15.024v22.28h15.024v-22.28zM295.542 108.687h-15.023v27.391h15.023v-27.391z" fill="#455A64"/><path d="M253.664 140.865c0 .337-3.628.598-8.116.598-4.488 0-8.116-.274-8.116-.598 0-.337 3.628-.598 8.116-.598 4.476-.013 8.116.261 8.116.598zM234.975 140.865c0 .337-3.628.599-8.116.599-4.489 0-8.117-.274-8.117-.599 0-.336 3.628-.598 8.117-.598 4.475-.012 8.116.262 8.116.598zM340.987 140.865c0 .337-4.102.598-9.176.598-5.062 0-9.176-.274-9.176-.598 0-.337 4.102-.598 9.176-.598 5.074-.013 9.176.261 9.176.598zM309.506 141.463c5.068 0 9.176-.268 9.176-.598 0-.331-4.108-.599-9.176-.599-5.068 0-9.176.268-9.176.599 0 .33 4.108.598 9.176.598zM295.542 140.865c0 .337-3.628.598-8.116.598-4.476 0-8.116-.274-8.116-.598 0-.337 3.628-.598 8.116-.598 4.488-.013 8.116.261 8.116.598zM273.586 140.865c0 .337-3.628.598-8.116.598-4.476 0-8.116-.274-8.116-.598 0-.337 3.628-.598 8.116-.598 4.488-.013 8.116.261 8.116.598zM322.547 191.496s.087-.012.262 0c.174.013.423.063.735.212.299.15.648.437.898.886.274.448.262 1.072.262 1.72.012 2.643.037 6.521.062 11.495.012 5 .037 11.109.05 18.203.012 3.553.012 7.343.025 11.37v4.626c.012.498.012 1.147-.299 1.645a2.296 2.296 0 01-1.359 1.073c-.599.162-1.135.062-1.684.099h-3.316l.237-.236c0 3.59.012 7.48.012 11.495v.66l-.436-.498c-3.204-3.616-6.633-7.481-10.186-11.483l.2.087c-30.022.013-66.153.038-105.002.05h-7.331c-.424 0-.786.013-1.247-.012a2.44 2.44 0 01-1.284-.524 2.563 2.563 0 01-.786-1.134 2.563 2.563 0 01-.112-.686V237.514v-4.8-18.838c0-6.172 0-12.243.013-18.178v-2.232a2.387 2.387 0 011.309-2.032 2.48 2.48 0 011.209-.262h11.894c22.691.025 43.125.05 60.293.075 17.156.05 31.032.075 40.657.1 4.788.025 8.503.05 11.046.062 1.247.013 2.207.025 2.88.038.674.024.998.049.998.049s-.337.025-.985.038c-.661.012-1.621.012-2.88.037-2.544.013-6.271.038-11.047.063-9.612.024-23.501.062-40.656.099-17.168.025-37.603.05-60.293.075H194.791a1.762 1.762 0 00-.922.2c-.561.286-.96.872-.973 1.508v2.207c0 5.934 0 12.006.013 18.178V239.958c0 .424-.025.785.087 1.097.1.324.299.611.574.835.261.212.598.349.935.387.336.012.798 0 1.184.012h7.331c38.849.025 74.98.038 105.002.05h.125l.074.087c3.541 4.015 6.957 7.892 10.162 11.508l-.437.162c0-4.027.013-7.904.013-11.495v-.237h3.553c.536-.025 1.109.062 1.558-.075a1.89 1.89 0 001.097-.86c.262-.424.262-.885.25-1.421v-1.559-3.067c.012-4.027.012-7.817.025-11.37.025-7.094.037-13.203.05-18.203.025-4.974.05-8.852.062-11.495.012-.661.037-1.234-.212-1.671a2.1 2.1 0 00-.835-.872c-.586-.312-.96-.25-.96-.275z" fill="#263238"/><path d="M199.267 233.55c1.047-3.653 2.269-7.381 4.7-10.286 2.431-2.917 6.383-4.875 10.061-3.927 5.81 1.496 8.628 9.238 14.575 10.036 3.291.436 6.495-1.533 8.615-4.077 2.119-2.556 3.428-5.66 5.049-8.553 2.431-4.338 5.773-8.365 10.249-10.547 4.475-2.182 10.223-2.194 14.138.885 6.707 5.286 5.772 16.944 12.929 21.619 3.428 2.232 8.241 2.094 11.52-.337 3.167-2.344 4.8-6.421 8.129-8.528 3.865-2.443 9.238-1.483 12.729 1.459 3.491 2.942 5.324 7.468 5.997 11.994" fill="#13ACAC"/><path d="M315.551 212.592c0 .012-.1-.025-.287-.112-.224-.1-.498-.225-.822-.387-.736-.299-1.833-.76-3.317-1.122-2.93-.723-7.443-.997-12.717.374-2.63.673-5.423 1.746-8.316 3.092-2.905 1.347-5.909 2.992-9.113 4.65-3.205 1.659-6.633 3.354-10.386 4.601-3.74 1.259-7.867 2.032-12.093 1.683-4.215-.324-8.192-1.521-11.845-2.992-3.665-1.471-7.056-3.217-10.273-4.825-6.408-3.292-12.405-5.922-17.804-6.72-5.373-.873-9.837-.125-12.667.923-2.867 1.034-4.176 2.169-4.226 2.082-.013-.013.075-.075.237-.2.199-.137.448-.312.748-.536.685-.424 1.708-1.047 3.154-1.583 2.843-1.135 7.368-1.97 12.829-1.147 5.486.76 11.57 3.378 18.003 6.645 3.229 1.608 6.608 3.329 10.236 4.775 3.628 1.446 7.543 2.618 11.657 2.93 4.115.336 8.142-.412 11.845-1.646 3.702-1.234 7.106-2.892 10.31-4.538 3.204-1.646 6.234-3.279 9.164-4.613 2.93-1.347 5.76-2.394 8.428-3.055 5.349-1.321 9.937-.985 12.892-.174 2.967.86 4.363 1.895 4.363 1.895z" fill="#263238"/><path d="M259.921 204.638a1.309 1.309 0 11-2.618 0 1.309 1.309 0 012.618 0zM212.943 210.186a1.309 1.309 0 11-2.618 0 1.309 1.309 0 012.618 0zM306.413 210.186a1.309 1.309 0 11-2.618 0 1.309 1.309 0 012.618 0zM394.971 395.069h11.694c5.448 0 17.131-14.338-46.267-12.692-41.667 1.072-44.397 7.218-42.29 10.822.985 1.683 2.93 2.58 4.875 2.431 1.01-.075 2.369-.088 3.952-.088l-.997 4.401-23.203 102.509 4.04-.349 17.13-56.441 32.678-1.247 1.87 59.994h5.124l1.234-60.305h.163l3.453-.137 28.975-1.11 17.168 61.552h4.924l-24.523-109.34zm-68.635 42.564l11.433-37.69 1.297-4.263c4.8 0 10.398-.113 15.996-.113l1.284 41.131-30.01.935zm43.101-1.347l-1.272.038-3.191.1.847-41.355h18.265l11.259 40.395-25.908.822z" fill="#455A64"/><path d="M290.554 497.353V484.1l23.738-.162.2 19.811-1.471.112c-6.546.424-33.326 1.247-37.715-.112-4.9-1.509 15.248-6.396 15.248-6.396z" fill="#13ACAC"/><path d="M274.746 502.54c0 .224 8.877.399 19.836.399 10.959 0 19.836-.187 19.836-.399 0-.225-8.877-.399-19.836-.399-10.959-.013-19.836.174-19.836.399zM290.143 500.058c.199-.099.025-.798-.487-1.496-.511-.698-1.134-1.06-1.284-.91-.162.162.162.748.636 1.384.474.636.935 1.122 1.135 1.022zM288.623 500.931c.212-.075.099-.861-.362-1.684-.461-.835-1.085-1.321-1.259-1.184-.175.137.125.81.548 1.583.437.761.861 1.359 1.073 1.285z" fill="#263238"/><path d="M307.262 502.452c.088.063.449-.286.96-.872.511-.574 1.197-1.397 2.082-2.082.886-.686 1.846-1.035 2.569-1.123.723-.099 1.197.013 1.234-.099.037-.088-.399-.412-1.259-.474-.848-.062-2.032.262-3.042 1.047-.998.786-1.646 1.721-2.045 2.394-.399.686-.586 1.147-.499 1.209zM290.07 497.565c-.113.187.286.648.972.897.673.25 1.284.162 1.322-.05.037-.224-.449-.486-1.035-.698-.611-.224-1.147-.336-1.259-.149zM290.443 496.28c-.025.224.611.411 1.409.423.798.013 1.434-.162 1.421-.386-.012-.224-.648-.411-1.409-.424-.76 0-1.408.175-1.421.387z" fill="#263238"/><path d="M340.674 497.353V484.1l23.738-.162.2 19.811-1.471.112c-6.546.424-33.326 1.247-37.715-.112-4.9-1.509 15.248-6.396 15.248-6.396z" fill="#13ACAC"/><path d="M324.865 502.539c0 .224 8.877.399 19.836.399 10.959 0 19.836-.187 19.836-.399 0-.225-8.877-.399-19.836-.399-10.959-.013-19.836.174-19.836.399zM340.265 500.058c.199-.099.025-.798-.486-1.496-.512-.698-1.135-1.06-1.285-.91-.162.162.162.748.636 1.384.474.636.935 1.122 1.135 1.022zM338.742 500.931c.212-.075.1-.861-.362-1.684-.461-.835-1.084-1.321-1.259-1.184-.175.137.125.81.549 1.583.436.761.86 1.359 1.072 1.285z" fill="#263238"/><path d="M357.381 502.451c.088.063.449-.286.96-.872.512-.574 1.197-1.397 2.083-2.082.885-.686 1.845-1.035 2.568-1.123.723-.099 1.197.013 1.234-.099.038-.088-.399-.412-1.259-.474-.848-.062-2.032.262-3.042 1.047-.998.786-1.646 1.721-2.057 2.394-.387.686-.574 1.147-.487 1.209zM340.189 497.565c-.113.187.286.648.972.897.673.25 1.284.162 1.322-.05.037-.224-.449-.486-1.035-.698-.611-.224-1.147-.336-1.259-.149zM340.563 496.281c-.025.224.611.411 1.409.423.798.013 1.434-.162 1.421-.386-.012-.224-.648-.411-1.408-.424-.761 0-1.409.175-1.422.387zM408.709 259.622c-.973-.212-2.194-.087-2.768-.91-.536-.735-.162-1.758.15-2.618.985-2.755 1.134-5.86.087-8.578a9.64 9.64 0 00-3.578-4.501c.224-.236.436-.486.598-.773.499-.86.674-1.82.674-2.717-.025-1.783-.599-3.516-1.821-4.551-1.197-1.01-3.017-1.06-3.902-.05-.898.91-.835 2.356-.05 2.905.723.549 1.509.449 1.895.237.412-.212.474-.474.474-.474-.025-.025-.15.2-.536.362-.362.149-1.085.187-1.683-.312-.624-.474-.649-1.683.149-2.456.748-.811 2.307-.761 3.354.149 1.06.911 1.583 2.531 1.583 4.19 0 .835-.187 1.695-.623 2.431a3.507 3.507 0 01-.611.748 8.233 8.233 0 00-2.144-.873c-1.609-.386-3.367-.299-4.838-1.06-1.234-.648-2.107-1.832-2.618-3.142-.012-.149-.025-.286-.025-.436-.012-2.182.686-4.314.898-6.471.249-2.132.224-4.239-.175-6.196-.748-3.927-3.191-7.057-5.934-8.353-2.781-1.334-5.449-.836-6.92-.125-.76.362-1.284.761-1.596 1.06-.112.112-.187.199-.261.274-.724.374-1.384.873-1.908 1.521l-3.852 34.635 28.176 17.218c2.182-.212 4.414-.424 6.421-1.297 2.007-.873 3.815-2.531 4.289-4.663.474-2.144-.761-4.7-2.905-5.174zm-18.502-36.268c-1.072-2.693-3.03-5.149-5.723-6.221-1.807-.723-3.939-.686-5.697.1a7.584 7.584 0 011.645-.96c1.459-.611 4.015-1.01 6.621.299 2.581 1.284 4.875 4.276 5.56 8.054.362 1.882.374 3.927.125 6.009-.15 1.559-.586 3.13-.798 4.8-.174-1.172-.212-2.381-.262-3.566-.124-2.88-.399-5.822-1.471-8.515z" fill="#263238"/><path d="M381.881 223.318c-.2-.649-.536-1.285-1.097-1.671-.898-.611-2.282-.399-3.367-.15l-.062-7.954-15.547-12.592-8.328 4.326a13.029 13.029 0 00-7.032 11.695c.062 6.408.224 15.098.648 20.035.723 8.478 9.301 9.176 9.301 9.176s.374 3.055.623 6.097c0 .012-1.882 25.097 6.945 24.873 6.508-.163 10.884-13.839 12.729-21.033l.973-3.953v-.199c.025-.1.037-.162.037-.162h-.037l-.2-23.801.275.275c.498.548 1.371.536 2.057.249.947-.387 1.683-1.222 2.044-2.169.337-.998.325-2.07.038-3.042z" fill="#FFBE9D"/><path d="M348.444 223.167a1.086 1.086 0 001.109 1.06 1.086 1.086 0 00-.05-2.17 1.086 1.086 0 00-1.059 1.11zM347.371 222.007c.149.138.935-.561 2.094-.66 1.172-.113 2.057.449 2.182.286.062-.074-.087-.324-.486-.586a2.88 2.88 0 00-1.758-.411c-.736.062-1.322.387-1.658.711-.337.324-.449.598-.374.66zM361.048 222.793a1.085 1.085 0 102.168-.05 1.085 1.085 0 00-2.168.05zM360.339 221.633c.149.137.935-.561 2.094-.661 1.172-.112 2.057.449 2.182.287.062-.075-.087-.324-.486-.586a2.873 2.873 0 00-1.758-.411c-.736.062-1.322.386-1.658.71-.337.324-.437.599-.374.661zM356.348 231.683c0 .074-.736.124-1.92.149-.15 0-.312.013-.511-.037a.707.707 0 01-.512-.412c-.174-.449-.012-.872.088-1.234.224-.785.461-1.596.71-2.456 1.035-3.479 1.97-6.259 2.107-6.221.137.037-.586 2.892-1.62 6.358-.262.848-.512 1.671-.749 2.444-.124.374-.224.723-.149.935.062.212.349.249.648.262 1.172.062 1.908.137 1.908.212z" fill="#263238"/><path d="M360.387 232.629c.087-.099-3.379 2.082-5.76 2.145 0 0 1.521 2.082 3.902 1.01 2.481-1.122 1.858-3.155 1.858-3.155z" fill="#FAFAFA"/><path d="M356.386 246.17s5.722-.075 11.146-4.065c0 0-2.394 6.297-10.922 6.147l-.224-2.082z" fill="#EB996E"/><path d="M345.238 217.992c3.69.511 6.42-.498 10.036-1.409 3.616-.91 7.057-3.291 8.316-6.807a12.68 12.68 0 003.092 6.221c.349.374.997.736 1.309.325.162-.212.1-.512.037-.773l-.748-2.955c1.409 2.231 2.868 4.513 4.925 6.171 2.07 1.658 8.353 4.227 7.406 1.758-.237-.623 1.87-19.848-16.408-20.135-18.277-.299-17.965 17.604-17.965 17.604z" fill="#263238"/><path d="M377.631 223.466c-.05-.05.312-.437 1.097-.412.374.025.848.15 1.247.512.412.349.661.935.661 1.533 0 .611-.262 1.184-.673 1.534a2.023 2.023 0 01-1.247.498c-.786.025-1.147-.361-1.097-.424.05-.087.436.088 1.047-.037.599-.1 1.347-.661 1.322-1.583.025-.923-.723-1.484-1.322-1.584-.586-.124-.985.063-1.035-.037z" fill="#EB996E"/><path d="M408.035 283.184l3.142-.636s-6.845-30.77-30.633-30.77h-2.855c0 .013-.012.063-.037.162v.2l-.973 3.952c-1.857 7.194-6.221 20.871-12.729 21.033-8.241.212-7.156-21.594-6.969-24.536-.512.099-.599.162-.599.162s-25.87 1.446-37.353 24.125l19.948 14.574 4.888-2.942s1.596 32.091-1.147 40.831c-3.105 9.887-7.892 20.821-7.892 20.821 21.943-1.708 46.878-.736 73.471 1.721l-17.779-65.156c6.159-.362 11.845-1.459 17.517-3.541z" fill="#13ACAC"/><path d="M386.629 298.583c.025.025-.162.287-.548.699a11.06 11.06 0 01-1.883 1.521c-1.695 1.122-4.463 2.231-7.642 2.119-3.18-.112-5.86-1.421-7.468-2.668-.811-.623-1.409-1.209-1.771-1.646-.361-.436-.536-.71-.499-.735.088-.075.886.897 2.544 2.007 1.621 1.11 4.214 2.282 7.231 2.394 3.017.112 5.685-.873 7.381-1.858 1.708-1.01 2.581-1.92 2.655-1.833zM398.161 315.689c-.037.012-.237-.536-.549-1.534-.336-1.122-.76-2.543-1.271-4.239a791.39 791.39 0 00-4.264-13.963 722.546 722.546 0 00-4.551-13.864c-.561-1.671-1.035-3.08-1.396-4.202-.324-.997-.486-1.558-.437-1.571.038-.012.287.511.674 1.484.399.972.947 2.381 1.596 4.127a291.723 291.723 0 014.737 13.826c1.721 5.436 3.142 10.411 4.09 14.026.473 1.808.835 3.279 1.072 4.301.237 1.035.336 1.596.299 1.609zM390.432 266.491c-.05.163-1.509-.137-3.192-.86-1.683-.723-2.905-1.558-2.818-1.708.088-.162 1.434.412 3.08 1.11 1.646.71 2.992 1.284 2.93 1.458zM396.566 277.163c-.174-.049.225-1.695.873-3.64.648-1.957 1.322-3.503 1.484-3.441.174.062-.225 1.695-.873 3.653-.648 1.945-1.309 3.491-1.484 3.428zM375.222 284.83c-.162-.087.499-1.508 1.334-3.241.835-1.733 1.546-3.13 1.708-3.055.162.062-.274 1.583-1.135 3.341-.835 1.758-1.758 3.055-1.907 2.955zM371.344 291.601c-.112.137-1.458-.861-2.842-2.394-1.384-1.521-2.232-2.967-2.095-3.067.15-.112 1.222 1.147 2.581 2.643 1.346 1.484 2.481 2.68 2.356 2.818zM386.841 290.579c.137.1-.96 1.783-2.668 3.566-1.259 1.322-2.494 2.306-3.08 2.668l-.922.561.735-.736c.175-.174.287-.261.325-.236.037.025 0 .162-.113.386l-.187-.174c.437-.537 1.546-1.621 2.781-2.918 1.67-1.745 2.979-3.229 3.129-3.117zM390.133 312.833c-.063.162-1.658-.374-3.429-1.421-1.77-1.048-3.004-2.182-2.892-2.319.112-.15 1.496.735 3.229 1.77 1.733 1.01 3.167 1.795 3.092 1.97zM374.523 307.747c.138.112-.685 1.571-1.87 3.279-1.172 1.708-2.244 3.005-2.393 2.905-.15-.1.685-1.559 1.87-3.279 1.184-1.708 2.256-3.017 2.393-2.905zM364.274 308.757c-.112.137-1.271-.586-2.605-1.621-1.334-1.034-2.319-1.994-2.207-2.132.112-.137 1.272.586 2.606 1.621 1.321 1.023 2.319 1.983 2.206 2.132zM358.728 293.621c.1.149-.873 1.022-2.182 1.945-1.309.935-2.444 1.571-2.556 1.421-.112-.15.873-1.022 2.182-1.945s2.444-1.558 2.556-1.421zM356.607 285.878c-.137.112-1.047-.835-2.007-2.119-.972-1.284-1.633-2.407-1.496-2.506.137-.113 1.047.835 2.007 2.119.973 1.272 1.646 2.406 1.496 2.506zM378.836 265.431c-.162-.087.399-1.446 1.26-3.029.848-1.596 1.67-2.806 1.832-2.731.162.088-.399 1.447-1.259 3.03-.86 1.596-1.683 2.818-1.833 2.73zM351.06 266.728c-.1.15-1.521-.561-3.192-1.583-1.671-1.022-2.942-1.982-2.855-2.132.1-.15 1.521.561 3.192 1.583 1.67 1.023 2.942 1.97 2.855 2.132zM336.51 263.001c.149.087-.312 1.159-1.035 2.368-.723 1.222-1.434 2.132-1.584 2.045-.149-.087.312-1.159 1.035-2.369.723-1.222 1.434-2.144 1.584-2.044zM351.633 347.207c-.1.149-1.459-.586-3.017-1.634-1.571-1.047-2.756-2.019-2.656-2.169.1-.15 1.446.586 3.017 1.633 1.571 1.048 2.755 2.02 2.656 2.17zM393.312 342.717c.137.125-.773 1.322-2.033 2.693-1.259 1.359-2.381 2.369-2.506 2.245-.137-.125.773-1.322 2.033-2.693 1.246-1.359 2.368-2.369 2.506-2.245zM364.999 347.379c-.175-.05-.038-1.147-.038-2.493 0-1.347-.137-2.444.038-2.494.162-.05.611 1.048.611 2.494 0 1.446-.449 2.543-.611 2.493zM379.723 347.63c-.088.149-1.459-.499-3.042-1.472-1.584-.96-2.793-1.87-2.706-2.019.087-.15 1.459.498 3.042 1.471 1.596.96 2.805 1.857 2.706 2.02zM408.299 351.893c0 .025-.262.013-.748-.012-.562-.05-1.272-.1-2.145-.162-1.945-.175-4.6-.412-7.854-.711-6.633-.574-15.797-1.396-25.946-1.559-10.161-.199-19.349.063-26.007.312-3.266.137-5.934.25-7.879.337-.873.037-1.584.062-2.145.087-.486.012-.748.013-.748-.012s.249-.063.736-.113c.561-.049 1.271-.124 2.132-.199 1.857-.162 4.55-.349 7.867-.549 6.657-.374 15.858-.698 26.044-.511 10.174.162 19.363 1.06 25.983 1.758 3.316.349 5.984.673 7.842.91.86.112 1.571.212 2.132.287.486.062.736.112.736.137z" fill="#263238"/><g opacity=".2" fill="#000"><path opacity=".2" d="M385.682 276.328l6.233 41.455s5.773-.05 6.833-1.721l-13.066-39.734z"/><path opacity=".2" d="M385.682 276.328l6.233 41.455s5.773-.05 6.833-1.721l-13.066-39.734z"/></g><path d="M349.49 349.376c-14.675 1.135-22.691.125-38.824 1.634-11.259 1.483-19.762 10.959-20.023 22.316l-2.831 121.946h29.661l4.688-109.328 8.752 1.109c-1.122 40.944 3.154 108.219 3.154 108.219l32.927-1.608-1.883-105.002s44.298 3.004 43.188-36.767c0 0-34.884-4.227-58.809-2.519z" fill="#263238"/><path d="M358.366 349.052c0 .049-.798.174-2.244.386-1.447.212-3.541.524-6.109.997-2.556.524-5.686.911-8.79 2.332a17.99 17.99 0 00-4.476 2.855 14.397 14.397 0 00-3.391 4.538c-1.708 3.553-2.082 7.406-2.12 10.822.038 3.441.125 6.57.1 9.189a99.291 99.291 0 01-.212 6.208c-.05.736-.1 1.297-.137 1.684-.037.386-.075.586-.1.586-.05 0-.037-.811-.012-2.282.025-1.459.05-3.578.012-6.196-.075-2.656-.149-5.76-.237-9.189 0-3.466.362-7.406 2.132-11.109a14.843 14.843 0 013.554-4.725 17.702 17.702 0 014.65-2.93c3.229-1.446 6.396-1.783 8.964-2.244 2.593-.411 4.7-.661 6.159-.798a43.248 43.248 0 011.683-.137c.362 0 .574 0 .574.013zM319.542 378.3c.162-.025.748 1.646 1.608 3.703.873 2.07 1.197 3.902 1.01 3.94-.162.025-.748-1.646-1.608-3.703-.873-2.07-1.209-3.903-1.01-3.94z" fill="#455A64"/><path d="M321.935 375.87c.15-.025.711 2.195.861 5.012.149 2.855-.487 5.1-.649 5.062-.187-.037.15-2.269 0-5.024-.149-2.768-.411-5.025-.212-5.05zM362.855 378.165c.187-.05.923 2.269 1.446 5.186.524 2.918.96 5.262.798 5.312-.187.049-.922-2.27-1.446-5.187-.511-2.917-.96-5.274-.798-5.311z" fill="#455A64"/><path d="M365.835 378.139c.174-.025.573 2.344.411 5.299-.149 2.955-.81 5.261-.985 5.224-.187-.037.187-2.369.337-5.261.149-2.88.05-5.237.237-5.262zM316.699 488.141c0 .175-6.495.324-14.512.324s-14.512-.149-14.512-.324c0-.174 6.495-.324 14.512-.324s14.512.15 14.512.324zM366.582 487.604c0 .175-7.394.325-16.508.325-9.113 0-16.507-.15-16.507-.325 0-.174 7.394-.324 16.507-.324 9.114 0 16.508.15 16.508.324z" fill="#455A64"/><path d="M404.36 370.147c0 .012-.137.025-.424.037-.312.013-.723.013-1.235.038-1.122.012-2.717.037-4.737.05-4.164.025-10.099.049-17.43.087-3.678.012-7.705.025-12.031.037-2.144.05-4.389.187-6.583.761-2.182.561-4.339 1.683-5.772 3.578-1.459 1.87-2.008 4.351-2.12 6.845-.125 2.518.137 5.099.237 7.755.15 5.298.299 10.772.449 16.382.623 22.454 1.147 42.789 1.334 57.5.1 7.356.137 13.316.125 17.43-.013 2.02-.025 3.616-.038 4.738-.012.511-.025.922-.025 1.234-.012.274-.025.424-.025.424-.012 0-.025-.137-.037-.424a81.738 81.738 0 01-.038-1.234c-.025-1.122-.049-2.718-.087-4.738-.075-4.152-.187-10.099-.336-17.43-.312-14.711-.911-35.046-1.534-57.5-.15-5.61-.299-11.096-.436-16.382-.088-2.631-.362-5.237-.225-7.818.125-2.556.698-5.174 2.269-7.181 1.546-2.02 3.853-3.192 6.097-3.765 2.282-.586 4.551-.711 6.72-.748 4.326.012 8.353.025 12.044.037 7.331.05 13.278.087 17.429.125 2.02.025 3.616.05 4.738.062.511.013.923.025 1.234.038.3.037.437.049.437.062z" fill="#455A64"/><path opacity=".2" d="M327.384 386.603s-1.147-14.774 4.388-23.277l-.885 23.713-3.503-.436z" fill="#000"/><path d="M329.777 372.552c0 .013-.112 0-.337-.037-.262-.05-.573-.1-.972-.175-.848-.149-2.107-.411-3.74-.586-1.621-.162-3.653-.261-5.898.35-1.109.311-2.256.785-3.304 1.558-1.047.761-1.932 1.845-2.555 3.142-1.272 2.618-1.397 5.897-1.472 9.338-.087 3.466-.174 7.156-.274 11.046-.212 7.78-.436 16.333-.673 25.31-.536 17.94-1.01 34.173-1.359 45.98-.2 5.847-.374 10.585-.486 13.926-.075 1.609-.125 2.868-.162 3.79-.025.399-.038.723-.063.985-.012.225-.037.337-.037.337-.013 0-.025-.112-.025-.337v-.985c.012-.922.025-2.181.05-3.79.062-3.341.162-8.091.274-13.939.299-11.806.711-28.052 1.172-45.98.262-8.977.499-17.517.723-25.309.112-3.89.225-7.58.337-11.046.1-3.429.237-6.795 1.596-9.526.66-1.346 1.62-2.493 2.73-3.266 1.11-.786 2.307-1.272 3.454-1.571 2.306-.586 4.388-.449 6.009-.249 1.646.224 2.892.511 3.728.71.386.1.71.175.96.237.224.038.324.075.324.087z" fill="#455A64"/><path d="M327.483 278.51s-31.319 31.393-37.291 38.425c-5.099 5.997-1.77 17.305 2.494 17.791 4.264.486 73.284-.449 73.284-.449l-.91-14.113s-44.696.199-46.018-.623c-1.309-.823 25.858-28.289 25.858-28.289l-17.417-12.742z" fill="#FFBE9D"/><path d="M410.255 282.612s9.513 28.825 10.66 32.241c1.147 3.404 7.057 17.817-4.164 19.026-11.221 1.209-71.452 0-71.452 0l-4.476-14.575s58.211-.149 57.912-3.254c-.299-3.104-8.839-29.149-8.839-29.149l20.359-4.289z" fill="#FFBE9D"/><path d="M283.188 273.621l21.631 59.92 99.578-.038-.685-2.93-37.366-1.371-18.402-56.503-64.756.922z" fill="#263238"/><path d="M327.571 300.899c.399 2.219-.822 4.289-2.718 4.626-1.895.336-3.74-1.185-4.139-3.404s.823-4.289 2.718-4.626c1.883-.336 3.74 1.185 4.139 3.404z" fill="#FAFAFA"/><path d="M455.9 332.231H215.55v172.041h5.099V342.368H455.9v162.028h60.131V332.231H455.9z" fill="#455A64"/><path d="M166.464 497.552v-12.879l-23.078-.15-.187 19.25 1.434.1c6.371.412 32.391 1.21 36.655-.112 4.75-1.459-14.824-6.209-14.824-6.209z" fill="#13ACAC"/><path d="M181.836 502.587c0 .212-8.628.399-19.275.399-10.647 0-19.275-.174-19.275-.399 0-.212 8.628-.386 19.275-.386 10.635 0 19.275.174 19.275.386zM166.875 500.181c-.187-.099-.025-.785.474-1.446.499-.673 1.097-1.035 1.247-.885.149.15-.162.723-.611 1.346-.474.611-.923 1.085-1.11.985zM168.348 501.029c-.2-.075-.1-.835.361-1.646.449-.81 1.047-1.284 1.222-1.159.174.137-.112.785-.536 1.546-.437.748-.848 1.334-1.047 1.259z" fill="#263238"/><path d="M150.231 502.501c-.087.062-.436-.274-.935-.848-.498-.561-1.159-1.359-2.019-2.019-.861-.674-1.796-1.01-2.494-1.098-.698-.099-1.159.013-1.197-.099-.037-.088.387-.412 1.222-.462.823-.05 1.982.262 2.955 1.023.972.76 1.596 1.67 1.995 2.319.374.685.561 1.134.473 1.184zM166.937 497.763c.112.187-.287.623-.948.873-.66.249-1.246.162-1.284-.05-.037-.212.437-.474 1.01-.686.586-.212 1.11-.324 1.222-.137zM166.576 496.516c.025.212-.599.399-1.372.412-.773.012-1.396-.162-1.384-.374.013-.212.624-.399 1.372-.412.748-.012 1.371.162 1.384.374z" fill="#263238"/><path d="M233.38 113.437l.212-3.889s.511-2.332.486-6.546c0-1.097-.2-2.169-.574-3.204-.448-1.247-1.109-2.88-1.745-3.653-.798-.96 0-2.394 1.097-2.107 1.097.287 3.341 2.892 4.364 6.782 1.022 3.89 3.64-1.87 4.625-3.952.998-2.082 4.364-8.378 5.249-8.578 1.297-.299 1.845 1.035.81 3.092-1.047 2.082-3.727 8.44-2.605 8.915 0 0 1.608-.387 2.456-.1.287.1.486.262.511.548.112 1.135.362 1.796.362 1.796s1.546-.499 1.932.162c.387.661.499 2.169.499 2.169s1.172-.523 1.795-.124c1.347.872-.1 2.705-.1 2.705-3.279 5.174-10.385 13.079-10.385 13.079l-9.064-7.294M122.543 113.188l-.149 49.733 21.332 1.023.61-12.094s7.581 1.509 9.538-5.535c1.247-4.501.935-39.236.935-39.236l-32.266 6.109z" fill="#FFBE9D"/><path d="M153.588 99.35c-6.495 2.107-8.054 2.805-10.971 3.042-2.793.224-22.679.237-24.474 11.383a8.04 8.04 0 01-.561-1.633c-.424-1.758-.062-3.242-.249-3.292-.15-.087-.848 1.471-.387 3.441.062.25.125.499.212.723a6.004 6.004 0 00-.399-.399c-.86-.735-1.808-1.172-2.518-1.346-.711-.175-1.172-.137-1.185-.062-.037.187 1.708.498 3.279 1.895.786.66 1.322 1.408 1.683 1.994 0 .05-.012.1-.012.15 0 0-4.252-1.87-3.129 5.835 1.122 7.705 6.159 14.25 6.769 26.867 0 0 17.63 2.107 20.759-4.675l2.631-7.767s-4.239-.686-3.741-4.102c.686-4.713 4.289-4.837 6.97-2.73l3.092-8.291s7.829-5.137 8.278-8.404c.436-3.278.436-14.724-6.047-12.63z" fill="#263238"/><path d="M63.52 487.927l-3.13 13.914 21.545 2.655.773-13.777-19.188-2.792z" fill="#13ACAC"/><path d="M73.245 488.611c.175.025-.137 2.892-.71 6.383-.574 3.504-1.172 6.309-1.347 6.284-.175-.025.137-2.893.71-6.384.562-3.503 1.173-6.321 1.347-6.283z" fill="#263238"/><path d="M82.023 502.987c-.025.088-1.21-.087-3.117-.386-2.145-.349-4.675-.761-7.468-1.209-2.918-.487-5.56-.973-7.456-1.397-1.895-.424-3.054-.76-3.03-.848.026-.087 1.21.088 3.117.387 2.145.349 4.676.761 7.468 1.209 2.918.487 5.561.973 7.456 1.397 1.895.424 3.042.76 3.03.847zM95.45 269.232L55.59 493.249l34.137 1.932s36.256-193.097 41.579-193.584c2.232-.199 3.13 192.051 4.913 191.64 1.795-.412 36.879.623 36.879.623s-4.75-227.484-4.663-227.484c.1 0-72.985 2.856-72.985 2.856z" fill="#263238"/><path d="M145.882 296.898c.037.174-5.885 1.583-13.216 3.142-7.331 1.558-13.315 2.68-13.352 2.506-.038-.175 5.872-1.584 13.215-3.142 7.344-1.559 13.316-2.681 13.353-2.506zM92.233 482.03c0 .175-7.717.087-17.23-.212-9.513-.299-17.218-.673-17.218-.86 0-.175 7.718-.087 17.23.212 9.513.299 17.218.686 17.218.86zM172.862 482.043c0 .174-8.341.074-18.602-.225-10.273-.311-18.589-.698-18.589-.885 0-.174 8.328-.075 18.602.224 10.273.325 18.589.711 18.589.886z" fill="#455A64"/><path d="M112.492 303.107c.175.037-8.266 39.996-18.863 89.243-10.598 49.259-19.325 89.156-19.5 89.118-.174-.037 8.267-39.996 18.864-89.255 10.585-49.247 19.325-89.143 19.499-89.106zM154.41 481.493c-.013 0-.025-.162-.05-.461a55.388 55.388 0 00-.075-1.359c-.05-1.235-.125-2.98-.224-5.224-.187-4.539-.412-11.096-.649-19.213-.473-16.22-.935-38.649-1.059-63.41-.113-24.773.137-47.202.448-63.435.162-8.116.325-14.674.462-19.213.074-2.231.137-3.989.174-5.223.025-.574.05-1.023.063-1.359.012-.312.037-.462.037-.462.012 0 .025.162.025.462v1.359c-.013 1.234-.025 2.979-.05 5.223-.062 4.576-.15 11.134-.249 19.213-.2 16.233-.374 38.649-.262 63.423.125 24.76.511 47.177.873 63.397.187 8.079.336 14.637.436 19.213.05 2.244.075 3.989.1 5.224 0 .573.012 1.022.012 1.359 0 .324 0 .486-.012.486z" fill="#455A64"/><path d="M229.863 112.317s-26.431 39.872-28.675 42.116c-2.245 2.244-43.637 6.595-43.637 6.595-12.704-2.867-53.798-1.92-61.565 3.79-6.72 3.716-14.874 12.406-19.075 33.077-7.17 35.258-14.338 48.249 0 53.174 6.62 2.282 12.854 3.503 17.654 4.152l-.4 15.958 74.308-4.613-3.803-39.634c-.449-11.121-.648-22.729-.935-32.989 4.65-1.758 47.863-18.116 50.83-18.54 3.142-.449 31.431-52.775 31.431-52.775.885-6.271-16.133-10.311-16.133-10.311z" fill="#13ACAC"/><path d="M96.596 184.479c.174 0-.225 19.424-.886 43.362-.673 23.95-1.359 43.35-1.533 43.35-.175 0 .224-19.412.885-43.362.66-23.95 1.347-43.35 1.534-43.35zM204.915 163.409c-.174.1-1.259-1.845-2.169-4.376-.898-2.531-1.696-4.526-1.559-4.601.175-.099 1.26 1.846 2.17 4.377.897 2.53 1.695 4.513 1.558 4.6z" fill="#263238"/><path d="M207.87 160.018c-.125.112-1.633-1.072-3.541-2.531s-3.279-2.905-3.142-3.042c.112-.112 1.633 1.072 3.541 2.531 1.92 1.458 3.291 2.905 3.142 3.042zM244.55 125.758c-.062.075-.985-.536-2.506-1.509a87.353 87.353 0 00-6.047-3.553 90.614 90.614 0 00-6.309-3.054c-1.645-.724-2.668-1.16-2.643-1.247.025-.075 1.11.199 2.818.823a52.216 52.216 0 016.446 2.917c2.443 1.309 4.538 2.681 5.997 3.753 1.458 1.06 2.306 1.808 2.244 1.87zM95.7 228.029c-.026.162-2.083.038-4.602-.474-2.505-.511-4.438-1.309-4.388-1.471.062-.174 2.045.337 4.513.836 2.481.498 4.514.91 4.476 1.109zM164.345 160.455c.013.125-1.596.125-3.989.935-2.369.786-5.524 2.581-7.755 5.698-2.219 3.129-2.893 6.695-2.868 9.189.013 2.518.536 4.039.412 4.077-.038.012-.2-.35-.399-1.048-.2-.685-.399-1.72-.474-3.017-.15-2.556.474-6.296 2.805-9.575 2.344-3.267 5.673-5.074 8.141-5.76 1.247-.362 2.282-.499 3.005-.536.723-.038 1.122 0 1.122.037zM168.473 266.565c.012.174-16.619 1.359-37.129 2.631-20.521 1.271-37.165 2.169-37.178 1.982-.012-.175 16.607-1.359 37.128-2.631 20.522-1.271 37.166-2.157 37.179-1.982zM138.874 159.683c.025 0 .1.311.225.922.05.312.149.686.199 1.135.038.461.088.985.15 1.571.149 2.356-.112 5.872-1.608 9.874-1.534 3.927-4.389 8.465-9.251 11.47-.586.399-1.247.698-1.895 1.023-.649.336-1.334.585-2.02.835-1.384.499-2.818.922-4.239 1.421-1.421.499-2.83 1.085-4.114 1.92a14.832 14.832 0 00-3.379 3.179c-1.958 2.506-3.292 5.374-4.912 7.967-1.571 2.606-3.554 4.987-6.11 6.359-2.543 1.346-5.348 1.67-7.842 1.446a18.711 18.711 0 01-6.682-1.908c-3.84-1.882-6.384-4.301-8.054-5.934a63.048 63.048 0 01-1.883-1.97c-.411-.461-.623-.711-.61-.723.012-.013.261.199.697.636.5.473 1.147 1.097 1.958 1.882 1.72 1.584 4.276 3.915 8.079 5.71a18.197 18.197 0 006.533 1.783c2.418.187 5.112-.149 7.518-1.446 2.406-1.309 4.301-3.591 5.847-6.159 1.583-2.556 2.917-5.448 4.937-8.029 1.01-1.297 2.194-2.431 3.528-3.329 1.347-.873 2.818-1.484 4.252-1.982 1.434-.474 2.855-.948 4.239-1.409.673-.249 1.359-.486 1.982-.811.636-.311 1.272-.586 1.845-.972 4.738-2.88 7.581-7.294 9.139-11.121 1.521-3.915 1.858-7.356 1.783-9.687-.025-.574-.062-1.098-.087-1.559-.038-.449-.112-.823-.137-1.134-.075-.636-.113-.96-.088-.96zM167.012 251.343c-.025.024-.287-.187-.835-.537a7.512 7.512 0 00-2.568-1.047c-1.185-.262-2.693-.262-4.439-.399-1.733-.137-3.715-.149-5.922-.237-2.194-.087-4.638-.274-7.156-.997-2.506-.711-5.1-1.87-7.481-3.603-2.381-1.721-4.576-4.015-6.122-6.832-1.546-2.806-2.493-6.097-2.506-9.513-.037-3.416.923-6.758 2.681-9.463 1.733-2.718 4.139-4.85 6.795-6.159a15.763 15.763 0 014.089-1.359c1.384-.249 2.731-.312 4.027-.337 2.593-.025 5 .088 7.157-.212 4.376-.448 7.331-3.029 8.34-5.199.549-1.084.686-2.032.773-2.668.075-.636.063-.985.1-.985.013 0 .025.088.025.25.013.162.025.411 0 .735a7.453 7.453 0 01-.673 2.768c-.511 1.135-1.484 2.394-2.918 3.429-1.421 1.072-3.378 1.808-5.585 2.107-2.207.336-4.638.249-7.206.299-1.284.025-2.606.112-3.94.349a15.541 15.541 0 00-3.927 1.334c-2.544 1.284-4.863 3.341-6.521 5.972-1.683 2.606-2.593 5.822-2.568 9.114.012 3.304.922 6.495 2.418 9.213 1.497 2.731 3.604 4.975 5.91 6.658 2.319 1.696 4.838 2.843 7.281 3.566 2.456.735 4.85.947 7.032 1.06 2.182.112 4.177.149 5.922.336 1.733.162 3.254.2 4.463.511a7.338 7.338 0 012.594 1.185c.261.187.461.349.573.461.125.137.187.2.187.2z" fill="#263238"/><path d="M125.708 269.607c-.087 0 .187-.972-.15-2.668-.311-1.645-1.309-4.151-3.84-5.909a8.567 8.567 0 00-2.119-1.035c-.786-.249-1.646-.387-2.544-.474-1.795-.199-3.802-.137-5.834-.785a7.299 7.299 0 01-2.793-1.696c-.798-.785-1.434-1.758-1.895-2.818-.91-2.119-1.16-4.575-.811-6.969.699-4.8 2.806-8.927 3.167-12.991.225-2.007.087-3.965-.511-5.648a8.19 8.19 0 00-2.892-3.915c-2.494-1.808-5.175-1.982-6.833-1.745-1.708.249-2.543.798-2.568.723 0 0 .785-.636 2.53-.973 1.696-.324 4.489-.224 7.145 1.621a8.52 8.52 0 013.129 4.102c.661 1.77.811 3.815.599 5.897-.362 4.202-2.457 8.378-3.117 13.016-.337 2.307-.1 4.626.748 6.633.436.997 1.022 1.895 1.745 2.631a6.851 6.851 0 002.556 1.571c1.895.636 3.878.598 5.71.823.923.099 1.808.261 2.643.523a9.138 9.138 0 012.232 1.135 9.443 9.443 0 013.828 6.246c.137.873.087 1.558.037 2.02-.087.449-.137.685-.162.685zM123.227 200.613c-.012-.025.262-.262.873-.449s1.596-.262 2.693.175c.536.224 1.11.573 1.571 1.097.461.523.81 1.234.91 2.032.212 1.546-.486 3.454-2.157 4.364-1.695.86-3.665.324-4.8-.748a3.629 3.629 0 01-1.097-1.933 4.087 4.087 0 01.087-1.92c.337-1.134 1.023-1.858 1.559-2.207.536-.361.91-.399.91-.374.025.05-.299.187-.761.574a4.02 4.02 0 00-1.259 2.119c-.262 1.01-.075 2.394.973 3.292.984.897 2.705 1.321 4.101.611 1.372-.736 2.02-2.382 1.858-3.716-.125-1.384-1.11-2.356-2.07-2.78a4.197 4.197 0 00-2.456-.349c-.598.112-.91.262-.935.212zM85.85 253.774c-.137-.025.449-2.194.586-5.76.025-.885.05-1.87-.037-2.917-.013-1.047-.187-2.157-.337-3.329a38.403 38.403 0 00-1.982-7.381 38.362 38.362 0 00-3.553-6.77c-.686-.96-1.31-1.882-2.008-2.668a24.637 24.637 0 00-1.945-2.157c-2.518-2.53-4.413-3.715-4.326-3.84.025-.037.499.25 1.334.811.424.274.935.623 1.484 1.097.548.461 1.209.948 1.832 1.608.661.624 1.36 1.322 2.045 2.145.723.785 1.384 1.72 2.095 2.68a35.657 35.657 0 013.653 6.87 36.81 36.81 0 011.97 7.53c.124 1.197.286 2.319.274 3.392.062 1.059.012 2.057-.05 2.954-.025.91-.175 1.708-.262 2.419a12.245 12.245 0 01-.349 1.808c-.224.985-.386 1.521-.424 1.508zM215.214 174.857c-.025.05-.673-.275-1.857-.823a63.909 63.909 0 00-5.087-2.132c-2.182-.786-4.85-1.584-7.88-1.995-3.029-.411-6.445-.374-9.849.486-3.416.848-6.433 2.494-8.652 4.563-2.232 2.07-3.703 4.476-4.451 6.646-.761 2.181-.848 4.077-.748 5.361.099 1.296.299 1.995.224 2.007-.025 0-.087-.162-.175-.499-.112-.336-.212-.835-.299-1.483-.174-1.297-.162-3.267.574-5.536.71-2.257 2.194-4.775 4.476-6.932 2.269-2.169 5.398-3.89 8.901-4.763 3.516-.885 7.02-.91 10.099-.448 3.092.448 5.773 1.309 7.967 2.157a47.07 47.07 0 015.037 2.331c.573.312 1.022.561 1.309.748.274.187.424.287.411.312zM225.423 119.001c.013-.013.137.087.337.286.199.212.523.499.86.948.711.86 1.596 2.232 2.306 4.114.724 1.87 1.147 4.277.985 6.932a17.107 17.107 0 01-2.705 8.129c-1.708 2.568-4.089 4.451-6.471 5.61a17.258 17.258 0 01-6.77 1.796c-2.007.099-3.615-.137-4.7-.437-.548-.112-.947-.299-1.222-.386-.274-.1-.411-.162-.411-.187.025-.162 2.369.873 6.284.548 1.944-.149 4.238-.698 6.533-1.87 2.294-1.147 4.55-2.979 6.196-5.436a16.813 16.813 0 002.655-7.817c.188-2.568-.174-4.9-.822-6.732-1.272-3.703-3.205-5.399-3.055-5.498zM144.024 159.507c0 .175-4.85.362-10.834.412-5.985.049-10.835-.063-10.835-.237 0-.175 4.85-.362 10.835-.412 5.972-.05 10.822.063 10.834.237z" fill="#263238"/><ellipse cx="379.254" cy="223.686" rx="4.168" ry="6.251" fill="#13ACAC"/><path fill-rule="evenodd" clip-rule="evenodd" d="M378.326 205.325c2.175 4.385 2.407 9.68 1.965 13.216l-1.034-.129c.426-3.411.19-8.482-1.864-12.624-1.023-2.063-2.491-3.883-4.542-5.165-2.05-1.281-4.715-2.045-8.169-1.943-6.978.205-11.362 2.381-14.018 4.958-3.334 3.234-5.272 8.587-5.272 8.587s1.682-6.556 4.546-9.335c2.875-2.788 7.521-5.04 14.713-5.252 3.631-.106 6.505.697 8.752 2.101 2.245 1.403 3.832 3.386 4.923 5.586zm-4.236 28.429c1.549-1.816 2.615-3.798 3.117-5.052l.967.387c-.54 1.35-1.663 3.432-3.291 5.341-1.627 1.906-3.797 3.686-6.444 4.348-5.041 1.26-8.452 1.24-9.589 1.05l.172-1.028c.946.158 4.203.207 9.165-1.033 2.355-.589 4.351-2.195 5.903-4.013z" fill="#13ACAC"/><circle cx="360.499" cy="239.314" r="2.084" fill="#13ACAC"/></g><defs><clipPath id="clip0"><path fill="#fff" transform="translate(0 .718)" d="M0 0h547v504.282H0z"/></clipPath></defs></svg>