<svg width="22" height="16" fill="none" xmlns="http://www.w3.org/2000/svg"><path d="M21.62 15.207H.38a.38.38 0 01-.38-.38V1.174c0-.21.17-.38.38-.38h21.24c.21 0 .38.17.38.38v13.655c0 .21-.17.379-.38.379z" fill="#F5F5F5"/><path d="M22 1.902H0v-.73C0 .964.17.794.38.794h21.24c.21 0 .38.17.38.38v.729zM22 5.228H0v1.109h22V5.228zM22 3.01H0v1.11h22V3.01zM22 8.555H.38a.38.38 0 01-.38-.38v-.73h22v1.11zM22 11.881H0v1.109h22V11.88zM21.62 15.207H.38a.38.38 0 01-.38-.38v-.729h22v.73c0 .21-.17.379-.38.379zM22 9.663H0v1.11h22v-1.11z" fill="#FF4B55"/><path d="M9.862.793H.379a.38.38 0 00-.379.38v7.002c0 .21.17.38.38.38h9.482c.21 0 .38-.17.38-.38V1.172a.38.38 0 00-.38-.379z" fill="#41479B"/><path d="M1.065 1.664l.084.252.266.002c.034 0 .048.044.02.064l-.213.158.08.253a.036.036 0 01-.055.04l-.216-.154-.216.154a.036.036 0 01-.055-.04l.08-.253-.213-.158a.036.036 0 01.021-.064l.265-.002.084-.252a.036.036 0 01.068 0zM1.065 2.98l.084.253.266.002c.034 0 .048.044.02.064l-.213.158.08.253a.036.036 0 01-.055.04l-.216-.155-.216.155a.036.036 0 01-.055-.04l.08-.253-.213-.158a.036.036 0 01.021-.064l.265-.002.084-.252a.036.036 0 01.068 0zM1.065 4.298l.084.252.266.002c.034 0 .048.044.02.064l-.213.158.08.253a.036.036 0 01-.055.04l-.216-.154-.216.154a.036.036 0 01-.055-.04l.08-.253-.213-.158a.036.036 0 01.021-.064l.265-.002.084-.252a.036.036 0 01.068 0zM1.065 5.615l.084.252.266.002c.034 0 .048.044.02.064l-.213.158.08.253a.036.036 0 01-.055.04l-.216-.154-.216.154a.036.036 0 01-.055-.04l.08-.253-.213-.158a.036.036 0 01.021-.064l.265-.002.084-.252a.036.036 0 01.068 0zM1.065 6.932l.084.252.266.002c.034 0 .048.044.02.065l-.213.157.08.253a.036.036 0 01-.055.04l-.216-.154-.216.154a.036.036 0 01-.055-.04l.08-.253-.213-.157a.036.036 0 01.021-.065l.265-.002.084-.252a.036.036 0 01.068 0zM2.087 2.31l.084.251.266.002c.034 0 .048.044.02.065l-.213.157.08.253a.036.036 0 01-.054.04l-.216-.154-.216.154a.036.036 0 01-.055-.04l.08-.253-.214-.157a.036.036 0 01.021-.065l.266-.002.084-.252a.036.036 0 01.067 0zM2.087 3.627l.084.251.266.002c.034 0 .048.044.02.065l-.213.158.08.253a.036.036 0 01-.054.04l-.216-.155-.216.154a.036.036 0 01-.055-.04l.08-.252-.214-.158a.036.036 0 01.021-.065l.266-.002.084-.251a.036.036 0 01.067 0zM2.087 4.944l.084.251.266.002c.034 0 .048.045.02.065l-.213.158.08.253a.036.036 0 01-.054.04l-.216-.155-.216.155a.036.036 0 01-.055-.04l.08-.253-.214-.158a.036.036 0 01.021-.065l.266-.002.084-.251a.036.036 0 01.067 0zM2.087 6.261l.084.252.266.002c.034 0 .048.044.02.064l-.213.158.08.253a.036.036 0 01-.054.04l-.216-.154-.216.154a.036.036 0 01-.055-.04l.08-.253-.214-.158a.036.036 0 01.021-.064l.266-.002.084-.252a.036.036 0 01.067 0zM3.11 1.664l.084.251.265.002c.035 0 .049.045.021.065l-.213.158.08.253a.036.036 0 01-.055.04l-.216-.155-.216.155a.036.036 0 01-.055-.04l.08-.253-.213-.158a.036.036 0 01.02-.065l.266-.002.084-.251a.036.036 0 01.068 0zM3.11 2.98l.084.253.265.002c.035 0 .049.044.021.064l-.213.158.08.253a.036.036 0 01-.055.04l-.216-.155-.216.155a.036.036 0 01-.055-.04l.08-.253-.213-.158a.036.036 0 01.02-.064l.266-.002.084-.252a.036.036 0 01.068 0zM3.11 4.298l.084.252.265.002c.035 0 .049.044.021.064l-.213.158.08.253a.036.036 0 01-.055.04l-.216-.155-.216.155a.036.036 0 01-.055-.04l.08-.253-.213-.158a.036.036 0 01.02-.064l.266-.002.084-.252a.036.036 0 01.068 0zM3.11 5.615l.084.252.265.002c.035 0 .049.044.021.064l-.213.158.08.253a.036.036 0 01-.055.04l-.216-.154-.216.154a.036.036 0 01-.055-.04l.08-.253-.213-.158a.036.036 0 01.02-.064l.266-.002.084-.252a.036.036 0 01.068 0zM3.11 6.932l.084.252.265.002c.035 0 .049.044.021.065l-.213.157.08.253a.036.036 0 01-.055.04l-.216-.154-.216.154a.036.036 0 01-.055-.04l.08-.253-.213-.157a.036.036 0 01.02-.065l.266-.002.084-.252a.036.036 0 01.068 0zM4.132 2.31l.084.251.266.002c.034 0 .048.044.02.065l-.213.157.08.253a.036.036 0 01-.055.04l-.216-.154-.216.154a.036.036 0 01-.054-.04l.08-.253-.214-.157a.036.036 0 01.021-.065l.266-.002.083-.252a.036.036 0 01.068 0zM4.132 3.627l.084.251.266.002c.034 0 .048.044.02.065l-.213.158.08.253a.036.036 0 01-.055.04l-.216-.155-.216.154a.036.036 0 01-.054-.04l.08-.252-.214-.158a.036.036 0 01.021-.065l.266-.002.083-.251a.036.036 0 01.068 0zM4.132 4.944l.084.251.266.002c.034 0 .048.045.02.065l-.213.158.08.253a.036.036 0 01-.055.04l-.216-.155-.216.155a.036.036 0 01-.054-.04l.08-.253-.214-.158a.036.036 0 01.021-.065l.266-.002.083-.251a.036.036 0 01.068 0zM4.132 6.261l.084.252.266.002c.034 0 .048.044.02.064l-.213.158.08.253a.036.036 0 01-.055.04l-.216-.154-.216.154a.036.036 0 01-.054-.04l.08-.253-.214-.158a.036.036 0 01.021-.064l.266-.002.083-.252a.036.036 0 01.068 0zM5.155 1.664l.084.251.265.002c.034 0 .049.045.02.065l-.213.158.08.253a.036.036 0 01-.054.04l-.216-.155-.216.155a.036.036 0 01-.055-.04l.08-.253-.214-.158a.036.036 0 01.021-.065l.266-.002.084-.251a.036.036 0 01.068 0zM5.155 2.98l.084.253.265.002c.034 0 .049.044.02.064l-.213.158.08.253a.036.036 0 01-.054.04l-.216-.155-.216.155a.036.036 0 01-.055-.04l.08-.253-.214-.158a.036.036 0 01.021-.064l.266-.002.084-.252a.036.036 0 01.068 0zM5.155 4.298l.084.252.265.002c.034 0 .049.044.02.064l-.213.158.08.253a.036.036 0 01-.054.04l-.216-.155-.216.155a.036.036 0 01-.055-.04l.08-.253-.214-.158a.036.036 0 01.021-.064l.266-.002.084-.252a.036.036 0 01.068 0zM5.155 5.615l.084.252.265.002c.034 0 .049.044.02.064l-.213.158.08.253a.036.036 0 01-.054.04L5.12 6.23l-.216.154a.036.036 0 01-.055-.04l.08-.253-.214-.158a.036.036 0 01.021-.064l.266-.002.084-.252a.036.036 0 01.068 0zM5.155 6.932l.084.252.265.002c.034 0 .049.044.02.065l-.213.157.08.253a.036.036 0 01-.054.04l-.216-.154-.216.154a.036.036 0 01-.055-.04l.08-.253-.214-.157a.036.036 0 01.021-.065l.266-.002.084-.252a.036.036 0 01.068 0zM6.177 2.31l.084.251.265.002c.035 0 .049.044.021.065l-.213.157.08.253a.036.036 0 01-.055.04l-.216-.154-.216.154a.036.036 0 01-.055-.04l.08-.253-.213-.157a.036.036 0 01.02-.065l.266-.002.084-.252a.036.036 0 01.068 0zM6.177 3.627l.084.251.265.002c.035 0 .049.044.021.065l-.213.158.08.253a.036.036 0 01-.055.04l-.216-.155-.216.154a.036.036 0 01-.055-.04l.08-.252-.213-.158a.036.036 0 01.02-.065l.266-.002.084-.251a.036.036 0 01.068 0zM6.177 4.944l.084.251.265.002c.035 0 .049.045.021.065l-.213.158.08.253a.036.036 0 01-.055.04l-.216-.155-.216.155a.036.036 0 01-.055-.04l.08-.253-.213-.158a.036.036 0 01.02-.065l.266-.002.084-.251a.036.036 0 01.068 0zM6.177 6.261l.084.252.265.002c.035 0 .049.044.021.064l-.213.158.08.253a.036.036 0 01-.055.04l-.216-.154-.216.154a.036.036 0 01-.055-.04l.08-.253-.213-.158a.036.036 0 01.02-.064l.266-.002.084-.252a.036.036 0 01.068 0zM7.2 1.664l.083.251.266.002c.034 0 .048.045.02.065l-.213.158.08.253a.036.036 0 01-.055.04l-.216-.155-.216.155a.036.036 0 01-.054-.04l.08-.253-.214-.158a.036.036 0 01.021-.065l.266-.002.084-.251a.036.036 0 01.067 0zM7.2 2.98l.083.253.266.002c.034 0 .048.044.02.064l-.213.158.08.253a.036.036 0 01-.055.04l-.216-.155-.216.155a.036.036 0 01-.054-.04l.08-.253-.214-.158a.036.036 0 01.021-.064l.266-.002.084-.252a.036.036 0 01.067 0zM7.2 4.298l.083.252.266.002c.034 0 .048.044.02.064l-.213.158.08.253a.036.036 0 01-.055.04l-.216-.155-.216.155a.036.036 0 01-.054-.04l.08-.253-.214-.158a.036.036 0 01.021-.064l.266-.002.084-.252a.036.036 0 01.067 0zM7.2 5.615l.083.252.266.002c.034 0 .048.044.02.064l-.213.158.08.253a.036.036 0 01-.055.04l-.216-.154-.216.154a.036.036 0 01-.054-.04l.08-.253-.214-.158a.036.036 0 01.021-.064l.266-.002.084-.252a.036.036 0 01.067 0zM7.2 6.932l.083.252.266.002c.034 0 .048.044.02.065l-.213.157.08.253a.036.036 0 01-.055.04l-.216-.154-.216.154a.036.036 0 01-.054-.04l.08-.253-.214-.157a.036.036 0 01.021-.065l.266-.002.084-.252a.036.036 0 01.067 0zM8.222 2.31l.084.251.265.002c.035 0 .049.044.021.065l-.213.157.08.253a.036.036 0 01-.055.04l-.216-.154-.216.154a.036.036 0 01-.055-.04l.08-.253-.213-.157a.036.036 0 01.02-.065l.266-.002.084-.252a.036.036 0 01.068 0zM8.222 3.627l.084.251.265.002c.035 0 .049.044.021.065l-.213.158.08.253a.036.036 0 01-.055.04l-.216-.155-.216.154a.036.036 0 01-.055-.04l.08-.252-.213-.158a.036.036 0 01.02-.065l.266-.002.084-.251a.036.036 0 01.068 0zM8.222 4.944l.084.251.265.002c.035 0 .049.045.021.065l-.213.158.08.253a.036.036 0 01-.055.04l-.216-.155-.216.155a.036.036 0 01-.055-.04l.08-.253-.213-.158a.036.036 0 01.02-.065l.266-.002.084-.251a.036.036 0 01.068 0zM8.222 6.261l.084.252.265.002c.035 0 .049.044.021.064l-.213.158.08.253a.036.036 0 01-.055.04l-.216-.154-.216.154a.036.036 0 01-.055-.04l.08-.253-.213-.158a.036.036 0 01.02-.064l.266-.002.084-.252a.036.036 0 01.068 0zM9.244 1.664l.084.251.265.002c.035 0 .05.045.021.065l-.213.158.08.253a.036.036 0 01-.055.04l-.216-.155-.216.155a.036.036 0 01-.055-.04l.08-.253-.213-.158a.036.036 0 01.02-.065l.266-.002.084-.251a.036.036 0 01.068 0zM9.244 2.98l.084.253.265.002c.035 0 .05.044.021.064l-.213.158.08.253a.036.036 0 01-.055.04l-.216-.155-.216.155a.036.036 0 01-.055-.04l.08-.253-.213-.158a.036.036 0 01.02-.064l.266-.002.084-.252a.036.036 0 01.068 0zM9.244 4.298l.084.252.265.002c.035 0 .05.044.021.064l-.213.158.08.253a.036.036 0 01-.055.04l-.216-.155-.216.155a.036.036 0 01-.055-.04l.08-.253-.213-.158a.036.036 0 01.02-.064l.266-.002.084-.252a.036.036 0 01.068 0zM9.244 5.615l.084.252.265.002c.035 0 .05.044.021.064l-.213.158.08.253a.036.036 0 01-.055.04L9.21 6.23l-.216.154a.036.036 0 01-.055-.04l.08-.253-.213-.158a.036.036 0 01.02-.064l.266-.002.084-.252a.036.036 0 01.068 0zM9.244 6.932l.084.252.265.002c.035 0 .05.044.021.065l-.213.157.08.253a.036.036 0 01-.055.04l-.216-.154-.216.154a.036.036 0 01-.055-.04l.08-.253-.213-.157a.036.036 0 01.02-.065l.266-.002.084-.252a.036.036 0 01.068 0z" fill="#F5F5F5"/></svg>