<svg width="198" height="30" fill="none" xmlns="http://www.w3.org/2000/svg"><path d="M44.28 29.98c-2.213 0-4.2-.467-5.96-1.4-1.76-.934-3.133-2.227-4.12-3.88-.987-1.68-1.48-3.574-1.48-5.68 0-2.107.493-3.987 1.48-5.64.987-1.654 2.347-2.947 4.08-3.88 1.76-.934 3.76-1.4 6-1.4 2.107 0 3.947.426 5.52 1.28 1.6.853 2.8 2.08 3.6 3.68l-3.84 2.24c-.613-.987-1.387-1.72-2.32-2.2-.907-.507-1.907-.76-3-.76-1.867 0-3.413.613-4.64 1.84-1.227 1.2-1.84 2.813-1.84 4.84 0 2.026.6 3.653 1.8 4.88 1.227 1.2 2.787 1.8 4.68 1.8 1.093 0 2.093-.24 3-.72.933-.507 1.707-1.254 2.32-2.24l3.84 2.24c-.827 1.6-2.04 2.84-3.64 3.72-1.573.853-3.4 1.28-5.48 1.28zM78.402 8.34V29.7h-4.76v-2.72c-.8.96-1.8 1.706-3 2.24-1.2.506-2.493.76-3.88.76-2.853 0-5.106-.787-6.76-2.36-1.627-1.6-2.44-3.96-2.44-7.08V8.34h5v11.52c0 1.92.427 3.36 1.28 4.32.88.933 2.12 1.4 3.72 1.4 1.787 0 3.2-.547 4.24-1.64 1.067-1.12 1.6-2.72 1.6-4.8V8.34h5zM89.709 11.46c1.44-2.24 3.973-3.36 7.6-3.36v4.76a6.347 6.347 0 00-1.16-.12c-1.947 0-3.467.573-4.56 1.72-1.094 1.12-1.64 2.746-1.64 4.88V29.7h-5V8.34h4.76v3.12zM121.435 19.14c0 .346-.027.84-.08 1.48h-16.76c.293 1.573 1.053 2.826 2.28 3.76 1.253.906 2.8 1.36 4.64 1.36 2.347 0 4.28-.774 5.8-2.32l2.68 3.08c-.96 1.146-2.173 2.013-3.64 2.6-1.467.586-3.12.88-4.96.88-2.347 0-4.413-.467-6.2-1.4-1.787-.934-3.173-2.227-4.16-3.88-.96-1.68-1.44-3.574-1.44-5.68 0-2.08.467-3.947 1.4-5.6.96-1.68 2.28-2.987 3.96-3.92 1.68-.934 3.573-1.4 5.68-1.4 2.08 0 3.933.466 5.56 1.4 1.653.906 2.933 2.2 3.84 3.88.933 1.653 1.4 3.573 1.4 5.76zm-10.8-7.04c-1.6 0-2.96.48-4.08 1.44-1.093.933-1.76 2.186-2 3.76h12.12c-.213-1.547-.867-2.8-1.96-3.76s-2.453-1.44-4.08-1.44zM126.238.02h5V29.7h-5V.02zM137.8.02h5V29.7h-5V.02zM170.243 8.34V29.7h-4.76v-2.76a7.713 7.713 0 01-3.08 2.28c-1.2.506-2.534.76-4 .76-2.08 0-3.947-.454-5.6-1.36-1.627-.907-2.907-2.187-3.84-3.84-.907-1.654-1.36-3.574-1.36-5.76 0-2.187.453-4.094 1.36-5.72.933-1.654 2.213-2.934 3.84-3.84 1.653-.907 3.52-1.36 5.6-1.36 1.386 0 2.653.24 3.8.72a8.364 8.364 0 013.04 2.12v-2.6h5zm-11.28 17.36c1.84 0 3.36-.614 4.56-1.84 1.2-1.227 1.8-2.84 1.8-4.84s-.6-3.614-1.8-4.84c-1.2-1.227-2.72-1.84-4.56-1.84-1.84 0-3.36.613-4.56 1.84-1.174 1.226-1.76 2.84-1.76 4.84s.586 3.613 1.76 4.84c1.2 1.226 2.72 1.84 4.56 1.84z" fill="#fff"/><path fill-rule="evenodd" clip-rule="evenodd" d="M5.36 29.7H0l12.6-28h5.12l12.64 28h-5.44l-2.8-6.48L6.638 26.7l-1.278 3zm9.76-22.8l5.28 12.24L8.776 21.7 15.12 6.9z" fill="#fff"/><path d="M175 0h1.782v6.248h3.861V7.7H175V0zM183.784 1.452h-2.464V0h6.71v1.452h-2.464V7.7h-1.782V1.452zM189.428 0h3.498c.836 0 1.573.161 2.211.484a3.5 3.5 0 011.496 1.342c.36.58.539 1.254.539 2.024s-.179 1.445-.539 2.024c-.352.58-.85 1.03-1.496 1.353-.638.315-1.375.473-2.211.473h-3.498V0zm3.41 6.237c.77 0 1.383-.213 1.837-.638.462-.433.693-1.016.693-1.749 0-.733-.231-1.313-.693-1.738-.454-.433-1.067-.649-1.837-.649h-1.628v4.774h1.628z" fill="#fff"/></svg>