<svg width="156" height="22" fill="none" xmlns="http://www.w3.org/2000/svg"><path d="M35.656 22c-1.783 0-3.382-.363-4.8-1.09-1.417-.725-2.523-1.731-3.317-3.018-.795-1.306-1.192-2.78-1.192-4.418 0-1.639.397-3.101 1.192-4.388.794-1.286 1.89-2.292 3.285-3.018 1.417-.726 3.028-1.09 4.832-1.09 1.696 0 3.178.333 4.444.997 1.289.663 2.255 1.618 2.9 2.862l-3.093 1.743c-.494-.768-1.116-1.338-1.868-1.712a5.003 5.003 0 00-2.416-.59c-1.503 0-2.748.476-3.736 1.43-.988.934-1.482 2.19-1.482 3.766s.484 2.842 1.45 3.796c.988.934 2.244 1.4 3.768 1.4.88 0 1.686-.186 2.416-.56.752-.394 1.374-.975 1.868-1.742L43 18.11c-.665 1.245-1.642 2.21-2.93 2.894-1.268.664-2.739.996-4.413.996zM63.132 5.165v16.617h-3.833v-2.116c-.644.747-1.45 1.328-2.416 1.743A8.193 8.193 0 0153.76 22c-2.298 0-4.112-.612-5.444-1.836-1.31-1.245-1.964-3.08-1.964-5.508v-9.49h4.026v8.961c0 1.494.343 2.614 1.03 3.361.71.726 1.708 1.09 2.996 1.09 1.439 0 2.577-.426 3.414-1.277.86-.871 1.288-2.116 1.288-3.734V5.165h4.027zM72.236 7.593c1.16-1.743 3.2-2.614 6.12-2.614v3.703a5.285 5.285 0 00-.934-.094c-1.568 0-2.792.446-3.672 1.338-.88.872-1.32 2.137-1.32 3.797v8.06h-4.027V5.164h3.833v2.428zM97.783 13.567c0 .27-.022.654-.065 1.152H84.223c.236 1.224.848 2.199 1.836 2.925 1.009.705 2.254 1.058 3.736 1.058 1.89 0 3.446-.602 4.67-1.805l2.158 2.396c-.773.892-1.75 1.566-2.93 2.022-1.182.457-2.513.685-3.995.685-1.89 0-3.553-.363-4.992-1.09-1.439-.725-2.555-1.731-3.35-3.018-.773-1.306-1.16-2.78-1.16-4.418 0-1.618.376-3.07 1.128-4.357a8.064 8.064 0 013.189-3.05c1.352-.725 2.877-1.088 4.573-1.088 1.675 0 3.168.363 4.477 1.089a7.477 7.477 0 013.092 3.018c.752 1.287 1.128 2.78 1.128 4.481zm-8.697-5.476c-1.288 0-2.383.373-3.285 1.12-.88.726-1.417 1.7-1.61 2.925h9.759c-.172-1.203-.698-2.178-1.578-2.925-.88-.747-1.976-1.12-3.286-1.12zM101.65 0h4.026v21.782h-4.026V0zM110.961 0h4.026v21.782h-4.026V0zM137.084 5.165v16.617h-3.833v-2.147a6.19 6.19 0 01-2.48 1.774c-.966.394-2.04.591-3.221.591-1.675 0-3.178-.353-4.509-1.058a7.794 7.794 0 01-3.092-2.987c-.73-1.286-1.095-2.78-1.095-4.481s.365-3.184 1.095-4.45a7.794 7.794 0 013.092-2.987c1.331-.706 2.834-1.058 4.509-1.058 1.117 0 2.137.186 3.06.56a6.733 6.733 0 012.448 1.65V5.164h4.026zm-9.083 13.505c1.482 0 2.706-.477 3.672-1.431.966-.954 1.449-2.21 1.449-3.765 0-1.556-.483-2.811-1.449-3.765-.966-.955-2.19-1.432-3.672-1.432-1.482 0-2.705.477-3.672 1.432-.945.954-1.417 2.209-1.417 3.765s.472 2.81 1.417 3.765c.967.954 2.19 1.431 3.672 1.431zM142.807 0h1.09v3.693h2.363v.858h-3.453V0zM147.741.858h-1.508V0h4.106v.858h-1.508v3.693h-1.09V.858zM151.262 0h2.14c.512 0 .963.095 1.353.286.395.186.7.45.915.793.22.343.33.742.33 1.197 0 .455-.11.854-.33 1.196-.215.343-.52.61-.915.8-.39.186-.841.28-1.353.28h-2.14V0zm2.086 3.687c.471 0 .846-.126 1.124-.377.283-.256.424-.6.424-1.034 0-.434-.141-.776-.424-1.028-.278-.255-.653-.383-1.124-.383h-.996v2.822h.996z" fill="#343159"/><path fill-rule="evenodd" clip-rule="evenodd" d="M4.316 21.782H0L10.146 0h4.123l10.178 21.782h-4.38l-2.008-4.512-13.265 3.434-.478 1.078zm7.859-17.737l4.312 9.693-9.874 2.86 5.562-12.553z" fill="#343159"/></svg>