<svg width="151" height="152" fill="none" xmlns="http://www.w3.org/2000/svg"><path d="M0 1h1m9 0h1m9 0h1m9 0h1m9 0h1m9 0h1m9 0h1m9 0h1M0 11h1m9 0h1m9 0h1m9 0h1m9 0h1m9 0h1m9 0h1m9 0h1M0 21h1m9 0h1m9 0h1m9 0h1m9 0h1m9 0h1m9 0h1m9 0h1M0 31h1m9 0h1m9 0h1m9 0h1m9 0h1m9 0h1m9 0h1m9 0h1M0 41h1m9 0h1m9 0h1m9 0h1m9 0h1m9 0h1m9 0h1m9 0h1M0 51h1m9 0h1m9 0h1m9 0h1m9 0h1m9 0h1m9 0h1m9 0h1M0 61h1m9 0h1m9 0h1m9 0h1m9 0h1m9 0h1m9 0h1m9 0h1M0 71h1m9 0h1m9 0h1m9 0h1m9 0h1m9 0h1m9 0h1m9 0h1m9-70h1m9 0h1m9 0h1m9 0h1m9 0h1m9 0h1m9 0h1m9 0h1M80 11h1m9 0h1m9 0h1m9 0h1m9 0h1m9 0h1m9 0h1m9 0h1M80 21h1m9 0h1m9 0h1m9 0h1m9 0h1m9 0h1m9 0h1m9 0h1M80 31h1m9 0h1m9 0h1m9 0h1m9 0h1m9 0h1m9 0h1m9 0h1M80 41h1m9 0h1m9 0h1m9 0h1m9 0h1m9 0h1m9 0h1m9 0h1M80 51h1m9 0h1m9 0h1m9 0h1m9 0h1m9 0h1m9 0h1m9 0h1M80 61h1m9 0h1m9 0h1m9 0h1m9 0h1m9 0h1m9 0h1m9 0h1M80 71h1m9 0h1m9 0h1m9 0h1m9 0h1m9 0h1m9 0h1m9 0h1M0 81h1m9 0h1m9 0h1m9 0h1m9 0h1m9 0h1m9 0h1m9 0h1M0 91h1m9 0h1m9 0h1m9 0h1m9 0h1m9 0h1m9 0h1m9 0h1M0 101h1m9 0h1m9 0h1m9 0h1m9 0h1m9 0h1m9 0h1m9 0h1M0 111h1m9 0h1m9 0h1m9 0h1m9 0h1m9 0h1m9 0h1m9 0h1M0 121h1m9 0h1m9 0h1m9 0h1m9 0h1m9 0h1m9 0h1m9 0h1M0 131h1m9 0h1m9 0h1m9 0h1m9 0h1m9 0h1m9 0h1m9 0h1M0 141h1m9 0h1m9 0h1m9 0h1m9 0h1m9 0h1m9 0h1m9 0h1M0 151h1m9 0h1m9 0h1m9 0h1m9 0h1m9 0h1m9 0h1m9 0h1m9-70h1m9 0h1m9 0h1m9 0h1m9 0h1m9 0h1m9 0h1m9 0h1M80 91h1m9 0h1m9 0h1m9 0h1m9 0h1m9 0h1m9 0h1m9 0h1m-71 10h1m9 0h1m9 0h1m9 0h1m9 0h1m9 0h1m9 0h1m9 0h1m-71 10h1m9 0h1m9 0h1m9 0h1m9 0h1m9 0h1m9 0h1m9 0h1m-71 10h1m9 0h1m9 0h1m9 0h1m9 0h1m9 0h1m9 0h1m9 0h1m-71 10h1m9 0h1m9 0h1m9 0h1m9 0h1m9 0h1m9 0h1m9 0h1m-71 10h1m9 0h1m9 0h1m9 0h1m9 0h1m9 0h1m9 0h1m9 0h1m-71 10h1m9 0h1m9 0h1m9 0h1m9 0h1m9 0h1m9 0h1m9 0h1" stroke="#343159"/></svg>