<svg width="186" height="23" fill="none" xmlns="http://www.w3.org/2000/svg"><path d="M0 15.943h2.922v1.638c0 .798.434 1.439 1.302 1.922.89.462 1.949.693 3.177.693 1.334 0 2.403-.294 3.208-.882.826-.61 1.239-1.45 1.239-2.52 0-.757-.276-1.43-.826-2.017-.53-.588-1.06-1.008-1.588-1.26-.509-.253-1.345-.6-2.51-1.04a1.239 1.239 0 01-.159-.063 1.238 1.238 0 00-.158-.063 1.239 1.239 0 01-.16-.063 39.813 39.813 0 01-2.223-.914 12.458 12.458 0 01-1.81-1.134A4.502 4.502 0 01.953 8.475C.635 7.761.476 6.932.476 5.986c0-1.974.678-3.465 2.033-4.474C3.886.504 5.601 0 7.655 0c1.82 0 3.409.326 4.764.977 1.355.65 2.033 1.554 2.033 2.71V6.3h-2.954V4.758c0-.61-.392-1.093-1.175-1.45-.784-.357-1.673-.535-2.668-.535-1.144 0-2.086.262-2.827.787-.741.525-1.112 1.282-1.112 2.269 0 .462.096.882.286 1.26.19.378.392.683.604.914.233.23.614.483 1.143.756.53.273.932.473 1.207.599.297.105.805.294 1.525.567.868.315 1.535.577 2 .787.467.19 1.038.483 1.716.883.678.399 1.186.798 1.525 1.197.36.399.667.924.92 1.575.276.651.414 1.376.414 2.174 0 2.037-.731 3.623-2.192 4.758C11.403 22.433 9.582 23 7.4 23c-1.927 0-3.642-.41-5.146-1.229C.752 20.931 0 19.765 0 18.274v-2.332zM18.08 22.622v-2.363h2.51V9.704c0-.441-.234-.662-.7-.662h-1.969V6.68h3.621c1.355 0 2.033.589 2.033 1.765v.819l-.095.914h.063c.424-1.009 1.175-1.901 2.255-2.678C26.878 6.7 28.032 6.3 29.261 6.3c2.604 0 4.171 1.25 4.7 3.75h.064C34.49 9 35.243 8.118 36.28 7.404a5.994 5.994 0 013.494-1.103c3.494 0 5.24 2.038 5.24 6.113v7.845h2.542v2.363h-5.622v-9.547c0-1.28-.201-2.268-.604-2.961-.38-.693-1.122-1.04-2.223-1.04-1.44 0-2.594.62-3.462 1.859-.847 1.218-1.27 2.668-1.27 4.348v4.978h2.509v2.363h-5.59v-9.547c0-1.26-.191-2.237-.572-2.93-.36-.714-1.102-1.071-2.224-1.071-1.44 0-2.604.64-3.494 1.922-.89 1.281-1.334 2.752-1.334 4.41v4.853h2.541v2.363H18.08zM49.366 18.18c0-.799.16-1.502.477-2.111a4.113 4.113 0 011.366-1.513 9.755 9.755 0 011.81-.913 8.997 8.997 0 012.128-.536c.784-.126 1.43-.2 1.938-.22.53-.043 1.08-.064 1.651-.064h1.017v-.598c0-2.269-1.144-3.403-3.43-3.403-.763 0-1.525.126-2.288.378-.762.252-1.334.504-1.715.756l-.603.41-1.239-2.174c.064-.042.148-.105.254-.19.127-.104.392-.262.794-.472.424-.21.847-.399 1.27-.567.445-.168 1.007-.315 1.684-.441.699-.147 1.398-.22 2.097-.22 2.053 0 3.61.524 4.669 1.575 1.058 1.029 1.588 2.552 1.588 4.568v7.12c0 .463.233.694.699.694h1.62v2.363h-3.209c-1.334 0-2-.578-2-1.733v-.22l.126-1.04h-.063l-.19.378c-.064.147-.255.42-.572.819a6.373 6.373 0 01-.985 1.008c-.36.294-.868.557-1.525.788a5.46 5.46 0 01-2.032.378c-1.462 0-2.722-.42-3.78-1.26-1.038-.84-1.557-2.027-1.557-3.56zm3.113-.253c0 .757.254 1.397.762 1.922.53.525 1.24.788 2.129.788 1.291 0 2.35-.536 3.176-1.607.826-1.071 1.239-2.258 1.239-3.56v-.662h-.794c-4.341 0-6.512 1.04-6.512 3.12zM67.525 22.622v-2.363h2.414V9.736c0-.462-.233-.694-.7-.694h-2V6.68h3.62c1.377 0 2.065.62 2.065 1.86v1.008l-.063 1.102h.063c.382-1.218 1.017-2.216 1.906-2.993a4.744 4.744 0 013.177-1.166l.793.063v3.025a3.72 3.72 0 00-.889-.094c-1.588 0-2.805.661-3.653 1.985-.825 1.302-1.238 2.825-1.238 4.568v4.222h2.382v2.363h-7.877zM82.64 16.793v-7.75h-2.7V6.678h2.763V2.3h3.017v4.38h3.843v2.362H85.72v7.468c0 .756.117 1.396.35 1.921.232.526.54.904.92 1.135.403.23.763.388 1.08.472.34.084.7.126 1.08.126l.731-.031v2.552a8.143 8.143 0 01-1.112.063c-.487 0-.963-.032-1.429-.095-.466-.063-.995-.22-1.588-.472a5.57 5.57 0 01-1.556-.977c-.424-.42-.795-1.008-1.112-1.764-.297-.756-.445-1.639-.445-2.647zM92.02 22.622v-2.458h2.795l1.43-17.36h-2.859V.378h6.353l5.749 13.548.508 1.607h.063c.106-.462.276-.998.509-1.607L112.317.378h6.352v2.426h-2.858l1.429 17.36h2.795v2.458h-8.639v-2.458h2.699l-1.016-13.296.095-1.827h-.095c-.169.714-.339 1.281-.508 1.701l-5.146 11.69h-2.795l-5.145-11.69-.509-1.7h-.095l.095 1.826-1.016 13.296h2.7v2.458h-8.64zM122.203 14.65c0-2.499.752-4.515 2.256-6.049 1.524-1.533 3.451-2.3 5.78-2.3 2.203 0 3.907.704 5.114 2.111 1.228 1.408 1.842 3.193 1.842 5.356l-.095 1.166h-11.752c.085 1.702.656 3.035 1.715 4.002 1.059.945 2.34 1.417 3.843 1.417.826 0 1.641-.147 2.446-.44.805-.295 1.398-.589 1.779-.883l.572-.473 1.27 2.238c-.19.168-.455.378-.794.63-.318.23-1.027.556-2.128.976a9.55 9.55 0 01-3.335.599c-2.499 0-4.542-.788-6.13-2.363-1.589-1.596-2.383-3.592-2.383-5.986zm3.272-1.67h8.544c-.042-1.344-.434-2.383-1.175-3.118-.72-.757-1.609-1.135-2.668-1.135-1.186 0-2.213.378-3.081 1.135-.868.756-1.408 1.796-1.62 3.119zM139.854 14.65c0-2.52.667-4.536 2.001-6.049 1.355-1.533 3.123-2.3 5.304-2.3.678 0 1.313.095 1.906.284.593.189 1.069.41 1.429.662.36.252.667.514.921.787.254.252.434.473.54.662l.159.283h.064a6.487 6.487 0 01-.096-1.197v-5.04h-2.668V.377h5.749v19.188c0 .462.233.693.699.693h1.62v2.363h-3.208c-1.334 0-2.001-.578-2.001-1.733v-.22l.095-.851h-.063c-.043.084-.106.2-.191.346-.063.147-.243.41-.54.788a5.402 5.402 0 01-1.016.945c-.36.273-.879.525-1.557.756a6.364 6.364 0 01-2.128.347c-2.139 0-3.843-.767-5.114-2.3-1.27-1.533-1.905-3.55-1.905-6.05zm3.144 0c0 1.723.413 3.11 1.239 4.16.847 1.029 1.948 1.543 3.303 1.543 1.292 0 2.382-.472 3.272-1.417.91-.967 1.366-2.384 1.366-4.254 0-1.575-.403-2.92-1.207-4.033-.784-1.113-1.896-1.67-3.336-1.67-1.334 0-2.445.505-3.335 1.513-.868 1.008-1.302 2.394-1.302 4.159zM162.466 3.497V.378h3.24v3.12h-3.24zm-2.446 19.125v-2.363h2.509V9.042h-2.668V6.68h5.749v13.58h2.541v2.363h-8.131zM170.214 18.18c0-.799.159-1.502.476-2.111a4.113 4.113 0 011.366-1.513 9.765 9.765 0 011.811-.913 8.987 8.987 0 012.128-.536c.783-.126 1.429-.2 1.937-.22a20.91 20.91 0 011.652-.064h1.016v-.598c0-2.269-1.143-3.403-3.43-3.403-.762 0-1.525.126-2.287.378s-1.334.504-1.715.756l-.604.41-1.238-2.174c.063-.042.148-.105.254-.19.127-.104.391-.262.794-.472.423-.21.847-.399 1.27-.567.445-.168 1.006-.315 1.684-.441.698-.147 1.397-.22 2.096-.22 2.054 0 3.61.524 4.669 1.575 1.059 1.029 1.588 2.552 1.588 4.568v7.12c0 .463.233.694.699.694H186v2.363h-3.208c-1.334 0-2.001-.578-2.001-1.733v-.22l.127-1.04h-.064l-.19.378c-.064.147-.254.42-.572.819a6.353 6.353 0 01-.985 1.008c-.36.294-.868.557-1.524.788a5.46 5.46 0 01-2.033.378c-1.461 0-2.721-.42-3.78-1.26-1.037-.84-1.556-2.027-1.556-3.56zm3.113-.253c0 .757.254 1.397.762 1.922.529.525 1.239.788 2.128.788 1.292 0 2.35-.536 3.176-1.607.826-1.071 1.239-2.258 1.239-3.56v-.662h-.794c-4.341 0-6.511 1.04-6.511 3.12z" fill="#000"/></svg>