<svg width="152" height="111" fill="none" xmlns="http://www.w3.org/2000/svg"><path d="M1 111v-1m0-9v-1m0-9v-1m0-9v-1m10 31v-1m0-9v-1m0-9v-1m0-9v-1m10 31v-1m0-9v-1m0-9v-1m0-9v-1m10 31v-1m0-9v-1m0-9v-1m0-9v-1m10 31v-1m0-9v-1m0-9v-1m0-9v-1m10 31v-1m0-9v-1m0-9v-1m0-9v-1m10 31v-1m0-9v-1m0-9v-1m0-9v-1m10 31v-1m0-9v-1m0-9v-1m0-9v-1M1 71v-1m0-9v-1m0-9v-1m0-9v-1m0-9v-1m0-9v-1m0-9v-1m0-9V0m10 71v-1m0-9v-1m0-9v-1m0-9v-1m0-9v-1m0-9v-1m0-9v-1m0-9V0m10 71v-1m0-9v-1m0-9v-1m0-9v-1m0-9v-1m0-9v-1m0-9v-1m0-9V0m10 71v-1m0-9v-1m0-9v-1m0-9v-1m0-9v-1m0-9v-1m0-9v-1m0-9V0m10 71v-1m0-9v-1m0-9v-1m0-9v-1m0-9v-1m0-9v-1m0-9v-1m0-9V0m10 71v-1m0-9v-1m0-9v-1m0-9v-1m0-9v-1m0-9v-1m0-9v-1m0-9V0m10 71v-1m0-9v-1m0-9v-1m0-9v-1m0-9v-1m0-9v-1m0-9v-1m0-9V0m10 71v-1m0-9v-1m0-9v-1m0-9v-1m0-9v-1m0-9v-1m0-9v-1m0-9V0m10 111v-1m0-9v-1m0-9v-1m0-9v-1m10 31v-1m0-9v-1m0-9v-1m0-9v-1m10 31v-1m0-9v-1m0-9v-1m0-9v-1m10 31v-1m0-9v-1m0-9v-1m0-9v-1m10 31v-1m0-9v-1m0-9v-1m0-9v-1m10 31v-1m0-9v-1m0-9v-1m0-9v-1m10 31v-1m0-9v-1m0-9v-1m0-9v-1m10 31v-1m0-9v-1m0-9v-1m0-9v-1m-70-9v-1m0-9v-1m0-9v-1m0-9v-1m0-9v-1m0-9v-1m0-9v-1m0-9V0m10 71v-1m0-9v-1m0-9v-1m0-9v-1m0-9v-1m0-9v-1m0-9v-1m0-9V0m10 71v-1m0-9v-1m0-9v-1m0-9v-1m0-9v-1m0-9v-1m0-9v-1m0-9V0m10 71v-1m0-9v-1m0-9v-1m0-9v-1m0-9v-1m0-9v-1m0-9v-1m0-9V0m10 71v-1m0-9v-1m0-9v-1m0-9v-1m0-9v-1m0-9v-1m0-9v-1m0-9V0m10 71v-1m0-9v-1m0-9v-1m0-9v-1m0-9v-1m0-9v-1m0-9v-1m0-9V0m10 71v-1m0-9v-1m0-9v-1m0-9v-1m0-9v-1m0-9v-1m0-9v-1m0-9V0m10 71v-1m0-9v-1m0-9v-1m0-9v-1m0-9v-1m0-9v-1m0-9v-1m0-9V0" stroke="#343159"/></svg>