<svg width="530" height="429" fill="none" xmlns="http://www.w3.org/2000/svg"><g clip-path="url(#clip0)"><path d="M223.085 59.85H42.869V221.08h180.216V59.851z" fill="#FAFAFA"/><path d="M223.086 221.09s-.031-1.038-.042-2.99c-.01-1.983-.031-4.869-.052-8.638-.021-7.568-.062-18.635-.104-32.733-.052-28.176-.124-68.426-.207-116.878l.405.405c-51.899.021-113.836.042-180.196.073h-.02l.477-.477c-.02 58.656-.041 113.856-.062 161.227l-.426-.425c53.767.093 98.761.166 130.343.218 15.8.052 28.248.083 36.761.114 4.246.021 7.506.042 9.728.052 1.09.01 1.92.021 2.512.021.582.01.883.031.883.031s-.27.021-.82.021c-.571.01-1.392.01-2.461.02-2.211.011-5.44.032-9.645.052-8.492.031-20.908.063-36.668.115-31.654.051-76.741.124-130.623.218h-.425v-.426c-.02-47.372-.042-102.571-.063-161.228v-.478h.498c66.361.031 128.298.052 180.196.073h.405v.405c-.083 48.555-.156 88.898-.207 117.126-.042 14.057-.084 25.093-.104 32.64-.021 3.738-.031 6.603-.052 8.565 0 1.921-.031 2.897-.031 2.897z" fill="#E0E0E0"/><path d="M111.97 88.504c0 .27-9.489.478-21.19.478-11.7 0-21.188-.218-21.188-.478 0-.27 9.478-.477 21.189-.477 11.7-.01 21.189.208 21.189.477zM188.329 100.61c0 .27-26.058.478-58.2.478-32.152 0-58.2-.218-58.2-.478 0-.27 26.058-.477 58.2-.477s58.2.207 58.2.477zM77.503 121.112h-7.59v7.589h7.59v-7.589zM96.19 121.112H88.6v7.589h7.59v-7.589zM115.219 120.771h-7.589v7.589h7.589v-7.589zM133.563 121.112h-7.589v7.589h7.589v-7.589zM152.262 121.112h-7.589v7.589h7.589v-7.589zM170.95 121.112h-7.59v7.589h7.59v-7.589z" fill="#E0E0E0"/><path d="M189.636 121.112h-7.589v7.589h7.589v-7.589zM77.503 137.258h-7.59v7.589h7.59v-7.589z" fill="#EBEBEB"/><path d="M96.19 137.258H88.6v7.589h7.59v-7.589z" fill="#E0E0E0"/><path d="M114.876 137.258h-7.589v7.589h7.589v-7.589z" fill="#EBEBEB"/><path d="M133.563 137.258h-7.589v7.589h7.589v-7.589zM152.262 137.258h-7.589v7.589h7.589v-7.589zM171.292 136.915h-7.589v7.589h7.589v-7.589zM189.636 137.258h-7.589v7.589h7.589v-7.589zM77.503 153.4h-7.59v7.589h7.59V153.4zM96.532 153.047h-7.59v7.589h7.59v-7.589zM114.876 153.4h-7.589v7.589h7.589V153.4z" fill="#E0E0E0"/><path d="M133.563 153.4h-7.589v7.589h7.589V153.4z" fill="#EBEBEB"/><path d="M152.262 153.4h-7.589v7.589h7.589V153.4zM170.95 153.4h-7.59v7.589h7.59V153.4zM189.636 153.4h-7.589v7.589h7.589V153.4zM77.503 169.534h-7.59v7.589h7.59v-7.589zM96.19 169.534H88.6v7.589h7.59v-7.589zM114.876 169.534h-7.589v7.589h7.589v-7.589zM133.919 169.191h-7.589v7.589h7.589v-7.589zM152.262 169.534h-7.589v7.589h7.589v-7.589z" fill="#E0E0E0"/><path d="M170.95 169.534h-7.59v7.589h7.59v-7.589z" fill="#EBEBEB"/><path d="M189.636 169.534h-7.589v7.589h7.589v-7.589zM77.503 185.676h-7.59v7.589h7.59v-7.589z" fill="#E0E0E0"/><path d="M96.19 185.676H88.6v7.589h7.59v-7.589z" fill="#EBEBEB"/><path d="M114.876 185.676h-7.589v7.589h7.589v-7.589zM133.563 185.676h-7.589v7.589h7.589v-7.589zM152.262 185.676h-7.589v7.589h7.589v-7.589zM171.292 185.335h-7.589v7.589h7.589v-7.589zM189.636 185.676h-7.589v7.589h7.589v-7.589zM426.595 21.49l-11.586.063.309 57.628 11.586-.062-.309-57.629z" fill="#E0E0E0"/><path d="M344.667 21.638l-29.993.16.171 31.81 29.992-.16-.17-31.81z" fill="#EBEBEB"/><path d="M374.527 21.482l-29.993.16.17 31.81 29.993-.16-.17-31.81z" fill="#F5F5F5"/><path d="M314.725 30.586c19.932.166 39.907.052 59.84-.28.405-.01.405-.634 0-.634-19.933-.114-39.908-.01-59.84.364-.353.01-.353.55 0 .55z" fill="#E0E0E0"/><path d="M350.48 52.93l-54.494.293.139 25.923 54.494-.292-.139-25.923z" fill="#EBEBEB"/><path d="M404.704 52.64l-54.493.291.139 25.923 54.493-.292-.139-25.923z" fill="#F5F5F5"/><path d="M296.019 60.424c36.201.405 72.526.041 108.717-.54.405-.01.405-.633 0-.633-36.201-.187-72.527-.166-108.717.623-.353.02-.353.55 0 .55zM486.751 79.141H275.638v9.292h211.113v-9.292z" fill="#E0E0E0"/><path d="M318.763 83.607h-8.565v31.695h8.565V83.607zM446.707 83.607h-8.575v31.695h8.575V83.607z" fill="#E0E0E0"/><path d="M437.907.002l-11.586.062.424 79.254 11.586-.062-.424-79.254z" fill="#EBEBEB"/><path d="M455.987 14.756l-17.992.096.345 64.232 17.992-.096-.345-64.232z" fill="#F5F5F5"/><path d="M455.863 27.128c0 .177-4.029.312-9.001.312-4.973 0-9.001-.135-9.001-.312 0-.176 4.028-.311 9.001-.311 4.972 0 9.001.135 9.001.311zM455.863 24.429c0 .176-4.029.311-9.001.311-4.973 0-9.001-.135-9.001-.311 0-.177 4.028-.312 9.001-.312 4.972 0 9.001.146 9.001.312zM455.863 69.32c0 .176-4.029.31-9.001.31-4.973 0-9.001-.134-9.001-.31 0-.177 4.028-.312 9.001-.312 4.972 0 9.001.145 9.001.311zM455.863 66.62c0 .176-4.029.311-9.001.311-4.973 0-9.001-.135-9.001-.311s4.028-.311 9.001-.311c4.972 0 9.001.145 9.001.311zM447.154 60.733c-.177 0-.312-6.479-.312-14.473 0-7.993.135-14.472.312-14.472.176 0 .311 6.479.311 14.472 0 7.994-.135 14.473-.311 14.473z" fill="#E0E0E0"/><path d="M475.652 30.524h-19.59v48.483h19.59V30.524z" fill="#EBEBEB"/><path d="M435.257 13.53a3.336 3.336 0 01-3.332 3.332 3.336 3.336 0 01-3.333-3.333 3.336 3.336 0 013.333-3.332 3.336 3.336 0 013.332 3.332zM432.953 22.686h-2.056V69.84h2.056V22.685z" fill="#E0E0E0"/><path d="M77.243 323.548c5.43-2.803 11.835-3.166 17.866-2.17 3.24.54 6.624 1.506 8.825 3.935 2.201 2.429 2.626 6.717.093 8.814-1.505 1.246-3.613 1.433-5.564 1.412-4.724-.052-9.956-.882-13.735 1.952-2.15 1.619-3.582 4.319-6.157 5.108-2.512.778-5.357-.706-6.696-2.98-1.34-2.273-1.38-5.108-.758-7.672 0 0 .654-5.575 6.126-8.399zM64.792 299.513c3.322 4.745 9.78 3.177 12.77.281 2.99-2.897 4.256-7.091 5.409-11.099 2.636-9.146 5.284-18.738 3.332-28.051-.581-2.782-1.63-5.564-3.582-7.63-1.951-2.066-4.962-3.291-7.713-2.565-3.26.862-5.274 4.049-6.738 7.081a67.005 67.005 0 00-6.613 28.695c-.01 4.63.53 9.468 3.135 13.288zM55.668 306.324c3.602-4.278 4.288-10.528 2.689-15.885-1.61-5.367-5.233-9.924-9.406-13.651a50.694 50.694 0 00-16.85-9.946c-2.44-.851-5.003-1.537-7.578-1.287-2.575.249-5.16 1.557-6.364 3.851-1.775 3.385-.073 7.485 1.765 10.828a128.42 128.42 0 0011.067 16.85c3.322 4.277 7.121 8.492 12.177 10.433 5.056 1.931 10.31 1.703 12.988-1.796" fill="#0084E4"/><path d="M64.577 371.096c.062 0 .166-.768.3-2.16.157-1.567.343-3.54.572-5.886.27-2.471.633-5.419 1.318-8.627.686-3.198 1.755-6.665 3.136-10.185 1.422-3.498 3.166-6.675 5.2-9.219 2.025-2.554 4.372-4.402 6.572-5.471a18.341 18.341 0 015.534-1.723c1.38-.146 2.149-.249 2.149-.312 0-.062-.768-.072-2.18-.031-1.402.094-3.457.447-5.772 1.506-2.326 1.027-4.818 2.906-6.936 5.512-2.138 2.596-3.934 5.845-5.388 9.406-1.401 3.582-2.46 7.08-3.114 10.351-.654 3.26-.955 6.239-1.153 8.741-.186 2.502-.259 4.526-.29 5.918-.031 1.401-.01 2.169.052 2.18z" fill="#263238"/><path d="M64.98 366.559c.031 0 .052-.342.063-.996 0-.748 0-1.703-.01-2.866-.011-2.481-.011-6.073.124-10.516.218-8.877.986-18.428 2.46-31.883 1.402-12.655 3.27-27.397 5.253-36.969.426-2.18.852-4.142 1.257-5.855.384-1.723.716-3.208 1.027-4.402l.665-2.782c.145-.644.207-.976.176-.987-.03-.01-.145.312-.342.935-.218.716-.488 1.63-.83 2.741-.374 1.193-.748 2.668-1.174 4.381a122.965 122.965 0 00-1.38 5.845c-1.963 8.679-4.029 20.815-5.524 34.311-1.474 13.496-2.149 25.778-2.2 34.675-.053 4.443.04 8.046.155 10.538.073 1.162.125 2.107.176 2.855.032.643.073.986.104.975z" fill="#263238"/><path d="M65.032 342.867c.062 0 .052-1.059-.02-2.99-.115-1.92-.375-4.692-.915-8.097-.57-3.395-1.37-7.423-2.636-11.794-.55-2.004-1.828-6.8-4.932-13.964-4.09-9.706-9.655-17.638-14.482-22.559-1.132-1.308-2.398-2.242-3.405-3.166-.52-.447-.987-.883-1.454-1.236-.477-.322-.913-.633-1.318-.913-1.589-1.09-2.482-1.662-2.513-1.61-.145.198 3.561 2.378 8.243 7.361 4.662 4.973 10.07 12.853 14.13 22.476 2.263 5.222 3.841 9.873 4.962 13.829 1.298 4.339 2.15 8.326 2.803 11.679.613 3.364.976 6.115 1.194 8.015.156 1.921.28 2.969.343 2.969zM42.13 384.666l2.378 32.526h41.786l2.377-32.526h-46.54zM93.655 371.842H38.102v12.821h55.553v-12.821z" fill="#263238"/><path d="M38.102 415.944v3.561h54.639v-3.561H38.102z" fill="#455A64"/><path d="M43.272 425.752l-2.564-6.25h50.04l-2.99 6.25H43.272z" fill="#455A64"/><path d="M87.893 395.295c.01.01-.052.114-.197.301-.166.218-.374.488-.623.831-.592.757-1.412 1.806-2.43 3.114l-.103.135-.104-.145c-1.526-2.118-3.572-4.942-5.98-8.274h.343c-1.776 2.522-3.759 5.325-5.887 8.336l-.187.26-.207-.25c-2.17-2.585-4.537-5.388-6.987-8.305h.405c-.125.156-.25.322-.385.488-2.17 2.72-4.256 5.347-6.239 7.828l-.208.259-.197-.27c-2.118-3-4.1-5.803-5.886-8.336l.342.021c-2.907 3.311-5.367 6.114-7.257 8.264l-.135.145-.093-.166c-.955-1.609-1.723-2.886-2.273-3.821-.24-.415-.426-.747-.582-1.017-.125-.229-.187-.353-.176-.363.01-.011.093.103.238.321.166.26.384.582.644.976.581.914 1.38 2.17 2.388 3.748l-.228-.021c1.858-2.18 4.277-5.014 7.142-8.367l.177-.208.166.228c1.806 2.523 3.8 5.316 5.938 8.295l-.405-.01c1.973-2.492 4.07-5.118 6.23-7.838.134-.166.259-.332.383-.478l.198-.249.207.249c2.44 2.917 4.797 5.731 6.966 8.326l-.394.011c2.149-3.001 4.153-5.793 5.948-8.295l.177-.239.166.239c2.357 3.363 4.36 6.218 5.855 8.357l-.207-.01c1.07-1.277 1.91-2.295 2.533-3.032.27-.322.498-.581.675-.789.155-.166.238-.259.249-.249z" fill="#E0E0E0"/><path d="M89.252 384.449c0 .145-10.475.26-23.38.26-12.914 0-23.39-.115-23.39-.26 0-.145 10.465-.26 23.39-.26 12.905 0 23.38.125 23.38.26z" fill="#455A64"/><path d="M91.361 419.845c0 .146-11.378.26-25.414.26-14.036 0-25.415-.114-25.415-.26 0-.145 11.379-.259 25.415-.259s25.414.114 25.414.259z" fill="#263238"/><path d="M489.906 426.346H361.401l27.497-122.11c0-8.669 7.028-15.707 15.707-15.707h97.101c8.668 0 15.707 7.028 15.707 15.707l-27.497 122.11h-.01z" fill="#455A64"/><path d="M507.509 291.029c.142.033-6.713 29.935-15.318 66.785-8.607 36.86-15.702 66.696-15.844 66.663-.141-.033 6.713-29.935 15.318-66.785 8.605-36.85 15.703-66.696 15.844-66.663zM415.791 138.932c11.773 16.788 18.635 36.97 19.528 57.453.602 13.807-1.256 28.518 5.295 40.696 9.406 17.462 29.743 16.86 35.972 35.692 2.71 8.192-2.284 26.204-3.633 34.727-1.526 9.686 4.391 17.815 2.865 27.491-1.401 8.876-8.046 15.209-16.019 19.341-7.101 3.675-13.662 3.769-21.044.717-14.067-5.825-25.777-11.971-35.806-23.432-14.078-16.092-18.324-38.371-20.732-59.622a523.044 523.044 0 013.187-140.932" fill="#263238"/><path d="M445.888 357.01s.156-.052.457-.114c.301-.073.758-.145 1.329-.311a22.283 22.283 0 004.858-1.942c1.994-1.079 4.35-2.668 6.416-5.149 1.018-1.236 1.952-2.72 2.513-4.454.529-1.734.768-3.685.882-5.71.197-4.069-.415-8.523-1.349-13.226-.904-4.713-2.129-9.738-2.43-15.178-.145-2.71-.021-5.534.592-8.326.581-2.803 1.588-5.534 2.637-8.285 1.059-2.751 2.17-5.523 2.969-8.43.758-2.907 1.225-5.99.716-9.032-.446-3.052-1.692-5.897-3.363-8.388-1.672-2.502-3.758-4.672-5.887-6.665-4.287-4.008-8.928-7.309-12.894-11.026-8.004-7.371-13.392-15.759-16.797-23.193-1.703-3.727-3.001-7.215-3.862-10.35-.499-1.547-.779-3.042-1.142-4.392-.27-1.37-.509-2.616-.727-3.737-.332-2.263-.571-4.028-.633-5.232-.042-.582-.083-1.039-.104-1.371-.021-.311-.021-.467-.021-.467s.031.156.073.467c.041.332.093.779.155 1.36.104 1.204.374 2.949.738 5.212.228 1.121.487 2.367.778 3.716.374 1.34.665 2.824 1.173 4.361.893 3.114 2.212 6.582 3.925 10.278 3.436 7.371 8.824 15.686 16.787 22.985 3.945 3.675 8.596 6.976 12.925 11.004 2.149 2.014 4.267 4.205 5.97 6.759 1.713 2.543 3 5.471 3.457 8.617.529 3.135.041 6.301-.737 9.25-.821 2.948-1.942 5.741-3.001 8.482-1.048 2.74-2.055 5.45-2.626 8.201-.602 2.741-.727 5.513-.592 8.191.28 5.378 1.485 10.393 2.367 15.127.903 4.723 1.516 9.219 1.287 13.33-.124 2.055-.373 3.997-.934 5.793-.581 1.785-1.557 3.291-2.606 4.537-2.128 2.512-4.526 4.08-6.551 5.138-2.035 1.07-3.758 1.589-4.931 1.859-1.184.27-1.817.311-1.817.311z" fill="#455A64"/><path d="M252.589 394.106l49.822-23.66s19.403-94.204 23.068-101.284c3.665-7.07 19.009-13.185 19.009-13.185l-2.564 127.571-4.547 29.421-70.264 6.655-14.524-25.518z" fill="#0084E4"/><path d="M210.063 416.427c-.27-.011-1.661.862-.498 3.042 1.163 2.19 9.593 9.426 12.074 6.904 2.481-2.523-1.308-5.596-1.308-5.596l-10.268-4.35z" fill="#FFBE9D"/><path d="M220.696 420.881s10.184 1.287 14.108 2.772c4.257 1.619 9.448.519 12.936-1.848 3.488-2.367 5.523-4.506 5.523-4.506l12.998-.207s6.239-6.468 2.533-16.103c-.644-1.681-1.339-3.01-2.979-5.076-1.547-1.672-3.987-3.021-8.192-3.748l-15.437 3.333s-23.92-1.713-28.176.301c0 0-5.347 3.166-6.997 4.495-.623.498-2.513 6.592 1.37 9.748 0 0-3.385 2.7-1.557 5.108l.882 1.069s-2.274 2.949-1.111 4.236c1.173 1.288 11.41 7.278 15.064 5.856 3.675-1.423.654-4.807-.965-5.43z" fill="#FFBE9D"/><path d="M210.957 404.799c.01-.031.456.146 1.266.457.81.311 1.973.747 3.447 1.215.737.238 1.547.467 2.419.706.872.238 1.827.425 2.813.747.976.322 2.035.789 2.803 1.692.737.872 1.236 2.18.748 3.416-.239.612-.727 1.069-1.267 1.36-.55.28-1.131.415-1.702.477-1.153.104-2.222-.031-3.25-.176-2.045-.311-3.82-.862-5.274-1.37a55.197 55.197 0 01-3.415-1.35c-.8-.343-1.225-.55-1.215-.571.01-.031.467.125 1.277.426.81.29 1.983.737 3.447 1.214 1.464.478 3.228.987 5.242 1.277.997.125 2.077.249 3.146.146.53-.063 1.069-.187 1.547-.436.467-.25.872-.644 1.069-1.142.405-1.018-.01-2.191-.674-2.99-.675-.81-1.672-1.267-2.606-1.589-.955-.322-1.911-.519-2.783-.778a43.577 43.577 0 01-5.834-2.098c-.8-.384-1.215-.612-1.204-.633z" fill="#EB996E"/><path d="M211.871 397.426c.011-.031.457.145 1.257.456.799.312 1.962.758 3.426 1.236a59.082 59.082 0 005.18 1.484c.976.25 2.097.447 3.021 1.225.457.385.8.945.883 1.568a3.324 3.324 0 01-.26 1.817c-.509 1.163-1.588 1.91-2.668 2.274-1.09.373-2.222.394-3.249.259-2.066-.311-3.759-1.048-5.222-1.516-1.402-.488-2.565-.892-3.447-1.204-.81-.291-1.256-.467-1.246-.498.01-.031.467.093 1.298.342.893.281 2.066.644 3.488 1.08 1.474.426 3.198 1.132 5.18 1.412.987.125 2.046.093 3.063-.26.997-.342 1.962-1.027 2.409-2.045.467-1.007.311-2.242-.509-2.896-.789-.675-1.869-.903-2.845-1.153a56.172 56.172 0 01-5.191-1.578 48.502 48.502 0 01-3.384-1.37c-.768-.384-1.194-.602-1.184-.633z" fill="#EB996E"/><path d="M216.782 399.535c-.125 0-.187-.934-.467-2.045-.26-1.111-.623-1.972-.52-2.035.094-.052.655.758.935 1.931.291 1.173.166 2.16.052 2.149z" fill="#EB996E"/><path d="M252.731 399.831l-9.084-3.499s-25.217-11.772-25.643-11.129c-.425.633-1.796.571-1.495 3.644.301 3.073 14.991 9.271 15.459 10.34.467 1.07-.312 6.447 5.118 10.309 5.429 3.862 9.343 3.945 9.343 3.945" fill="#FFBE9D"/><path d="M246.431 413.437c0 .01-.072.01-.218.01-.145-.01-.353-.021-.633-.062-.55-.073-1.36-.239-2.356-.571-1.007-.322-2.201-.82-3.52-1.537-1.308-.727-2.782-1.599-4.184-2.896-1.401-1.288-2.543-3.136-3.093-5.305-.291-1.08-.395-2.253-.54-3.395a2.196 2.196 0 00-.094-.395c-.031-.083-.124-.155-.239-.238a9.657 9.657 0 00-.737-.478c-.519-.301-1.059-.592-1.598-.893-2.191-1.163-4.516-2.346-6.863-3.696-1.173-.675-2.356-1.391-3.498-2.211-.571-.415-1.132-.851-1.641-1.37a4.807 4.807 0 01-.695-.872c-.083-.177-.177-.353-.208-.571-.041-.208-.031-.374-.052-.561-.031-.727 0-1.505.384-2.191.198-.342.519-.602.8-.799a1.78 1.78 0 00.353-.301c.031-.021-.021.01.083-.083.114-.073.135-.052.176-.052.094-.01.114.01.177.01.093.021.187.042.27.063 1.37.425 2.616.965 3.872 1.484a348.861 348.861 0 017.143 3.125 852.876 852.876 0 0111.98 5.513c.851.394 1.661.799 2.429 1.121.79.311 1.527.602 2.222.872 1.381.55 2.564 1.017 3.551 1.412.944.384 1.702.685 2.242.903.239.104.426.177.582.249.124.063.197.094.186.094 0 .01-.072-.011-.207-.052-.156-.052-.353-.125-.592-.208-.55-.197-1.308-.477-2.274-.83-.996-.374-2.2-.82-3.581-1.34-.696-.259-1.443-.55-2.232-.84-.789-.322-1.589-.717-2.45-1.101-3.426-1.547-7.496-3.395-12.022-5.43a386.066 386.066 0 00-7.143-3.104c-1.246-.508-2.523-1.059-3.821-1.464-.083-.02-.155-.041-.238-.051a.818.818 0 01-.083-.011c0-.01 0 .031-.011-.031-.031-.083 0-.062-.021-.104l-.031-.031c.291.197.073.062.135.114l-.02.031c-.135.177-.302.291-.436.395-.291.208-.53.394-.686.675-.322.55-.363 1.266-.332 1.952.021.373.042.654.208.934.166.28.384.55.623.789.477.488 1.027.913 1.588 1.329 1.121.799 2.294 1.515 3.457 2.19 2.336 1.35 4.651 2.533 6.842 3.707.55.301 1.09.591 1.609.903.259.156.519.311.768.508.114.094.27.208.353.405.062.166.094.322.114.468.146 1.193.229 2.304.509 3.363.529 2.108 1.609 3.914 2.959 5.181 1.339 1.277 2.813 2.169 4.09 2.907a22.98 22.98 0 003.457 1.588c.987.343 1.776.529 2.315.633.27.052.478.083.623.104.177.031.249.031.249.042zM218.619 414.619c.01-.021.363.042.965.28a9.749 9.749 0 012.378 1.371c.457.363.934.789 1.37 1.329.415.539.841 1.266.737 2.117-.114.862-.851 1.547-1.682 1.817-.861.291-1.785.156-2.647-.083-3.384-1.028-6.322-2.273-8.357-3.353a25.039 25.039 0 01-2.346-1.391c-.54-.364-.821-.582-.8-.602.021-.032.332.145.883.467.56.311 1.37.758 2.398 1.266 2.055 1.007 5.004 2.201 8.336 3.219.82.228 1.672.342 2.398.093.727-.228 1.329-.799 1.423-1.474.104-.685-.239-1.339-.623-1.848-.395-.519-.862-.945-1.287-1.319-1.755-1.453-3.188-1.806-3.146-1.889z" fill="#EB996E"/><path opacity=".3" d="M337.013 413.001c-8.16-27.522-15.355-62.965-23.515-90.487-2.979 25.404.748 58.947 5.43 84.102.55 2.948.799 5.834 3.083 7.776l15.002-1.391z" fill="#000"/><path d="M323.653 394.105c-.115.021-.457-1.796-1.558-4.547-.54-1.381-1.339-2.959-2.336-4.63a35.866 35.866 0 00-3.83-5.056 36.267 36.267 0 00-4.755-4.205c-1.599-1.131-3.115-2.034-4.444-2.678-2.657-1.308-4.453-1.786-4.412-1.89.01-.031.457.073 1.267.301.405.104.892.26 1.443.478.55.218 1.204.436 1.868.768 1.371.602 2.928 1.495 4.568 2.616a33.746 33.746 0 014.869 4.236 33.296 33.296 0 013.862 5.16c.997 1.713 1.765 3.332 2.274 4.744.291.696.457 1.35.633 1.921.187.571.291 1.069.374 1.474.135.851.208 1.308.177 1.308z" fill="#263238"/><path d="M339.205 254.689s-26.1 58.293-26.1 68.996c0 10.704 19.559 85.068 19.559 85.068-.186 2.949-.944 17.774-.944 17.774l109.62.373 1.672-23.566-8.555-22.456 8.544-63.474s5.752-36.855 6.261-47.164c.643-12.894-43.053-27.843-41.86-29.629l-7.547-10.101-43.219 35.09-8.544-24.667-10.237 9.676 1.35 4.08z" fill="#0084E4"/><path d="M410.995 270.199c-11.867 20.078-33.575 56.663-33.575 56.663l-38.91 44.361s-2.544 22.549 2.543 29.453 13.818 11.638 13.818 11.638 10.278 0 23.318-10.911c13.049-10.911 49.043-55.999 49.043-55.999l12.364-14.908s14.742-36.212 11.991-54.65c-1.059-7.111-4.09-10.06-8.118-13.319-10.154-8.181-25.84-3.551-32.474 7.672z" fill="#0084E4"/><path d="M444.173 317.903c.01 0-.052.145-.176.415-.146.291-.333.686-.571 1.184a101.5 101.5 0 01-2.388 4.454c-2.149 3.83-5.482 9.25-9.852 15.769-2.191 3.26-4.631 6.8-7.309 10.559-2.658 3.779-5.741 7.63-8.264 12.157-2.575 4.485-4.796 9.468-7.547 14.42-2.752 4.942-6.001 9.852-9.884 14.441-3.893 4.578-8.295 8.565-13.112 11.586-4.796 3.042-10.029 5.014-15.178 5.876-5.149.893-10.226.602-14.701-.623-2.252-.592-4.329-1.495-6.218-2.523-1.9-1.017-3.623-2.18-5.118-3.467-1.516-1.267-2.814-2.648-3.862-4.091-1.09-1.412-1.89-2.896-2.554-4.318-1.277-2.876-1.817-5.544-2.087-7.724-.218-2.191-.228-3.904-.177-5.056.032-.561.063-.997.073-1.319.021-.291.031-.446.042-.446.01 0 .01.155.01.446-.01.322-.01.758-.021 1.308-.02 1.153.021 2.855.281 5.025.311 2.159.872 4.807 2.159 7.631.675 1.391 1.474 2.855 2.554 4.235 1.038 1.412 2.336 2.762 3.831 3.997 1.484 1.267 3.197 2.398 5.076 3.395 1.88 1.007 3.914 1.879 6.136 2.461 4.423 1.183 9.427 1.453 14.503.56 5.087-.872 10.237-2.813 14.971-5.834 4.755-2.99 9.115-6.946 12.977-11.493 3.851-4.558 7.091-9.437 9.842-14.347 2.751-4.911 4.973-9.905 7.578-14.41 2.544-4.558 5.669-8.42 8.327-12.168a470.441 470.441 0 007.36-10.506c4.402-6.489 7.786-11.866 9.987-15.656a116.788 116.788 0 002.471-4.401c.26-.488.467-.872.623-1.153.125-.249.208-.384.218-.384z" fill="#263238"/><path d="M336.558 369.219c.041.083-.55.415-1.267 1.214-.716.779-1.505 2.097-1.661 3.707-.145 1.609.395 3.052.955 3.945.561.913 1.08 1.36 1.028 1.422-.031.052-.664-.301-1.339-1.215-.675-.893-1.329-2.439-1.173-4.204.166-1.765 1.09-3.167 1.92-3.925.831-.778 1.516-.996 1.537-.944zM343.711 381.004c.011-.02.218.032.613.146.197.052.436.135.726.197.301.052.634.114 1.007.187 1.516.249 3.79.218 6.416-.592 2.617-.841 5.534-2.45 8.264-4.858 2.731-2.409 5.181-5.627 7.745-8.981 2.554-3.374 5.129-6.54 7.973-8.918 1.412-1.183 2.793-2.232 3.956-3.363 1.152-1.121 2.076-2.336 2.595-3.582.976-2.554.322-4.962-.602-6.125-.955-1.204-1.921-1.329-1.879-1.402 0-.02.218.032.602.177.374.176.924.477 1.433 1.1 1.017 1.194 1.775 3.675.789 6.395-.53 1.329-1.475 2.596-2.637 3.759-1.163 1.173-2.554 2.242-3.945 3.426-2.783 2.356-5.316 5.492-7.87 8.866-2.564 3.363-5.045 6.592-7.838 9.032-2.793 2.429-5.793 4.038-8.482 4.848-2.699.789-5.035.758-6.561.436-.374-.083-.706-.166-1.007-.239-.291-.083-.53-.187-.716-.249-.385-.166-.582-.249-.582-.26zM416.278 264.031c.011.011-.135.229-.436.623-.332.436-.778 1.007-1.329 1.734-1.183 1.474-2.813 3.675-4.796 6.416-3.935 5.502-8.98 13.392-13.849 22.497-4.89 9.095-8.949 17.535-12.053 23.556-1.547 3.021-2.814 5.451-3.727 7.112-.436.789-.789 1.422-1.059 1.91-.249.436-.384.654-.405.644-.021-.011.093-.25.301-.696.249-.498.56-1.142.965-1.952.872-1.754 2.087-4.194 3.572-7.184 3.01-6.063 7.007-14.534 11.918-23.649 4.879-9.126 9.987-17.006 14.015-22.466 2.025-2.72 3.706-4.89 4.942-6.323.581-.695 1.048-1.246 1.412-1.671.332-.374.509-.561.529-.551z" fill="#263238"/><path opacity=".3" d="M335.27 379.195c5.066 2.741 10.621 2.45 16.268 1.339 5.648-1.11 10.88-4.235 14.535-8.689-.987 4.931-3.094 9.759-6.697 13.268-3.602 3.509-8.803 5.554-13.755 4.651-4.952-.903-9.946-5.554-10.351-10.569zM383.13 349.246c3.187 4.879 4.319 11.046 3.083 16.735 4.288-6.561 5.295-14.877 4.142-22.632-1.152-7.755-4.308-15.064-7.817-22.082 0 0-3.872 6.53-3.904 7.257-.186 3.768 1.205 10.88 1.931 14.586 1.952 1.838 2.876 4.703 2.357 7.329M352.421 406.366c10.319 8.045 25.622 8.419 36.917 1.816 10.87-6.364 17.566-17.825 23.774-28.778 9.613-16.963 21.355-37.945 28.228-56.196 0 0-19.258 26.276-25.062 37.603-4.381 8.544-7.744 14.181-13.132 22.123-10.839 15.967-30.46 25.518-49.718 24.221" fill="#000"/><path d="M331.716 426.528c-.01 0-.021-.115-.021-.322 0-.249.011-.561.021-.945.031-.882.073-2.087.135-3.602.145-3.156.353-7.589.592-12.915l.01.072a1053.612 1053.612 0 01-6.302-21.936c-2.99-10.818-5.512-20.66-7.215-27.813-.851-3.581-1.505-6.478-1.921-8.492-.197-.966-.353-1.744-.477-2.315-.104-.53-.145-.81-.125-.82.021 0 .104.27.239.789.145.571.332 1.339.571 2.294.509 2.045 1.215 4.921 2.087 8.451 1.796 7.132 4.37 16.943 7.36 27.76a1848.023 1848.023 0 006.209 21.958l.01.041v.031c-.322 5.326-.592 9.749-.779 12.905-.103 1.505-.186 2.71-.249 3.592-.031.384-.062.685-.083.945-.031.207-.052.322-.062.322zM441.379 261.906c-.031.083-1.121-.301-2.927-.748a34.514 34.514 0 00-7.153-.986 34.423 34.423 0 00-7.205.561c-1.827.342-2.938.654-2.959.571-.01-.031.259-.156.747-.332.488-.187 1.225-.395 2.139-.623 1.827-.447 4.423-.81 7.298-.727 2.876.093 5.44.613 7.236 1.163.904.27 1.61.529 2.098.747.487.208.747.343.726.374zM406.665 242.76c.021.011-.083.198-.28.54-.229.395-.53.883-.883 1.485a207.406 207.406 0 01-3.394 5.378 299.43 299.43 0 01-12.105 17.161 302.129 302.129 0 01-11.047 13.683l-.218.259-.145-.311c-1.505-3.302-2.751-6.042-3.665-8.025-.405-.914-.726-1.661-.976-2.232-.218-.519-.321-.789-.301-.8.021-.01.166.249.426.748l1.09 2.18c.945 1.962 2.253 4.672 3.831 7.952l-.363-.052a389.154 389.154 0 0010.942-13.724c4.962-6.52 9.208-12.604 12.219-17.047 1.464-2.18 2.668-3.976 3.54-5.284.395-.582.717-1.059.966-1.433.218-.322.342-.488.363-.478zM431.89 410.166c-.145-.021.332-5.409 1.059-12.032.737-6.634 1.453-11.991 1.599-11.981.145.021-.332 5.409-1.059 12.033-.727 6.634-1.443 11.991-1.599 11.98zM356.76 408.753c.145-.021.705 4.039 1.235 9.043.54 5.014.851 9.084.696 9.105-.146.02-.706-4.039-1.236-9.043-.529-5.014-.841-9.094-.695-9.105z" fill="#263238"/><path d="M412.207 290.173c-.135-.862-1.329-1.329-2.014-.799l-.073.062c-.643.581-.405 1.837.416 2.128.82.291 1.806-.529 1.671-1.391zM401.381 263.794c-.135-.861-1.329-1.328-2.014-.799l-.073.062c-.643.582-.405 1.838.415 2.129.831.28 1.807-.54 1.672-1.392zM376.537 285.032c-.135-.862-1.329-1.329-2.014-.8l-.073.063c-.644.581-.405 1.837.415 2.128.831.291 1.807-.53 1.672-1.391zM349.679 274.372c-.135-.862-1.328-1.329-2.014-.799l-.072.062c-.644.581-.405 1.838.415 2.128.831.281 1.817-.54 1.671-1.391zM344.934 263.857c-.135-.862-1.329-1.329-2.014-.8l-.072.062c-.644.582-.405 1.838.415 2.129.82.28 1.806-.54 1.671-1.391zM346.991 251.701c-.135-.862-1.329-1.329-2.014-.8l-.073.062c-.643.582-.404 1.838.416 2.129.83.28 1.816-.53 1.671-1.391zM332.123 268.415c-.135-.862-1.329-1.329-2.014-.799l-.073.062c-.643.581-.404 1.838.416 2.128.82.281 1.806-.529 1.671-1.391zM366.569 273.229c-.134-.862-1.328-1.329-2.014-.799l-.072.062c-.644.581-.405 1.838.415 2.128.831.291 1.817-.529 1.671-1.391zM337.408 294.895c-.135-.861-1.329-1.329-2.014-.799l-.073.062c-.643.582-.405 1.838.416 2.129.82.28 1.806-.53 1.671-1.392zM310.705 357.207c-.135-.862-1.328-1.329-2.014-.799l-.072.062c-.644.581-.405 1.838.415 2.128.82.281 1.806-.529 1.671-1.391zM320.237 321.268c-.135-.862-1.329-1.329-2.014-.8l-.073.063c-.644.581-.405 1.837.415 2.128.82.29 1.807-.53 1.672-1.391zM390.449 258.167c-.135-.862-1.329-1.329-2.014-.8l-.073.062c-.643.582-.405 1.838.416 2.129.83.28 1.816-.53 1.671-1.391zM423.971 329.73c-.135-.862-1.329-1.329-2.014-.8l-.073.062c-.644.582-.405 1.838.415 2.129.82.28 1.807-.54 1.672-1.391zM437.021 268.144c-.135-.862-1.329-1.329-2.014-.8l-.072.063c-.644.581-.405 1.837.415 2.128.83.28 1.806-.53 1.671-1.391zM431.893 308.475c-.135-.861-1.329-1.328-2.014-.799l-.073.062c-.643.582-.405 1.838.416 2.129.83.28 1.816-.54 1.671-1.392zM402.616 337.597c-.135-.862-1.329-1.329-2.014-.799l-.073.062c-.644.581-.405 1.837.415 2.128.821.28 1.807-.54 1.672-1.391zM403.851 313.355c-.135-.861-1.329-1.329-2.014-.799l-.073.062c-.644.582-.405 1.838.415 2.128.82.281 1.807-.539 1.672-1.391zM421.509 268.351c-.135-.862-1.329-1.329-2.014-.799l-.073.062c-.644.581-.405 1.838.415 2.128.831.291 1.807-.529 1.672-1.391zM397.726 244.868c-.135-.862-1.329-1.329-2.014-.8l-.073.062c-.643.582-.405 1.838.416 2.129.83.28 1.816-.53 1.671-1.391zM396.863 282.73c-.135-.862-1.329-1.329-2.014-.8l-.073.062c-.643.582-.404 1.838.416 2.129.83.28 1.806-.53 1.671-1.391zM366.509 398.226c-.135-.862-1.329-1.329-2.014-.799l-.073.062c-.644.581-.405 1.838.415 2.128.82.281 1.807-.529 1.672-1.391zM331.677 379.227c-.135-.861-1.329-1.328-2.014-.799l-.072.062c-.644.582-.405 1.838.415 2.129.82.29 1.806-.53 1.671-1.392zM303.512 388.54c-.135-.861-1.329-1.329-2.014-.799l-.072.062c-.644.582-.405 1.838.415 2.128.83.281 1.806-.529 1.671-1.391zM300.501 404.58c-.135-.861-1.329-1.328-2.014-.799l-.073.062c-.644.582-.405 1.838.415 2.129.82.28 1.807-.53 1.672-1.392zM326.9 409.959c-.135-.862-1.329-1.329-2.014-.799l-.073.062c-.643.581-.404 1.838.416 2.128.83.281 1.806-.54 1.671-1.391zM318.077 374.036c-.135-.861-1.329-1.328-2.014-.799l-.073.062c-.643.582-.405 1.838.416 2.129.82.28 1.806-.54 1.671-1.392zM350.469 383.164c-.135-.862-1.329-1.329-2.015-.8l-.072.063c-.644.581-.405 1.837.415 2.128.82.28 1.806-.53 1.672-1.391zM427.469 373.974c-.135-.861-1.329-1.328-2.014-.799l-.073.062c-.643.582-.405 1.838.416 2.129.83.28 1.816-.53 1.671-1.392zM379.829 419.633c-.135-.862-1.329-1.329-2.015-.799l-.072.062c-.644.581-.405 1.838.415 2.128.82.281 1.806-.54 1.672-1.391zM400.144 394.22c-.135-.861-1.329-1.329-2.014-.799l-.073.062c-.643.582-.405 1.838.416 2.128.83.281 1.816-.539 1.671-1.391zM412.217 414.889c-.135-.862-1.329-1.329-2.014-.8l-.073.063c-.643.581-.405 1.837.415 2.128.821.28 1.807-.54 1.672-1.391zM378.633 306.64c-.134-.862-1.328-1.329-2.014-.799l-.072.062c-.644.581-.405 1.837.415 2.128.82.291 1.806-.529 1.671-1.391zM405.958 359.41c-.134-.862-1.328-1.329-2.014-.8l-.072.063c-.644.581-.405 1.837.415 2.128.831.28 1.817-.53 1.671-1.391zM397.104 379.393c-.135-.862-1.329-1.329-2.014-.799l-.073.062c-.644.581-.405 1.838.415 2.128.82.291 1.807-.529 1.672-1.391zM426.245 395.445c-.135-.862-1.329-1.329-2.014-.799l-.073.062c-.643.581-.405 1.838.416 2.128.82.291 1.806-.529 1.671-1.391zM346.502 418.626c-.135-.862-1.329-1.329-2.014-.8l-.072.062c-.644.582-.405 1.838.415 2.129.82.28 1.806-.53 1.671-1.391zM280.059 412.563c-.135-.862-1.329-1.329-2.014-.8l-.073.062c-.644.582-.405 1.838.415 2.129.82.28 1.807-.54 1.672-1.391zM338.571 401.652c-.135-.862-1.329-1.329-2.014-.8l-.073.063c-.643.581-.405 1.837.416 2.128.82.28 1.806-.54 1.671-1.391zM282.519 389.775c-.134-.861-1.328-1.329-2.014-.799l-.072.062c-.644.581-.405 1.838.415 2.128.82.281 1.806-.529 1.671-1.391zM376.174 352.089c-.135-.862-1.329-1.329-2.014-.799l-.073.062c-.644.581-.405 1.837.415 2.128.82.291 1.807-.529 1.672-1.391zM356.573 294.895c-.135-.861-1.329-1.329-2.014-.799l-.072.062c-.644.582-.405 1.838.415 2.129.82.28 1.806-.53 1.671-1.392zM351.673 344.503c-.134-.862-1.328-1.329-2.014-.8l-.072.063c-.644.581-.405 1.837.415 2.128.831.28 1.806-.54 1.671-1.391zM343.7 328.316c-.135-.862-1.329-1.329-2.014-.799l-.072.062c-.644.581-.405 1.837.415 2.128.82.291 1.806-.529 1.671-1.391zM378.967 379.176c-.135-.862-1.329-1.329-2.014-.8l-.073.063c-.644.581-.405 1.837.415 2.128.82.29 1.807-.54 1.672-1.391zM354.102 369.189c-.134-.862-1.328-1.329-2.014-.8l-.072.062c-.644.582-.405 1.838.415 2.129.831.29 1.817-.53 1.671-1.391zM364.742 314.426c-.135-.862-1.329-1.329-2.014-.8l-.073.063c-.643.581-.405 1.837.416 2.128.83.28 1.806-.53 1.671-1.391zM326.9 353.2c-.135-.861-1.329-1.329-2.014-.799l-.073.062c-.643.582-.404 1.838.416 2.128.83.291 1.806-.529 1.671-1.391zM385.32 335.407c-.135-.862-1.329-1.329-2.014-.8l-.073.062c-.644.582-.405 1.838.415 2.129.821.28 1.807-.53 1.672-1.391zM439.491 288.938c-.135-.862-1.329-1.329-2.014-.799l-.073.062c-.643.581-.404 1.838.416 2.128.82.291 1.806-.529 1.671-1.391zM417.494 253.765c-.135-.861-1.329-1.328-2.014-.799l-.073.062c-.644.582-.405 1.838.415 2.129.821.28 1.807-.54 1.672-1.392zM374.866 258.167c-.135-.862-1.329-1.329-2.014-.8l-.073.062c-.644.582-.405 1.838.415 2.129.821.28 1.807-.53 1.672-1.391z" fill="#fff"/><path d="M331.375 131.87c-8.181 5.201-11.441 16.102-9.884 22.549.789 3.249 2.264 6.52 1.62 9.79-.561 2.834-2.596 5.097-4.122 7.547-5.087 8.181-4.183 19.622 2.118 26.91 6.302 7.277 17.493 9.821 26.318 5.959" fill="#263238"/><path d="M326.538 174.426c-19.891-43.748 27.418-65.726 53.237-58.438 24.262 6.852 34.613 18.926 38.6 35.152 3.996 16.237 3.799 33.814-2.565 49.282-3.135 7.62-8.783 15.365-16.974 16.32" fill="#263238"/><path d="M349.845 281.261c-.343-20.898-.581-49.614-.592-49.5 0 0-17.971-2.979-21.687-26.421-1.848-11.659-1.267-30.772-.28-46.396.882-14.067 10.205-31.322 24.22-29.837l43.759 11.056a8.249 8.249 0 017.381 8.368l-2.855 90.508" fill="#FFBE9D"/><path d="M335.102 173.261c-.073 1.578 1.204 2.938 2.845 3.052 1.64.104 3.042-1.08 3.114-2.658.073-1.578-1.204-2.938-2.844-3.052-1.651-.114-3.042 1.08-3.115 2.658zM366.165 173.261c-.073 1.578 1.204 2.938 2.844 3.052 1.641.104 3.042-1.08 3.115-2.658.073-1.578-1.204-2.938-2.845-3.052-1.65-.114-3.041 1.08-3.114 2.658zM331.864 167.799c.363.405 2.689-1.204 5.928-1.09 3.229.073 5.544 1.817 5.918 1.433.176-.166-.177-.893-1.184-1.671-.997-.779-2.699-1.568-4.713-1.63-2.014-.052-3.738.633-4.734 1.36-1.028.716-1.391 1.412-1.215 1.598zM362.573 168.568c.373.394 2.647-1.308 5.876-1.308 3.228-.052 5.616 1.598 5.959 1.204.166-.177-.208-.883-1.246-1.63-1.017-.748-2.762-1.464-4.776-1.454-2.014.021-3.706.769-4.682 1.537-.986.768-1.318 1.485-1.131 1.651zM351.485 193.485c.01-.187-1.994-.53-5.254-.945-.83-.083-1.609-.249-1.744-.81-.197-.602.156-1.485.55-2.45.779-2.004 1.589-4.09 2.44-6.291 3.395-8.96 5.845-16.32 5.482-16.455-.364-.135-3.406 7.018-6.8 15.977-.82 2.211-1.599 4.308-2.336 6.333-.312.934-.852 2.004-.426 3.239.218.613.831 1.069 1.36 1.204.53.166.997.166 1.402.198 3.28.166 5.315.186 5.326 0z" fill="#263238"/><path d="M349.253 231.772s15.77 1.018 31.394-8.378c0 0-7.931 16.31-31.394 14.119v-5.741z" fill="#EB996E"/><path d="M361.772 163.968c.321.882 3.55.467 7.339.924 3.811.384 6.863 1.495 7.371.706.229-.374-.311-1.205-1.546-2.056-1.225-.851-3.188-1.661-5.461-1.91-2.274-.249-4.36.114-5.752.675-1.391.55-2.097 1.246-1.951 1.661zM332.61 159.671c.571.737 2.803-.031 5.481-.062 2.679-.125 4.952.498 5.472-.27.228-.374-.125-1.111-1.122-1.806-.976-.696-2.616-1.257-4.453-1.205-1.838.063-3.437.727-4.371 1.474-.945.748-1.256 1.506-1.007 1.869z" fill="#263238"/><path d="M398.607 179.399c.342-.166 12.551-5.565 12.686 8.471.145 14.036-13.974 11.285-14.005 10.88-.021-.405 1.319-19.351 1.319-19.351z" fill="#FFBE9D"/><path d="M401.525 193.384c.062-.042.249.166.664.353.405.176 1.1.301 1.827.02 1.474-.56 2.699-2.927 2.741-5.46a8.242 8.242 0 00-.716-3.499c-.436-1.017-1.111-1.734-1.859-1.858a1.237 1.237 0 00-1.432.685c-.187.394-.094.675-.167.695-.041.032-.301-.228-.197-.809.052-.281.218-.613.54-.883.332-.28.831-.425 1.35-.373 1.079.062 2.066 1.048 2.574 2.149.571 1.1.914 2.47.883 3.903-.063 2.834-1.485 5.492-3.509 6.094-.987.27-1.807-.021-2.243-.353-.425-.322-.498-.633-.456-.664z" fill="#EB996E"/><path d="M346.822 122.185c-7.807 4.039-11.025 20.006-7.786 28.186 3.228 8.171 11.939 12.168 20.524 14.047 8.586 1.879 17.006 2.107 25.467-.249.591 5.689 4.007 11.544 9.53 13.039 7.319 1.993 14.69-4.713 16.31-12.115 1.63-7.402-.81-15.023-3.219-22.217" fill="#263238"/><path d="M408.751 173.119c.031.041-.353.405-1.079 1.028a37.355 37.355 0 01-3.24 2.439c-1.432.945-3.228 1.994-5.46 2.637-2.191.634-4.89.862-7.444-.103-2.554-.976-4.443-2.907-5.637-4.87-1.205-1.993-1.755-4.028-2.025-5.73a20.96 20.96 0 01-.218-4.07c.042-.955.135-1.484.187-1.484.156 0-.01 2.128.602 5.44.332 1.64.914 3.581 2.087 5.44 1.163 1.837 2.948 3.623 5.295 4.505 2.336.893 4.848.717 6.955.146 2.129-.571 3.904-1.537 5.347-2.409 2.865-1.786 4.547-3.083 4.63-2.969z" fill="#263238"/><path d="M352.438 202.498c.467 1.194.955 2.409 1.744 3.416.789 1.007 1.942 1.817 3.229 1.869 1.37.062 2.679-.748 3.447-1.879.758-1.132 1.017-2.554.955-3.914-.052-1.236-.623-2.71-1.848-2.855-.509-.063-1.018.135-1.495.332-2.149.872-4.298 1.744-6.457 2.616" fill="#EB996E"/><path d="M355.015 207.813c.031-.207 1.453.374 3.447-.425.965-.385 2.024-1.153 2.606-2.368.581-1.193.695-2.813.083-4.225a4.886 4.886 0 00-.561-.965c-.26-.27-.208-.26-.488-.218-.26.072-.685.27-1.038.405-.364.145-.716.29-1.059.436-1.381.56-2.637 1.048-3.686 1.443-2.117.789-3.446 1.204-3.519 1.059-.062-.146 1.163-.831 3.198-1.807a161.481 161.481 0 014.64-2.139c.374-.155.665-.321 1.184-.487.249-.073.612-.115.955.031.342.135.55.373.716.56.291.384.54.779.727 1.225.758 1.765.571 3.717-.197 5.16-.789 1.474-2.139 2.305-3.281 2.647-1.163.353-2.159.27-2.793.104-.654-.156-.955-.374-.934-.436z" fill="#263238"/><path d="M414.348 169.785c-1.443-.104-13.029 1.402-12.116 22.944.852 20.13 14.971 15.697 19.476 8.118 4.267-7.174 6.738-30.065-7.36-31.062z" fill="#455A64"/><path d="M421.51 172.33c-.01 0-.031-.197-.051-.571-.021-.415-.042-.965-.073-1.64-.042-1.485-.104-3.561-.177-6.136-.103-5.294-.249-12.645-.425-21.137l.259.26c-1.91 0-3.924.01-5.98.01l.27-.28c.042 1.609.094 3.301.135 5.014.198 8.087.384 15.614.54 21.916v.187l-.176.041c-2.689.634-4.817 2.191-6.157 3.966-1.37 1.775-2.045 3.654-2.46 5.201-.415 1.558-.55 2.824-.633 3.675a18.36 18.36 0 00-.073.987c-.011.218-.021.342-.031.342-.011 0-.031-.114-.042-.342-.01-.229-.01-.561 0-.987.031-.861.135-2.149.519-3.737.384-1.578 1.038-3.509 2.419-5.357 1.35-1.848 3.561-3.509 6.343-4.184l-.176.229c-.177-6.302-.395-13.829-.633-21.916-.042-1.713-.094-3.405-.135-5.015l-.011-.28h.281c2.055 0 4.059.011 5.979.011h.26v.259c.093 8.492.177 15.843.228 21.137.011 2.575.011 4.651.021 6.136-.01.675-.01 1.225-.021 1.64.032.384.021.571 0 .571z" fill="#455A64"/><path d="M414.348 142.857s-6.063-14.192-20.504-21.189c-6.997-3.395-12.23-5.139-17.306-6.416 0 0 8.43-2.004 22.061 4.069 6.198 2.762 12.437 6.344 16.569 11.732 2.627 3.415 5.897 10.101 5.886 11.814h-6.706v-.01zM426.928 159.683c-.093.021.042-1.474-.944-3.841-.956-2.326-3.323-5.482-7.454-7.465-2.056-.965-4.516-1.578-7.185-1.754-2.678-.177-5.554.083-8.523.654-5.949 1.09-12.199 3.665-19.196 4.713a39.147 39.147 0 01-10.278-.01c-3.301-.467-6.395-1.402-9.239-2.502-5.658-2.336-10.226-5.596-13.455-8.887-3.25-3.281-5.347-6.426-6.52-8.721a12.314 12.314 0 01-.768-1.526l-.509-1.152c-.124-.291-.218-.519-.301-.706-.062-.166-.093-.249-.083-.249.01 0 .052.072.135.228.093.187.208.405.353.685.156.312.332.686.55 1.122.208.446.457.955.81 1.495 1.215 2.252 3.353 5.336 6.603 8.544 3.239 3.228 7.776 6.416 13.371 8.7 2.814 1.079 5.866 1.993 9.126 2.439 3.26.436 6.675.447 10.133 0 6.903-1.038 13.164-3.592 19.185-4.671 3-.561 5.918-.81 8.648-.613 2.72.197 5.222.841 7.319 1.858 4.205 2.077 6.561 5.337 7.485 7.724.499 1.205.623 2.212.727 2.886.01.312.021.571.031.769-.01.187-.01.28-.021.28z" fill="#455A64"/><path d="M411.263 137.31c0 .021-.259.062-.747.135-.488.062-1.215.176-2.139.332-1.848.312-4.506.893-7.765 1.713-3.26.81-7.164 1.786-11.607 2.253-4.433.467-9.385.426-14.483-.312a61.295 61.295 0 01-13.984-3.758c-4.142-1.671-7.682-3.592-10.496-5.45-1.391-.945-2.647-1.817-3.696-2.647-1.027-.852-1.951-1.547-2.637-2.191a369.143 369.143 0 01-1.578-1.485c-.353-.342-.539-.529-.529-.539.01-.011.218.145.602.467.415.353.966.82 1.64 1.401.706.623 1.641 1.288 2.689 2.118 1.059.8 2.326 1.651 3.717 2.564 5.616 3.593 14.202 7.558 24.355 9.001 5.056.737 9.946.789 14.348.353 4.402-.425 8.295-1.36 11.576-2.128 3.27-.768 5.948-1.298 7.817-1.547a35.342 35.342 0 012.159-.239c.488-.051.758-.062.758-.041z" fill="#455A64"/><path d="M412.799 206.869c-.01.02-.145-.021-.404-.115a6.073 6.073 0 01-1.08-.56c-.893-.561-2.076-1.599-3.042-3.239-.976-1.63-1.62-3.842-1.869-6.323-.238-2.471-.238-5.201-.01-8.056a48.851 48.851 0 011.329-7.942c.602-2.398 1.329-4.547 2.315-6.167.976-1.63 2.159-2.678 3.052-3.218.447-.28.82-.447 1.08-.55.259-.094.405-.125.405-.115.02.042-.53.239-1.371.831s-1.941 1.64-2.844 3.239c-.924 1.599-1.589 3.706-2.16 6.094a51.889 51.889 0 00-1.277 7.859c-.228 2.814-.238 5.523-.031 7.963.218 2.429.8 4.578 1.703 6.177.882 1.609 1.993 2.658 2.824 3.26.851.623 1.412.81 1.38.862z" fill="#263238"/><path d="M367.336 209.849l-10.651 2.087a2.964 2.964 0 01-3.478-2.336l-.073-.395a2.965 2.965 0 012.336-3.478l10.652-2.086a2.962 2.962 0 013.477 2.336l.073.394a2.966 2.966 0 01-2.336 3.478z" fill="#455A64"/><path d="M368.144 205.248l49.262-15.448a2.325 2.325 0 012.907 1.505 2.312 2.312 0 01-1.61 2.948l-50.372 13.611-.187-2.616z" fill="#455A64"/><path d="M404.553 198.459c-.01-.032.571-.239 1.63-.571 1.153-.353 2.668-.81 4.506-1.371 1.889-.581 4.215-1.194 6.665-2.003.592-.229 1.173-.54 1.609-.997.426-.447.706-1.08.696-1.713 0-.633-.405-1.204-1.018-1.412-.612-.208-1.349-.114-2.055.062-5.731 1.838-10.901 3.509-14.773 4.755a832.52 832.52 0 01-4.496 1.391c-1.069.322-1.661.478-1.671.436-.011-.031.56-.259 1.609-.643 1.142-.395 2.637-.924 4.443-1.558 3.769-1.277 8.939-3.052 14.753-4.91.747-.187 1.567-.312 2.367-.042.81.26 1.381 1.09 1.37 1.911.011.799-.332 1.546-.851 2.086-.53.53-1.173.862-1.806 1.101-2.544.809-4.818 1.36-6.738 1.91-1.848.488-3.385.893-4.547 1.204-1.08.26-1.682.395-1.693.364zM324.016 160.723c1.682 5.918-4.329 10.994-6.447 16.777-2.046 5.585-.301 11.846 2.221 17.244 2.523 5.388 5.845 10.506 7.133 16.32 3.187 14.327-9.77 29.764-7.299 44.226.903 5.274 3.021 10.766 4.859 15.791 1.837 5.014 1.713 9.613 0 14.669-2.803 8.285-7.558 12.188-10.901 20.276-1.713 4.132-1.578 8.762-1.495 13.226.083 4.474.052 9.136-1.931 13.143-1.993 4.008-6.54 7.101-10.859 5.939 4.516 5.315 12.863 6.903 19.019 3.623 5.679-3.032 8.856-9.178 11.576-15.012 13.164-28.249 20.13-30.637 19.767-61.803-.021-2.003-.395-33.221-.395-33.221s-4.931-1.319-7.776-3.281c-14.711-10.153-15.24-28.238-15.126-42.253" fill="#263238"/><path d="M353.439 255.29v11.762s-9.043 46.147-11.763 71.779c-2.709 25.633-3.177 32.402-3.177 32.402s6.489 10.122 20.058-7.07c13.569-17.192 15.988-19.902 21.407-20.203 0 0-6.634-72.08-6.333-74.79.301-2.709 2.409-5.128 2.409-5.128l-22.601-8.752zM371.234 228.743s-14.773 19.601-15.988 22.321c-1.204 2.71-1.806 4.225-1.806 4.225l22.621 8.742 22.02-24.127 8.139-21.408-2.408-25.331s-4.828-.301-5.731 3.924c-.903 4.226-.602 8.14-.602 8.14l-6.759-5.43-10.89-3.322s-2.564 4.225 1.661 6.333c4.225 2.107 5.43 2.107 5.43 2.107l3.799 6.634-1.661 7.433-7.693-7.215a4.41 4.41 0 00-5.616-.353l-4.973 3.613-4.661-2.087-9.043 7.953-3.623 3.322s2.409 4.526 7.236 2.408l4.827-2.107 5.721 4.225z" fill="#FFBE9D"/><path d="M353.44 259.255s-.021-.207-.011-.623c.011-.415.052-1.038.146-1.837.103-.81.259-1.807.571-2.959.332-1.142.716-2.492 1.588-3.8 3.384-5.191 8.71-12.416 15.344-21.396l.042.27a1690.768 1690.768 0 00-5.741-4.215l.207.02c-.976.426-1.972.862-2.979 1.308-1.018.426-2.014.966-3.177 1.236-1.142.259-2.44.176-3.53-.405-1.111-.55-2.004-1.443-2.658-2.533l-.093-.146.135-.124c3.893-3.654 8.212-7.34 12.655-11.285l.135-.114.156.093c1.246.737 2.626 1.547 4.018 2.367l-.27.011c1.547-1.018 3.114-2.046 4.703-3.094.809-.519 1.557-1.049 2.439-1.578.945-.478 2.16-.384 3.021.27 2.99 2.523 6.042 5.108 9.157 7.734l-.436.146c.498-2.233 1.038-4.651 1.578-7.102l.031.187c-1.204-2.097-2.491-4.36-3.8-6.634l.239.135c-.716-.083-1.256-.29-1.879-.508a32.33 32.33 0 01-1.775-.727c-.592-.26-1.173-.55-1.765-.831-.291-.145-.592-.332-.882-.508-.26-.229-.561-.405-.779-.686-.696-.737-1.101-1.764-1.049-2.771.021-1.007.322-1.952.8-2.824l.104-.187.207.062c3.675 1.121 7.309 2.232 10.88 3.322l.052.011.042.031c2.284 1.837 4.536 3.644 6.758 5.429l-.425.229a32.221 32.221 0 01.57-8.025c.229-1.329 1.018-2.648 2.201-3.343 1.163-.716 2.502-.997 3.842-.966h.218l.02.229c.852 9.001 1.651 17.493 2.388 25.331v.052l-.021.052c-3.021 7.89-5.751 15.053-8.18 21.397l-.011.031-.02.021c-7.237 7.879-13.061 14.223-17.099 18.604a1130.974 1130.974 0 01-4.641 5.004c-.519.56-.924.986-1.214 1.287-.27.291-.426.426-.426.426s.124-.167.384-.468c.28-.311.664-.747 1.173-1.328 1.059-1.174 2.585-2.876 4.568-5.077 3.997-4.412 9.78-10.797 16.974-18.718l-.041.062c2.408-6.354 5.118-13.527 8.108-21.428l-.011.104c-.757-7.849-1.567-16.331-2.439-25.331l.239.228c-1.205-.021-2.492.239-3.53.893-1.059.633-1.744 1.765-1.962 3.01a32.102 32.102 0 00-.561 7.88l.031.592-.457-.374c-2.221-1.785-4.474-3.592-6.758-5.429l.093.051c-3.581-1.09-7.205-2.19-10.89-3.311l.311-.114c-.425.768-.706 1.671-.726 2.553a3.302 3.302 0 00.903 2.399c.187.249.467.404.695.602.27.155.53.322.821.467.581.291 1.162.571 1.744.82 1.142.498 2.367 1.028 3.426 1.194l.176.031.062.114c1.308 2.274 2.596 4.537 3.8 6.634l.052.094-.021.103c-.55 2.44-1.09 4.859-1.588 7.102l-.094.425-.332-.28c-3.104-2.627-6.146-5.201-9.115-7.724a2.422 2.422 0 00-2.492-.218c-.778.457-1.598 1.038-2.387 1.536-1.589 1.039-3.156 2.077-4.703 3.084l-.135.083-.135-.083c-1.391-.831-2.772-1.641-4.008-2.378l.291-.031c-4.443 3.935-8.783 7.61-12.676 11.254l.052-.27c.581.976 1.443 1.858 2.45 2.346 1.007.53 2.17.613 3.239.374s2.076-.779 3.104-1.204c1.018-.447 2.014-.872 2.99-1.298l.104-.052.093.073c2.004 1.484 3.935 2.917 5.721 4.236l.156.114-.115.156c-6.675 8.949-12.053 16.143-15.468 21.282-.862 1.267-1.267 2.606-1.61 3.727a22.309 22.309 0 00-.612 2.928 26.534 26.534 0 00-.197 1.827c-.063.457-.083.664-.083.664z" fill="#EB996E"/><path d="M381.427 233.291c-.104-.02.291-1.598.457-4.173.052-1.277-.021-2.834-.716-4.36-.685-1.527-2.045-2.845-3.603-4.049a89.543 89.543 0 00-8.367-5.7c-1.039-.612-1.921-1.131-2.648-1.557-.623-.363-.976-.582-.955-.613.021-.031.395.115 1.049.426.664.311 1.599.789 2.741 1.412a68.677 68.677 0 018.513 5.606c1.578 1.215 3 2.616 3.727 4.267.716 1.651.747 3.291.643 4.589a21.034 21.034 0 01-.508 3.062c-.177.706-.291 1.09-.333 1.09zM397.261 223.873c-.083-.021.135-1.049.385-2.71.249-1.661.488-3.986.467-6.551a42.027 42.027 0 00-.582-6.54c-.27-1.661-.508-2.689-.425-2.71.062-.021.425.976.81 2.637.373 1.661.716 4.007.737 6.613.02 2.606-.281 4.952-.634 6.624-.342 1.661-.695 2.657-.758 2.637z" fill="#EB996E"/><path d="M296.442 146.955l-10.817-19.071a50.798 50.798 0 007.557-26.712c0-28.176-22.839-51.016-51.015-51.016-28.176 0-51.016 22.84-51.016 51.016s22.84 51.016 51.016 51.016c11.762 0 22.59-3.997 31.218-10.683l-.021.021 23.078 5.429z" fill="#fff"/><path d="M296.444 146.954c-.945-.218-8.347-1.921-23.11-5.305l-.208-.042.125-.166.021-.02.187.186a52.022 52.022 0 01-10.496 6.323c-4.101 1.817-8.804 3.301-13.984 3.986-2.585.333-5.295.54-8.077.405-1.392-.083-2.803-.114-4.226-.228a1028.41 1028.41 0 00-4.308-.654c-5.772-1.142-11.68-3.333-17.182-6.748a51.438 51.438 0 01-14.68-13.714c-4.08-5.669-7.173-12.396-8.616-19.695a52.073 52.073 0 01.602-22.684c1.931-7.537 5.533-14.908 10.932-20.97l2.086-2.295c.686-.768 1.506-1.402 2.243-2.108.778-.664 1.474-1.422 2.315-2.014.82-.612 1.63-1.225 2.45-1.827.789-.643 1.661-1.152 2.533-1.671.862-.53 1.724-1.049 2.585-1.568.903-.436 1.807-.882 2.71-1.318.913-.416 1.785-.914 2.73-1.215a52.008 52.008 0 0122.861-3.509c7.547.54 14.783 2.71 20.981 6.198a51.762 51.762 0 0115.51 13.247 51.918 51.918 0 018.7 16.538c1.765 5.7 2.243 11.358 2.222 16.59a50.556 50.556 0 01-2.492 14.327 51.627 51.627 0 01-5.107 10.973v-.135c6.852 12.24 10.246 18.303 10.693 19.113-.457-.799-3.924-6.821-10.932-19.009l-.042-.062.042-.062c1.858-3.073 3.665-6.717 5.025-10.943a50.426 50.426 0 002.419-14.233c0-5.201-.488-10.807-2.253-16.455a51.364 51.364 0 00-8.659-16.372 51.513 51.513 0 00-15.385-13.102c-6.146-3.447-13.299-5.585-20.774-6.115a51.722 51.722 0 00-22.622 3.489c-.945.3-1.806.789-2.71 1.204-.892.436-1.785.862-2.678 1.298l-2.554 1.557c-.862.508-1.723 1.028-2.502 1.66-.81.603-1.609 1.205-2.419 1.807-.83.582-1.516 1.34-2.284 1.994-.737.695-1.547 1.329-2.222 2.086l-2.055 2.264c-5.336 6-8.908 13.288-10.818 20.742a51.483 51.483 0 00-.612 22.445c1.422 7.237 4.474 13.891 8.513 19.508a51.182 51.182 0 0014.524 13.6 51.233 51.233 0 0017.015 6.727c1.443.218 2.866.447 4.267.654 1.412.125 2.814.156 4.194.239 2.762.145 5.44-.062 8.015-.384 5.149-.665 9.821-2.128 13.901-3.914a52.488 52.488 0 0010.465-6.229l.82-.623-.623.81-.021.021-.072-.219c14.711 3.603 22.102 5.389 23.037 5.617z" fill="#263238"/><path d="M231.111 101.162a4.147 4.147 0 01-4.142 4.143 4.147 4.147 0 01-4.142-4.143 4.147 4.147 0 014.142-4.142 4.147 4.147 0 014.142 4.142zM247.68 101.162a4.147 4.147 0 01-4.142 4.143 4.148 4.148 0 01-4.143-4.143 4.148 4.148 0 014.143-4.142 4.14 4.14 0 014.142 4.142zM264.219 99.097a4.14 4.14 0 01-1.516 5.658 4.14 4.14 0 01-5.658-1.516 4.14 4.14 0 011.516-5.658 4.14 4.14 0 015.658 1.516z" fill="#0084E4"/><path d="M530 426.648c0 .163-118.603.303-264.868.303-146.323 0-264.903-.14-264.903-.303 0-.164 118.58-.304 264.903-.304 146.265-.011 264.868.129 264.868.304z" fill="#263238"/><path d="M367.193 426.898s7.039-12.023 22.206-12.542c15.168-.519 22.747 12.542 22.747 12.542h-44.953z" fill="#455A64"/><path d="M396.261 426.523c-.114 0-.135-.893-.446-2.263-.301-1.371-.966-3.219-2.16-4.994a14.781 14.781 0 00-3.851-3.851c-1.163-.789-1.983-1.142-1.942-1.246.021-.063.914.135 2.191.851 1.277.706 2.876 2.024 4.142 3.872 1.256 1.859 1.89 3.842 2.077 5.285.197 1.443.052 2.346-.011 2.346z" fill="#263238"/><path d="M357.811 426.346v-.093a5.83 5.83 0 00-5.825-5.731H222.9a5.822 5.822 0 00-5.824 5.824h140.735z" fill="#455A64"/><path d="M110.683 200.22c0 2.721 2.035 164.841 2.035 164.841l120.417 28.976h9.956l-6.333-226.342h-9.053L110.683 200.22z" fill="#263238"/><path d="M136.15 358.273l-37.323 68.405h34.115c-6.105-.613 54.016 0 54.016 0l-54.016-14.327 16.891-38.36-1.443-15.718h-12.24z" fill="#263238"/><path d="M136.98 370.895l-4.039-127.477 36.669-3.519 4.516 136.115-13.092.664-24.054-5.783z" fill="#263238"/><path d="M179.255 381.069s-.011-.198-.021-.592c-.011-.405-.011-.986-.021-1.744-.01-1.557-.021-3.831-.041-6.769-.021-5.928-.042-14.535-.073-25.352-.021-21.667-.062-52.158-.094-87.518l.26.259c-13.569 0-28.166.011-43.261.011l.27-.27v5.886c-.02 34.478-.031 66.578-.041 93.311v.062l-.031.052c-11.233 20.587-20.546 37.665-27.066 49.615-3.259 5.948-5.824 10.62-7.578 13.818-.872 1.578-1.547 2.792-2.004 3.623-.457.82-.706 1.235-.706 1.235s.208-.436.644-1.266c.446-.841 1.1-2.066 1.952-3.655 1.723-3.208 4.256-7.9 7.464-13.88 6.478-11.97 15.739-29.079 26.899-49.708l-.031.104c-.01-26.743-.031-58.833-.042-93.311V258.824h.27c15.095 0 29.692.01 43.261.01h.26v.26c-.042 35.36-.073 65.851-.094 87.518-.031 10.817-.062 19.434-.073 25.352-.02 2.948-.031 5.222-.041 6.769-.01.758-.021 1.339-.021 1.744-.031.384-.041.592-.041.592z" fill="#455A64"/><path d="M149.833 373.99c.135.062-5.056 12.063-11.596 26.816-6.541 14.752-11.96 26.66-12.095 26.598-.135-.063 5.056-12.064 11.596-26.816 6.541-14.753 11.96-26.661 12.095-26.598zM233.136 394.026s-.021-.197-.031-.581c-.011-.405-.021-.976-.032-1.713-.02-1.527-.041-3.738-.083-6.582-.041-5.71-.176-13.985-.373-24.19-.385-20.431-1.308-48.638-2.44-79.794-1.132-31.166-1.993-59.383-2.284-79.825-.156-10.215-.218-18.49-.197-24.199.01-2.845.02-5.056.02-6.583.011-.737.011-1.308.021-1.712.011-.385.021-.582.021-.582s.021.197.031.582c.01.404.021.975.031 1.712.021 1.527.042 3.738.083 6.583.042 5.709.177 13.984.374 24.189.384 20.431 1.308 48.638 2.44 79.815 1.131 31.155 1.993 59.373 2.284 79.804.155 10.215.218 18.49.197 24.2-.01 2.844-.021 5.055-.021 6.582-.01.737-.01 1.308-.021 1.713-.01.384-.02.581-.02.581zM172.682 258.132c.146 0 .27 27.117.27 60.556 0 33.45-.124 60.557-.27 60.557-.145 0-.27-27.107-.27-60.557 0-33.439.125-60.556.27-60.556zM107.806 415.996c-.01.011-.197-.238-.519-.726-.166-.26-.363-.55-.592-.903a9.766 9.766 0 01-.747-1.267c-1.121-1.91-2.398-4.9-3.291-8.773-.883-3.872-1.184-8.658-.644-13.88.592-5.212 1.994-10.88 4.496-16.403 1.256-2.772 2.886-5.284 4.702-7.485.436-.571.893-1.111 1.371-1.62.477-.519.934-1.038 1.412-1.526.996-.945 1.941-1.91 2.969-2.73 1.972-1.734 4.07-3.115 6.032-4.371 1.027-.561 1.983-1.152 2.958-1.63.987-.446 1.9-.955 2.835-1.298 3.675-1.495 6.841-2.221 9.053-2.408 1.1-.187 1.962-.114 2.543-.156.581-.01.893-.01.893.01 0 .021-.301.052-.883.104-.581.073-1.443.042-2.522.26-2.191.249-5.305 1.028-8.929 2.554-.924.342-1.816.861-2.792 1.308-.955.477-1.911 1.069-2.918 1.64-1.941 1.256-3.996 2.637-5.938 4.371-1.017.82-1.941 1.775-2.928 2.72-.467.488-.923 1.007-1.391 1.516a18.31 18.31 0 00-1.349 1.609c-1.786 2.18-3.395 4.661-4.631 7.381-2.47 5.461-3.882 11.077-4.495 16.237-.571 5.17-.311 9.904.519 13.746.831 3.841 2.045 6.82 3.104 8.751.229.499.468.924.696 1.288.208.353.394.664.55.924.301.477.447.747.436.757z" fill="#455A64"/></g><defs><clipPath id="clip0"><path fill="#fff" transform="translate(.23)" d="M0 0h529.77v428.388H0z"/></clipPath></defs></svg>