<svg width="54" height="54" viewBox="0 0 54 54" fill="none" xmlns="http://www.w3.org/2000/svg">
<path d="M19.8127 37.189C11.0808 37.617 2.31223 23.9474 7.10448 15.8483C14.9189 2.64163 31.7132 8.61497 25.6089 21.7778C22.6565 28.1443 28.5445 36.761 19.8127 37.189Z" stroke="#FF57C6" stroke-width="2"/>
<path d="M15.2857 18.2378C14.1162 9.45689 25.5649 10.3593 31 10.3595C36.4352 10.3597 43.5001 9.35952 45.4383 13.8994C46.9155 17.3595 46.1235 19.8379 36.4311 25.6486C26.7387 31.4594 16.7475 29.2139 15.2857 18.2378Z" stroke="#10E6D9" stroke-width="2"/>
<path d="M46.0973 20.5663C56.5959 23.9774 48.7301 37.331 40.8858 39.8946C33.0415 42.4582 25.1811 39.8088 24.4953 31.1474C23.8095 22.4859 35.5988 17.1553 46.0973 20.5663Z" stroke="#ED534B" stroke-width="2"/>
<path d="M42.4459 46.395C37.8804 50.9634 32.6036 48.3295 30.5359 46.4415C26.697 43.2189 19.7737 39.7816 20.3026 32.1898C20.9638 22.7001 30.056 18.1874 37.4262 23.0049C44.7965 27.8223 48.1529 40.6846 42.4459 46.395Z" stroke="#9F72FF" stroke-width="2"/>
<path d="M37.462 34.0977C39.2022 38.3343 37.2628 44.279 27.1411 48.405C16.5162 52.736 10.1866 46.5486 9.44173 39.7243C9.02952 35.9476 8.81408 32.2184 14.1176 29.3936C21.3178 25.5586 35.7218 29.8612 37.462 34.0977Z" stroke="#FFA800" stroke-width="2"/>
</svg>
